<svg width="21" height="15" viewBox="0 0 21 15" fill="none" xmlns="http://www.w3.org/2000/svg">
<path d="M9.89576 7.65104C10.0649 7.76412 10.3838 7.76412 10.6196 7.59837L19.2023 0.421672C18.7825 0.154873 18.2941 0 17.7753 0H2.67339C2.15 0 1.65929 0.148531 1.24414 0.409108L9.89576 7.65104Z" fill="#633F94"/>
<path d="M11.8215 9.16831C11.3199 9.52155 10.7545 9.69502 10.1988 9.69502C9.66536 9.69502 9.14058 9.53459 8.69118 9.22002L0.0829935 2.01807C0.0295974 2.23087 0 2.45085 0 2.67199V12.2616C0 13.7362 1.19749 14.9336 2.67204 14.9336H17.774C19.2485 14.9336 20.446 13.7362 20.446 12.2616V2.67199C20.446 2.452 20.42 2.23479 20.3695 2.02501L11.8215 9.16831Z" fill="#633F94"/>
</svg>
