<svg width="40" height="40" viewBox="0 0 40 40" fill="none" xmlns="http://www.w3.org/2000/svg">
<g clip-path="url(#clip0_242_4436)">
<path d="M2.16797 18.3833V38C2.16797 39.1 3.06797 40 4.16797 40H35.8346C36.9513 40 37.8346 39.1 37.8346 38V18.3833H2.16797ZM24.8663 24.6616H15.1363C14.2413 24.6616 13.5146 23.935 13.5146 23.04C13.5146 22.145 14.2413 21.4183 15.1363 21.4183H24.8663C25.7613 21.4183 26.488 22.145 26.488 23.04C26.488 23.935 25.7613 24.6616 24.8663 24.6616Z" fill="black"/>
<path d="M39.1667 15.0532H0.833333C0.373333 15.0532 0 14.6799 0 14.2199V7.48657H40V14.2216C40 14.6816 39.6267 15.0532 39.1667 15.0532Z" fill="black"/>
<path d="M34.0533 0H5.94667L0 7.48667H40L34.0533 0Z" fill="black"/>
</g>
<defs>
<clipPath id="clip0_242_4436">
<rect width="40" height="40" fill="white"/>
</clipPath>
</defs>
</svg>
