<svg width="65" height="73" viewBox="0 0 65 73" fill="none" xmlns="http://www.w3.org/2000/svg">
<mask id="mask0_242_2698" style="mask-type:luminance" maskUnits="userSpaceOnUse" x="0" y="12" width="48" height="58">
<path d="M2.33334 56.21L25.8638 69.7744L25.857 60.3897L8.35204 50.3002L8.35953 27.2792L14.6078 30.8748L31.6093 21.0655C31.9079 20.9154 32.2452 20.8305 32.6022 20.8305C32.9103 20.8305 33.2038 20.8937 33.4704 21.0074L39.9412 24.7916L47.0989 20.5682L33.6111 12.7892L33.601 12.7896C33.227 12.572 32.7924 12.4473 32.3287 12.4473C31.878 12.4473 31.4549 12.565 31.0882 12.7714L31.0864 12.7712L14.6041 22.1852L3.78736 15.9468L3.7871 15.947C3.41763 15.7364 2.99004 15.616 2.53419 15.616C1.13467 15.616 0 16.7506 0 18.1502C0 18.2252 0.00337525 18.2995 0.00987479 18.373L0.00737863 52.2116C0.0035039 52.2854 0.00150136 52.3598 0.00150136 52.4348C0.00150136 54.0868 0.950685 55.5169 2.33334 56.21Z" fill="white"/>
</mask>
<g mask="url(#mask0_242_2698)">
<path fill-rule="evenodd" clip-rule="evenodd" d="M-18.9141 36.3726L-18.58 36.0259L21.3222 74.4843L20.9881 74.831L-18.9141 36.3726Z" fill="#FE9600"/>
<path fill-rule="evenodd" clip-rule="evenodd" d="M-18.6504 36.0982L-18.4408 35.8809L21.4614 74.3394L21.2519 74.5567L-18.6504 36.0982Z" fill="#FE9600"/>
<path fill-rule="evenodd" clip-rule="evenodd" d="M-18.5098 35.9532L-18.3003 35.7358L21.6019 74.1942L21.3924 74.4116L-18.5098 35.9532Z" fill="#FE9600"/>
<path fill-rule="evenodd" clip-rule="evenodd" d="M-18.3691 35.8087L-18.1597 35.5913L21.7426 74.0497L21.5331 74.2671L-18.3691 35.8087Z" fill="#FE9600"/>
<path fill-rule="evenodd" clip-rule="evenodd" d="M-18.2305 35.6636L-18.021 35.4463L21.8812 73.9048L21.6717 74.1222L-18.2305 35.6636Z" fill="#FE9601"/>
<path fill-rule="evenodd" clip-rule="evenodd" d="M-18.0898 35.5186L-17.8804 35.3013L22.0219 73.7597L21.8123 73.977L-18.0898 35.5186Z" fill="#FE9601"/>
<path fill-rule="evenodd" clip-rule="evenodd" d="M-17.9512 35.3736L-17.7417 35.1562L22.1605 73.6146L21.951 73.832L-17.9512 35.3736Z" fill="#FE9601"/>
<path fill-rule="evenodd" clip-rule="evenodd" d="M-17.8105 35.2286L-17.6011 35.0112L22.3011 73.4696L22.0916 73.687L-17.8105 35.2286Z" fill="#FE9502"/>
<path fill-rule="evenodd" clip-rule="evenodd" d="M-17.6719 35.0836L-17.4623 34.8662L22.4399 73.3246L22.2304 73.542L-17.6719 35.0836Z" fill="#FE9502"/>
<path fill-rule="evenodd" clip-rule="evenodd" d="M-17.5312 34.9392L-17.3218 34.7217L22.5804 73.1802L22.3709 73.3976L-17.5312 34.9392Z" fill="#FD9503"/>
<path fill-rule="evenodd" clip-rule="evenodd" d="M-17.3926 34.794L-17.1831 34.5767L22.7192 73.035L22.5097 73.2524L-17.3926 34.794Z" fill="#FD9504"/>
<path fill-rule="evenodd" clip-rule="evenodd" d="M-17.252 34.649L-17.0425 34.4316L22.8597 72.89L22.6502 73.1074L-17.252 34.649Z" fill="#FD9405"/>
<path fill-rule="evenodd" clip-rule="evenodd" d="M-17.1133 34.504L-16.9038 34.2866L22.9984 72.7451L22.7889 72.9625L-17.1133 34.504Z" fill="#FD9405"/>
<path fill-rule="evenodd" clip-rule="evenodd" d="M-16.9727 34.359L-16.763 34.1416L23.1391 72.6L22.9296 72.8174L-16.9727 34.359Z" fill="#FD9406"/>
<path fill-rule="evenodd" clip-rule="evenodd" d="M-16.8359 34.2144L-16.6264 33.9971L23.2757 72.4555L23.0662 72.6728L-16.8359 34.2144Z" fill="#FD9307"/>
<path fill-rule="evenodd" clip-rule="evenodd" d="M-16.6953 34.0694L-16.4858 33.8521L23.4165 72.3106L23.207 72.5279L-16.6953 34.0694Z" fill="#FD9308"/>
<path fill-rule="evenodd" clip-rule="evenodd" d="M-16.5527 33.9244L-16.3432 33.707L23.5589 72.1654L23.3494 72.3828L-16.5527 33.9244Z" fill="#FC9309"/>
<path fill-rule="evenodd" clip-rule="evenodd" d="M-16.416 33.7794L-16.2065 33.562L23.6958 72.0204L23.4861 72.2378L-16.416 33.7794Z" fill="#FC920A"/>
<path fill-rule="evenodd" clip-rule="evenodd" d="M-16.2754 33.6343L-16.0659 33.417L23.8363 71.8754L23.6268 72.0927L-16.2754 33.6343Z" fill="#FC920C"/>
<path fill-rule="evenodd" clip-rule="evenodd" d="M-16.1367 33.4893L-15.9272 33.272L23.9749 71.7304L23.7654 71.9477L-16.1367 33.4893Z" fill="#FC910D"/>
<path fill-rule="evenodd" clip-rule="evenodd" d="M-15.9941 33.3444L-15.7847 33.127L24.1176 71.5855L23.9081 71.8028L-15.9941 33.3444Z" fill="#FC910E"/>
<path fill-rule="evenodd" clip-rule="evenodd" d="M-15.8574 33.1998L-15.6479 32.9824L24.2542 71.4408L24.0447 71.6582L-15.8574 33.1998Z" fill="#FB9010"/>
<path fill-rule="evenodd" clip-rule="evenodd" d="M-15.7168 33.0548L-15.5073 32.8374L24.395 71.2958L24.1854 71.5131L-15.7168 33.0548Z" fill="#FB9011"/>
<path fill-rule="evenodd" clip-rule="evenodd" d="M-15.5781 32.9098L-15.3686 32.6924L24.5335 71.1509L24.324 71.3683L-15.5781 32.9098Z" fill="#FB8F13"/>
<path fill-rule="evenodd" clip-rule="evenodd" d="M-15.4375 32.7647L-15.228 32.5474L24.6741 71.0057L24.4647 71.2231L-15.4375 32.7647Z" fill="#FA8F14"/>
<path fill-rule="evenodd" clip-rule="evenodd" d="M-15.2988 32.6202L-15.0892 32.4028L24.8129 70.8612L24.6035 71.0786L-15.2988 32.6202Z" fill="#FA8E16"/>
<path fill-rule="evenodd" clip-rule="evenodd" d="M-15.1582 32.4757L-14.9487 32.2583L24.9534 70.7168L24.7439 70.9342L-15.1582 32.4757Z" fill="#FA8E17"/>
<path fill-rule="evenodd" clip-rule="evenodd" d="M-15.0195 32.3306L-14.81 32.1133L25.0922 70.5717L24.8828 70.789L-15.0195 32.3306Z" fill="#FA8D19"/>
<path fill-rule="evenodd" clip-rule="evenodd" d="M-14.8789 32.1856L-14.6694 31.9683L25.2327 70.4267L25.0233 70.644L-14.8789 32.1856Z" fill="#F98C1B"/>
<path fill-rule="evenodd" clip-rule="evenodd" d="M-14.7402 32.0406L-14.5308 31.8232L25.3714 70.2816L25.1619 70.4991L-14.7402 32.0406Z" fill="#F98C1C"/>
<path fill-rule="evenodd" clip-rule="evenodd" d="M-14.5996 31.8961L-14.39 31.6787L25.5122 70.1371L25.3027 70.3545L-14.5996 31.8961Z" fill="#F98B1E"/>
<path fill-rule="evenodd" clip-rule="evenodd" d="M-14.4609 31.7512L-14.2514 31.5337L25.6507 69.9922L25.4412 70.2096L-14.4609 31.7512Z" fill="#F88A20"/>
<path fill-rule="evenodd" clip-rule="evenodd" d="M-14.3203 31.606L-14.1108 31.3887L25.7915 69.8471L25.582 70.0644L-14.3203 31.606Z" fill="#F88A22"/>
<path fill-rule="evenodd" clip-rule="evenodd" d="M-14.1797 31.461L-13.9702 31.2437L25.932 69.702L25.7225 69.9194L-14.1797 31.461Z" fill="#F88924"/>
<path fill-rule="evenodd" clip-rule="evenodd" d="M-14.041 31.316L-13.8315 31.0986L26.0708 69.5571L25.8611 69.7745L-14.041 31.316Z" fill="#F78826"/>
<path fill-rule="evenodd" clip-rule="evenodd" d="M-13.9004 31.171L-13.6909 30.9536L26.2113 69.412L26.0018 69.6294L-13.9004 31.171Z" fill="#F78828"/>
<path fill-rule="evenodd" clip-rule="evenodd" d="M-13.7617 31.0264L-13.5522 30.8091L26.3499 69.2675L26.1404 69.4848L-13.7617 31.0264Z" fill="#F6872A"/>
<path fill-rule="evenodd" clip-rule="evenodd" d="M-13.6211 30.8814L-13.4115 30.6641L26.4907 69.1226L26.2812 69.3399L-13.6211 30.8814Z" fill="#F6862C"/>
<path fill-rule="evenodd" clip-rule="evenodd" d="M-13.4824 30.7364L-13.2729 30.519L26.6292 68.9774L26.4197 69.1948L-13.4824 30.7364Z" fill="#F6852E"/>
<path fill-rule="evenodd" clip-rule="evenodd" d="M-13.3418 30.5914L-13.1323 30.374L26.77 68.8324L26.5605 69.0498L-13.3418 30.5914Z" fill="#F58430"/>
<path fill-rule="evenodd" clip-rule="evenodd" d="M-13.2031 30.4464L-12.9936 30.229L26.9085 68.6874L26.699 68.9049L-13.2031 30.4464Z" fill="#F58433"/>
<path fill-rule="evenodd" clip-rule="evenodd" d="M-13.0625 30.3018L-12.853 30.0845L27.0491 68.5429L26.8397 68.7602L-13.0625 30.3018Z" fill="#F48335"/>
<path fill-rule="evenodd" clip-rule="evenodd" d="M-12.9238 30.1569L-12.7142 29.9395L27.1879 68.398L26.9785 68.6153L-12.9238 30.1569Z" fill="#F48237"/>
<path fill-rule="evenodd" clip-rule="evenodd" d="M-12.7832 30.0118L-12.5737 29.7944L27.3284 68.2528L27.1189 68.4702L-12.7832 30.0118Z" fill="#F48139"/>
<path fill-rule="evenodd" clip-rule="evenodd" d="M-12.6445 29.8668L-12.435 29.6494L27.4672 68.1078L27.2578 68.3252L-12.6445 29.8668Z" fill="#F3803C"/>
<path fill-rule="evenodd" clip-rule="evenodd" d="M-12.5039 29.7217L-12.2944 29.5044L27.6077 67.9629L27.3983 68.1803L-12.5039 29.7217Z" fill="#F37F3E"/>
<path fill-rule="evenodd" clip-rule="evenodd" d="M-12.3652 29.5772L-12.1558 29.3599L27.7465 67.8182L27.5369 68.0356L-12.3652 29.5772Z" fill="#F27F40"/>
<path fill-rule="evenodd" clip-rule="evenodd" d="M-12.2246 29.4322L-12.0151 29.2148L27.887 67.6732L27.6776 67.8906L-12.2246 29.4322Z" fill="#F27E43"/>
<path fill-rule="evenodd" clip-rule="evenodd" d="M-12.084 29.2872L-11.8745 29.0698L28.0277 67.5283L27.8182 67.7457L-12.084 29.2872Z" fill="#F17D45"/>
<path fill-rule="evenodd" clip-rule="evenodd" d="M-11.9453 29.1422L-11.7358 28.9248L28.1665 67.3832L27.957 67.6006L-11.9453 29.1422Z" fill="#F17C48"/>
<path fill-rule="evenodd" clip-rule="evenodd" d="M-11.8047 28.9971L-11.5952 28.7798L28.307 67.2382L28.0975 67.4555L-11.8047 28.9971Z" fill="#F07B4A"/>
<path fill-rule="evenodd" clip-rule="evenodd" d="M-11.666 28.8521L-11.4565 28.6348L28.4458 67.0932L28.2361 67.3106L-11.666 28.8521Z" fill="#F07A4D"/>
<path fill-rule="evenodd" clip-rule="evenodd" d="M-11.5254 28.7076L-11.3159 28.4902L28.5863 66.9486L28.3768 67.166L-11.5254 28.7076Z" fill="#EF794F"/>
<path fill-rule="evenodd" clip-rule="evenodd" d="M-11.3867 28.5626L-11.1772 28.3452L28.7249 66.8036L28.5154 67.021L-11.3867 28.5626Z" fill="#EF7852"/>
<path fill-rule="evenodd" clip-rule="evenodd" d="M-11.248 28.4176L-11.0384 28.2002L28.8637 66.6586L28.6542 66.8759L-11.248 28.4176Z" fill="#EE7754"/>
<path fill-rule="evenodd" clip-rule="evenodd" d="M-11.1074 28.2725L-10.8979 28.0552L29.0042 66.5136L28.7947 66.7309L-11.1074 28.2725Z" fill="#EE7657"/>
<path fill-rule="evenodd" clip-rule="evenodd" d="M-10.9668 28.128L-10.7573 27.9106L29.145 66.3692L28.9355 66.5865L-10.9668 28.128Z" fill="#ED7559"/>
<path fill-rule="evenodd" clip-rule="evenodd" d="M-10.8301 27.9835L-10.6206 27.7661L29.2816 66.2245L29.0721 66.4419L-10.8301 27.9835Z" fill="#ED745C"/>
<path fill-rule="evenodd" clip-rule="evenodd" d="M-10.6895 27.8384L-10.48 27.6211L29.4223 66.0795L29.2127 66.2968L-10.6895 27.8384Z" fill="#EC735E"/>
<path fill-rule="evenodd" clip-rule="evenodd" d="M-10.5488 27.6934L-10.3393 27.4761L29.5628 65.9346L29.3533 66.152L-10.5488 27.6934Z" fill="#EC7261"/>
<path fill-rule="evenodd" clip-rule="evenodd" d="M-10.4102 27.5484L-10.2007 27.3311L29.7015 65.7895L29.492 66.0068L-10.4102 27.5484Z" fill="#EB7164"/>
<path fill-rule="evenodd" clip-rule="evenodd" d="M-10.2715 27.4034L-10.062 27.186L29.8403 65.6444L29.6308 65.8618L-10.2715 27.4034Z" fill="#EB7066"/>
<path fill-rule="evenodd" clip-rule="evenodd" d="M-10.1309 27.2589L-9.92138 27.0415L29.9808 65.4999L29.7713 65.7174L-10.1309 27.2589Z" fill="#EA6F69"/>
<path fill-rule="evenodd" clip-rule="evenodd" d="M-9.99023 27.1138L-9.78075 26.8965L30.1215 65.3549L29.9119 65.5722L-9.99023 27.1138Z" fill="#EA6E6B"/>
<path fill-rule="evenodd" clip-rule="evenodd" d="M-9.85156 26.9688L-9.64207 26.7515L30.2601 65.2099L30.0506 65.4272L-9.85156 26.9688Z" fill="#E96D6E"/>
<path fill-rule="evenodd" clip-rule="evenodd" d="M-9.71094 26.8238L-9.50146 26.6064L30.4007 65.0648L30.1912 65.2822L-9.71094 26.8238Z" fill="#E86C71"/>
<path fill-rule="evenodd" clip-rule="evenodd" d="M-9.57227 26.6788L-9.36266 26.4614L30.5395 64.9198L30.33 65.1372L-9.57227 26.6788Z" fill="#E86B73"/>
<path fill-rule="evenodd" clip-rule="evenodd" d="M-9.43164 26.5338L-9.22215 26.3164L30.68 64.7749L30.4705 64.9923L-9.43164 26.5338Z" fill="#E76A76"/>
<path fill-rule="evenodd" clip-rule="evenodd" d="M-9.29297 26.3892L-9.08348 26.1719L30.8188 64.6303L30.6093 64.8476L-9.29297 26.3892Z" fill="#E76978"/>
<path fill-rule="evenodd" clip-rule="evenodd" d="M-9.15234 26.2442L-8.94286 26.0269L30.9593 64.4852L30.7498 64.7026L-9.15234 26.2442Z" fill="#E6687B"/>
<path fill-rule="evenodd" clip-rule="evenodd" d="M-9.01367 26.0992L-8.80418 25.8818L31.098 64.3403L30.8885 64.5577L-9.01367 26.0992Z" fill="#E6677E"/>
<path fill-rule="evenodd" clip-rule="evenodd" d="M-8.87305 25.9542L-8.66344 25.7368L31.2387 64.1952L31.0292 64.4126L-8.87305 25.9542Z" fill="#E56680"/>
<path fill-rule="evenodd" clip-rule="evenodd" d="M-8.73438 25.8097L-8.52489 25.5923L31.3773 64.0507L31.1678 64.268L-8.73438 25.8097Z" fill="#E46583"/>
<path fill-rule="evenodd" clip-rule="evenodd" d="M-8.59375 25.6646L-8.38426 25.4473L31.518 63.9057L31.3085 64.1231L-8.59375 25.6646Z" fill="#E46386"/>
<path fill-rule="evenodd" clip-rule="evenodd" d="M-8.45508 25.5196L-8.2456 25.3022L31.6566 63.7606L31.4471 63.978L-8.45508 25.5196Z" fill="#E36288"/>
<path fill-rule="evenodd" clip-rule="evenodd" d="M-8.31445 25.3746L-8.10496 25.1572L31.7973 63.6156L31.5877 63.833L-8.31445 25.3746Z" fill="#E3618B"/>
<path fill-rule="evenodd" clip-rule="evenodd" d="M-8.17578 25.2296L-7.9663 25.0122L31.9359 63.4706L31.7264 63.688L-8.17578 25.2296Z" fill="#E2608D"/>
<path fill-rule="evenodd" clip-rule="evenodd" d="M-8.03516 25.085L-7.82567 24.8677L32.0765 63.3261L31.867 63.5434L-8.03516 25.085Z" fill="#E15F90"/>
<path fill-rule="evenodd" clip-rule="evenodd" d="M-7.89453 24.94L-7.68505 24.7227L32.2172 63.1812L32.0078 63.3985L-7.89453 24.94Z" fill="#E15E92"/>
<path fill-rule="evenodd" clip-rule="evenodd" d="M-7.75586 24.795L-7.54638 24.5776L32.3558 63.036L32.1463 63.2534L-7.75586 24.795Z" fill="#E05D95"/>
<path fill-rule="evenodd" clip-rule="evenodd" d="M-7.61523 24.65L-7.40575 24.4326L32.4965 62.891L32.2869 63.1084L-7.61523 24.65Z" fill="#E05C97"/>
<path fill-rule="evenodd" clip-rule="evenodd" d="M-7.47656 24.505L-7.26707 24.2876L32.6351 62.7461L32.4256 62.9635L-7.47656 24.505Z" fill="#DF5B9A"/>
<path fill-rule="evenodd" clip-rule="evenodd" d="M-7.33594 24.3599L-7.12646 24.1426L32.7757 62.601L32.5662 62.8183L-7.33594 24.3599Z" fill="#DF5A9C"/>
<path fill-rule="evenodd" clip-rule="evenodd" d="M-7.19727 24.2159L-6.98766 23.9985L32.9145 62.4569L32.705 62.6743L-7.19727 24.2159Z" fill="#DE599F"/>
<path fill-rule="evenodd" clip-rule="evenodd" d="M-7.05664 24.0709L-6.84715 23.8535L33.055 62.3119L32.8455 62.5294L-7.05664 24.0709Z" fill="#DD58A1"/>
<path fill-rule="evenodd" clip-rule="evenodd" d="M-6.91797 23.9259L-6.70849 23.7085L33.1938 62.1669L32.9843 62.3842L-6.91797 23.9259Z" fill="#DD57A4"/>
<path fill-rule="evenodd" clip-rule="evenodd" d="M-6.77734 23.7808L-6.56786 23.5635L33.3343 62.0219L33.1248 62.2392L-6.77734 23.7808Z" fill="#DC56A6"/>
<path fill-rule="evenodd" clip-rule="evenodd" d="M-6.63867 23.6358L-6.42918 23.4185L33.4731 61.8768L33.2635 62.0942L-6.63867 23.6358Z" fill="#DC55A9"/>
<path fill-rule="evenodd" clip-rule="evenodd" d="M-6.49805 23.4908L-6.28856 23.2734L33.6136 61.7318L33.4041 61.9492L-6.49805 23.4908Z" fill="#DB54AB"/>
<path fill-rule="evenodd" clip-rule="evenodd" d="M-6.35938 23.3463L-6.14989 23.1289L33.7523 61.5874L33.5428 61.8048L-6.35938 23.3463Z" fill="#DA52AD"/>
<path fill-rule="evenodd" clip-rule="evenodd" d="M-6.21875 23.2012L-6.00926 22.9839L33.893 61.4423L33.6835 61.6596L-6.21875 23.2012Z" fill="#DA51B0"/>
<path fill-rule="evenodd" clip-rule="evenodd" d="M-6.07812 23.0562L-5.86864 22.8389L34.0335 61.2973L33.824 61.5146L-6.07812 23.0562Z" fill="#D950B2"/>
<path fill-rule="evenodd" clip-rule="evenodd" d="M-5.93945 22.9112L-5.72996 22.6938L34.1723 61.1524L33.9627 61.3697L-5.93945 22.9112Z" fill="#D84FB4"/>
<path fill-rule="evenodd" clip-rule="evenodd" d="M-5.79883 22.7662L-5.58935 22.5488L34.3128 61.0072L34.1033 61.2246L-5.79883 22.7662Z" fill="#D84EB6"/>
<path fill-rule="evenodd" clip-rule="evenodd" d="M-5.66016 22.6217L-5.45067 22.4043L34.4515 60.8627L34.242 61.08L-5.66016 22.6217Z" fill="#D74DB8"/>
<path fill-rule="evenodd" clip-rule="evenodd" d="M-5.51953 22.4766L-5.30992 22.2593L34.5922 60.7177L34.3828 60.9351L-5.51953 22.4766Z" fill="#D74CBB"/>
<path fill-rule="evenodd" clip-rule="evenodd" d="M-5.38281 22.3316L-5.17333 22.1143L34.7288 60.5727L34.5193 60.79L-5.38281 22.3316Z" fill="#D64BBD"/>
<path fill-rule="evenodd" clip-rule="evenodd" d="M-5.24219 22.1866L-5.03271 21.9692L34.8696 60.4276L34.6601 60.645L-5.24219 22.1866Z" fill="#D54ABF"/>
<path fill-rule="evenodd" clip-rule="evenodd" d="M-5.10156 22.0416L-4.89208 21.8242L35.0101 60.2826L34.8006 60.5L-5.10156 22.0416Z" fill="#D549C1"/>
<path fill-rule="evenodd" clip-rule="evenodd" d="M-4.96289 21.897L-4.75341 21.6797L35.1488 60.1381L34.9393 60.3554L-4.96289 21.897Z" fill="#D448C3"/>
<path fill-rule="evenodd" clip-rule="evenodd" d="M-4.82422 21.752L-4.61461 21.5347L35.2876 59.9932L35.0781 60.2105L-4.82422 21.752Z" fill="#D447C5"/>
<path fill-rule="evenodd" clip-rule="evenodd" d="M-4.68359 21.607L-4.47411 21.3896L35.4281 59.848L35.2186 60.0654L-4.68359 21.607Z" fill="#D346C7"/>
<path fill-rule="evenodd" clip-rule="evenodd" d="M-4.54297 21.462L-4.33349 21.2446L35.5688 59.703L35.3593 59.9204L-4.54297 21.462Z" fill="#D345C9"/>
<path fill-rule="evenodd" clip-rule="evenodd" d="M-4.4043 21.317L-4.19481 21.0996L35.7073 59.5581L35.4979 59.7755L-4.4043 21.317Z" fill="#D244CA"/>
<path fill-rule="evenodd" clip-rule="evenodd" d="M-4.26562 21.1724L-4.05614 20.9551L35.8461 59.4135L35.6365 59.6308L-4.26562 21.1724Z" fill="#D144CC"/>
<path fill-rule="evenodd" clip-rule="evenodd" d="M-4.125 21.0274L-3.91551 20.8101L35.9866 59.2685L35.7772 59.4858L-4.125 21.0274Z" fill="#D143CE"/>
<path fill-rule="evenodd" clip-rule="evenodd" d="M-3.98633 20.8824L-3.77684 20.665L36.1253 59.1234L35.9158 59.3409L-3.98633 20.8824Z" fill="#D042D0"/>
<path fill-rule="evenodd" clip-rule="evenodd" d="M-3.8457 20.7374L-3.63621 20.52L36.2661 58.9784L36.0566 59.1958L-3.8457 20.7374Z" fill="#D041D1"/>
<path fill-rule="evenodd" clip-rule="evenodd" d="M-3.70508 20.5929L-3.49559 20.3755L36.4066 58.8339L36.1971 59.0512L-3.70508 20.5929Z" fill="#CF40D3"/>
<path fill-rule="evenodd" clip-rule="evenodd" d="M-3.56641 20.4478L-3.35692 20.2305L36.5454 58.6889L36.3359 58.9062L-3.56641 20.4478Z" fill="#CE3FD5"/>
<path fill-rule="evenodd" clip-rule="evenodd" d="M-3.42578 20.3028L-3.2163 20.0854L36.6859 58.5438L36.4764 58.7612L-3.42578 20.3028Z" fill="#CE3ED6"/>
<path fill-rule="evenodd" clip-rule="evenodd" d="M-3.28711 20.1578L-3.07763 19.9404L36.8245 58.3989L36.6151 58.6163L-3.28711 20.1578Z" fill="#CD3DD8"/>
<path fill-rule="evenodd" clip-rule="evenodd" d="M-3.14648 20.0133L-2.93687 19.7959L36.9653 58.2543L36.7558 58.4716L-3.14648 20.0133Z" fill="#CD3CD9"/>
<path fill-rule="evenodd" clip-rule="evenodd" d="M-3.00781 19.8682L-2.79833 19.6509L37.1038 58.1093L36.8943 58.3266L-3.00781 19.8682Z" fill="#CC3BDA"/>
<path fill-rule="evenodd" clip-rule="evenodd" d="M-2.86719 19.7232L-2.65771 19.5059L37.2446 57.9644L37.0351 58.1817L-2.86719 19.7232Z" fill="#CC3BDC"/>
<path fill-rule="evenodd" clip-rule="evenodd" d="M-2.72852 19.5782L-2.51903 19.3608L37.3831 57.8192L37.1736 58.0366L-2.72852 19.5782Z" fill="#CB3ADD"/>
<path fill-rule="evenodd" clip-rule="evenodd" d="M-2.58789 19.4337L-2.37841 19.2163L37.5239 57.6747L37.3143 57.8921L-2.58789 19.4337Z" fill="#CA39DE"/>
<path fill-rule="evenodd" clip-rule="evenodd" d="M-2.44922 19.2886L-2.23973 19.0713L37.6624 57.5297L37.4529 57.7472L-2.44922 19.2886Z" fill="#CA38DF"/>
<path fill-rule="evenodd" clip-rule="evenodd" d="M-2.30859 19.1436L-2.09911 18.9263L37.803 57.3847L37.5936 57.602L-2.30859 19.1436Z" fill="#C937E0"/>
<path fill-rule="evenodd" clip-rule="evenodd" d="M-2.16992 18.9986L-1.96044 18.7812L37.9418 57.2396L37.7324 57.457L-2.16992 18.9986Z" fill="#C937E1"/>
<path fill-rule="evenodd" clip-rule="evenodd" d="M-2.0293 18.8536L-1.81981 18.6362L38.0824 57.0946L37.8729 57.312L-2.0293 18.8536Z" fill="#C836E2"/>
<path fill-rule="evenodd" clip-rule="evenodd" d="M-1.89062 18.7091L-1.68114 18.4917L38.2211 56.9501L38.0115 57.1674L-1.89062 18.7091Z" fill="#C835E3"/>
<path fill-rule="evenodd" clip-rule="evenodd" d="M-1.75 18.564L-1.54051 18.3467L38.3616 56.8052L38.1522 57.0226L-1.75 18.564Z" fill="#C735E4"/>
<path fill-rule="evenodd" clip-rule="evenodd" d="M-1.60938 18.419L-1.39989 18.2017L38.5023 56.66L38.2928 56.8774L-1.60938 18.419Z" fill="#C734E5"/>
<path fill-rule="evenodd" clip-rule="evenodd" d="M-1.4707 18.274L-1.26109 18.0566L38.6411 56.515L38.4316 56.7324L-1.4707 18.274Z" fill="#C633E5"/>
<path fill-rule="evenodd" clip-rule="evenodd" d="M-1.33008 18.129L-1.12059 17.9116L38.7816 56.3701L38.5721 56.5875L-1.33008 18.129Z" fill="#C632E6"/>
<path fill-rule="evenodd" clip-rule="evenodd" d="M-1.19141 17.9844L-0.981918 17.7671L38.9204 56.2255L38.7109 56.4428L-1.19141 17.9844Z" fill="#C532E6"/>
<path fill-rule="evenodd" clip-rule="evenodd" d="M-1.05078 17.8394L-0.841299 17.6221L39.0609 56.0805L38.8514 56.2978L-1.05078 17.8394Z" fill="#C531E7"/>
<path fill-rule="evenodd" clip-rule="evenodd" d="M-0.912109 17.6944L-0.702621 17.4771L39.1995 55.9355L38.9901 56.1529L-0.912109 17.6944Z" fill="#C431E7"/>
<path fill-rule="evenodd" clip-rule="evenodd" d="M-0.771484 17.5494L-0.561874 17.332L39.3403 55.7904L39.1308 56.0078L-0.771484 17.5494Z" fill="#C430E7"/>
<path fill-rule="evenodd" clip-rule="evenodd" d="M-0.632812 17.4049L-0.42333 17.1875L39.4788 55.6459L39.2693 55.8633L-0.632812 17.4049Z" fill="#C32FE8"/>
<path fill-rule="evenodd" clip-rule="evenodd" d="M-0.492188 17.2598L-0.282699 17.0425L39.6196 55.5009L39.4101 55.7182L-0.492188 17.2598Z" fill="#C32FE8"/>
<path fill-rule="evenodd" clip-rule="evenodd" d="M-0.353516 17.1148L-0.144033 16.8975L39.7581 55.3559L39.5486 55.5732L-0.353516 17.1148Z" fill="#C22EE8"/>
<path fill-rule="evenodd" clip-rule="evenodd" d="M-0.212891 16.9698L-0.00340846 16.7524L39.8989 55.211L39.6893 55.4283L-0.212891 16.9698Z" fill="#C22EE8"/>
<path fill-rule="evenodd" clip-rule="evenodd" d="M-0.0742188 16.8248L0.13527 16.6074L40.0374 55.0658L39.8279 55.2832L-0.0742188 16.8248Z" fill="#C12DE8"/>
<path fill-rule="evenodd" clip-rule="evenodd" d="M0.0664062 16.6802L0.275888 16.4629L40.178 54.9213L39.9686 55.1386L0.0664062 16.6802Z" fill="#C12DE8"/>
<path fill-rule="evenodd" clip-rule="evenodd" d="M0.207031 16.5352L0.416642 16.3179L40.3188 54.7764L40.1093 54.9937L0.207031 16.5352Z" fill="#C02CE8"/>
<path fill-rule="evenodd" clip-rule="evenodd" d="M0.345703 16.3902L0.555191 16.1729L40.4574 54.6312L40.2479 54.8486L0.345703 16.3902Z" fill="#C02CE8"/>
<path fill-rule="evenodd" clip-rule="evenodd" d="M0.486328 16.2452L0.69581 16.0278L40.5981 54.4862L40.3886 54.7036L0.486328 16.2452Z" fill="#BF2BE8"/>
<path fill-rule="evenodd" clip-rule="evenodd" d="M0.623047 16.1002L0.832535 15.8828L40.7347 54.3412L40.5252 54.5587L0.623047 16.1002Z" fill="#BF2BE8"/>
<path fill-rule="evenodd" clip-rule="evenodd" d="M0.765625 15.9552L0.975113 15.7378L40.8773 54.1962L40.6678 54.4135L0.765625 15.9552Z" fill="#BE2AE8"/>
<path fill-rule="evenodd" clip-rule="evenodd" d="M0.904297 15.8111L1.11391 15.5938L41.0161 54.0521L40.8066 54.2695L0.904297 15.8111Z" fill="#BD29E8"/>
<path fill-rule="evenodd" clip-rule="evenodd" d="M1.04297 15.6661L1.25246 15.4487L41.1546 53.9071L40.9451 54.1245L1.04297 15.6661Z" fill="#BD29E8"/>
<path fill-rule="evenodd" clip-rule="evenodd" d="M1.18164 15.5211L1.39113 15.3037L41.2934 53.7621L41.0839 53.9795L1.18164 15.5211Z" fill="#BC28E8"/>
<path fill-rule="evenodd" clip-rule="evenodd" d="M1.32422 15.3761L1.5337 15.1587L41.4359 53.6172L41.2264 53.8346L1.32422 15.3761Z" fill="#BC28E8"/>
<path fill-rule="evenodd" clip-rule="evenodd" d="M1.46094 15.231L1.67043 15.0137L41.5727 53.4721L41.3631 53.6894L1.46094 15.231Z" fill="#BB27E8"/>
<path fill-rule="evenodd" clip-rule="evenodd" d="M1.60156 15.086L1.81104 14.8687L41.7132 53.327L41.5037 53.5444L1.60156 15.086Z" fill="#BB27E8"/>
<path fill-rule="evenodd" clip-rule="evenodd" d="M1.74023 14.941L1.94972 14.7236L41.8519 53.1821L41.6424 53.3995L1.74023 14.941Z" fill="#BA26E8"/>
<path fill-rule="evenodd" clip-rule="evenodd" d="M1.88086 14.7965L2.09035 14.5791L41.9926 53.0375L41.7831 53.2549L1.88086 14.7965Z" fill="#B926E8"/>
<path fill-rule="evenodd" clip-rule="evenodd" d="M2.01953 14.6514L2.22901 14.4341L42.1312 52.8925L41.9217 53.1098L2.01953 14.6514Z" fill="#B925E8"/>
<path fill-rule="evenodd" clip-rule="evenodd" d="M2.16016 14.5064L2.36964 14.2891L42.2719 52.7475L42.0623 52.9649L2.16016 14.5064Z" fill="#B825E7"/>
<path fill-rule="evenodd" clip-rule="evenodd" d="M2.29883 14.3614L2.50831 14.144L42.4105 52.6024L42.201 52.8198L2.29883 14.3614Z" fill="#B725E7"/>
<path fill-rule="evenodd" clip-rule="evenodd" d="M2.43945 14.2169L2.64894 13.9995L42.5511 52.4579L42.3416 52.6753L2.43945 14.2169Z" fill="#B724E7"/>
<path fill-rule="evenodd" clip-rule="evenodd" d="M2.58008 14.0719L2.78969 13.8545L42.6919 52.3129L42.4824 52.5302L2.58008 14.0719Z" fill="#B624E7"/>
<path fill-rule="evenodd" clip-rule="evenodd" d="M2.71875 13.9268L2.92823 13.7095L42.8304 52.1679L42.6209 52.3852L2.71875 13.9268Z" fill="#B623E7"/>
<path fill-rule="evenodd" clip-rule="evenodd" d="M2.85938 13.7818L3.06886 13.5645L42.9711 52.023L42.7617 52.2403L2.85938 13.7818Z" fill="#B523E7"/>
<path fill-rule="evenodd" clip-rule="evenodd" d="M2.99805 13.6368L3.20754 13.4194L43.1097 51.8778L42.9002 52.0952L2.99805 13.6368Z" fill="#B422E7"/>
<path fill-rule="evenodd" clip-rule="evenodd" d="M3.13867 13.4923L3.34816 13.2749L43.2503 51.7333L43.0408 51.9507L3.13867 13.4923Z" fill="#B422E7"/>
<path fill-rule="evenodd" clip-rule="evenodd" d="M3.27734 13.3472L3.48695 13.1299L43.3891 51.5884L43.1796 51.8058L3.27734 13.3472Z" fill="#B321E7"/>
<path fill-rule="evenodd" clip-rule="evenodd" d="M3.41797 13.2022L3.62746 12.9849L43.5296 51.4432L43.3201 51.6606L3.41797 13.2022Z" fill="#B221E7"/>
<path fill-rule="evenodd" clip-rule="evenodd" d="M3.55664 13.0572L3.76612 12.8398L43.6684 51.2982L43.4589 51.5156L3.55664 13.0572Z" fill="#B221E7"/>
<path fill-rule="evenodd" clip-rule="evenodd" d="M3.69727 12.9122L3.90675 12.6948L43.8089 51.1533L43.5994 51.3707L3.69727 12.9122Z" fill="#B120E7"/>
<path fill-rule="evenodd" clip-rule="evenodd" d="M3.83594 12.7676L4.04542 12.5503L43.9477 51.0087L43.7381 51.226L3.83594 12.7676Z" fill="#B020E7"/>
<path fill-rule="evenodd" clip-rule="evenodd" d="M3.97656 12.6226L4.18606 12.4053L44.0882 50.8637L43.8787 51.081L3.97656 12.6226Z" fill="#B01FE6"/>
<path fill-rule="evenodd" clip-rule="evenodd" d="M4.11523 12.4776L4.32472 12.2603L44.2269 50.7187L44.0174 50.936L4.11523 12.4776Z" fill="#AF1FE6"/>
<path fill-rule="evenodd" clip-rule="evenodd" d="M4.25586 12.3326L4.46546 12.1152L44.3676 50.5736L44.1581 50.791L4.25586 12.3326Z" fill="#AE1EE6"/>
<path fill-rule="evenodd" clip-rule="evenodd" d="M4.39648 12.1876L4.60597 11.9702L44.5081 50.4287L44.2986 50.6461L4.39648 12.1876Z" fill="#AE1EE6"/>
<path fill-rule="evenodd" clip-rule="evenodd" d="M4.53516 12.0426L4.74464 11.8252L44.6469 50.2836L44.4374 50.5009L4.53516 12.0426Z" fill="#AD1EE6"/>
<path fill-rule="evenodd" clip-rule="evenodd" d="M4.67578 11.8985L4.88528 11.6812L44.7874 50.1395L44.5779 50.3569L4.67578 11.8985Z" fill="#AC1DE6"/>
<path fill-rule="evenodd" clip-rule="evenodd" d="M4.81445 11.7535L5.02395 11.5361L44.9261 49.9947L44.7166 50.212L4.81445 11.7535Z" fill="#AC1DE6"/>
<path fill-rule="evenodd" clip-rule="evenodd" d="M4.95508 11.6085L5.16469 11.3911L45.0669 49.8495L44.8574 50.0669L4.95508 11.6085Z" fill="#AB1DE6"/>
<path fill-rule="evenodd" clip-rule="evenodd" d="M5.09375 11.4634L5.30323 11.2461L45.2054 49.7045L44.9959 49.9218L5.09375 11.4634Z" fill="#AA1CE6"/>
<path fill-rule="evenodd" clip-rule="evenodd" d="M5.23438 11.3184L5.44386 11.1011L45.3461 49.5596L45.1367 49.777L5.23438 11.3184Z" fill="#AA1CE6"/>
<path fill-rule="evenodd" clip-rule="evenodd" d="M5.37305 11.1739L5.58253 10.9565L45.4847 49.4149L45.2752 49.6323L5.37305 11.1739Z" fill="#A91BE5"/>
<path fill-rule="evenodd" clip-rule="evenodd" d="M5.51367 11.0289L5.72317 10.8115L45.6254 49.2699L45.4158 49.4873L5.51367 11.0289Z" fill="#A81BE5"/>
<path fill-rule="evenodd" clip-rule="evenodd" d="M5.65234 10.8839L5.86183 10.6665L45.764 49.1249L45.5545 49.3422L5.65234 10.8839Z" fill="#A71BE5"/>
<path fill-rule="evenodd" clip-rule="evenodd" d="M5.79297 10.7388L6.00245 10.5215L45.9046 48.9799L45.6951 49.1972L5.79297 10.7388Z" fill="#A71AE5"/>
<path fill-rule="evenodd" clip-rule="evenodd" d="M5.93164 10.594L6.14112 10.3765L46.0434 48.835L45.8339 49.0523L5.93164 10.594Z" fill="#A61AE5"/>
<path fill-rule="evenodd" clip-rule="evenodd" d="M6.07031 10.4488L6.27979 10.2314L46.182 48.6898L45.9725 48.9072L6.07031 10.4488Z" fill="#A51AE5"/>
<path fill-rule="evenodd" clip-rule="evenodd" d="M6.21094 10.3043L6.42042 10.0869L46.3227 48.5453L46.1131 48.7627L6.21094 10.3043Z" fill="#A519E5"/>
<path fill-rule="evenodd" clip-rule="evenodd" d="M6.35156 10.1593L6.56106 9.94189L46.4632 48.4004L46.2537 48.6178L6.35156 10.1593Z" fill="#A419E5"/>
<path fill-rule="evenodd" clip-rule="evenodd" d="M6.48828 10.0142L6.69776 9.79688L46.5999 48.2553L46.3904 48.4726L6.48828 10.0142Z" fill="#A319E5"/>
<path fill-rule="evenodd" clip-rule="evenodd" d="M6.62891 9.86922L6.83851 9.65186L46.7407 48.1103L46.5312 48.3276L6.62891 9.86922Z" fill="#A318E4"/>
<path fill-rule="evenodd" clip-rule="evenodd" d="M6.77148 9.72419L6.98097 9.50684L46.8831 47.9653L46.6736 48.1827L6.77148 9.72419Z" fill="#A218E4"/>
<path fill-rule="evenodd" clip-rule="evenodd" d="M6.91016 9.57966L7.11964 9.3623L47.0219 47.8207L46.8124 48.038L6.91016 9.57966Z" fill="#A118E4"/>
<path fill-rule="evenodd" clip-rule="evenodd" d="M7.04883 9.43465L7.25832 9.21729L47.1605 47.6757L46.951 47.893L7.04883 9.43465Z" fill="#A117E4"/>
<path fill-rule="evenodd" clip-rule="evenodd" d="M7.1875 9.28962L7.39699 9.07227L47.2993 47.5307L47.0897 47.748L7.1875 9.28962Z" fill="#A017E4"/>
<path fill-rule="evenodd" clip-rule="evenodd" d="M7.33008 9.1446L7.53956 8.92725L47.4417 47.3856L47.2322 47.603L7.33008 9.1446Z" fill="#9F17E4"/>
<path fill-rule="evenodd" clip-rule="evenodd" d="M7.4668 8.99972L7.67628 8.78223L47.5784 47.2407L47.3689 47.4581L7.4668 8.99972Z" fill="#9F17E4"/>
<path fill-rule="evenodd" clip-rule="evenodd" d="M7.60742 8.85506L7.8169 8.6377L47.7192 47.0961L47.5097 47.3134L7.60742 8.85506Z" fill="#9E16E4"/>
<path fill-rule="evenodd" clip-rule="evenodd" d="M7.74609 8.71004L7.95558 8.49268L47.8577 46.9511L47.6483 47.1684L7.74609 8.71004Z" fill="#9D16E3"/>
<path fill-rule="evenodd" clip-rule="evenodd" d="M7.88672 8.56501L8.09621 8.34766L47.9985 46.8062L47.7889 47.0235L7.88672 8.56501Z" fill="#9D16E3"/>
<path fill-rule="evenodd" clip-rule="evenodd" d="M8.02539 8.41999L8.23487 8.20264L48.137 46.661L47.9275 46.8784L8.02539 8.41999Z" fill="#9C15E3"/>
<path fill-rule="evenodd" clip-rule="evenodd" d="M8.16602 8.27498L8.3755 8.05762L48.2777 46.516L48.0682 46.7334L8.16602 8.27498Z" fill="#9B15E3"/>
<path fill-rule="evenodd" clip-rule="evenodd" d="M8.30469 8.12995L8.51429 7.9126L48.4165 46.3711L48.207 46.5885L8.30469 8.12995Z" fill="#9B15E3"/>
<path fill-rule="evenodd" clip-rule="evenodd" d="M8.44531 7.98542L8.65479 7.76807L48.557 46.2265L48.3475 46.4438L8.44531 7.98542Z" fill="#9A15E3"/>
<path fill-rule="evenodd" clip-rule="evenodd" d="M8.58398 7.8404L8.79347 7.62305L48.6958 46.0814L48.4863 46.2988L8.58398 7.8404Z" fill="#9914E3"/>
<path fill-rule="evenodd" clip-rule="evenodd" d="M8.72461 7.69539L8.93409 7.47803L48.8362 45.9364L48.6268 46.1538L8.72461 7.69539Z" fill="#9914E3"/>
<path fill-rule="evenodd" clip-rule="evenodd" d="M8.86523 7.55086L9.07472 7.3335L48.9769 45.7919L48.7674 46.0092L8.86523 7.55086Z" fill="#9814E2"/>
<path fill-rule="evenodd" clip-rule="evenodd" d="M9.00391 7.40595L9.21351 7.18848L49.1157 45.647L48.9062 45.8644L9.00391 7.40595Z" fill="#9814E2"/>
<path fill-rule="evenodd" clip-rule="evenodd" d="M9.14453 7.2613L9.35401 7.04395L49.2562 45.5023L49.0467 45.7197L9.14453 7.2613Z" fill="#9713E2"/>
<path fill-rule="evenodd" clip-rule="evenodd" d="M9.2832 7.11629L9.49269 6.89893L49.395 45.3573L49.1855 45.5747L9.2832 7.11629Z" fill="#9613E2"/>
<path fill-rule="evenodd" clip-rule="evenodd" d="M9.42383 6.97126L9.63332 6.75391L49.5355 45.2124L49.326 45.4298L9.42383 6.97126Z" fill="#9613E2"/>
<path fill-rule="evenodd" clip-rule="evenodd" d="M9.5625 6.82624L9.77199 6.60889L49.6743 45.0673L49.4647 45.2846L9.5625 6.82624Z" fill="#9513E2"/>
<path fill-rule="evenodd" clip-rule="evenodd" d="M9.70312 6.68171L9.91261 6.46436L49.8148 44.9227L49.6053 45.1401L9.70312 6.68171Z" fill="#9412E2"/>
<path fill-rule="evenodd" clip-rule="evenodd" d="M9.8418 6.5367L10.0513 6.31934L49.9534 44.7779L49.7439 44.9952L9.8418 6.5367Z" fill="#9412E2"/>
<path fill-rule="evenodd" clip-rule="evenodd" d="M9.98242 6.39168L10.1919 6.17432L50.0942 44.6327L49.8847 44.8501L9.98242 6.39168Z" fill="#9312E2"/>
<path fill-rule="evenodd" clip-rule="evenodd" d="M10.1211 6.24665L10.3306 6.0293L50.2327 44.4877L50.0233 44.705L10.1211 6.24665Z" fill="#9312E1"/>
<path fill-rule="evenodd" clip-rule="evenodd" d="M10.2617 6.10163L10.4712 5.88428L50.3735 44.3427L50.1639 44.56L10.2617 6.10163Z" fill="#9212E1"/>
<path fill-rule="evenodd" clip-rule="evenodd" d="M10.4004 5.95663L10.6099 5.73926L50.512 44.1977L50.3025 44.415L10.4004 5.95663Z" fill="#9211E1"/>
<path fill-rule="evenodd" clip-rule="evenodd" d="M10.541 5.81222L10.7505 5.59473L50.6527 44.0532L50.4432 44.2706L10.541 5.81222Z" fill="#9111E1"/>
<path fill-rule="evenodd" clip-rule="evenodd" d="M10.6816 5.66706L10.8912 5.44971L50.7934 43.9081L50.5839 44.1255L10.6816 5.66706Z" fill="#9011E1"/>
<path fill-rule="evenodd" clip-rule="evenodd" d="M10.8203 5.52204L11.0298 5.30469L50.932 43.7631L50.7225 43.9804L10.8203 5.52204Z" fill="#9011E1"/>
<path fill-rule="evenodd" clip-rule="evenodd" d="M10.9609 5.37704L11.1704 5.15967L51.0727 43.6182L50.8632 43.8355L10.9609 5.37704Z" fill="#8F11E1"/>
<path fill-rule="evenodd" clip-rule="evenodd" d="M11.0996 5.23202L11.3091 5.01465L51.2112 43.473L51.0018 43.6904L11.0996 5.23202Z" fill="#8F11E1"/>
<path fill-rule="evenodd" clip-rule="evenodd" d="M11.2402 5.08698L11.4497 4.86963L51.352 43.328L51.1424 43.5454L11.2402 5.08698Z" fill="#8E10E1"/>
<path fill-rule="evenodd" clip-rule="evenodd" d="M11.3789 4.94245L11.5884 4.7251L51.4906 43.1836L51.2811 43.401L11.3789 4.94245Z" fill="#8E10E0"/>
<path fill-rule="evenodd" clip-rule="evenodd" d="M11.5195 4.79745L11.729 4.58008L51.6312 43.0385L51.4217 43.2558L11.5195 4.79745Z" fill="#8D10E0"/>
<path fill-rule="evenodd" clip-rule="evenodd" d="M11.6582 4.65243L11.8677 4.43506L51.77 42.8935L51.5605 43.1108L11.6582 4.65243Z" fill="#8D10E0"/>
<path fill-rule="evenodd" clip-rule="evenodd" d="M11.7988 4.50739L12.0083 4.29004L51.9105 42.7484L51.701 42.9658L11.7988 4.50739Z" fill="#8C10E0"/>
<path fill-rule="evenodd" clip-rule="evenodd" d="M11.9375 4.36237L12.147 4.14502L52.0493 42.6034L51.8397 42.8208L11.9375 4.36237Z" fill="#8C10E0"/>
<path fill-rule="evenodd" clip-rule="evenodd" d="M12.0762 4.21749L12.2857 4L52.1878 42.4585L51.9783 42.6759L12.0762 4.21749Z" fill="#8B0FE0"/>
<path fill-rule="evenodd" clip-rule="evenodd" d="M12.2168 4.07284L12.4263 3.85547L52.3284 42.3139L52.119 42.5312L12.2168 4.07284Z" fill="#8B0FE0"/>
<path fill-rule="evenodd" clip-rule="evenodd" d="M12.3574 3.9278L12.567 3.71045L52.4692 42.1688L52.2597 42.3862L12.3574 3.9278Z" fill="#8B0FE0"/>
<path fill-rule="evenodd" clip-rule="evenodd" d="M12.4941 3.78278L12.7036 3.56543L52.6058 42.0239L52.3963 42.2413L12.4941 3.78278Z" fill="#8A0FE0"/>
<path fill-rule="evenodd" clip-rule="evenodd" d="M12.6348 3.63778L12.8443 3.42041L52.7465 41.8788L52.5371 42.0962L12.6348 3.63778Z" fill="#8A0FE0"/>
<path fill-rule="evenodd" clip-rule="evenodd" d="M12.7773 3.49373L12.9868 3.27637L52.889 41.7348L52.6795 41.9521L12.7773 3.49373Z" fill="#890FDF"/>
<path fill-rule="evenodd" clip-rule="evenodd" d="M12.9141 3.3487L13.1235 3.13135L53.0257 41.5899L52.8162 41.8072L12.9141 3.3487Z" fill="#890FDF"/>
<path fill-rule="evenodd" clip-rule="evenodd" d="M13.0547 3.20368L13.2643 2.98633L53.1665 41.4447L52.957 41.6621L13.0547 3.20368Z" fill="#890FDF"/>
<path fill-rule="evenodd" clip-rule="evenodd" d="M13.1934 3.05866L13.4028 2.84131L53.305 41.2997L53.0955 41.517L13.1934 3.05866Z" fill="#880EDF"/>
<path fill-rule="evenodd" clip-rule="evenodd" d="M13.334 2.91366L13.5435 2.69629L53.4458 41.1547L53.2363 41.372L13.334 2.91366Z" fill="#880EDF"/>
<path fill-rule="evenodd" clip-rule="evenodd" d="M13.4727 2.76911L13.6821 2.55176L53.5843 41.0101L53.3748 41.2275L13.4727 2.76911Z" fill="#870EDF"/>
<path fill-rule="evenodd" clip-rule="evenodd" d="M13.6133 2.62422L13.8228 2.40674L53.7251 40.8652L53.5154 41.0826L13.6133 2.62422Z" fill="#870EDF"/>
<path fill-rule="evenodd" clip-rule="evenodd" d="M13.752 2.47909L13.9614 2.26172L53.8636 40.7201L53.6541 40.9375L13.752 2.47909Z" fill="#870EDF"/>
<path fill-rule="evenodd" clip-rule="evenodd" d="M13.8926 2.33407L14.1021 2.1167L54.0042 40.5751L53.7947 40.7924L13.8926 2.33407Z" fill="#860EDF"/>
<path fill-rule="evenodd" clip-rule="evenodd" d="M14.0312 2.18903L14.2407 1.97168L54.143 40.4302L53.9335 40.6476L14.0312 2.18903Z" fill="#860EDF"/>
<path fill-rule="evenodd" clip-rule="evenodd" d="M14.1719 2.0445L14.3814 1.82715L54.2835 40.2855L54.074 40.5029L14.1719 2.0445Z" fill="#860EDF"/>
<path fill-rule="evenodd" clip-rule="evenodd" d="M14.3105 1.89948L14.52 1.68213L54.4223 40.1405L54.2128 40.3579L14.3105 1.89948Z" fill="#860EDF"/>
<path fill-rule="evenodd" clip-rule="evenodd" d="M14.4512 1.75448L14.6607 1.53711L54.5628 39.9956L54.3533 40.213L14.4512 1.75448Z" fill="#850EDF"/>
<path fill-rule="evenodd" clip-rule="evenodd" d="M14.5898 1.60944L14.7993 1.39209L54.7015 39.8505L54.492 40.0678L14.5898 1.60944Z" fill="#850EDE"/>
<path fill-rule="evenodd" clip-rule="evenodd" d="M14.7305 1.46443L14.9401 1.24707L54.8422 39.7055L54.6328 39.9228L14.7305 1.46443Z" fill="#850DDE"/>
<path fill-rule="evenodd" clip-rule="evenodd" d="M14.8711 1.31991L15.0806 1.10254L54.9827 39.5609L54.7733 39.7783L14.8711 1.31991Z" fill="#850DDE"/>
<path fill-rule="evenodd" clip-rule="evenodd" d="M15.0098 1.17489L15.2193 0.95752L55.1215 39.4159L54.9121 39.6333L15.0098 1.17489Z" fill="#840DDE"/>
<path fill-rule="evenodd" clip-rule="evenodd" d="M15.1504 1.02998L15.3599 0.8125L55.262 39.271L55.0525 39.4884L15.1504 1.02998Z" fill="#840DDE"/>
<path fill-rule="evenodd" clip-rule="evenodd" d="M15.2891 0.884836L15.4985 0.66748L55.4008 39.1259L55.1912 39.3432L15.2891 0.884836Z" fill="#840DDE"/>
<path fill-rule="evenodd" clip-rule="evenodd" d="M15.4297 0.739816L15.6392 0.522461L55.5413 38.9808L55.3319 39.1982L15.4297 0.739816Z" fill="#840DDE"/>
<path fill-rule="evenodd" clip-rule="evenodd" d="M15.5684 0.594809L15.7778 0.377441L55.68 38.836L55.4705 39.0533L15.5684 0.594809Z" fill="#840DDE"/>
<path fill-rule="evenodd" clip-rule="evenodd" d="M15.709 0.449777L15.9185 0.232422L55.8208 38.6908L55.6113 38.9082L15.709 0.449777Z" fill="#840DDE"/>
<path fill-rule="evenodd" clip-rule="evenodd" d="M15.8477 0.305246L16.0571 0.0878906L55.9593 38.5463L55.7498 38.7636L15.8477 0.305246Z" fill="#830DDE"/>
<path fill-rule="evenodd" clip-rule="evenodd" d="M15.9883 0.160238L16.1978 -0.0571289L56.1001 38.4014L55.8904 38.6187L15.9883 0.160238Z" fill="#830DDE"/>
<path fill-rule="evenodd" clip-rule="evenodd" d="M16.127 0.0152189L16.3364 -0.202148L56.2386 38.2562L56.0291 38.4736L16.127 0.0152189Z" fill="#830DDE"/>
<path fill-rule="evenodd" clip-rule="evenodd" d="M16.2676 -0.129813L16.4771 -0.347168L56.3792 38.1112L56.1697 38.3286L16.2676 -0.129813Z" fill="#830DDE"/>
<path fill-rule="evenodd" clip-rule="evenodd" d="M16.4062 -0.274832L16.6159 -0.492188L56.518 37.9662L56.3085 38.1836L16.4062 -0.274832Z" fill="#830DDE"/>
<path fill-rule="evenodd" clip-rule="evenodd" d="M16.5469 -0.419364L16.7564 -0.636719L56.6585 37.8217L56.449 38.039L16.5469 -0.419364Z" fill="#830DDE"/>
<path fill-rule="evenodd" clip-rule="evenodd" d="M16.6855 -0.563761L16.895 -0.78125L56.7973 37.6773L56.5878 37.8946L16.6855 -0.563761Z" fill="#830DDE"/>
<path fill-rule="evenodd" clip-rule="evenodd" d="M16.8262 -0.709117L20.773 -4.8042L60.6753 33.6542L56.7283 37.7493L16.8262 -0.709117Z" fill="#830DDE"/>
</g>
<path fill-rule="evenodd" clip-rule="evenodd" d="M28.3626 68.0886L28.354 68.0844L28.3473 59.3122L10.2021 48.8472L10.1953 30.8876L17.8785 35.3028L17.8818 43.5468C17.9293 44.2249 18.123 44.6891 18.7085 45.1566L35.0534 54.5829L35.0567 54.5891C35.5998 54.8899 35.9676 55.4686 35.9676 56.1333C35.9676 56.1969 35.9642 56.2597 35.9577 56.3215L35.968 61.8729L54.9065 50.951C55.491 50.4624 55.6566 49.9692 55.6834 49.2234L55.6873 49.2303V29.5461L63.759 24.895V52.2857C63.7621 52.3523 63.7639 52.4193 63.7639 52.4865C63.7639 54.0287 62.9365 55.3775 61.7019 56.1139L61.7015 56.1148L61.6567 56.1408L61.6338 56.1539L34.9429 71.5461C34.2692 72.0012 33.4572 72.2669 32.583 72.2669C30.266 72.2669 28.3854 70.4001 28.3626 68.0886Z" fill="url(#paint0_linear_242_2698)"/>
<mask id="mask1_242_2698" style="mask-type:luminance" maskUnits="userSpaceOnUse" x="5" y="0" width="60" height="59">
<path d="M37.9171 58.0103L37.8935 49.3838L44.9273 45.3468C45.5593 44.8422 45.7351 44.3415 45.7628 43.5713L45.7629 43.5716L45.8001 24.0608L51.8306 20.5832L32.4127 9.35388L14.6709 19.5861L5.94336 14.552L29.4511 1.02397L29.5262 0.980723L29.5914 0.943226L29.5935 0.943604C30.1883 0.623627 30.8682 0.441895 31.5908 0.441895C32.5177 0.441895 33.3746 0.740741 34.071 1.24733L63.3658 18.1421L63.3654 18.1446C64.1111 18.5857 64.6113 19.398 64.6113 20.3272C64.6113 21.2242 64.1451 22.0124 63.4418 22.4627L63.444 22.4724L53.6728 28.1175L53.6765 48.9352L37.9171 58.0103Z" fill="white"/>
</mask>
<g mask="url(#mask1_242_2698)">
<path fill-rule="evenodd" clip-rule="evenodd" d="M40.8749 61.1185L40.7207 60.9564L74.1546 29.1396L74.3089 29.3019L40.8749 61.1185Z" fill="#01F40E"/>
<path fill-rule="evenodd" clip-rule="evenodd" d="M40.7978 61.0377L40.5664 60.7946L74.0003 28.978L74.2316 29.2211L40.7978 61.0377Z" fill="#01F40F"/>
<path fill-rule="evenodd" clip-rule="evenodd" d="M40.6435 60.8751L40.4121 60.6322L73.846 28.8154L74.0773 29.0585L40.6435 60.8751Z" fill="#01F40F"/>
<path fill-rule="evenodd" clip-rule="evenodd" d="M40.4892 60.713L40.2578 60.4699L73.6917 28.6533L73.923 28.8963L40.4892 60.713Z" fill="#01F30F"/>
<path fill-rule="evenodd" clip-rule="evenodd" d="M40.3329 60.5514L40.1016 60.3083L73.5356 28.4917L73.7668 28.7348L40.3329 60.5514Z" fill="#01F30F"/>
<path fill-rule="evenodd" clip-rule="evenodd" d="M40.1786 60.3894L39.9473 60.1463L73.3813 28.3296L73.6126 28.5727L40.1786 60.3894Z" fill="#01F310"/>
<path fill-rule="evenodd" clip-rule="evenodd" d="M40.0262 60.2267L39.7949 59.9836L73.2288 28.167L73.4602 28.4101L40.0262 60.2267Z" fill="#01F310"/>
<path fill-rule="evenodd" clip-rule="evenodd" d="M39.8719 60.0651L39.6406 59.8221L73.0745 28.0054L73.3059 28.2485L39.8719 60.0651Z" fill="#01F310"/>
<path fill-rule="evenodd" clip-rule="evenodd" d="M39.7177 59.903L39.4863 59.6599L72.9202 27.8433L73.1516 28.0862L39.7177 59.903Z" fill="#01F310"/>
<path fill-rule="evenodd" clip-rule="evenodd" d="M39.5634 59.7409L39.332 59.4978L72.7659 27.6812L72.9972 27.9243L39.5634 59.7409Z" fill="#01F211"/>
<path fill-rule="evenodd" clip-rule="evenodd" d="M39.4091 59.5789L39.1777 59.3358L72.6116 27.519L72.843 27.7622L39.4091 59.5789Z" fill="#01F211"/>
<path fill-rule="evenodd" clip-rule="evenodd" d="M39.2548 59.4167L39.0234 59.1736L72.4573 27.3569L72.6887 27.6L39.2548 59.4167Z" fill="#01F212"/>
<path fill-rule="evenodd" clip-rule="evenodd" d="M39.1005 59.2545L38.8691 59.0114L72.3031 27.1948L72.5344 27.4379L39.1005 59.2545Z" fill="#01F212"/>
<path fill-rule="evenodd" clip-rule="evenodd" d="M38.9462 59.093L38.7148 58.8499L72.1488 27.0332L72.3801 27.2763L38.9462 59.093Z" fill="#01F112"/>
<path fill-rule="evenodd" clip-rule="evenodd" d="M38.7919 58.9308L38.5605 58.6877L71.9945 26.8711L72.2259 27.1142L38.7919 58.9308Z" fill="#01F113"/>
<path fill-rule="evenodd" clip-rule="evenodd" d="M38.6375 58.7683L38.4062 58.5252L71.8401 26.7085L72.0715 26.9516L38.6375 58.7683Z" fill="#01F113"/>
<path fill-rule="evenodd" clip-rule="evenodd" d="M38.4832 58.6061L38.252 58.363L71.6858 26.5464L71.9172 26.7895L38.4832 58.6061Z" fill="#01F114"/>
<path fill-rule="evenodd" clip-rule="evenodd" d="M38.329 58.4445L38.0977 58.2014L71.5315 26.3848L71.7629 26.6279L38.329 58.4445Z" fill="#01F014"/>
<path fill-rule="evenodd" clip-rule="evenodd" d="M38.1747 58.2825L37.9434 58.0394L71.3772 26.2227L71.6086 26.4658L38.1747 58.2825Z" fill="#01F015"/>
<path fill-rule="evenodd" clip-rule="evenodd" d="M38.0224 58.1198L37.791 57.8767L71.2249 26.0601L71.4562 26.3032L38.0224 58.1198Z" fill="#01F015"/>
<path fill-rule="evenodd" clip-rule="evenodd" d="M37.8681 57.9583L37.6367 57.7152L71.0706 25.8984L71.302 26.1415L37.8681 57.9583Z" fill="#01EF16"/>
<path fill-rule="evenodd" clip-rule="evenodd" d="M37.7138 57.796L37.4824 57.5529L70.9164 25.7363L71.1477 25.9794L37.7138 57.796Z" fill="#01EF17"/>
<path fill-rule="evenodd" clip-rule="evenodd" d="M37.5575 57.6339L37.3262 57.3908L70.7602 25.5742L70.9915 25.8173L37.5575 57.6339Z" fill="#01EF17"/>
<path fill-rule="evenodd" clip-rule="evenodd" d="M37.4032 57.472L37.1719 57.2288L70.6059 25.4121L70.8372 25.6552L37.4032 57.472Z" fill="#01EE18"/>
<path fill-rule="evenodd" clip-rule="evenodd" d="M37.2488 57.3097L37.0176 57.0666L70.4514 25.25L70.6828 25.4931L37.2488 57.3097Z" fill="#01EE18"/>
<path fill-rule="evenodd" clip-rule="evenodd" d="M37.0946 57.1477L36.8633 56.9046L70.2972 25.0879L70.5285 25.331L37.0946 57.1477Z" fill="#01EE19"/>
<path fill-rule="evenodd" clip-rule="evenodd" d="M36.9404 56.986L36.709 56.7429L70.1429 24.9263L70.3742 25.1694L36.9404 56.986Z" fill="#01ED1A"/>
<path fill-rule="evenodd" clip-rule="evenodd" d="M36.788 56.8239L36.5566 56.5808L69.9905 24.7642L70.2219 25.0073L36.788 56.8239Z" fill="#01ED1A"/>
<path fill-rule="evenodd" clip-rule="evenodd" d="M36.6337 56.6614L36.4023 56.4183L69.8362 24.6016L70.0676 24.8447L36.6337 56.6614Z" fill="#01EC1B"/>
<path fill-rule="evenodd" clip-rule="evenodd" d="M36.4794 56.4997L36.248 56.2565L69.682 24.4399L69.9133 24.6831L36.4794 56.4997Z" fill="#01EC1C"/>
<path fill-rule="evenodd" clip-rule="evenodd" d="M36.3251 56.3377L36.0938 56.0946L69.5277 24.2778L69.759 24.5209L36.3251 56.3377Z" fill="#01EC1D"/>
<path fill-rule="evenodd" clip-rule="evenodd" d="M36.1689 56.1754L35.9375 55.9323L69.3715 24.1157L69.6029 24.3588L36.1689 56.1754Z" fill="#01EB1D"/>
<path fill-rule="evenodd" clip-rule="evenodd" d="M36.0164 56.0138L35.7852 55.7707L69.219 23.9541L69.4504 24.1972L36.0164 56.0138Z" fill="#01EB1E"/>
<path fill-rule="evenodd" clip-rule="evenodd" d="M35.8621 55.8513L35.6309 55.6082L69.0647 23.7915L69.2961 24.0346L35.8621 55.8513Z" fill="#01EA1F"/>
<path fill-rule="evenodd" clip-rule="evenodd" d="M35.7079 55.6891L35.4766 55.446L68.9104 23.6294L69.1418 23.8725L35.7079 55.6891Z" fill="#01EA20"/>
<path fill-rule="evenodd" clip-rule="evenodd" d="M35.5536 55.5271L35.3223 55.284L68.7561 23.4673L68.9875 23.7104L35.5536 55.5271Z" fill="#01E921"/>
<path fill-rule="evenodd" clip-rule="evenodd" d="M35.3993 55.3654L35.168 55.1223L68.6018 23.3057L68.8332 23.5488L35.3993 55.3654Z" fill="#01E921"/>
<path fill-rule="evenodd" clip-rule="evenodd" d="M35.245 55.2033L35.0137 54.9602L68.4475 23.1436L68.6789 23.3867L35.245 55.2033Z" fill="#01E822"/>
<path fill-rule="evenodd" clip-rule="evenodd" d="M35.0907 55.0408L34.8594 54.7977L68.2934 22.981L68.5246 23.2241L35.0907 55.0408Z" fill="#01E823"/>
<path fill-rule="evenodd" clip-rule="evenodd" d="M34.9364 54.8791L34.7051 54.6359L68.1391 22.8193L68.3704 23.0624L34.9364 54.8791Z" fill="#01E724"/>
<path fill-rule="evenodd" clip-rule="evenodd" d="M34.7802 54.7171L34.5488 54.474L67.9828 22.6572L68.2142 22.9003L34.7802 54.7171Z" fill="#01E725"/>
<path fill-rule="evenodd" clip-rule="evenodd" d="M34.6277 54.5548L34.3965 54.3117L67.8304 22.4951L68.0617 22.7382L34.6277 54.5548Z" fill="#01E626"/>
<path fill-rule="evenodd" clip-rule="evenodd" d="M34.4735 54.3932L34.2422 54.1501L67.6761 22.3335L67.9074 22.5766L34.4735 54.3932Z" fill="#01E627"/>
<path fill-rule="evenodd" clip-rule="evenodd" d="M34.3192 54.2308L34.0879 53.9876L67.5218 22.1709L67.7531 22.414L34.3192 54.2308Z" fill="#01E528"/>
<path fill-rule="evenodd" clip-rule="evenodd" d="M34.1649 54.0685L33.9336 53.8254L67.3675 22.0088L67.5988 22.2519L34.1649 54.0685Z" fill="#01E528"/>
<path fill-rule="evenodd" clip-rule="evenodd" d="M34.0107 53.907L33.7793 53.6639L67.2132 21.8472L67.4445 22.0903L34.0107 53.907Z" fill="#01E429"/>
<path fill-rule="evenodd" clip-rule="evenodd" d="M33.8583 53.7443L33.627 53.5012L67.0609 21.6846L67.2922 21.9277L33.8583 53.7443Z" fill="#01E42A"/>
<path fill-rule="evenodd" clip-rule="evenodd" d="M33.704 53.5822L33.4727 53.3391L66.9067 21.5225L67.1379 21.7656L33.704 53.5822Z" fill="#01E32B"/>
<path fill-rule="evenodd" clip-rule="evenodd" d="M33.5497 53.4207L33.3184 53.1776L66.7524 21.3608L66.9837 21.6039L33.5497 53.4207Z" fill="#01E22C"/>
<path fill-rule="evenodd" clip-rule="evenodd" d="M33.3953 53.2584L33.1641 53.0154L66.5979 21.1987L66.8293 21.4418L33.3953 53.2584Z" fill="#01E22D"/>
<path fill-rule="evenodd" clip-rule="evenodd" d="M33.239 53.096L33.0078 52.8529L66.4417 21.0361L66.673 21.2792L33.239 53.096Z" fill="#01E12E"/>
<path fill-rule="evenodd" clip-rule="evenodd" d="M33.0849 52.9342L32.8535 52.6911L66.2874 20.8745L66.5187 21.1176L33.0849 52.9342Z" fill="#01E12F"/>
<path fill-rule="evenodd" clip-rule="evenodd" d="M32.9306 52.7721L32.6992 52.529L66.1331 20.7124L66.3645 20.9555L32.9306 52.7721Z" fill="#01E030"/>
<path fill-rule="evenodd" clip-rule="evenodd" d="M32.7763 52.6101L32.5449 52.367L65.9788 20.5503L66.2102 20.7934L32.7763 52.6101Z" fill="#01E031"/>
<path fill-rule="evenodd" clip-rule="evenodd" d="M32.6239 52.4484L32.3926 52.2053L65.8264 20.3887L66.0578 20.6318L32.6239 52.4484Z" fill="#01DF32"/>
<path fill-rule="evenodd" clip-rule="evenodd" d="M32.4696 52.2859L32.2383 52.0428L65.6723 20.2261L65.9035 20.4692L32.4696 52.2859Z" fill="#01DE33"/>
<path fill-rule="evenodd" clip-rule="evenodd" d="M32.3153 52.1237L32.084 51.8806L65.518 20.064L65.7493 20.3071L32.3153 52.1237Z" fill="#01DE34"/>
<path fill-rule="evenodd" clip-rule="evenodd" d="M32.161 51.9616L31.9297 51.7185L65.3637 19.9019L65.595 20.145L32.161 51.9616Z" fill="#01DD35"/>
<path fill-rule="evenodd" clip-rule="evenodd" d="M32.0047 51.8001L31.7734 51.557L65.2073 19.7402L65.4387 19.9833L32.0047 51.8001Z" fill="#01DD37"/>
<path fill-rule="evenodd" clip-rule="evenodd" d="M31.8505 51.6378L31.6191 51.3947L65.053 19.5781L65.2844 19.8212L31.8505 51.6378Z" fill="#01DC38"/>
<path fill-rule="evenodd" clip-rule="evenodd" d="M31.6982 51.4754L31.4668 51.2323L64.9007 19.4155L65.132 19.6586L31.6982 51.4754Z" fill="#01DB39"/>
<path fill-rule="evenodd" clip-rule="evenodd" d="M31.5439 51.3136L31.3125 51.0705L64.7464 19.2539L64.9777 19.497L31.5439 51.3136Z" fill="#01DB3A"/>
<path fill-rule="evenodd" clip-rule="evenodd" d="M31.3896 51.1515L31.1582 50.9084L64.5921 19.0918L64.8234 19.3349L31.3896 51.1515Z" fill="#01DA3B"/>
<path fill-rule="evenodd" clip-rule="evenodd" d="M31.2353 50.9895L31.0039 50.7464L64.4379 18.9297L64.6691 19.1728L31.2353 50.9895Z" fill="#01D93C"/>
<path fill-rule="evenodd" clip-rule="evenodd" d="M31.081 50.8278L30.8496 50.5847L64.2836 18.7681L64.5148 19.0112L31.081 50.8278Z" fill="#01D93D"/>
<path fill-rule="evenodd" clip-rule="evenodd" d="M30.9267 50.6653L30.6953 50.4222L64.1293 18.6055L64.3607 18.8486L30.9267 50.6653Z" fill="#01D83E"/>
<path fill-rule="evenodd" clip-rule="evenodd" d="M30.7742 50.5031L30.543 50.26L63.9768 18.4434L64.2082 18.6865L30.7742 50.5031Z" fill="#01D73F"/>
<path fill-rule="evenodd" clip-rule="evenodd" d="M30.6199 50.3415L30.3887 50.0983L63.8226 18.2817L64.0539 18.5248L30.6199 50.3415Z" fill="#01D741"/>
<path fill-rule="evenodd" clip-rule="evenodd" d="M30.4638 50.1795L30.2324 49.9364L63.6663 18.1196L63.8977 18.3627L30.4638 50.1795Z" fill="#01D642"/>
<path fill-rule="evenodd" clip-rule="evenodd" d="M30.3095 50.0172L30.0781 49.7741L63.512 17.9575L63.7433 18.2006L30.3095 50.0172Z" fill="#01D543"/>
<path fill-rule="evenodd" clip-rule="evenodd" d="M30.1552 49.8553L29.9238 49.6122L63.3577 17.7954L63.5891 18.0385L30.1552 49.8553Z" fill="#01D544"/>
<path fill-rule="evenodd" clip-rule="evenodd" d="M30.0009 49.693L29.7695 49.4499L63.2034 17.6333L63.4348 17.8764L30.0009 49.693Z" fill="#01D445"/>
<path fill-rule="evenodd" clip-rule="evenodd" d="M29.8466 49.5309L29.6152 49.2878L63.0492 17.4712L63.2805 17.7143L29.8466 49.5309Z" fill="#01D346"/>
<path fill-rule="evenodd" clip-rule="evenodd" d="M29.6923 49.3684L29.4609 49.1253L62.8949 17.3086L63.1263 17.5517L29.6923 49.3684Z" fill="#01D347"/>
<path fill-rule="evenodd" clip-rule="evenodd" d="M29.5399 49.2067L29.3086 48.9636L62.7426 17.147L62.9739 17.3901L29.5399 49.2067Z" fill="#01D249"/>
<path fill-rule="evenodd" clip-rule="evenodd" d="M29.3855 49.0446L29.1543 48.8016L62.5882 16.9849L62.8195 17.228L29.3855 49.0446Z" fill="#01D14A"/>
<path fill-rule="evenodd" clip-rule="evenodd" d="M29.2314 48.8825L29 48.6394L62.4339 16.8228L62.6652 17.0659L29.2314 48.8825Z" fill="#01D14B"/>
<path fill-rule="evenodd" clip-rule="evenodd" d="M29.0751 48.7204L28.8438 48.4773L62.2776 16.6606L62.509 16.9038L29.0751 48.7204Z" fill="#01D04C"/>
<path fill-rule="evenodd" clip-rule="evenodd" d="M28.9208 48.5584L28.6895 48.3153L62.1233 16.4985L62.3547 16.7416L28.9208 48.5584Z" fill="#01CF4D"/>
<path fill-rule="evenodd" clip-rule="evenodd" d="M28.7665 48.3961L28.5352 48.153L61.969 16.3364L62.2004 16.5795L28.7665 48.3961Z" fill="#01CF4F"/>
<path fill-rule="evenodd" clip-rule="evenodd" d="M28.6142 48.2345L28.3828 47.9915L61.8168 16.1748L62.048 16.4179L28.6142 48.2345Z" fill="#01CE50"/>
<path fill-rule="evenodd" clip-rule="evenodd" d="M28.4599 48.0724L28.2285 47.8293L61.6625 16.0127L61.8937 16.2557L28.4599 48.0724Z" fill="#01CD51"/>
<path fill-rule="evenodd" clip-rule="evenodd" d="M28.3056 47.9098L28.0742 47.6667L61.5082 15.8501L61.7396 16.0932L28.3056 47.9098Z" fill="#01CC52"/>
<path fill-rule="evenodd" clip-rule="evenodd" d="M28.1512 47.7483L27.9199 47.5052L61.3538 15.6885L61.5852 15.9316L28.1512 47.7483Z" fill="#01CC53"/>
<path fill-rule="evenodd" clip-rule="evenodd" d="M27.9969 47.5861L27.7656 47.343L61.1995 15.5264L61.4309 15.7695L27.9969 47.5861Z" fill="#01CB55"/>
<path fill-rule="evenodd" clip-rule="evenodd" d="M27.8427 47.424L27.6113 47.181L61.0452 15.3643L61.2765 15.6074L27.8427 47.424Z" fill="#01CA56"/>
<path fill-rule="evenodd" clip-rule="evenodd" d="M27.6864 47.2624L27.4551 47.0192L60.889 15.2026L61.1203 15.4456L27.6864 47.2624Z" fill="#01CA57"/>
<path fill-rule="evenodd" clip-rule="evenodd" d="M27.5321 47.0998L27.3008 46.8567L60.7347 15.04L60.966 15.2831L27.5321 47.0998Z" fill="#01C958"/>
<path fill-rule="evenodd" clip-rule="evenodd" d="M27.3798 46.9378L27.1484 46.6947L60.5823 14.8779L60.8137 15.121L27.3798 46.9378Z" fill="#01C85A"/>
<path fill-rule="evenodd" clip-rule="evenodd" d="M27.2255 46.776L26.9941 46.5329L60.4281 14.7163L60.6594 14.9594L27.2255 46.776Z" fill="#01C85B"/>
<path fill-rule="evenodd" clip-rule="evenodd" d="M27.0712 46.6139L26.8398 46.3709L60.2738 14.5542L60.5052 14.7973L27.0712 46.6139Z" fill="#01C75C"/>
<path fill-rule="evenodd" clip-rule="evenodd" d="M26.9169 46.4518L26.6855 46.2087L60.1195 14.3921L60.3509 14.6351L26.9169 46.4518Z" fill="#01C65D"/>
<path fill-rule="evenodd" clip-rule="evenodd" d="M26.7625 46.2897L26.5312 46.0466L59.9651 14.23L60.1965 14.4731L26.7625 46.2897Z" fill="#01C55F"/>
<path fill-rule="evenodd" clip-rule="evenodd" d="M26.6103 46.1277L26.3789 45.8846L59.8128 14.0679L60.0441 14.311L26.6103 46.1277Z" fill="#01C560"/>
<path fill-rule="evenodd" clip-rule="evenodd" d="M26.456 45.9655L26.2246 45.7224L59.6585 13.9058L59.8898 14.1489L26.456 45.9655Z" fill="#01C461"/>
<path fill-rule="evenodd" clip-rule="evenodd" d="M26.2997 45.8039L26.0684 45.5609L59.5022 13.7441L59.7336 13.9873L26.2997 45.8039Z" fill="#01C362"/>
<path fill-rule="evenodd" clip-rule="evenodd" d="M26.1454 45.6413L25.9141 45.3982L59.3479 13.5815L59.5793 13.8245L26.1454 45.6413Z" fill="#01C363"/>
<path fill-rule="evenodd" clip-rule="evenodd" d="M25.9911 45.4792L25.7598 45.2361L59.1938 13.4194L59.425 13.6625L25.9911 45.4792Z" fill="#01C265"/>
<path fill-rule="evenodd" clip-rule="evenodd" d="M25.8368 45.3172L25.6055 45.0741L59.0395 13.2573L59.2707 13.5004L25.8368 45.3172Z" fill="#01C166"/>
<path fill-rule="evenodd" clip-rule="evenodd" d="M25.6825 45.1554L25.4512 44.9123L58.8852 13.0957L59.1165 13.3388L25.6825 45.1554Z" fill="#01C067"/>
<path fill-rule="evenodd" clip-rule="evenodd" d="M25.5281 44.9928L25.2969 44.7498L58.7307 12.9331L58.9621 13.1762L25.5281 44.9928Z" fill="#01C068"/>
<path fill-rule="evenodd" clip-rule="evenodd" d="M25.3758 44.8307L25.1445 44.5876L58.5784 12.771L58.8098 13.014L25.3758 44.8307Z" fill="#01BF6A"/>
<path fill-rule="evenodd" clip-rule="evenodd" d="M25.2216 44.6691L24.9902 44.426L58.4241 12.6094L58.6555 12.8525L25.2216 44.6691Z" fill="#01BE6B"/>
<path fill-rule="evenodd" clip-rule="evenodd" d="M25.0673 44.5071L24.8359 44.264L58.2698 12.4473L58.5012 12.6904L25.0673 44.5071Z" fill="#01BD6C"/>
<path fill-rule="evenodd" clip-rule="evenodd" d="M24.911 44.3449L24.6797 44.1018L58.1136 12.2852L58.3449 12.5283L24.911 44.3449Z" fill="#01BD6D"/>
<path fill-rule="evenodd" clip-rule="evenodd" d="M24.7567 44.1828L24.5254 43.9398L57.9593 12.123L58.1906 12.3662L24.7567 44.1828Z" fill="#01BC6F"/>
<path fill-rule="evenodd" clip-rule="evenodd" d="M24.6024 44.0207L24.3711 43.7775L57.8051 11.9609L58.0363 12.2039L24.6024 44.0207Z" fill="#01BB70"/>
<path fill-rule="evenodd" clip-rule="evenodd" d="M24.4501 43.8585L24.2188 43.6154L57.6527 11.7988L57.8841 12.0419L24.4501 43.8585Z" fill="#01BB71"/>
<path fill-rule="evenodd" clip-rule="evenodd" d="M24.2958 43.6971L24.0645 43.4539L57.4984 11.6372L57.7298 11.8803L24.2958 43.6971Z" fill="#01BA72"/>
<path fill-rule="evenodd" clip-rule="evenodd" d="M24.1414 43.5343L23.9102 43.2912L57.344 11.4746L57.5754 11.7177L24.1414 43.5343Z" fill="#01B974"/>
<path fill-rule="evenodd" clip-rule="evenodd" d="M23.9872 43.3722L23.7559 43.1292L57.1897 11.3125L57.4211 11.5556L23.9872 43.3722Z" fill="#01B875"/>
<path fill-rule="evenodd" clip-rule="evenodd" d="M23.8329 43.2106L23.6016 42.9675L57.0354 11.1509L57.2668 11.3939L23.8329 43.2106Z" fill="#01B876"/>
<path fill-rule="evenodd" clip-rule="evenodd" d="M23.6786 43.0485L23.4473 42.8054L56.8811 10.9888L57.1125 11.2319L23.6786 43.0485Z" fill="#00B777"/>
<path fill-rule="evenodd" clip-rule="evenodd" d="M23.5224 42.886L23.291 42.6429L56.7249 10.8262L56.9562 11.0693L23.5224 42.886Z" fill="#00B679"/>
<path fill-rule="evenodd" clip-rule="evenodd" d="M23.3681 42.7238L23.1367 42.4807L56.5707 10.6641L56.8019 10.9072L23.3681 42.7238Z" fill="#00B67A"/>
<path fill-rule="evenodd" clip-rule="evenodd" d="M23.2157 42.5622L22.9844 42.3192L56.4184 10.5024L56.6496 10.7456L23.2157 42.5622Z" fill="#00B57B"/>
<path fill-rule="evenodd" clip-rule="evenodd" d="M23.0614 42.4001L22.8301 42.1569L56.2641 10.3403L56.4954 10.5833L23.0614 42.4001Z" fill="#00B47C"/>
<path fill-rule="evenodd" clip-rule="evenodd" d="M22.907 42.2379L22.6758 41.9948L56.1097 10.1782L56.341 10.4213L22.907 42.2379Z" fill="#00B37E"/>
<path fill-rule="evenodd" clip-rule="evenodd" d="M22.7527 42.076L22.5215 41.8328L55.9554 10.0161L56.1867 10.2592L22.7527 42.076Z" fill="#00B37F"/>
<path fill-rule="evenodd" clip-rule="evenodd" d="M22.5985 41.9137L22.3672 41.6706L55.8011 9.854L56.0324 10.0971L22.5985 41.9137Z" fill="#00B280"/>
<path fill-rule="evenodd" clip-rule="evenodd" d="M22.4442 41.7516L22.2129 41.5086L55.6468 9.69189L55.8781 9.935L22.4442 41.7516Z" fill="#00B181"/>
<path fill-rule="evenodd" clip-rule="evenodd" d="M22.2919 41.59L22.0605 41.3469L55.4944 9.53027L55.7258 9.77326L22.2919 41.59Z" fill="#00B182"/>
<path fill-rule="evenodd" clip-rule="evenodd" d="M22.1357 41.4279L21.9043 41.1848L55.3382 9.36816L55.5695 9.61127L22.1357 41.4279Z" fill="#00B084"/>
<path fill-rule="evenodd" clip-rule="evenodd" d="M21.9814 41.2654L21.75 41.0223L55.184 9.20557L55.4152 9.44866L21.9814 41.2654Z" fill="#00AF85"/>
<path fill-rule="evenodd" clip-rule="evenodd" d="M21.8271 41.1037L21.5957 40.8606L55.0297 9.04395L55.2609 9.28704L21.8271 41.1037Z" fill="#00AF86"/>
<path fill-rule="evenodd" clip-rule="evenodd" d="M21.6728 40.9416L21.4414 40.6986L54.8754 8.88184L55.1068 9.12495L21.6728 40.9416Z" fill="#00AE87"/>
<path fill-rule="evenodd" clip-rule="evenodd" d="M21.5183 40.7794L21.2871 40.5363L54.721 8.71973L54.9523 8.96271L21.5183 40.7794Z" fill="#00AD88"/>
<path fill-rule="evenodd" clip-rule="evenodd" d="M21.3661 40.6173L21.1348 40.3742L54.5686 8.55762L54.8 8.80073L21.3661 40.6173Z" fill="#00AC8A"/>
<path fill-rule="evenodd" clip-rule="evenodd" d="M21.2118 40.4553L20.9805 40.2122L54.4143 8.39551L54.6457 8.63861L21.2118 40.4553Z" fill="#00AC8B"/>
<path fill-rule="evenodd" clip-rule="evenodd" d="M21.0575 40.2931L20.8262 40.05L54.26 8.2334L54.4914 8.4765L21.0575 40.2931Z" fill="#00AB8C"/>
<path fill-rule="evenodd" clip-rule="evenodd" d="M20.9032 40.1315L20.6719 39.8885L54.1057 8.07178L54.3371 8.31489L20.9032 40.1315Z" fill="#00AA8D"/>
<path fill-rule="evenodd" clip-rule="evenodd" d="M20.747 39.9694L20.5156 39.7263L53.9495 7.90967L54.1809 8.15266L20.747 39.9694Z" fill="#00AA8E"/>
<path fill-rule="evenodd" clip-rule="evenodd" d="M20.5927 39.8068L20.3613 39.5637L53.7953 7.74707L54.0266 7.99018L20.5927 39.8068Z" fill="#00A990"/>
<path fill-rule="evenodd" clip-rule="evenodd" d="M20.4384 39.6448L20.207 39.4017L53.641 7.58496L53.8724 7.82807L20.4384 39.6448Z" fill="#00A891"/>
<path fill-rule="evenodd" clip-rule="evenodd" d="M20.284 39.4831L20.0527 39.2399L53.4866 7.42334L53.718 7.66645L20.284 39.4831Z" fill="#00A892"/>
<path fill-rule="evenodd" clip-rule="evenodd" d="M20.1316 39.3209L19.9004 39.078L53.3343 7.26123L53.5656 7.50434L20.1316 39.3209Z" fill="#00A793"/>
<path fill-rule="evenodd" clip-rule="evenodd" d="M19.9774 39.1593L19.7461 38.9162L53.18 7.09961L53.4113 7.3426L19.9774 39.1593Z" fill="#00A694"/>
<path fill-rule="evenodd" clip-rule="evenodd" d="M19.8232 38.9967L19.5918 38.7536L53.0257 6.93701L53.257 7.18012L19.8232 38.9967Z" fill="#00A695"/>
<path fill-rule="evenodd" clip-rule="evenodd" d="M19.6689 38.8347L19.4375 38.5916L52.8714 6.7749L53.1027 7.01801L19.6689 38.8347Z" fill="#00A597"/>
<path fill-rule="evenodd" clip-rule="evenodd" d="M19.5146 38.6725L19.2832 38.4294L52.7171 6.61279L52.9484 6.8559L19.5146 38.6725Z" fill="#00A498"/>
<path fill-rule="evenodd" clip-rule="evenodd" d="M19.3583 38.5109L19.127 38.2678L52.561 6.45117L52.7922 6.69427L19.3583 38.5109Z" fill="#00A499"/>
<path fill-rule="evenodd" clip-rule="evenodd" d="M19.206 38.3484L18.9746 38.1053L52.4086 6.28857L52.6398 6.53168L19.206 38.3484Z" fill="#00A39A"/>
<path fill-rule="evenodd" clip-rule="evenodd" d="M19.0517 38.1862L18.8203 37.9431L52.2543 6.12646L52.4857 6.36957L19.0517 38.1862Z" fill="#00A29B"/>
<path fill-rule="evenodd" clip-rule="evenodd" d="M18.8972 38.0247L18.666 37.7816L52.0999 5.96484L52.3312 6.20795L18.8972 38.0247Z" fill="#00A29C"/>
<path fill-rule="evenodd" clip-rule="evenodd" d="M18.743 37.8625L18.5117 37.6193L51.9456 5.80273L52.177 6.04584L18.743 37.8625Z" fill="#00A19D"/>
<path fill-rule="evenodd" clip-rule="evenodd" d="M18.5888 37.7003L18.3574 37.4572L51.7913 5.64062L52.0226 5.88372L18.5888 37.7003Z" fill="#00A09E"/>
<path fill-rule="evenodd" clip-rule="evenodd" d="M18.4345 37.5384L18.2031 37.2953L51.637 5.47852L51.8684 5.72163L18.4345 37.5384Z" fill="#00A0A0"/>
<path fill-rule="evenodd" clip-rule="evenodd" d="M18.2802 37.3761L18.0488 37.133L51.4827 5.31641L51.7141 5.55952L18.2802 37.3761Z" fill="#009FA1"/>
<path fill-rule="evenodd" clip-rule="evenodd" d="M18.1259 37.2141L17.8945 36.971L51.3284 5.1543L51.5598 5.39741L18.1259 37.2141Z" fill="#009EA2"/>
<path fill-rule="evenodd" clip-rule="evenodd" d="M17.9735 37.0524L17.7422 36.8093L51.1762 4.99268L51.4074 5.23579L17.9735 37.0524Z" fill="#009EA3"/>
<path fill-rule="evenodd" clip-rule="evenodd" d="M17.8173 36.8898L17.5859 36.6467L51.0199 4.83008L51.2513 5.07318L17.8173 36.8898Z" fill="#009DA4"/>
<path fill-rule="evenodd" clip-rule="evenodd" d="M17.663 36.7278L17.4316 36.4847L50.8656 4.66797L51.097 4.91108L17.663 36.7278Z" fill="#009DA5"/>
<path fill-rule="evenodd" clip-rule="evenodd" d="M17.5086 36.5661L17.2773 36.323L50.7112 4.50635L50.9426 4.74946L17.5086 36.5661Z" fill="#009CA6"/>
<path fill-rule="evenodd" clip-rule="evenodd" d="M17.3544 36.4036L17.123 36.1605L50.5569 4.34375L50.7883 4.58686L17.3544 36.4036Z" fill="#009BA7"/>
<path fill-rule="evenodd" clip-rule="evenodd" d="M17.2021 36.2414L16.9707 35.9982L50.4046 4.18164L50.6359 4.42475L17.2021 36.2414Z" fill="#009BA8"/>
<path fill-rule="evenodd" clip-rule="evenodd" d="M17.0478 36.0793L16.8164 35.8361L50.2503 4.01953L50.4816 4.26264L17.0478 36.0793Z" fill="#009AA9"/>
<path fill-rule="evenodd" clip-rule="evenodd" d="M16.8935 35.9178L16.6621 35.6747L50.096 3.85791L50.3273 4.10102L16.8935 35.9178Z" fill="#009AAA"/>
<path fill-rule="evenodd" clip-rule="evenodd" d="M16.7392 35.7555L16.5078 35.5124L49.9418 3.6958L50.173 3.93891L16.7392 35.7555Z" fill="#0099AB"/>
<path fill-rule="evenodd" clip-rule="evenodd" d="M16.5829 35.593L16.3516 35.3499L49.7856 3.5332L50.0168 3.77631L16.5829 35.593Z" fill="#0098AC"/>
<path fill-rule="evenodd" clip-rule="evenodd" d="M16.4286 35.4313L16.1973 35.1882L49.6312 3.37158L49.8626 3.61469L16.4286 35.4313Z" fill="#0098AD"/>
<path fill-rule="evenodd" clip-rule="evenodd" d="M16.2742 35.2692L16.043 35.0261L49.4768 3.20947L49.7082 3.45258L16.2742 35.2692Z" fill="#0097AE"/>
<path fill-rule="evenodd" clip-rule="evenodd" d="M16.1199 35.1072L15.8887 34.8641L49.3225 3.04736L49.5539 3.29046L16.1199 35.1072Z" fill="#0097AF"/>
<path fill-rule="evenodd" clip-rule="evenodd" d="M15.9657 34.9455L15.7344 34.7024L49.1683 2.88574L49.3996 3.12884L15.9657 34.9455Z" fill="#0096B0"/>
<path fill-rule="evenodd" clip-rule="evenodd" d="M15.8134 34.783L15.582 34.5399L49.0159 2.72314L49.2473 2.96625L15.8134 34.783Z" fill="#0096B1"/>
<path fill-rule="evenodd" clip-rule="evenodd" d="M15.6591 34.6208L15.4277 34.3776L48.8616 2.56104L49.093 2.80415L15.6591 34.6208Z" fill="#0095B2"/>
<path fill-rule="evenodd" clip-rule="evenodd" d="M15.5048 34.4591L15.2734 34.216L48.7073 2.39941L48.9387 2.64252L15.5048 34.4591Z" fill="#0094B3"/>
<path fill-rule="evenodd" clip-rule="evenodd" d="M15.3505 34.2971L15.1191 34.054L48.5531 2.2373L48.7844 2.4804L15.3505 34.2971Z" fill="#0094B4"/>
<path fill-rule="evenodd" clip-rule="evenodd" d="M15.1942 34.1349L14.9629 33.8918L48.3969 2.0752L48.6282 2.31829L15.1942 34.1349Z" fill="#0093B5"/>
<path fill-rule="evenodd" clip-rule="evenodd" d="M15.0419 33.9729L14.8105 33.7298L48.2445 1.91309L48.4759 2.1562L15.0419 33.9729Z" fill="#0093B6"/>
<path fill-rule="evenodd" clip-rule="evenodd" d="M14.8875 33.8107L14.6562 33.5676L48.0901 1.75098L48.3215 1.99409L14.8875 33.8107Z" fill="#0092B7"/>
<path fill-rule="evenodd" clip-rule="evenodd" d="M14.7333 33.6486L14.502 33.4055L47.9358 1.58887L48.1672 1.83198L14.7333 33.6486Z" fill="#0092B8"/>
<path fill-rule="evenodd" clip-rule="evenodd" d="M14.579 33.4871L14.3477 33.244L47.7815 1.42725L48.0129 1.67036L14.579 33.4871Z" fill="#0091B9"/>
<path fill-rule="evenodd" clip-rule="evenodd" d="M14.4247 33.3249L14.1934 33.0817L47.6272 1.26514L47.8586 1.50823L14.4247 33.3249Z" fill="#0091BA"/>
<path fill-rule="evenodd" clip-rule="evenodd" d="M14.2704 33.1624L14.0391 32.9193L47.4729 1.10254L47.7043 1.34565L14.2704 33.1624Z" fill="#0090BB"/>
<path fill-rule="evenodd" clip-rule="evenodd" d="M14.1161 33.0001L13.8848 32.757L47.3188 0.94043L47.55 1.18354L14.1161 33.0001Z" fill="#0090BB"/>
<path fill-rule="evenodd" clip-rule="evenodd" d="M13.9618 32.8385L13.7305 32.5954L47.1645 0.778809L47.3957 1.02192L13.9618 32.8385Z" fill="#008FBC"/>
<path fill-rule="evenodd" clip-rule="evenodd" d="M13.8095 32.6761L13.5781 32.4329L47.0121 0.616211L47.2435 0.859321L13.8095 32.6761Z" fill="#008FBD"/>
<path fill-rule="evenodd" clip-rule="evenodd" d="M13.6531 32.5138L13.4219 32.2707L46.8558 0.454102L47.0871 0.697212L13.6531 32.5138Z" fill="#008EBE"/>
<path fill-rule="evenodd" clip-rule="evenodd" d="M13.4988 32.3523L13.2676 32.1092L46.7015 0.29248L46.9328 0.535591L13.4988 32.3523Z" fill="#008EBF"/>
<path fill-rule="evenodd" clip-rule="evenodd" d="M13.3446 32.1901L13.1133 31.947L46.5472 0.130371L46.7785 0.373481L13.3446 32.1901Z" fill="#008DC0"/>
<path fill-rule="evenodd" clip-rule="evenodd" d="M13.1903 32.0275L12.959 31.7844L46.3929 -0.0322266L46.6242 0.210884L13.1903 32.0275Z" fill="#008DC1"/>
<path fill-rule="evenodd" clip-rule="evenodd" d="M13.036 31.866L12.8047 31.6229L46.2386 -0.193848L46.4699 0.0492625L13.036 31.866Z" fill="#008CC1"/>
<path fill-rule="evenodd" clip-rule="evenodd" d="M12.8837 31.7038L12.6523 31.4607L46.0862 -0.355957L46.3176 -0.112847L12.8837 31.7038Z" fill="#008CC2"/>
<path fill-rule="evenodd" clip-rule="evenodd" d="M12.7294 31.5418L12.498 31.2987L45.932 -0.518066L46.1633 -0.274968L12.7294 31.5418Z" fill="#008BC3"/>
<path fill-rule="evenodd" clip-rule="evenodd" d="M12.5751 31.38L12.3438 31.1369L45.7777 -0.679688L46.0091 -0.43659L12.5751 31.38Z" fill="#008BC4"/>
<path fill-rule="evenodd" clip-rule="evenodd" d="M12.4208 31.2174L12.1895 30.9743L45.6234 -0.842285L45.8548 -0.599175L12.4208 31.2174Z" fill="#008AC5"/>
<path fill-rule="evenodd" clip-rule="evenodd" d="M12.2644 31.0554L12.0332 30.8123L45.4671 -1.00439L45.6984 -0.761284L12.2644 31.0554Z" fill="#008AC5"/>
<path fill-rule="evenodd" clip-rule="evenodd" d="M12.1103 30.8937L11.8789 30.6506L45.3128 -1.16602L45.5441 -0.922905L12.1103 30.8937Z" fill="#0089C6"/>
<path fill-rule="evenodd" clip-rule="evenodd" d="M11.956 30.7317L11.7246 30.4886L45.1585 -1.32812L45.3898 -1.08503L11.956 30.7317Z" fill="#0089C7"/>
<path fill-rule="evenodd" clip-rule="evenodd" d="M11.8036 30.5695L11.5723 30.3264L45.0061 -1.49023L45.2375 -1.24714L11.8036 30.5695Z" fill="#0088C8"/>
<path fill-rule="evenodd" clip-rule="evenodd" d="M11.6493 30.4074L11.418 30.1643L44.8518 -1.65234L45.0832 -1.40923L11.6493 30.4074Z" fill="#0088C8"/>
<path fill-rule="evenodd" clip-rule="evenodd" d="M11.495 30.2454L11.2637 30.0023L44.6977 -1.81445L44.9289 -1.57134L11.495 30.2454Z" fill="#0088C9"/>
<path fill-rule="evenodd" clip-rule="evenodd" d="M11.3407 30.0832L11.1094 29.84L44.5434 -1.97656L44.7746 -1.73345L11.3407 30.0832Z" fill="#0087CA"/>
<path fill-rule="evenodd" clip-rule="evenodd" d="M11.1864 29.9217L10.9551 29.6785L44.3891 -2.13818L44.6204 -1.89507L11.1864 29.9217Z" fill="#0087CB"/>
<path fill-rule="evenodd" clip-rule="evenodd" d="M11.0301 29.7594L10.7988 29.5163L44.2327 -2.30029L44.4641 -2.0572L11.0301 29.7594Z" fill="#0086CB"/>
<path fill-rule="evenodd" clip-rule="evenodd" d="M10.8758 29.5968L10.6445 29.3537L44.0784 -2.46289L44.3098 -2.21978L10.8758 29.5968Z" fill="#0086CC"/>
<path fill-rule="evenodd" clip-rule="evenodd" d="M10.7235 29.4348L10.4922 29.1917L43.9261 -2.625L44.1574 -2.38189L10.7235 29.4348Z" fill="#0086CD"/>
<path fill-rule="evenodd" clip-rule="evenodd" d="M10.5692 29.2731L10.3379 29.03L43.7718 -2.78662L44.0031 -2.54351L10.5692 29.2731Z" fill="#0085CD"/>
<path fill-rule="evenodd" clip-rule="evenodd" d="M10.4149 29.1111L10.1836 28.868L43.6175 -2.94873L43.8488 -2.70562L10.4149 29.1111Z" fill="#0085CE"/>
<path fill-rule="evenodd" clip-rule="evenodd" d="M10.2607 28.9489L10.0293 28.7058L43.4632 -3.11084L43.6945 -2.86773L10.2607 28.9489Z" fill="#0085CF"/>
<path fill-rule="evenodd" clip-rule="evenodd" d="M10.1064 28.7868L9.875 28.5437L43.309 -3.27295L43.5402 -3.02984L10.1064 28.7868Z" fill="#0084CF"/>
<path fill-rule="evenodd" clip-rule="evenodd" d="M9.95206 28.6248L9.7207 28.3817L43.1547 -3.43506L43.3861 -3.19195L9.95206 28.6248Z" fill="#0084D0"/>
<path fill-rule="evenodd" clip-rule="evenodd" d="M9.79971 28.4626L9.56836 28.2194L43.0024 -3.59717L43.2337 -3.35406L9.79971 28.4626Z" fill="#0083D0"/>
<path fill-rule="evenodd" clip-rule="evenodd" d="M9.6453 28.3004L9.41406 28.0575L42.8479 -3.75928L43.0793 -3.51617L9.6453 28.3004Z" fill="#0083D1"/>
<path fill-rule="evenodd" clip-rule="evenodd" d="M9.48917 28.1383L9.25781 27.8952L42.6917 -3.92139L42.923 -3.67828L9.48917 28.1383Z" fill="#0083D2"/>
<path fill-rule="evenodd" clip-rule="evenodd" d="M9.33487 27.9762L9.10352 27.7331L42.5374 -4.0835L42.7687 -3.8404L9.33487 27.9762Z" fill="#0082D2"/>
<path fill-rule="evenodd" clip-rule="evenodd" d="M9.18057 27.8147L8.94922 27.5716L42.3831 -4.24512L42.6144 -4.00201L9.18057 27.8147Z" fill="#0082D3"/>
<path fill-rule="evenodd" clip-rule="evenodd" d="M9.02629 27.6525L8.79492 27.4094L42.2288 -4.40723L42.4602 -4.16412L9.02629 27.6525Z" fill="#0082D3"/>
<path fill-rule="evenodd" clip-rule="evenodd" d="M8.87198 27.4899L8.64062 27.2469L42.0746 -4.56982L42.3059 -4.32671L8.87198 27.4899Z" fill="#0081D4"/>
<path fill-rule="evenodd" clip-rule="evenodd" d="M8.71768 27.3283L8.48633 27.0852L41.9203 -4.73145L42.1516 -4.48847L8.71768 27.3283Z" fill="#0081D4"/>
<path fill-rule="evenodd" clip-rule="evenodd" d="M8.56534 27.1662L8.33398 26.9231L41.768 -4.89355L41.9993 -4.65046L8.56534 27.1662Z" fill="#0081D5"/>
<path fill-rule="evenodd" clip-rule="evenodd" d="M8.41092 27.0042L8.17969 26.7611L41.6136 -5.05566L41.8449 -4.81255L8.41092 27.0042Z" fill="#0081D5"/>
<path fill-rule="evenodd" clip-rule="evenodd" d="M8.25662 26.8415L8.02539 26.5984L41.4593 -5.21826L41.6906 -4.97515L8.25662 26.8415Z" fill="#0080D6"/>
<path fill-rule="evenodd" clip-rule="evenodd" d="M8.1005 26.6798L7.86914 26.4369L41.303 -5.37988L41.5344 -5.13677L8.1005 26.6798Z" fill="#0080D6"/>
<path fill-rule="evenodd" clip-rule="evenodd" d="M7.94621 26.5177L7.71484 26.2746L41.1487 -5.54199L41.3801 -5.299L7.94621 26.5177Z" fill="#0080D7"/>
<path fill-rule="evenodd" clip-rule="evenodd" d="M7.79387 26.3556L7.5625 26.1125L40.9964 -5.7041L41.2277 -5.46099L7.79387 26.3556Z" fill="#007FD7"/>
<path fill-rule="evenodd" clip-rule="evenodd" d="M7.63956 26.1936L7.4082 25.9505L40.8421 -5.86621L41.0734 -5.6231L7.63956 26.1936Z" fill="#007FD8"/>
<path fill-rule="evenodd" clip-rule="evenodd" d="M7.48526 26.0314L7.25391 25.7883L40.6879 -6.02832L40.9191 -5.78521L7.48526 26.0314Z" fill="#007FD8"/>
<path fill-rule="evenodd" clip-rule="evenodd" d="M7.33096 25.8693L7.09961 25.6263L40.5336 -6.19043L40.765 -5.94732L7.33096 25.8693Z" fill="#007FD9"/>
<path fill-rule="evenodd" clip-rule="evenodd" d="M7.17667 25.7077L6.94531 25.4646L40.3793 -6.35205L40.6107 -6.10906L7.17667 25.7077Z" fill="#007FD9"/>
<path fill-rule="evenodd" clip-rule="evenodd" d="M7.02225 25.5456L6.79102 25.3024L40.2249 -6.51416L40.4562 -6.27105L7.02225 25.5456Z" fill="#007ED9"/>
<path fill-rule="evenodd" clip-rule="evenodd" d="M6.86807 25.3831L6.63672 25.14L40.0706 -6.67676L40.3019 -6.43366L6.86807 25.3831Z" fill="#007EDA"/>
<path fill-rule="evenodd" clip-rule="evenodd" d="M6.71184 25.2214L6.48047 24.9782L39.9143 -6.83838L40.1457 -6.59527L6.71184 25.2214Z" fill="#007EDA"/>
<path fill-rule="evenodd" clip-rule="evenodd" d="M6.55754 25.0592L6.32617 24.8163L39.7601 -7.00049L39.9914 -6.75738L6.55754 25.0592Z" fill="#007EDA"/>
<path fill-rule="evenodd" clip-rule="evenodd" d="M6.40518 24.8971L6.17383 24.654L39.6077 -7.1626L39.8391 -6.91961L6.40518 24.8971Z" fill="#007DDB"/>
<path fill-rule="evenodd" clip-rule="evenodd" d="M6.25089 24.7355L6.01953 24.4924L39.4535 -7.32422L39.6848 -7.08111L6.25089 24.7355Z" fill="#007DDB"/>
<path fill-rule="evenodd" clip-rule="evenodd" d="M6.09659 24.573L5.86523 24.3299L39.2992 -7.48682L39.5305 -7.24372L6.09659 24.573Z" fill="#007DDB"/>
<path fill-rule="evenodd" clip-rule="evenodd" d="M5.94229 24.4108L5.71094 24.1677L39.1449 -7.64893L39.3763 -7.40583L5.94229 24.4108Z" fill="#007DDC"/>
<path fill-rule="evenodd" clip-rule="evenodd" d="M5.78787 24.2492L5.55664 24.0062L38.9905 -7.81055L39.2219 -7.56744L5.78787 24.2492Z" fill="#007DDC"/>
<path fill-rule="evenodd" clip-rule="evenodd" d="M5.63553 24.0871L5.4043 23.844L38.8382 -7.97266L39.0695 -7.72967L5.63553 24.0871Z" fill="#007DDC"/>
<path fill-rule="evenodd" clip-rule="evenodd" d="M5.48137 23.9245L5.25 23.6814L38.6839 -8.13525L38.9152 -7.89214L5.48137 23.9245Z" fill="#007CDD"/>
<path fill-rule="evenodd" clip-rule="evenodd" d="M5.32511 23.763L5.09375 23.5199L38.5276 -8.29688L38.759 -8.05378L5.32511 23.763Z" fill="#007CDD"/>
<path fill-rule="evenodd" clip-rule="evenodd" d="M5.17081 23.6007L4.93945 23.3576L38.3733 -8.45898L38.6047 -8.21589L5.17081 23.6007Z" fill="#007CDD"/>
<path fill-rule="evenodd" clip-rule="evenodd" d="M5.01651 23.4386L4.78516 23.1956L38.219 -8.62109L38.4504 -8.37798L5.01651 23.4386Z" fill="#007CDD"/>
<path fill-rule="evenodd" clip-rule="evenodd" d="M4.86221 23.277L4.63086 23.0339L38.0649 -8.78271L38.2961 -8.53973L4.86221 23.277Z" fill="#007CDD"/>
<path fill-rule="evenodd" clip-rule="evenodd" d="M4.70792 23.1144L4.47656 22.8713L37.9105 -8.94531L38.1419 -8.7022L4.70792 23.1144Z" fill="#007CDE"/>
<path fill-rule="evenodd" clip-rule="evenodd" d="M4.55363 22.9524L4.32227 22.7093L37.7563 -9.10742L37.9876 -8.86431L4.55363 22.9524Z" fill="#007CDE"/>
<path fill-rule="evenodd" clip-rule="evenodd" d="M4.40116 22.7902L4.16992 22.5471L37.6038 -9.26953L37.8351 -9.02642L4.40116 22.7902Z" fill="#007CDE"/>
<path fill-rule="evenodd" clip-rule="evenodd" d="M4.24699 22.6286L4.01562 22.3856L37.4495 -9.43115L37.6809 -9.18804L4.24699 22.6286Z" fill="#007BDE"/>
<path fill-rule="evenodd" clip-rule="evenodd" d="M4.09268 22.4665L3.86133 22.2234L37.2952 -9.59326L37.5266 -9.35027L4.09268 22.4665Z" fill="#007BDE"/>
<path fill-rule="evenodd" clip-rule="evenodd" d="M3.93643 22.3039L3.70508 22.0607L37.139 -9.75586L37.3703 -9.51275L3.93643 22.3039Z" fill="#007BDE"/>
<path fill-rule="evenodd" clip-rule="evenodd" d="M3.78214 22.1424L3.55078 21.8993L36.9846 -9.91748L37.216 -9.67437L3.78214 22.1424Z" fill="#007BDF"/>
<path fill-rule="evenodd" clip-rule="evenodd" d="M3.62785 21.9801L3.39648 21.737L36.8305 -10.0796L37.0617 -9.83648L3.62785 21.9801Z" fill="#007BDF"/>
<path fill-rule="evenodd" clip-rule="evenodd" d="M3.4755 21.818L3.24414 21.575L36.6781 -10.2417L36.9094 -9.9986L3.4755 21.818Z" fill="#007BDF"/>
<path fill-rule="evenodd" clip-rule="evenodd" d="M3.3212 21.6559L3.08984 21.4128L36.5238 -10.4038L36.7552 -10.1608L3.3212 21.6559Z" fill="#007BDF"/>
<path fill-rule="evenodd" clip-rule="evenodd" d="M3.16678 21.4938L2.93555 21.2507L36.3694 -10.5659L36.6008 -10.3228L3.16678 21.4938Z" fill="#007BDF"/>
<path fill-rule="evenodd" clip-rule="evenodd" d="M3.01248 21.3318L2.78125 21.0887L36.2151 -10.728L36.4465 -10.4849L3.01248 21.3318Z" fill="#007BDF"/>
<path fill-rule="evenodd" clip-rule="evenodd" d="M2.85831 21.1701L2.62695 20.927L36.0608 -10.8896L36.2922 -10.6465L2.85831 21.1701Z" fill="#007BDF"/>
<path fill-rule="evenodd" clip-rule="evenodd" d="M2.70401 21.008L2.47266 20.765L35.9065 -11.0518L36.1379 -10.8087L2.70401 21.008Z" fill="#007BDF"/>
<path fill-rule="evenodd" clip-rule="evenodd" d="M2.54942 20.8456L1.01953 19.238L34.4535 -12.5786L35.9833 -10.9711L2.54942 20.8456Z" fill="#007BDF"/>
</g>
<path fill-rule="evenodd" clip-rule="evenodd" d="M38.2998 31.5786L32.7092 28.351L32.6595 28.3147C32.5921 28.266 32.5185 28.2275 32.4415 28.2026C32.3725 28.1802 32.2918 28.168 32.2014 28.168C32.1293 28.168 32.0633 28.176 32.0047 28.1907C31.9414 28.2066 31.8859 28.2271 31.8405 28.2506L31.842 28.2533L31.797 28.2786L31.7955 28.2758L31.7693 28.2937L26.0801 31.5785L32.1899 35.1058L38.2998 31.5786Z" fill="#1F6DFF"/>
<path fill-rule="evenodd" clip-rule="evenodd" d="M30.7621 44.6387L30.7623 37.5803L24.6562 34.0552V40.3407L24.672 40.3882L24.6685 40.673H24.6739C24.6739 40.8266 24.7154 40.9667 24.787 41.0818C24.865 41.2074 24.9759 41.3094 25.1052 41.3733L30.7621 44.6387Z" fill="#00AD88"/>
<path fill-rule="evenodd" clip-rule="evenodd" d="M39.7252 34.0552L33.6194 37.5803L33.6191 44.6387L39.3261 41.344L39.3317 41.3384C39.4497 41.2717 39.5508 41.1703 39.6232 41.0463C39.6891 40.9333 39.7271 40.7998 39.7271 40.6565H39.7325L39.7307 40.6085L39.7252 40.5692V34.0552Z" fill="#F6852F"/>
<path fill-rule="evenodd" clip-rule="evenodd" d="M31.291 10.0091L32.6518 8.55859L33.5275 10.0047C33.2003 9.81363 32.8193 9.7039 32.4131 9.7039C32.0036 9.7039 31.62 9.81539 31.291 10.0091Z" fill="#0088C8"/>
<defs>
<linearGradient id="paint0_linear_242_2698" x1="10.1953" y1="48.314" x2="63.7589" y2="48.314" gradientUnits="userSpaceOnUse">
<stop stop-color="#07DDFF"/>
<stop offset="1" stop-color="#3600FF"/>
</linearGradient>
</defs>
</svg>
