<svg width="158" height="32" viewBox="0 0 158 32" fill="none" xmlns="http://www.w3.org/2000/svg">
<path d="M15.593 20.0218H7.487L5.937 23.0338H0L11.562 1.5498L23.079 23.0338H17.143L15.593 20.0218ZM13.511 15.9908L11.562 12.2258L9.569 15.9908H13.511Z" fill="white"/>
<path d="M26.0467 22.4138C25.0524 21.9812 24.1392 21.3819 23.3467 20.6418C22.5835 19.9195 21.9922 19.035 21.6164 18.0537C21.2407 17.0723 21.0901 16.0191 21.1757 14.9718L25.6957 15.0168V14.9728C25.7013 15.6857 25.8842 16.3861 26.2277 17.0108C26.6673 17.5475 27.2336 17.9662 27.8756 18.2291C28.5176 18.4921 29.2149 18.5909 29.9047 18.5168C32.8727 18.5168 34.2047 17.7638 34.2047 16.4788C34.2047 15.1498 32.5217 14.3078 29.7747 14.0428C28.2841 13.8991 26.822 13.5411 25.4337 12.9798C24.3944 12.5661 23.4574 11.9315 22.6877 11.1198C21.7207 10.0691 21.1832 8.69375 21.1817 7.26579C21.1416 5.73769 21.6794 4.2507 22.6877 3.1018C24.1937 1.3738 26.6747 0.487793 30.0407 0.487793C34.4707 0.487793 36.6407 2.43679 37.7037 4.07579C38.4477 5.32468 38.8607 6.74274 38.9037 8.19579H34.3857V8.23979C34.3989 7.64224 34.2289 7.05496 33.8987 6.55679C33.421 6.01908 32.8227 5.60224 32.1527 5.34046C31.4828 5.07868 30.7604 4.97941 30.0447 5.05079C28.1447 5.05079 25.9247 5.53779 25.9247 6.99979C25.9247 8.37313 27.3864 9.21479 30.3097 9.52479C33.5877 9.87879 35.9797 10.8978 37.4417 12.5818C38.3782 13.6796 38.8963 15.0733 38.9043 16.5163C38.9124 17.9592 38.4099 19.3586 37.4857 20.4668C36.6908 21.3412 35.6836 21.9957 34.5617 22.3668C33.0714 22.8294 31.5142 23.0389 29.9547 22.9868C28.6265 23.0674 27.2959 22.8723 26.0467 22.4138Z" fill="white"/>
<path d="M63.3449 18.3828V22.9898H47.7969V1.5498H52.9349V18.4268H63.3449V18.3828Z" fill="white"/>
<path d="M80.4894 14.4412C80.4938 16.119 80.0005 17.7604 79.072 19.1578C78.1435 20.5552 76.8214 21.6459 75.273 22.292C73.7246 22.9381 72.0194 23.1105 70.373 22.7875C68.7267 22.4644 67.2131 21.6604 66.0236 20.4771C64.8342 19.2938 64.0223 17.7844 63.6908 16.1397C63.3592 14.495 63.5227 12.789 64.1608 11.2372C64.7988 9.68551 65.8826 8.35783 67.2752 7.42209C68.6678 6.48635 70.3066 5.98457 71.9844 5.98022C73.0999 5.97189 74.206 6.18473 75.2388 6.60644C76.2715 7.02815 77.2105 7.65036 78.0013 8.43712C78.7922 9.22388 79.4193 10.1596 79.8463 11.1901C80.2734 12.2207 80.492 13.3257 80.4894 14.4412ZM76.1894 14.4852C76.1883 13.9332 76.0781 13.3869 75.8653 12.8776C75.6525 12.3683 75.3413 11.906 74.9494 11.5172C74.1489 10.7539 73.0874 10.3248 71.9814 10.3172C71.436 10.3186 70.8963 10.429 70.3942 10.642C69.8921 10.8549 69.4375 11.1661 69.0574 11.5572C68.2731 12.3471 67.8282 13.4121 67.8174 14.5252C67.8203 15.0749 67.9314 15.6187 68.1445 16.1254C68.3575 16.6322 68.6683 17.0921 69.059 17.4787C69.4498 17.8654 69.9128 18.1713 70.4218 18.379C70.9308 18.5867 71.4757 18.6921 72.0254 18.6892C72.5751 18.6863 73.1189 18.5752 73.6256 18.3622C74.1324 18.1491 74.5922 17.8384 74.9789 17.4476C75.3656 17.0569 75.6715 16.5938 75.8792 16.0848C76.0869 15.5758 76.1923 15.0309 76.1894 14.4812V14.4852Z" fill="white"/>
<path d="M98.872 5.97998V22.99C98.875 25.1556 98.0503 27.2404 96.5668 28.818C95.0833 30.3957 93.0531 31.3469 90.8914 31.4771C88.7298 31.6072 86.6 30.9065 84.938 29.5183C83.2759 28.1301 82.207 26.1593 81.95 24.009H86.291C86.4917 24.7408 86.8723 25.4108 87.398 25.958C87.7868 26.3499 88.2491 26.6611 88.7584 26.8739C89.2677 27.0867 89.814 27.1968 90.366 27.198C90.9121 27.2009 91.453 27.0924 91.9558 26.8792C92.4585 26.666 92.9125 26.3526 93.29 25.958C93.6812 25.5778 93.9923 25.1233 94.2053 24.6212C94.4182 24.1191 94.5286 23.5794 94.53 23.034L94.486 21.351C93.3755 22.4137 91.903 23.0152 90.366 23.034C89.2491 23.0398 88.142 22.8256 87.1079 22.4036C86.0738 21.9816 85.1329 21.36 84.339 20.5744C83.5452 19.7888 82.9138 18.8545 82.481 17.8248C82.0481 16.7952 81.8224 15.6904 81.8165 14.5735C81.8107 13.4566 82.0249 12.3495 82.4469 11.3154C82.8689 10.2813 83.4905 9.3404 84.2761 8.5465C85.0617 7.75261 85.9961 7.12123 87.0257 6.68841C88.0553 6.2556 89.1601 6.02982 90.277 6.02398C91.0672 5.97823 91.8573 6.11416 92.5868 6.42133C93.3162 6.72851 93.9656 7.19876 94.485 7.79598V6.02398H98.87L98.872 5.97998ZM94.572 13.998C94.4744 13.035 94.0344 12.139 93.332 11.473C92.5315 10.7097 91.4701 10.2805 90.364 10.273C89.818 10.2701 89.277 10.3785 88.7743 10.5917C88.2715 10.8049 87.8175 11.1184 87.44 11.513C86.6557 12.3029 86.2108 13.3679 86.2 14.481C86.1915 15.311 86.4311 16.1246 86.8882 16.8176C87.3452 17.5105 87.9988 18.051 88.7652 18.37C89.5315 18.6889 90.3757 18.7716 91.1894 18.6075C92.0031 18.4434 92.7492 18.04 93.332 17.449C94.0045 16.8022 94.4291 15.9403 94.532 15.013V13.998H94.572Z" fill="white"/>
<path d="M105.472 3.9H100.865V0H105.472V3.9ZM105.516 23.036H100.909V6.024H105.516V23.036Z" fill="white"/>
<path d="M111.365 22.5031C110.578 22.1807 109.857 21.7152 109.239 21.1301C108.638 20.5678 108.171 19.8779 107.872 19.1113C107.573 18.3446 107.45 17.5207 107.511 16.7001V16.3461L111.232 16.3901H111.542V16.6561C111.569 17.1325 111.689 17.599 111.896 18.0291C112.188 18.394 112.571 18.6761 113.007 18.8471C113.442 19.0182 113.914 19.0723 114.377 19.0041C115.147 19.0624 115.921 18.9412 116.636 18.6501C117.168 18.3841 117.212 18.0741 117.212 17.8501C117.212 16.7871 115.312 16.4321 114.155 16.3001C113.014 16.2015 111.894 15.9318 110.833 15.5001C110.003 15.1937 109.258 14.6923 108.662 14.0381C107.878 13.1978 107.448 12.0874 107.462 10.9381C107.437 9.72037 107.864 8.53656 108.662 7.61612C109.862 6.24312 111.762 5.57812 114.376 5.57812C117.831 5.57812 119.514 7.08412 120.356 8.36912C120.955 9.34206 121.277 10.4605 121.286 11.6031V11.9131H117.299V11.6031C117.299 11.2265 117.192 10.8576 116.989 10.5401C116.659 10.1861 116.251 9.91371 115.797 9.7445C115.343 9.57529 114.856 9.51388 114.375 9.56512C113.002 9.56512 111.584 9.91913 111.584 10.7171C111.585 10.9274 111.648 11.1327 111.766 11.3064C111.885 11.4802 112.053 11.6146 112.248 11.6921C112.981 12.0545 113.78 12.2654 114.596 12.3121C116.674 12.3952 118.648 13.2477 120.133 14.7041C120.879 15.5646 121.288 16.6656 121.285 17.8041C121.328 18.9682 120.933 20.1063 120.178 20.9931C119.547 21.677 118.757 22.1943 117.878 22.4991C116.729 22.8438 115.533 23.0081 114.334 22.9861C113.321 23.0392 112.309 22.8745 111.365 22.5031Z" fill="white"/>
<path d="M135.018 10.6309H131.208V23.0309H126.601V10.6309H122.748V5.97995H126.602V0.0439453H131.209V5.97995H135.019L135.018 10.6309Z" fill="white"/>
<path d="M141.575 3.9H137.012V0H141.619V3.9H141.575ZM141.619 23.036H137.012V6.024H141.619V23.036Z" fill="white"/>
<path d="M157.211 20.953C155.976 22.0381 154.454 22.7442 152.828 22.9866C151.202 23.2289 149.54 22.9973 148.043 22.3195C146.545 21.6417 145.274 20.5464 144.383 19.1648C143.492 17.7833 143.018 16.1741 143.018 14.53C143.018 12.8859 143.492 11.2767 144.383 9.89514C145.274 8.51359 146.545 7.41829 148.043 6.74046C149.54 6.06264 151.202 5.83103 152.828 6.0734C154.454 6.31577 155.976 7.02183 157.211 8.10699L154.155 11.164C153.426 10.6182 152.54 10.3228 151.63 10.322C150.524 10.3295 149.462 10.7587 148.662 11.522C147.874 12.3054 147.429 13.3697 147.425 14.481C147.408 15.0319 147.506 15.5802 147.713 16.0911C147.92 16.6021 148.23 17.0645 148.625 17.449C149.014 17.8409 149.476 18.1521 149.985 18.3649C150.495 18.5777 151.041 18.6878 151.593 18.689C152.502 18.6811 153.386 18.3865 154.118 17.847L157.211 20.953Z" fill="white"/>
</svg>
