<svg width="52" height="48" viewBox="0 0 52 48" fill="none" xmlns="http://www.w3.org/2000/svg">
<path d="M19.9846 12.3701C21.469 12.3701 22.6724 11.1668 22.6724 9.68237C22.6724 8.19797 21.469 6.99463 19.9846 6.99463C18.5002 6.99463 17.2969 8.19797 17.2969 9.68237C17.2969 11.1668 18.5002 12.3701 19.9846 12.3701Z" fill="black"/>
<path d="M19.5718 23.9154C19.7021 23.9827 19.8439 24.0169 19.9865 24.0169C20.1291 24.0169 20.2708 23.9827 20.4012 23.9154C20.7494 23.7334 28.9456 19.3457 28.9456 9.68227C28.9456 4.7425 24.9262 0.723145 19.9865 0.723145C15.0467 0.723145 11.0273 4.7425 11.0273 9.68227C11.0273 19.3457 19.2235 23.7334 19.5718 23.9154ZM19.9856 5.20271C22.4555 5.20271 24.4652 7.21239 24.4652 9.68227C24.4652 12.1522 22.4555 14.1618 19.9856 14.1618C17.5157 14.1618 15.506 12.1522 15.506 9.68227C15.506 7.21239 17.5157 5.20271 19.9856 5.20271Z" fill="black"/>
<path d="M35.121 27.0696C34.9956 27.1234 34.8701 27.1503 34.7447 27.1503C34.4042 27.1503 34.0817 26.9621 33.9294 26.6306C33.7233 26.1827 33.9115 25.6541 34.3595 25.448C34.7357 25.2688 35.112 25.1345 35.4973 25L34.7178 13.9355L29.2438 16.7935C28.5808 18.2807 27.7566 19.5618 26.8965 20.6459V33.5112C27.3086 32.9199 27.6759 32.2749 28.0343 31.6388L28.1239 31.4864C28.3658 31.0564 28.9123 30.9041 29.3423 31.146C29.7724 31.3879 29.9247 31.9344 29.6828 32.3645L29.6022 32.5168C29.19 33.2514 28.7242 34.0756 28.1776 34.8103C28.0074 35.0522 27.7297 35.1776 27.4609 35.1776C27.2728 35.1776 27.0846 35.1238 26.9324 35.0074C26.9144 34.9985 26.9055 34.9805 26.8965 34.9716V47.2993L36.7784 42.999L35.6316 26.8725C35.4614 26.9352 35.2822 26.989 35.121 27.0696ZM32.9349 28.3956C32.272 28.9152 31.6538 29.5244 31.1163 30.1874C30.9371 30.4024 30.6773 30.5189 30.4174 30.5189C30.2203 30.5189 30.0142 30.4562 29.853 30.3128C29.4677 30.0082 29.414 29.4438 29.7186 29.0586C30.3458 28.288 31.0625 27.5892 31.833 26.989C32.2272 26.6844 32.7916 26.7561 33.0962 27.1413C33.3919 27.5355 33.3291 28.0999 32.9349 28.3956Z" fill="black"/>
<path d="M51.9125 46.3318L47.8988 30.1338C47.0298 29.4529 45.0946 27.9746 44.8348 27.8044C44.4226 27.5266 44.3062 26.9712 44.5749 26.559C44.8437 26.147 45.3902 26.0305 45.8113 26.2992C45.9905 26.4157 46.5639 26.8457 47.2 27.3385L45.2021 19.2842C45.1483 19.0513 44.996 18.8452 44.781 18.7198L36.5117 13.9177L37.2643 24.5343C37.7302 24.4805 38.1602 24.7851 38.2409 25.2421C38.3394 25.7348 38.0169 26.2007 37.5331 26.2903C37.4793 26.2992 37.4345 26.3172 37.3898 26.3261L38.5724 42.9991L50.7747 47.5503C50.8732 47.5861 50.9807 47.6041 51.0882 47.6041C51.0972 47.6041 51.0972 47.6041 51.1062 47.6041C51.5989 47.6041 52.0021 47.2099 52.0021 46.7082C52.0021 46.5737 51.9752 46.4483 51.9125 46.3318ZM43.6611 26.1111C43.5357 26.4784 43.1863 26.7114 42.81 26.7114C42.7115 26.7114 42.6218 26.6934 42.5233 26.6665C41.717 26.3888 40.8838 26.2186 40.0506 26.1559C39.5578 26.1111 39.1816 25.6811 39.2264 25.1883C39.2622 24.6956 39.6923 24.3282 40.185 24.3641C41.1705 24.4357 42.156 24.6418 43.1057 24.9733C43.5715 25.1346 43.8224 25.6452 43.6611 26.1111Z" fill="black"/>
<path d="M19.9889 25.8066C19.5588 25.8066 19.1288 25.708 18.7526 25.5109C18.6361 25.4482 17.7491 24.9734 16.5665 24.0595L16.3604 27.016C16.5038 27.0967 16.6292 27.2042 16.7188 27.3565C17.0324 27.9478 17.2922 28.557 17.552 29.1573C17.6595 29.4081 17.776 29.6679 17.8925 29.9277C18.0895 30.3757 17.8925 30.9043 17.4445 31.1104C17.3191 31.1641 17.1936 31.191 17.0772 31.191C16.7278 31.191 16.4053 30.9939 16.2529 30.6624C16.2081 30.5639 16.1634 30.4564 16.1186 30.3578L15.2227 42.9991L25.1045 47.2995V37.1219C25.0687 37.1309 25.0418 37.1488 25.006 37.1488C24.7103 37.2205 24.4058 37.2563 24.0922 37.2563C23.5457 37.2563 22.9812 37.1488 22.4168 36.9517C21.9509 36.7815 21.7001 36.2708 21.8703 35.8049C22.0316 35.3391 22.5422 35.0972 23.0081 35.2584C23.5904 35.4645 24.1369 35.5093 24.6208 35.4018C24.7731 35.3659 24.9164 35.3212 25.0508 35.2584C25.0687 35.2584 25.0866 35.2584 25.1045 35.2495V22.6082C23.1425 24.4806 21.3955 25.4213 21.2342 25.5019C20.84 25.708 20.41 25.8066 19.9889 25.8066ZM21.0461 35.2584C20.8669 35.4645 20.616 35.572 20.3652 35.572C20.1591 35.572 19.953 35.5003 19.7828 35.357C19.0751 34.7567 18.3762 34.0131 17.758 33.2157C17.4624 32.8216 17.5341 32.2571 17.9283 31.9615C18.3225 31.6568 18.8779 31.7285 19.1826 32.1227C19.7201 32.8216 20.3293 33.4756 20.9475 33.9952C21.3238 34.3177 21.3686 34.8822 21.0461 35.2584Z" fill="black"/>
<path d="M7.22228 18.7197C7.00722 18.8451 6.85493 19.0511 6.80118 19.2841L3.88049 31.0385C4.28367 30.5637 4.61515 30.1515 4.6958 30.053C4.9825 29.6498 5.54688 29.5602 5.95005 29.8558C6.34425 30.1425 6.43388 30.707 6.14718 31.1012C5.99483 31.3162 5.42149 31.9971 4.49868 33.0991C3.88946 33.8158 3.08312 34.7745 2.89501 35.0253L0.0460166 46.493C-0.0346396 46.8155 0.0728656 47.156 0.314779 47.3799C0.485005 47.5322 0.700015 47.6039 0.915025 47.6039C1.02253 47.6039 1.13004 47.586 1.22863 47.5501L13.431 42.9989L14.6046 26.4604C14.4792 26.5231 14.3358 26.5589 14.1925 26.5589C14.0133 26.5589 13.8341 26.5051 13.6818 26.3976C13.1084 26.0034 12.4902 25.8959 11.7824 26.0841C11.3076 26.2095 10.8148 25.9139 10.6895 25.439C10.564 24.9552 10.8597 24.4715 11.3345 24.346C12.5529 24.0324 13.7087 24.2385 14.7031 24.9283C14.7121 24.9283 14.7121 24.9373 14.7121 24.9373L14.8734 22.6079C13.404 21.1924 11.8094 19.2393 10.6984 16.7039L7.22228 18.7197ZM9.69496 27.2129C9.09471 27.6878 8.46756 28.297 7.81356 29.0227C7.64334 29.2198 7.39246 29.3183 7.1506 29.3183C6.93559 29.3183 6.72052 29.2466 6.55035 29.0943C6.183 28.7629 6.15615 28.1984 6.47866 27.8222C7.19538 27.0248 7.9121 26.3439 8.58403 25.8064C8.97824 25.5017 9.54267 25.5734 9.8473 25.9586C10.1519 26.3439 10.0892 26.9083 9.69496 27.2129Z" fill="black"/>
</svg>
