<svg width="17" height="17" viewBox="0 0 17 17" fill="none" xmlns="http://www.w3.org/2000/svg">
<path d="M8.5 0C6.81886 0 5.17547 0.498516 3.77766 1.43251C2.37984 2.3665 1.29037 3.69402 0.647028 5.24719C0.00368291 6.80036 -0.164645 8.50943 0.163329 10.1583C0.491303 11.8071 1.30085 13.3217 2.4896 14.5104C3.67834 15.6992 5.1929 16.5087 6.84174 16.8367C8.49057 17.1646 10.1996 16.9963 11.7528 16.353C13.306 15.7096 14.6335 14.6202 15.5675 13.2223C16.5015 11.8245 17 10.1811 17 8.5C17 7.38376 16.7801 6.27846 16.353 5.24719C15.9258 4.21592 15.2997 3.27889 14.5104 2.48959C13.7211 1.70029 12.7841 1.07419 11.7528 0.647024C10.7215 0.219859 9.61624 0 8.5 0ZM13.3246 7.00145L8.2246 11.6764C8.06313 11.8245 7.85073 11.9045 7.63171 11.8998C7.41268 11.895 7.20395 11.8059 7.04905 11.6509L4.49905 9.10095C4.41787 9.02254 4.35311 8.92875 4.30857 8.82504C4.26402 8.72134 4.24057 8.6098 4.23959 8.49694C4.23861 8.38408 4.26012 8.27215 4.30285 8.16769C4.34559 8.06322 4.40871 7.96832 4.48852 7.88851C4.56833 7.8087 4.66323 7.74559 4.76769 7.70285C4.87215 7.66011 4.98408 7.6386 5.09694 7.63959C5.20981 7.64057 5.32134 7.66401 5.42505 7.70856C5.52875 7.75311 5.62254 7.81786 5.70095 7.89905L7.6755 9.8736L12.1754 5.74855C12.3415 5.59615 12.5614 5.516 12.7867 5.52573C13.0119 5.53545 13.2241 5.63425 13.3765 5.8004C13.5288 5.96654 13.609 6.18642 13.5993 6.41166C13.5895 6.6369 13.4907 6.84906 13.3246 7.00145Z" fill="#633F94"/>
</svg>
