<svg width="36" height="36" viewBox="0 0 36 36" fill="none" xmlns="http://www.w3.org/2000/svg">
<g clip-path="url(#clip0_248_58)">
<path d="M18.0001 10.2518C13.7278 10.2518 10.252 13.7277 10.252 18C10.252 22.2723 13.7278 25.7482 18.0001 25.7482C22.2725 25.7482 25.7483 22.2724 25.7483 18.0001C25.7483 13.7277 22.2725 10.2518 18.0001 10.2518Z" fill="black"/>
<path d="M26.1311 0H9.86885C4.42716 0 0 4.42716 0 9.86892V26.1311C0 31.5729 4.42716 36 9.86885 36H26.1311C31.5729 36 36 31.5728 36 26.1311V9.86892C36 4.42716 31.5729 0 26.1311 0ZM18 27.8741C12.5554 27.8741 8.12595 23.4446 8.12595 18C8.12595 12.5554 12.5554 8.12602 18 8.12602C23.4446 8.12602 27.8741 12.5554 27.8741 18C27.8741 23.4446 23.4446 27.8741 18 27.8741ZM28.4647 10.5353C26.8105 10.5353 25.4647 9.18956 25.4647 7.53539C25.4647 5.88122 26.8105 4.53537 28.4647 4.53537C30.1189 4.53537 31.4646 5.88115 31.4646 7.53532C31.4646 9.18949 30.1189 10.5353 28.4647 10.5353Z" fill="black"/>
</g>
<defs>
<clipPath id="clip0_248_58">
<rect width="36" height="36" fill="white"/>
</clipPath>
</defs>
</svg>
