<svg width="462" height="512" viewBox="0 0 462 512" fill="none" xmlns="http://www.w3.org/2000/svg">
<path d="M17.0777 397.536L184.815 494.231L184.767 427.332L59.9821 355.408L60.0355 191.303L104.577 216.934L225.771 147.008C227.9 145.938 230.305 145.333 232.85 145.333C235.046 145.333 237.138 145.783 239.038 146.594L285.166 173.57L336.19 143.463L240.042 88.0107L239.97 88.0134C237.304 86.4622 234.206 85.573 230.9 85.573C227.687 85.573 224.671 86.4123 222.057 87.8833L222.044 87.8825L104.55 154.99L27.4427 110.519L27.4409 110.521C24.8071 109.02 21.759 108.162 18.5095 108.162C8.53296 108.162 0.444458 116.249 0.444458 126.227C0.444458 126.761 0.468519 127.291 0.514851 127.814L0.497057 369.033C0.469436 369.56 0.45516 370.09 0.45516 370.625C0.45516 382.401 7.22143 392.596 17.0777 397.536Z" fill="url(#paint0_linear_2107_727)"/>
<path fill-rule="evenodd" clip-rule="evenodd" d="M202.631 482.215L202.57 482.186L202.521 419.653L73.1731 345.053L73.125 217.028L127.895 248.501L127.918 307.269C128.257 312.103 129.638 315.412 133.811 318.744L250.326 385.94L250.35 385.985C254.221 388.128 256.843 392.254 256.843 396.992C256.843 397.445 256.819 397.893 256.773 398.334L256.846 437.907L391.849 360.05C396.016 356.567 397.196 353.051 397.388 347.735L397.415 347.784V207.465L454.954 174.31V369.564C454.977 370.039 454.989 370.517 454.989 370.996C454.989 381.989 449.092 391.604 440.29 396.854L440.288 396.86L439.968 397.046L439.805 397.139L249.539 506.862C244.736 510.106 238.947 512.001 232.716 512.001C216.199 512.001 202.793 498.694 202.631 482.215Z" fill="url(#paint1_linear_2107_727)"/>
<path d="M270.618 348.883L270.786 410.377L383.127 345.685L383.101 197.286L452.755 157.045L452.739 156.976C457.753 153.765 461.076 148.147 461.076 141.753C461.076 135.129 457.511 129.339 452.195 126.194L452.197 126.176L243.369 5.74156C238.405 2.13033 232.297 0 225.689 0C220.538 0 215.691 1.29548 211.452 3.57645L211.437 3.57375L42.8611 100.584L105.075 136.47L223.578 68.1259L223.514 68.1943C225.859 66.8133 228.593 66.0185 231.512 66.0185C234.408 66.0185 237.124 66.8007 239.457 68.1631L239.4 68.07L369.969 143.578L326.981 168.368L326.715 307.451C326.518 312.941 325.264 316.508 320.759 320.105L270.618 348.883Z" fill="url(#paint2_linear_2107_727)"/>
<path fill-rule="evenodd" clip-rule="evenodd" d="M273.483 221.953L233.63 198.945L233.275 198.687C232.795 198.339 232.27 198.065 231.721 197.887C231.23 197.728 230.654 197.641 230.01 197.641C229.496 197.641 229.025 197.698 228.607 197.803C228.156 197.916 227.761 198.062 227.437 198.23L227.448 198.249L227.127 198.429L227.117 198.41L226.93 198.537L186.374 221.952L229.928 247.097L273.483 221.953Z" fill="#1F6DFF"/>
<path fill-rule="evenodd" clip-rule="evenodd" d="M219.748 315.056L219.75 264.74L176.222 239.611V284.418L176.335 284.756L176.31 286.786H176.348C176.348 287.881 176.644 288.88 177.154 289.7C177.71 290.596 178.501 291.323 179.423 291.778L219.748 315.056Z" fill="#00AD88"/>
<path fill-rule="evenodd" clip-rule="evenodd" d="M283.638 239.61L240.113 264.739L240.111 315.054L280.793 291.568L280.834 291.528C281.675 291.052 282.395 290.33 282.911 289.446C283.381 288.641 283.652 287.689 283.652 286.667H283.69L283.678 286.325L283.638 286.045V239.61Z" fill="#F6852F"/>
<defs>
<linearGradient id="paint0_linear_2107_727" x1="334.667" y1="142.222" x2="185.333" y2="497.778" gradientUnits="userSpaceOnUse">
<stop stop-color="#830DDE"/>
<stop offset="0.729795" stop-color="#E36289"/>
<stop offset="1" stop-color="#FE9600"/>
</linearGradient>
<linearGradient id="paint1_linear_2107_727" x1="73.125" y1="341.252" x2="454.954" y2="341.252" gradientUnits="userSpaceOnUse">
<stop stop-color="#07DDFF"/>
<stop offset="1" stop-color="#3600FF"/>
</linearGradient>
<linearGradient id="paint2_linear_2107_727" x1="135.556" y1="53.3333" x2="327.556" y2="320" gradientUnits="userSpaceOnUse">
<stop stop-color="#007BDF"/>
<stop offset="0.547827" stop-color="#00AB8C"/>
<stop offset="1" stop-color="#01F212"/>
</linearGradient>
</defs>
</svg>
