<svg width="45" height="45" viewBox="0 0 45 45" fill="none" xmlns="http://www.w3.org/2000/svg">
<path d="M44.3925 14.7787L23.2987 0.2475C22.8187 -0.0825 22.185 -0.0825 21.7031 0.2475L0.609375 14.7787C0.226875 15.0413 0 15.4744 0 15.9375V43.125C0 44.16 0.84 45 1.875 45H5.625V22.5C5.625 21.465 6.465 20.625 7.5 20.625H37.5C38.535 20.625 39.375 21.465 39.375 22.5V45H43.125C44.16 45 45 44.16 45 43.125V15.9375C45 15.4744 44.7731 15.0413 44.3925 14.7787Z" fill="black"/>
<path d="M17.3438 35.625V37.0313C17.3438 37.8075 16.7137 38.4375 15.9375 38.4375C15.1613 38.4375 14.5312 37.8075 14.5312 37.0313V35.625H11.25C10.7325 35.625 10.3125 36.045 10.3125 36.5625V44.0625C10.3125 44.58 10.7325 45 11.25 45H20.625C21.1425 45 21.5625 44.58 21.5625 44.0625V36.5625C21.5625 36.045 21.1425 35.625 20.625 35.625H17.3438Z" fill="black"/>
<path d="M30.4688 35.625V37.0313C30.4688 37.8075 29.8387 38.4375 29.0625 38.4375C28.2863 38.4375 27.6562 37.8075 27.6562 37.0313V35.625H24.375C23.8575 35.625 23.4375 36.045 23.4375 36.5625V44.0625C23.4375 44.58 23.8575 45 24.375 45H33.75C34.2675 45 34.6875 44.58 34.6875 44.0625V36.5625C34.6875 36.045 34.2675 35.625 33.75 35.625H30.4688Z" fill="black"/>
<path d="M23.9062 24.375V25.7813C23.9062 26.5575 23.2762 27.1875 22.5 27.1875C21.7238 27.1875 21.0938 26.5575 21.0938 25.7813V24.375H17.8125C17.295 24.375 16.875 24.795 16.875 25.3125V32.8125C16.875 33.33 17.295 33.75 17.8125 33.75H27.1875C27.705 33.75 28.125 33.33 28.125 32.8125V25.3125C28.125 24.795 27.705 24.375 27.1875 24.375H23.9062Z" fill="black"/>
</svg>
