<svg width="68" height="13" viewBox="0 0 68 13" fill="none" xmlns="http://www.w3.org/2000/svg">
<path d="M66.416 7.29183L1.04167 7.29183C0.416667 7.29183 0 6.87516 0 6.25016C0 5.62516 0.416667 5.2085 1.04167 5.2085L66.416 5.2085C67.041 5.2085 67.4577 5.62516 67.4577 6.25016C67.4577 6.87516 67.041 7.29183 66.416 7.29183Z" fill="black"/>
<path d="M61.2077 12.5C60.8952 12.5 60.6868 12.3958 60.4785 12.1875C60.0618 11.7708 60.0618 11.1458 60.4785 10.7292L64.9577 6.25L60.4785 1.77083C60.0618 1.35417 60.0618 0.729167 60.4785 0.3125C60.8952 -0.104167 61.5202 -0.104167 61.9368 0.3125L67.1452 5.52083C67.5619 5.9375 67.5619 6.5625 67.1452 6.97917L61.9368 12.1875C61.7285 12.3958 61.5202 12.5 61.2077 12.5Z" fill="black"/>
</svg>
