<svg width="68" height="13" viewBox="0 0 68 13" fill="none" xmlns="http://www.w3.org/2000/svg">
<path d="M66.416 7.54183L1.04167 7.54183C0.416667 7.54183 0 7.12516 0 6.50016C0 5.87516 0.416667 5.4585 1.04167 5.4585L66.416 5.4585C67.041 5.4585 67.4577 5.87516 67.4577 6.50016C67.4577 7.12516 67.041 7.54183 66.416 7.54183Z" fill="white"/>
<path d="M61.2077 12.75C60.8952 12.75 60.6868 12.6458 60.4785 12.4375C60.0618 12.0208 60.0618 11.3958 60.4785 10.9792L64.9577 6.5L60.4785 2.02083C60.0618 1.60417 60.0618 0.979167 60.4785 0.5625C60.8952 0.145833 61.5202 0.145833 61.9368 0.5625L67.1452 5.77083C67.5619 6.1875 67.5619 6.8125 67.1452 7.22917L61.9368 12.4375C61.7285 12.6458 61.5202 12.75 61.2077 12.75Z" fill="white"/>
</svg>
