<svg width="72" height="47" viewBox="0 0 72 47" fill="none" xmlns="http://www.w3.org/2000/svg">
<path d="M66.2848 41.477C66.2849 42.5692 65.9612 43.637 65.3545 44.5452C64.7478 45.4534 63.8854 46.1614 62.8764 46.5795C61.8673 46.9976 60.757 47.1071 59.6857 46.8941C58.6144 46.6811 57.6304 46.1552 56.858 45.383C56.0856 44.6107 55.5596 43.6267 55.3464 42.5555C55.1333 41.4843 55.2426 40.3739 55.6605 39.3648C56.0785 38.3556 56.7863 37.4931 57.6944 36.8863C58.6026 36.2795 59.6703 35.9556 60.7625 35.9556C62.2264 35.9572 63.63 36.5394 64.6652 37.5745C65.7005 38.6096 66.2829 40.013 66.2848 41.477Z" fill="black"/>
<path d="M44.3336 41.477C44.3338 42.5692 44.01 43.637 43.4033 44.5452C42.7967 45.4534 41.9343 46.1614 40.9252 46.5795C39.9162 46.9976 38.8058 47.1071 37.7345 46.8941C36.6632 46.6811 35.6792 46.1552 34.9068 45.383C34.1344 44.6107 33.6084 43.6267 33.3952 42.5555C33.1821 41.4843 33.2914 40.3739 33.7093 39.3648C34.1273 38.3556 34.8351 37.4931 35.7432 36.8863C36.6514 36.2795 37.7191 35.9556 38.8113 35.9556C40.2753 35.9572 41.6788 36.5394 42.7141 37.5745C43.7493 38.6096 44.3317 40.013 44.3336 41.477Z" fill="black"/>
<path d="M20.5723 30.1575H29.1368V37.1369H20.5723V30.1575Z" fill="black"/>
<path d="M20.5737 45.2583H3.13907C2.56191 45.2583 2.00839 45.029 1.60028 44.6209C1.19217 44.2128 0.962891 43.6593 0.962891 43.0821C0.962891 42.505 1.19217 41.9515 1.60028 41.5434C2.00839 41.1352 2.56191 40.906 3.13907 40.906H18.3975V7.55826C18.3975 6.9811 18.6268 6.42758 19.0349 6.01947C19.443 5.61135 19.9966 5.38208 20.5737 5.38208C21.1509 5.38208 21.7044 5.61135 22.1125 6.01947C22.5206 6.42758 22.7499 6.9811 22.7499 7.55826V43.0821C22.7499 43.6593 22.5206 44.2128 22.1125 44.6209C21.7044 45.029 21.1509 45.2583 20.5737 45.2583Z" fill="black"/>
<path d="M66.1571 17.6826H52.0337L48.2724 26.1802C48.2046 26.3354 48.093 26.4676 47.9512 26.5604C47.8094 26.6531 47.6436 26.7025 47.4742 26.7024H28.5371V30.3306C28.5585 30.4065 28.5694 30.485 28.5693 30.5638V36.725C28.5694 36.8039 28.5585 36.8824 28.5371 36.9583V40.6038H31.6003C31.8129 38.8409 32.6639 37.2168 33.9926 36.0387C35.3213 34.8606 37.0355 34.2101 38.8113 34.2101C40.587 34.2101 42.3013 34.8606 43.6299 36.0387C44.9586 37.2168 45.8097 38.8409 46.0222 40.6038H53.5501C53.7626 38.8409 54.6137 37.2168 55.9424 36.0387C57.2711 34.8606 58.9853 34.2101 60.761 34.2101C62.5368 34.2101 64.251 34.8606 65.5797 36.0387C66.9084 37.2168 67.7595 38.8409 67.972 40.6038H71.0352V24.2651C71.0352 20.6361 68.8469 17.6826 66.1571 17.6826ZM65.2866 29.5001H55.2762C55.0454 29.5001 54.8239 29.4084 54.6607 29.2452C54.4975 29.0819 54.4057 28.8605 54.4057 28.6297C54.4057 28.3988 54.4975 28.1774 54.6607 28.0141C54.8239 27.8509 55.0454 27.7592 55.2762 27.7592H65.2866C65.5175 27.7592 65.7389 27.8509 65.9021 28.0141C66.0654 28.1774 66.1571 28.3988 66.1571 28.6297C66.1571 28.8605 66.0654 29.0819 65.9021 29.2452C65.7389 29.4084 65.5175 29.5001 65.2866 29.5001ZM65.2866 24.1903H55.2762C55.0454 24.1903 54.8239 24.0985 54.6607 23.9353C54.4975 23.7721 54.4057 23.5506 54.4057 23.3198C54.4057 23.0889 54.4975 22.8675 54.6607 22.7043C54.8239 22.541 55.0454 22.4493 55.2762 22.4493H65.2866C65.5175 22.4493 65.7389 22.541 65.9021 22.7043C66.0654 22.8675 66.1571 23.0889 66.1571 23.3198C66.1571 23.5506 66.0654 23.7721 65.9021 23.9353C65.7389 24.0985 65.5175 24.1903 65.2866 24.1903Z" fill="black"/>
<path d="M39.1751 24.9617H28.5371L31.5385 16.5391C33.45 17.1286 35.1677 18.2217 36.5113 19.7036C37.8549 21.1856 38.7751 23.0018 39.1751 24.9617Z" fill="black"/>
<path d="M53.7784 20.0086C53.3167 20.0086 52.8739 19.8251 52.5474 19.4987C52.2209 19.1722 52.0375 18.7294 52.0375 18.2676V4.3166H39.5897L34.8204 17.7105C34.6654 18.1455 34.344 18.501 33.9268 18.699C33.5096 18.8969 33.0309 18.921 32.596 18.766C32.161 18.6109 31.8055 18.2895 31.6075 17.8723C31.4096 17.4551 31.3855 16.9764 31.5405 16.5415L36.725 1.9907C36.8457 1.65237 37.0681 1.35965 37.3617 1.1527C37.6553 0.945737 38.0058 0.834667 38.365 0.834717H53.7784C54.2401 0.834717 54.683 1.01814 55.0094 1.34463C55.3359 1.67112 55.5194 2.11393 55.5194 2.57566V18.2676C55.5194 18.7294 55.3359 19.1722 55.0094 19.4987C54.683 19.8251 54.2401 20.0086 53.7784 20.0086Z" fill="black"/>
<path d="M43.6706 18.0595C43.4991 18.0596 43.3293 18.0259 43.1708 17.9603C43.0123 17.8947 42.8683 17.7986 42.747 17.6774L39.2382 14.1676C38.9932 13.9228 38.8556 13.5907 38.8555 13.2444C38.8554 12.898 38.9929 12.5659 39.2377 12.3209C39.4825 12.076 39.8147 11.9383 40.161 11.9382C40.5073 11.9382 40.8395 12.0756 41.0844 12.3205L44.5942 15.8302C44.7766 16.0129 44.9008 16.2455 44.951 16.4987C45.0013 16.7519 44.9754 17.0144 44.8765 17.2528C44.7777 17.4913 44.6104 17.6951 44.3957 17.8386C44.1811 17.982 43.9287 18.0586 43.6706 18.0586V18.0595Z" fill="black"/>
<path d="M35.5476 22.6738C35.2895 22.6738 35.0371 22.5972 34.8225 22.4538C34.6078 22.3103 34.4405 22.1065 34.3417 21.868C34.2428 21.6296 34.2169 21.3671 34.2672 21.1139C34.3174 20.8607 34.4416 20.6281 34.624 20.4454L40.9437 14.1258C41.1899 13.888 41.5197 13.7564 41.8621 13.7593C42.2044 13.7623 42.5319 13.8996 42.774 14.1417C43.0161 14.3838 43.1534 14.7113 43.1564 15.0536C43.1594 15.396 43.0278 15.7258 42.7899 15.9721L36.4703 22.2917C36.3493 22.4131 36.2055 22.5093 36.0471 22.5749C35.8888 22.6405 35.719 22.6741 35.5476 22.6738Z" fill="black"/>
</svg>
