<svg width="35" height="51" viewBox="0 0 35 51" fill="none" xmlns="http://www.w3.org/2000/svg">
<rect x="1" y="46" width="34" height="5" rx="2.5" fill="black"/>
<path fill-rule="evenodd" clip-rule="evenodd" d="M28.7846 35.0882C27.7603 35.0882 26.8315 34.5012 26.436 33.6096C25.3984 31.2706 28.2501 28.9378 30.3667 30.7371L30.6662 31.0504C30.6746 31.0607 30.6986 31.0915 30.7065 31.1022C31.9857 32.8205 30.6379 35.0882 28.7846 35.0882ZM29.0562 45.1386H27.8144C26.855 45.1388 26.0469 44.9149 25.6243 44.0284C25.406 43.5705 25.3904 43.2882 25.3904 42.635C25.3905 42.069 25.3017 39.663 25.4343 39.3199H9.38912L9.47192 43.2371C9.364 44.2518 8.55872 45.1386 7.4496 45.1386H5.92794C5.60107 45.117 5.29921 45.0673 5.06875 44.9625C4.78561 44.8337 4.57983 44.6814 4.39476 44.4536L3.93949 43.6727C3.81153 43.2402 3.87905 40.0159 3.87905 39.3199C3.32914 39.3199 3.11307 39.2761 2.64816 39.1052C2.51998 39.058 2.40908 39.019 2.29152 38.9671C2.14652 38.903 2.09239 38.8539 1.99066 38.7936C1.59804 38.5607 1.39802 38.4009 1.09495 38.0558C1.08909 38.0492 1.08045 38.0393 1.07437 38.0328C0.441214 37.3625 0 36.4996 0 35.529V29.5341C0 28.1772 0.856191 27.0021 1.95402 26.3241C2.19345 26.1762 2.82405 25.8831 3.17384 25.8753L5.31637 16.8282C5.56697 16.107 6.13792 15.4108 6.78767 15.0748C6.87036 15.0321 6.96932 14.9801 7.05411 14.9433L7.347 14.8378C7.61243 14.7492 7.68925 14.7482 8.0024 14.7032C8.61031 14.6161 16.4881 14.6788 17.5035 14.6788C18.0256 14.6788 26.4495 14.6159 27.0854 14.7101L27.1613 14.7202C27.914 14.7981 28.26 15.0012 28.848 15.4627C28.8553 15.4685 28.866 15.476 28.8733 15.4815C28.8834 15.4893 28.9137 15.51 28.9237 15.5176L28.9723 15.5543C29.1697 15.7163 29.5436 16.2805 29.6523 16.5091C29.8097 16.8398 29.8566 17.0381 29.9343 17.4079L31.2277 23.2556C31.331 23.7361 31.4263 24.1534 31.514 24.5584C31.5831 24.8779 31.7821 25.6343 31.7821 25.9192C32.1525 25.7812 33.1227 26.3466 33.4702 26.621C34.4148 27.3666 35 28.4669 35 29.7542V35.3526C35 35.9685 34.8275 36.5431 34.6469 36.9459C34.5316 37.2029 34.2826 37.6135 34.0858 37.8327C33.3125 38.6932 32.4403 39.3199 30.9887 39.3199V43.2872C30.9887 43.7493 30.7025 44.1861 30.4867 44.4603C30.2652 44.7416 29.8031 44.995 29.4394 45.0842C29.3271 45.1119 29.1967 45.1287 29.0562 45.1386ZM6.25945 35.0882C5.89694 35.0882 5.51174 34.9848 5.24929 34.8678L4.9895 34.733C4.34661 34.3099 3.79094 33.5746 3.79094 32.7518C3.79094 31.943 4.01033 31.2753 4.54053 30.8125C5.23578 30.2057 5.93757 29.965 6.89194 30.1851C7.11554 30.2367 7.34223 30.3502 7.54335 30.461L7.72799 30.5848C8.12239 30.8919 8.31886 31.1075 8.55165 31.6076C8.95888 32.4823 8.75376 33.4651 8.18116 34.1956L7.87931 34.4971C7.81854 34.5446 7.75965 34.5834 7.69567 34.6291C7.30051 34.9114 6.80616 35.0882 6.25945 35.0882ZM12.2985 30.636C12.2985 29.7646 12.3818 30.0441 14.3065 29.7791C14.9668 29.6882 15.6371 29.6709 16.2337 29.5902C16.546 29.5479 17.9627 29.5114 18.2399 29.5526C18.4998 29.5913 18.9684 29.6111 19.2269 29.6225C19.9623 29.6548 21.3117 29.8464 22.046 29.927C22.921 30.023 22.7897 30.0736 22.7897 31.3053C22.7897 32.0302 22.8518 35.0291 22.7456 35.4849C22.2444 35.6017 15.9784 35.529 14.9089 35.529L12.4503 35.5176C12.2285 35.4287 12.3017 34.8929 12.3258 34.721C12.3496 34.5498 12.2709 34.371 12.332 33.8016C12.3535 33.6009 12.2643 33.5504 12.332 32.9201C12.3505 32.7463 12.2993 32.6499 12.2958 32.4436C12.2921 32.2332 12.3284 32.1356 12.3364 32.0009C12.3448 31.8567 12.299 31.7491 12.2958 31.5619C12.2921 31.3516 12.3284 31.2541 12.3364 31.1193C12.3447 30.9768 12.2985 30.8325 12.2985 30.636ZM8.33126 18.029H26.6687C26.6928 18.3176 26.7997 18.6343 26.8637 18.9396L27.9293 23.4777C28.0027 23.7627 28.0643 24.0325 28.1408 24.3611L28.3438 25.3022H7.27681C6.378 25.3023 6.60393 25.5269 6.8656 24.2841C7.28611 22.287 7.85894 20.0561 8.33126 18.029Z" fill="black"/>
<path fill-rule="evenodd" clip-rule="evenodd" d="M15.1638 3.17384L14.6582 3.20406C14.0275 3.3401 13.8811 3.74268 13.8848 4.31916C13.89 5.12897 13.8873 5.94133 13.8853 6.75126C13.8834 7.53295 14.0933 7.87765 14.7399 8.32329C15.2397 8.66776 15.9026 8.8463 16.5302 8.99252V13.2242H18.1171V9.03658C18.2692 9.00116 18.4827 8.98433 18.6221 8.96186C19.6062 8.80324 20.9563 8.21326 20.9841 7.05411C21.0031 6.25857 20.9823 5.43282 20.9823 4.63374C20.9824 3.67416 20.9195 3.17384 19.7481 3.17384C19.7481 2.63311 19.8222 0.630493 19.6488 0.2775L19.3656 0.0336505C19.3277 0.0199248 19.286 0.0085232 19.2419 0H18.9205C18.6625 0.0541278 18.4257 0.25647 18.4257 0.749376V3.17384H16.42C16.4342 2.78089 16.4874 0.766976 16.4008 0.444866C16.362 0.300304 16.3188 0.189169 16.206 0.10914C16.1318 0.0564508 16.0306 0.018264 15.9203 0H15.6297C15.396 0.0406235 15.1882 0.186291 15.1645 0.485489C15.1545 0.613226 15.1308 0.872465 15.1309 0.932349L15.166 1.36581C15.1651 1.54181 15.1309 1.72047 15.1309 1.814L15.1567 1.99365C15.1982 2.32738 15.1124 2.39258 15.1619 2.91449C15.1692 2.99208 15.1638 3.09381 15.1638 3.17384Z" fill="black"/>
</svg>
