<svg width="39" height="51" viewBox="0 0 39 51" fill="none" xmlns="http://www.w3.org/2000/svg">
<path d="M38.6933 41.2529C37.5642 37.8924 33.0639 35.7888 29.8553 34.3788C28.5983 33.8283 25.1184 32.8942 24.7002 31.3115C24.5505 30.7413 24.5707 30.2037 24.6934 29.6885C24.5 29.7255 24.3038 29.7473 24.1008 29.7473H22.0102C20.3412 29.7473 18.985 28.3894 18.985 26.7215C18.985 25.0547 20.3417 23.6996 22.0102 23.6996H24.1008C24.7916 23.6996 25.4464 23.9334 25.9745 24.3506C26.7488 24.2474 27.4956 24.082 28.1919 23.865C29.1063 21.9493 29.8194 19.6585 29.9792 17.6867C30.6615 9.25015 25.4896 4.31423 18.0739 5.16753C12.6822 5.78817 9.46129 9.80855 9.11313 14.9844C8.76105 20.2601 10.7171 24.1566 12.7949 27.0147C13.7048 28.2644 14.6607 29.0678 14.5138 30.5737C14.3434 32.3543 12.4394 32.8505 11.0776 33.3977C9.4641 34.0458 7.7261 35.0292 6.90531 35.4838C4.07798 37.0452 0.974813 38.9256 0.277371 41.4979C-1.26721 47.1985 3.94903 48.9253 8.25535 49.7225C11.9511 50.4043 16.1184 50.4581 19.5462 50.4581C25.7463 50.4581 36.8953 50.2097 38.6933 45.5491C39.2046 44.2265 38.9854 42.1191 38.6933 41.2529Z" fill="black"/>
<path d="M25.4238 25.8698C25.1401 25.4376 24.6552 25.1505 24.1018 25.1505H22.0112C21.1388 25.1505 20.4352 25.8553 20.4352 26.7231C20.4352 27.5944 21.1388 28.3002 22.0112 28.3002H24.1018C24.7123 28.3002 25.2304 27.9521 25.4916 27.4486C28.4064 27.2193 30.9417 26.329 32.7212 25.0143C33.1299 25.2778 33.6131 25.432 34.1345 25.432H34.2657C35.7189 25.432 36.894 24.2557 36.894 22.8009V17.5487C36.894 16.5026 36.2807 15.5999 35.396 15.1806C35.0103 6.7468 28.0286 0 19.5 0C10.9715 0 3.98867 6.7468 3.60463 15.1806C2.71825 15.6005 2.10547 16.5026 2.10547 17.5487V22.8009C2.10547 24.2557 3.2817 25.432 4.73153 25.432H4.8644C6.31535 25.432 7.49214 24.2557 7.49214 22.8009V17.5487C7.49214 16.5177 6.89618 15.6285 6.02998 15.1985C6.40505 8.09235 12.3019 2.42815 19.5 2.42815C26.6953 2.42815 32.595 8.09235 32.9684 15.1985C32.1033 15.6291 31.5079 16.5177 31.5079 17.5487V22.8009C31.5079 23.1496 31.5758 23.4742 31.6952 23.7775C30.1635 24.8736 27.9338 25.6545 25.4238 25.8698Z" fill="black"/>
</svg>
