<svg width="66" height="40" viewBox="0 0 66 40" fill="none" xmlns="http://www.w3.org/2000/svg">
<path d="M64.857 32.9948H59.3503L56.0508 25.0305L61.5916 25.0305C61.9997 25.0289 62.3774 25.246 62.5815 25.5994L65.8468 31.2882C66.0505 31.6409 66.05 32.0756 65.8457 32.4279C65.6414 32.7802 65.2643 32.9964 64.857 32.9948Z" fill="black"/>
<path d="M9.94847 25.0305L6.649 32.9948H1.14228C0.734992 32.9964 0.357906 32.7802 0.153561 32.4279C-0.0507838 32.0756 -0.0512133 31.6409 0.152435 31.2882L3.41778 25.5994C3.62183 25.246 3.99953 25.0289 4.40763 25.0305L9.94847 25.0305Z" fill="black"/>
<path d="M46.5631 32.9948H19.4277L21.635 25.0305H44.3559L44.5265 25.6335L46.5631 32.9948Z" fill="black"/>
<path d="M57.0263 19.3416H53.6813L51.3262 13.6528L55.0694 13.6528C55.4775 13.6512 55.8552 13.8683 56.0592 14.2217L58.0162 17.635C58.2198 17.9877 58.2194 18.4224 58.015 18.7747C57.8107 19.127 57.4336 19.3432 57.0263 19.3416Z" fill="black"/>
<path d="M14.6705 13.6528L12.304 19.3416H8.9704C8.56312 19.3432 8.18603 19.127 7.98169 18.7747C7.77734 18.4224 7.77691 17.9877 7.98056 17.635L9.93749 14.2217C10.1415 13.8683 10.5192 13.6512 10.9273 13.6528L14.6705 13.6528Z" fill="black"/>
<path d="M42.7842 19.3416H23.2148L24.7849 13.6528H41.2141L42.7842 19.3416Z" fill="black"/>
<path d="M56.3224 39.8213H52.5473C51.524 39.8215 50.6265 39.1385 50.3538 38.1522L48.927 32.9948L46.7198 25.0306L40.2005 1.44496C40.1045 1.1027 40.174 0.735249 40.3883 0.451685C40.6027 0.16812 40.9372 0.0010307 41.2927 1.43719e-05H42.4305C42.8939 -0.00230681 43.3125 0.276722 43.4886 0.70542L53.5804 25.0306L56.8913 32.9948L58.4181 36.6732C58.7093 37.3744 58.6316 38.1747 58.2108 38.8068C57.79 39.4388 57.0817 39.8194 56.3224 39.8213Z" fill="black"/>
<path d="M25.7979 1.44496L19.2786 25.0306L17.0714 32.9948L15.6446 38.1522C15.3719 39.1385 14.4744 39.8215 13.451 39.8213H9.68167C8.92135 39.8213 8.21128 39.4415 7.78917 38.8091C7.36705 38.1768 7.28866 37.3753 7.58024 36.6732L9.10711 32.9948L12.418 25.0306L22.5098 0.70542C22.6859 0.276722 23.1045 -0.00230681 23.5679 1.43719e-05H24.7057C25.0611 0.0010307 25.3957 0.16812 25.6101 0.451685C25.8244 0.735249 25.8939 1.1027 25.7979 1.44496Z" fill="black"/>
<path d="M51.1685 9.1018H49.4391L47.5391 4.55078L49.8601 4.55079C50.2682 4.54917 50.6459 4.76624 50.8499 5.11967L52.1583 7.39517C52.362 7.74789 52.3616 8.18257 52.1572 8.53488C51.9529 8.8872 51.5758 9.10342 51.1685 9.1018Z" fill="black"/>
<path d="M18.4478 4.55078L16.5592 9.1018H14.8298C14.4225 9.10342 14.0454 8.8872 13.8411 8.53488C13.6367 8.18257 13.6363 7.74789 13.8399 7.39517L15.1483 5.11967C15.3524 4.76624 15.7301 4.54917 16.1382 4.55079L18.4478 4.55078Z" fill="black"/>
<path d="M39.9482 9.10228H26.0449L27.2964 4.55127H38.6967L39.9482 9.10228Z" fill="black"/>
</svg>
