<svg width="48" height="48" viewBox="0 0 48 48" fill="none" xmlns="http://www.w3.org/2000/svg">
<g clip-path="url(#clip0_242_4444)">
<path d="M17.7587 20.0644L20.6149 18.8372C19.9276 18.1888 19.4305 17.3439 19.2164 16.394L10.6738 20.0644H17.7587Z" fill="black"/>
<path d="M28.7209 16.3831C28.509 17.3336 28.0138 18.1795 27.3281 18.8294L30.2182 20.0644H37.3357L28.7209 16.3831Z" fill="black"/>
<path d="M32.6958 0.0437012H15.1406V5.24438C15.1406 5.58329 15.4154 5.85804 15.7543 5.85804H32.0522C32.4076 5.85804 32.6958 5.5699 32.6958 5.2145V0.0437012Z" fill="black"/>
<path d="M21.9102 15.3397C21.9102 16.4615 22.8331 17.3741 23.9674 17.3741C25.1018 17.3741 26.0248 16.4615 26.0248 15.3397C26.0248 14.218 25.1018 13.3054 23.9674 13.3054C22.8331 13.3054 21.9102 14.218 21.9102 15.3397Z" fill="black"/>
<path d="M23.9676 10.5112C24.456 10.5112 24.9276 10.5837 25.3727 10.7172V8.65259H22.5625V10.7171C23.0076 10.5837 23.4792 10.5112 23.9676 10.5112Z" fill="black"/>
<path d="M46.7749 22.8589H1.22507C0.53647 22.9318 0 23.5109 0 24.215V46.5921C0 47.3455 0.61422 47.9563 1.37185 47.9563H46.628C47.3857 47.9563 48 47.3455 48 46.5921V24.215C48 23.5109 47.4635 22.9318 46.7749 22.8589ZM10.0121 40.9884C10.0121 41.7601 9.38294 42.3857 8.60694 42.3857C7.83095 42.3857 7.20184 41.7601 7.20184 40.9884V30.0728C7.20184 29.3011 7.83095 28.6756 8.60694 28.6756C9.38294 28.6756 10.0121 29.3011 10.0121 30.0728V40.9884ZM17.7185 40.9506C17.7185 41.7223 17.0894 42.3478 16.3134 42.3478C15.5374 42.3478 14.9083 41.7223 14.9083 40.9506V30.035C14.9083 29.2633 15.5374 28.6377 16.3134 28.6377C17.0894 28.6377 17.7185 29.2633 17.7185 30.035V40.9506ZM25.4251 40.7216C25.4251 41.4932 24.7959 42.1188 24.02 42.1188C23.244 42.1188 22.6148 41.4932 22.6148 40.7216V29.8059C22.6148 29.0342 23.244 28.4087 24.02 28.4087C24.7959 28.4087 25.4251 29.0342 25.4251 29.8059V40.7216ZM33.1316 40.8743C33.1316 41.6459 32.5025 42.2715 31.7265 42.2715C30.9505 42.2715 30.3214 41.6459 30.3214 40.8743V29.9586C30.3214 29.1869 30.9505 28.5614 31.7265 28.5614C32.5025 28.5614 33.1316 29.1869 33.1316 29.9586V40.8743ZM40.8382 40.7866C40.8382 41.5583 40.209 42.1838 39.4331 42.1838C38.6571 42.1838 38.0279 41.5583 38.0279 40.7866V29.8708C38.0279 29.0992 38.6571 28.4736 39.4331 28.4736C40.209 28.4736 40.8382 29.0992 40.8382 29.8708V40.7866Z" fill="black"/>
</g>
<defs>
<clipPath id="clip0_242_4444">
<rect width="48" height="48" fill="white"/>
</clipPath>
</defs>
</svg>
