<svg width="46" height="46" viewBox="0 0 46 46" fill="none" xmlns="http://www.w3.org/2000/svg">
<path d="M2.46993 36.5794C2.72725 37.9583 3.93079 38.958 5.33343 38.958H40.6682C42.0709 38.958 43.2744 37.9583 43.5317 36.5794L43.9235 34.4797H2.07812L2.46993 36.5794Z" fill="black"/>
<path d="M0 23.3479L1.57433 31.7845H44.4257L46 23.3479H0Z" fill="black"/>
<path d="M8.66135 13.5967C4.76446 13.5967 1.60547 16.7557 1.60547 20.6526H15.7172C15.7171 16.7558 12.5581 13.5967 8.66135 13.5967Z" fill="black"/>
<path d="M22.7727 13.5967C18.8758 13.5967 15.7168 16.7557 15.7168 20.6526H29.8286C29.8286 16.7558 26.6696 13.5967 22.7727 13.5967Z" fill="black"/>
<path d="M32.5255 20.6525H42.1423C43.9701 18.9612 45.3739 16.2031 45.3739 11.7195C41.0016 11.7195 38.2708 13.0546 36.5694 14.8158C36.4388 12.5124 35.3711 9.86773 32.5456 7.04224C30.4375 9.15033 29.3085 11.1576 28.8164 12.9978C29.1129 13.2327 29.398 13.4858 29.6695 13.7573C31.5113 15.5991 32.5255 18.0478 32.5255 20.6525Z" fill="black"/>
</svg>
