<svg width="27" height="27" viewBox="0 0 27 27" fill="none" xmlns="http://www.w3.org/2000/svg">
<path d="M17.82 13.5C17.82 14.3544 17.5666 15.1896 17.0919 15.9001C16.6173 16.6105 15.9426 17.1642 15.1532 17.4912C14.3638 17.8181 13.4952 17.9037 12.6572 17.737C11.8192 17.5703 11.0495 17.1589 10.4453 16.5547C9.84114 15.9505 9.4297 15.1808 9.26301 14.3428C9.09632 13.5048 9.18187 12.6362 9.50884 11.8468C9.83581 11.0574 10.3895 10.3827 11.0999 9.90805C11.8104 9.43336 12.6456 9.18 13.5 9.18C14.6453 9.18131 15.7434 9.63687 16.5533 10.4467C17.3631 11.2566 17.8187 12.3547 17.82 13.5ZM27 7.56V19.44C26.9977 21.4443 26.2005 23.3659 24.7832 24.7832C23.3659 26.2005 21.4443 26.9977 19.44 27H7.56C5.55566 26.9977 3.63406 26.2005 2.21678 24.7832C0.799497 23.3659 0.00226999 21.4443 0 19.44V7.56C0.00226999 5.55566 0.799497 3.63406 2.21678 2.21678C3.63406 0.799497 5.55566 0.00226999 7.56 0H19.44C21.4443 0.00226999 23.3659 0.799497 24.7832 2.21678C26.2005 3.63406 26.9977 5.55566 27 7.56ZM19.98 13.5C19.98 12.2184 19.6 10.9655 18.8879 9.89991C18.1759 8.83427 17.1639 8.00372 15.9798 7.51326C14.7957 7.02281 13.4928 6.89448 12.2358 7.14451C10.9788 7.39454 9.82419 8.0117 8.91795 8.91795C8.0117 9.82419 7.39454 10.9788 7.14451 12.2358C6.89448 13.4928 7.02281 14.7957 7.51326 15.9798C8.00372 17.1639 8.83427 18.1759 9.89991 18.8879C10.9655 19.6 12.2184 19.98 13.5 19.98C15.218 19.9781 16.8651 19.2947 18.0799 18.0799C19.2947 16.8651 19.9781 15.218 19.98 13.5ZM22.14 6.48C22.14 6.15959 22.045 5.84638 21.867 5.57998C21.689 5.31357 21.436 5.10593 21.1399 4.98331C20.8439 4.8607 20.5182 4.82862 20.204 4.89113C19.8897 4.95364 19.601 5.10793 19.3745 5.33449C19.1479 5.56105 18.9936 5.8497 18.9311 6.16395C18.8686 6.4782 18.9007 6.80393 19.0233 7.09995C19.1459 7.39596 19.3536 7.64897 19.62 7.82698C19.8864 8.00499 20.1996 8.1 20.52 8.1C20.9497 8.1 21.3617 7.92932 21.6655 7.62551C21.9693 7.3217 22.14 6.90965 22.14 6.48Z" fill="#854FCE"/>
</svg>
