<svg width="27" height="27" viewBox="0 0 27 27" fill="none" xmlns="http://www.w3.org/2000/svg">
<path d="M13.4965 0C6.05281 0 0 6.05124 0 13.493C0 16.309 0.859694 19.0062 2.49521 21.3051L2.62102 21.4798L1.10432 25.9938L5.40978 24.3028L5.59151 24.4356C7.90499 26.1126 10.6378 27 13.5035 27C20.9472 27 27 20.9488 27 13.507C27 6.06522 20.9402 0 13.4965 0ZM10.4631 9.89441C10.3792 10.125 10.1067 10.4045 9.84105 10.677C9.40072 11.1312 8.89749 11.6413 8.93244 12.2702C8.93942 12.4099 8.96039 12.7873 10.4491 14.3106C11.3787 15.2609 12.4132 16.1693 13.2938 16.7981C14.7686 17.8533 15.3906 17.8533 15.7331 17.7554C16.3552 17.5807 16.6767 17.0637 16.9632 16.6095C17.2288 16.1832 17.4036 15.9247 17.6762 15.8758C18.3471 15.757 20.6606 16.6654 21.4085 17.462C21.4434 17.5039 21.4644 17.5528 21.4504 17.6087C21.3526 18.2585 20.9821 19.8447 19.724 20.5994C18.8294 21.1374 17.6272 21.1444 16.1525 20.6203C10.6099 18.6568 6.90551 15.2539 5.72431 11.0334C5.08827 8.76941 5.78022 7.51863 6.47217 6.86879C7.13616 6.24689 7.905 6.06522 8.21952 6.06522C8.26844 6.06522 8.31038 6.0722 8.33135 6.07919C8.50608 6.14907 9.05125 6.75699 9.66632 7.85404C10.2674 8.93711 10.4981 9.71972 10.4631 9.89441Z" fill="#854FCE"/>
</svg>
