<svg width="41" height="45" viewBox="0 0 41 45" fill="none" xmlns="http://www.w3.org/2000/svg">
<path d="M40.2754 35.7715V3.95508C40.2754 1.77073 38.5047 0 36.3203 0H4.67969C2.49534 0 0.724609 1.77073 0.724609 3.95508V35.7715C0.724609 37.9558 2.49534 39.7266 4.67969 39.7266H36.3203C38.5047 39.7266 40.2754 37.9558 40.2754 35.7715ZM29.3422 21.5679C29.8572 22.0829 29.8572 22.9172 29.3422 23.4322C28.8273 23.9471 27.9929 23.9471 27.478 23.4322L25.2275 21.1816H21.8184V24.5908L24.0688 26.8413C24.5838 27.3562 24.5838 28.1906 24.0688 28.7055C23.5538 29.2205 22.7195 29.2205 22.2046 28.7055L20.5 27.001L18.7954 28.7056C18.2804 29.2206 17.4461 29.2206 16.9311 28.7056C16.4162 28.1907 16.4162 27.3563 16.9311 26.8414L19.1816 24.5908V21.1816H15.7725L13.522 23.4321C13.0071 23.947 12.1727 23.947 11.6578 23.4321C11.1428 22.9171 11.1428 22.0828 11.6578 21.5678L13.3623 19.8633L11.6577 18.1586C11.1427 17.6437 11.1427 16.8093 11.6577 16.2944C12.1726 15.7794 13.007 15.7794 13.5219 16.2944L15.7725 18.5449H19.1816V15.1357L16.9312 12.8853C16.4163 12.3703 16.4163 11.536 16.9312 11.021C17.4462 10.5061 18.2805 10.5061 18.7955 11.021L20.5 12.7256L22.2046 11.021C22.7196 10.506 23.5539 10.506 24.0689 11.021C24.5838 11.5359 24.5838 12.3703 24.0689 12.8852L21.8184 15.1357V18.5449H25.2275L27.478 16.2945C27.9929 15.7795 28.8273 15.7795 29.3422 16.2945C29.8572 16.8094 29.8572 17.6438 29.3422 18.1587L27.6377 19.8633L29.3422 21.5679ZM35.002 19.8633C35.002 20.592 34.4123 21.1816 33.6836 21.1816C32.9549 21.1816 32.3652 20.592 32.3652 19.8633V9.31641C32.3652 8.5877 32.9549 7.99805 33.6836 7.99805C34.4123 7.99805 35.002 8.5877 35.002 9.31641V19.8633Z" fill="black"/>
<path d="M12.5898 45C13.3179 45 13.9082 44.4097 13.9082 43.6816V42.3633H5.99805V43.6816C5.99805 44.4097 6.58832 45 7.31641 45H12.5898Z" fill="black"/>
<path d="M33.6836 45C34.4117 45 35.002 44.4097 35.002 43.6816V42.3633H27.0918V43.6816C27.0918 44.4097 27.6821 45 28.4102 45H33.6836Z" fill="black"/>
</svg>
