<svg class="accordion__toggle-icon" width="14" height="28" viewBox="0 0 14 28" fill="none" xmlns="http://www.w3.org/2000/svg">
<path d="M5.49707 26.8113L5.49707 0.6452C5.49707 0.395043 5.89707 0.228271 6.49707 0.228271C7.09707 0.228271 7.49707 0.395043 7.49707 0.6452L7.49707 26.8113C7.49707 27.0615 7.09707 27.2283 6.49707 27.2283C5.89707 27.2283 5.49707 27.0615 5.49707 26.8113Z" fill="black"/>
<path d="M0.518555 21.4572C0.518555 21.1447 0.622721 20.9364 0.831054 20.728C1.24772 20.3114 1.87272 20.3114 2.28939 20.728L6.76855 25.2072L11.2477 20.728C11.6644 20.3114 12.2894 20.3114 12.7061 20.728C13.1227 21.1447 13.1227 21.7697 12.7061 22.1864L7.49772 27.3947C7.08105 27.8114 6.45606 27.8114 6.03939 27.3947L0.831054 22.1864C0.622721 21.978 0.518555 21.7697 0.518555 21.4572Z" fill="black"/>
</svg>
