<svg width="13" height="28" viewBox="0 0 13 28" fill="none" xmlns="http://www.w3.org/2000/svg">
<path d="M7.5 2.40148L7.5 27.5985C7.5 27.8394 7.1 28 6.5 28C5.9 28 5.5 27.8394 5.5 27.5985L5.5 2.40148C5.5 2.16059 5.9 2 6.5 2C7.1 2 7.5 2.16059 7.5 2.40148Z" fill="black"/>
<path d="M12.5 6C12.5 6.3 12.4 6.5 12.2 6.7C11.8 7.1 11.2 7.1 10.8 6.7L6.5 2.4L2.2 6.7C1.8 7.1 1.2 7.1 0.8 6.7C0.4 6.3 0.4 5.7 0.8 5.3L5.8 0.299999C6.2 -0.100001 6.8 -0.100001 7.2 0.299999L12.2 5.3C12.4 5.5 12.5 5.7 12.5 6Z" fill="black"/>
</svg>
