<svg width="58" height="48" viewBox="0 0 58 48" fill="none" xmlns="http://www.w3.org/2000/svg">
<path fill-rule="evenodd" clip-rule="evenodd" d="M29.334 2.67516V10.7837C29.334 11.4056 29.8268 12.2097 30.3104 12.6165C30.9093 13.1203 31.5796 13.3376 32.3986 13.3376H45.3595C45.7576 13.3376 46.3233 13.2481 46.6207 13.1303C47.6896 12.7068 48.488 11.6391 48.488 10.5283V2.73901C48.488 2.50746 48.3545 2.12381 48.2795 1.926C47.8862 0.889001 46.8855 0.112368 45.7442 0.119715C43.4338 0.0486797 41.1663 0.120765 38.8561 0.0896724C36.4857 0.0577651 34.1681 0.120964 31.8161 0.108241C31.5857 0.144619 31.4106 0.182082 31.24 0.239635C30.9424 0.340098 30.5328 0.589945 30.3096 0.777606C29.8748 1.14299 29.334 1.90558 29.334 2.67516Z" fill="black"/>
<path fill-rule="evenodd" clip-rule="evenodd" d="M0.666016 20.6161V21.063C0.666016 21.8706 1.5737 22.723 2.38988 22.723H56.2765C57.0927 22.723 58.0004 21.8706 58.0004 21.063C58.0004 20.2155 57.8566 19.5701 56.9924 19.1341C56.3308 18.8003 54.0912 18.8894 53.0205 18.8921L8.00898 18.893C7.85871 18.8854 7.72709 18.8977 7.58245 18.9061C6.46239 18.9717 3.94814 18.742 2.66229 18.9092C1.9709 18.9992 1.76364 19.0131 1.29385 19.3924C1.00022 19.6294 0.666016 20.1089 0.666016 20.6161Z" fill="black"/>
<path fill-rule="evenodd" clip-rule="evenodd" d="M14.9677 37.7269H11.073C10.6035 37.7269 9.9096 37.0559 10.4182 36.3059C10.5276 36.1446 10.6103 36.0632 10.8076 35.9922C11.083 35.8931 11.4727 35.9088 11.7037 35.9216L13.1058 35.9196C13.5006 35.9307 15.0291 35.8946 15.2603 35.9604C16.2581 36.2444 16.0967 37.7269 14.9677 37.7269ZM2.51758 34.2154V41.3662C2.51758 41.6708 3.03514 41.5578 3.60297 41.5577H23.587C23.6579 41.2227 23.587 40.1824 23.587 39.5785C23.587 38.709 23.7122 39.2399 23.5964 38.2284C23.5308 37.6558 23.6515 36.658 23.6515 36.3223C23.6515 36.0634 23.587 35.8599 23.587 35.4923V33.96H3.60297C3.22846 33.9599 2.51758 33.8296 2.51758 34.2154Z" fill="black"/>
<path fill-rule="evenodd" clip-rule="evenodd" d="M10.243 27.5117C10.243 26.8919 10.633 26.4901 11.073 26.4901H15.0954C16.1229 26.4901 16.3217 28.3417 14.9677 28.3417H11.073C10.6815 28.3417 10.243 27.9032 10.243 27.5117ZM2.51758 24.7663V31.9171C2.51758 32.2012 2.7001 32.1322 2.89838 32.1176C3.18593 32.0964 3.368 32.1409 3.6301 32.1457C5.54577 32.1811 11.1774 32.1363 13.4997 32.1771C16.2008 32.2245 19.0657 32.2044 21.7993 32.2044C22.4611 32.2044 22.8701 32.1725 23.5231 32.1725C23.6514 31.9052 23.6358 28.8628 23.6069 28.1768C23.5666 27.2196 23.587 26.0592 23.587 25.0855C23.587 24.8188 23.7812 24.5747 23.4593 24.5747H2.70911C2.56199 24.5747 2.51758 24.6191 2.51758 24.7663Z" fill="black"/>
<path fill-rule="evenodd" clip-rule="evenodd" d="M52.2539 45.5803C52.2539 46.0856 53.0302 47.365 54.4849 47.1779C55.0293 47.1079 55.4573 46.8112 55.7316 46.4402C56.0462 46.0147 56.1485 45.5831 56.1485 44.8779V24.7663C56.1485 24.6191 56.1041 24.5747 55.957 24.5747H52.2539V45.5803Z" fill="black"/>
<path fill-rule="evenodd" clip-rule="evenodd" d="M10.1797 5.80358V15.1252C10.1797 17.0841 12.8292 17.9232 13.8711 16.0073C13.9615 15.8411 14.0743 15.4876 14.0743 15.2529V5.6759C14.0743 4.92748 13.3249 3.88818 12.2866 3.88818H11.9674C10.9739 3.88818 10.1797 4.80578 10.1797 5.80358Z" fill="black"/>
<path fill-rule="evenodd" clip-rule="evenodd" d="M4.43359 8.10232V14.9978C4.43359 16.1938 5.16399 16.9372 6.24766 17.0827C7.22326 17.2136 8.32823 16.2704 8.32823 15.317V7.5277C8.32823 6.56876 7.2968 5.73999 6.66823 5.73999C6.03627 5.73999 5.56472 5.76775 5.04477 6.28732L4.8928 6.4546C4.54548 6.85982 4.43359 7.37218 4.43359 8.10232Z" fill="black"/>
<path fill-rule="evenodd" clip-rule="evenodd" d="M15.9258 9.31506V15.4443C15.9258 15.8543 16.3695 16.3879 16.6422 16.6434C17.6124 17.5524 19.8204 17.0568 19.8204 14.9974V9.57044C19.8204 8.58175 19.0206 7.65505 18.0327 7.65505C17.3502 7.65505 17.054 7.6435 16.4824 8.21168C16.2181 8.47439 15.9258 8.99428 15.9258 9.31506Z" fill="black"/>
<path fill-rule="evenodd" clip-rule="evenodd" d="M35.079 16.7852C35.079 16.9924 35.0539 17.1045 35.2706 17.1045H42.5491C43.0312 17.1045 42.5566 15.7346 41.9269 15.1089C41.5134 14.6981 40.8461 14.2314 40.1868 14.2314C38.9857 14.2314 37.5043 14.0698 36.6312 14.5067C35.8512 14.897 35.079 15.8296 35.079 16.7852Z" fill="black"/>
<path fill-rule="evenodd" clip-rule="evenodd" d="M2.51901 43.601C2.51901 44.8797 2.25016 47.0565 4.34685 47.1935C5.13814 47.2452 5.86064 46.8187 6.18172 46.2421C6.54496 45.5899 6.41365 44.335 6.41365 43.4094H2.71055C2.56343 43.4094 2.51901 43.4539 2.51901 43.601Z" fill="black"/>
<path fill-rule="evenodd" clip-rule="evenodd" d="M19.7559 45.4525C19.7559 46.6396 21.3665 47.6855 22.5885 47.0082C22.7211 46.9348 22.7949 46.8673 22.9229 46.768C23.0927 46.6362 23.105 46.6089 23.2326 46.4392C23.4245 46.1839 23.5706 45.988 23.5887 45.5822L23.6015 43.7963C23.6215 43.63 23.7366 43.4094 23.459 43.4094H19.7559V45.4525Z" fill="black"/>
</svg>
