<svg width="20" height="20" viewBox="0 0 20 20" fill="none" xmlns="http://www.w3.org/2000/svg">
<path d="M10 0C4.486 0 0 4.48568 0 10C0 11.9401 0.556315 13.8105 1.6123 15.4349L0.0540365 19.071C-0.0533854 19.321 0.00260417 19.612 0.195312 19.8047C0.322917 19.9323 0.49349 20 0.666667 20C0.755208 20 0.844727 19.9824 0.929362 19.946L4.56543 18.3874C6.18945 19.444 8.0599 20 10 20C15.5143 20 20 15.5143 20 10C20 4.48568 15.5143 0 10 0ZM15.1328 13.5794C15.1328 13.5794 14.3014 14.6458 13.7005 14.8952C12.1732 15.5273 10.0169 14.8952 7.56055 12.4395C5.10482 9.98307 4.47233 7.82682 5.10482 6.29948C5.35417 5.69792 6.42057 4.86719 6.42057 4.86719C6.70964 4.64193 7.15885 4.66992 7.41797 4.92904L8.62435 6.13542C8.88346 6.39453 8.88346 6.81901 8.62435 7.07812L7.86719 7.83464C7.86719 7.83464 7.56055 8.75521 9.40234 10.5977C11.2441 12.4395 12.1654 12.1328 12.1654 12.1328L12.9219 11.3757C13.181 11.1165 13.6055 11.1165 13.8646 11.3757L15.071 12.582C15.3301 12.8411 15.3581 13.2897 15.1328 13.5794Z" fill="#633F94"/>
</svg>
