<svg width="18" height="18" viewBox="0 0 18 18" fill="none" xmlns="http://www.w3.org/2000/svg">
<path d="M17.4249 13.3206C17.607 13.5 17.7515 13.7141 17.8501 13.9501C17.9486 14.1861 17.9991 14.4394 17.9987 14.6952C18.0346 15.6181 17.3009 16.1968 16.7544 16.7476C16.0461 17.4495 15.1173 17.885 14.1252 17.9802C13.1331 18.0755 12.1385 17.8247 11.3098 17.2703C7.10711 14.4616 3.50242 10.8466 0.704298 6.63433C0.162315 5.80849 -0.0784891 4.82077 0.0225195 3.83784C0.123528 2.85491 0.560165 1.93696 1.25875 1.23887L1.93248 0.56444C2.29951 0.202728 2.7939 -4.22604e-06 3.30894 0C3.82399 4.22618e-06 4.31838 0.202745 4.6854 0.564462L6.34876 2.22954C6.71264 2.59561 6.91692 3.09103 6.91692 3.60745C6.91692 4.12387 6.71264 4.61929 6.34876 4.98536C6.09514 5.16584 5.91791 5.43455 5.85174 5.73892C5.78556 6.04329 5.8352 6.36143 5.99095 6.6311C7.35935 8.79853 9.19145 10.6347 11.355 12.0072C11.5828 12.1517 11.8531 12.2138 12.1211 12.1833C12.3891 12.1527 12.6385 12.0314 12.8281 11.8394C13.0018 11.6237 13.2183 11.4466 13.464 11.3192C13.7097 11.1917 13.9792 11.1169 14.2554 11.0993C14.5315 11.0817 14.8083 11.1217 15.0681 11.2169C15.328 11.3121 15.5652 11.4604 15.7648 11.6523L17.4249 13.3206Z" fill="#633F94"/>
</svg>
