<?xml version="1.0" standalone="no"?>
<!DOCTYPE svg PUBLIC "-//W3C//DTD SVG 1.1//EN" "http://www.w3.org/Graphics/SVG/1.1/DTD/svg11.dtd" >
<svg xmlns="http://www.w3.org/2000/svg" xmlns:xlink="http://www.w3.org/1999/xlink" version="1.1">
<metadata>
Created by FontForge 20190801 at Wed Jun  3 06:04:38 2020
 By root
Copyright (c) 2020 by Francesco Canovaro. All rights reserved.
</metadata>
<defs>
<font id="Eastman-Medium" horiz-adv-x="689" >
  <font-face 
    font-family="Eastman Medium"
    font-weight="400"
    font-stretch="normal"
    units-per-em="1000"
    panose-1="0 0 6 0 0 0 0 0 0 0"
    ascent="805"
    descent="-195"
    x-height="547"
    cap-height="700"
    bbox="-823 -233 1480 1123"
    underline-thickness="100"
    underline-position="-300"
    unicode-range="U+0020-F8FF"
  />
<missing-glyph horiz-adv-x="620" 
 />
    <glyph glyph-name=".notdef" horiz-adv-x="620" 
 />
    <glyph glyph-name=".null" horiz-adv-x="0" 
 />
    <glyph glyph-name="nonmarkingreturn" horiz-adv-x="333" 
 />
    <glyph glyph-name="space" unicode=" " horiz-adv-x="320" 
 />
    <glyph glyph-name="exclam" unicode="!" horiz-adv-x="258" 
d="M66 420v281h125v-280l-18 -207h-88zM57 0v126h144v-126h-144z" />
    <glyph glyph-name="quotedbl" unicode="&#x22;" horiz-adv-x="354" 
d="M156 700l-29 -190h-67l6 190h90zM294 700l-29 -190h-67l6 190h90z" />
    <glyph glyph-name="numbersign" unicode="#" horiz-adv-x="755" 
d="M695 502v-93h-124l-40 -143h121v-94h-147l-41 -150h-111l41 150h-130l-41 -150h-111l41 150h-93v94h119l40 143h-114v93h139l43 155h111l-43 -155h130l43 155h111l-43 -155h99zM290 266h130l40 143h-130z" />
    <glyph glyph-name="dollar" unicode="$" horiz-adv-x="648" 
d="M546.5 57.5q-62.5 -54.5 -166.5 -65.5v-61h-98v60q-70 7 -133 33t-111 65l59 99q90 -62 185 -78v188q-111 28 -167.5 77.5t-56.5 132.5q0 86 61.5 138t162.5 63v64h98v-65q108 -11 204 -80l-69 -94q-58 42 -135 55v-192q121 -29 175 -72.5t54 -126.5q0 -86 -62.5 -140.5z
M214.5 458q20.5 -20 67.5 -36v169q-88 -13 -88 -84q0 -29 20.5 -49zM380 109q45 7 69 28.5t24 50.5q0 34 -21.5 53t-71.5 33v-165z" />
    <glyph glyph-name="percent" unicode="%" horiz-adv-x="957" 
d="M75 428.5q-44 47.5 -44 125.5q0 77 44 124t118 47q73 0 117 -47.5t44 -123.5q0 -77 -44 -125t-117 -48q-74 0 -118 47.5zM242 483q18 28 18 71q0 41 -18.5 68.5t-48.5 27.5q-32 0 -50.5 -27t-18.5 -69q0 -44 19 -71.5t50 -27.5t49 28zM326 0h-108l416 700h108zM647 41.5
q-44 47.5 -44 125.5q0 77 44 124t118 47q73 0 117 -47.5t44 -123.5q0 -77 -44 -125t-117 -48q-74 0 -118 47.5zM814 96q18 28 18 71q0 41 -18.5 68.5t-48.5 27.5q-32 0 -50.5 -27t-18.5 -69q0 -44 19 -71.5t50 -27.5t49 28z" />
    <glyph glyph-name="ampersand" unicode="&#x26;" horiz-adv-x="824" 
d="M806 341h-92q-6 -49 -29 -104t-61 -103q62 -33 113 -32l-9 -102q-94 -1 -188 55q-93 -63 -212 -63q-141 0 -204.5 61t-63.5 152q0 161 180 259q-2 20 -2 29q0 98 59.5 158t170.5 60q64 0 102.5 -23t54.5 -56.5t16 -66.5q0 -30 -14 -56.5t-41 -57.5h220v-110zM579.5 265.5
q15.5 37.5 18.5 75.5h-135v110q32 23 44.5 44.5t12.5 43.5t-16 32t-55 10q-52 0 -67.5 -24.5t-15.5 -63.5q0 -69 48 -151t121 -146q29 32 44.5 69.5zM437 133q-52 49 -94.5 108.5t-68.5 117.5q-41 -27 -63.5 -58.5t-22.5 -76.5q0 -50 34.5 -79.5t100.5 -29.5q62 0 114 18z
" />
    <glyph glyph-name="quotesingle" unicode="'" horiz-adv-x="216" 
d="M156 700l-29 -190h-67l6 190h90z" />
    <glyph glyph-name="parenleft" unicode="(" horiz-adv-x="392" 
d="M278 -182q-106 86 -162 203.5t-56 258.5q0 140 56 258t162 204l84 -65q-88 -79 -132.5 -180.5t-44.5 -216.5q0 -116 44.5 -217t132.5 -180z" />
    <glyph glyph-name="parenright" unicode=")" horiz-adv-x="392" 
d="M115 742q106 -86 161.5 -203.5t55.5 -258.5q0 -140 -55.5 -258t-161.5 -204l-84 65q87 79 131.5 180.5t44.5 216.5q0 116 -44.5 217t-131.5 180z" />
    <glyph glyph-name="asterisk" unicode="*" horiz-adv-x="470" 
d="M330 525l-50 -7l36 -35l61 -76l-68 -49l-52 82l-22 45l-22 -45l-53 -82l-69 49l62 76l37 35l-50 7l-94 25l26 80l90 -36l45 -24l-10 51l-4 97h84l-5 -97l-8 -50l43 23l91 36l25 -80z" />
    <glyph glyph-name="plus" unicode="+" horiz-adv-x="517" 
d="M306 376h180v-97h-180v-164h-97v164h-178v97h178v159h97v-159z" />
    <glyph glyph-name="comma" unicode="," horiz-adv-x="258" 
d="M60 -89q29 20 43 40t13 49h-59v126h139q9 -48 9 -85q0 -71 -29.5 -111.5t-85.5 -66.5z" />
    <glyph glyph-name="hyphen" unicode="-" horiz-adv-x="446" 
d="M415 274v-97h-384v97h384z" />
    <glyph glyph-name="period" unicode="." horiz-adv-x="258" 
d="M57 0v126h144v-126h-144z" />
    <glyph glyph-name="slash" unicode="/" horiz-adv-x="604" 
d="M177 -111h-117l367 811h117z" />
    <glyph glyph-name="zero" unicode="0" horiz-adv-x="733" 
d="M204 35q-69 46 -106.5 128.5t-37.5 187.5q0 103 37 185t106.5 128.5t163.5 46.5q93 0 162.5 -46t106.5 -128t37 -187q0 -104 -37 -186t-106.5 -128.5t-163.5 -46.5q-93 0 -162 46zM465 124.5q41 34.5 62 93.5t21 131q0 75 -22.5 134t-63.5 92.5t-96 33.5q-57 0 -98 -34
t-62 -92.5t-21 -131.5q0 -75 22.5 -134.5t63.5 -93t96 -33.5q57 0 98 34.5z" />
    <glyph glyph-name="one" unicode="1" horiz-adv-x="389" 
d="M23 675l169 25h105v-700h-125v594l-134 -20z" />
    <glyph glyph-name="two" unicode="2" horiz-adv-x="639" 
d="M570 102v-102h-513v86q64 47 135 104t122 104q67 63 96 105.5t29 82.5q0 59 -40 94.5t-102 35.5q-48 0 -95.5 -23.5t-84.5 -62.5l-68 78q49 49 119 78t141 29t129 -26.5t92 -76.5t34 -116q0 -61 -33.5 -116t-109.5 -124q-86 -72 -196 -150h345z" />
    <glyph glyph-name="three" unicode="3" horiz-adv-x="649" 
d="M481 400.5q53 -25.5 82.5 -72.5t29.5 -109q0 -68 -36 -120.5t-97.5 -81t-136.5 -28.5q-84 0 -154.5 28.5t-119.5 78.5l57 78q36 -35 98 -59.5t111 -24.5q66 0 108 36.5t42 92.5q0 50 -34 83.5t-90 34.5q-24 2 -50 2q-41 0 -83 -4l-1 65l186 198h-292v102h453l7 -82
l-202 -192q69 0 122 -25.5z" />
    <glyph glyph-name="four" unicode="4" horiz-adv-x="695" 
d="M527 249h108v-90h-108v-159h-117v159h-361l-23 67l346 474h155v-451zM410 606l-247 -357h247v357z" />
    <glyph glyph-name="five" unicode="5" horiz-adv-x="660" 
d="M489 403q52 -28 81.5 -77t29.5 -107q0 -66 -34.5 -118.5t-95.5 -82t-137 -29.5q-83 0 -155 27.5t-117 75.5l56 79q41 -37 94.5 -59t108.5 -22q69 0 112 36t43 93q0 56 -45 88.5t-117 32.5q-34 0 -88 -15.5t-95 -34.5l-33 74l18 336h453v-102h-341l-10 -196q62 29 155 29
q65 0 117 -28z" />
    <glyph glyph-name="six" unicode="6" horiz-adv-x="688" 
d="M191 28q-65 40 -98 112t-33 168q0 201 76.5 302t234.5 101q134 0 226 -77l-62 -84q-29 27 -71 41t-88 14q-169 0 -189 -194l-2 -31q7 18 33 40t66.5 37.5t86.5 15.5q79 0 137 -30t89 -82t31 -116q0 -79 -35.5 -137.5t-98.5 -89t-145 -30.5q-93 0 -158 40zM461 130
q43 40 43 104q0 41 -20 73.5t-54 50.5t-74 18t-75 -18t-56.5 -50.5t-21.5 -74.5q0 -62 39.5 -102.5t110.5 -40.5q65 0 108 40z" />
    <glyph glyph-name="seven" unicode="7" horiz-adv-x="587" 
d="M26 700h512l22 -78l-325 -622h-138l318 598h-389v102z" />
    <glyph glyph-name="eight" unicode="8" horiz-adv-x="690" 
d="M592 303.5q38 -47.5 38 -108.5q0 -60 -36 -107t-100.5 -73t-148.5 -26q-83 0 -148 26t-101 73t-36 107q0 61 38 108.5t101 68.5q-50 21 -80 62t-30 91q0 54 32.5 96.5t90.5 66t133 23.5t133 -23.5t90.5 -66t32.5 -96.5q0 -50 -30 -91t-80 -62q63 -21 101 -68.5z
M254.5 574.5q-33.5 -24.5 -33.5 -68.5t33.5 -68.5t90.5 -24.5t90.5 24.5t33.5 68.5t-33.5 68.5t-90.5 24.5t-90.5 -24.5zM456 129q42 28 42 78t-42 78.5t-111 28.5t-111 -28.5t-42 -78.5t42 -78t111 -28t111 28z" />
    <glyph glyph-name="nine" unicode="9" horiz-adv-x="688" 
d="M496.5 672q65.5 -40 98.5 -112t33 -168q0 -201 -76.5 -302t-234.5 -101q-134 0 -226 77l62 84q29 -27 71 -41t88 -14q169 0 189 194l2 31q-7 -18 -33 -40t-66.5 -37.5t-86.5 -15.5q-79 0 -137 30t-89 82t-31 116q0 79 35.5 137.5t98.5 89t144 30.5q93 0 158.5 -40z
M226.5 570.5q-42.5 -39.5 -42.5 -104.5q0 -41 20 -73.5t54 -50.5t74 -18t75 18t56.5 50.5t21.5 74.5q0 62 -39.5 102.5t-110.5 40.5q-66 0 -108.5 -39.5z" />
    <glyph glyph-name="colon" unicode=":" horiz-adv-x="258" 
d="M201 422h-144v126h144v-126zM57 0v126h144v-126h-144z" />
    <glyph glyph-name="semicolon" unicode=";" horiz-adv-x="260" 
d="M207 422h-144v126h144v-126zM60 -89q29 20 43 40t13 49h-59v126h139q9 -48 9 -85q0 -71 -29.5 -111.5t-85.5 -66.5z" />
    <glyph glyph-name="less" unicode="&#x3c;" horiz-adv-x="562" 
d="M502 158l-44 -62l-398 244v43l401 245l41 -64l-344 -203z" />
    <glyph glyph-name="equal" unicode="=" horiz-adv-x="446" 
d="M415 509v-88h-384v88h384zM415 302v-89h-384v89h384z" />
    <glyph glyph-name="greater" unicode="&#x3e;" horiz-adv-x="562" 
d="M502 340l-398 -244l-44 62l344 203l-344 203l41 64l401 -245v-43z" />
    <glyph glyph-name="question" unicode="?" horiz-adv-x="546" 
d="M194 214q-1 8 -1 23q0 111 102 180q37 29 55 51.5t18 52.5q0 36 -31 55t-87 19q-84 0 -186 -66l-43 106q128 75 244 75q69 0 120.5 -22t79.5 -62t28 -93q0 -51 -27 -87t-78 -77q-48 -42 -64 -72.5t-18 -82.5h-112zM179 0v126h144v-126h-144z" />
    <glyph glyph-name="at" unicode="@" horiz-adv-x="978" 
d="M719.5 658q95.5 -53 147 -144t51.5 -203q0 -69 -23.5 -124t-66.5 -86.5t-100 -31.5q-111 0 -138 84q-57 -70 -150 -70q-58 0 -102.5 25.5t-69 70.5t-24.5 103q0 64 28.5 117t79 83t113.5 30q40 0 79.5 -20t67.5 -59l14 87l105 -16l-39 -238q-7 -42 -7 -61
q0 -29 12.5 -42.5t41.5 -13.5q42 0 61.5 47t19.5 114q0 94 -40.5 162.5t-113 105t-167.5 36.5q-99 0 -176.5 -42t-121 -117.5t-43.5 -171.5q0 -149 95.5 -232t271.5 -83v-97q-129 0 -234.5 46t-168 139t-62.5 227q0 119 55.5 217t155.5 154.5t229 56.5q124 0 219.5 -53z
M553.5 217q31.5 32 31.5 91q0 48 -29 74t-78 26q-56 0 -88 -34t-32 -90q0 -46 30.5 -72.5t76.5 -26.5q57 0 88.5 32z" />
    <glyph glyph-name="A" unicode="A" horiz-adv-x="792" 
d="M775 0h-138l-56 129h-372l-56 -129h-136l314 700h129zM395 559l-137 -317h274z" />
    <glyph glyph-name="B" unicode="B" horiz-adv-x="761" 
d="M671.5 297q37.5 -47 37.5 -110q0 -87 -69 -137t-189 -50h-359v700h349q111 0 175 -47t64 -129q0 -56 -29.5 -100t-78.5 -63q62 -17 99.5 -64zM221 585v-175h194q72 0 104.5 22t32.5 66q0 46 -33 66.5t-104 20.5h-194zM433 115q77 0 112 22t35 68q0 49 -37 70.5t-115 21.5
h-207v-182h212z" />
    <glyph glyph-name="C" unicode="C" horiz-adv-x="731" 
d="M242 36q-85 47 -133.5 129.5t-48.5 184.5t48 184.5t132 129.5t188 47q169 0 277 -113l-85 -81q-73 78 -187 78q-68 0 -122 -31t-85 -86.5t-31 -126.5q0 -72 31 -128t85 -87t121 -31q115 0 190 80l85 -79q-50 -57 -121 -87t-154 -30q-105 0 -190 47z" />
    <glyph glyph-name="D" unicode="D" horiz-adv-x="832" 
d="M92 0v700h295q116 0 203 -43t134 -122t47 -184q0 -106 -47 -185.5t-134 -122.5t-203 -43h-295zM382 114q117 0 185 62.5t68 173.5t-68 173.5t-186 62.5h-160v-472h161z" />
    <glyph glyph-name="E" unicode="E" horiz-adv-x="701" 
d="M219 304v-190h431v-114h-558v700h548v-114h-421v-168h377v-114h-377z" />
    <glyph glyph-name="F" unicode="F" horiz-adv-x="658" 
d="M630 700v-114h-416v-204h367v-113h-367v-269h-129v700h545z" />
    <glyph glyph-name="G" unicode="G" horiz-adv-x="786" 
d="M241.5 35.5q-85.5 46.5 -133.5 128.5t-48 185q0 104 47.5 186.5t132 129t191.5 46.5q78 0 147.5 -28t123.5 -83l-83 -81q-76 76 -185 76q-69 0 -123.5 -30t-85 -86t-30.5 -130t30.5 -129t86 -85t128.5 -30q92 0 159 52v203h116v-259q-55 -54 -128 -83t-153 -29
q-107 0 -192.5 46.5z" />
    <glyph glyph-name="H" unicode="H" horiz-adv-x="805" 
d="M583 405v295h130v-700h-130v291h-361v-291h-130v700h130v-295h361z" />
    <glyph glyph-name="I" unicode="I" horiz-adv-x="313" 
d="M221 0h-129v700h129v-700z" />
    <glyph glyph-name="J" unicode="J" horiz-adv-x="582" 
d="M113.5 23q-64.5 34 -102.5 91l84 78q27 -39 66.5 -62.5t87.5 -23.5q62 0 99.5 42t37.5 109v329h-240v114h365v-444q0 -79 -32 -139.5t-89.5 -94t-133.5 -33.5q-78 0 -142.5 34z" />
    <glyph glyph-name="K" unicode="K" horiz-adv-x="759" 
d="M734 0h-150l-218 312l-145 -159v-153h-129v700h129v-385l336 385h161l-265 -291z" />
    <glyph glyph-name="L" unicode="L" horiz-adv-x="624" 
d="M603 0h-511v700h128v-586h383v-114z" />
    <glyph glyph-name="M" unicode="M" horiz-adv-x="926" 
d="M463 294l252 406h119v-700h-129v468l-221 -339h-42l-221 340v-469h-129v700h120z" />
    <glyph glyph-name="N" unicode="N" horiz-adv-x="816" 
d="M221 0h-129v700h111l391 -477v477h130v-700h-108l-395 483v-483z" />
    <glyph glyph-name="O" unicode="O" horiz-adv-x="863" 
d="M240.5 35.5q-84.5 46.5 -132.5 128.5t-48 186q0 103 48 185.5t132.5 129t191.5 46.5q106 0 190.5 -46.5t132.5 -128.5t48 -186q0 -103 -48 -185.5t-132.5 -129t-191.5 -46.5q-106 0 -190.5 46.5zM554 136.5q53 30.5 83 86t30 127.5t-30 127.5t-83 86t-122 30.5
t-122.5 -30.5t-83.5 -86t-30 -127.5t30 -127.5t83.5 -86t122.5 -30.5t122 30.5z" />
    <glyph glyph-name="P" unicode="P" horiz-adv-x="707" 
d="M531 670.5q68 -29.5 104 -84.5t36 -130q0 -76 -36.5 -131.5t-104.5 -85t-161 -29.5h-148v-210h-129v700h279q92 0 160 -29.5zM367 324q84 0 129.5 32.5t45.5 99.5q0 65 -45.5 97.5t-128.5 32.5h-147v-262h146z" />
    <glyph glyph-name="Q" unicode="Q" horiz-adv-x="863" 
d="M823 115q15 0 61 -2v-112q-129 0 -264 -7q-22 -1 -79 -3t-108 -2h-2q-106 0 -190.5 46.5t-132.5 128.5t-48 186q0 103 48 185.5t132.5 129t191.5 46.5q106 0 190.5 -46.5t132.5 -128.5t48 -186q0 -71 -23.5 -133.5t-66.5 -110.5q54 9 110 9zM226 222.5q30 -55.5 83.5 -86
t122.5 -30.5t122 30.5t83 86t30 127.5t-30 127.5t-83 86t-122 30.5t-122.5 -30.5t-83.5 -86t-30 -127.5t30 -127.5z" />
    <glyph glyph-name="R" unicode="R" horiz-adv-x="721" 
d="M528 0l-197 234h-110v-234h-129v700h289q142 0 221 -61.5t79 -172.5q0 -88 -50.5 -145t-144.5 -77l205 -244h-163zM221 586v-239h156q87 0 131 27t44 90q0 122 -174 122h-157z" />
    <glyph glyph-name="S" unicode="S" horiz-adv-x="648" 
d="M171 16q-76 27 -133 73l59 99q119 -82 242 -82q64 0 99 23t35 59q0 29 -16 47t-48.5 30t-92.5 25q-128 27 -193 78t-65 140q0 64 35.5 110t96.5 69.5t139 23.5q73 0 135 -20.5t120 -62.5l-69 -94q-38 27 -88.5 43.5t-104.5 16.5q-128 0 -128 -87q0 -38 35.5 -61
t121.5 -42q91 -20 146.5 -44t83.5 -63t28 -99q0 -64 -35.5 -111t-98.5 -72.5t-144 -25.5q-84 0 -160 27z" />
    <glyph glyph-name="T" unicode="T" horiz-adv-x="651" 
d="M31 700h589v-114h-230v-586h-130v586h-229v114z" />
    <glyph glyph-name="U" unicode="U" horiz-adv-x="760" 
d="M216 26q-70 37 -108 105.5t-38 161.5v407h130v-383q0 -93 47.5 -143t132.5 -50q86 0 134 50t48 143v383h128v-407q0 -93 -37.5 -161.5t-107.5 -105.5t-165 -37q-94 0 -164 37z" />
    <glyph glyph-name="V" unicode="V" horiz-adv-x="772" 
d="M450 0h-128l-305 700h138l229 -548h4l230 548h136z" />
    <glyph glyph-name="W" unicode="W" horiz-adv-x="1094" 
d="M777 160l163 540h136l-222 -700h-141l-165 484l-166 -484h-141l-224 700h138l164 -540l172 540h113z" />
    <glyph glyph-name="X" unicode="X" horiz-adv-x="743" 
d="M452 359l265 -359h-150l-195 262l-195 -262h-152l268 361l-253 339h152l180 -246l180 246h151z" />
    <glyph glyph-name="Y" unicode="Y" horiz-adv-x="708" 
d="M554 700h142l-277 -444v-256h-130v259l-277 441h142l201 -333z" />
    <glyph glyph-name="Z" unicode="Z" horiz-adv-x="700" 
d="M652 0h-601v81l414 505h-403v114h585v-81l-416 -505h421v-114z" />
    <glyph glyph-name="bracketleft" unicode="[" horiz-adv-x="356" 
d="M325 -178h-265v916h265v-96h-136v-724h136v-96z" />
    <glyph glyph-name="backslash" unicode="\" horiz-adv-x="637" 
d="M231 700l366 -811h-116l-367 811h117z" />
    <glyph glyph-name="bracketright" unicode="]" horiz-adv-x="356" 
d="M31 738h265v-916h-265v96h136v724h-136v96z" />
    <glyph glyph-name="asciicircum" unicode="^" horiz-adv-x="429" 
d="M269 741l100 -140l-100 -7l-54 90l-55 -90l-100 7l100 140h109z" />
    <glyph glyph-name="underscore" unicode="_" horiz-adv-x="516" 
d="M508 -33v-71h-497v71h497z" />
    <glyph glyph-name="grave" unicode="`" horiz-adv-x="330" 
d="M270 603l-88 -7l-122 130l117 24z" />
    <glyph glyph-name="a" unicode="a" horiz-adv-x="607" 
d="M477 499q64 -60 64 -170v-329h-124v65q-29 -32 -78 -54t-116 -22q-57 0 -100.5 22.5t-67 62.5t-23.5 90q0 79 54 131t166 52q78 0 164 -9q-3 52 -39.5 80.5t-104.5 28.5q-38 0 -80 -16t-72 -43l-61 91q48 40 108 60t118 20q128 0 192 -60zM368 137q43 37 48 92v9
q-61 9 -134 9q-71 0 -101 -20t-30 -56q0 -71 113 -71q61 0 104 37z" />
    <glyph glyph-name="b" unicode="b" horiz-adv-x="714" 
d="M535 523.5q61 -35.5 97 -100t36 -148.5q0 -82 -36 -147t-97.5 -102t-134.5 -37q-58 0 -108 19.5t-86 56.5v-65h-124v738h124v-254q35 37 85 56t108 19q75 0 136 -35.5zM498 149.5q46 47.5 46 125.5q0 75 -46.5 122t-119.5 47q-77 0 -124.5 -45.5t-47.5 -124.5t48 -125.5
t124 -46.5q74 0 120 47.5z" />
    <glyph glyph-name="c" unicode="c" horiz-adv-x="585" 
d="M193 25.5q-68 36.5 -107.5 101t-39.5 146.5t39.5 147.5t107.5 102t151 36.5q63 0 120 -24t98 -71l-88 -74q-27 30 -59 43t-73 13q-73 0 -121.5 -45.5t-48.5 -126.5t49 -127t125 -46q40 0 70.5 12.5t57.5 44.5l88 -75q-40 -46 -97 -70t-121 -24q-83 0 -151 36.5z" />
    <glyph glyph-name="d" unicode="d" horiz-adv-x="716" 
d="M510 738h124v-738h-124v65q-36 -37 -86 -56.5t-108 -19.5q-73 0 -134.5 37t-97.5 102t-36 147q0 84 36 148.5t97 100t136 35.5q58 0 108 -19t85 -56v254zM462 148.5q48 46.5 48 125.5t-47.5 124.5t-124.5 45.5q-73 0 -119.5 -47t-46.5 -122q0 -78 46 -125.5t120 -47.5
q76 0 124 46.5z" />
    <glyph glyph-name="e" unicode="e" horiz-adv-x="623" 
d="M175 225q12 -58 59 -91t116 -33q47 0 79.5 12.5t59.5 42.5l80 -71q-90 -95 -225 -95q-85 0 -153 36.5t-106.5 101.5t-38.5 146t36.5 145.5t102.5 101t151 36.5q77 0 137 -33.5t93.5 -92t33.5 -132.5q0 -24 -6 -74h-419zM231 415q-42 -32 -54 -87h300q-10 59 -47 89
t-95 30q-62 0 -104 -32z" />
    <glyph glyph-name="f" unicode="f" horiz-adv-x="464" 
d="M271 547h177v-111h-177v-436h-125v436h-104v111h104v20q0 86 49 134.5t133 48.5q43 0 79.5 -7t59.5 -17l-22 -108q-42 18 -92 18q-41 0 -61.5 -18t-20.5 -63v-8z" />
    <glyph glyph-name="g" unicode="g" horiz-adv-x="643" 
d="M389 145q110 0 165 -40t55 -109q0 -81 -78 -129.5t-225 -48.5q-121 0 -188 37.5t-67 105.5q0 30 19.5 54t51.5 42q-23 14 -35.5 36t-12.5 48q0 33 17.5 58.5t45.5 40.5q-30 24 -46 58.5t-16 76.5q0 85 64.5 134.5t176.5 49.5q69 0 113 -20l143 48l28 -100l-80 -15
q18 -18 28.5 -43t10.5 -54q0 -86 -64.5 -136t-176.5 -50q-54 0 -103 13q-19 -11 -19 -30q0 -16 12 -21.5t35 -5.5h146zM198 376q0 -40 30 -60.5t89 -20.5t89 20.5t30 59.5q0 78 -119 78t-119 -77zM442.5 -58q41.5 13 41.5 47q0 28 -30 37t-101 9h-142q-34 -27 -34 -55
q0 -30 32.5 -40.5t103.5 -10.5q88 0 129.5 13z" />
    <glyph glyph-name="h" unicode="h" horiz-adv-x="683" 
d="M556.5 497q60.5 -62 60.5 -169v-328h-124v311q0 133 -128 133q-46 0 -82 -22t-56.5 -62t-20.5 -90v-270h-124v738h124v-257q33 36 81 57t108 21q101 0 161.5 -62z" />
    <glyph glyph-name="i" unicode="i" horiz-adv-x="276" 
d="M200 0h-124v547h124v-547zM202 614h-129v120h129v-120z" />
    <glyph glyph-name="j" unicode="j" horiz-adv-x="291" 
d="M-31 -56q20 -10 46 -10q36 0 55.5 18.5t19.5 53.5v541h125v-551q0 -82 -51.5 -127t-132.5 -45q-51 0 -94 21zM216 614h-129v120h129v-120z" />
    <glyph glyph-name="k" unicode="k" horiz-adv-x="665" 
d="M655 0h-147l-191 233l-111 -113v-120h-124v738h124v-469l255 278h162l-228 -233z" />
    <glyph glyph-name="l" unicode="l" horiz-adv-x="288" 
d="M206 0h-124v738h124v-738z" />
    <glyph glyph-name="m" unicode="m" horiz-adv-x="1045" 
d="M925 499q54 -60 54 -167v-332h-125v315q0 129 -111 129q-41 0 -76 -22.5t-56 -61.5t-21 -87v-273h-125v315q0 129 -112 129q-40 0 -75.5 -22.5t-56.5 -61.5t-21 -87v-273h-124v547h124v-68q34 36 82 58t105 22q63 0 109.5 -28t70.5 -80q32 47 87 77.5t123 30.5
q94 0 148 -60z" />
    <glyph glyph-name="n" unicode="n" horiz-adv-x="677" 
d="M550.5 497q60.5 -62 60.5 -169v-328h-124v311q0 133 -128 133q-46 0 -82 -22t-56.5 -62t-20.5 -90v-270h-124v547h124v-66q33 36 81 57t108 21q101 0 161.5 -62z" />
    <glyph glyph-name="o" unicode="o" 
d="M191 26q-68 37 -106.5 102t-38.5 146t38.5 146t106.5 102t153 37q86 0 154 -36.5t106.5 -101.5t38.5 -146q0 -82 -38.5 -147t-106.5 -102t-154 -37q-85 0 -153 37zM469 149q48 48 48 125q0 78 -48 125t-125 47q-76 0 -124.5 -47t-48.5 -124q0 -78 49 -126t125 -48t124 48
z" />
    <glyph glyph-name="p" unicode="p" horiz-adv-x="708" 
d="M528.5 521q61.5 -37 97.5 -102t36 -147q0 -84 -36 -148.5t-97 -99.5t-136 -35q-59 0 -108.5 19t-84.5 56v-236h-124v719h124v-64q36 37 86 56t108 19q73 0 134.5 -37zM491.5 150q46.5 47 46.5 122q0 78 -46 125.5t-120 47.5q-76 0 -124 -46.5t-48 -125.5t47.5 -124.5
t124.5 -45.5q73 0 119.5 47z" />
    <glyph glyph-name="q" unicode="q" horiz-adv-x="707" 
d="M507 547h124v-719h-124v235q-36 -36 -85 -55t-107 -19q-75 0 -136 35t-97 99.5t-36 148.5q0 82 36 147t97.5 102t134.5 37q58 0 107.5 -19t85.5 -55v63zM453.5 142.5q46.5 39.5 53.5 109.5v42q-7 70 -53.5 110.5t-117.5 40.5q-74 0 -120 -47.5t-46 -125.5
q0 -75 46.5 -122t119.5 -47q71 0 117.5 39.5z" />
    <glyph glyph-name="r" unicode="r" horiz-adv-x="434" 
d="M409 550l-4 -127q-25 7 -54 7q-71 0 -111 -55.5t-40 -148.5v-226h-124v547h124v-70q29 38 70 57.5t86 19.5q23 0 53 -4z" />
    <glyph glyph-name="s" unicode="s" horiz-adv-x="543" 
d="M142.5 8.5q-63.5 18.5 -112.5 47.5l51 102q96 -55 194 -55q54 0 82 12.5t28 41.5q0 19 -11.5 30.5t-38.5 20t-78 17.5q-79 13 -124.5 35t-65 53.5t-19.5 77.5q0 80 55 123.5t155 43.5q57 0 125 -16t107 -41l-50 -104q-39 23 -89 35.5t-101 12.5q-76 0 -76 -44
q0 -22 24 -35t94 -27q84 -18 131 -42t66.5 -56.5t19.5 -78.5q0 -81 -64.5 -126.5t-174.5 -45.5q-64 0 -127.5 18.5z" />
    <glyph glyph-name="t" unicode="t" horiz-adv-x="512" 
d="M472 25q-30 -17 -73 -26.5t-80 -9.5q-85 0 -132 46t-47 132v269h-103v111h105l9 143h113v-143h187v-111h-187v-249q0 -40 21 -63.5t57 -23.5q24 0 54.5 6t51.5 16z" />
    <glyph glyph-name="u" unicode="u" horiz-adv-x="678" 
d="M477 547h124v-547h-124v66q-33 -36 -81 -57t-108 -21q-101 0 -161.5 62t-60.5 169v328h124v-311q0 -133 128 -133q46 0 82 22t56.5 62t20.5 90v270z" />
    <glyph glyph-name="v" unicode="v" horiz-adv-x="637" 
d="M386 0h-135l-229 547h136l160 -406h1l160 406h136z" />
    <glyph glyph-name="w" unicode="w" horiz-adv-x="932" 
d="M646 143l128 404h131l-187 -547h-139l-113 378l-113 -378h-138l-188 547h131l127 -404l117 404h126z" />
    <glyph glyph-name="x" unicode="x" horiz-adv-x="639" 
d="M393 281l221 -281h-143l-153 196l-153 -196h-140l219 279l-211 268h148l139 -184l138 184h144z" />
    <glyph glyph-name="y" unicode="y" horiz-adv-x="646" 
d="M489 547h136l-229 -547l-18 -41q-33 -76 -78 -108.5t-123 -32.5q-34 0 -69.5 10.5t-56.5 23.5l37 91q20 -10 42.5 -15.5t40.5 -5.5q35 0 52.5 15t33.5 53l5 11h-1l-230 546h136l161 -406h1z" />
    <glyph glyph-name="z" unicode="z" horiz-adv-x="559" 
d="M523 0h-486v75l308 360h-300v112h473v-74l-311 -361h316v-112z" />
    <glyph glyph-name="braceleft" unicode="{" horiz-adv-x="390" 
d="M360 642q-63 -4 -86 -25.5t-23 -65.5q0 -34 5 -77q1 -10 3 -34t2 -44q0 -109 -119 -116q119 -7 119 -116q0 -21 -2 -50.5t-3 -42.5q-2 -15 -4 -45q-2 -36 5.5 -58t31.5 -34.5t71 -16.5l-1 -95q-92 0 -144 16.5t-72.5 47t-20.5 78.5q0 19 3 40l3 30q9 95 9 122
q0 43 -27 62t-79 19v86q52 0 79 19t27 61q0 38 -8 116l-4 37q-3 21 -3 40q0 47 20.5 77.5t72.5 47t144 16.5z" />
    <glyph glyph-name="bar" unicode="|" horiz-adv-x="294" 
d="M203 700v-799h-111v799h111z" />
    <glyph glyph-name="braceright" unicode="}" horiz-adv-x="390" 
d="M31 -82q62 4 85 25.5t23 65.5q0 34 -5 77q-1 10 -3 34.5t-2 43.5q0 109 119 116q-119 7 -119 116q0 21 2 50.5t3 42.5q2 15 4 45q2 37 -5.5 58.5t-31.5 34t-70 16.5l1 95q92 0 143.5 -16.5t72 -47t20.5 -78.5q0 -19 -3 -40l-3 -30q-9 -94 -9 -122q0 -43 27.5 -62
t79.5 -19v-86q-52 0 -79.5 -19t-27.5 -61q0 -38 8 -116l4 -37q3 -21 3 -40q0 -47 -20.5 -77.5t-72.5 -47t-143 -16.5z" />
    <glyph glyph-name="asciitilde" unicode="~" horiz-adv-x="519" 
d="M31 586q8 44 40.5 69t85.5 25q28 0 54 -6t57 -16q26 -9 44 -13t36 -4q28 0 46.5 12t26.5 32l67 -15q-8 -44 -40.5 -69.5t-85.5 -25.5q-26 0 -51.5 6t-56.5 16t-48 14t-35 4q-28 0 -46.5 -12t-26.5 -32z" />
    <glyph glyph-name="uni00A0" unicode="&#xa0;" horiz-adv-x="291" 
 />
    <glyph glyph-name="exclamdown" unicode="&#xa1;" horiz-adv-x="258" 
d="M201 421h-144v126h144v-126zM191 -154h-125v282l19 206h88l18 -207v-281z" />
    <glyph glyph-name="cent" unicode="&#xa2;" horiz-adv-x="581" 
d="M347 101q39 0 69.5 12.5t57.5 44.5l88 -75q-40 -46 -97 -70t-121 -24h-16l-25 -139h-98l28 158q-85 30 -136 100.5t-51 164.5q0 80 37.5 144t102 101.5t144.5 40.5l24 133h98l-25 -144q80 -22 135 -84l-88 -74q-31 34 -67 46zM193.5 182.5q21.5 -38.5 59.5 -59.5l57 321
q-62 -10 -100 -54.5t-38 -115.5q0 -53 21.5 -91.5z" />
    <glyph glyph-name="sterling" unicode="&#xa3;" horiz-adv-x="608" 
d="M234 277v-179h333v-99h-533v76l83 18v184h-86v74h86v88q0 126 65.5 198t180.5 72q66 0 119.5 -26t94.5 -71l-70 -74q-27 32 -59 50.5t-75 18.5q-66 0 -102.5 -45.5t-36.5 -117.5v-93h214v-74h-214z" />
    <glyph glyph-name="yen" unicode="&#xa5;" horiz-adv-x="708" 
d="M554 700h142l-240 -385h104v-73h-141v-54h141v-73h-141v-115h-130v115h-147v73h147v54h-147v73h112l-242 385h142l201 -333z" />
    <glyph glyph-name="brokenbar" unicode="&#xa6;" horiz-adv-x="281" 
d="M196 700v-308h-111v308h111zM196 223v-309h-111v309h111z" />
    <glyph glyph-name="section" unicode="&#xa7;" horiz-adv-x="657" 
d="M429.5 541.5q15.5 -34.5 41.5 -83.5q42 -81 64 -139t22 -125q0 -64 -33 -110t-89.5 -70t-126.5 -24q-109 0 -217 56l33 85q62 -31 119 -40q-9 35 -25 70t-42 84q-42 79 -64 137.5t-22 125.5q0 64 33 110t90 69.5t127 23.5q108 0 216 -56l-33 -85q-60 31 -118 40
q9 -34 24.5 -68.5zM450 199q0 48 -16.5 91.5t-52.5 112.5q-33 64 -52.5 110t-26.5 98q-105 -17 -105 -109q0 -48 16.5 -90.5t52.5 -112.5q33 -64 52.5 -110t26.5 -99q105 17 105 109z" />
    <glyph glyph-name="dieresis" unicode="&#xa8;" horiz-adv-x="379" 
d="M150 614h-90v120h90v-120zM319 614h-89v120h89v-120z" />
    <glyph glyph-name="copyright" unicode="&#xa9;" horiz-adv-x="834" 
d="M238 42q-82 48 -130 130t-48 179t48 179t130 130t179 48t179 -48t130 -130t48 -179t-48 -179t-130 -130t-179 -48t-179 48zM551.5 119q61.5 36 98 97.5t36.5 134.5t-36.5 134.5t-98 97.5t-134.5 36q-72 0 -133.5 -36t-97.5 -97.5t-36 -134.5t36 -134.5t97.5 -97.5
t133.5 -36q73 0 134.5 36zM318.5 180.5q-46.5 25.5 -73 70.5t-26.5 102q0 56 26.5 101.5t73 71t103.5 25.5q101 0 158 -65l-51 -50q-23 22 -47 32t-54 10q-50 0 -84 -34.5t-34 -89.5q0 -56 34 -91.5t84 -35.5q31 0 54.5 11.5t46.5 34.5l51 -50q-56 -68 -158 -68
q-57 0 -103.5 25.5z" />
    <glyph glyph-name="ordfeminine" unicode="&#xaa;" horiz-adv-x="335" 
d="M266.5 733.5q35.5 -33.5 35.5 -93.5v-160h-96v47q-12 -23 -37 -38t-52 -15q-44 0 -70.5 22.5t-26.5 61.5q0 45 30.5 72.5t84.5 27.5q41 0 71 -3q-2 20 -17.5 31t-43.5 11q-42 0 -84 -17l-20 62q54 25 116 25q74 0 109.5 -33.5zM190.5 557.5q15.5 14.5 15.5 39.5v7
q-13 2 -45 2q-21 0 -34.5 -9t-13.5 -21q0 -33 38 -33q24 0 39.5 14.5zM302 358h-276v76h276v-76z" />
    <glyph glyph-name="guillemotleft" unicode="&#xab;" horiz-adv-x="537" 
d="M282 71l-69 -35l-182 204v43l173 203l78 -36l-146 -189zM506 71l-78 -35l-189 220v9l189 221l78 -36l-146 -189z" />
    <glyph glyph-name="logicalnot" unicode="&#xac;" horiz-adv-x="459" 
d="M31 299v97h398v-223h-98v126h-300z" />
    <glyph glyph-name="uni00AD" unicode="&#xad;" horiz-adv-x="446" 
d="M415 274v-97h-384v97h384z" />
    <glyph glyph-name="registered" unicode="&#xae;" horiz-adv-x="430" 
d="M292.5 690.5q35.5 -20.5 56.5 -56t21 -77.5t-21 -77.5t-56.5 -56.5t-78.5 -21q-42 0 -77.5 21t-56 56.5t-20.5 77.5t20.5 77.5t56 56t77.5 20.5q43 0 78.5 -20.5zM281 441q31 18 49 49t18 67t-18 66.5t-49 48.5t-67 18t-66.5 -18t-48.5 -48.5t-18 -66.5t18 -67t48.5 -49
t66.5 -18t67 18zM251 534l49 -58h-44l-43 55h-28v-55h-37v172h72q36 0 56.5 -15.5t20.5 -42.5q0 -43 -46 -56zM185 618v-59h35q19 0 29.5 7.5t10.5 22.5q0 14 -10.5 21.5t-29.5 7.5h-35z" />
    <glyph glyph-name="macron" unicode="&#xaf;" horiz-adv-x="438" 
d="M377 631h-317v78h317v-78z" />
    <glyph glyph-name="degree" unicode="&#xb0;" horiz-adv-x="430" 
d="M136.5 423q-35.5 21 -56 56.5t-20.5 77.5t20.5 77.5t56 56t77.5 20.5q43 0 78.5 -20.5t56.5 -56t21 -77.5t-21 -77.5t-56.5 -56.5t-78.5 -21q-42 0 -77.5 21zM294 477q33 33 33 80q0 46 -33 78.5t-80 32.5q-46 0 -79 -32.5t-33 -78.5q0 -47 33 -80t79 -33q47 0 80 33z
" />
    <glyph glyph-name="plusminus" unicode="&#xb1;" horiz-adv-x="517" 
d="M486 376v-97h-180v-124h173v-79h-433v79h163v124h-178v97h178v159h97v-159h180z" />
    <glyph glyph-name="uni00B2" unicode="&#xb2;" horiz-adv-x="340" 
d="M38 540q77 50 124 90q27 23 40 39t13 29q0 20 -16 32t-40 12q-20 0 -41 -9.5t-38 -26.5l-49 58q27 25 63.5 38t75.5 13q57 0 97 -29t40 -80q0 -30 -14.5 -53.5t-49.5 -52.5q-9 -8 -27 -22q-20 -16 -30 -25h125v-76h-273v63z" />
    <glyph glyph-name="uni00B3" unicode="&#xb3;" horiz-adv-x="344" 
d="M93.5 483.5q-32.5 11.5 -63.5 34.5l31 59q17 -14 48.5 -22.5t54.5 -8.5q24 0 40 12.5t16 32.5q0 17 -15 30t-37 13q-24 0 -62 -2v43l94 76h-145v60h238l6 -51l-89 -79q3 0 7.5 0.5t11.5 -0.5q39 -6 62.5 -32t23.5 -65q0 -51 -42 -81.5t-102 -30.5q-45 0 -77.5 11.5z" />
    <glyph glyph-name="acute" unicode="&#xb4;" horiz-adv-x="330" 
d="M290 726l-122 -130l-88 7l93 147z" />
    <glyph glyph-name="uni00B5" unicode="&#xb5;" horiz-adv-x="677" 
d="M477 547h124v-547h-124v66q-33 -36 -81 -57t-108 -21q-56 0 -98 19l3 -178h-124v346q-3 21 -3 44v328h124v-311q0 -133 128 -133q46 0 82 22t56.5 62t20.5 90v270z" />
    <glyph glyph-name="paragraph" unicode="&#xb6;" horiz-adv-x="760" 
d="M440 700v-820h-84v391h-56q-123 0 -193.5 57t-70.5 158q0 100 70 157t193 57h141zM585 -120v820h84v-820h-84z" />
    <glyph glyph-name="periodcentered" unicode="&#xb7;" horiz-adv-x="218" 
d="M46 323v110h126v-110h-126z" />
    <glyph glyph-name="cedilla" unicode="&#xb8;" horiz-adv-x="275" 
d="M161 -39q31 -7 47.5 -24.5t16.5 -40.5q0 -33 -31 -52.5t-89 -19.5q-30 0 -65 7l14 66q21 -6 41 -6q13 0 20 4t7 11q0 26 -52 26l21 75h82z" />
    <glyph glyph-name="uni00B9" unicode="&#xb9;" horiz-adv-x="249" 
d="M203 477h-91v254l-72 -9l-10 75l97 13h76v-333z" />
    <glyph glyph-name="ordmasculine" unicode="&#xba;" horiz-adv-x="367" 
d="M102 492.5q-36 19.5 -56.5 53t-20.5 75.5q0 41 20.5 74.5t57 52.5t81.5 19t81 -19t56.5 -52.5t20.5 -74.5q0 -42 -20.5 -75.5t-56.5 -53t-81 -19.5q-46 0 -82 19.5zM227.5 570.5q17.5 20.5 17.5 50.5q0 29 -17.5 49.5t-43.5 20.5q-27 0 -44 -20.5t-17 -49.5
q0 -30 17.5 -50.5t43.5 -20.5t43.5 20.5zM35 358v76h296v-76h-296z" />
    <glyph glyph-name="guillemotright" unicode="&#xbb;" horiz-adv-x="537" 
d="M298 256l-189 -220l-78 35l146 190l-146 189l78 36l189 -221v-9zM506 240l-182 -204l-69 35l146 190l-146 189l78 36l173 -203v-43z" />
    <glyph glyph-name="onequarter" unicode="&#xbc;" horiz-adv-x="816" 
d="M203 387h-91v254l-72 -9l-10 75l97 13h76v-333zM191 0h-108l416 700h108zM742 0h-87v63h-170l-17 50l160 220h114v-204h44v-66h-44v-63zM655 262l-94 -133h94v133z" />
    <glyph glyph-name="onehalf" unicode="&#xbd;" horiz-adv-x="777" 
d="M203 387h-91v254l-72 -9l-10 75l97 13h76v-333zM191 0h-108l416 700h108zM475 63q77 50 124 90q27 23 40 39t13 29q0 20 -16 32t-40 12q-20 0 -41 -9.5t-38 -26.5l-49 58q27 25 63.5 38t75.5 13q57 0 97 -29t40 -80q0 -30 -14.5 -53.5t-49.5 -52.5q-9 -8 -27 -22
q-20 -16 -30 -25h125v-76h-273v63z" />
    <glyph glyph-name="threequarters" unicode="&#xbe;" horiz-adv-x="911" 
d="M93.5 392.5q-32.5 11.5 -63.5 34.5l31 59q17 -14 48.5 -22.5t54.5 -8.5q24 0 40 12.5t16 32.5q0 17 -15 30t-37 13q-24 0 -62 -2v43l94 76h-145v60h238l6 -51l-89 -79q3 0 7.5 0.5t11.5 -0.5q39 -6 62.5 -32t23.5 -65q0 -51 -42 -81.5t-102 -30.5q-45 0 -77.5 11.5z
M286 0h-108l416 700h108zM837 0h-87v63h-170l-17 50l160 220h114v-204h44v-66h-44v-63zM750 262l-94 -133h94v133z" />
    <glyph glyph-name="questiondown" unicode="&#xbf;" horiz-adv-x="546" 
d="M367 547v-126h-143v126h143zM353 334q1 -7 1 -21q0 -60 -26.5 -104.5t-76.5 -78.5q-37 -30 -55 -52.5t-18 -51.5q0 -36 31 -54.5t87 -18.5q84 0 187 65l43 -106q-129 -75 -245 -75q-104 0 -166 48.5t-62 129.5q0 51 27 87t78 77q48 40 64 71.5t18 83.5h113z" />
    <glyph glyph-name="Agrave" unicode="&#xc0;" horiz-adv-x="792" 
d="M775 0h-138l-56 129h-372l-56 -129h-136l314 700h129zM395 559l-137 -317h274zM437 751l-87 -6l-105 104l108 25z" />
    <glyph glyph-name="Aacute" unicode="&#xc1;" horiz-adv-x="792" 
d="M775 0h-138l-56 129h-372l-56 -129h-136l314 700h129zM395 559l-137 -317h274zM546 849l-105 -104l-87 6l84 123z" />
    <glyph glyph-name="Acircumflex" unicode="&#xc2;" horiz-adv-x="792" 
d="M775 0h-138l-56 129h-372l-56 -129h-136l314 700h129zM395 559l-137 -317h274zM455 883l106 -127l-106 -6l-57 81l-58 -81l-106 6l106 127h115z" />
    <glyph glyph-name="Atilde" unicode="&#xc3;" horiz-adv-x="792" 
d="M775 0h-138l-56 129h-372l-56 -129h-136l314 700h129zM395 559l-137 -317h274zM222 760q0 49 27 78t68 29q20 0 37.5 -6t42.5 -17q18 -9 30 -13t23 -4q20 0 32.5 13t12.5 35l61 -16q0 -49 -26.5 -78t-67.5 -29q-20 0 -37 5.5t-42 16.5q-36 17 -54 17q-20 0 -33 -13
t-13 -34z" />
    <glyph glyph-name="Adieresis" unicode="&#xc4;" horiz-adv-x="792" 
d="M775 0h-138l-56 129h-372l-56 -129h-136l314 700h129zM395 559l-137 -317h274zM375 759h-105v116h105v-116zM535 759h-105v116h105v-116z" />
    <glyph glyph-name="Aring" unicode="&#xc5;" horiz-adv-x="792" 
d="M637 0l-56 129h-372l-56 -129h-136l299 666q-24 17 -38 42.5t-14 56.5q0 53 37 87.5t95 34.5t95.5 -34.5t37.5 -87.5q0 -31 -14 -57t-39 -43l299 -665h-138zM352 808.5q-18 -17.5 -18 -43.5q0 -27 17.5 -44t44.5 -17t44.5 17t17.5 44q0 26 -18 43.5t-44 17.5t-44 -17.5z
M395 559l-137 -317h274z" />
    <glyph glyph-name="AE" unicode="&#xc6;" horiz-adv-x="1108" 
d="M626 304v-190h431v-114h-558v158h-257l-90 -158h-135l391 700h639v-114h-421v-168h377v-114h-377zM488 592l-182 -321h193v321h-11z" />
    <glyph glyph-name="Ccedilla" unicode="&#xc7;" horiz-adv-x="731" 
d="M707 106q-43 -49 -102 -78t-128 -37l-9 -34q31 -7 47.5 -24.5t16.5 -40.5q0 -33 -31 -52.5t-89 -19.5q-30 0 -65 7l14 66q21 -6 41 -6q13 0 20 4t7 11q0 26 -52 26l18 63q-96 8 -172.5 57t-119.5 127.5t-43 174.5q0 102 48 184.5t132 129.5t188 47q169 0 277 -113
l-85 -81q-73 78 -187 78q-68 0 -122 -31t-85 -86.5t-31 -126.5q0 -72 31 -128t85 -87t121 -31q115 0 190 80z" />
    <glyph glyph-name="Egrave" unicode="&#xc8;" horiz-adv-x="701" 
d="M219 304v-190h431v-114h-558v700h548v-114h-421v-168h377v-114h-377zM387 751l-87 -6l-105 104l108 25z" />
    <glyph glyph-name="Eacute" unicode="&#xc9;" horiz-adv-x="701" 
d="M219 304v-190h431v-114h-558v700h548v-114h-421v-168h377v-114h-377zM497 849l-105 -104l-87 6l84 123z" />
    <glyph glyph-name="Ecircumflex" unicode="&#xca;" horiz-adv-x="701" 
d="M219 304v-190h431v-114h-558v700h548v-114h-421v-168h377v-114h-377zM406 883l106 -127l-106 -6l-57 81l-58 -81l-106 6l106 127h115z" />
    <glyph glyph-name="Edieresis" unicode="&#xcb;" horiz-adv-x="701" 
d="M219 304v-190h431v-114h-558v700h548v-114h-421v-168h377v-114h-377zM326 759h-105v116h105v-116zM486 759h-105v116h105v-116z" />
    <glyph glyph-name="Igrave" unicode="&#xcc;" horiz-adv-x="313" 
d="M221 0h-129v700h129v-700zM198 751l-87 -6l-105 104l108 25z" />
    <glyph glyph-name="Iacute" unicode="&#xcd;" horiz-adv-x="313" 
d="M221 0h-129v700h129v-700zM307 849l-105 -104l-87 6l84 123z" />
    <glyph glyph-name="Icircumflex" unicode="&#xce;" horiz-adv-x="313" 
d="M221 0h-129v700h129v-700zM216 883l106 -127l-106 -6l-57 81l-58 -81l-106 6l106 127h115z" />
    <glyph glyph-name="Idieresis" unicode="&#xcf;" horiz-adv-x="313" 
d="M221 0h-129v700h129v-700zM136 759h-105v116h105v-116zM296 759h-105v116h105v-116z" />
    <glyph glyph-name="Eth" unicode="&#xd0;" horiz-adv-x="832" 
d="M387 700q116 0 203 -43t134 -122t47 -184q0 -106 -47 -185.5t-134 -122.5t-203 -43h-295v309h-55v91h55v300h295zM382 114q117 0 185 62.5t68 173.5t-68 173.5t-186 62.5h-160v-186h208v-91h-208v-195h161z" />
    <glyph glyph-name="Ntilde" unicode="&#xd1;" horiz-adv-x="816" 
d="M221 0h-129v700h111l391 -477v477h130v-700h-108l-395 483v-483zM234 760q0 49 27 78t68 29q20 0 37.5 -6t42.5 -17q18 -9 30 -13t23 -4q20 0 32.5 13t12.5 35l61 -16q0 -49 -26.5 -78t-67.5 -29q-20 0 -37 5.5t-42 16.5q-36 17 -54 17q-20 0 -33 -13t-13 -34z" />
    <glyph glyph-name="Ograve" unicode="&#xd2;" horiz-adv-x="863" 
d="M240.5 35.5q-84.5 46.5 -132.5 128.5t-48 186q0 103 48 185.5t132.5 129t191.5 46.5q106 0 190.5 -46.5t132.5 -128.5t48 -186q0 -103 -48 -185.5t-132.5 -129t-191.5 -46.5q-106 0 -190.5 46.5zM554 136.5q53 30.5 83 86t30 127.5t-30 127.5t-83 86t-122 30.5
t-122.5 -30.5t-83.5 -86t-30 -127.5t30 -127.5t83.5 -86t122.5 -30.5t122 30.5zM473 751l-87 -6l-105 104l108 25z" />
    <glyph glyph-name="Oacute" unicode="&#xd3;" horiz-adv-x="863" 
d="M240.5 35.5q-84.5 46.5 -132.5 128.5t-48 186q0 103 48 185.5t132.5 129t191.5 46.5q106 0 190.5 -46.5t132.5 -128.5t48 -186q0 -103 -48 -185.5t-132.5 -129t-191.5 -46.5q-106 0 -190.5 46.5zM554 136.5q53 30.5 83 86t30 127.5t-30 127.5t-83 86t-122 30.5
t-122.5 -30.5t-83.5 -86t-30 -127.5t30 -127.5t83.5 -86t122.5 -30.5t122 30.5zM582 849l-105 -104l-87 6l84 123z" />
    <glyph glyph-name="Ocircumflex" unicode="&#xd4;" horiz-adv-x="863" 
d="M240.5 35.5q-84.5 46.5 -132.5 128.5t-48 186q0 103 48 185.5t132.5 129t191.5 46.5q106 0 190.5 -46.5t132.5 -128.5t48 -186q0 -103 -48 -185.5t-132.5 -129t-191.5 -46.5q-106 0 -190.5 46.5zM554 136.5q53 30.5 83 86t30 127.5t-30 127.5t-83 86t-122 30.5
t-122.5 -30.5t-83.5 -86t-30 -127.5t30 -127.5t83.5 -86t122.5 -30.5t122 30.5zM491 883l106 -127l-106 -6l-57 81l-58 -81l-106 6l106 127h115z" />
    <glyph glyph-name="Otilde" unicode="&#xd5;" horiz-adv-x="863" 
d="M240.5 35.5q-84.5 46.5 -132.5 128.5t-48 186q0 103 48 185.5t132.5 129t191.5 46.5q106 0 190.5 -46.5t132.5 -128.5t48 -186q0 -103 -48 -185.5t-132.5 -129t-191.5 -46.5q-106 0 -190.5 46.5zM554 136.5q53 30.5 83 86t30 127.5t-30 127.5t-83 86t-122 30.5
t-122.5 -30.5t-83.5 -86t-30 -127.5t30 -127.5t83.5 -86t122.5 -30.5t122 30.5zM258 760q0 49 27 78t68 29q20 0 37.5 -6t42.5 -17q18 -9 30 -13t23 -4q20 0 32.5 13t12.5 35l61 -16q0 -49 -26.5 -78t-67.5 -29q-20 0 -37 5.5t-42 16.5q-36 17 -54 17q-20 0 -33 -13t-13 -34
z" />
    <glyph glyph-name="Odieresis" unicode="&#xd6;" horiz-adv-x="863" 
d="M240.5 35.5q-84.5 46.5 -132.5 128.5t-48 186q0 103 48 185.5t132.5 129t191.5 46.5q106 0 190.5 -46.5t132.5 -128.5t48 -186q0 -103 -48 -185.5t-132.5 -129t-191.5 -46.5q-106 0 -190.5 46.5zM554 136.5q53 30.5 83 86t30 127.5t-30 127.5t-83 86t-122 30.5
t-122.5 -30.5t-83.5 -86t-30 -127.5t30 -127.5t83.5 -86t122.5 -30.5t122 30.5zM411 759h-105v116h105v-116zM571 759h-105v116h105v-116z" />
    <glyph glyph-name="multiply" unicode="&#xd7;" horiz-adv-x="439" 
d="M339 535l69 -69l-119 -119l119 -120l-69 -68l-119 119l-120 -120l-69 69l120 120l-120 119l69 70l120 -120z" />
    <glyph glyph-name="Oslash" unicode="&#xd8;" horiz-adv-x="863" 
d="M821 675l-95 -96q37 -46 57 -104.5t20 -124.5q0 -103 -48 -185.5t-132.5 -129t-191.5 -46.5q-64 0 -122 17.5t-104 50.5l-76 -76l-65 65l74 74q-37 47 -57.5 105.5t-20.5 124.5q0 103 48 185.5t132.5 129t191.5 46.5q65 0 123 -18t104 -51l97 97zM231 213l339 340
q-58 41 -138 41q-69 0 -122.5 -30.5t-83.5 -86t-30 -127.5q0 -79 35 -137zM633 486l-339 -340q58 -40 138 -40q69 0 122 30.5t83 86t30 127.5q0 77 -34 136z" />
    <glyph glyph-name="Ugrave" unicode="&#xd9;" horiz-adv-x="760" 
d="M216 26q-70 37 -108 105.5t-38 161.5v407h130v-383q0 -93 47.5 -143t132.5 -50q86 0 134 50t48 143v383h128v-407q0 -93 -37.5 -161.5t-107.5 -105.5t-165 -37q-94 0 -164 37zM422 751l-87 -6l-105 104l108 25z" />
    <glyph glyph-name="Uacute" unicode="&#xda;" horiz-adv-x="760" 
d="M216 26q-70 37 -108 105.5t-38 161.5v407h130v-383q0 -93 47.5 -143t132.5 -50q86 0 134 50t48 143v383h128v-407q0 -93 -37.5 -161.5t-107.5 -105.5t-165 -37q-94 0 -164 37zM532 849l-105 -104l-87 6l84 123z" />
    <glyph glyph-name="Ucircumflex" unicode="&#xdb;" horiz-adv-x="760" 
d="M216 26q-70 37 -108 105.5t-38 161.5v407h130v-383q0 -93 47.5 -143t132.5 -50q86 0 134 50t48 143v383h128v-407q0 -93 -37.5 -161.5t-107.5 -105.5t-165 -37q-94 0 -164 37zM441 883l106 -127l-106 -6l-57 81l-58 -81l-106 6l106 127h115z" />
    <glyph glyph-name="Udieresis" unicode="&#xdc;" horiz-adv-x="760" 
d="M216 26q-70 37 -108 105.5t-38 161.5v407h130v-383q0 -93 47.5 -143t132.5 -50q86 0 134 50t48 143v383h128v-407q0 -93 -37.5 -161.5t-107.5 -105.5t-165 -37q-94 0 -164 37zM361 759h-105v116h105v-116zM521 759h-105v116h105v-116z" />
    <glyph glyph-name="Yacute" unicode="&#xdd;" horiz-adv-x="708" 
d="M554 700h142l-277 -444v-256h-130v259l-277 441h142l201 -333zM505 849l-105 -104l-87 6l84 123z" />
    <glyph glyph-name="Thorn" unicode="&#xde;" horiz-adv-x="707" 
d="M371 598q92 0 160 -29.5t104 -84.5t36 -130q0 -76 -36.5 -132t-105 -85.5t-160.5 -29.5h-148v-107h-129v700h129v-102h150zM367 210q82 0 128.5 38t46.5 106q0 66 -46.5 103.5t-127.5 37.5h-147v-285h146z" />
    <glyph glyph-name="germandbls" unicode="&#xdf;" horiz-adv-x="690" 
d="M595.5 323q46.5 -48 46.5 -118q0 -62 -31 -110.5t-85.5 -75.5t-122.5 -27q-77 0 -125 25l4 95q21 -10 47 -16t47 -6q67 0 107 34.5t40 93.5q0 53 -42.5 82.5t-111.5 29.5q-13 0 -31 -1.5t-31 -3.5v81q41 5 44 6q54 11 88 47t34 82q0 47 -35.5 78.5t-89.5 31.5
q-62 0 -99.5 -40t-37.5 -106v-505h-124v506q0 71 33 126t92 86t136 31q70 0 125.5 -25.5t87 -71t31.5 -101.5t-33 -101.5t-86 -66.5q76 -12 122.5 -60z" />
    <glyph glyph-name="agrave" unicode="&#xe0;" horiz-adv-x="607" 
d="M477 499q64 -60 64 -170v-329h-124v65q-29 -32 -78 -54t-116 -22q-57 0 -100.5 22.5t-67 62.5t-23.5 90q0 79 54 131t166 52q78 0 164 -9q-3 52 -39.5 80.5t-104.5 28.5q-38 0 -80 -16t-72 -43l-61 91q48 40 108 60t118 20q128 0 192 -60zM368 137q43 37 48 92v9
q-61 9 -134 9q-71 0 -101 -20t-30 -56q0 -71 113 -71q61 0 104 37zM337 605l-88 -7l-122 130l117 24z" />
    <glyph glyph-name="aacute" unicode="&#xe1;" horiz-adv-x="607" 
d="M477 499q64 -60 64 -170v-329h-124v65q-29 -32 -78 -54t-116 -22q-57 0 -100.5 22.5t-67 62.5t-23.5 90q0 79 54 131t166 52q78 0 164 -9q-3 52 -39.5 80.5t-104.5 28.5q-38 0 -80 -16t-72 -43l-61 91q48 40 108 60t118 20q128 0 192 -60zM368 137q43 37 48 92v9
q-61 9 -134 9q-71 0 -101 -20t-30 -56q0 -71 113 -71q61 0 104 37zM456 728l-122 -130l-88 7l93 147z" />
    <glyph glyph-name="acircumflex" unicode="&#xe2;" horiz-adv-x="607" 
d="M477 499q64 -60 64 -170v-329h-124v65q-29 -32 -78 -54t-116 -22q-57 0 -100.5 22.5t-67 62.5t-23.5 90q0 79 54 131t166 52q78 0 164 -9q-3 52 -39.5 80.5t-104.5 28.5q-38 0 -80 -16t-72 -43l-61 91q48 40 108 60t118 20q128 0 192 -60zM368 137q43 37 48 92v9
q-61 9 -134 9q-71 0 -101 -20t-30 -56q0 -71 113 -71q61 0 104 37zM346 743l100 -140l-100 -7l-54 90l-55 -90l-100 7l100 140h109z" />
    <glyph glyph-name="atilde" unicode="&#xe3;" horiz-adv-x="607" 
d="M477 499q64 -60 64 -170v-329h-124v65q-29 -32 -78 -54t-116 -22q-57 0 -100.5 22.5t-67 62.5t-23.5 90q0 79 54 131t166 52q78 0 164 -9q-3 52 -39.5 80.5t-104.5 28.5q-38 0 -80 -16t-72 -43l-61 91q48 40 108 60t118 20q128 0 192 -60zM368 137q43 37 48 92v9
q-61 9 -134 9q-71 0 -101 -20t-30 -56q0 -71 113 -71q61 0 104 37zM124 616q0 49 27 78t68 29q20 0 37.5 -6t42.5 -17q18 -9 30 -13t23 -4q20 0 32.5 13t12.5 35l61 -16q0 -49 -26.5 -78t-67.5 -29q-20 0 -37 5.5t-42 16.5q-36 17 -54 17q-20 0 -33 -13t-13 -34z" />
    <glyph glyph-name="adieresis" unicode="&#xe4;" horiz-adv-x="607" 
d="M477 499q64 -60 64 -170v-329h-124v65q-29 -32 -78 -54t-116 -22q-57 0 -100.5 22.5t-67 62.5t-23.5 90q0 79 54 131t166 52q78 0 164 -9q-3 52 -39.5 80.5t-104.5 28.5q-38 0 -80 -16t-72 -43l-61 91q48 40 108 60t118 20q128 0 192 -60zM368 137q43 37 48 92v9
q-61 9 -134 9q-71 0 -101 -20t-30 -56q0 -71 113 -71q61 0 104 37zM252 616h-90v120h90v-120zM421 616h-89v120h89v-120z" />
    <glyph glyph-name="aring" unicode="&#xe5;" horiz-adv-x="619" 
d="M477 499q64 -60 64 -170v-329h-124v65q-29 -32 -78 -54t-116 -22q-57 0 -100.5 22.5t-67 62.5t-23.5 90q0 79 54 131t166 52q78 0 164 -9q-3 52 -39.5 80.5t-104.5 28.5q-38 0 -80 -16t-72 -43l-61 91q48 40 108 60t118 20q128 0 192 -60zM368 137q43 37 48 92v9
q-61 9 -134 9q-71 0 -101 -20t-30 -56q0 -71 113 -71q61 0 104 37zM206 624.5q-37 34.5 -37 87.5t37 87.5t95 34.5t95.5 -34.5t37.5 -87.5t-37.5 -87.5t-95.5 -34.5t-95 34.5zM345 669q18 17 18 43q0 27 -18 44.5t-44 17.5t-44 -17.5t-18 -44.5q0 -26 18 -43t44 -17t44 17z
" />
    <glyph glyph-name="ae" unicode="&#xe6;" horiz-adv-x="986" 
d="M539 225q12 -58 59 -91t116 -33q46 0 79 12.5t60 42.5l80 -71q-92 -95 -225 -95q-83 0 -149.5 34.5t-105.5 94.5q-37 -57 -99 -93.5t-139 -36.5q-55 0 -98.5 21.5t-68.5 61t-25 91.5q0 77 57 125.5t161 48.5q95 0 164 -9v11q-1 56 -37.5 86.5t-106.5 30.5
q-39 0 -84 -16.5t-67 -42.5l-65 85q49 36 111.5 56.5t118.5 20.5q73 0 124.5 -24t81.5 -67q39 43 95 66t124 23q76 0 136.5 -33.5t94 -92t33.5 -132.5q0 -28 -7 -74h-418zM595 415q-42 -32 -54 -87h300q-10 59 -47 89t-95 30q-62 0 -104 -32zM361 136.5q45 40.5 45 102.5
q-58 8 -135 8q-61 0 -95 -21t-34 -55q0 -35 28 -55t77 -20q69 0 114 40.5z" />
    <glyph glyph-name="ccedilla" unicode="&#xe7;" horiz-adv-x="585" 
d="M416.5 113.5q30.5 12.5 57.5 44.5l88 -75q-34 -38 -79.5 -61.5t-96.5 -29.5l-8 -31q31 -7 47.5 -24.5t16.5 -40.5q0 -33 -31 -52.5t-89 -19.5q-30 0 -65 7l14 66q21 -6 41 -6q13 0 20 4t7 11q0 26 -52 26l17 59q-74 9 -132.5 47t-92 99t-33.5 136q0 82 39.5 147.5
t107.5 102t151 36.5q63 0 120 -24t98 -71l-88 -74q-27 30 -59 43t-73 13q-73 0 -121.5 -45.5t-48.5 -126.5t49 -127t125 -46q40 0 70.5 12.5z" />
    <glyph glyph-name="egrave" unicode="&#xe8;" horiz-adv-x="623" 
d="M175 225q12 -58 59 -91t116 -33q47 0 79.5 12.5t59.5 42.5l80 -71q-90 -95 -225 -95q-85 0 -153 36.5t-106.5 101.5t-38.5 146t36.5 145.5t102.5 101t151 36.5q77 0 137 -33.5t93.5 -92t33.5 -132.5q0 -24 -6 -74h-419zM231 415q-42 -32 -54 -87h300q-10 59 -47 89
t-95 30q-62 0 -104 -32zM369 603l-88 -7l-122 130l117 24z" />
    <glyph glyph-name="eacute" unicode="&#xe9;" horiz-adv-x="623" 
d="M175 225q12 -58 59 -91t116 -33q47 0 79.5 12.5t59.5 42.5l80 -71q-90 -95 -225 -95q-85 0 -153 36.5t-106.5 101.5t-38.5 146t36.5 145.5t102.5 101t151 36.5q77 0 137 -33.5t93.5 -92t33.5 -132.5q0 -24 -6 -74h-419zM231 415q-42 -32 -54 -87h300q-10 59 -47 89
t-95 30q-62 0 -104 -32zM488 726l-122 -130l-88 7l93 147z" />
    <glyph glyph-name="ecircumflex" unicode="&#xea;" horiz-adv-x="623" 
d="M175 225q12 -58 59 -91t116 -33q47 0 79.5 12.5t59.5 42.5l80 -71q-90 -95 -225 -95q-85 0 -153 36.5t-106.5 101.5t-38.5 146t36.5 145.5t102.5 101t151 36.5q77 0 137 -33.5t93.5 -92t33.5 -132.5q0 -24 -6 -74h-419zM231 415q-42 -32 -54 -87h300q-10 59 -47 89
t-95 30q-62 0 -104 -32zM378 741l100 -140l-100 -7l-54 90l-55 -90l-100 7l100 140h109z" />
    <glyph glyph-name="edieresis" unicode="&#xeb;" horiz-adv-x="623" 
d="M175 225q12 -58 59 -91t116 -33q47 0 79.5 12.5t59.5 42.5l80 -71q-90 -95 -225 -95q-85 0 -153 36.5t-106.5 101.5t-38.5 146t36.5 145.5t102.5 101t151 36.5q77 0 137 -33.5t93.5 -92t33.5 -132.5q0 -24 -6 -74h-419zM231 415q-42 -32 -54 -87h300q-10 59 -47 89
t-95 30q-62 0 -104 -32zM284 614h-90v120h90v-120zM453 614h-89v120h89v-120z" />
    <glyph glyph-name="igrave" unicode="&#xec;" horiz-adv-x="276" 
d="M200 0h-124v547h124v-547zM183 603l-88 -7l-122 130l117 24z" />
    <glyph glyph-name="iacute" unicode="&#xed;" horiz-adv-x="276" 
d="M200 0h-124v547h124v-547zM302 726l-122 -130l-88 7l93 147z" />
    <glyph glyph-name="icircumflex" unicode="&#xee;" horiz-adv-x="276" 
d="M200 0h-124v547h124v-547zM192 741l100 -140l-100 -7l-54 90l-55 -90l-100 7l100 140h109z" />
    <glyph glyph-name="idieresis" unicode="&#xef;" horiz-adv-x="276" 
d="M200 0h-124v547h124v-547zM98 614h-90v120h90v-120zM267 614h-89v120h89v-120z" />
    <glyph glyph-name="eth" unicode="&#xf0;" horiz-adv-x="687" 
d="M467 694q82 -55 128 -149t46 -214q0 -101 -40 -178.5t-112 -120.5t-166 -43q-80 0 -143 30t-98.5 85.5t-35.5 129.5q0 70 33.5 125t93.5 86.5t138 31.5q63 0 115 -30t88 -85q-5 79 -33.5 141.5t-79.5 104.5l-84 -109l-60 41l81 106q-64 27 -141 27l39 83q88 3 165 -28
l62 82l61 -42zM430.5 115.5q46.5 35.5 67.5 100.5q-13 74 -62 119t-111 45q-68 0 -112.5 -42t-44.5 -109q0 -66 44 -107.5t111 -41.5q61 0 107.5 35.5z" />
    <glyph glyph-name="ntilde" unicode="&#xf1;" horiz-adv-x="677" 
d="M550.5 497q60.5 -62 60.5 -169v-328h-124v311q0 133 -128 133q-46 0 -82 -22t-56.5 -62t-20.5 -90v-270h-124v547h124v-66q33 36 81 57t108 21q101 0 161.5 -62zM171 614q0 49 27 78t68 29q20 0 37.5 -6t42.5 -17q18 -9 30 -13t23 -4q20 0 32.5 13t12.5 35l61 -16
q0 -49 -26.5 -78t-67.5 -29q-20 0 -37 5.5t-42 16.5q-36 17 -54 17q-20 0 -33 -13t-13 -34z" />
    <glyph glyph-name="ograve" unicode="&#xf2;" 
d="M191 26q-68 37 -106.5 102t-38.5 146t38.5 146t106.5 102t153 37q86 0 154 -36.5t106.5 -101.5t38.5 -146q0 -82 -38.5 -147t-106.5 -102t-154 -37q-85 0 -153 37zM469 149q48 48 48 125q0 78 -48 125t-125 47q-76 0 -124.5 -47t-48.5 -124q0 -78 49 -126t125 -48t124 48
zM391 603l-88 -7l-122 130l117 24z" />
    <glyph glyph-name="oacute" unicode="&#xf3;" 
d="M191 26q-68 37 -106.5 102t-38.5 146t38.5 146t106.5 102t153 37q86 0 154 -36.5t106.5 -101.5t38.5 -146q0 -82 -38.5 -147t-106.5 -102t-154 -37q-85 0 -153 37zM469 149q48 48 48 125q0 78 -48 125t-125 47q-76 0 -124.5 -47t-48.5 -124q0 -78 49 -126t125 -48t124 48
zM510 726l-122 -130l-88 7l93 147z" />
    <glyph glyph-name="ocircumflex" unicode="&#xf4;" 
d="M191 26q-68 37 -106.5 102t-38.5 146t38.5 146t106.5 102t153 37q86 0 154 -36.5t106.5 -101.5t38.5 -146q0 -82 -38.5 -147t-106.5 -102t-154 -37q-85 0 -153 37zM469 149q48 48 48 125q0 78 -48 125t-125 47q-76 0 -124.5 -47t-48.5 -124q0 -78 49 -126t125 -48t124 48
zM400 741l100 -140l-100 -7l-54 90l-55 -90l-100 7l100 140h109z" />
    <glyph glyph-name="otilde" unicode="&#xf5;" 
d="M191 26q-68 37 -106.5 102t-38.5 146t38.5 146t106.5 102t153 37q86 0 154 -36.5t106.5 -101.5t38.5 -146q0 -82 -38.5 -147t-106.5 -102t-154 -37q-85 0 -153 37zM469 149q48 48 48 125q0 78 -48 125t-125 47q-76 0 -124.5 -47t-48.5 -124q0 -78 49 -126t125 -48t124 48
zM177 614q0 49 27 78t68 29q20 0 37.5 -6t42.5 -17q18 -9 30 -13t23 -4q20 0 32.5 13t12.5 35l61 -16q0 -49 -26.5 -78t-67.5 -29q-20 0 -37 5.5t-42 16.5q-36 17 -54 17q-20 0 -33 -13t-13 -34z" />
    <glyph glyph-name="odieresis" unicode="&#xf6;" 
d="M191 26q-68 37 -106.5 102t-38.5 146t38.5 146t106.5 102t153 37q86 0 154 -36.5t106.5 -101.5t38.5 -146q0 -82 -38.5 -147t-106.5 -102t-154 -37q-85 0 -153 37zM469 149q48 48 48 125q0 78 -48 125t-125 47q-76 0 -124.5 -47t-48.5 -124q0 -78 49 -126t125 -48t124 48
zM306 614h-90v120h90v-120zM475 614h-89v120h89v-120z" />
    <glyph glyph-name="divide" unicode="&#xf7;" horiz-adv-x="481" 
d="M307 460h-130v115h130v-115zM450 388v-90h-420v90h420zM177 113v115h130v-115h-130z" />
    <glyph glyph-name="oslash" unicode="&#xf8;" 
d="M589 445q54 -75 54 -170q0 -82 -38.5 -147t-106.5 -102t-154 -37q-94 0 -167 45l-41 -41l-72 71l38 38q-56 73 -56 172q0 81 38.5 146t106.5 102t153 37q96 0 169 -45l47 47l72 -73zM190 190l237 238q-36 18 -83 18q-76 0 -124.5 -47t-48.5 -124q0 -45 19 -85zM469 149
q48 48 48 125q0 45 -17 82l-238 -237q36 -18 83 -18q76 0 124 48z" />
    <glyph glyph-name="ugrave" unicode="&#xf9;" horiz-adv-x="678" 
d="M477 547h124v-547h-124v66q-33 -36 -81 -57t-108 -21q-101 0 -161.5 62t-60.5 169v328h124v-311q0 -133 128 -133q46 0 82 22t56.5 62t20.5 90v270zM366 603l-88 -7l-122 130l117 24z" />
    <glyph glyph-name="uacute" unicode="&#xfa;" horiz-adv-x="678" 
d="M477 547h124v-547h-124v66q-33 -36 -81 -57t-108 -21q-101 0 -161.5 62t-60.5 169v328h124v-311q0 -133 128 -133q46 0 82 22t56.5 62t20.5 90v270zM485 726l-122 -130l-88 7l93 147z" />
    <glyph glyph-name="ucircumflex" unicode="&#xfb;" horiz-adv-x="678" 
d="M477 547h124v-547h-124v66q-33 -36 -81 -57t-108 -21q-101 0 -161.5 62t-60.5 169v328h124v-311q0 -133 128 -133q46 0 82 22t56.5 62t20.5 90v270zM375 741l100 -140l-100 -7l-54 90l-55 -90l-100 7l100 140h109z" />
    <glyph glyph-name="udieresis" unicode="&#xfc;" horiz-adv-x="678" 
d="M477 547h124v-547h-124v66q-33 -36 -81 -57t-108 -21q-101 0 -161.5 62t-60.5 169v328h124v-311q0 -133 128 -133q46 0 82 22t56.5 62t20.5 90v270zM281 614h-90v120h90v-120zM450 614h-89v120h89v-120z" />
    <glyph glyph-name="yacute" unicode="&#xfd;" horiz-adv-x="646" 
d="M489 547h136l-229 -547l-18 -41q-33 -76 -78 -108.5t-123 -32.5q-34 0 -69.5 10.5t-56.5 23.5l37 91q20 -10 42.5 -15.5t40.5 -5.5q35 0 52.5 15t33.5 53l5 11h-1l-230 546h136l161 -406h1zM504 726l-122 -130l-88 7l93 147z" />
    <glyph glyph-name="thorn" unicode="&#xfe;" horiz-adv-x="714" 
d="M543.5 521.5q58.5 -36.5 91.5 -102t33 -147.5q0 -80 -33 -144.5t-91.5 -101.5t-132.5 -37q-64 0 -117 31t-87 90v-281h-125v909h125v-300q34 59 87.5 89.5t117.5 30.5q73 0 131.5 -36.5zM464 113.5q38 23.5 59 65.5t21 94q0 53 -21 95t-59 65.5t-86 23.5q-49 0 -88 -23.5
t-61 -65.5t-22 -95q0 -52 22 -94t61 -65.5t88 -23.5q48 0 86 23.5z" />
    <glyph glyph-name="ydieresis" unicode="&#xff;" horiz-adv-x="646" 
d="M489 547h136l-229 -547l-18 -41q-33 -76 -78 -108.5t-123 -32.5q-34 0 -69.5 10.5t-56.5 23.5l37 91q20 -10 42.5 -15.5t40.5 -5.5q35 0 52.5 15t33.5 53l5 11h-1l-230 546h136l161 -406h1zM300 614h-90v120h90v-120zM469 614h-89v120h89v-120z" />
    <glyph glyph-name="Amacron" unicode="&#x100;" horiz-adv-x="792" 
d="M775 0h-138l-56 129h-372l-56 -129h-136l314 700h129zM395 559l-137 -317h274zM550 774h-317v78h317v-78z" />
    <glyph glyph-name="amacron" unicode="&#x101;" horiz-adv-x="607" 
d="M477 499q64 -60 64 -170v-329h-124v65q-29 -32 -78 -54t-116 -22q-57 0 -100.5 22.5t-67 62.5t-23.5 90q0 79 54 131t166 52q78 0 164 -9q-3 52 -39.5 80.5t-104.5 28.5q-38 0 -80 -16t-72 -43l-61 91q48 40 108 60t118 20q128 0 192 -60zM368 137q43 37 48 92v9
q-61 9 -134 9q-71 0 -101 -20t-30 -56q0 -71 113 -71q61 0 104 37zM460 633h-317v78h317v-78z" />
    <glyph glyph-name="Abreve" unicode="&#x102;" horiz-adv-x="792" 
d="M775 0h-138l-56 129h-372l-56 -129h-136l314 700h129zM395 559l-137 -317h274zM543 882q0 -64 -41 -101.5t-110 -37.5q-68 0 -109 37.5t-41 101.5l93 1q0 -36 13 -52t44 -16t44.5 16t13.5 52z" />
    <glyph glyph-name="abreve" unicode="&#x103;" horiz-adv-x="607" 
d="M477 499q64 -60 64 -170v-329h-124v65q-29 -32 -78 -54t-116 -22q-57 0 -100.5 22.5t-67 62.5t-23.5 90q0 79 54 131t166 52q78 0 164 -9q-3 52 -39.5 80.5t-104.5 28.5q-38 0 -80 -16t-72 -43l-61 91q48 40 108 60t118 20q128 0 192 -60zM368 137q43 37 48 92v9
q-61 9 -134 9q-71 0 -101 -20t-30 -56q0 -71 113 -71q61 0 104 37zM442 731q0 -64 -41 -101.5t-110 -37.5q-68 0 -109 37.5t-41 101.5l93 1q0 -36 13 -52t44 -16t44.5 16t13.5 52z" />
    <glyph glyph-name="Aogonek" unicode="&#x104;" horiz-adv-x="792" 
d="M806 -190q-46 -9 -82 -9q-62 0 -94.5 24.5t-32.5 64.5q0 32 21.5 61t56.5 49h-38l-56 129h-372l-56 -129h-136l314 700h129l315 -700q-33 -18 -51 -40t-18 -41q0 -42 56 -42q19 0 38 4zM395 559l-137 -317h274z" />
    <glyph glyph-name="aogonek" unicode="&#x105;" horiz-adv-x="607" 
d="M572 -190q-47 -9 -82 -9q-62 0 -94.5 24.5t-32.5 64.5q0 32 21.5 61t56.5 49h-24v65q-29 -32 -78 -54t-116 -22q-57 0 -100.5 22.5t-67 62.5t-23.5 90q0 79 54 131t166 52q78 0 164 -9q-3 52 -39.5 80.5t-104.5 28.5q-38 0 -80 -16t-72 -43l-61 91q48 40 108 60t118 20
q128 0 192 -60t64 -170v-329q-33 -18 -51 -40t-18 -41q0 -42 56 -42q19 0 38 4zM368 137q43 37 48 92v9q-61 9 -134 9q-71 0 -101 -20t-30 -56q0 -71 113 -71q61 0 104 37z" />
    <glyph glyph-name="Cacute" unicode="&#x106;" horiz-adv-x="731" 
d="M242 36q-85 47 -133.5 129.5t-48.5 184.5t48 184.5t132 129.5t188 47q169 0 277 -113l-85 -81q-73 78 -187 78q-68 0 -122 -31t-85 -86.5t-31 -126.5q0 -72 31 -128t85 -87t121 -31q115 0 190 80l85 -79q-50 -57 -121 -87t-154 -30q-105 0 -190 47zM583 847l-105 -104
l-87 6l84 123z" />
    <glyph glyph-name="cacute" unicode="&#x107;" horiz-adv-x="585" 
d="M193 25.5q-68 36.5 -107.5 101t-39.5 146.5t39.5 147.5t107.5 102t151 36.5q63 0 120 -24t98 -71l-88 -74q-27 30 -59 43t-73 13q-73 0 -121.5 -45.5t-48.5 -126.5t49 -127t125 -46q40 0 70.5 12.5t57.5 44.5l88 -75q-40 -46 -97 -70t-121 -24q-83 0 -151 36.5zM509 726
l-122 -130l-88 7l93 147z" />
    <glyph glyph-name="Ccircumflex" unicode="&#x108;" horiz-adv-x="731" 
d="M242 36q-85 47 -133.5 129.5t-48.5 184.5t48 184.5t132 129.5t188 47q169 0 277 -113l-85 -81q-73 78 -187 78q-68 0 -122 -31t-85 -86.5t-31 -126.5q0 -72 31 -128t85 -87t121 -31q115 0 190 80l85 -79q-50 -57 -121 -87t-154 -30q-105 0 -190 47zM491 881l106 -127
l-106 -6l-57 81l-58 -81l-106 6l106 127h115z" />
    <glyph glyph-name="ccircumflex" unicode="&#x109;" horiz-adv-x="585" 
d="M193 25.5q-68 36.5 -107.5 101t-39.5 146.5t39.5 147.5t107.5 102t151 36.5q63 0 120 -24t98 -71l-88 -74q-27 30 -59 43t-73 13q-73 0 -121.5 -45.5t-48.5 -126.5t49 -127t125 -46q40 0 70.5 12.5t57.5 44.5l88 -75q-40 -46 -97 -70t-121 -24q-83 0 -151 36.5zM399 741
l100 -140l-100 -7l-54 90l-55 -90l-100 7l100 140h109z" />
    <glyph glyph-name="Cdotaccent" unicode="&#x10a;" horiz-adv-x="731" 
d="M242 36q-85 47 -133.5 129.5t-48.5 184.5t48 184.5t132 129.5t188 47q169 0 277 -113l-85 -81q-73 78 -187 78q-68 0 -122 -31t-85 -86.5t-31 -126.5q0 -72 31 -128t85 -87t121 -31q115 0 190 80l85 -79q-50 -57 -121 -87t-154 -30q-105 0 -190 47zM496 757h-129v117h129
v-117z" />
    <glyph glyph-name="cdotaccent" unicode="&#x10b;" horiz-adv-x="585" 
d="M193 25.5q-68 36.5 -107.5 101t-39.5 146.5t39.5 147.5t107.5 102t151 36.5q63 0 120 -24t98 -71l-88 -74q-27 30 -59 43t-73 13q-73 0 -121.5 -45.5t-48.5 -126.5t49 -127t125 -46q40 0 70.5 12.5t57.5 44.5l88 -75q-40 -46 -97 -70t-121 -24q-83 0 -151 36.5zM408 614
h-129v120h129v-120z" />
    <glyph glyph-name="Ccaron" unicode="&#x10c;" horiz-adv-x="731" 
d="M242 36q-85 47 -133.5 129.5t-48.5 184.5t48 184.5t132 129.5t188 47q169 0 277 -113l-85 -81q-73 78 -187 78q-68 0 -122 -31t-85 -86.5t-31 -126.5q0 -72 31 -128t85 -87t121 -31q115 0 190 80l85 -79q-50 -57 -121 -87t-154 -30q-105 0 -190 47zM434 794l57 79l106 -6
l-106 -123h-115l-106 123l106 6z" />
    <glyph glyph-name="ccaron" unicode="&#x10d;" horiz-adv-x="585" 
d="M193 25.5q-68 36.5 -107.5 101t-39.5 146.5t39.5 147.5t107.5 102t151 36.5q63 0 120 -24t98 -71l-88 -74q-27 30 -59 43t-73 13q-73 0 -121.5 -45.5t-48.5 -126.5t49 -127t125 -46q40 0 70.5 12.5t57.5 44.5l88 -75q-40 -46 -97 -70t-121 -24q-83 0 -151 36.5zM345 651
l54 90l100 -7l-100 -140h-109l-100 140l100 7z" />
    <glyph glyph-name="Dcaron" unicode="&#x10e;" horiz-adv-x="832" 
d="M92 0v700h295q116 0 203 -43t134 -122t47 -184q0 -106 -47 -185.5t-134 -122.5t-203 -43h-295zM382 114q117 0 185 62.5t68 173.5t-68 173.5t-186 62.5h-160v-472h161zM327 796l57 79l106 -6l-106 -123h-115l-106 123l106 6z" />
    <glyph glyph-name="dcaron" unicode="&#x10f;" horiz-adv-x="793" 
d="M510 738h124v-738h-124v65q-36 -37 -86 -56.5t-108 -19.5q-73 0 -134.5 37t-97.5 102t-36 147q0 84 36 148.5t97 100t136 35.5q58 0 108 -19t85 -56v254zM699 520v218h95l-30 -218h-65zM462 148.5q48 46.5 48 125.5t-47.5 124.5t-124.5 45.5q-73 0 -119.5 -47t-46.5 -122
q0 -78 46 -125.5t120 -47.5q76 0 124 46.5z" />
    <glyph glyph-name="Dcroat" unicode="&#x110;" horiz-adv-x="832" 
d="M387 700q116 0 203 -43t134 -122t47 -184q0 -106 -47 -185.5t-134 -122.5t-203 -43h-295v309h-55v91h55v300h295zM382 114q117 0 185 62.5t68 173.5t-68 173.5t-186 62.5h-160v-186h208v-91h-208v-195h161z" />
    <glyph glyph-name="dcroat" unicode="&#x111;" horiz-adv-x="716" 
d="M692 669v-82h-58v-587h-124v65q-36 -37 -86 -56.5t-108 -19.5q-73 0 -134.5 37t-97.5 102t-36 147q0 84 36 148.5t97 100t136 35.5q58 0 108 -19t85 -56v103h-160v82h160v69h124v-69h58zM462 148.5q48 46.5 48 125.5t-47.5 124.5t-124.5 45.5q-73 0 -119.5 -47
t-46.5 -122q0 -78 46 -125.5t120 -47.5q76 0 124 46.5z" />
    <glyph glyph-name="Emacron" unicode="&#x112;" horiz-adv-x="701" 
d="M219 304v-190h431v-114h-558v700h548v-114h-421v-168h377v-114h-377zM501 774h-317v78h317v-78z" />
    <glyph glyph-name="emacron" unicode="&#x113;" horiz-adv-x="623" 
d="M175 225q12 -58 59 -91t116 -33q47 0 79.5 12.5t59.5 42.5l80 -71q-90 -95 -225 -95q-85 0 -153 36.5t-106.5 101.5t-38.5 146t36.5 145.5t102.5 101t151 36.5q77 0 137 -33.5t93.5 -92t33.5 -132.5q0 -24 -6 -74h-419zM231 415q-42 -32 -54 -87h300q-10 59 -47 89
t-95 30q-62 0 -104 -32zM492 631h-317v78h317v-78z" />
    <glyph glyph-name="Ebreve" unicode="&#x114;" horiz-adv-x="701" 
d="M219 304v-190h431v-114h-558v700h548v-114h-421v-168h377v-114h-377zM494 882q0 -64 -41 -101.5t-110 -37.5q-68 0 -109 37.5t-41 101.5l93 1q0 -36 13 -52t44 -16t44.5 16t13.5 52z" />
    <glyph glyph-name="ebreve" unicode="&#x115;" horiz-adv-x="623" 
d="M175 225q12 -58 59 -91t116 -33q47 0 79.5 12.5t59.5 42.5l80 -71q-90 -95 -225 -95q-85 0 -153 36.5t-106.5 101.5t-38.5 146t36.5 145.5t102.5 101t151 36.5q77 0 137 -33.5t93.5 -92t33.5 -132.5q0 -24 -6 -74h-419zM231 415q-42 -32 -54 -87h300q-10 59 -47 89
t-95 30q-62 0 -104 -32zM474 729q0 -64 -41 -101.5t-110 -37.5q-68 0 -109 37.5t-41 101.5l93 1q0 -36 13 -52t44 -16t44.5 16t13.5 52z" />
    <glyph glyph-name="Edotaccent" unicode="&#x116;" horiz-adv-x="701" 
d="M219 304v-190h431v-114h-558v700h548v-114h-421v-168h377v-114h-377zM410 759h-129v117h129v-117z" />
    <glyph glyph-name="edotaccent" unicode="&#x117;" horiz-adv-x="623" 
d="M175 225q12 -58 59 -91t116 -33q47 0 79.5 12.5t59.5 42.5l80 -71q-90 -95 -225 -95q-85 0 -153 36.5t-106.5 101.5t-38.5 146t36.5 145.5t102.5 101t151 36.5q77 0 137 -33.5t93.5 -92t33.5 -132.5q0 -24 -6 -74h-419zM231 415q-42 -32 -54 -87h300q-10 59 -47 89
t-95 30q-62 0 -104 -32zM387 614h-129v120h129v-120z" />
    <glyph glyph-name="Eogonek" unicode="&#x118;" horiz-adv-x="701" 
d="M682 -190q-46 -9 -82 -9q-62 0 -94.5 24.5t-32.5 64.5q0 32 21.5 61t56.5 49h-459v700h548v-114h-421v-168h377v-114h-377v-190h431v-114h1q-33 -18 -51 -40t-18 -41q0 -42 56 -42q19 0 38 4z" />
    <glyph glyph-name="eogonek" unicode="&#x119;" horiz-adv-x="623" 
d="M175 225q12 -58 59 -91t116 -33q47 0 79.5 12.5t59.5 42.5l80 -71q-33 -35 -70 -56q-33 -28 -33 -56q0 -42 56 -42q19 0 38 4l6 -71q-46 -9 -82 -9q-62 0 -94.5 24.5t-32.5 64.5q0 23 13 47q-9 -1 -26 -1q-85 0 -153 36.5t-106.5 101.5t-38.5 146t36.5 145.5t102.5 101
t151 36.5q77 0 137 -33.5t93.5 -92t33.5 -132.5q0 -24 -6 -74h-419zM231 415q-42 -32 -54 -87h300q-10 59 -47 89t-95 30q-62 0 -104 -32z" />
    <glyph glyph-name="Ecaron" unicode="&#x11a;" horiz-adv-x="701" 
d="M219 304v-190h431v-114h-558v700h548v-114h-421v-168h377v-114h-377zM349 796l57 79l106 -6l-106 -123h-115l-106 123l106 6z" />
    <glyph glyph-name="ecaron" unicode="&#x11b;" horiz-adv-x="623" 
d="M175 225q12 -58 59 -91t116 -33q47 0 79.5 12.5t59.5 42.5l80 -71q-90 -95 -225 -95q-85 0 -153 36.5t-106.5 101.5t-38.5 146t36.5 145.5t102.5 101t151 36.5q77 0 137 -33.5t93.5 -92t33.5 -132.5q0 -24 -6 -74h-419zM231 415q-42 -32 -54 -87h300q-10 59 -47 89
t-95 30q-62 0 -104 -32zM324 651l54 90l100 -7l-100 -140h-109l-100 140l100 7z" />
    <glyph glyph-name="Gcircumflex" unicode="&#x11c;" horiz-adv-x="786" 
d="M241.5 35.5q-85.5 46.5 -133.5 128.5t-48 185q0 104 47.5 186.5t132 129t191.5 46.5q78 0 147.5 -28t123.5 -83l-83 -81q-76 76 -185 76q-69 0 -123.5 -30t-85 -86t-30.5 -130t30.5 -129t86 -85t128.5 -30q92 0 159 52v203h116v-259q-55 -54 -128 -83t-153 -29
q-107 0 -192.5 46.5zM503 883l106 -127l-106 -6l-57 81l-58 -81l-106 6l106 127h115z" />
    <glyph glyph-name="gcircumflex" unicode="&#x11d;" horiz-adv-x="643" 
d="M389 145q110 0 165 -40t55 -109q0 -81 -78 -129.5t-225 -48.5q-121 0 -188 37.5t-67 105.5q0 30 19.5 54t51.5 42q-23 14 -35.5 36t-12.5 48q0 33 17.5 58.5t45.5 40.5q-30 24 -46 58.5t-16 76.5q0 85 64.5 134.5t176.5 49.5q69 0 113 -20l143 48l28 -100l-80 -15
q18 -18 28.5 -43t10.5 -54q0 -86 -64.5 -136t-176.5 -50q-54 0 -103 13q-19 -11 -19 -30q0 -16 12 -21.5t35 -5.5h146zM198 376q0 -40 30 -60.5t89 -20.5t89 20.5t30 59.5q0 78 -119 78t-119 -77zM442.5 -58q41.5 13 41.5 47q0 28 -30 37t-101 9h-142q-34 -27 -34 -55
q0 -30 32.5 -40.5t103.5 -10.5q88 0 129.5 13zM381 741l100 -140l-100 -7l-54 90l-55 -90l-100 7l100 140h109z" />
    <glyph glyph-name="Gbreve" unicode="&#x11e;" horiz-adv-x="786" 
d="M241.5 35.5q-85.5 46.5 -133.5 128.5t-48 185q0 104 47.5 186.5t132 129t191.5 46.5q78 0 147.5 -28t123.5 -83l-83 -81q-76 76 -185 76q-69 0 -123.5 -30t-85 -86t-30.5 -130t30.5 -129t86 -85t128.5 -30q92 0 159 52v203h116v-259q-55 -54 -128 -83t-153 -29
q-107 0 -192.5 46.5zM591 882q0 -64 -41 -101.5t-110 -37.5q-68 0 -109 37.5t-41 101.5l93 1q0 -36 13 -52t44 -16t44.5 16t13.5 52z" />
    <glyph glyph-name="gbreve" unicode="&#x11f;" horiz-adv-x="643" 
d="M389 145q110 0 165 -40t55 -109q0 -81 -78 -129.5t-225 -48.5q-121 0 -188 37.5t-67 105.5q0 30 19.5 54t51.5 42q-23 14 -35.5 36t-12.5 48q0 33 17.5 58.5t45.5 40.5q-30 24 -46 58.5t-16 76.5q0 85 64.5 134.5t176.5 49.5q69 0 113 -20l143 48l28 -100l-80 -15
q18 -18 28.5 -43t10.5 -54q0 -86 -64.5 -136t-176.5 -50q-54 0 -103 13q-19 -11 -19 -30q0 -16 12 -21.5t35 -5.5h146zM198 376q0 -40 30 -60.5t89 -20.5t89 20.5t30 59.5q0 78 -119 78t-119 -77zM442.5 -58q41.5 13 41.5 47q0 28 -30 37t-101 9h-142q-34 -27 -34 -55
q0 -30 32.5 -40.5t103.5 -10.5q88 0 129.5 13zM477 729q0 -64 -41 -101.5t-110 -37.5q-68 0 -109 37.5t-41 101.5l93 1q0 -36 13 -52t44 -16t44.5 16t13.5 52z" />
    <glyph glyph-name="Gdotaccent" unicode="&#x120;" horiz-adv-x="786" 
d="M241.5 35.5q-85.5 46.5 -133.5 128.5t-48 185q0 104 47.5 186.5t132 129t191.5 46.5q78 0 147.5 -28t123.5 -83l-83 -81q-76 76 -185 76q-69 0 -123.5 -30t-85 -86t-30.5 -130t30.5 -129t86 -85t128.5 -30q92 0 159 52v203h116v-259q-55 -54 -128 -83t-153 -29
q-107 0 -192.5 46.5zM508 759h-129v117h129v-117z" />
    <glyph glyph-name="gdotaccent" unicode="&#x121;" horiz-adv-x="643" 
d="M389 145q110 0 165 -40t55 -109q0 -81 -78 -129.5t-225 -48.5q-121 0 -188 37.5t-67 105.5q0 30 19.5 54t51.5 42q-23 14 -35.5 36t-12.5 48q0 33 17.5 58.5t45.5 40.5q-30 24 -46 58.5t-16 76.5q0 85 64.5 134.5t176.5 49.5q69 0 113 -20l143 48l28 -100l-80 -15
q18 -18 28.5 -43t10.5 -54q0 -86 -64.5 -136t-176.5 -50q-54 0 -103 13q-19 -11 -19 -30q0 -16 12 -21.5t35 -5.5h146zM198 376q0 -40 30 -60.5t89 -20.5t89 20.5t30 59.5q0 78 -119 78t-119 -77zM442.5 -58q41.5 13 41.5 47q0 28 -30 37t-101 9h-142q-34 -27 -34 -55
q0 -30 32.5 -40.5t103.5 -10.5q88 0 129.5 13zM391 614h-129v120h129v-120z" />
    <glyph glyph-name="uni0122" unicode="&#x122;" horiz-adv-x="786" 
d="M241.5 35.5q-85.5 46.5 -133.5 128.5t-48 185q0 104 47.5 186.5t132 129t191.5 46.5q78 0 147.5 -28t123.5 -83l-83 -81q-76 76 -185 76q-69 0 -123.5 -30t-85 -86t-30.5 -130t30.5 -129t86 -85t128.5 -30q92 0 159 52v203h116v-259q-55 -54 -128 -83t-153 -29
q-107 0 -192.5 46.5zM339 -187q29 11 41 28.5t10 40.5h-51v83h115q8 -37 8 -62q0 -101 -103 -134z" />
    <glyph glyph-name="uni0123" unicode="&#x123;" horiz-adv-x="643" 
d="M389 145q110 0 165 -40t55 -109q0 -81 -78 -129.5t-225 -48.5q-121 0 -188 37.5t-67 105.5q0 30 19.5 54t51.5 42q-23 14 -35.5 36t-12.5 48q0 33 17.5 58.5t45.5 40.5q-30 24 -46 58.5t-16 76.5q0 85 64.5 134.5t176.5 49.5q69 0 113 -20l143 48l28 -100l-80 -15
q18 -18 28.5 -43t10.5 -54q0 -86 -64.5 -136t-176.5 -50q-54 0 -103 13q-19 -11 -19 -30q0 -16 12 -21.5t35 -5.5h146zM198 376q0 -40 30 -60.5t89 -20.5t89 20.5t30 59.5q0 78 -119 78t-119 -77zM442.5 -58q41.5 13 41.5 47q0 28 -30 37t-101 9h-142q-34 -27 -34 -55
q0 -30 32.5 -40.5t103.5 -10.5q88 0 129.5 13zM414 741q-54 -20 -51 -69h51v-83h-115q-8 37 -8 62q0 101 103 134z" />
    <glyph glyph-name="Hcircumflex" unicode="&#x124;" horiz-adv-x="805" 
d="M583 405v295h130v-700h-130v291h-361v-291h-130v700h130v-295h361zM461 883l106 -127l-106 -6l-57 81l-58 -81l-106 6l106 127h115z" />
    <glyph glyph-name="hcircumflex" unicode="&#x125;" horiz-adv-x="683" 
d="M556.5 497q60.5 -62 60.5 -169v-328h-124v311q0 133 -128 133q-46 0 -82 -22t-56.5 -62t-20.5 -90v-270h-124v738h124v-257q33 36 81 57t108 21q101 0 161.5 -62zM404 921l106 -127l-106 -6l-57 81l-58 -81l-106 6l106 127h115z" />
    <glyph glyph-name="Hbar" unicode="&#x126;" horiz-adv-x="805" 
d="M713 603h47v-91h-47v-512h-130v291h-361v-291h-130v512h-37v91h37v97h130v-97h361v97h130v-97zM222 405h361v107h-361v-107z" />
    <glyph glyph-name="hbar" unicode="&#x127;" horiz-adv-x="683" 
d="M556.5 497q60.5 -62 60.5 -169v-328h-124v311q0 133 -128 133q-46 0 -82 -22t-56.5 -62t-20.5 -90v-270h-124v584h-69v82h69v72h124v-72h149v-82h-149v-103q33 36 81 57t108 21q101 0 161.5 -62z" />
    <glyph glyph-name="Itilde" unicode="&#x128;" horiz-adv-x="313" 
d="M221 0h-129v700h129v-700zM-17 760q0 49 27 78t68 29q20 0 37.5 -6t42.5 -17q18 -9 30 -13t23 -4q20 0 32.5 13t12.5 35l61 -16q0 -49 -26.5 -78t-67.5 -29q-20 0 -37 5.5t-42 16.5q-36 17 -54 17q-20 0 -33 -13t-13 -34z" />
    <glyph glyph-name="itilde" unicode="&#x129;" horiz-adv-x="276" 
d="M200 0h-124v547h124v-547zM-30 614q0 49 27 78t68 29q20 0 37.5 -6t42.5 -17q18 -9 30 -13t23 -4q20 0 32.5 13t12.5 35l61 -16q0 -49 -26.5 -78t-67.5 -29q-20 0 -37 5.5t-42 16.5q-36 17 -54 17q-20 0 -33 -13t-13 -34z" />
    <glyph glyph-name="Imacron" unicode="&#x12a;" horiz-adv-x="313" 
d="M221 0h-129v700h129v-700zM311 774h-317v78h317v-78z" />
    <glyph glyph-name="imacron" unicode="&#x12b;" horiz-adv-x="276" 
d="M200 0h-124v547h124v-547zM306 631h-317v78h317v-78z" />
    <glyph glyph-name="Ibreve" unicode="&#x12c;" horiz-adv-x="313" 
d="M221 0h-129v700h129v-700zM304 882q0 -64 -41 -101.5t-110 -37.5q-68 0 -109 37.5t-41 101.5l93 1q0 -36 13 -52t44 -16t44.5 16t13.5 52z" />
    <glyph glyph-name="ibreve" unicode="&#x12d;" horiz-adv-x="276" 
d="M200 0h-124v547h124v-547zM288 729q0 -64 -41 -101.5t-110 -37.5q-68 0 -109 37.5t-41 101.5l93 1q0 -36 13 -52t44 -16t44.5 16t13.5 52z" />
    <glyph glyph-name="Iogonek" unicode="&#x12e;" horiz-adv-x="313" 
d="M237 -190q-46 -9 -82 -9q-62 0 -94.5 24.5t-32.5 64.5q0 32 21.5 61t56.5 49h-14v700h129v-700h-15q-33 -18 -51 -40t-18 -41q0 -42 56 -42q19 0 38 4z" />
    <glyph glyph-name="iogonek" unicode="&#x12f;" horiz-adv-x="276" 
d="M73 734h129v-120h-129v120zM231 -190q-46 -9 -82 -9q-62 0 -94.5 24.5t-32.5 64.5q0 32 21.5 61t56.5 49h-24v547h124v-547q-33 -18 -51 -40t-18 -41q0 -42 56 -42q19 0 38 4z" />
    <glyph glyph-name="Idotaccent" unicode="&#x130;" horiz-adv-x="313" 
d="M221 0h-129v700h129v-700zM221 759h-129v117h129v-117z" />
    <glyph glyph-name="dotlessi" unicode="&#x131;" horiz-adv-x="276" 
d="M200 0h-124v547h124v-547z" />
    <glyph glyph-name="IJ" unicode="&#x132;" horiz-adv-x="894" 
d="M221 0h-129v700h129v-700zM426.5 23q-64.5 34 -102.5 91l84 78q27 -39 66.5 -62.5t87.5 -23.5q62 0 99.5 42t37.5 109v329h-240v114h365v-444q0 -79 -32 -139.5t-89.5 -94t-133.5 -33.5q-78 0 -142.5 34z" />
    <glyph glyph-name="ij" unicode="&#x133;" horiz-adv-x="567" 
d="M200 0h-124v547h124v-547zM202 614h-129v120h129v-120zM245 -56q20 -10 46 -10q36 0 55.5 18.5t19.5 53.5v541h125v-551q0 -82 -51.5 -127t-132.5 -45q-51 0 -94 21zM492 614h-129v120h129v-120z" />
    <glyph glyph-name="Jcircumflex" unicode="&#x134;" horiz-adv-x="582" 
d="M113.5 23q-64.5 34 -102.5 91l84 78q27 -39 66.5 -62.5t87.5 -23.5q62 0 99.5 42t37.5 109v329h-240v114h365v-444q0 -79 -32 -139.5t-89.5 -94t-133.5 -33.5q-78 0 -142.5 34zM389 883l106 -127l-106 -6l-57 81l-58 -81l-106 6l106 127h115z" />
    <glyph glyph-name="jcircumflex" unicode="&#x135;" horiz-adv-x="291" 
d="M-31 -56q20 -10 46 -10q36 0 55.5 18.5t19.5 53.5v541h125v-551q0 -82 -51.5 -127t-132.5 -45q-51 0 -94 21zM206 741l100 -140l-100 -7l-54 90l-55 -90l-100 7l100 140h109z" />
    <glyph glyph-name="uni0136" unicode="&#x136;" horiz-adv-x="759" 
d="M734 0h-150l-218 312l-145 -159v-153h-129v700h129v-385l336 385h161l-265 -291zM314 -187q29 11 41 28.5t10 40.5h-51v83h115q8 -37 8 -62q0 -101 -103 -134z" />
    <glyph glyph-name="uni0137" unicode="&#x137;" horiz-adv-x="665" 
d="M655 0h-147l-191 233l-111 -113v-120h-124v738h124v-469l255 278h162l-228 -233zM273 -187q29 11 41 28.5t10 40.5h-51v83h115q8 -37 8 -62q0 -101 -103 -134z" />
    <glyph glyph-name="kgreenlandic" unicode="&#x138;" horiz-adv-x="680" 
d="M655 0h-147l-191 233l-111 -113v-120h-124v547h124v-278l255 278h162l-228 -233z" />
    <glyph glyph-name="Lacute" unicode="&#x139;" horiz-adv-x="624" 
d="M603 0h-511v700h128v-586h383v-114zM465 849l-105 -104l-87 6l84 123z" />
    <glyph glyph-name="lacute" unicode="&#x13a;" horiz-adv-x="288" 
d="M206 0h-124v738h124v-738zM308 917l-122 -130l-88 7l93 147z" />
    <glyph glyph-name="uni013B" unicode="&#x13b;" horiz-adv-x="624" 
d="M603 0h-511v700h128v-586h383v-114zM254 -187q29 11 41 28.5t10 40.5h-51v83h115q8 -37 8 -62q0 -101 -103 -134z" />
    <glyph glyph-name="uni013C" unicode="&#x13c;" horiz-adv-x="288" 
d="M206 0h-124v738h124v-738zM83 -187q29 11 41 28.5t10 40.5h-51v83h115q8 -37 8 -62q0 -101 -103 -134z" />
    <glyph glyph-name="Lcaron" unicode="&#x13d;" horiz-adv-x="624" 
d="M603 0h-511v700h128v-586h383v-114zM459 482v218h94l-29 -218h-65z" />
    <glyph glyph-name="lcaron" unicode="&#x13e;" horiz-adv-x="353" 
d="M206 0h-124v738h124v-738zM260 520v218h94l-29 -218h-65z" />
    <glyph glyph-name="Ldot" unicode="&#x13f;" horiz-adv-x="624" 
d="M603 0h-511v700h128v-586h383v-114zM362 312v110h126v-110h-126z" />
    <glyph glyph-name="ldot" unicode="&#x140;" horiz-adv-x="368" 
d="M206 0h-124v738h124v-738zM268 330v96h110v-96h-110z" />
    <glyph glyph-name="Lslash" unicode="&#x141;" horiz-adv-x="624" 
d="M220 341v-227h383v-114h-511v275l-56 -29l-36 71l92 48v335h128v-269l64 33l36 -72z" />
    <glyph glyph-name="lslash" unicode="&#x142;" horiz-adv-x="288" 
d="M265 483l36 -72l-95 -49v-362h-124v298l-65 -33l-36 71l101 52v350h124v-286z" />
    <glyph glyph-name="Nacute" unicode="&#x143;" horiz-adv-x="816" 
d="M221 0h-129v700h111l391 -477v477h130v-700h-108l-395 483v-483zM559 849l-105 -104l-87 6l84 123z" />
    <glyph glyph-name="nacute" unicode="&#x144;" horiz-adv-x="677" 
d="M550.5 497q60.5 -62 60.5 -169v-328h-124v311q0 133 -128 133q-46 0 -82 -22t-56.5 -62t-20.5 -90v-270h-124v547h124v-66q33 36 81 57t108 21q101 0 161.5 -62zM504 726l-122 -130l-88 7l93 147z" />
    <glyph glyph-name="uni0145" unicode="&#x145;" horiz-adv-x="816" 
d="M221 0h-129v700h111l391 -477v477h130v-700h-108l-395 483v-483zM347 -187q29 11 41 28.5t10 40.5h-51v83h115q8 -37 8 -62q0 -101 -103 -134z" />
    <glyph glyph-name="uni0146" unicode="&#x146;" horiz-adv-x="677" 
d="M550.5 497q60.5 -62 60.5 -169v-328h-124v311q0 133 -128 133q-46 0 -82 -22t-56.5 -62t-20.5 -90v-270h-124v547h124v-66q33 36 81 57t108 21q101 0 161.5 -62zM279 -187q29 11 41 28.5t10 40.5h-51v83h115q8 -37 8 -62q0 -101 -103 -134z" />
    <glyph glyph-name="Ncaron" unicode="&#x147;" horiz-adv-x="816" 
d="M221 0h-129v700h111l391 -477v477h130v-700h-108l-395 483v-483zM410 796l57 79l106 -6l-106 -123h-115l-106 123l106 6z" />
    <glyph glyph-name="ncaron" unicode="&#x148;" horiz-adv-x="677" 
d="M550.5 497q60.5 -62 60.5 -169v-328h-124v311q0 133 -128 133q-46 0 -82 -22t-56.5 -62t-20.5 -90v-270h-124v547h124v-66q33 36 81 57t108 21q101 0 161.5 -62zM340 651l54 90l100 -7l-100 -140h-109l-100 140l100 7z" />
    <glyph glyph-name="Eng" unicode="&#x14a;" horiz-adv-x="802" 
d="M724 700v-700h-4v-8q0 -87 -46.5 -128.5t-130.5 -41.5q-57 0 -107 25l29 93q26 -14 55 -14q33 0 53.5 19.5t20.5 57.5v24l-373 456v-483h-129v700h111l391 -477v477h130z" />
    <glyph glyph-name="eng" unicode="&#x14b;" horiz-adv-x="677" 
d="M550.5 497q60.5 -62 60.5 -169v-336q0 -87 -45.5 -128.5t-128.5 -41.5q-56 0 -104 25l28 93q25 -14 54 -14q32 0 52 19.5t20 57.5v308q0 133 -128 133q-46 0 -82 -22t-56.5 -62t-20.5 -90v-270h-124v547h124v-66q33 36 81 57t108 21q101 0 161.5 -62z" />
    <glyph glyph-name="Omacron" unicode="&#x14c;" horiz-adv-x="863" 
d="M240.5 35.5q-84.5 46.5 -132.5 128.5t-48 186q0 103 48 185.5t132.5 129t191.5 46.5q106 0 190.5 -46.5t132.5 -128.5t48 -186q0 -103 -48 -185.5t-132.5 -129t-191.5 -46.5q-106 0 -190.5 46.5zM554 136.5q53 30.5 83 86t30 127.5t-30 127.5t-83 86t-122 30.5
t-122.5 -30.5t-83.5 -86t-30 -127.5t30 -127.5t83.5 -86t122.5 -30.5t122 30.5zM586 774h-317v78h317v-78z" />
    <glyph glyph-name="omacron" unicode="&#x14d;" 
d="M191 26q-68 37 -106.5 102t-38.5 146t38.5 146t106.5 102t153 37q86 0 154 -36.5t106.5 -101.5t38.5 -146q0 -82 -38.5 -147t-106.5 -102t-154 -37q-85 0 -153 37zM469 149q48 48 48 125q0 78 -48 125t-125 47q-76 0 -124.5 -47t-48.5 -124q0 -78 49 -126t125 -48t124 48
zM514 631h-317v78h317v-78z" />
    <glyph glyph-name="Obreve" unicode="&#x14e;" horiz-adv-x="863" 
d="M240.5 35.5q-84.5 46.5 -132.5 128.5t-48 186q0 103 48 185.5t132.5 129t191.5 46.5q106 0 190.5 -46.5t132.5 -128.5t48 -186q0 -103 -48 -185.5t-132.5 -129t-191.5 -46.5q-106 0 -190.5 46.5zM554 136.5q53 30.5 83 86t30 127.5t-30 127.5t-83 86t-122 30.5
t-122.5 -30.5t-83.5 -86t-30 -127.5t30 -127.5t83.5 -86t122.5 -30.5t122 30.5zM579 882q0 -64 -41 -101.5t-110 -37.5q-68 0 -109 37.5t-41 101.5l93 1q0 -36 13 -52t44 -16t44.5 16t13.5 52z" />
    <glyph glyph-name="obreve" unicode="&#x14f;" 
d="M191 26q-68 37 -106.5 102t-38.5 146t38.5 146t106.5 102t153 37q86 0 154 -36.5t106.5 -101.5t38.5 -146q0 -82 -38.5 -147t-106.5 -102t-154 -37q-85 0 -153 37zM469 149q48 48 48 125q0 78 -48 125t-125 47q-76 0 -124.5 -47t-48.5 -124q0 -78 49 -126t125 -48t124 48
zM496 729q0 -64 -41 -101.5t-110 -37.5q-68 0 -109 37.5t-41 101.5l93 1q0 -36 13 -52t44 -16t44.5 16t13.5 52z" />
    <glyph glyph-name="Ohungarumlaut" unicode="&#x150;" horiz-adv-x="863" 
d="M240.5 35.5q-84.5 46.5 -132.5 128.5t-48 186q0 103 48 185.5t132.5 129t191.5 46.5q106 0 190.5 -46.5t132.5 -128.5t48 -186q0 -103 -48 -185.5t-132.5 -129t-191.5 -46.5q-106 0 -190.5 46.5zM554 136.5q53 30.5 83 86t30 127.5t-30 127.5t-83 86t-122 30.5
t-122.5 -30.5t-83.5 -86t-30 -127.5t30 -127.5t83.5 -86t122.5 -30.5t122 30.5zM444 849l-93 -104l-85 6l71 123zM628 849l-93 -104l-85 6l72 123z" />
    <glyph glyph-name="ohungarumlaut" unicode="&#x151;" 
d="M191 26q-68 37 -106.5 102t-38.5 146t38.5 146t106.5 102t153 37q86 0 154 -36.5t106.5 -101.5t38.5 -146q0 -82 -38.5 -147t-106.5 -102t-154 -37q-85 0 -153 37zM469 149q48 48 48 125q0 78 -48 125t-125 47q-76 0 -124.5 -47t-48.5 -124q0 -78 49 -126t125 -48t124 48
zM340 723l-107 -130l-86 7l78 147zM525 723l-107 -130l-86 7l78 147z" />
    <glyph glyph-name="OE" unicode="&#x152;" horiz-adv-x="1233" 
d="M751 114h432v-114h-559v38q-84 -49 -192 -49q-105 0 -190 47t-133.5 129.5t-48.5 184.5t48 184.5t132 129.5t188 47q110 0 196 -49v38h549v-114h-422v-168h377v-114h-377v-190zM624 183v338l-4 -4q-73 78 -187 78q-68 0 -122 -31t-85 -86.5t-31 -126.5q0 -72 31 -128
t85 -87t121 -31q115 0 190 80z" />
    <glyph glyph-name="oe" unicode="&#x153;" horiz-adv-x="1097" 
d="M649 225q12 -58 59 -91t116 -33q47 0 79.5 12.5t59.5 42.5l80 -71q-90 -95 -225 -95q-74 0 -135.5 27.5t-101.5 77.5q-40 -50 -101.5 -78t-135.5 -28q-85 0 -153 37t-106.5 102t-38.5 146t38.5 146t106.5 102t153 37q74 0 135 -27.5t101 -76.5q39 49 98 75.5t132 26.5
q77 0 137 -33.5t93.5 -92t33.5 -132.5q0 -24 -6 -74h-419zM705 415q-42 -32 -54 -87h300q-10 59 -47 89t-95 30q-62 0 -104 -32zM469 149q48 48 48 125q0 78 -48 125t-125 47q-76 0 -124.5 -47t-48.5 -124q0 -78 49 -126t125 -48t124 48z" />
    <glyph glyph-name="Racute" unicode="&#x154;" horiz-adv-x="721" 
d="M528 0l-197 234h-110v-234h-129v700h289q142 0 221 -61.5t79 -172.5q0 -88 -50.5 -145t-144.5 -77l205 -244h-163zM221 586v-239h156q87 0 131 27t44 90q0 122 -174 122h-157zM523 849l-105 -104l-87 6l84 123z" />
    <glyph glyph-name="racute" unicode="&#x155;" horiz-adv-x="434" 
d="M409 550l-4 -127q-25 7 -54 7q-71 0 -111 -55.5t-40 -148.5v-226h-124v547h124v-70q29 38 70 57.5t86 19.5q23 0 53 -4zM372 726l-122 -130l-88 7l93 147z" />
    <glyph glyph-name="uni0156" unicode="&#x156;" horiz-adv-x="721" 
d="M528 0l-197 234h-110v-234h-129v700h289q142 0 221 -61.5t79 -172.5q0 -88 -50.5 -145t-144.5 -77l205 -244h-163zM221 586v-239h156q87 0 131 27t44 90q0 122 -174 122h-157zM311 -187q29 11 41 28.5t10 40.5h-51v83h115q8 -37 8 -62q0 -101 -103 -134z" />
    <glyph glyph-name="uni0157" unicode="&#x157;" horiz-adv-x="434" 
d="M409 550l-4 -127q-25 7 -54 7q-71 0 -111 -55.5t-40 -148.5v-226h-124v547h124v-70q29 38 70 57.5t86 19.5q23 0 53 -4zM147 -187q29 11 41 28.5t10 40.5h-51v83h115q8 -37 8 -62q0 -101 -103 -134z" />
    <glyph glyph-name="Rcaron" unicode="&#x158;" horiz-adv-x="721" 
d="M528 0l-197 234h-110v-234h-129v700h289q142 0 221 -61.5t79 -172.5q0 -88 -50.5 -145t-144.5 -77l205 -244h-163zM221 586v-239h156q87 0 131 27t44 90q0 122 -174 122h-157zM375 796l57 79l106 -6l-106 -123h-115l-106 123l106 6z" />
    <glyph glyph-name="rcaron" unicode="&#x159;" horiz-adv-x="434" 
d="M409 550l-4 -127q-25 7 -54 7q-71 0 -111 -55.5t-40 -148.5v-226h-124v547h124v-70q29 38 70 57.5t86 19.5q23 0 53 -4zM208 651l54 90l100 -7l-100 -140h-109l-100 140l100 7z" />
    <glyph glyph-name="Sacute" unicode="&#x15a;" horiz-adv-x="648" 
d="M171 16q-76 27 -133 73l59 99q119 -82 242 -82q64 0 99 23t35 59q0 29 -16 47t-48.5 30t-92.5 25q-128 27 -193 78t-65 140q0 64 35.5 110t96.5 69.5t139 23.5q73 0 135 -20.5t120 -62.5l-69 -94q-38 27 -88.5 43.5t-104.5 16.5q-128 0 -128 -87q0 -38 35.5 -61
t121.5 -42q91 -20 146.5 -44t83.5 -63t28 -99q0 -64 -35.5 -111t-98.5 -72.5t-144 -25.5q-84 0 -160 27zM477 849l-105 -104l-87 6l84 123z" />
    <glyph glyph-name="sacute" unicode="&#x15b;" horiz-adv-x="543" 
d="M142.5 8.5q-63.5 18.5 -112.5 47.5l51 102q96 -55 194 -55q54 0 82 12.5t28 41.5q0 19 -11.5 30.5t-38.5 20t-78 17.5q-79 13 -124.5 35t-65 53.5t-19.5 77.5q0 80 55 123.5t155 43.5q57 0 125 -16t107 -41l-50 -104q-39 23 -89 35.5t-101 12.5q-76 0 -76 -44
q0 -22 24 -35t94 -27q84 -18 131 -42t66.5 -56.5t19.5 -78.5q0 -81 -64.5 -126.5t-174.5 -45.5q-64 0 -127.5 18.5zM440 726l-122 -130l-88 7l93 147z" />
    <glyph glyph-name="Scircumflex" unicode="&#x15c;" horiz-adv-x="648" 
d="M171 16q-76 27 -133 73l59 99q119 -82 242 -82q64 0 99 23t35 59q0 29 -16 47t-48.5 30t-92.5 25q-128 27 -193 78t-65 140q0 64 35.5 110t96.5 69.5t139 23.5q73 0 135 -20.5t120 -62.5l-69 -94q-38 27 -88.5 43.5t-104.5 16.5q-128 0 -128 -87q0 -38 35.5 -61
t121.5 -42q91 -20 146.5 -44t83.5 -63t28 -99q0 -64 -35.5 -111t-98.5 -72.5t-144 -25.5q-84 0 -160 27zM386 883l106 -127l-106 -6l-57 81l-58 -81l-106 6l106 127h115z" />
    <glyph glyph-name="scircumflex" unicode="&#x15d;" horiz-adv-x="543" 
d="M142.5 8.5q-63.5 18.5 -112.5 47.5l51 102q96 -55 194 -55q54 0 82 12.5t28 41.5q0 19 -11.5 30.5t-38.5 20t-78 17.5q-79 13 -124.5 35t-65 53.5t-19.5 77.5q0 80 55 123.5t155 43.5q57 0 125 -16t107 -41l-50 -104q-39 23 -89 35.5t-101 12.5q-76 0 -76 -44
q0 -22 24 -35t94 -27q84 -18 131 -42t66.5 -56.5t19.5 -78.5q0 -81 -64.5 -126.5t-174.5 -45.5q-64 0 -127.5 18.5zM329 741l100 -140l-100 -7l-54 90l-55 -90l-100 7l100 140h109z" />
    <glyph glyph-name="Scedilla" unicode="&#x15e;" horiz-adv-x="648" 
d="M542.5 53.5q-66.5 -55.5 -174.5 -63.5l-8 -29q31 -7 47.5 -24.5t16.5 -40.5q0 -33 -31 -52.5t-89 -19.5q-30 0 -65 7l14 66q21 -6 41 -6q13 0 20 4t7 11q0 26 -52 26l17 59q-71 7 -135 32.5t-113 65.5l59 99q119 -82 242 -82q64 0 99 23t35 59q0 29 -16 47t-48.5 30
t-92.5 25q-128 27 -193 78t-65 140q0 64 35.5 110t96.5 69.5t139 23.5q73 0 135 -20.5t120 -62.5l-69 -94q-38 27 -88.5 43.5t-104.5 16.5q-128 0 -128 -87q0 -38 35.5 -61t121.5 -42q91 -20 146.5 -44t83.5 -63t28 -99q0 -89 -66.5 -144.5z" />
    <glyph glyph-name="scedilla" unicode="&#x15f;" horiz-adv-x="543" 
d="M457.5 45.5q-51.5 -44.5 -141.5 -53.5l-8 -31q31 -7 47.5 -24.5t16.5 -40.5q0 -33 -31 -52.5t-89 -19.5q-30 0 -65 7l14 66q21 -6 41 -6q13 0 20 4t7 11q0 26 -52 26l17 60q-55 4 -108 21.5t-96 42.5l51 102q96 -55 194 -55q54 0 82 12.5t28 41.5q0 19 -11.5 30.5
t-38.5 20t-78 17.5q-79 13 -124.5 35t-65 53.5t-19.5 77.5q0 80 55 123.5t155 43.5q57 0 125 -16t107 -41l-50 -104q-39 23 -89 35.5t-101 12.5q-76 0 -76 -44q0 -22 24 -35t94 -27q84 -18 131 -42t66.5 -56.5t19.5 -78.5q0 -72 -51.5 -116.5z" />
    <glyph glyph-name="Scaron" unicode="&#x160;" horiz-adv-x="648" 
d="M171 16q-76 27 -133 73l59 99q119 -82 242 -82q64 0 99 23t35 59q0 29 -16 47t-48.5 30t-92.5 25q-128 27 -193 78t-65 140q0 64 35.5 110t96.5 69.5t139 23.5q73 0 135 -20.5t120 -62.5l-69 -94q-38 27 -88.5 43.5t-104.5 16.5q-128 0 -128 -87q0 -38 35.5 -61
t121.5 -42q91 -20 146.5 -44t83.5 -63t28 -99q0 -64 -35.5 -111t-98.5 -72.5t-144 -25.5q-84 0 -160 27zM329 796l57 79l106 -6l-106 -123h-115l-106 123l106 6z" />
    <glyph glyph-name="scaron" unicode="&#x161;" horiz-adv-x="543" 
d="M142.5 8.5q-63.5 18.5 -112.5 47.5l51 102q96 -55 194 -55q54 0 82 12.5t28 41.5q0 19 -11.5 30.5t-38.5 20t-78 17.5q-79 13 -124.5 35t-65 53.5t-19.5 77.5q0 80 55 123.5t155 43.5q57 0 125 -16t107 -41l-50 -104q-39 23 -89 35.5t-101 12.5q-76 0 -76 -44
q0 -22 24 -35t94 -27q84 -18 131 -42t66.5 -56.5t19.5 -78.5q0 -81 -64.5 -126.5t-174.5 -45.5q-64 0 -127.5 18.5zM275 651l54 90l100 -7l-100 -140h-109l-100 140l100 7z" />
    <glyph glyph-name="uni0162" unicode="&#x162;" horiz-adv-x="651" 
d="M390 0h-21l-10 -39q31 -7 47.5 -24.5t16.5 -40.5q0 -33 -31 -52.5t-89 -19.5q-30 0 -65 7l14 66q21 -6 41 -6q13 0 20 4t7 11q0 26 -52 26l19 68h-27v586h-229v114h589v-114h-230v-586z" />
    <glyph glyph-name="uni0163" unicode="&#x163;" horiz-adv-x="512" 
d="M352 -40q31 -7 47.5 -24.5t16.5 -40.5q0 -33 -31 -52.5t-89 -19.5q-30 0 -65 7l14 66q21 -6 41 -6q13 0 20 4t7 11q0 26 -52 26l17 61q-66 11 -102 56t-36 119v269h-103v111h105l9 143h113v-143h187v-111h-187v-249q0 -40 21 -63.5t57 -23.5q24 0 54.5 6t51.5 16l24 -97
q-43 -24 -112 -33z" />
    <glyph glyph-name="Tcaron" unicode="&#x164;" horiz-adv-x="651" 
d="M31 700h589v-114h-230v-586h-130v586h-229v114zM328 796l57 79l106 -6l-106 -123h-115l-106 123l106 6z" />
    <glyph glyph-name="tcaron" unicode="&#x165;" horiz-adv-x="512" 
d="M472 25q-30 -17 -73 -26.5t-80 -9.5q-85 0 -132 46t-47 132v269h-103v111h105l9 143h113v-143h187v-111h-187v-249q0 -40 21 -63.5t57 -23.5q24 0 54.5 6t51.5 16zM340 571v218h94l-29 -218h-65z" />
    <glyph glyph-name="Tbar" unicode="&#x166;" horiz-adv-x="651" 
d="M620 700v-114h-230v-186h134v-91h-134v-309h-130v309h-128v91h128v186h-229v114h589z" />
    <glyph glyph-name="tbar" unicode="&#x167;" horiz-adv-x="512" 
d="M472 25q-30 -17 -73 -26.5t-80 -9.5q-85 0 -132 46t-47 132v111h-79v82h79v76h-103v111h105l9 143h113v-143h187v-111h-187v-76h139v-82h-139v-91q0 -40 21 -63.5t57 -23.5q24 0 54.5 6t51.5 16z" />
    <glyph glyph-name="Utilde" unicode="&#x168;" horiz-adv-x="760" 
d="M216 26q-70 37 -108 105.5t-38 161.5v407h130v-383q0 -93 47.5 -143t132.5 -50q86 0 134 50t48 143v383h128v-407q0 -93 -37.5 -161.5t-107.5 -105.5t-165 -37q-94 0 -164 37zM207 760q0 49 27 78t68 29q20 0 37.5 -6t42.5 -17q18 -9 30 -13t23 -4q20 0 32.5 13t12.5 35
l61 -16q0 -49 -26.5 -78t-67.5 -29q-20 0 -37 5.5t-42 16.5q-36 17 -54 17q-20 0 -33 -13t-13 -34z" />
    <glyph glyph-name="utilde" unicode="&#x169;" horiz-adv-x="678" 
d="M477 547h124v-547h-124v66q-33 -36 -81 -57t-108 -21q-101 0 -161.5 62t-60.5 169v328h124v-311q0 -133 128 -133q46 0 82 22t56.5 62t20.5 90v270zM153 614q0 49 27 78t68 29q20 0 37.5 -6t42.5 -17q18 -9 30 -13t23 -4q20 0 32.5 13t12.5 35l61 -16q0 -49 -26.5 -78
t-67.5 -29q-20 0 -37 5.5t-42 16.5q-36 17 -54 17q-20 0 -33 -13t-13 -34z" />
    <glyph glyph-name="Umacron" unicode="&#x16a;" horiz-adv-x="760" 
d="M216 26q-70 37 -108 105.5t-38 161.5v407h130v-383q0 -93 47.5 -143t132.5 -50q86 0 134 50t48 143v383h128v-407q0 -93 -37.5 -161.5t-107.5 -105.5t-165 -37q-94 0 -164 37zM536 774h-317v78h317v-78z" />
    <glyph glyph-name="umacron" unicode="&#x16b;" horiz-adv-x="678" 
d="M477 547h124v-547h-124v66q-33 -36 -81 -57t-108 -21q-101 0 -161.5 62t-60.5 169v328h124v-311q0 -133 128 -133q46 0 82 22t56.5 62t20.5 90v270zM489 631h-317v78h317v-78z" />
    <glyph glyph-name="Ubreve" unicode="&#x16c;" horiz-adv-x="760" 
d="M216 26q-70 37 -108 105.5t-38 161.5v407h130v-383q0 -93 47.5 -143t132.5 -50q86 0 134 50t48 143v383h128v-407q0 -93 -37.5 -161.5t-107.5 -105.5t-165 -37q-94 0 -164 37zM529 882q0 -64 -41 -101.5t-110 -37.5q-68 0 -109 37.5t-41 101.5l93 1q0 -36 13 -52t44 -16
t44.5 16t13.5 52z" />
    <glyph glyph-name="ubreve" unicode="&#x16d;" horiz-adv-x="678" 
d="M477 547h124v-547h-124v66q-33 -36 -81 -57t-108 -21q-101 0 -161.5 62t-60.5 169v328h124v-311q0 -133 128 -133q46 0 82 22t56.5 62t20.5 90v270zM471 729q0 -64 -41 -101.5t-110 -37.5q-68 0 -109 37.5t-41 101.5l93 1q0 -36 13 -52t44 -16t44.5 16t13.5 52z" />
    <glyph glyph-name="Uring" unicode="&#x16e;" horiz-adv-x="760" 
d="M216 26q-70 37 -108 105.5t-38 161.5v407h130v-383q0 -93 47.5 -143t132.5 -50q86 0 134 50t48 143v383h128v-407q0 -93 -37.5 -161.5t-107.5 -105.5t-165 -37q-94 0 -164 37zM287 774.5q-37 34.5 -37 87.5t37 87.5t95 34.5t95.5 -34.5t37.5 -87.5t-37.5 -87.5
t-95.5 -34.5t-95 34.5zM426 819q18 17 18 43q0 27 -18 44.5t-44 17.5t-44 -17.5t-18 -44.5q0 -26 18 -43t44 -17t44 17z" />
    <glyph glyph-name="uring" unicode="&#x16f;" horiz-adv-x="677" 
d="M477 547h124v-547h-124v66q-33 -36 -81 -57t-108 -21q-101 0 -161.5 62t-60.5 169v328h124v-311q0 -133 128 -133q46 0 82 22t56.5 62t20.5 90v270zM254 622.5q-37 34.5 -37 87.5t37 87.5t95 34.5t95.5 -34.5t37.5 -87.5t-37.5 -87.5t-95.5 -34.5t-95 34.5zM393 667
q18 17 18 43q0 27 -18 44.5t-44 17.5t-44 -17.5t-18 -44.5q0 -26 18 -43t44 -17t44 17z" />
    <glyph glyph-name="Uhungarumlaut" unicode="&#x170;" horiz-adv-x="760" 
d="M216 26q-70 37 -108 105.5t-38 161.5v407h130v-383q0 -93 47.5 -143t132.5 -50q86 0 134 50t48 143v383h128v-407q0 -93 -37.5 -161.5t-107.5 -105.5t-165 -37q-94 0 -164 37zM394 849l-93 -104l-85 6l71 123zM578 849l-93 -104l-85 6l72 123z" />
    <glyph glyph-name="uhungarumlaut" unicode="&#x171;" horiz-adv-x="678" 
d="M477 547h124v-547h-124v66q-33 -36 -81 -57t-108 -21q-101 0 -161.5 62t-60.5 169v328h124v-311q0 -133 128 -133q46 0 82 22t56.5 62t20.5 90v270zM315 723l-107 -130l-86 7l78 147zM500 723l-107 -130l-86 7l78 147z" />
    <glyph glyph-name="Uogonek" unicode="&#x172;" horiz-adv-x="760" 
d="M562 700h128v-407q0 -94 -38 -163t-108 -105q-23 -16 -35.5 -34t-12.5 -34q0 -42 56 -42q19 0 38 4l6 -71q-46 -9 -82 -9q-62 0 -94.5 24.5t-32.5 64.5q0 33 23 62q-10 -1 -30 -1q-94 0 -164 37t-108 105.5t-38 161.5v407h130v-383q0 -93 47.5 -143t132.5 -50
q86 0 134 50t48 143v383z" />
    <glyph glyph-name="uogonek" unicode="&#x173;" horiz-adv-x="678" 
d="M623 -190q-47 -9 -82 -9q-62 0 -94.5 24.5t-32.5 64.5q0 32 21.5 61t56.5 49h-15v66q-33 -36 -81 -57t-108 -21q-101 0 -161.5 62t-60.5 169v328h124v-311q0 -133 128 -133q46 0 82 22t56.5 62t20.5 90v270h124v-547h-9q-33 -18 -51 -40t-18 -41q0 -42 56 -42q19 0 38 4z
" />
    <glyph glyph-name="Wcircumflex" unicode="&#x174;" horiz-adv-x="1094" 
d="M777 160l163 540h136l-222 -700h-141l-165 484l-166 -484h-141l-224 700h138l164 -540l172 540h113zM607 883l106 -127l-106 -6l-57 81l-58 -81l-106 6l106 127h115z" />
    <glyph glyph-name="wcircumflex" unicode="&#x175;" horiz-adv-x="932" 
d="M646 143l128 404h131l-187 -547h-139l-113 378l-113 -378h-138l-188 547h131l127 -404l117 404h126zM520 741l100 -140l-100 -7l-54 90l-55 -90l-100 7l100 140h109z" />
    <glyph glyph-name="Ycircumflex" unicode="&#x176;" horiz-adv-x="708" 
d="M554 700h142l-277 -444v-256h-130v259l-277 441h142l201 -333zM414 883l106 -127l-106 -6l-57 81l-58 -81l-106 6l106 127h115z" />
    <glyph glyph-name="ycircumflex" unicode="&#x177;" horiz-adv-x="646" 
d="M489 547h136l-229 -547l-18 -41q-33 -76 -78 -108.5t-123 -32.5q-34 0 -69.5 10.5t-56.5 23.5l37 91q20 -10 42.5 -15.5t40.5 -5.5q35 0 52.5 15t33.5 53l5 11h-1l-230 546h136l161 -406h1zM394 741l100 -140l-100 -7l-54 90l-55 -90l-100 7l100 140h109z" />
    <glyph glyph-name="Ydieresis" unicode="&#x178;" horiz-adv-x="708" 
d="M554 700h142l-277 -444v-256h-130v259l-277 441h142l201 -333zM334 759h-105v116h105v-116zM494 759h-105v116h105v-116z" />
    <glyph glyph-name="Zacute" unicode="&#x179;" horiz-adv-x="700" 
d="M652 0h-601v81l414 505h-403v114h585v-81l-416 -505h421v-114zM500 849l-105 -104l-87 6l84 123z" />
    <glyph glyph-name="zacute" unicode="&#x17a;" horiz-adv-x="559" 
d="M523 0h-486v75l308 360h-300v112h473v-74l-311 -361h316v-112zM441 726l-122 -130l-88 7l93 147z" />
    <glyph glyph-name="Zdotaccent" unicode="&#x17b;" horiz-adv-x="700" 
d="M652 0h-601v81l414 505h-403v114h585v-81l-416 -505h421v-114zM413 759h-129v117h129v-117z" />
    <glyph glyph-name="zdotaccent" unicode="&#x17c;" horiz-adv-x="559" 
d="M523 0h-486v75l308 360h-300v112h473v-74l-311 -361h316v-112zM341 614h-129v120h129v-120z" />
    <glyph glyph-name="Zcaron" unicode="&#x17d;" horiz-adv-x="700" 
d="M652 0h-601v81l414 505h-403v114h585v-81l-416 -505h421v-114zM352 796l57 79l106 -6l-106 -123h-115l-106 123l106 6z" />
    <glyph glyph-name="zcaron" unicode="&#x17e;" horiz-adv-x="559" 
d="M523 0h-486v75l308 360h-300v112h473v-74l-311 -361h316v-112zM277 651l54 90l100 -7l-100 -140h-109l-100 140l100 7z" />
    <glyph glyph-name="uni018F" unicode="&#x18f;" horiz-adv-x="843" 
d="M594.5 663.5q88.5 -46.5 138.5 -129t50 -185.5t-48 -185t-134.5 -128.5t-195.5 -46.5q-100 0 -178.5 43t-122.5 120.5t-44 176.5q0 25 6 47h583q-4 64 -37.5 115.5t-90 80.5t-125.5 29q-63 0 -116 -22.5t-93 -63.5l-84 76q54 57 127.5 88t163.5 31q112 0 200.5 -46.5z
M555.5 145q64.5 49 85.5 130h-446q17 -83 73 -131t137 -48q86 0 150.5 49z" />
    <glyph glyph-name="florin" unicode="&#x192;" horiz-adv-x="719" 
d="M495.5 651.5q-26.5 -28.5 -43.5 -104.5h144v-93h-161l-38 -214q-23 -132 -80.5 -190.5t-146.5 -58.5q-76 0 -124 24l34 85q23 -10 40.5 -14t41.5 -4q42 0 69 36t44 131l36 205h-117v93h133q25 121 77.5 173t143.5 52q76 0 124 -24l-33 -86q-23 10 -38.5 14t-34.5 4
q-44 0 -70.5 -28.5z" />
    <glyph glyph-name="uni019D" unicode="&#x19d;" horiz-adv-x="819" 
d="M594 700h130v-700h-108l-395 483v-483q0 -87 -47.5 -128.5t-134.5 -41.5q-27 0 -56 6.5t-53 18.5l30 93q11 -6 26 -10t30 -4q33 0 54 19.5t21 56.5v128q0 76 1 104v458h111l391 -477v477z" />
    <glyph glyph-name="Ohorn" unicode="&#x1a0;" horiz-adv-x="863" 
d="M779 486q24 -63 24 -136q0 -103 -48 -185.5t-132.5 -129t-191.5 -46.5q-106 0 -190.5 46.5t-132.5 128.5t-48 186q0 103 48 185.5t132.5 129t191.5 46.5q101 0 186 -44q67 3 67 54q0 15 -8 41l107 6q13 -36 13 -68q0 -43 -23.5 -70.5t-63.5 -32.5q45 -48 69 -111z
M554 136.5q53 30.5 83 86t30 127.5t-30 127.5t-83 86t-122 30.5t-122.5 -30.5t-83.5 -86t-30 -127.5t30 -127.5t83.5 -86t122.5 -30.5t122 30.5z" />
    <glyph glyph-name="ohorn" unicode="&#x1a1;" 
d="M651 631q13 -36 13 -68q0 -43 -23.5 -70.5t-63.5 -32.5q32 -37 49 -84.5t17 -100.5q0 -82 -38.5 -147t-106.5 -102t-154 -37q-85 0 -153 37t-106.5 102t-38.5 146t38.5 146t106.5 102t153 37q77 0 138 -29q70 2 70 54q0 20 -8 41zM469 149q48 48 48 125q0 78 -48 125
t-125 47q-76 0 -124.5 -47t-48.5 -124q0 -78 49 -126t125 -48t124 48z" />
    <glyph glyph-name="Uhorn" unicode="&#x1af;" horiz-adv-x="807" 
d="M820 799q12 -34 12 -63q0 -46 -27.5 -72t-71.5 -26q-20 0 -43 6v-351q0 -93 -37.5 -161.5t-107.5 -105.5t-165 -37q-94 0 -164 37t-108 105.5t-38 161.5v407h130v-383q0 -93 47.5 -143t132.5 -50q86 0 134 50t48 143v383h91l2 5q73 -3 73 49q0 15 -8 39z" />
    <glyph glyph-name="uhorn" unicode="&#x1b0;" horiz-adv-x="723" 
d="M731 645q11 -30 11 -60q0 -44 -26.5 -70t-69.5 -26q-23 0 -45 7v-496h-124v66q-33 -36 -81 -57t-108 -21q-101 0 -161.5 62t-60.5 169v328h124v-311q0 -133 128 -133q46 0 82 22t56.5 62t20.5 90v270h91l3 7q70 -2 70 47q0 17 -7 38z" />
    <glyph glyph-name="uni01CD" unicode="&#x1cd;" horiz-adv-x="792" 
d="M775 0h-138l-56 129h-372l-56 -129h-136l314 700h129zM395 559l-137 -317h274zM398 796l57 79l106 -6l-106 -123h-115l-106 123l106 6z" />
    <glyph glyph-name="uni01CE" unicode="&#x1ce;" horiz-adv-x="607" 
d="M477 499q64 -60 64 -170v-329h-124v65q-29 -32 -78 -54t-116 -22q-57 0 -100.5 22.5t-67 62.5t-23.5 90q0 79 54 131t166 52q78 0 164 -9q-3 52 -39.5 80.5t-104.5 28.5q-38 0 -80 -16t-72 -43l-61 91q48 40 108 60t118 20q128 0 192 -60zM368 137q43 37 48 92v9
q-61 9 -134 9q-71 0 -101 -20t-30 -56q0 -71 113 -71q61 0 104 37zM292 653l54 90l100 -7l-100 -140h-109l-100 140l100 7z" />
    <glyph glyph-name="uni01CF" unicode="&#x1cf;" horiz-adv-x="313" 
d="M221 0h-129v700h129v-700zM159 796l57 79l106 -6l-106 -123h-115l-106 123l106 6z" />
    <glyph glyph-name="uni01D0" unicode="&#x1d0;" horiz-adv-x="276" 
d="M200 0h-124v547h124v-547zM138 651l54 90l100 -7l-100 -140h-109l-100 140l100 7z" />
    <glyph glyph-name="uni01D1" unicode="&#x1d1;" horiz-adv-x="863" 
d="M240.5 35.5q-84.5 46.5 -132.5 128.5t-48 186q0 103 48 185.5t132.5 129t191.5 46.5q106 0 190.5 -46.5t132.5 -128.5t48 -186q0 -103 -48 -185.5t-132.5 -129t-191.5 -46.5q-106 0 -190.5 46.5zM554 136.5q53 30.5 83 86t30 127.5t-30 127.5t-83 86t-122 30.5
t-122.5 -30.5t-83.5 -86t-30 -127.5t30 -127.5t83.5 -86t122.5 -30.5t122 30.5zM434 796l57 79l106 -6l-106 -123h-115l-106 123l106 6z" />
    <glyph glyph-name="uni01D2" unicode="&#x1d2;" 
d="M191 26q-68 37 -106.5 102t-38.5 146t38.5 146t106.5 102t153 37q86 0 154 -36.5t106.5 -101.5t38.5 -146q0 -82 -38.5 -147t-106.5 -102t-154 -37q-85 0 -153 37zM469 149q48 48 48 125q0 78 -48 125t-125 47q-76 0 -124.5 -47t-48.5 -124q0 -78 49 -126t125 -48t124 48
zM346 651l54 90l100 -7l-100 -140h-109l-100 140l100 7z" />
    <glyph glyph-name="uni01D3" unicode="&#x1d3;" horiz-adv-x="760" 
d="M216 26q-70 37 -108 105.5t-38 161.5v407h130v-383q0 -93 47.5 -143t132.5 -50q86 0 134 50t48 143v383h128v-407q0 -93 -37.5 -161.5t-107.5 -105.5t-165 -37q-94 0 -164 37zM384 796l57 79l106 -6l-106 -123h-115l-106 123l106 6z" />
    <glyph glyph-name="uni01D4" unicode="&#x1d4;" horiz-adv-x="678" 
d="M477 547h124v-547h-124v66q-33 -36 -81 -57t-108 -21q-101 0 -161.5 62t-60.5 169v328h124v-311q0 -133 128 -133q46 0 82 22t56.5 62t20.5 90v270zM321 651l54 90l100 -7l-100 -140h-109l-100 140l100 7z" />
    <glyph glyph-name="uni01D5" unicode="&#x1d5;" horiz-adv-x="761" 
d="M216 26q-70 37 -108 105.5t-38 161.5v407h130v-383q0 -93 47.5 -143t132.5 -50q86 0 134 50t48 143v383h128v-407q0 -93 -37.5 -161.5t-107.5 -105.5t-165 -37q-94 0 -164 37zM366 759h-105v116h105v-116zM526 759h-105v116h105v-116zM534 948h-317v78h317v-78z" />
    <glyph glyph-name="uni01D6" unicode="&#x1d6;" horiz-adv-x="677" 
d="M477 547h124v-547h-124v66q-33 -36 -81 -57t-108 -21q-101 0 -161.5 62t-60.5 169v328h124v-311q0 -133 128 -133q46 0 82 22t56.5 62t20.5 90v270zM333 614h-90v120h90v-120zM502 614h-89v120h89v-120zM518 817h-317v78h317v-78z" />
    <glyph glyph-name="uni01D7" unicode="&#x1d7;" horiz-adv-x="761" 
d="M216 26q-70 37 -108 105.5t-38 161.5v407h130v-383q0 -93 47.5 -143t132.5 -50q86 0 134 50t48 143v383h128v-407q0 -93 -37.5 -161.5t-107.5 -105.5t-165 -37q-94 0 -164 37zM366 759h-105v116h105v-116zM526 759h-105v116h105v-116zM531 1023l-105 -104l-87 6l84 123z
" />
    <glyph glyph-name="uni01D8" unicode="&#x1d8;" horiz-adv-x="677" 
d="M477 547h124v-547h-124v66q-33 -36 -81 -57t-108 -21q-101 0 -161.5 62t-60.5 169v328h124v-311q0 -133 128 -133q46 0 82 22t56.5 62t20.5 90v270zM333 614h-90v120h90v-120zM502 614h-89v120h89v-120zM515 912l-122 -130l-88 7l93 147z" />
    <glyph glyph-name="uni01D9" unicode="&#x1d9;" horiz-adv-x="761" 
d="M216 26q-70 37 -108 105.5t-38 161.5v407h130v-383q0 -93 47.5 -143t132.5 -50q86 0 134 50t48 143v383h128v-407q0 -93 -37.5 -161.5t-107.5 -105.5t-165 -37q-94 0 -164 37zM366 759h-105v116h105v-116zM526 759h-105v116h105v-116zM383 970l57 79l106 -6l-106 -123
h-115l-106 123l106 6z" />
    <glyph glyph-name="uni01DA" unicode="&#x1da;" horiz-adv-x="677" 
d="M477 547h124v-547h-124v66q-33 -36 -81 -57t-108 -21q-101 0 -161.5 62t-60.5 169v328h124v-311q0 -133 128 -133q46 0 82 22t56.5 62t20.5 90v270zM333 614h-90v120h90v-120zM502 614h-89v120h89v-120zM350 837l54 90l100 -7l-100 -140h-109l-100 140l100 7z" />
    <glyph glyph-name="uni01DB" unicode="&#x1db;" horiz-adv-x="760" 
d="M216 26q-70 37 -108 105.5t-38 161.5v407h130v-383q0 -93 47.5 -143t132.5 -50q86 0 134 50t48 143v383h128v-407q0 -93 -37.5 -161.5t-107.5 -105.5t-165 -37q-94 0 -164 37zM361 759h-105v116h105v-116zM521 759h-105v116h105v-116zM422 925l-87 -6l-105 104l108 25z
" />
    <glyph glyph-name="uni01DB" unicode="&#x1dc;" horiz-adv-x="760" 
d="M216 26q-70 37 -108 105.5t-38 161.5v407h130v-383q0 -93 47.5 -143t132.5 -50q86 0 134 50t48 143v383h128v-407q0 -93 -37.5 -161.5t-107.5 -105.5t-165 -37q-94 0 -164 37zM361 759h-105v116h105v-116zM521 759h-105v116h105v-116zM422 925l-87 -6l-105 104l108 25z
" />
    <glyph glyph-name="Gcaron" unicode="&#x1e6;" horiz-adv-x="786" 
d="M241.5 35.5q-85.5 46.5 -133.5 128.5t-48 185q0 104 47.5 186.5t132 129t191.5 46.5q78 0 147.5 -28t123.5 -83l-83 -81q-76 76 -185 76q-69 0 -123.5 -30t-85 -86t-30.5 -130t30.5 -129t86 -85t128.5 -30q92 0 159 52v203h116v-259q-55 -54 -128 -83t-153 -29
q-107 0 -192.5 46.5zM446 796l57 79l106 -6l-106 -123h-115l-106 123l106 6z" />
    <glyph glyph-name="gcaron" unicode="&#x1e7;" horiz-adv-x="643" 
d="M389 145q110 0 165 -40t55 -109q0 -81 -78 -129.5t-225 -48.5q-121 0 -188 37.5t-67 105.5q0 30 19.5 54t51.5 42q-23 14 -35.5 36t-12.5 48q0 33 17.5 58.5t45.5 40.5q-30 24 -46 58.5t-16 76.5q0 85 64.5 134.5t176.5 49.5q69 0 113 -20l143 48l28 -100l-80 -15
q18 -18 28.5 -43t10.5 -54q0 -86 -64.5 -136t-176.5 -50q-54 0 -103 13q-19 -11 -19 -30q0 -16 12 -21.5t35 -5.5h146zM198 376q0 -40 30 -60.5t89 -20.5t89 20.5t30 59.5q0 78 -119 78t-119 -77zM442.5 -58q41.5 13 41.5 47q0 28 -30 37t-101 9h-142q-34 -27 -34 -55
q0 -30 32.5 -40.5t103.5 -10.5q88 0 129.5 13zM327 651l54 90l100 -7l-100 -140h-109l-100 140l100 7z" />
    <glyph glyph-name="uni01EA" unicode="&#x1ea;" horiz-adv-x="863" 
d="M562 -9.5q-16 -20.5 -16 -39.5q0 -42 56 -42q19 0 38 4l6 -71q-47 -9 -82 -9q-62 0 -94.5 24.5t-32.5 64.5q0 36 27 68q-10 -1 -33 -1q-106 0 -190.5 46.5t-132.5 128.5t-48 186q0 103 48 185.5t132.5 129t191.5 46.5q106 0 190.5 -46.5t132.5 -128.5t48 -186
q0 -108 -52 -192.5t-142 -128.5q-31 -18 -47 -38.5zM226 222.5q30 -55.5 83.5 -86t122.5 -30.5t122 30.5t83 86t30 127.5t-30 127.5t-83 86t-122 30.5t-122.5 -30.5t-83.5 -86t-30 -127.5t30 -127.5z" />
    <glyph glyph-name="uni01EB" unicode="&#x1eb;" 
d="M609 135.5q-34 -62.5 -95 -100.5q-33 -18 -51 -40t-18 -41q0 -42 56 -42q19 0 38 4l6 -71q-46 -9 -82 -9q-62 0 -94.5 24.5t-32.5 64.5q0 34 24 64h-16q-85 0 -153 37t-106.5 102t-38.5 146t38.5 146t106.5 102t153 37q86 0 154 -36.5t106.5 -101.5t38.5 -146
q0 -77 -34 -139.5zM469 149q48 48 48 125q0 78 -48 125t-125 47q-76 0 -124.5 -47t-48.5 -124q0 -78 49 -126t125 -48t124 48z" />
    <glyph glyph-name="Aringacute" unicode="&#x1fa;" horiz-adv-x="792" 
d="M420 1038l108 -25l-105 -104l-87 6zM637 0l-56 129h-372l-56 -129h-136l303 675q-27 17 -41.5 43t-14.5 59q0 53 37 87.5t95 34.5t95.5 -34.5t37.5 -87.5q0 -33 -15.5 -59.5t-42.5 -42.5l304 -675h-138zM352 821.5q-18 -17.5 -18 -44.5q0 -26 18 -43t44 -17t44 17t18 43
q0 27 -18 44.5t-44 17.5t-44 -17.5zM395 559l-137 -317h274z" />
    <glyph glyph-name="aringacute" unicode="&#x1fb;" horiz-adv-x="619" 
d="M477 499q64 -60 64 -170v-329h-124v65q-29 -32 -78 -54t-116 -22q-57 0 -100.5 22.5t-67 62.5t-23.5 90q0 79 54 131t166 52q78 0 164 -9q-3 52 -39.5 80.5t-104.5 28.5q-38 0 -80 -16t-72 -43l-61 91q48 40 108 60t118 20q128 0 192 -60zM368 137q43 37 48 92v9
q-61 9 -134 9q-71 0 -101 -20t-30 -56q0 -71 113 -71q61 0 104 37zM206 624.5q-37 34.5 -37 87.5t37 87.5t95 34.5t95.5 -34.5t37.5 -87.5t-37.5 -87.5t-95.5 -34.5t-95 34.5zM345 669q18 17 18 43q0 27 -18 44.5t-44 17.5t-44 -17.5t-18 -44.5q0 -26 18 -43t44 -17t44 17z
M466 1017l-122 -130l-88 7l93 147z" />
    <glyph glyph-name="AEacute" unicode="&#x1fc;" horiz-adv-x="1108" 
d="M626 304v-190h431v-114h-558v158h-257l-90 -158h-135l391 700h639v-114h-421v-168h377v-114h-377zM488 592l-182 -321h193v321h-11zM847 849l-105 -104l-87 6l84 123z" />
    <glyph glyph-name="aeacute" unicode="&#x1fd;" horiz-adv-x="986" 
d="M539 225q12 -58 59 -91t116 -33q46 0 79 12.5t60 42.5l80 -71q-92 -95 -225 -95q-83 0 -149.5 34.5t-105.5 94.5q-37 -57 -99 -93.5t-139 -36.5q-55 0 -98.5 21.5t-68.5 61t-25 91.5q0 77 57 125.5t161 48.5q95 0 164 -9v11q-1 56 -37.5 86.5t-106.5 30.5
q-39 0 -84 -16.5t-67 -42.5l-65 85q49 36 111.5 56.5t118.5 20.5q73 0 124.5 -24t81.5 -67q39 43 95 66t124 23q76 0 136.5 -33.5t94 -92t33.5 -132.5q0 -28 -7 -74h-418zM595 415q-42 -32 -54 -87h300q-10 59 -47 89t-95 30q-62 0 -104 -32zM361 136.5q45 40.5 45 102.5
q-58 8 -135 8q-61 0 -95 -21t-34 -55q0 -35 28 -55t77 -20q69 0 114 40.5zM672 726l-122 -130l-88 7l93 147z" />
    <glyph glyph-name="oslashacute" unicode="&#x1ff;" 
d="M589 445q54 -75 54 -170q0 -82 -38.5 -147t-106.5 -102t-154 -37q-94 0 -167 45l-41 -41l-72 71l38 38q-56 73 -56 172q0 81 38.5 146t106.5 102t153 37q96 0 169 -45l47 47l72 -73zM190 190l237 238q-36 18 -83 18q-76 0 -124.5 -47t-48.5 -124q0 -45 19 -85zM469 149
q48 48 48 125q0 45 -17 82l-238 -237q36 -18 83 -18q76 0 124 48zM500 726l-122 -130l-88 7l93 147z" />
    <glyph glyph-name="uni0218" unicode="&#x218;" horiz-adv-x="648" 
d="M171 16q-76 27 -133 73l59 99q119 -82 242 -82q64 0 99 23t35 59q0 29 -16 47t-48.5 30t-92.5 25q-128 27 -193 78t-65 140q0 64 35.5 110t96.5 69.5t139 23.5q73 0 135 -20.5t120 -62.5l-69 -94q-38 27 -88.5 43.5t-104.5 16.5q-128 0 -128 -87q0 -38 35.5 -61
t121.5 -42q91 -20 146.5 -44t83.5 -63t28 -99q0 -64 -35.5 -111t-98.5 -72.5t-144 -25.5q-84 0 -160 27zM266 -187q29 11 41 28.5t10 40.5h-51v83h115q8 -37 8 -62q0 -101 -103 -134z" />
    <glyph glyph-name="uni0219" unicode="&#x219;" horiz-adv-x="543" 
d="M142.5 8.5q-63.5 18.5 -112.5 47.5l51 102q96 -55 194 -55q54 0 82 12.5t28 41.5q0 19 -11.5 30.5t-38.5 20t-78 17.5q-79 13 -124.5 35t-65 53.5t-19.5 77.5q0 80 55 123.5t155 43.5q57 0 125 -16t107 -41l-50 -104q-39 23 -89 35.5t-101 12.5q-76 0 -76 -44
q0 -22 24 -35t94 -27q84 -18 131 -42t66.5 -56.5t19.5 -78.5q0 -81 -64.5 -126.5t-174.5 -45.5q-64 0 -127.5 18.5zM215 -187q29 11 41 28.5t10 40.5h-51v83h115q8 -37 8 -62q0 -101 -103 -134z" />
    <glyph glyph-name="uni021A" unicode="&#x21a;" horiz-adv-x="651" 
d="M31 700h589v-114h-230v-586h-130v586h-229v114zM265 -187q29 11 41 28.5t10 40.5h-51v83h115q8 -37 8 -62q0 -101 -103 -134z" />
    <glyph glyph-name="uni021B" unicode="&#x21b;" horiz-adv-x="512" 
d="M472 25q-30 -17 -73 -26.5t-80 -9.5q-85 0 -132 46t-47 132v269h-103v111h105l9 143h113v-143h187v-111h-187v-249q0 -40 21 -63.5t57 -23.5q24 0 54.5 6t51.5 16zM258 -188q29 11 41 28.5t10 40.5h-51v83h115q8 -37 8 -62q0 -101 -103 -134z" />
    <glyph glyph-name="uni0232" unicode="&#x232;" horiz-adv-x="708" 
d="M554 700h142l-277 -444v-256h-130v259l-277 441h142l201 -333zM509 774h-317v78h317v-78z" />
    <glyph glyph-name="uni0233" unicode="&#x233;" horiz-adv-x="646" 
d="M489 547h136l-229 -547l-18 -41q-33 -76 -78 -108.5t-123 -32.5q-34 0 -69.5 10.5t-56.5 23.5l37 91q20 -10 42.5 -15.5t40.5 -5.5q35 0 52.5 15t33.5 53l5 11h-1l-230 546h136l161 -406h1zM508 631h-317v78h317v-78z" />
    <glyph glyph-name="uni0237" unicode="&#x237;" horiz-adv-x="291" 
d="M-31 -56q20 -10 46 -10q36 0 55.5 18.5t19.5 53.5v541h125v-551q0 -82 -51.5 -127t-132.5 -45q-51 0 -94 21z" />
    <glyph glyph-name="uni0259" unicode="&#x259;" horiz-adv-x="623" 
d="M432 520.5q68 -36.5 106.5 -101.5t38.5 -146t-36.5 -145.5t-102.5 -101t-151 -36.5q-77 0 -137 33.5t-93.5 92t-33.5 132.5q0 25 6 74h419q-12 58 -59 91t-116 33q-47 0 -79.5 -12.5t-59.5 -42.5l-80 71q90 95 225 95q85 0 153 -36.5zM392 132q42 32 54 87h-300
q10 -59 47 -89t95 -30q62 0 104 32z" />
    <glyph glyph-name="uni0272" unicode="&#x272;" horiz-adv-x="677" 
d="M550.5 497q60.5 -62 60.5 -169v-328h-124v311q0 133 -128 133q-46 0 -82 -22t-56.5 -62t-20.5 -90v-270q0 -87 -45.5 -128.5t-128.5 -41.5q-26 0 -53.5 6.5t-50.5 18.5l28 93q25 -14 54 -14q32 0 52 19.5t20 56.5v537h124v-66q33 36 81 57t108 21q101 0 161.5 -62z" />
    <glyph glyph-name="uni02B0" unicode="&#x2b0;" horiz-adv-x="362" 
d="M303 736.5q26 -30.5 26 -87.5v-169h-96v149q0 26 -13.5 42.5t-33.5 16.5t-36 -17t-16 -42v-149h-97v371h97v-156q13 32 40 52t54 20q49 0 75 -30.5z" />
    <glyph glyph-name="circumflex" unicode="&#x2c6;" horiz-adv-x="429" 
d="M269 741l100 -140l-100 -7l-54 90l-55 -90l-100 7l100 140h109z" />
    <glyph glyph-name="caron" unicode="&#x2c7;" horiz-adv-x="429" 
d="M215 651l54 90l100 -7l-100 -140h-109l-100 140l100 7z" />
    <glyph glyph-name="breve" unicode="&#x2d8;" horiz-adv-x="421" 
d="M361 729q0 -64 -41 -101.5t-110 -37.5q-68 0 -109 37.5t-41 101.5l93 1q0 -36 13 -52t44 -16t44.5 16t13.5 52z" />
    <glyph glyph-name="dotaccent" unicode="&#x2d9;" horiz-adv-x="249" 
d="M189 614h-129v120h129v-120z" />
    <glyph glyph-name="ring" unicode="&#x2da;" horiz-adv-x="385" 
d="M97 622.5q-37 34.5 -37 87.5t37 87.5t95 34.5t95.5 -34.5t37.5 -87.5t-37.5 -87.5t-95.5 -34.5t-95 34.5zM236 667q18 17 18 43q0 27 -18 44.5t-44 17.5t-44 -17.5t-18 -44.5q0 -26 18 -43t44 -17t44 17z" />
    <glyph glyph-name="ogonek" unicode="&#x2db;" horiz-adv-x="289" 
d="M218 0q-33 -18 -51 -40t-18 -41q0 -42 56 -42q19 0 38 4l6 -71q-47 -9 -82 -9q-62 0 -94.5 24.5t-32.5 64.5q0 39 32 73.5t80 52.5z" />
    <glyph glyph-name="tilde" unicode="&#x2dc;" horiz-adv-x="455" 
d="M60 614q0 49 27 78t68 29q20 0 37.5 -6t42.5 -17q18 -9 30 -13t23 -4q20 0 32.5 13t12.5 35l61 -16q0 -49 -26.5 -78t-67.5 -29q-20 0 -37 5.5t-42 16.5q-36 17 -54 17q-20 0 -33 -13t-13 -34z" />
    <glyph glyph-name="hungarumlaut" unicode="&#x2dd;" horiz-adv-x="498" 
d="M253 726l-107 -130l-86 7l78 147zM438 726l-107 -130l-86 7l78 147z" />
    <glyph glyph-name="uni02E1" unicode="&#x2e1;" horiz-adv-x="170" 
d="M134 480h-97v371h97v-371z" />
    <glyph glyph-name="uni02E2" unicode="&#x2e2;" horiz-adv-x="295" 
d="M14 505l18 63q54 -27 118 -27q37 0 37 18q0 10 -10.5 15.5t-45.5 12.5q-57 12 -83 32.5t-26 56.5q0 44 32 67.5t96 23.5q61 0 114 -28l-21 -61q-57 22 -92 22q-24 0 -34.5 -4t-10.5 -13q0 -10 10.5 -15.5t41.5 -11.5q59 -11 87 -31.5t28 -58.5q0 -43 -37 -68t-95 -25
q-76 0 -127 32z" />
    <glyph glyph-name="gravecomb" unicode="&#x300;" horiz-adv-x="0" 
d="M-60 603l-88 -7l-122 130l117 24z" />
    <glyph glyph-name="acutecomb" unicode="&#x301;" horiz-adv-x="0" 
d="M-60 726l-122 -130l-88 7l93 147z" />
    <glyph glyph-name="uni0302" unicode="&#x302;" horiz-adv-x="0" 
d="M-160 741l100 -140l-100 -7l-54 90l-55 -90l-100 7l100 140h109z" />
    <glyph glyph-name="tildecomb" unicode="&#x303;" horiz-adv-x="0" 
d="M-395 614q0 49 27 78t68 29q20 0 37.5 -6t42.5 -17q18 -9 30 -13t23 -4q20 0 32.5 13t12.5 35l61 -16q0 -49 -26.5 -78t-67.5 -29q-20 0 -37 5.5t-42 16.5q-36 17 -54 17q-20 0 -33 -13t-13 -34z" />
    <glyph glyph-name="uni0304" unicode="&#x304;" horiz-adv-x="0" 
d="M-61 631h-317v78h317v-78z" />
    <glyph glyph-name="uni0306" unicode="&#x306;" horiz-adv-x="0" 
d="M-60 729q0 -64 -41 -101.5t-110 -37.5q-68 0 -109 37.5t-41 101.5l93 1q0 -36 13 -52t44 -16t44.5 16t13.5 52z" />
    <glyph glyph-name="uni0307" unicode="&#x307;" horiz-adv-x="0" 
d="M-60 614h-129v120h129v-120z" />
    <glyph glyph-name="uni0308" unicode="&#x308;" horiz-adv-x="0" 
d="M-229 614h-90v120h90v-120zM-60 614h-89v120h89v-120z" />
    <glyph glyph-name="hookabovecomb" unicode="&#x309;" horiz-adv-x="0" 
d="M-180 603q3 5 14 20t17 30t6 29q0 15 -10.5 25t-25.5 10q-14 0 -31 -11l-6 53q40 20 76 20t58 -19.5t22 -47.5q0 -59 -63 -125z" />
    <glyph glyph-name="uni030A" unicode="&#x30a;" horiz-adv-x="0" 
d="M-288 622.5q-37 34.5 -37 87.5t37 87.5t95 34.5t95.5 -34.5t37.5 -87.5t-37.5 -87.5t-95.5 -34.5t-95 34.5zM-149 667q18 17 18 43q0 27 -18 44.5t-44 17.5t-44 -17.5t-18 -44.5q0 -26 18 -43t44 -17t44 17z" />
    <glyph glyph-name="uni030B" unicode="&#x30b;" horiz-adv-x="0" 
d="M-245 726l-107 -130l-86 7l78 147zM-60 726l-107 -130l-86 7l78 147z" />
    <glyph glyph-name="uni030C" unicode="&#x30c;" horiz-adv-x="0" 
d="M-214 651l54 90l100 -7l-100 -140h-109l-100 140l100 7z" />
    <glyph glyph-name="uni0312" unicode="&#x312;" horiz-adv-x="0" 
d="M-61 741q-54 -20 -51 -69h51v-83h-115q-8 37 -8 62q0 101 103 134z" />
    <glyph glyph-name="uni031B" unicode="&#x31b;" horiz-adv-x="0" 
d="M-232 590q78 -2 78 53q0 16 -8 42l107 6q13 -36 13 -68q0 -49 -29.5 -76.5t-76.5 -27.5q-49 0 -100 27z" />
    <glyph glyph-name="dotbelowcomb" unicode="&#x323;" horiz-adv-x="0" 
d="M-189 -167v120h129v-120h-129z" />
    <glyph glyph-name="uni0324" unicode="&#x324;" horiz-adv-x="0" 
 />
    <glyph glyph-name="uni0326" unicode="&#x326;" horiz-adv-x="0" 
d="M-177 -187q29 11 41 28.5t10 40.5h-51v83h115q8 -37 8 -62q0 -101 -103 -134z" />
    <glyph glyph-name="uni0327" unicode="&#x327;" horiz-adv-x="0" 
d="M-114 -39q31 -7 47.5 -24.5t16.5 -40.5q0 -33 -31 -52.5t-89 -19.5q-30 0 -65 7l14 66q21 -6 41 -6q13 0 20 4t7 11q0 26 -52 26l21 75h82z" />
    <glyph glyph-name="uni0328" unicode="&#x328;" horiz-adv-x="0" 
d="M-71 0q-33 -18 -51 -40t-18 -41q0 -42 56 -42q19 0 38 4l6 -71q-47 -9 -82 -9q-62 0 -94.5 24.5t-32.5 64.5q0 39 32 73.5t80 52.5z" />
    <glyph glyph-name="uni032E" unicode="&#x32e;" horiz-adv-x="0" 
d="M-59 -35q0 -50 -36 -79.5t-97 -29.5t-97 29.5t-36 79.5l82 1q0 -29 11.5 -41t39.5 -12t39.5 12t11.5 41z" />
    <glyph glyph-name="uni0331" unicode="&#x331;" horiz-adv-x="0" 
d="M-41 -125h-317v78h317v-78z" />
    <glyph glyph-name="uni0335" unicode="&#x335;" horiz-adv-x="0" 
d="M-382 292v82h342v-82h-342z" />
    <glyph glyph-name="uni0336" unicode="&#x336;" horiz-adv-x="0" 
 />
    <glyph glyph-name="uni0337" unicode="&#x337;" horiz-adv-x="0" 
d="M-305 254l-36 71l284 147l36 -72z" />
    <glyph glyph-name="uni0338" unicode="&#x338;" horiz-adv-x="0" 
d="M-548 -9l-72 71l496 497l72 -73z" />
    <glyph glyph-name="tonos" unicode="&#x384;" horiz-adv-x="240" 
d="M188 751l-43 -147h-76l11 147h108z" />
    <glyph glyph-name="dieresistonos" unicode="&#x385;" horiz-adv-x="421" 
d="M274 790l-38 -146h-58l10 146h86zM141 593h-75v108h75v-108zM358 593h-74v108h74v-108z" />
    <glyph glyph-name="Alphatonos" unicode="&#x386;" horiz-adv-x="792" 
d="M775 0h-138l-56 129h-372l-56 -129h-136l314 700h129zM395 559l-137 -317h274zM172 700l-43 -147h-76l11 147h108z" />
    <glyph glyph-name="Epsilontonos" unicode="&#x388;" horiz-adv-x="701" 
d="M219 304v-190h431v-114h-558v700h548v-114h-421v-168h377v-114h-377zM20 700l-43 -147h-76l11 147h108z" />
    <glyph glyph-name="Etatonos" unicode="&#x389;" horiz-adv-x="805" 
d="M583 405v295h130v-700h-130v291h-361v-291h-130v700h130v-295h361zM20 700l-43 -147h-76l11 147h108z" />
    <glyph glyph-name="Iotatonos" unicode="&#x38a;" horiz-adv-x="313" 
d="M221 0h-129v700h129v-700zM20 700l-43 -147h-76l11 147h108z" />
    <glyph glyph-name="Omicrontonos" unicode="&#x38c;" horiz-adv-x="863" 
d="M240.5 35.5q-84.5 46.5 -132.5 128.5t-48 186q0 103 48 185.5t132.5 129t191.5 46.5q106 0 190.5 -46.5t132.5 -128.5t48 -186q0 -103 -48 -185.5t-132.5 -129t-191.5 -46.5q-106 0 -190.5 46.5zM554 136.5q53 30.5 83 86t30 127.5t-30 127.5t-83 86t-122 30.5
t-122.5 -30.5t-83.5 -86t-30 -127.5t30 -127.5t83.5 -86t122.5 -30.5t122 30.5zM20 700l-43 -147h-76l11 147h108z" />
    <glyph glyph-name="Upsilontonos" unicode="&#x38e;" horiz-adv-x="708" 
d="M554 700h142l-277 -444v-256h-130v259l-277 441h142l201 -333zM-53 700l-43 -147h-76l11 147h108z" />
    <glyph glyph-name="Omegatonos" unicode="&#x38f;" horiz-adv-x="785" 
d="M701.5 283.5q-23.5 -56.5 -57.5 -99t-87 -94.5l143 8v-98h-257v84q12 25 26.5 46.5t37.5 52.5q29 40 46.5 67.5t29 64t11.5 82.5q0 60 -26 105.5t-71.5 70.5t-104.5 25t-104.5 -25t-71.5 -70.5t-26 -105.5q0 -46 12 -83t29 -64.5t47 -66.5q43 -57 64 -99v-84h-256v98
l144 -8q-57 57 -90 97t-56.5 96t-23.5 127q0 78 37.5 146t113 109.5t182.5 41.5t182 -41.5t112.5 -109.5t37.5 -146q0 -70 -23.5 -126.5zM39 700l-43 -147h-76l11 147h108z" />
    <glyph glyph-name="iotadieresistonos" unicode="&#x390;" horiz-adv-x="332" 
d="M252 -11q-89 0 -137.5 42t-48.5 148v368h125v-346q0 -62 20.5 -88t59.5 -26h36v-98h-55zM173 790l-38 -146h-58l10 146h86zM40 593h-75v108h75v-108zM257 593h-74v108h74v-108z" />
    <glyph glyph-name="Alpha" unicode="&#x391;" horiz-adv-x="792" 
d="M775 0h-138l-56 129h-372l-56 -129h-136l314 700h129zM395 559l-137 -317h274z" />
    <glyph glyph-name="Beta" unicode="&#x392;" horiz-adv-x="761" 
d="M671.5 297q37.5 -47 37.5 -110q0 -87 -69 -137t-189 -50h-359v700h349q111 0 175 -47t64 -129q0 -56 -29.5 -100t-78.5 -63q62 -17 99.5 -64zM221 585v-175h194q72 0 104.5 22t32.5 66q0 46 -33 66.5t-104 20.5h-194zM433 115q77 0 112 22t35 68q0 49 -37 70.5t-115 21.5
h-207v-182h212z" />
    <glyph glyph-name="Gamma" unicode="&#x393;" horiz-adv-x="624" 
d="M92 0v700h511v-114h-383v-586h-128z" />
    <glyph glyph-name="uni0394" unicode="&#x394;" horiz-adv-x="772" 
d="M322 700h129l304 -700h-738zM385 563l-188 -454h376l-186 454h-2z" />
    <glyph glyph-name="Epsilon" unicode="&#x395;" horiz-adv-x="701" 
d="M219 304v-190h431v-114h-558v700h548v-114h-421v-168h377v-114h-377z" />
    <glyph glyph-name="Zeta" unicode="&#x396;" horiz-adv-x="700" 
d="M652 0h-601v81l414 505h-403v114h585v-81l-416 -505h421v-114z" />
    <glyph glyph-name="Eta" unicode="&#x397;" horiz-adv-x="805" 
d="M583 405v295h130v-700h-130v291h-361v-291h-130v700h130v-295h361z" />
    <glyph glyph-name="Theta" unicode="&#x398;" horiz-adv-x="863" 
d="M240.5 35.5q-84.5 46.5 -132.5 128.5t-48 186q0 103 48 185.5t132.5 129t191.5 46.5q106 0 190.5 -46.5t132.5 -128.5t48 -186q0 -103 -48 -185.5t-132.5 -129t-191.5 -46.5q-106 0 -190.5 46.5zM554 136.5q53 30.5 83 86t30 127.5t-30 127.5t-83 86t-122 30.5
t-122.5 -30.5t-83.5 -86t-30 -127.5t30 -127.5t83.5 -86t122.5 -30.5t122 30.5zM227 314v82h411v-82h-411z" />
    <glyph glyph-name="Iota" unicode="&#x399;" horiz-adv-x="313" 
d="M221 0h-129v700h129v-700z" />
    <glyph glyph-name="Kappa" unicode="&#x39a;" horiz-adv-x="759" 
d="M734 0h-150l-218 312l-145 -159v-153h-129v700h129v-385l336 385h161l-265 -291z" />
    <glyph glyph-name="Lambda" unicode="&#x39b;" horiz-adv-x="772" 
d="M17 0l305 700h128l304 -700h-136l-230 548h-4l-229 -548h-138z" />
    <glyph glyph-name="Mu" unicode="&#x39c;" horiz-adv-x="926" 
d="M463 294l252 406h119v-700h-129v468l-221 -339h-42l-221 340v-469h-129v700h120z" />
    <glyph glyph-name="Nu" unicode="&#x39d;" horiz-adv-x="816" 
d="M221 0h-129v700h111l391 -477v477h130v-700h-108l-395 483v-483z" />
    <glyph glyph-name="Xi" unicode="&#x39e;" horiz-adv-x="541" 
d="M491 593h-468v107h468v-107zM443 301h-378v102h378v-102zM491 0h-468v107h468v-107z" />
    <glyph glyph-name="Omicron" unicode="&#x39f;" horiz-adv-x="863" 
d="M240.5 35.5q-84.5 46.5 -132.5 128.5t-48 186q0 103 48 185.5t132.5 129t191.5 46.5q106 0 190.5 -46.5t132.5 -128.5t48 -186q0 -103 -48 -185.5t-132.5 -129t-191.5 -46.5q-106 0 -190.5 46.5zM554 136.5q53 30.5 83 86t30 127.5t-30 127.5t-83 86t-122 30.5
t-122.5 -30.5t-83.5 -86t-30 -127.5t30 -127.5t83.5 -86t122.5 -30.5t122 30.5z" />
    <glyph glyph-name="Pi" unicode="&#x3a0;" horiz-adv-x="791" 
d="M699 700v-700h-129v593h-350v-593h-128v700h607z" />
    <glyph glyph-name="Rho" unicode="&#x3a1;" horiz-adv-x="707" 
d="M531 670.5q68 -29.5 104 -84.5t36 -130q0 -76 -36.5 -131.5t-104.5 -85t-161 -29.5h-148v-210h-129v700h279q92 0 160 -29.5zM367 324q84 0 129.5 32.5t45.5 99.5q0 65 -45.5 97.5t-128.5 32.5h-147v-262h146z" />
    <glyph glyph-name="Sigma" unicode="&#x3a3;" horiz-adv-x="638" 
d="M588 0h-537v88l235 266l-236 258v88h533v-107h-376l208 -239l-208 -247h381v-107z" />
    <glyph glyph-name="Tau" unicode="&#x3a4;" horiz-adv-x="651" 
d="M31 700h589v-114h-230v-586h-130v586h-229v114z" />
    <glyph glyph-name="Upsilon" unicode="&#x3a5;" horiz-adv-x="708" 
d="M554 700h142l-277 -444v-256h-130v259l-277 441h142l201 -333z" />
    <glyph glyph-name="Phi" unicode="&#x3a6;" horiz-adv-x="942" 
d="M839 207q-43 -63 -122 -99t-184 -38v-79h-125v79q-105 2 -184 38t-121.5 98.5t-42.5 143.5t42.5 143.5t121.5 98.5t184 38v79h125v-79q106 -2 185 -38t121.5 -98.5t42.5 -143.5q0 -80 -43 -143zM252 222q57 -49 156 -53v362q-99 -4 -156 -53t-57 -128t57 -128zM533 169
q100 4 156.5 52.5t56.5 128.5q0 79 -56 128t-157 53v-362z" />
    <glyph glyph-name="Chi" unicode="&#x3a7;" horiz-adv-x="743" 
d="M452 359l265 -359h-150l-195 262l-195 -262h-152l268 361l-253 339h152l180 -246l180 246h151z" />
    <glyph glyph-name="Psi" unicode="&#x3a8;" horiz-adv-x="849" 
d="M649 700h130v-213q0 -136 -73 -211.5t-219 -79.5v-196h-125v196q-147 5 -219.5 80.5t-72.5 211.5v212h130v-237q0 -85 41 -128.5t121 -45.5v411h125v-411q79 1 120.5 44.5t41.5 128.5v238z" />
    <glyph glyph-name="uni03A9" unicode="&#x3a9;" horiz-adv-x="785" 
d="M701.5 283.5q-23.5 -56.5 -57.5 -99t-87 -94.5l143 8v-98h-257v84q12 25 26.5 46.5t37.5 52.5q29 40 46.5 67.5t29 64t11.5 82.5q0 60 -26 105.5t-71.5 70.5t-104.5 25t-104.5 -25t-71.5 -70.5t-26 -105.5q0 -46 12 -83t29 -64.5t47 -66.5q43 -57 64 -99v-84h-256v98
l144 -8q-57 57 -90 97t-56.5 96t-23.5 127q0 78 37.5 146t113 109.5t182.5 41.5t182 -41.5t112.5 -109.5t37.5 -146q0 -70 -23.5 -126.5z" />
    <glyph glyph-name="Iotadieresis" unicode="&#x3aa;" horiz-adv-x="313" 
d="M221 0h-129v700h129v-700zM117 767h-90v120h90v-120zM286 767h-89v120h89v-120z" />
    <glyph glyph-name="Upsilondieresis" unicode="&#x3ab;" horiz-adv-x="708" 
d="M554 700h142l-277 -444v-256h-130v259l-277 441h142l201 -333zM308 767h-90v120h90v-120zM477 767h-89v120h89v-120z" />
    <glyph glyph-name="alphatonos" unicode="&#x3ac;" horiz-adv-x="713" 
d="M637 547l-15 -274l15 -273h-125l-2 115q-34 -62 -87.5 -94t-119.5 -32q-74 0 -132.5 37t-91.5 101.5t-33 144.5q0 82 33 147.5t91.5 102t131.5 36.5q66 0 120 -32t88 -93l2 114h125zM424 113.5q39 23.5 61 65.5t22 94q0 53 -22 95t-61 65.5t-88 23.5q-48 0 -86 -23.5
t-59 -65.5t-21 -95q0 -52 21 -94t59 -65.5t86 -23.5q49 0 88 23.5zM414 751l-43 -147h-76l11 147h108z" />
    <glyph glyph-name="epsilontonos" unicode="&#x3ad;" horiz-adv-x="543" 
d="M160.5 8.5q-52.5 20.5 -83.5 58t-31 87.5q0 81 76 123q-69 40 -69 119q0 75 64 118.5t166 43.5q71 0 125 -17.5t100 -48.5l-39 -88q-86 51 -170 51q-56 0 -87 -19t-31 -50q0 -66 101 -66h110v-85h-110q-52 0 -80 -18.5t-28 -48.5q0 -27 31.5 -46.5t89.5 -19.5q48 0 98 16
t87 41l39 -98q-41 -31 -102 -52t-141 -21q-63 0 -115.5 20.5zM322 751l-43 -147h-76l11 147h108z" />
    <glyph glyph-name="etatonos" unicode="&#x3ae;" horiz-adv-x="677" 
d="M611 0h-2v-171h-124v234h2v248q0 133 -128 133q-46 0 -82 -22t-56.5 -62t-20.5 -90v-270h-124v547h124v-66q33 36 81 57t108 21q101 0 161.5 -62t60.5 -169v-328zM393 751l-43 -147h-76l11 147h108z" />
    <glyph glyph-name="iotatonos" unicode="&#x3af;" horiz-adv-x="332" 
d="M252 -11q-89 0 -137.5 42t-48.5 148v368h125v-346q0 -62 20.5 -88t59.5 -26h36v-98h-55zM165 751l-43 -147h-76l11 147h108z" />
    <glyph glyph-name="upsilondieresistonos" unicode="&#x3b0;" horiz-adv-x="610" 
d="M51 547h125v-302q0 -78 29 -118.5t93 -40.5q69 0 96 39.5t27 119.5v302h125v-325q0 -113 -67 -173t-181 -60q-68 0 -124.5 26.5t-89.5 79t-33 127.5v325zM367 790l-38 -146h-58l10 146h86zM234 593h-75v108h75v-108zM451 593h-74v108h74v-108z" />
    <glyph glyph-name="alpha" unicode="&#x3b1;" horiz-adv-x="713" 
d="M637 547l-15 -274l15 -273h-125l-2 115q-34 -62 -87.5 -94t-119.5 -32q-74 0 -132.5 37t-91.5 101.5t-33 144.5q0 82 33 147.5t91.5 102t131.5 36.5q66 0 120 -32t88 -93l2 114h125zM424 113.5q39 23.5 61 65.5t22 94q0 53 -22 95t-61 65.5t-88 23.5q-48 0 -86 -23.5
t-59 -65.5t-21 -95q0 -52 21 -94t59 -65.5t86 -23.5q49 0 88 23.5z" />
    <glyph glyph-name="beta" unicode="&#x3b2;" horiz-adv-x="643" 
d="M82 530q0 88 53 141.5t169 53.5q57 0 108 -22t83 -66t32 -107q0 -42 -19.5 -80.5t-56.5 -63.5q39 -7 72.5 -32t53.5 -63t20 -83q0 -102 -65 -160.5t-178 -58.5q-81 0 -147 33v-193h-125v701zM207 125q28 -16 60 -25.5t61 -9.5q66 0 104 33t38 91q0 52 -36 88.5t-91 36.5
h-77v85h38q42 1 69.5 26.5t27.5 64.5q0 44 -28 73.5t-70 29.5q-41 0 -68.5 -21t-27.5 -67v-405z" />
    <glyph glyph-name="gamma" unicode="&#x3b3;" horiz-adv-x="634" 
d="M480 547h132l-234 -540v-178h-125v173l-231 545h131l162 -408h1z" />
    <glyph glyph-name="delta" unicode="&#x3b4;" horiz-adv-x="628" 
d="M281 648q124 -86 212.5 -195t88.5 -212q0 -73 -34.5 -130t-96 -89.5t-139.5 -32.5q-77 0 -137.5 32.5t-94.5 89.5t-34 130q0 170 240 274q-74 65 -168 128v96h421v-91h-258zM416.5 132.5q40.5 42.5 40.5 108.5q0 95 -114 218q-92 -49 -132.5 -99.5t-40.5 -118.5
q0 -66 40 -108.5t102 -42.5q64 0 104.5 42.5z" />
    <glyph glyph-name="epsilon" unicode="&#x3b5;" horiz-adv-x="543" 
d="M160.5 8.5q-52.5 20.5 -83.5 58t-31 87.5q0 81 76 123q-69 40 -69 119q0 75 64 118.5t166 43.5q71 0 125 -17.5t100 -48.5l-39 -88q-86 51 -170 51q-56 0 -87 -19t-31 -50q0 -66 101 -66h110v-85h-110q-52 0 -80 -18.5t-28 -48.5q0 -27 31.5 -46.5t89.5 -19.5q48 0 98 16
t87 41l39 -98q-41 -31 -102 -52t-141 -21q-63 0 -115.5 20.5z" />
    <glyph glyph-name="zeta" unicode="&#x3b6;" horiz-adv-x="510" 
d="M360 99q46 -19 75 -36t47 -42.5t18 -62.5q0 -54 -46 -129h-107q25 38 36 59.5t11 40.5q0 29 -22 46.5t-75 36.5l-90 30q-78 29 -119.5 70.5t-41.5 118.5q0 115 92 224.5t207 184.5h-263v98h392l-2 -97l2 -1q-122 -82 -212.5 -189.5t-90.5 -210.5q0 -44 30 -68.5t77 -40.5
z" />
    <glyph glyph-name="eta" unicode="&#x3b7;" horiz-adv-x="677" 
d="M611 0h-2v-171h-124v234h2v248q0 133 -128 133q-46 0 -82 -22t-56.5 -62t-20.5 -90v-270h-124v547h124v-66q33 36 81 57t108 21q101 0 161.5 -62t60.5 -169v-328z" />
    <glyph glyph-name="theta" unicode="&#x3b8;" horiz-adv-x="661" 
d="M481.5 694q64.5 -48 99 -133.5t34.5 -195.5q0 -109 -34 -194.5t-98.5 -134t-152.5 -48.5q-86 0 -150.5 48t-99 134t-34.5 196q0 108 34 193.5t99 134t152 48.5q86 0 150.5 -48zM215.5 571.5q-43.5 -64.5 -51.5 -166.5h333q-8 104 -52.5 167.5t-114.5 63.5
q-71 0 -114.5 -64.5zM445.5 158.5q43.5 64.5 51.5 166.5h-333q8 -104 52.5 -167.5t114.5 -63.5q71 0 114.5 64.5z" />
    <glyph glyph-name="iota" unicode="&#x3b9;" horiz-adv-x="332" 
d="M252 -11q-89 0 -137.5 42t-48.5 148v368h125v-346q0 -62 20.5 -88t59.5 -26h36v-98h-55z" />
    <glyph glyph-name="kappa" unicode="&#x3ba;" horiz-adv-x="624" 
d="M598 0h-136l-163 218h-99v-218h-124v548h124v-221h99l147 221h135l-195 -265z" />
    <glyph glyph-name="lambda" unicode="&#x3bb;" horiz-adv-x="591" 
d="M22 0l219 507l-28 66q-18 46 -42.5 64t-59.5 18v83q26 2 37 2q46 0 74.5 -13.5t46 -38.5t36.5 -70l264 -618h-132l-141 334l-143 -334h-131z" />
    <glyph glyph-name="uni03BC" unicode="&#x3bc;" horiz-adv-x="677" 
d="M477 547h124v-547h-124v66q-33 -36 -81 -57t-108 -21q-56 0 -98 19l3 -178h-124v346q-3 21 -3 44v328h124v-311q0 -133 128 -133q46 0 82 22t56.5 62t20.5 90v270z" />
    <glyph glyph-name="nu" unicode="&#x3bd;" horiz-adv-x="637" 
d="M386 0h-135l-229 547h136l160 -406h1l160 406h136z" />
    <glyph glyph-name="xi" unicode="&#x3be;" horiz-adv-x="520" 
d="M350 -172q24 31 35.5 52.5t11.5 43.5q0 19 -8 30t-28.5 21.5t-64.5 25.5l-94 33q-68 23 -112 65.5t-44 119.5q0 68 40 117t115 62q-62 18 -95 62t-33 101q0 52 29 95t80.5 68t116.5 25q71 0 120 -15t95 -46l-39 -68q-39 23 -75.5 33.5t-84.5 10.5q-57 0 -90 -33t-33 -77
q0 -54 37.5 -84.5t101.5 -30.5h74v-87h-95q-60 0 -98 -33t-38 -85q0 -44 25 -71t65 -40l100 -36q69 -24 104 -53.5t35 -84.5q0 -33 -11.5 -60t-34.5 -61h-107z" />
    <glyph glyph-name="omicron" unicode="&#x3bf;" 
d="M191 26q-68 37 -106.5 102t-38.5 146t38.5 146t106.5 102t153 37q86 0 154 -36.5t106.5 -101.5t38.5 -146q0 -82 -38.5 -147t-106.5 -102t-154 -37q-85 0 -153 37zM469 149q48 48 48 125q0 78 -48 125t-125 47q-76 0 -124.5 -47t-48.5 -124q0 -78 49 -126t125 -48t124 48
z" />
    <glyph glyph-name="pi" unicode="&#x3c0;" horiz-adv-x="675" 
d="M599 547v-547h-125v450h-274v-450h-124v547h523z" />
    <glyph glyph-name="rho" unicode="&#x3c1;" horiz-adv-x="718" 
d="M76 274q0 81 38.5 146t106.5 102t153 37t153 -36.5t106.5 -101.5t38.5 -146t-38.5 -146.5t-106.5 -102.5t-153 -37q-62 0 -112.5 31t-72.5 82l11 -273h-124v445zM223.5 180q22.5 -42 62 -65.5t89.5 -23.5q49 0 88 23.5t61.5 65.5t22.5 94t-22.5 94t-62 65.5t-88.5 23.5
q-50 0 -89.5 -23.5t-61.5 -65t-22 -93.5q0 -53 22.5 -95z" />
    <glyph glyph-name="uni03C2" unicode="&#x3c2;" horiz-adv-x="583" 
d="M369 -171q25 38 36 59.5t11 40.5q0 28 -22 45.5t-76 37.5l-75 28q-87 32 -142 91t-55 159q0 76 37 137.5t102.5 96.5t147.5 35q64 0 120 -23.5t98 -71.5l-77 -70q-55 64 -139 64q-71 0 -117 -44.5t-46 -116.5q1 -69 41.5 -107.5t99.5 -62.5l68 -28q47 -20 75.5 -36.5
t46.5 -42t18 -62.5q0 -54 -46 -129h-106z" />
    <glyph glyph-name="sigma" unicode="&#x3c3;" horiz-adv-x="696" 
d="M697 438l-109 7q55 -72 55 -170q0 -82 -38.5 -147t-106.5 -102t-154 -37q-85 0 -153 37t-106.5 102t-38.5 146t38.5 146t106.5 102t153 37l353 1v-122zM469 149q48 48 48 125q0 78 -48 125t-125 47q-76 0 -124.5 -47t-48.5 -124q0 -78 49 -126t125 -48t124 48z" />
    <glyph glyph-name="tau" unicode="&#x3c4;" horiz-adv-x="482" 
d="M441 449h-182v-248q0 -62 20 -88t60 -26h36v-98h-56q-89 0 -137 42t-48 148v270h-97v98h404v-98z" />
    <glyph glyph-name="upsilon" unicode="&#x3c5;" horiz-adv-x="610" 
d="M51 547h125v-302q0 -78 29 -118.5t93 -40.5q69 0 96 39.5t27 119.5v302h125v-325q0 -113 -67 -173t-181 -60q-68 0 -124.5 26.5t-89.5 79t-33 127.5v325z" />
    <glyph glyph-name="phi" unicode="&#x3c6;" horiz-adv-x="832" 
d="M746 134.5q-39 -61.5 -108.5 -97t-159.5 -37.5v-170h-124v170q-90 2 -160 37.5t-109 96.5t-39 139t39 139.5t109 97t160 37.5v153h124v-153q89 -2 159 -37.5t109 -96.5t39 -139t-39 -139.5zM220.5 147.5q49.5 -47.5 133.5 -49.5v352q-84 -2 -133.5 -49.5t-49.5 -126.5
t49.5 -126.5zM478 98q84 2 132.5 49t48.5 126t-49 127t-132 50v-352z" />
    <glyph glyph-name="chi" unicode="&#x3c7;" horiz-adv-x="634" 
d="M391 198l220 -369h-139l-155 260l-155 -260h-139l220 369l-209 349h144l139 -244l139 244h144z" />
    <glyph glyph-name="psi" unicode="&#x3c8;" horiz-adv-x="813" 
d="M617 547h120v-273q0 -131 -75.5 -196.5t-200.5 -68.5v-180h-116v180q-77 3 -140 31.5t-101 87.5t-38 146v273h120v-277q0 -71 44 -113t115 -46v436h116v-436q74 4 115 45.5t41 113.5v277z" />
    <glyph glyph-name="omega" unicode="&#x3c9;" horiz-adv-x="903" 
d="M68 397q22 72 72 150h126q-96 -139 -96 -278q0 -83 28 -130.5t85 -47.5q61 0 88 39.5t27 114.5v133h107v-133q0 -80 26.5 -117t88.5 -37q56 0 84.5 48t28.5 130q0 137 -96 278h125q51 -80 73 -151t22 -147q0 -80 -29 -139t-78 -90t-110 -31q-165 0 -188 144
q-13 -68 -60 -106t-128 -38q-61 0 -110.5 31t-78.5 89.5t-29 139.5q0 76 22 148z" />
    <glyph glyph-name="iotadieresis" unicode="&#x3ca;" horiz-adv-x="332" 
d="M252 -11q-89 0 -137.5 42t-48.5 148v368h125v-346q0 -62 20.5 -88t59.5 -26h36v-98h-55zM72 614h-90v120h90v-120zM241 614h-89v120h89v-120z" />
    <glyph glyph-name="upsilondieresis" unicode="&#x3cb;" horiz-adv-x="610" 
d="M51 547h125v-302q0 -78 29 -118.5t93 -40.5q69 0 96 39.5t27 119.5v302h125v-325q0 -113 -67 -173t-181 -60q-68 0 -124.5 26.5t-89.5 79t-33 127.5v325zM267 614h-90v120h90v-120zM436 614h-89v120h89v-120z" />
    <glyph glyph-name="omicrontonos" unicode="&#x3cc;" 
d="M191 26q-68 37 -106.5 102t-38.5 146t38.5 146t106.5 102t153 37q86 0 154 -36.5t106.5 -101.5t38.5 -146q0 -82 -38.5 -147t-106.5 -102t-154 -37q-85 0 -153 37zM469 149q48 48 48 125q0 78 -48 125t-125 47q-76 0 -124.5 -47t-48.5 -124q0 -78 49 -126t125 -48t124 48
zM392 751l-43 -147h-76l11 147h108z" />
    <glyph glyph-name="upsilontonos" unicode="&#x3cd;" horiz-adv-x="610" 
d="M51 547h125v-302q0 -78 29 -118.5t93 -40.5q69 0 96 39.5t27 119.5v302h125v-325q0 -113 -67 -173t-181 -60q-68 0 -124.5 26.5t-89.5 79t-33 127.5v325zM360 751l-43 -147h-76l11 147h108z" />
    <glyph glyph-name="omegatonos" unicode="&#x3ce;" horiz-adv-x="903" 
d="M68 397q22 72 72 150h126q-96 -139 -96 -278q0 -83 28 -130.5t85 -47.5q61 0 88 39.5t27 114.5v133h107v-133q0 -80 26.5 -117t88.5 -37q56 0 84.5 48t28.5 130q0 137 -96 278h125q51 -80 73 -151t22 -147q0 -80 -29 -139t-78 -90t-110 -31q-165 0 -188 144
q-13 -68 -60 -106t-128 -38q-61 0 -110.5 31t-78.5 89.5t-29 139.5q0 76 22 148zM505 751l-43 -147h-76l11 147h108z" />
    <glyph glyph-name="uni0400" unicode="&#x400;" horiz-adv-x="701" 
d="M219 304v-190h431v-114h-558v700h548v-114h-421v-168h377v-114h-377zM392 756l-88 -7l-122 130l117 24z" />
    <glyph glyph-name="uni0401" unicode="&#x401;" horiz-adv-x="701" 
d="M219 304v-190h431v-114h-558v700h548v-114h-421v-168h377v-114h-377zM307 767h-90v120h90v-120zM476 767h-89v120h89v-120z" />
    <glyph glyph-name="uni0402" unicode="&#x402;" horiz-adv-x="811" 
d="M644 413.5q51 -28.5 79 -82.5t28 -130v-25q0 -93 -52 -138.5t-139 -45.5q-54 0 -99 24l28 74q21 -13 49 -13q36 0 62.5 21.5t26.5 69.5v24q0 69 -37 108.5t-102 39.5q-73 0 -144 -23v-317h-130v593h-183v107h589v-107h-276v-181q102 30 183 30q66 0 117 -28.5z" />
    <glyph glyph-name="uni0403" unicode="&#x403;" horiz-adv-x="624" 
d="M92 0v700h511v-114h-383v-586h-128zM469 879l-122 -130l-88 7l93 147z" />
    <glyph glyph-name="uni0404" unicode="&#x404;" horiz-adv-x="731" 
d="M707 106q-50 -57 -121 -87t-154 -30q-105 0 -190 47t-133.5 129.5t-48.5 184.5t48 184.5t132 129.5t188 47q169 0 277 -113l-85 -81q-73 78 -187 78q-90 0 -154 -53t-80 -140h325v-94h-326q13 -92 78 -147.5t156 -55.5q115 0 190 80z" />
    <glyph glyph-name="uni0405" unicode="&#x405;" horiz-adv-x="648" 
d="M171 16q-76 27 -133 73l59 99q119 -82 242 -82q64 0 99 23t35 59q0 29 -16 47t-48.5 30t-92.5 25q-128 27 -193 78t-65 140q0 64 35.5 110t96.5 69.5t139 23.5q73 0 135 -20.5t120 -62.5l-69 -94q-38 27 -88.5 43.5t-104.5 16.5q-128 0 -128 -87q0 -38 35.5 -61
t121.5 -42q91 -20 146.5 -44t83.5 -63t28 -99q0 -64 -35.5 -111t-98.5 -72.5t-144 -25.5q-84 0 -160 27z" />
    <glyph glyph-name="uni0406" unicode="&#x406;" horiz-adv-x="313" 
d="M221 0h-129v700h129v-700z" />
    <glyph glyph-name="uni0407" unicode="&#x407;" horiz-adv-x="313" 
d="M221 0h-129v700h129v-700zM117 767h-90v120h90v-120zM286 767h-89v120h89v-120z" />
    <glyph glyph-name="uni0408" unicode="&#x408;" horiz-adv-x="582" 
d="M113.5 23q-64.5 34 -102.5 91l84 78q27 -39 66.5 -62.5t87.5 -23.5q62 0 99.5 42t37.5 109v329h-240v114h365v-444q0 -79 -32 -139.5t-89.5 -94t-133.5 -33.5q-78 0 -142.5 34z" />
    <glyph glyph-name="uni0409" unicode="&#x409;" horiz-adv-x="1131" 
d="M793 490q139 0 219.5 -65.5t80.5 -180.5q0 -114 -80 -179t-220 -65h-248v593h-269l-6 -269q-3 -132 -37 -203.5t-87 -96.5t-125 -24v102q54 2 85.5 49t34.5 170l9 379h525v-210h118zM790 102q82 0 128 37.5t46 104.5q0 68 -46 106t-128 38h-115v-286h115z" />
    <glyph glyph-name="uni040A" unicode="&#x40a;" horiz-adv-x="1121" 
d="M791 451q135 0 214 -58.5t79 -164.5q0 -68 -36 -119.5t-102 -80t-153 -28.5h-252l2 2v336h-322v-338h-129v700h129v-255h322v255h129v-249h119zM788 93q79 0 122.5 35t43.5 92q0 60 -43 94.5t-123 34.5h-116v-256h116z" />
    <glyph glyph-name="uni040B" unicode="&#x40b;" horiz-adv-x="817" 
d="M644 414q51 -28 79 -82t28 -128v-204h-124v176q0 75 -40 117t-106 42q-73 0 -137 -22v-313h-130v593h-183v107h589v-107h-276v-181q102 30 183 30q66 0 117 -28z" />
    <glyph glyph-name="uni040C" unicode="&#x40c;" horiz-adv-x="756" 
d="M538 879l-122 -130l-88 7l93 147zM693 0h-143l-212 292h-117v-292h-129v700h129v-291h120l191 291h146l-242 -342z" />
    <glyph glyph-name="uni040D" unicode="&#x40d;" horiz-adv-x="816" 
d="M724 700v-700h-129v483l-395 -483h-108v700h130v-477l391 477h111zM454 756l-88 -7l-122 130l117 24z" />
    <glyph glyph-name="uni040E" unicode="&#x40e;" horiz-adv-x="614" 
d="M469 699h128l-228 -527l-18 -39q-33 -75 -73.5 -106t-111.5 -31q-32 0 -71 9.5t-57 21.5l38 89q17 -8 39.5 -12t41.5 -4q31 0 50 15t35 51l3 6l-228 527h128l162 -397h1zM457 881q0 -64 -41 -101.5t-110 -37.5q-68 0 -109 37.5t-41 101.5l93 1q0 -36 13 -52t44 -16
t44.5 16t13.5 52z" />
    <glyph glyph-name="uni040F" unicode="&#x40f;" horiz-adv-x="791" 
d="M570 107v593h129v-700h-236v-129h-130v129h-241v700h128v-593h350z" />
    <glyph glyph-name="uni0410" unicode="&#x410;" horiz-adv-x="792" 
d="M775 0h-138l-56 129h-372l-56 -129h-136l314 700h129zM395 559l-137 -317h274z" />
    <glyph glyph-name="uni0411" unicode="&#x411;" horiz-adv-x="739" 
d="M426 441q92 0 151 -34t85 -86.5t26 -110.5q0 -63 -31.5 -110.5t-88.5 -73.5t-130 -26h-346v700h501v-110h-372v-149h205zM412 109q68 0 108 27t40 86q0 52 -40 82.5t-103 30.5h-196v-226h191z" />
    <glyph glyph-name="uni0412" unicode="&#x412;" horiz-adv-x="761" 
d="M671.5 297q37.5 -47 37.5 -110q0 -87 -69 -137t-189 -50h-359v700h349q111 0 175 -47t64 -129q0 -56 -29.5 -100t-78.5 -63q62 -17 99.5 -64zM221 585v-175h194q72 0 104.5 22t32.5 66q0 46 -33 66.5t-104 20.5h-194zM433 115q77 0 112 22t35 68q0 49 -37 70.5t-115 21.5
h-207v-182h212z" />
    <glyph glyph-name="uni0413" unicode="&#x413;" horiz-adv-x="624" 
d="M92 0v700h511v-114h-383v-586h-128z" />
    <glyph glyph-name="uni0414" unicode="&#x414;" horiz-adv-x="830" 
d="M684 107h116v-226h-131v119h-508v-119h-130v226h60q25 1 40.5 15.5t26.5 62.5t14 145l11 370h501v-593zM555 107v486h-246l-9 -276q-4 -139 -34 -210h289z" />
    <glyph glyph-name="uni0415" unicode="&#x415;" horiz-adv-x="701" 
d="M219 304v-190h431v-114h-558v700h548v-114h-421v-168h377v-114h-377z" />
    <glyph glyph-name="uni0416" unicode="&#x416;" horiz-adv-x="1029" 
d="M1003 0h-143l-212 292h-72v-292h-129v292h-71l-208 -292h-143l253 359l-238 341h147l185 -291h75v291h129v-291h75l191 291h147l-243 -341z" />
    <glyph glyph-name="uni0417" unicode="&#x417;" horiz-adv-x="649" 
d="M481 400.5q53 -25.5 82.5 -72.5t29.5 -109q0 -68 -36 -120.5t-97.5 -81t-136.5 -28.5q-84 0 -154.5 28.5t-119.5 78.5l57 78q36 -35 98 -59.5t111 -24.5q66 0 108 36.5t42 92.5q0 50 -34 83.5t-90 34.5q-24 2 -50 2q-41 0 -83 -4l-1 65l186 198h-292v102h453l7 -82
l-202 -192q69 0 122 -25.5z" />
    <glyph glyph-name="uni0418" unicode="&#x418;" horiz-adv-x="816" 
d="M724 700v-700h-129v483l-395 -483h-108v700h130v-477l391 477h111z" />
    <glyph glyph-name="uni0419" unicode="&#x419;" horiz-adv-x="816" 
d="M724 700v-700h-129v483l-395 -483h-108v700h130v-477l391 477h111zM559 882q0 -64 -41 -101.5t-110 -37.5q-68 0 -109 37.5t-41 101.5l93 1q0 -36 13 -52t44 -16t44.5 16t13.5 52z" />
    <glyph glyph-name="uni041A" unicode="&#x41a;" horiz-adv-x="718" 
d="M693 0h-143l-212 292h-117v-292h-129v700h129v-291h120l191 291h146l-242 -342z" />
    <glyph glyph-name="uni041B" unicode="&#x41b;" horiz-adv-x="792" 
d="M700 0h-129v593h-295l-6 -269q-3 -132 -37 -203.5t-87 -96.5t-125 -24v102q54 2 85.5 49t34.5 170l9 379h550v-700z" />
    <glyph glyph-name="uni041C" unicode="&#x41c;" horiz-adv-x="926" 
d="M463 294l252 406h119v-700h-129v468l-221 -339h-42l-221 340v-469h-129v700h120z" />
    <glyph glyph-name="uni041D" unicode="&#x41d;" horiz-adv-x="805" 
d="M583 405v295h130v-700h-130v291h-361v-291h-130v700h130v-295h361z" />
    <glyph glyph-name="uni041E" unicode="&#x41e;" horiz-adv-x="863" 
d="M240.5 35.5q-84.5 46.5 -132.5 128.5t-48 186q0 103 48 185.5t132.5 129t191.5 46.5q106 0 190.5 -46.5t132.5 -128.5t48 -186q0 -103 -48 -185.5t-132.5 -129t-191.5 -46.5q-106 0 -190.5 46.5zM554 136.5q53 30.5 83 86t30 127.5t-30 127.5t-83 86t-122 30.5
t-122.5 -30.5t-83.5 -86t-30 -127.5t30 -127.5t83.5 -86t122.5 -30.5t122 30.5z" />
    <glyph glyph-name="uni041F" unicode="&#x41f;" horiz-adv-x="791" 
d="M699 700v-700h-129v593h-350v-593h-128v700h607z" />
    <glyph glyph-name="uni0420" unicode="&#x420;" horiz-adv-x="707" 
d="M531 670.5q68 -29.5 104 -84.5t36 -130q0 -76 -36.5 -131.5t-104.5 -85t-161 -29.5h-148v-210h-129v700h279q92 0 160 -29.5zM367 324q84 0 129.5 32.5t45.5 99.5q0 65 -45.5 97.5t-128.5 32.5h-147v-262h146z" />
    <glyph glyph-name="uni0421" unicode="&#x421;" horiz-adv-x="731" 
d="M242 36q-85 47 -133.5 129.5t-48.5 184.5t48 184.5t132 129.5t188 47q169 0 277 -113l-85 -81q-73 78 -187 78q-68 0 -122 -31t-85 -86.5t-31 -126.5q0 -72 31 -128t85 -87t121 -31q115 0 190 80l85 -79q-50 -57 -121 -87t-154 -30q-105 0 -190 47z" />
    <glyph glyph-name="uni0422" unicode="&#x422;" horiz-adv-x="651" 
d="M31 700h589v-114h-230v-586h-130v586h-229v114z" />
    <glyph glyph-name="uni0423" unicode="&#x423;" horiz-adv-x="614" 
d="M469 699h128l-228 -527l-18 -39q-33 -75 -73.5 -106t-111.5 -31q-32 0 -71 9.5t-57 21.5l38 89q17 -8 39.5 -12t41.5 -4q31 0 50 15t35 51l3 6l-228 527h128l162 -397h1z" />
    <glyph glyph-name="uni0424" unicode="&#x424;" horiz-adv-x="942" 
d="M839 207q-43 -63 -122 -99t-184 -38v-79h-125v79q-105 2 -184 38t-121.5 98.5t-42.5 143.5t42.5 143.5t121.5 98.5t184 38v79h125v-79q106 -2 185 -38t121.5 -98.5t42.5 -143.5q0 -80 -43 -143zM252 222q57 -49 156 -53v362q-99 -4 -156 -53t-57 -128t57 -128zM533 169
q100 4 156.5 52.5t56.5 128.5q0 79 -56 128t-157 53v-362z" />
    <glyph glyph-name="uni0425" unicode="&#x425;" horiz-adv-x="743" 
d="M452 359l265 -359h-150l-195 262l-195 -262h-152l268 361l-253 339h152l180 -246l180 246h151z" />
    <glyph glyph-name="uni0426" unicode="&#x426;" horiz-adv-x="824" 
d="M699 700v-590h94v-226h-130v116h-571v700h128v-593h350v593h129z" />
    <glyph glyph-name="uni0427" unicode="&#x427;" horiz-adv-x="734" 
d="M512 700h130v-700h-130v249q-116 -36 -218 -36q-66 0 -117 28t-79 81.5t-28 127.5v250h125v-222q0 -74 40 -116.5t105 -42.5q59 0 98.5 8.5t73.5 20.5v352z" />
    <glyph glyph-name="uni0428" unicode="&#x428;" horiz-adv-x="1051" 
d="M829 107v593h131v-700h-868v700h129v-593h240v593h130v-593h238z" />
    <glyph glyph-name="uni0429" unicode="&#x429;" horiz-adv-x="1081" 
d="M960 700v-593h90v-226h-130v119h-828v700h129v-593h240v593h130v-593h238v593h131z" />
    <glyph glyph-name="uni042A" unicode="&#x42a;" horiz-adv-x="776" 
d="M428 500q92 0 160.5 -32t105 -89.5t36.5 -134.5q0 -114 -80.5 -179t-220.5 -65h-279v589h-119v111h249v-200h148zM426 112q81 0 127.5 36t46.5 96q0 68 -46 106t-128 38h-146v-276h146z" />
    <glyph glyph-name="uni042B" unicode="&#x42b;" horiz-adv-x="996" 
d="M369 500q92 0 160 -32t105 -89.5t37 -134.5q0 -75 -36.5 -130t-104.5 -84.5t-160 -29.5h-279v700h130v-200h148zM367 112q81 0 127 36t46 96q0 68 -45.5 106t-127.5 38h-146v-276h146zM914 0h-124v738h124v-738z" />
    <glyph glyph-name="uni042C" unicode="&#x42c;" horiz-adv-x="708" 
d="M369 500q92 0 160 -32t105 -89.5t37 -134.5q0 -75 -36.5 -130t-104.5 -84.5t-160 -29.5h-279v700h130v-200h148zM367 112q81 0 127 36t46 96q0 68 -45.5 106t-127.5 38h-146v-276h146z" />
    <glyph glyph-name="uni042D" unicode="&#x42d;" horiz-adv-x="731" 
d="M491 664q84 -47 132 -129.5t48 -184.5t-48.5 -184.5t-133.5 -129.5t-190 -47q-83 0 -154 30t-121 87l85 79q75 -80 190 -80q91 0 156 55.5t78 147.5h-326v94h325q-16 87 -80 140t-154 53q-114 0 -187 -78l-85 81q108 113 277 113q104 0 188 -47z" />
    <glyph glyph-name="uni042E" unicode="&#x42e;" horiz-adv-x="1156" 
d="M915.5 664.5q84.5 -46.5 132.5 -128.5t48 -186q0 -103 -48 -185.5t-132.5 -129t-191.5 -46.5q-97 0 -177 39t-130 109.5t-61 161.5h-135v-299h-129v700h129v-294h136q12 89 62.5 158.5t129.5 108t175 38.5q107 0 191.5 -46.5zM847.5 131q54.5 32 85.5 89.5t31 129.5
q0 73 -31 130t-85.5 89.5t-123.5 32.5q-68 0 -122.5 -32.5t-85.5 -90t-31 -129.5t31 -129.5t85.5 -89.5t122.5 -32q69 0 123.5 32z" />
    <glyph glyph-name="uni042F" unicode="&#x42f;" horiz-adv-x="721" 
d="M629 0h-129v234h-110l-197 -234h-163l206 244q-95 20 -145.5 77t-50.5 145q0 111 79 172.5t221 61.5h289v-700zM500 347v239h-157q-173 0 -173 -122q0 -63 43.5 -90t130.5 -27h156z" />
    <glyph glyph-name="uni0430" unicode="&#x430;" horiz-adv-x="607" 
d="M477 499q64 -60 64 -170v-329h-124v65q-29 -32 -78 -54t-116 -22q-57 0 -100.5 22.5t-67 62.5t-23.5 90q0 79 54 131t166 52q78 0 164 -9q-3 52 -39.5 80.5t-104.5 28.5q-38 0 -80 -16t-72 -43l-61 91q48 40 108 60t118 20q128 0 192 -60zM368 137q43 37 48 92v9
q-61 9 -134 9q-71 0 -101 -20t-30 -56q0 -71 113 -71q61 0 104 37z" />
    <glyph glyph-name="uni0431" unicode="&#x431;" horiz-adv-x="675" 
d="M126 81.5q-80 92.5 -80 255.5q0 174 81 264.5t240 107.5q35 4 43 5q41 4 66 8t51 12v-100q-18 -5 -42.5 -8.5t-50.5 -6.5l-62 -7q-108 -15 -151 -74.5t-43 -148.5q28 48 76 83t134 35q71 0 126 -35.5t85 -95.5t30 -132q0 -78 -35 -135.5t-98.5 -88.5t-145.5 -31
q-144 0 -224 92.5zM462.5 132.5q42.5 41.5 42.5 111.5q0 43 -20 78.5t-55.5 56t-79.5 20.5q-41 0 -78.5 -19t-60.5 -52.5t-23 -76.5q0 -33 16.5 -70t53 -63.5t94.5 -26.5q68 0 110.5 41.5z" />
    <glyph glyph-name="uni0432" unicode="&#x432;" horiz-adv-x="616" 
d="M537 236q33 -36 33 -88q0 -70 -56 -109t-155 -39h-283v548h273q92 0 144 -37t52 -102q0 -45 -26.5 -78t-73.5 -47q59 -12 92 -48zM200 437v-109h139q83 0 83 57q0 52 -83 52h-139zM357 111q44 0 64.5 12.5t20.5 41.5q0 50 -81 50h-161v-104h157z" />
    <glyph glyph-name="uni0433" unicode="&#x433;" horiz-adv-x="502" 
d="M76 0v547h401v-97h-277v-450h-124z" />
    <glyph glyph-name="uni0434" unicode="&#x434;" horiz-adv-x="684" 
d="M567 98h52v-177h-129v79h-339v-79h-129v177h33q23 0 41.5 36.5t20.5 99.5l9 313h441v-449zM443 450h-196l-6 -198q-3 -97 -39 -154h241v352z" />
    <glyph glyph-name="uni0435" unicode="&#x435;" horiz-adv-x="623" 
d="M175 225q12 -58 59 -91t116 -33q47 0 79.5 12.5t59.5 42.5l80 -71q-90 -95 -225 -95q-85 0 -153 36.5t-106.5 101.5t-38.5 146t36.5 145.5t102.5 101t151 36.5q77 0 137 -33.5t93.5 -92t33.5 -132.5q0 -24 -6 -74h-419zM231 415q-42 -32 -54 -87h300q-10 59 -47 89
t-95 30q-62 0 -104 -32z" />
    <glyph glyph-name="uni0436" unicode="&#x436;" horiz-adv-x="859" 
d="M849 0h-137l-158 218h-64v-218h-121v218h-64l-159 -218h-136l208 289l-191 259h135l138 -211h69v210h121v-210h68l138 211h135l-190 -259z" />
    <glyph glyph-name="uni0437" unicode="&#x437;" horiz-adv-x="542" 
d="M126 9q-61 21 -103 52l39 98q38 -25 87.5 -41t98.5 -16q58 0 89 19.5t31 46.5q0 30 -28 48.5t-80 18.5h-109v85h109q102 0 102 66q0 31 -31 50t-87 19q-85 0 -171 -51l-39 88q47 31 101 48.5t124 17.5q102 0 166 -43.5t64 -118.5q0 -79 -69 -119q76 -42 76 -123
q0 -50 -30.5 -87.5t-83 -58t-116.5 -20.5q-79 0 -140 21z" />
    <glyph glyph-name="uni0438" unicode="&#x438;" horiz-adv-x="674" 
d="M598 547v-547h-124v353l-310 -353h-97v547h125v-348l306 348h100z" />
    <glyph glyph-name="uni0439" unicode="&#x439;" horiz-adv-x="674" 
d="M598 547v-547h-124v353l-310 -353h-97v547h125v-348l306 348h100zM494 729q0 -64 -41 -101.5t-110 -37.5q-68 0 -109 37.5t-41 101.5l93 1q0 -36 13 -52t44 -16t44.5 16t13.5 52z" />
    <glyph glyph-name="uni043A" unicode="&#x43a;" horiz-adv-x="624" 
d="M598 0h-136l-163 218h-99v-218h-124v548h124v-221h99l147 221h135l-195 -265z" />
    <glyph glyph-name="uni043B" unicode="&#x43b;" horiz-adv-x="634" 
d="M558 0h-125v450h-206l-4 -225q-1 -90 -22.5 -138.5t-63.5 -67.5t-112 -19v91q38 1 55.5 33t18.5 108l7 315h452v-547z" />
    <glyph glyph-name="uni043C" unicode="&#x43c;" horiz-adv-x="787" 
d="M394 272l196 276h121v-548h-123v346l-179 -245h-30l-179 245v-346h-124v548h122z" />
    <glyph glyph-name="uni043D" unicode="&#x43d;" horiz-adv-x="675" 
d="M474 335v213h125v-548h-125v225h-274v-225h-124v548h124v-213h274z" />
    <glyph glyph-name="uni043E" unicode="&#x43e;" 
d="M191 26q-68 37 -106.5 102t-38.5 146t38.5 146t106.5 102t153 37q86 0 154 -36.5t106.5 -101.5t38.5 -146q0 -82 -38.5 -147t-106.5 -102t-154 -37q-85 0 -153 37zM469 149q48 48 48 125q0 78 -48 125t-125 47q-76 0 -124.5 -47t-48.5 -124q0 -78 49 -126t125 -48t124 48
z" />
    <glyph glyph-name="uni043F" unicode="&#x43f;" horiz-adv-x="675" 
d="M599 547v-547h-125v450h-274v-450h-124v547h523z" />
    <glyph glyph-name="uni0440" unicode="&#x440;" horiz-adv-x="708" 
d="M528.5 521q61.5 -37 97.5 -102t36 -147q0 -84 -36 -148.5t-97 -99.5t-136 -35q-59 0 -108.5 19t-84.5 56v-236h-124v719h124v-64q36 37 86 56t108 19q73 0 134.5 -37zM491.5 150q46.5 47 46.5 122q0 78 -46 125.5t-120 47.5q-76 0 -124 -46.5t-48 -125.5t47.5 -124.5
t124.5 -45.5q73 0 119.5 47z" />
    <glyph glyph-name="uni0441" unicode="&#x441;" horiz-adv-x="585" 
d="M193 25.5q-68 36.5 -107.5 101t-39.5 146.5t39.5 147.5t107.5 102t151 36.5q63 0 120 -24t98 -71l-88 -74q-27 30 -59 43t-73 13q-73 0 -121.5 -45.5t-48.5 -126.5t49 -127t125 -46q40 0 70.5 12.5t57.5 44.5l88 -75q-40 -46 -97 -70t-121 -24q-83 0 -151 36.5z" />
    <glyph glyph-name="uni0442" unicode="&#x442;" horiz-adv-x="568" 
d="M37 547h493v-111h-184v-436h-124v436h-185v111z" />
    <glyph glyph-name="uni0443" unicode="&#x443;" horiz-adv-x="646" 
d="M489 547h136l-229 -547l-18 -41q-33 -76 -78 -108.5t-123 -32.5q-34 0 -69.5 10.5t-56.5 23.5l37 91q20 -10 42.5 -15.5t40.5 -5.5q35 0 52.5 15t33.5 53l5 11h-1l-230 546h136l161 -406h1z" />
    <glyph glyph-name="uni0444" unicode="&#x444;" horiz-adv-x="832" 
d="M746 134.5q-39 -61.5 -108.5 -97t-159.5 -37.5v-170h-124v170q-90 2 -160 37.5t-109 96.5t-39 139t39 139.5t109 97t160 37.5v153h124v-153q89 -2 159 -37.5t109 -96.5t39 -139t-39 -139.5zM220.5 147.5q49.5 -47.5 133.5 -49.5v352q-84 -2 -133.5 -49.5t-49.5 -126.5
t49.5 -126.5zM478 98q84 2 132.5 49t48.5 126t-49 127t-132 50v-352z" />
    <glyph glyph-name="uni0445" unicode="&#x445;" horiz-adv-x="639" 
d="M393 281l221 -281h-143l-153 196l-153 -196h-140l219 279l-211 268h148l139 -184l138 184h144z" />
    <glyph glyph-name="uni0446" unicode="&#x446;" horiz-adv-x="675" 
d="M579 548v-450h67v-177h-115v79h-455v548h124v-450h254v450h125z" />
    <glyph glyph-name="uni0447" unicode="&#x447;" horiz-adv-x="671" 
d="M470 547h125v-547h-125v202q-44 -19 -90 -32t-104 -13q-98 0 -154 61.5t-56 170.5v158h125v-135q0 -70 36 -110t100 -40q45 0 83 12.5t60 26.5v246z" />
    <glyph glyph-name="uni0448" unicode="&#x448;" horiz-adv-x="867" 
d="M666 98v449h125v-547h-715v547h124v-449h171v449h124v-449h171z" />
    <glyph glyph-name="uni0449" unicode="&#x449;" horiz-adv-x="876" 
d="M780 547v-449h67v-177h-114v79h-657v547h124v-449h165v449h124v-449h166v449h125z" />
    <glyph glyph-name="uni044A" unicode="&#x44a;" horiz-adv-x="680" 
d="M381 394q117 0 185 -53t68 -145q0 -91 -67.5 -143.5t-184.5 -52.5h-235v454h-110v93h234v-153h110zM379 98q60 0 95 26t35 72t-34.5 72.5t-96.5 26.5h-107v-197h108z" />
    <glyph glyph-name="uni044B" unicode="&#x44b;" horiz-adv-x="886" 
d="M310 394q117 0 185 -53t68 -145q0 -91 -67.5 -143.5t-184.5 -52.5h-235v547h124v-153h110zM308 98q61 0 95.5 26t34.5 72q0 47 -34.5 73t-96.5 26h-107v-197h108zM810 0h-124v547h124v-547z" />
    <glyph glyph-name="uni044C" unicode="&#x44c;" horiz-adv-x="610" 
d="M310 394q117 0 185 -53t68 -145q0 -91 -67.5 -143.5t-184.5 -52.5h-235v547h124v-153h110zM308 98q61 0 95.5 26t34.5 72q0 47 -34.5 73t-96.5 26h-107v-197h108z" />
    <glyph glyph-name="uni044D" unicode="&#x44d;" horiz-adv-x="586" 
d="M392.5 522.5q68.5 -36.5 107.5 -102t39 -147.5t-39 -146.5t-107.5 -101t-151.5 -36.5q-64 0 -120.5 24t-97.5 70l88 75q28 -32 58.5 -44.5t69.5 -12.5q64 0 109.5 32.5t59.5 91.5h-212v103h210q-15 56 -59 87t-104 31q-41 0 -72.5 -13t-59.5 -43l-88 74q42 47 98.5 71
t119.5 24q83 0 151.5 -36.5z" />
    <glyph glyph-name="uni044E" unicode="&#x44e;" horiz-adv-x="962" 
d="M771 522.5q68 -36.5 106.5 -101.5t38.5 -146q0 -82 -38.5 -147t-106.5 -102t-154 -37q-75 0 -137.5 29t-102.5 81.5t-52 120.5h-125v-220h-124v548h124v-217h125q12 67 53 119t102.5 80.5t136.5 28.5q86 0 154 -36.5zM742 149q48 48 48 125q0 78 -48 125t-125 47
q-75 0 -123.5 -47t-48.5 -124q0 -52 22.5 -91.5t61.5 -61t89 -21.5q76 0 124 48z" />
    <glyph glyph-name="uni044F" unicode="&#x44f;" horiz-adv-x="633" 
d="M556 547v-547h-123v173h-103l-157 -173h-143l165 185q-68 20 -106 66t-38 112q0 86 66.5 135t179.5 49h259zM433 285v151h-138q-120 0 -120 -79q0 -44 32 -58t89 -14h137z" />
    <glyph glyph-name="uni0450" unicode="&#x450;" horiz-adv-x="623" 
d="M175 225q12 -58 59 -91t116 -33q47 0 79.5 12.5t59.5 42.5l80 -71q-90 -95 -225 -95q-85 0 -153 36.5t-106.5 101.5t-38.5 146t36.5 145.5t102.5 101t151 36.5q77 0 137 -33.5t93.5 -92t33.5 -132.5q0 -24 -6 -74h-419zM231 415q-42 -32 -54 -87h300q-10 59 -47 89
t-95 30q-62 0 -104 -32zM369 603l-88 -7l-122 130l117 24z" />
    <glyph glyph-name="uni0451" unicode="&#x451;" horiz-adv-x="623" 
d="M175 225q12 -58 59 -91t116 -33q47 0 79.5 12.5t59.5 42.5l80 -71q-90 -95 -225 -95q-85 0 -153 36.5t-106.5 101.5t-38.5 146t36.5 145.5t102.5 101t151 36.5q77 0 137 -33.5t93.5 -92t33.5 -132.5q0 -24 -6 -74h-419zM231 415q-42 -32 -54 -87h300q-10 59 -47 89
t-95 30q-62 0 -104 -32zM284 614h-90v120h90v-120zM453 614h-89v120h89v-120z" />
    <glyph glyph-name="uni0452" unicode="&#x452;" horiz-adv-x="740" 
d="M609.5 444.5q55.5 -61.5 55.5 -171.5v-301q0 -74 -46.5 -112t-128.5 -38q-50 0 -98 23l28 75q20 -14 50 -14q32 0 51.5 19.5t19.5 57.5v268q0 69 -36 109.5t-100 40.5q-45 0 -82.5 -12.5t-61.5 -27.5v-361h-124v597h-64v70h64v71h124v-71h106v-70h-106v-137
q43 19 90 32.5t105 13.5q98 0 153.5 -61.5z" />
    <glyph glyph-name="uni0453" unicode="&#x453;" horiz-adv-x="502" 
d="M76 0v547h401v-97h-277v-450h-124zM442 726l-122 -130l-88 7l93 147z" />
    <glyph glyph-name="uni0454" unicode="&#x454;" horiz-adv-x="585" 
d="M416.5 113.5q30.5 12.5 57.5 44.5l88 -75q-40 -46 -97 -70t-121 -24q-83 0 -151 36.5t-107.5 101t-39.5 146.5t39.5 147.5t107.5 102t151 36.5q63 0 120 -24t98 -71l-88 -74q-27 30 -59 43t-73 13q-59 0 -103.5 -31t-59.5 -87h210v-103h-212q14 -59 59.5 -91.5
t109.5 -32.5q40 0 70.5 12.5z" />
    <glyph glyph-name="uni0455" unicode="&#x455;" horiz-adv-x="543" 
d="M142.5 8.5q-63.5 18.5 -112.5 47.5l51 102q96 -55 194 -55q54 0 82 12.5t28 41.5q0 19 -11.5 30.5t-38.5 20t-78 17.5q-79 13 -124.5 35t-65 53.5t-19.5 77.5q0 80 55 123.5t155 43.5q57 0 125 -16t107 -41l-50 -104q-39 23 -89 35.5t-101 12.5q-76 0 -76 -44
q0 -22 24 -35t94 -27q84 -18 131 -42t66.5 -56.5t19.5 -78.5q0 -81 -64.5 -126.5t-174.5 -45.5q-64 0 -127.5 18.5z" />
    <glyph glyph-name="uni0456" unicode="&#x456;" horiz-adv-x="276" 
d="M200 0h-124v547h124v-547zM202 614h-129v120h129v-120z" />
    <glyph glyph-name="uni0457" unicode="&#x457;" horiz-adv-x="276" 
d="M200 0h-124v547h124v-547zM98 614h-90v120h90v-120zM267 614h-89v120h89v-120z" />
    <glyph glyph-name="uni0458" unicode="&#x458;" horiz-adv-x="291" 
d="M-31 -56q20 -10 46 -10q36 0 55.5 18.5t19.5 53.5v541h125v-551q0 -82 -51.5 -127t-132.5 -45q-51 0 -94 21zM216 614h-129v120h129v-120z" />
    <glyph glyph-name="uni0459" unicode="&#x459;" horiz-adv-x="930" 
d="M632 394q116 0 183.5 -53t67.5 -145t-64.5 -144t-180.5 -52h-210v450h-201l-4 -225q-1 -90 -22.5 -138.5t-63.5 -67.5t-112 -19v91q38 1 55.5 33t18.5 108l7 315h442v-153h84zM634 93q61 0 95.5 27t34.5 76t-34.5 76.5t-95.5 27.5h-86v-207h86z" />
    <glyph glyph-name="uni045A" unicode="&#x45a;" horiz-adv-x="977" 
d="M679 369q76 0 133 -23t88 -64.5t31 -95.5q0 -88 -65.5 -137t-181.5 -49h-210v232h-274v-232h-124v548h124v-208h274v207h125v-178h80zM681 89q61 0 95.5 25t34.5 68q0 42 -35 67.5t-96 25.5h-81v-186h82z" />
    <glyph glyph-name="uni045B" unicode="&#x45b;" horiz-adv-x="696" 
d="M574.5 444.5q55.5 -61.5 55.5 -171.5v-273h-124v251q0 69 -36.5 109.5t-100.5 40.5q-45 0 -82 -12.5t-61 -27.5v-361h-124v597h-65v70h65v71h124v-71h105v-70h-105v-137q45 20 91 33t103 13q99 0 154.5 -61.5z" />
    <glyph glyph-name="uni045C" unicode="&#x45c;" horiz-adv-x="632" 
d="M476 726l-122 -130l-88 7l93 147zM598 0h-136l-163 218h-99v-218h-124v548h124v-221h99l147 221h135l-195 -265z" />
    <glyph glyph-name="uni045D" unicode="&#x45d;" horiz-adv-x="674" 
d="M598 547v-547h-124v353l-310 -353h-97v547h125v-348l306 348h100zM389 603l-88 -7l-122 130l117 24z" />
    <glyph glyph-name="uni045E" unicode="&#x45e;" horiz-adv-x="646" 
d="M489 547h136l-229 -547l-18 -41q-33 -76 -78 -108.5t-123 -32.5q-34 0 -69.5 10.5t-56.5 23.5l37 91q20 -10 42.5 -15.5t40.5 -5.5q35 0 52.5 15t33.5 53l5 11h-1l-230 546h136l161 -406h1zM490 729q0 -64 -41 -101.5t-110 -37.5q-68 0 -109 37.5t-41 101.5l93 1
q0 -36 13 -52t44 -16t44.5 16t13.5 52z" />
    <glyph glyph-name="uni045F" unicode="&#x45f;" horiz-adv-x="675" 
d="M474 97v450h125v-547h-205v-122h-124v122h-194v547h124v-450h274z" />
    <glyph glyph-name="uni0474" unicode="&#x474;" horiz-adv-x="769" 
d="M322 0l-305 700h137l230 -547h3l138 338q42 110 102.5 169.5t131.5 59.5v-130q-37 -1 -66.5 -40.5t-58.5 -107.5l-184 -442h-128z" />
    <glyph glyph-name="uni0474" unicode="&#x475;" horiz-adv-x="769" 
d="M322 0l-305 700h137l230 -547h3l138 338q42 110 102.5 169.5t131.5 59.5v-130q-37 -1 -66.5 -40.5t-58.5 -107.5l-184 -442h-128z" />
    <glyph glyph-name="uni0490" unicode="&#x490;" horiz-adv-x="624" 
d="M587 830v-130h16v-114h-383v-586h-128v700h366v130h129z" />
    <glyph glyph-name="uni0491" unicode="&#x491;" horiz-adv-x="502" 
d="M357 655h121v-180h-1v-25h-277v-450h-124v547h281v108z" />
    <glyph glyph-name="uni04D9" unicode="&#x4d9;" horiz-adv-x="623" 
d="M432 520.5q68 -36.5 106.5 -101.5t38.5 -146t-36.5 -145.5t-102.5 -101t-151 -36.5q-77 0 -137 33.5t-93.5 92t-33.5 132.5q0 25 6 74h419q-12 58 -59 91t-116 33q-47 0 -79.5 -12.5t-59.5 -42.5l-80 71q90 95 225 95q85 0 153 -36.5zM392 132q42 32 54 87h-300
q10 -59 47 -89t95 -30q62 0 104 32z" />
    <glyph glyph-name="uni1E0C" unicode="&#x1e0c;" horiz-adv-x="832" 
d="M92 0v700h295q116 0 203 -43t134 -122t47 -184q0 -106 -47 -185.5t-134 -122.5t-203 -43h-295zM382 114q117 0 185 62.5t68 173.5t-68 173.5t-186 62.5h-160v-472h161zM298 -167v120h129v-120h-129z" />
    <glyph glyph-name="uni1E0D" unicode="&#x1e0d;" horiz-adv-x="716" 
d="M510 738h124v-738h-124v65q-36 -37 -86 -56.5t-108 -19.5q-73 0 -134.5 37t-97.5 102t-36 147q0 84 36 148.5t97 100t136 35.5q58 0 108 -19t85 -56v254zM462 148.5q48 46.5 48 125.5t-47.5 124.5t-124.5 45.5q-73 0 -119.5 -47t-46.5 -122q0 -78 46 -125.5t120 -47.5
q76 0 124 46.5zM288 -167v120h129v-120h-129z" />
    <glyph glyph-name="uni1E0E" unicode="&#x1e0e;" horiz-adv-x="832" 
d="M92 0v700h295q116 0 203 -43t134 -122t47 -184q0 -106 -47 -185.5t-134 -122.5t-203 -43h-295zM382 114q117 0 185 62.5t68 173.5t-68 173.5t-186 62.5h-160v-472h161zM526 -125h-317v78h317v-78z" />
    <glyph glyph-name="uni1E0F" unicode="&#x1e0f;" horiz-adv-x="716" 
d="M510 738h124v-738h-124v65q-36 -37 -86 -56.5t-108 -19.5q-73 0 -134.5 37t-97.5 102t-36 147q0 84 36 148.5t97 100t136 35.5q58 0 108 -19t85 -56v254zM462 148.5q48 46.5 48 125.5t-47.5 124.5t-124.5 45.5q-73 0 -119.5 -47t-46.5 -122q0 -78 46 -125.5t120 -47.5
q76 0 124 46.5zM516 -125h-317v78h317v-78z" />
    <glyph glyph-name="uni1E20" unicode="&#x1e20;" horiz-adv-x="786" 
d="M241.5 35.5q-85.5 46.5 -133.5 128.5t-48 185q0 104 47.5 186.5t132 129t191.5 46.5q78 0 147.5 -28t123.5 -83l-83 -81q-76 76 -185 76q-69 0 -123.5 -30t-85 -86t-30.5 -130t30.5 -129t86 -85t128.5 -30q92 0 159 52v203h116v-259q-55 -54 -128 -83t-153 -29
q-107 0 -192.5 46.5zM598 774h-317v78h317v-78z" />
    <glyph glyph-name="uni1E21" unicode="&#x1e21;" horiz-adv-x="643" 
d="M389 145q110 0 165 -40t55 -109q0 -81 -78 -129.5t-225 -48.5q-121 0 -188 37.5t-67 105.5q0 30 19.5 54t51.5 42q-23 14 -35.5 36t-12.5 48q0 33 17.5 58.5t45.5 40.5q-30 24 -46 58.5t-16 76.5q0 85 64.5 134.5t176.5 49.5q69 0 113 -20l143 48l28 -100l-80 -15
q18 -18 28.5 -43t10.5 -54q0 -86 -64.5 -136t-176.5 -50q-54 0 -103 13q-19 -11 -19 -30q0 -16 12 -21.5t35 -5.5h146zM198 376q0 -40 30 -60.5t89 -20.5t89 20.5t30 59.5q0 78 -119 78t-119 -77zM442.5 -58q41.5 13 41.5 47q0 28 -30 37t-101 9h-142q-34 -27 -34 -55
q0 -30 32.5 -40.5t103.5 -10.5q88 0 129.5 13zM495 631h-317v78h317v-78z" />
    <glyph glyph-name="uni1E24" unicode="&#x1e24;" horiz-adv-x="805" 
d="M583 405v295h130v-700h-130v291h-361v-291h-130v700h130v-295h361zM331 -167v120h129v-120h-129z" />
    <glyph glyph-name="uni1E25" unicode="&#x1e25;" horiz-adv-x="683" 
d="M556.5 497q60.5 -62 60.5 -169v-328h-124v311q0 133 -128 133q-46 0 -82 -22t-56.5 -62t-20.5 -90v-270h-124v738h124v-257q33 36 81 57t108 21q101 0 161.5 -62zM273 -167v120h129v-120h-129z" />
    <glyph glyph-name="uni1E2A" unicode="&#x1e2a;" horiz-adv-x="805" 
d="M583 405v295h130v-700h-130v291h-361v-291h-130v700h130v-295h361zM538 -35q0 -50 -36 -79.5t-97 -29.5t-97 29.5t-36 79.5l82 1q0 -29 11.5 -41t39.5 -12t39.5 12t11.5 41z" />
    <glyph glyph-name="uni1E2B" unicode="&#x1e2b;" horiz-adv-x="683" 
d="M556.5 497q60.5 -62 60.5 -169v-328h-124v311q0 133 -128 133q-46 0 -82 -22t-56.5 -62t-20.5 -90v-270h-124v738h124v-257q33 36 81 57t108 21q101 0 161.5 -62zM481 -35q0 -50 -36 -79.5t-97 -29.5t-97 29.5t-36 79.5l82 1q0 -29 11.5 -41t39.5 -12t39.5 12t11.5 41z
" />
    <glyph glyph-name="uni1E36" unicode="&#x1e36;" horiz-adv-x="624" 
d="M603 0h-511v700h128v-586h383v-114zM243 -167v120h129v-120h-129z" />
    <glyph glyph-name="uni1E37" unicode="&#x1e37;" horiz-adv-x="288" 
d="M206 0h-124v738h124v-738zM73 -167v120h129v-120h-129z" />
    <glyph glyph-name="uni1E38" unicode="&#x1e38;" horiz-adv-x="624" 
d="M603 0h-511v700h128v-586h383v-114zM243 -167v120h129v-120h-129zM469 774h-317v78h317v-78z" />
    <glyph glyph-name="uni1E39" unicode="&#x1e39;" horiz-adv-x="288" 
d="M206 0h-124v738h124v-738zM73 -167v120h129v-120h-129zM298 812h-317v78h317v-78z" />
    <glyph glyph-name="uni1E3A" unicode="&#x1e3a;" horiz-adv-x="624" 
d="M603 0h-511v700h128v-586h383v-114zM471 -125h-317v78h317v-78z" />
    <glyph glyph-name="uni1E3B" unicode="&#x1e3b;" horiz-adv-x="288" 
d="M206 0h-124v738h124v-738zM301 -125h-317v78h317v-78z" />
    <glyph glyph-name="uni1E42" unicode="&#x1e42;" horiz-adv-x="926" 
d="M463 294l252 406h119v-700h-129v468l-221 -339h-42l-221 340v-469h-129v700h120zM392 -167v120h129v-120h-129z" />
    <glyph glyph-name="uni1E43" unicode="&#x1e43;" horiz-adv-x="1045" 
d="M925 499q54 -60 54 -167v-332h-125v315q0 129 -111 129q-41 0 -76 -22.5t-56 -61.5t-21 -87v-273h-125v315q0 129 -112 129q-40 0 -75.5 -22.5t-56.5 -61.5t-21 -87v-273h-124v547h124v-68q34 36 82 58t105 22q63 0 109.5 -28t70.5 -80q32 47 87 77.5t123 30.5
q94 0 148 -60zM451 -167v120h129v-120h-129z" />
    <glyph glyph-name="uni1E44" unicode="&#x1e44;" horiz-adv-x="816" 
d="M221 0h-129v700h111l391 -477v477h130v-700h-108l-395 483v-483zM472 759h-129v117h129v-117z" />
    <glyph glyph-name="uni1E45" unicode="&#x1e45;" horiz-adv-x="677" 
d="M550.5 497q60.5 -62 60.5 -169v-328h-124v311q0 133 -128 133q-46 0 -82 -22t-56.5 -62t-20.5 -90v-270h-124v547h124v-66q33 36 81 57t108 21q101 0 161.5 -62zM403 614h-129v120h129v-120z" />
    <glyph glyph-name="uni1E46" unicode="&#x1e46;" horiz-adv-x="816" 
d="M221 0h-129v700h111l391 -477v477h130v-700h-108l-395 483v-483zM337 -167v120h129v-120h-129z" />
    <glyph glyph-name="uni1E47" unicode="&#x1e47;" horiz-adv-x="677" 
d="M550.5 497q60.5 -62 60.5 -169v-328h-124v311q0 133 -128 133q-46 0 -82 -22t-56.5 -62t-20.5 -90v-270h-124v547h124v-66q33 36 81 57t108 21q101 0 161.5 -62zM268 -167v120h129v-120h-129z" />
    <glyph glyph-name="uni1E48" unicode="&#x1e48;" horiz-adv-x="816" 
d="M221 0h-129v700h111l391 -477v477h130v-700h-108l-395 483v-483zM565 -125h-317v78h317v-78z" />
    <glyph glyph-name="uni1E49" unicode="&#x1e49;" horiz-adv-x="677" 
d="M550.5 497q60.5 -62 60.5 -169v-328h-124v311q0 133 -128 133q-46 0 -82 -22t-56.5 -62t-20.5 -90v-270h-124v547h124v-66q33 36 81 57t108 21q101 0 161.5 -62zM496 -125h-317v78h317v-78z" />
    <glyph glyph-name="uni1E5A" unicode="&#x1e5a;" horiz-adv-x="721" 
d="M528 0l-197 234h-110v-234h-129v700h289q142 0 221 -61.5t79 -172.5q0 -88 -50.5 -145t-144.5 -77l205 -244h-163zM221 586v-239h156q87 0 131 27t44 90q0 122 -174 122h-157zM301 -167v120h129v-120h-129z" />
    <glyph glyph-name="uni1E5B" unicode="&#x1e5b;" horiz-adv-x="434" 
d="M409 550l-4 -127q-25 7 -54 7q-71 0 -111 -55.5t-40 -148.5v-226h-124v547h124v-70q29 38 70 57.5t86 19.5q23 0 53 -4zM137 -167v120h129v-120h-129z" />
    <glyph glyph-name="uni1E5C" unicode="&#x1e5c;" horiz-adv-x="721" 
d="M528 0l-197 234h-110v-234h-129v700h289q142 0 221 -61.5t79 -172.5q0 -88 -50.5 -145t-144.5 -77l205 -244h-163zM221 586v-239h156q87 0 131 27t44 90q0 122 -174 122h-157zM301 -167v120h129v-120h-129zM527 774h-317v78h317v-78z" />
    <glyph glyph-name="uni1E5D" unicode="&#x1e5d;" horiz-adv-x="434" 
d="M409 550l-4 -127q-25 7 -54 7q-71 0 -111 -55.5t-40 -148.5v-226h-124v547h124v-70q29 38 70 57.5t86 19.5q23 0 53 -4zM137 -167v120h129v-120h-129zM376 631h-317v78h317v-78z" />
    <glyph glyph-name="uni1E5E" unicode="&#x1e5e;" horiz-adv-x="721" 
d="M528 0l-197 234h-110v-234h-129v700h289q142 0 221 -61.5t79 -172.5q0 -88 -50.5 -145t-144.5 -77l205 -244h-163zM221 586v-239h156q87 0 131 27t44 90q0 122 -174 122h-157zM529 -125h-317v78h317v-78z" />
    <glyph glyph-name="uni1E5F" unicode="&#x1e5f;" horiz-adv-x="434" 
d="M409 550l-4 -127q-25 7 -54 7q-71 0 -111 -55.5t-40 -148.5v-226h-124v547h124v-70q29 38 70 57.5t86 19.5q23 0 53 -4zM365 -125h-317v78h317v-78z" />
    <glyph glyph-name="uni1E60" unicode="&#x1e60;" horiz-adv-x="648" 
d="M171 16q-76 27 -133 73l59 99q119 -82 242 -82q64 0 99 23t35 59q0 29 -16 47t-48.5 30t-92.5 25q-128 27 -193 78t-65 140q0 64 35.5 110t96.5 69.5t139 23.5q73 0 135 -20.5t120 -62.5l-69 -94q-38 27 -88.5 43.5t-104.5 16.5q-128 0 -128 -87q0 -38 35.5 -61
t121.5 -42q91 -20 146.5 -44t83.5 -63t28 -99q0 -64 -35.5 -111t-98.5 -72.5t-144 -25.5q-84 0 -160 27zM391 759h-129v117h129v-117z" />
    <glyph glyph-name="uni1E61" unicode="&#x1e61;" horiz-adv-x="543" 
d="M142.5 8.5q-63.5 18.5 -112.5 47.5l51 102q96 -55 194 -55q54 0 82 12.5t28 41.5q0 19 -11.5 30.5t-38.5 20t-78 17.5q-79 13 -124.5 35t-65 53.5t-19.5 77.5q0 80 55 123.5t155 43.5q57 0 125 -16t107 -41l-50 -104q-39 23 -89 35.5t-101 12.5q-76 0 -76 -44
q0 -22 24 -35t94 -27q84 -18 131 -42t66.5 -56.5t19.5 -78.5q0 -81 -64.5 -126.5t-174.5 -45.5q-64 0 -127.5 18.5zM339 614h-129v120h129v-120z" />
    <glyph glyph-name="uni1E62" unicode="&#x1e62;" horiz-adv-x="648" 
d="M171 16q-76 27 -133 73l59 99q119 -82 242 -82q64 0 99 23t35 59q0 29 -16 47t-48.5 30t-92.5 25q-128 27 -193 78t-65 140q0 64 35.5 110t96.5 69.5t139 23.5q73 0 135 -20.5t120 -62.5l-69 -94q-38 27 -88.5 43.5t-104.5 16.5q-128 0 -128 -87q0 -38 35.5 -61
t121.5 -42q91 -20 146.5 -44t83.5 -63t28 -99q0 -64 -35.5 -111t-98.5 -72.5t-144 -25.5q-84 0 -160 27zM255 -167v120h129v-120h-129z" />
    <glyph glyph-name="uni1E63" unicode="&#x1e63;" horiz-adv-x="543" 
d="M142.5 8.5q-63.5 18.5 -112.5 47.5l51 102q96 -55 194 -55q54 0 82 12.5t28 41.5q0 19 -11.5 30.5t-38.5 20t-78 17.5q-79 13 -124.5 35t-65 53.5t-19.5 77.5q0 80 55 123.5t155 43.5q57 0 125 -16t107 -41l-50 -104q-39 23 -89 35.5t-101 12.5q-76 0 -76 -44
q0 -22 24 -35t94 -27q84 -18 131 -42t66.5 -56.5t19.5 -78.5q0 -81 -64.5 -126.5t-174.5 -45.5q-64 0 -127.5 18.5zM204 -167v120h129v-120h-129z" />
    <glyph glyph-name="uni1E6C" unicode="&#x1e6c;" horiz-adv-x="651" 
d="M31 700h589v-114h-230v-586h-130v586h-229v114zM255 -167v120h129v-120h-129z" />
    <glyph glyph-name="uni1E6D" unicode="&#x1e6d;" horiz-adv-x="512" 
d="M472 25q-30 -17 -73 -26.5t-80 -9.5q-85 0 -132 46t-47 132v269h-103v111h105l9 143h113v-143h187v-111h-187v-249q0 -40 21 -63.5t57 -23.5q24 0 54.5 6t51.5 16zM248 -168v120h129v-120h-129z" />
    <glyph glyph-name="uni1E6E" unicode="&#x1e6e;" horiz-adv-x="651" 
d="M31 700h589v-114h-230v-586h-130v586h-229v114zM483 -125h-317v78h317v-78z" />
    <glyph glyph-name="uni1E6F" unicode="&#x1e6f;" horiz-adv-x="512" 
d="M472 25q-30 -17 -73 -26.5t-80 -9.5q-85 0 -132 46t-47 132v269h-103v111h105l9 143h113v-143h187v-111h-187v-249q0 -40 21 -63.5t57 -23.5q24 0 54.5 6t51.5 16zM476 -126h-317v78h317v-78z" />
    <glyph glyph-name="Wgrave" unicode="&#x1e80;" horiz-adv-x="1094" 
d="M777 160l163 540h136l-222 -700h-141l-165 484l-166 -484h-141l-224 700h138l164 -540l172 540h113zM589 751l-87 -6l-105 104l108 25z" />
    <glyph glyph-name="wgrave" unicode="&#x1e81;" horiz-adv-x="932" 
d="M646 143l128 404h131l-187 -547h-139l-113 378l-113 -378h-138l-188 547h131l127 -404l117 404h126zM511 603l-88 -7l-122 130l117 24z" />
    <glyph glyph-name="Wacute" unicode="&#x1e82;" horiz-adv-x="1094" 
d="M777 160l163 540h136l-222 -700h-141l-165 484l-166 -484h-141l-224 700h138l164 -540l172 540h113zM699 849l-105 -104l-87 6l84 123z" />
    <glyph glyph-name="wacute" unicode="&#x1e83;" horiz-adv-x="932" 
d="M646 143l128 404h131l-187 -547h-139l-113 378l-113 -378h-138l-188 547h131l127 -404l117 404h126zM630 726l-122 -130l-88 7l93 147z" />
    <glyph glyph-name="Wdieresis" unicode="&#x1e84;" horiz-adv-x="1094" 
d="M777 160l163 540h136l-222 -700h-141l-165 484l-166 -484h-141l-224 700h138l164 -540l172 540h113zM528 759h-105v116h105v-116zM688 759h-105v116h105v-116z" />
    <glyph glyph-name="wdieresis" unicode="&#x1e85;" horiz-adv-x="932" 
d="M646 143l128 404h131l-187 -547h-139l-113 378l-113 -378h-138l-188 547h131l127 -404l117 404h126zM427 614h-90v120h90v-120zM596 614h-89v120h89v-120z" />
    <glyph glyph-name="uni1E8E" unicode="&#x1e8e;" horiz-adv-x="708" 
d="M554 700h142l-277 -444v-256h-130v259l-277 441h142l201 -333zM419 759h-129v117h129v-117z" />
    <glyph glyph-name="uni1E8F" unicode="&#x1e8f;" horiz-adv-x="646" 
d="M489 547h136l-229 -547l-18 -41q-33 -76 -78 -108.5t-123 -32.5q-34 0 -69.5 10.5t-56.5 23.5l37 91q20 -10 42.5 -15.5t40.5 -5.5q35 0 52.5 15t33.5 53l5 11h-1l-230 546h136l161 -406h1zM403 614h-129v120h129v-120z" />
    <glyph glyph-name="uni1E92" unicode="&#x1e92;" horiz-adv-x="700" 
d="M652 0h-601v81l414 505h-403v114h585v-81l-416 -505h421v-114zM278 -167v120h129v-120h-129z" />
    <glyph glyph-name="uni1E93" unicode="&#x1e93;" horiz-adv-x="559" 
d="M523 0h-486v75l308 360h-300v112h473v-74l-311 -361h316v-112zM206 -167v120h129v-120h-129z" />
    <glyph glyph-name="uni1E97" unicode="&#x1e97;" horiz-adv-x="512" 
d="M472 25q-30 -17 -73 -26.5t-80 -9.5q-85 0 -132 46t-47 132v269h-103v111h105l9 143h113v-143h187v-111h-187v-249q0 -40 21 -63.5t57 -23.5q24 0 54.5 6t51.5 16zM170 757h-90v120h90v-120zM339 757h-89v120h89v-120z" />
    <glyph glyph-name="uni1E9E" unicode="&#x1e9e;" horiz-adv-x="789" 
d="M580 400q170 -59 170 -201q0 -98 -68 -154t-184 -56q-71 0 -135 19.5t-103 53.5l32 99q39 -26 90.5 -41.5t102.5 -15.5q63 0 100 27t37 72q0 40 -35 69t-97 43q-18 3 -56 9l78 244q-84 28 -156 28t-114 -36.5t-42 -94.5v-465h-130v479q0 66 35.5 119t100.5 83t150 30
q68 0 148.5 -18.5t159.5 -52.5z" />
    <glyph glyph-name="uni1EA0" unicode="&#x1ea0;" horiz-adv-x="792" 
d="M775 0h-138l-56 129h-372l-56 -129h-136l314 700h129zM395 559l-137 -317h274zM325 -167v120h129v-120h-129z" />
    <glyph glyph-name="uni1EA1" unicode="&#x1ea1;" horiz-adv-x="607" 
d="M477 499q64 -60 64 -170v-329h-124v65q-29 -32 -78 -54t-116 -22q-57 0 -100.5 22.5t-67 62.5t-23.5 90q0 79 54 131t166 52q78 0 164 -9q-3 52 -39.5 80.5t-104.5 28.5q-38 0 -80 -16t-72 -43l-61 91q48 40 108 60t118 20q128 0 192 -60zM368 137q43 37 48 92v9
q-61 9 -134 9q-71 0 -101 -20t-30 -56q0 -71 113 -71q61 0 104 37zM222 -167v120h129v-120h-129z" />
    <glyph glyph-name="uni1EA2" unicode="&#x1ea2;" horiz-adv-x="792" 
d="M775 0h-138l-56 129h-372l-56 -129h-136l314 700h129zM395 559l-137 -317h274zM354 756q3 5 14 20t17 30t6 29q0 15 -10.5 25t-25.5 10q-14 0 -31 -11l-6 53q40 20 76 20t58 -19.5t22 -47.5q0 -59 -63 -125z" />
    <glyph glyph-name="uni1EA3" unicode="&#x1ea3;" horiz-adv-x="607" 
d="M477 499q64 -60 64 -170v-329h-124v65q-29 -32 -78 -54t-116 -22q-57 0 -100.5 22.5t-67 62.5t-23.5 90q0 79 54 131t166 52q78 0 164 -9q-3 52 -39.5 80.5t-104.5 28.5q-38 0 -80 -16t-72 -43l-61 91q48 40 108 60t118 20q128 0 192 -60zM368 137q43 37 48 92v9
q-61 9 -134 9q-71 0 -101 -20t-30 -56q0 -71 113 -71q61 0 104 37zM250 605q3 5 14 20t17 30t6 29q0 15 -10.5 25t-25.5 10q-14 0 -31 -11l-6 53q40 20 76 20t58 -19.5t22 -47.5q0 -59 -63 -125z" />
    <glyph glyph-name="uni1EA4" unicode="&#x1ea4;" horiz-adv-x="792" 
d="M599 926l97 -22l-95 -95l-79 5zM455 750l-57 81l-58 -81l-106 6l106 127h115l106 -127zM775 0h-138l-56 129h-372l-56 -129h-136l314 700h129zM395 559l-137 -317h274z" />
    <glyph glyph-name="uni1EA5" unicode="&#x1ea5;" horiz-adv-x="607" 
d="M477 499q64 -60 64 -170v-329h-124v65q-29 -32 -78 -54t-116 -22q-57 0 -100.5 22.5t-67 62.5t-23.5 90q0 79 54 131t166 52q78 0 164 -9q-3 52 -39.5 80.5t-104.5 28.5q-38 0 -80 -16t-72 -43l-61 91q48 40 108 60t118 20q128 0 192 -60zM368 137q43 37 48 92v9
q-61 9 -134 9q-71 0 -101 -20t-30 -56q0 -71 113 -71q61 0 104 37zM346 743l100 -140l-100 -7l-54 90l-55 -90l-100 7l100 140h109zM456 921l-122 -130l-88 7l93 147z" />
    <glyph glyph-name="uni1EA6" unicode="&#x1ea6;" horiz-adv-x="792" 
d="M205 926l77 -112l-80 -5l-95 95zM398 831l-58 -81l-106 6l106 127h115l106 -127l-106 -6zM775 0h-138l-56 129h-372l-56 -129h-136l314 700h129zM395 559l-137 -317h274z" />
    <glyph glyph-name="uni1EA7" unicode="&#x1ea7;" horiz-adv-x="607" 
d="M477 499q64 -60 64 -170v-329h-124v65q-29 -32 -78 -54t-116 -22q-57 0 -100.5 22.5t-67 62.5t-23.5 90q0 79 54 131t166 52q78 0 164 -9q-3 52 -39.5 80.5t-104.5 28.5q-38 0 -80 -16t-72 -43l-61 91q48 40 108 60t118 20q128 0 192 -60zM368 137q43 37 48 92v9
q-61 9 -134 9q-71 0 -101 -20t-30 -56q0 -71 113 -71q61 0 104 37zM346 743l100 -140l-100 -7l-54 90l-55 -90l-100 7l100 140h109zM337 798l-88 -7l-122 130l117 24z" />
    <glyph glyph-name="uni1EA8" unicode="&#x1ea8;" horiz-adv-x="792" 
d="M569 887q-9 9 -23 9t-28 -10l-6 49q36 18 68 18q33 0 53 -18t20 -43q0 -56 -57 -113l-51 14q17 24 25 39t8 33q0 13 -9 22zM455 750l-57 81l-58 -81l-106 6l106 127h115l106 -127zM775 0h-138l-56 129h-372l-56 -129h-136l314 700h129zM395 559l-137 -317h274z" />
    <glyph glyph-name="uni1EA9" unicode="&#x1ea9;" horiz-adv-x="607" 
d="M477 499q64 -60 64 -170v-329h-124v65q-29 -32 -78 -54t-116 -22q-57 0 -100.5 22.5t-67 62.5t-23.5 90q0 79 54 131t166 52q78 0 164 -9q-3 52 -39.5 80.5t-104.5 28.5q-38 0 -80 -16t-72 -43l-61 91q48 40 108 60t118 20q128 0 192 -60zM368 137q43 37 48 92v9
q-61 9 -134 9q-71 0 -101 -20t-30 -56q0 -71 113 -71q61 0 104 37zM346 743l100 -140l-100 -7l-54 90l-55 -90l-100 7l100 140h109zM250 798q3 5 14 20t17 30t6 29q0 15 -10.5 25t-25.5 10q-14 0 -31 -11l-6 53q40 20 76 20t58 -19.5t22 -47.5q0 -59 -63 -125z" />
    <glyph glyph-name="uni1EAA" unicode="&#x1eaa;" horiz-adv-x="792" 
d="M775 0h-138l-56 129h-372l-56 -129h-136l314 700h129zM395 559l-137 -317h274zM455 883l106 -127l-106 -6l-57 81l-58 -81l-106 6l106 127h115zM222 935q0 49 27 78t68 29q20 0 37.5 -6t42.5 -17q18 -9 30 -13t23 -4q20 0 32.5 13t12.5 35l61 -16q0 -49 -26.5 -78
t-67.5 -29q-20 0 -37 5.5t-42 16.5q-36 17 -54 17q-20 0 -33 -13t-13 -34z" />
    <glyph glyph-name="uni1EAB" unicode="&#x1eab;" horiz-adv-x="607" 
d="M477 499q64 -60 64 -170v-329h-124v65q-29 -32 -78 -54t-116 -22q-57 0 -100.5 22.5t-67 62.5t-23.5 90q0 79 54 131t166 52q78 0 164 -9q-3 52 -39.5 80.5t-104.5 28.5q-38 0 -80 -16t-72 -43l-61 91q48 40 108 60t118 20q128 0 192 -60zM368 137q43 37 48 92v9
q-61 9 -134 9q-71 0 -101 -20t-30 -56q0 -71 113 -71q61 0 104 37zM346 743l100 -140l-100 -7l-54 90l-55 -90l-100 7l100 140h109zM124 809q0 49 27 78t68 29q20 0 37.5 -6t42.5 -17q18 -9 30 -13t23 -4q20 0 32.5 13t12.5 35l61 -16q0 -49 -26.5 -78t-67.5 -29
q-20 0 -37 5.5t-42 16.5q-36 17 -54 17q-20 0 -33 -13t-13 -34z" />
    <glyph glyph-name="uni1EAC" unicode="&#x1eac;" horiz-adv-x="792" 
d="M775 0h-138l-56 129h-372l-56 -129h-136l314 700h129zM395 559l-137 -317h274zM325 -167v120h129v-120h-129zM455 883l106 -127l-106 -6l-57 81l-58 -81l-106 6l106 127h115z" />
    <glyph glyph-name="uni1EAD" unicode="&#x1ead;" horiz-adv-x="607" 
d="M477 499q64 -60 64 -170v-329h-124v65q-29 -32 -78 -54t-116 -22q-57 0 -100.5 22.5t-67 62.5t-23.5 90q0 79 54 131t166 52q78 0 164 -9q-3 52 -39.5 80.5t-104.5 28.5q-38 0 -80 -16t-72 -43l-61 91q48 40 108 60t118 20q128 0 192 -60zM368 137q43 37 48 92v9
q-61 9 -134 9q-71 0 -101 -20t-30 -56q0 -71 113 -71q61 0 104 37zM222 -167v120h129v-120h-129zM346 743l100 -140l-100 -7l-54 90l-55 -90l-100 7l100 140h109z" />
    <glyph glyph-name="uni1EAE" unicode="&#x1eae;" horiz-adv-x="792" 
d="M775 0h-138l-56 129h-372l-56 -129h-136l314 700h129zM395 559l-137 -317h274zM543 882q0 -64 -41 -101.5t-110 -37.5q-68 0 -109 37.5t-41 101.5l93 1q0 -36 13 -52t44 -16t44.5 16t13.5 52zM546 1001l-105 -104l-87 6l84 123z" />
    <glyph glyph-name="uni1EAF" unicode="&#x1eaf;" horiz-adv-x="619" 
d="M477 499q64 -60 64 -170v-329h-124v65q-29 -32 -78 -54t-116 -22q-57 0 -100.5 22.5t-67 62.5t-23.5 90q0 79 54 131t166 52q78 0 164 -9q-3 52 -39.5 80.5t-104.5 28.5q-38 0 -80 -16t-72 -43l-61 91q48 40 108 60t118 20q128 0 192 -60zM368 137q43 37 48 92v9
q-61 9 -134 9q-71 0 -101 -20t-30 -56q0 -71 113 -71q61 0 104 37zM452 731q0 -64 -41 -101.5t-110 -37.5q-68 0 -109 37.5t-41 101.5l93 1q0 -36 13 -52t44 -16t44.5 16t13.5 52zM466 913l-122 -130l-88 7l93 147z" />
    <glyph glyph-name="uni1EB0" unicode="&#x1eb0;" horiz-adv-x="792" 
d="M775 0h-138l-56 129h-372l-56 -129h-136l314 700h129zM395 559l-137 -317h274zM543 882q0 -64 -41 -101.5t-110 -37.5q-68 0 -109 37.5t-41 101.5l93 1q0 -36 13 -52t44 -16t44.5 16t13.5 52zM437 903l-87 -6l-105 104l108 25z" />
    <glyph glyph-name="uni1EB1" unicode="&#x1eb1;" horiz-adv-x="619" 
d="M477 499q64 -60 64 -170v-329h-124v65q-29 -32 -78 -54t-116 -22q-57 0 -100.5 22.5t-67 62.5t-23.5 90q0 79 54 131t166 52q78 0 164 -9q-3 52 -39.5 80.5t-104.5 28.5q-38 0 -80 -16t-72 -43l-61 91q48 40 108 60t118 20q128 0 192 -60zM368 137q43 37 48 92v9
q-61 9 -134 9q-71 0 -101 -20t-30 -56q0 -71 113 -71q61 0 104 37zM452 731q0 -64 -41 -101.5t-110 -37.5q-68 0 -109 37.5t-41 101.5l93 1q0 -36 13 -52t44 -16t44.5 16t13.5 52zM347 790l-88 -7l-122 130l117 24z" />
    <glyph glyph-name="uni1EB2" unicode="&#x1eb2;" horiz-adv-x="792" 
d="M379 998.5q-9 8.5 -22 8.5q-15 0 -28 -9l-5 47q38 18 67 18q32 0 51 -17.5t19 -41.5q0 -52 -55 -110l-50 14q3 4 12 17t14.5 26.5t5.5 25.5q0 13 -9 21.5zM283 780.5q-41 37.5 -41 101.5l93 1q0 -36 13 -52t44 -16t44.5 16t13.5 52l93 -1q0 -64 -41 -101.5t-110 -37.5
q-68 0 -109 37.5zM775 0h-138l-56 129h-372l-56 -129h-136l314 700h129zM395 559l-137 -317h274z" />
    <glyph glyph-name="uni1EB3" unicode="&#x1eb3;" horiz-adv-x="619" 
d="M477 499q64 -60 64 -170v-329h-124v65q-29 -32 -78 -54t-116 -22q-57 0 -100.5 22.5t-67 62.5t-23.5 90q0 79 54 131t166 52q78 0 164 -9q-3 52 -39.5 80.5t-104.5 28.5q-38 0 -80 -16t-72 -43l-61 91q48 40 108 60t118 20q128 0 192 -60zM368 137q43 37 48 92v9
q-61 9 -134 9q-71 0 -101 -20t-30 -56q0 -71 113 -71q61 0 104 37zM452 731q0 -64 -41 -101.5t-110 -37.5q-68 0 -109 37.5t-41 101.5l93 1q0 -36 13 -52t44 -16t44.5 16t13.5 52zM259 790q3 5 14 20t17 30t6 29q0 15 -10.5 25t-25.5 10q-14 0 -31 -11l-6 53q40 20 76 20
t58 -19.5t22 -47.5q0 -59 -63 -125z" />
    <glyph glyph-name="uni1EB4" unicode="&#x1eb4;" horiz-adv-x="792" 
d="M775 0h-138l-56 129h-372l-56 -129h-136l314 700h129zM395 559l-137 -317h274zM543 882q0 -64 -41 -101.5t-110 -37.5q-68 0 -109 37.5t-41 101.5l93 1q0 -36 13 -52t44 -16t44.5 16t13.5 52zM222 912q0 49 27 78t68 29q20 0 37.5 -6t42.5 -17q18 -9 30 -13t23 -4
q20 0 32.5 13t12.5 35l61 -16q0 -49 -26.5 -78t-67.5 -29q-20 0 -37 5.5t-42 16.5q-36 17 -54 17q-20 0 -33 -13t-13 -34z" />
    <glyph glyph-name="uni1EB5" unicode="&#x1eb5;" horiz-adv-x="619" 
d="M477 499q64 -60 64 -170v-329h-124v65q-29 -32 -78 -54t-116 -22q-57 0 -100.5 22.5t-67 62.5t-23.5 90q0 79 54 131t166 52q78 0 164 -9q-3 52 -39.5 80.5t-104.5 28.5q-38 0 -80 -16t-72 -43l-61 91q48 40 108 60t118 20q128 0 192 -60zM368 137q43 37 48 92v9
q-61 9 -134 9q-71 0 -101 -20t-30 -56q0 -71 113 -71q61 0 104 37zM452 731q0 -64 -41 -101.5t-110 -37.5q-68 0 -109 37.5t-41 101.5l93 1q0 -36 13 -52t44 -16t44.5 16t13.5 52zM138 801q0 49 27 78t68 29q20 0 37.5 -6t42.5 -17q18 -9 30 -13t23 -4q20 0 32.5 13t12.5 35
l61 -16q0 -49 -26.5 -78t-67.5 -29q-20 0 -37 5.5t-42 16.5q-36 17 -54 17q-20 0 -33 -13t-13 -34z" />
    <glyph glyph-name="uni1EB6" unicode="&#x1eb6;" horiz-adv-x="792" 
d="M775 0h-138l-56 129h-372l-56 -129h-136l314 700h129zM395 559l-137 -317h274zM325 -167v120h129v-120h-129zM543 882q0 -64 -41 -101.5t-110 -37.5q-68 0 -109 37.5t-41 101.5l93 1q0 -36 13 -52t44 -16t44.5 16t13.5 52z" />
    <glyph glyph-name="uni1EB7" unicode="&#x1eb7;" horiz-adv-x="607" 
d="M477 499q64 -60 64 -170v-329h-124v65q-29 -32 -78 -54t-116 -22q-57 0 -100.5 22.5t-67 62.5t-23.5 90q0 79 54 131t166 52q78 0 164 -9q-3 52 -39.5 80.5t-104.5 28.5q-38 0 -80 -16t-72 -43l-61 91q48 40 108 60t118 20q128 0 192 -60zM368 137q43 37 48 92v9
q-61 9 -134 9q-71 0 -101 -20t-30 -56q0 -71 113 -71q61 0 104 37zM222 -167v120h129v-120h-129zM442 731q0 -64 -41 -101.5t-110 -37.5q-68 0 -109 37.5t-41 101.5l93 1q0 -36 13 -52t44 -16t44.5 16t13.5 52z" />
    <glyph glyph-name="uni1EB8" unicode="&#x1eb8;" horiz-adv-x="701" 
d="M219 304v-190h431v-114h-558v700h548v-114h-421v-168h377v-114h-377zM275 -167v120h129v-120h-129z" />
    <glyph glyph-name="uni1EB9" unicode="&#x1eb9;" horiz-adv-x="623" 
d="M175 225q12 -58 59 -91t116 -33q47 0 79.5 12.5t59.5 42.5l80 -71q-90 -95 -225 -95q-85 0 -153 36.5t-106.5 101.5t-38.5 146t36.5 145.5t102.5 101t151 36.5q77 0 137 -33.5t93.5 -92t33.5 -132.5q0 -24 -6 -74h-419zM231 415q-42 -32 -54 -87h300q-10 59 -47 89
t-95 30q-62 0 -104 -32zM255 -169v120h129v-120h-129z" />
    <glyph glyph-name="uni1EBA" unicode="&#x1eba;" horiz-adv-x="701" 
d="M219 304v-190h431v-114h-558v700h548v-114h-421v-168h377v-114h-377zM304 756q3 5 14 20t17 30t6 29q0 15 -10.5 25t-25.5 10q-14 0 -31 -11l-6 53q40 20 76 20t58 -19.5t22 -47.5q0 -59 -63 -125z" />
    <glyph glyph-name="uni1EBB" unicode="&#x1ebb;" horiz-adv-x="623" 
d="M175 225q12 -58 59 -91t116 -33q47 0 79.5 12.5t59.5 42.5l80 -71q-90 -95 -225 -95q-85 0 -153 36.5t-106.5 101.5t-38.5 146t36.5 145.5t102.5 101t151 36.5q77 0 137 -33.5t93.5 -92t33.5 -132.5q0 -24 -6 -74h-419zM231 415q-42 -32 -54 -87h300q-10 59 -47 89
t-95 30q-62 0 -104 -32zM281 603q3 5 14 20t17 30t6 29q0 15 -10.5 25t-25.5 10q-14 0 -31 -11l-6 53q40 20 76 20t58 -19.5t22 -47.5q0 -59 -63 -125z" />
    <glyph glyph-name="uni1EBC" unicode="&#x1ebc;" horiz-adv-x="701" 
d="M219 304v-190h431v-114h-558v700h548v-114h-421v-168h377v-114h-377zM172 760q0 49 27 78t68 29q20 0 37.5 -6t42.5 -17q18 -9 30 -13t23 -4q20 0 32.5 13t12.5 35l61 -16q0 -49 -26.5 -78t-67.5 -29q-20 0 -37 5.5t-42 16.5q-36 17 -54 17q-20 0 -33 -13t-13 -34z" />
    <glyph glyph-name="uni1EBD" unicode="&#x1ebd;" horiz-adv-x="623" 
d="M175 225q12 -58 59 -91t116 -33q47 0 79.5 12.5t59.5 42.5l80 -71q-90 -95 -225 -95q-85 0 -153 36.5t-106.5 101.5t-38.5 146t36.5 145.5t102.5 101t151 36.5q77 0 137 -33.5t93.5 -92t33.5 -132.5q0 -24 -6 -74h-419zM231 415q-42 -32 -54 -87h300q-10 59 -47 89
t-95 30q-62 0 -104 -32zM155 614q0 49 27 78t68 29q20 0 37.5 -6t42.5 -17q18 -9 30 -13t23 -4q20 0 32.5 13t12.5 35l61 -16q0 -49 -26.5 -78t-67.5 -29q-20 0 -37 5.5t-42 16.5q-36 17 -54 17q-20 0 -33 -13t-13 -34z" />
    <glyph glyph-name="uni1EBE" unicode="&#x1ebe;" horiz-adv-x="701" 
d="M560 913l97 -22l-95 -95l-79 5zM406 750l-57 81l-58 -81l-106 6l106 127h115l106 -127zM596 304h-377v-190h431v-114h-558v700h548v-114h-421v-168h377v-114z" />
    <glyph glyph-name="uni1EBF" unicode="&#x1ebf;" horiz-adv-x="623" 
d="M175 225q12 -58 59 -91t116 -33q47 0 79.5 12.5t59.5 42.5l80 -71q-90 -95 -225 -95q-85 0 -153 36.5t-106.5 101.5t-38.5 146t36.5 145.5t102.5 101t151 36.5q77 0 137 -33.5t93.5 -92t33.5 -132.5q0 -24 -6 -74h-419zM231 415q-42 -32 -54 -87h300q-10 59 -47 89
t-95 30q-62 0 -104 -32zM378 741l100 -140l-100 -7l-54 90l-55 -90l-100 7l100 140h109zM488 919l-122 -130l-88 7l93 147z" />
    <glyph glyph-name="uni1EC0" unicode="&#x1ec0;" horiz-adv-x="701" 
d="M185 756l41 49l-57 -4l-95 95l97 22l67 -98l53 63h115l106 -127l-106 -6l-57 81l-58 -81zM219 304v-190h431v-114h-558v700h548v-114h-421v-168h377v-114h-377z" />
    <glyph glyph-name="uni1EC1" unicode="&#x1ec1;" horiz-adv-x="623" 
d="M175 225q12 -58 59 -91t116 -33q47 0 79.5 12.5t59.5 42.5l80 -71q-90 -95 -225 -95q-85 0 -153 36.5t-106.5 101.5t-38.5 146t36.5 145.5t102.5 101t151 36.5q77 0 137 -33.5t93.5 -92t33.5 -132.5q0 -24 -6 -74h-419zM231 415q-42 -32 -54 -87h300q-10 59 -47 89
t-95 30q-62 0 -104 -32zM378 741l100 -140l-100 -7l-54 90l-55 -90l-100 7l100 140h109zM369 796l-88 -7l-122 130l117 24z" />
    <glyph glyph-name="uni1EC2" unicode="&#x1ec2;" horiz-adv-x="701" 
d="M517 887.5q-9 8.5 -22 8.5q-15 0 -28 -9l-5 47q35 17 65 17q32 0 51 -17t19 -41q0 -52 -54 -109l-49 14q3 4 12 17t14.5 26.5t5.5 25.5t-9 20.5zM406 750l-57 81l-58 -81l-106 6l106 127h115l106 -127zM219 304v-190h431v-114h-558v700h548v-114h-421v-168h377v-114h-377
z" />
    <glyph glyph-name="uni1EC3" unicode="&#x1ec3;" horiz-adv-x="623" 
d="M175 225q12 -58 59 -91t116 -33q47 0 79.5 12.5t59.5 42.5l80 -71q-90 -95 -225 -95q-85 0 -153 36.5t-106.5 101.5t-38.5 146t36.5 145.5t102.5 101t151 36.5q77 0 137 -33.5t93.5 -92t33.5 -132.5q0 -24 -6 -74h-419zM231 415q-42 -32 -54 -87h300q-10 59 -47 89
t-95 30q-62 0 -104 -32zM378 741l100 -140l-100 -7l-54 90l-55 -90l-100 7l100 140h109zM281 796q3 5 14 20t17 30t6 29q0 15 -10.5 25t-25.5 10q-14 0 -31 -11l-6 53q40 20 76 20t58 -19.5t22 -47.5q0 -59 -63 -125z" />
    <glyph glyph-name="uni1EC4" unicode="&#x1ec4;" horiz-adv-x="701" 
d="M219 304v-190h431v-114h-558v700h548v-114h-421v-168h377v-114h-377zM406 883l106 -127l-106 -6l-57 81l-58 -81l-106 6l106 127h115zM172 935q0 49 27 78t68 29q20 0 37.5 -6t42.5 -17q18 -9 30 -13t23 -4q20 0 32.5 13t12.5 35l61 -16q0 -49 -26.5 -78t-67.5 -29
q-20 0 -37 5.5t-42 16.5q-36 17 -54 17q-20 0 -33 -13t-13 -34z" />
    <glyph glyph-name="uni1EC5" unicode="&#x1ec5;" horiz-adv-x="623" 
d="M175 225q12 -58 59 -91t116 -33q47 0 79.5 12.5t59.5 42.5l80 -71q-90 -95 -225 -95q-85 0 -153 36.5t-106.5 101.5t-38.5 146t36.5 145.5t102.5 101t151 36.5q77 0 137 -33.5t93.5 -92t33.5 -132.5q0 -24 -6 -74h-419zM231 415q-42 -32 -54 -87h300q-10 59 -47 89
t-95 30q-62 0 -104 -32zM378 741l100 -140l-100 -7l-54 90l-55 -90l-100 7l100 140h109zM155 807q0 49 27 78t68 29q20 0 37.5 -6t42.5 -17q18 -9 30 -13t23 -4q20 0 32.5 13t12.5 35l61 -16q0 -49 -26.5 -78t-67.5 -29q-20 0 -37 5.5t-42 16.5q-36 17 -54 17q-20 0 -33 -13
t-13 -34z" />
    <glyph glyph-name="uni1EC6" unicode="&#x1ec6;" horiz-adv-x="701" 
d="M219 304v-190h431v-114h-558v700h548v-114h-421v-168h377v-114h-377zM275 -167v120h129v-120h-129zM406 883l106 -127l-106 -6l-57 81l-58 -81l-106 6l106 127h115z" />
    <glyph glyph-name="uni1EC7" unicode="&#x1ec7;" horiz-adv-x="623" 
d="M175 225q12 -58 59 -91t116 -33q47 0 79.5 12.5t59.5 42.5l80 -71q-90 -95 -225 -95q-85 0 -153 36.5t-106.5 101.5t-38.5 146t36.5 145.5t102.5 101t151 36.5q77 0 137 -33.5t93.5 -92t33.5 -132.5q0 -24 -6 -74h-419zM231 415q-42 -32 -54 -87h300q-10 59 -47 89
t-95 30q-62 0 -104 -32zM255 -169v120h129v-120h-129zM378 741l100 -140l-100 -7l-54 90l-55 -90l-100 7l100 140h109z" />
    <glyph glyph-name="uni1EC8" unicode="&#x1ec8;" horiz-adv-x="313" 
d="M221 0h-129v700h129v-700zM115 756q3 5 14 20t17 30t6 29q0 15 -10.5 25t-25.5 10q-14 0 -31 -11l-6 53q40 20 76 20t58 -19.5t22 -47.5q0 -59 -63 -125z" />
    <glyph glyph-name="uni1EC9" unicode="&#x1ec9;" horiz-adv-x="276" 
d="M200 0h-124v547h124v-547zM96 603q3 5 14 20t17 30t6 29q0 15 -10.5 25t-25.5 10q-14 0 -31 -11l-6 53q40 20 76 20t58 -19.5t22 -47.5q0 -59 -63 -125z" />
    <glyph glyph-name="uni1ECA" unicode="&#x1eca;" horiz-adv-x="313" 
d="M221 0h-129v700h129v-700zM86 -167v120h129v-120h-129z" />
    <glyph glyph-name="uni1ECB" unicode="&#x1ecb;" horiz-adv-x="276" 
d="M200 0h-124v547h124v-547zM202 614h-129v120h129v-120zM57 -167v120h129v-120h-129z" />
    <glyph glyph-name="uni1ECC" unicode="&#x1ecc;" horiz-adv-x="863" 
d="M240.5 35.5q-84.5 46.5 -132.5 128.5t-48 186q0 103 48 185.5t132.5 129t191.5 46.5q106 0 190.5 -46.5t132.5 -128.5t48 -186q0 -103 -48 -185.5t-132.5 -129t-191.5 -46.5q-106 0 -190.5 46.5zM554 136.5q53 30.5 83 86t30 127.5t-30 127.5t-83 86t-122 30.5
t-122.5 -30.5t-83.5 -86t-30 -127.5t30 -127.5t83.5 -86t122.5 -30.5t122 30.5zM361 -167v120h129v-120h-129z" />
    <glyph glyph-name="uni1ECD" unicode="&#x1ecd;" 
d="M191 26q-68 37 -106.5 102t-38.5 146t38.5 146t106.5 102t153 37q86 0 154 -36.5t106.5 -101.5t38.5 -146q0 -82 -38.5 -147t-106.5 -102t-154 -37q-85 0 -153 37zM469 149q48 48 48 125q0 78 -48 125t-125 47q-76 0 -124.5 -47t-48.5 -124q0 -78 49 -126t125 -48t124 48
zM274 -167v120h129v-120h-129z" />
    <glyph glyph-name="uni1ECE" unicode="&#x1ece;" horiz-adv-x="863" 
d="M240.5 35.5q-84.5 46.5 -132.5 128.5t-48 186q0 103 48 185.5t132.5 129t191.5 46.5q106 0 190.5 -46.5t132.5 -128.5t48 -186q0 -103 -48 -185.5t-132.5 -129t-191.5 -46.5q-106 0 -190.5 46.5zM554 136.5q53 30.5 83 86t30 127.5t-30 127.5t-83 86t-122 30.5
t-122.5 -30.5t-83.5 -86t-30 -127.5t30 -127.5t83.5 -86t122.5 -30.5t122 30.5zM390 756q3 5 14 20t17 30t6 29q0 15 -10.5 25t-25.5 10q-14 0 -31 -11l-6 53q40 20 76 20t58 -19.5t22 -47.5q0 -59 -63 -125z" />
    <glyph glyph-name="uni1ECF" unicode="&#x1ecf;" 
d="M191 26q-68 37 -106.5 102t-38.5 146t38.5 146t106.5 102t153 37q86 0 154 -36.5t106.5 -101.5t38.5 -146q0 -82 -38.5 -147t-106.5 -102t-154 -37q-85 0 -153 37zM469 149q48 48 48 125q0 78 -48 125t-125 47q-76 0 -124.5 -47t-48.5 -124q0 -78 49 -126t125 -48t124 48
zM303 603q3 5 14 20t17 30t6 29q0 15 -10.5 25t-25.5 10q-14 0 -31 -11l-6 53q40 20 76 20t58 -19.5t22 -47.5q0 -59 -63 -125z" />
    <glyph glyph-name="uni1ED0" unicode="&#x1ed0;" horiz-adv-x="863" 
d="M240.5 35.5q-84.5 46.5 -132.5 128.5t-48 186q0 103 48 185.5t132.5 129t191.5 46.5q106 0 190.5 -46.5t132.5 -128.5t48 -186q0 -103 -48 -185.5t-132.5 -129t-191.5 -46.5q-106 0 -190.5 46.5zM554 136.5q53 30.5 83 86t30 127.5t-30 127.5t-83 86t-122 30.5
t-122.5 -30.5t-83.5 -86t-30 -127.5t30 -127.5t83.5 -86t122.5 -30.5t122 30.5zM491 883l106 -127l-106 -6l-57 81l-58 -81l-106 6l106 127h115zM582 1024l-105 -104l-87 6l84 123z" />
    <glyph glyph-name="uni1ED1" unicode="&#x1ed1;" 
d="M191 26q-68 37 -106.5 102t-38.5 146t38.5 146t106.5 102t153 37q86 0 154 -36.5t106.5 -101.5t38.5 -146q0 -82 -38.5 -147t-106.5 -102t-154 -37q-85 0 -153 37zM469 149q48 48 48 125q0 78 -48 125t-125 47q-76 0 -124.5 -47t-48.5 -124q0 -78 49 -126t125 -48t124 48
zM400 741l100 -140l-100 -7l-54 90l-55 -90l-100 7l100 140h109zM510 919l-122 -130l-88 7l93 147z" />
    <glyph glyph-name="uni1ED2" unicode="&#x1ed2;" horiz-adv-x="863" 
d="M240.5 35.5q-84.5 46.5 -132.5 128.5t-48 186q0 103 48 185.5t132.5 129t191.5 46.5q106 0 190.5 -46.5t132.5 -128.5t48 -186q0 -103 -48 -185.5t-132.5 -129t-191.5 -46.5q-106 0 -190.5 46.5zM554 136.5q53 30.5 83 86t30 127.5t-30 127.5t-83 86t-122 30.5
t-122.5 -30.5t-83.5 -86t-30 -127.5t30 -127.5t83.5 -86t122.5 -30.5t122 30.5zM491 883l106 -127l-106 -6l-57 81l-58 -81l-106 6l106 127h115zM473 926l-87 -6l-105 104l108 25z" />
    <glyph glyph-name="uni1ED3" unicode="&#x1ed3;" 
d="M191 26q-68 37 -106.5 102t-38.5 146t38.5 146t106.5 102t153 37q86 0 154 -36.5t106.5 -101.5t38.5 -146q0 -82 -38.5 -147t-106.5 -102t-154 -37q-85 0 -153 37zM469 149q48 48 48 125q0 78 -48 125t-125 47q-76 0 -124.5 -47t-48.5 -124q0 -78 49 -126t125 -48t124 48
zM400 741l100 -140l-100 -7l-54 90l-55 -90l-100 7l100 140h109zM391 796l-88 -7l-122 130l117 24z" />
    <glyph glyph-name="uni1ED4" unicode="&#x1ed4;" horiz-adv-x="863" 
d="M240.5 35.5q-84.5 46.5 -132.5 128.5t-48 186q0 103 48 185.5t132.5 129t191.5 46.5q106 0 190.5 -46.5t132.5 -128.5t48 -186q0 -103 -48 -185.5t-132.5 -129t-191.5 -46.5q-106 0 -190.5 46.5zM554 136.5q53 30.5 83 86t30 127.5t-30 127.5t-83 86t-122 30.5
t-122.5 -30.5t-83.5 -86t-30 -127.5t30 -127.5t83.5 -86t122.5 -30.5t122 30.5zM491 883l106 -127l-106 -6l-57 81l-58 -81l-106 6l106 127h115zM390 931q3 5 14 20t17 30t6 29q0 15 -10.5 25t-25.5 10q-14 0 -31 -11l-6 53q40 20 76 20t58 -19.5t22 -47.5q0 -59 -63 -125z
" />
    <glyph glyph-name="uni1ED5" unicode="&#x1ed5;" 
d="M191 26q-68 37 -106.5 102t-38.5 146t38.5 146t106.5 102t153 37q86 0 154 -36.5t106.5 -101.5t38.5 -146q0 -82 -38.5 -147t-106.5 -102t-154 -37q-85 0 -153 37zM469 149q48 48 48 125q0 78 -48 125t-125 47q-76 0 -124.5 -47t-48.5 -124q0 -78 49 -126t125 -48t124 48
zM400 741l100 -140l-100 -7l-54 90l-55 -90l-100 7l100 140h109zM303 796q3 5 14 20t17 30t6 29q0 15 -10.5 25t-25.5 10q-14 0 -31 -11l-6 53q40 20 76 20t58 -19.5t22 -47.5q0 -59 -63 -125z" />
    <glyph glyph-name="uni1ED6" unicode="&#x1ed6;" horiz-adv-x="863" 
d="M240.5 35.5q-84.5 46.5 -132.5 128.5t-48 186q0 103 48 185.5t132.5 129t191.5 46.5q106 0 190.5 -46.5t132.5 -128.5t48 -186q0 -103 -48 -185.5t-132.5 -129t-191.5 -46.5q-106 0 -190.5 46.5zM554 136.5q53 30.5 83 86t30 127.5t-30 127.5t-83 86t-122 30.5
t-122.5 -30.5t-83.5 -86t-30 -127.5t30 -127.5t83.5 -86t122.5 -30.5t122 30.5zM491 883l106 -127l-106 -6l-57 81l-58 -81l-106 6l106 127h115zM258 935q0 49 27 78t68 29q20 0 37.5 -6t42.5 -17q18 -9 30 -13t23 -4q20 0 32.5 13t12.5 35l61 -16q0 -49 -26.5 -78
t-67.5 -29q-20 0 -37 5.5t-42 16.5q-36 17 -54 17q-20 0 -33 -13t-13 -34z" />
    <glyph glyph-name="uni1ED7" unicode="&#x1ed7;" 
d="M191 26q-68 37 -106.5 102t-38.5 146t38.5 146t106.5 102t153 37q86 0 154 -36.5t106.5 -101.5t38.5 -146q0 -82 -38.5 -147t-106.5 -102t-154 -37q-85 0 -153 37zM469 149q48 48 48 125q0 78 -48 125t-125 47q-76 0 -124.5 -47t-48.5 -124q0 -78 49 -126t125 -48t124 48
zM400 741l100 -140l-100 -7l-54 90l-55 -90l-100 7l100 140h109zM177 807q0 49 27 78t68 29q20 0 37.5 -6t42.5 -17q18 -9 30 -13t23 -4q20 0 32.5 13t12.5 35l61 -16q0 -49 -26.5 -78t-67.5 -29q-20 0 -37 5.5t-42 16.5q-36 17 -54 17q-20 0 -33 -13t-13 -34z" />
    <glyph glyph-name="uni1ED8" unicode="&#x1ed8;" horiz-adv-x="863" 
d="M240.5 35.5q-84.5 46.5 -132.5 128.5t-48 186q0 103 48 185.5t132.5 129t191.5 46.5q106 0 190.5 -46.5t132.5 -128.5t48 -186q0 -103 -48 -185.5t-132.5 -129t-191.5 -46.5q-106 0 -190.5 46.5zM554 136.5q53 30.5 83 86t30 127.5t-30 127.5t-83 86t-122 30.5
t-122.5 -30.5t-83.5 -86t-30 -127.5t30 -127.5t83.5 -86t122.5 -30.5t122 30.5zM361 -167v120h129v-120h-129zM491 883l106 -127l-106 -6l-57 81l-58 -81l-106 6l106 127h115z" />
    <glyph glyph-name="uni1ED9" unicode="&#x1ed9;" 
d="M191 26q-68 37 -106.5 102t-38.5 146t38.5 146t106.5 102t153 37q86 0 154 -36.5t106.5 -101.5t38.5 -146q0 -82 -38.5 -147t-106.5 -102t-154 -37q-85 0 -153 37zM469 149q48 48 48 125q0 78 -48 125t-125 47q-76 0 -124.5 -47t-48.5 -124q0 -78 49 -126t125 -48t124 48
zM274 -167v120h129v-120h-129zM400 741l100 -140l-100 -7l-54 90l-55 -90l-100 7l100 140h109z" />
    <glyph glyph-name="uni1EDA" unicode="&#x1eda;" horiz-adv-x="863" 
d="M779 486q24 -63 24 -136q0 -103 -48 -185.5t-132.5 -129t-191.5 -46.5q-106 0 -190.5 46.5t-132.5 128.5t-48 186q0 103 48 185.5t132.5 129t191.5 46.5q101 0 186 -44q67 3 67 54q0 15 -8 41l107 6q13 -36 13 -68q0 -43 -23.5 -70.5t-63.5 -32.5q45 -48 69 -111z
M554 136.5q53 30.5 83 86t30 127.5t-30 127.5t-83 86t-122 30.5t-122.5 -30.5t-83.5 -86t-30 -127.5t30 -127.5t83.5 -86t122.5 -30.5t122 30.5zM582 849l-105 -104l-87 6l84 123z" />
    <glyph glyph-name="uni1EDB" unicode="&#x1edb;" 
d="M651 631q13 -36 13 -68q0 -43 -23.5 -70.5t-63.5 -32.5q32 -37 49 -84.5t17 -100.5q0 -82 -38.5 -147t-106.5 -102t-154 -37q-85 0 -153 37t-106.5 102t-38.5 146t38.5 146t106.5 102t153 37q77 0 138 -29q70 2 70 54q0 20 -8 41zM469 149q48 48 48 125q0 78 -48 125
t-125 47q-76 0 -124.5 -47t-48.5 -124q0 -78 49 -126t125 -48t124 48zM510 726l-122 -130l-88 7l93 147z" />
    <glyph glyph-name="uni1EDC" unicode="&#x1edc;" horiz-adv-x="863" 
d="M779 486q24 -63 24 -136q0 -103 -48 -185.5t-132.5 -129t-191.5 -46.5q-106 0 -190.5 46.5t-132.5 128.5t-48 186q0 103 48 185.5t132.5 129t191.5 46.5q101 0 186 -44q67 3 67 54q0 15 -8 41l107 6q13 -36 13 -68q0 -43 -23.5 -70.5t-63.5 -32.5q45 -48 69 -111z
M554 136.5q53 30.5 83 86t30 127.5t-30 127.5t-83 86t-122 30.5t-122.5 -30.5t-83.5 -86t-30 -127.5t30 -127.5t83.5 -86t122.5 -30.5t122 30.5zM473 751l-87 -6l-105 104l108 25z" />
    <glyph glyph-name="uni1EDD" unicode="&#x1edd;" 
d="M651 631q13 -36 13 -68q0 -43 -23.5 -70.5t-63.5 -32.5q32 -37 49 -84.5t17 -100.5q0 -82 -38.5 -147t-106.5 -102t-154 -37q-85 0 -153 37t-106.5 102t-38.5 146t38.5 146t106.5 102t153 37q77 0 138 -29q70 2 70 54q0 20 -8 41zM469 149q48 48 48 125q0 78 -48 125
t-125 47q-76 0 -124.5 -47t-48.5 -124q0 -78 49 -126t125 -48t124 48zM391 603l-88 -7l-122 130l117 24z" />
    <glyph glyph-name="uni1EDE" unicode="&#x1ede;" horiz-adv-x="863" 
d="M779 486q24 -63 24 -136q0 -103 -48 -185.5t-132.5 -129t-191.5 -46.5q-106 0 -190.5 46.5t-132.5 128.5t-48 186q0 103 48 185.5t132.5 129t191.5 46.5q101 0 186 -44q67 3 67 54q0 15 -8 41l107 6q13 -36 13 -68q0 -43 -23.5 -70.5t-63.5 -32.5q45 -48 69 -111z
M554 136.5q53 30.5 83 86t30 127.5t-30 127.5t-83 86t-122 30.5t-122.5 -30.5t-83.5 -86t-30 -127.5t30 -127.5t83.5 -86t122.5 -30.5t122 30.5zM390 756q3 5 14 20t17 30t6 29q0 15 -10.5 25t-25.5 10q-14 0 -31 -11l-6 53q40 20 76 20t58 -19.5t22 -47.5q0 -59 -63 -125z
" />
    <glyph glyph-name="uni1EDF" unicode="&#x1edf;" 
d="M651 631q13 -36 13 -68q0 -43 -23.5 -70.5t-63.5 -32.5q32 -37 49 -84.5t17 -100.5q0 -82 -38.5 -147t-106.5 -102t-154 -37q-85 0 -153 37t-106.5 102t-38.5 146t38.5 146t106.5 102t153 37q77 0 138 -29q70 2 70 54q0 20 -8 41zM469 149q48 48 48 125q0 78 -48 125
t-125 47q-76 0 -124.5 -47t-48.5 -124q0 -78 49 -126t125 -48t124 48zM303 603q3 5 14 20t17 30t6 29q0 15 -10.5 25t-25.5 10q-14 0 -31 -11l-6 53q40 20 76 20t58 -19.5t22 -47.5q0 -59 -63 -125z" />
    <glyph glyph-name="uni1EE0" unicode="&#x1ee0;" horiz-adv-x="863" 
d="M779 486q24 -63 24 -136q0 -103 -48 -185.5t-132.5 -129t-191.5 -46.5q-106 0 -190.5 46.5t-132.5 128.5t-48 186q0 103 48 185.5t132.5 129t191.5 46.5q101 0 186 -44q67 3 67 54q0 15 -8 41l107 6q13 -36 13 -68q0 -43 -23.5 -70.5t-63.5 -32.5q45 -48 69 -111z
M554 136.5q53 30.5 83 86t30 127.5t-30 127.5t-83 86t-122 30.5t-122.5 -30.5t-83.5 -86t-30 -127.5t30 -127.5t83.5 -86t122.5 -30.5t122 30.5zM258 760q0 49 27 78t68 29q20 0 37.5 -6t42.5 -17q18 -9 30 -13t23 -4q20 0 32.5 13t12.5 35l61 -16q0 -49 -26.5 -78
t-67.5 -29q-20 0 -37 5.5t-42 16.5q-36 17 -54 17q-20 0 -33 -13t-13 -34z" />
    <glyph glyph-name="uni1EE1" unicode="&#x1ee1;" 
d="M651 631q13 -36 13 -68q0 -43 -23.5 -70.5t-63.5 -32.5q32 -37 49 -84.5t17 -100.5q0 -82 -38.5 -147t-106.5 -102t-154 -37q-85 0 -153 37t-106.5 102t-38.5 146t38.5 146t106.5 102t153 37q77 0 138 -29q70 2 70 54q0 20 -8 41zM469 149q48 48 48 125q0 78 -48 125
t-125 47q-76 0 -124.5 -47t-48.5 -124q0 -78 49 -126t125 -48t124 48zM177 614q0 49 27 78t68 29q20 0 37.5 -6t42.5 -17q18 -9 30 -13t23 -4q20 0 32.5 13t12.5 35l61 -16q0 -49 -26.5 -78t-67.5 -29q-20 0 -37 5.5t-42 16.5q-36 17 -54 17q-20 0 -33 -13t-13 -34z" />
    <glyph glyph-name="uni1EE2" unicode="&#x1ee2;" horiz-adv-x="863" 
d="M779 486q24 -63 24 -136q0 -103 -48 -185.5t-132.5 -129t-191.5 -46.5q-106 0 -190.5 46.5t-132.5 128.5t-48 186q0 103 48 185.5t132.5 129t191.5 46.5q101 0 186 -44q67 3 67 54q0 15 -8 41l107 6q13 -36 13 -68q0 -43 -23.5 -70.5t-63.5 -32.5q45 -48 69 -111z
M554 136.5q53 30.5 83 86t30 127.5t-30 127.5t-83 86t-122 30.5t-122.5 -30.5t-83.5 -86t-30 -127.5t30 -127.5t83.5 -86t122.5 -30.5t122 30.5zM361 -167v120h129v-120h-129z" />
    <glyph glyph-name="uni1EE3" unicode="&#x1ee3;" 
d="M651 631q13 -36 13 -68q0 -43 -23.5 -70.5t-63.5 -32.5q32 -37 49 -84.5t17 -100.5q0 -82 -38.5 -147t-106.5 -102t-154 -37q-85 0 -153 37t-106.5 102t-38.5 146t38.5 146t106.5 102t153 37q77 0 138 -29q70 2 70 54q0 20 -8 41zM469 149q48 48 48 125q0 78 -48 125
t-125 47q-76 0 -124.5 -47t-48.5 -124q0 -78 49 -126t125 -48t124 48zM274 -167v120h129v-120h-129z" />
    <glyph glyph-name="uni1EE4" unicode="&#x1ee4;" horiz-adv-x="760" 
d="M216 26q-70 37 -108 105.5t-38 161.5v407h130v-383q0 -93 47.5 -143t132.5 -50q86 0 134 50t48 143v383h128v-407q0 -93 -37.5 -161.5t-107.5 -105.5t-165 -37q-94 0 -164 37zM310 -167v120h129v-120h-129z" />
    <glyph glyph-name="uni1EE5" unicode="&#x1ee5;" horiz-adv-x="678" 
d="M477 547h124v-547h-124v66q-33 -36 -81 -57t-108 -21q-101 0 -161.5 62t-60.5 169v328h124v-311q0 -133 128 -133q46 0 82 22t56.5 62t20.5 90v270zM269 -167v120h129v-120h-129z" />
    <glyph glyph-name="uni1EE6" unicode="&#x1ee6;" horiz-adv-x="760" 
d="M216 26q-70 37 -108 105.5t-38 161.5v407h130v-383q0 -93 47.5 -143t132.5 -50q86 0 134 50t48 143v383h128v-407q0 -93 -37.5 -161.5t-107.5 -105.5t-165 -37q-94 0 -164 37zM339 756q3 5 14 20t17 30t6 29q0 15 -10.5 25t-25.5 10q-14 0 -31 -11l-6 53q40 20 76 20
t58 -19.5t22 -47.5q0 -59 -63 -125z" />
    <glyph glyph-name="uni1EE7" unicode="&#x1ee7;" horiz-adv-x="678" 
d="M477 547h124v-547h-124v66q-33 -36 -81 -57t-108 -21q-101 0 -161.5 62t-60.5 169v328h124v-311q0 -133 128 -133q46 0 82 22t56.5 62t20.5 90v270zM279 603q3 5 14 20t17 30t6 29q0 15 -10.5 25t-25.5 10q-14 0 -31 -11l-6 53q40 20 76 20t58 -19.5t22 -47.5
q0 -59 -63 -125z" />
    <glyph glyph-name="uni1EE8" unicode="&#x1ee8;" horiz-adv-x="807" 
d="M820 799q12 -34 12 -63q0 -46 -27.5 -72t-71.5 -26q-20 0 -43 6v-351q0 -93 -37.5 -161.5t-107.5 -105.5t-165 -37q-94 0 -164 37t-108 105.5t-38 161.5v407h130v-383q0 -93 47.5 -143t132.5 -50q86 0 134 50t48 143v383h91l2 5q73 -3 73 49q0 15 -8 39zM532 849
l-105 -104l-87 6l84 123z" />
    <glyph glyph-name="uni1EE9" unicode="&#x1ee9;" horiz-adv-x="723" 
d="M731 645q11 -30 11 -60q0 -44 -26.5 -70t-69.5 -26q-23 0 -45 7v-496h-124v66q-33 -36 -81 -57t-108 -21q-101 0 -161.5 62t-60.5 169v328h124v-311q0 -133 128 -133q46 0 82 22t56.5 62t20.5 90v270h91l3 7q70 -2 70 47q0 17 -7 38zM485 726l-122 -130l-88 7l93 147z
" />
    <glyph glyph-name="uni1EEA" unicode="&#x1eea;" horiz-adv-x="807" 
d="M820 799q12 -34 12 -63q0 -46 -27.5 -72t-71.5 -26q-20 0 -43 6v-351q0 -93 -37.5 -161.5t-107.5 -105.5t-165 -37q-94 0 -164 37t-108 105.5t-38 161.5v407h130v-383q0 -93 47.5 -143t132.5 -50q86 0 134 50t48 143v383h91l2 5q73 -3 73 49q0 15 -8 39zM422 751l-87 -6
l-105 104l108 25z" />
    <glyph glyph-name="uni1EEB" unicode="&#x1eeb;" horiz-adv-x="723" 
d="M731 645q11 -30 11 -60q0 -44 -26.5 -70t-69.5 -26q-23 0 -45 7v-496h-124v66q-33 -36 -81 -57t-108 -21q-101 0 -161.5 62t-60.5 169v328h124v-311q0 -133 128 -133q46 0 82 22t56.5 62t20.5 90v270h91l3 7q70 -2 70 47q0 17 -7 38zM366 603l-88 -7l-122 130l117 24z
" />
    <glyph glyph-name="uni1EEC" unicode="&#x1eec;" horiz-adv-x="807" 
d="M820 799q12 -34 12 -63q0 -46 -27.5 -72t-71.5 -26q-20 0 -43 6v-351q0 -93 -37.5 -161.5t-107.5 -105.5t-165 -37q-94 0 -164 37t-108 105.5t-38 161.5v407h130v-383q0 -93 47.5 -143t132.5 -50q86 0 134 50t48 143v383h91l2 5q73 -3 73 49q0 15 -8 39zM339 756
q3 5 14 20t17 30t6 29q0 15 -10.5 25t-25.5 10q-14 0 -31 -11l-6 53q40 20 76 20t58 -19.5t22 -47.5q0 -59 -63 -125z" />
    <glyph glyph-name="uni1EED" unicode="&#x1eed;" horiz-adv-x="723" 
d="M731 645q11 -30 11 -60q0 -44 -26.5 -70t-69.5 -26q-23 0 -45 7v-496h-124v66q-33 -36 -81 -57t-108 -21q-101 0 -161.5 62t-60.5 169v328h124v-311q0 -133 128 -133q46 0 82 22t56.5 62t20.5 90v270h91l3 7q70 -2 70 47q0 17 -7 38zM279 603q3 5 14 20t17 30t6 29
q0 15 -10.5 25t-25.5 10q-14 0 -31 -11l-6 53q40 20 76 20t58 -19.5t22 -47.5q0 -59 -63 -125z" />
    <glyph glyph-name="uni1EEE" unicode="&#x1eee;" horiz-adv-x="807" 
d="M820 799q12 -34 12 -63q0 -46 -27.5 -72t-71.5 -26q-20 0 -43 6v-351q0 -93 -37.5 -161.5t-107.5 -105.5t-165 -37q-94 0 -164 37t-108 105.5t-38 161.5v407h130v-383q0 -93 47.5 -143t132.5 -50q86 0 134 50t48 143v383h91l2 5q73 -3 73 49q0 15 -8 39zM207 760
q0 49 27 78t68 29q20 0 37.5 -6t42.5 -17q18 -9 30 -13t23 -4q20 0 32.5 13t12.5 35l61 -16q0 -49 -26.5 -78t-67.5 -29q-20 0 -37 5.5t-42 16.5q-36 17 -54 17q-20 0 -33 -13t-13 -34z" />
    <glyph glyph-name="uni1EEF" unicode="&#x1eef;" horiz-adv-x="723" 
d="M731 645q11 -30 11 -60q0 -44 -26.5 -70t-69.5 -26q-23 0 -45 7v-496h-124v66q-33 -36 -81 -57t-108 -21q-101 0 -161.5 62t-60.5 169v328h124v-311q0 -133 128 -133q46 0 82 22t56.5 62t20.5 90v270h91l3 7q70 -2 70 47q0 17 -7 38zM153 614q0 49 27 78t68 29
q20 0 37.5 -6t42.5 -17q18 -9 30 -13t23 -4q20 0 32.5 13t12.5 35l61 -16q0 -49 -26.5 -78t-67.5 -29q-20 0 -37 5.5t-42 16.5q-36 17 -54 17q-20 0 -33 -13t-13 -34z" />
    <glyph glyph-name="uni1EF0" unicode="&#x1ef0;" horiz-adv-x="807" 
d="M820 799q12 -34 12 -63q0 -46 -27.5 -72t-71.5 -26q-20 0 -43 6v-351q0 -93 -37.5 -161.5t-107.5 -105.5t-165 -37q-94 0 -164 37t-108 105.5t-38 161.5v407h130v-383q0 -93 47.5 -143t132.5 -50q86 0 134 50t48 143v383h91l2 5q73 -3 73 49q0 15 -8 39zM310 -167v120
h129v-120h-129z" />
    <glyph glyph-name="uni1EF1" unicode="&#x1ef1;" horiz-adv-x="723" 
d="M731 645q11 -30 11 -60q0 -44 -26.5 -70t-69.5 -26q-23 0 -45 7v-496h-124v66q-33 -36 -81 -57t-108 -21q-101 0 -161.5 62t-60.5 169v328h124v-311q0 -133 128 -133q46 0 82 22t56.5 62t20.5 90v270h91l3 7q70 -2 70 47q0 17 -7 38zM269 -167v120h129v-120h-129z" />
    <glyph glyph-name="Ygrave" unicode="&#x1ef2;" horiz-adv-x="708" 
d="M554 700h142l-277 -444v-256h-130v259l-277 441h142l201 -333zM396 751l-87 -6l-105 104l108 25z" />
    <glyph glyph-name="ygrave" unicode="&#x1ef3;" horiz-adv-x="646" 
d="M489 547h136l-229 -547l-18 -41q-33 -76 -78 -108.5t-123 -32.5q-34 0 -69.5 10.5t-56.5 23.5l37 91q20 -10 42.5 -15.5t40.5 -5.5q35 0 52.5 15t33.5 53l5 11h-1l-230 546h136l161 -406h1zM385 603l-88 -7l-122 130l117 24z" />
    <glyph glyph-name="uni1EF4" unicode="&#x1ef4;" horiz-adv-x="708" 
d="M554 700h142l-277 -444v-256h-130v259l-277 441h142l201 -333zM284 -167v120h129v-120h-129z" />
    <glyph glyph-name="uni1EF5" unicode="&#x1ef5;" horiz-adv-x="646" 
d="M378 -41q-4 -10 -7 -15h106v-103h-110v94q-31 -63 -74.5 -90t-115.5 -27q-34 0 -69.5 10.5t-56.5 23.5l37 91q20 -10 42.5 -15.5t40.5 -5.5q35 0 52.5 15t33.5 53l5 11h-1l-230 546h136l161 -406h1l160 406h136l-229 -547z" />
    <glyph glyph-name="uni1EF6" unicode="&#x1ef6;" horiz-adv-x="708" 
d="M554 700h142l-277 -444v-256h-130v259l-277 441h142l201 -333zM313 756q3 5 14 20t17 30t6 29q0 15 -10.5 25t-25.5 10q-14 0 -31 -11l-6 53q40 20 76 20t58 -19.5t22 -47.5q0 -59 -63 -125z" />
    <glyph glyph-name="uni1EF7" unicode="&#x1ef7;" horiz-adv-x="646" 
d="M489 547h136l-229 -547l-18 -41q-33 -76 -78 -108.5t-123 -32.5q-34 0 -69.5 10.5t-56.5 23.5l37 91q20 -10 42.5 -15.5t40.5 -5.5q35 0 52.5 15t33.5 53l5 11h-1l-230 546h136l161 -406h1zM297 603q3 5 14 20t17 30t6 29q0 15 -10.5 25t-25.5 10q-14 0 -31 -11l-6 53
q40 20 76 20t58 -19.5t22 -47.5q0 -59 -63 -125z" />
    <glyph glyph-name="uni1EF8" unicode="&#x1ef8;" horiz-adv-x="708" 
d="M554 700h142l-277 -444v-256h-130v259l-277 441h142l201 -333zM181 760q0 49 27 78t68 29q20 0 37.5 -6t42.5 -17q18 -9 30 -13t23 -4q20 0 32.5 13t12.5 35l61 -16q0 -49 -26.5 -78t-67.5 -29q-20 0 -37 5.5t-42 16.5q-36 17 -54 17q-20 0 -33 -13t-13 -34z" />
    <glyph glyph-name="uni1EF9" unicode="&#x1ef9;" horiz-adv-x="646" 
d="M489 547h136l-229 -547l-18 -41q-33 -76 -78 -108.5t-123 -32.5q-34 0 -69.5 10.5t-56.5 23.5l37 91q20 -10 42.5 -15.5t40.5 -5.5q35 0 52.5 15t33.5 53l5 11h-1l-230 546h136l161 -406h1zM171 614q0 49 27 78t68 29q20 0 37.5 -6t42.5 -17q18 -9 30 -13t23 -4
q20 0 32.5 13t12.5 35l61 -16q0 -49 -26.5 -78t-67.5 -29q-20 0 -37 5.5t-42 16.5q-36 17 -54 17q-20 0 -33 -13t-13 -34z" />
    <glyph glyph-name="uni2000" unicode="&#x2000;" horiz-adv-x="520" 
 />
    <glyph glyph-name="uni2001" unicode="&#x2001;" horiz-adv-x="1020" 
 />
    <glyph glyph-name="uni2002" unicode="&#x2002;" horiz-adv-x="520" 
 />
    <glyph glyph-name="uni2003" unicode="&#x2003;" horiz-adv-x="1020" 
 />
    <glyph glyph-name="uni2004" unicode="&#x2004;" horiz-adv-x="353" 
 />
    <glyph glyph-name="uni2005" unicode="&#x2005;" horiz-adv-x="270" 
 />
    <glyph glyph-name="uni2006" unicode="&#x2006;" horiz-adv-x="187" 
 />
    <glyph glyph-name="uni2007" unicode="&#x2007;" horiz-adv-x="733" 
 />
    <glyph glyph-name="uni2008" unicode="&#x2008;" horiz-adv-x="258" 
 />
    <glyph glyph-name="uni2009" unicode="&#x2009;" horiz-adv-x="220" 
 />
    <glyph glyph-name="uni200A" unicode="&#x200a;" horiz-adv-x="163" 
 />
    </font>
</defs>
</svg>
