<?xml version="1.0" standalone="no"?>
<!DOCTYPE svg PUBLIC "-//W3C//DTD SVG 1.1//EN" "http://www.w3.org/Graphics/SVG/1.1/DTD/svg11.dtd" >
<svg xmlns="http://www.w3.org/2000/svg" xmlns:xlink="http://www.w3.org/1999/xlink" version="1.1">
<metadata>
Created by FontForge 20190801 at Wed Jun  3 06:02:37 2020
 By root
Copyright (c) 2020 by Francesco Canovaro. All rights reserved.
</metadata>
<defs>
<font id="Eastman-Regular" horiz-adv-x="675" >
  <font-face 
    font-family="Eastman"
    font-weight="400"
    font-stretch="normal"
    units-per-em="1000"
    panose-1="0 0 5 0 0 0 0 0 0 0"
    ascent="805"
    descent="-195"
    x-height="541"
    cap-height="700"
    bbox="-792 -221 1408 1100"
    underline-thickness="63"
    underline-position="-260"
    unicode-range="U+0020-F8FF"
  />
<missing-glyph horiz-adv-x="612" 
 />
    <glyph glyph-name=".notdef" horiz-adv-x="612" 
 />
    <glyph glyph-name=".null" horiz-adv-x="0" 
 />
    <glyph glyph-name="nonmarkingreturn" horiz-adv-x="333" 
 />
    <glyph glyph-name="space" unicode=" " horiz-adv-x="297" 
 />
    <glyph glyph-name="exclam" unicode="!" horiz-adv-x="222" 
d="M73 390v311h75v-310l-11 -192h-54zM61 0v90h99v-90h-99z" />
    <glyph glyph-name="quotedbl" unicode="&#x22;" horiz-adv-x="313" 
d="M131 700l-23 -175h-42l8 175h57zM247 700l-23 -175h-42l8 175h57z" />
    <glyph glyph-name="numbersign" unicode="#" horiz-adv-x="721" 
d="M655 486v-57h-129l-44 -163h135v-58h-151l-48 -178h-68l48 178h-155l-48 -178h-68l48 178h-109v58h125l44 163h-131v57h147l49 181h68l-49 -181h155l49 181h68l-49 -181h113zM259 266h155l44 163h-155z" />
    <glyph glyph-name="dollar" unicode="$" horiz-adv-x="635" 
d="M520.5 50.5q-63.5 -52.5 -166.5 -59.5v-56h-61v56q-70 5 -134 32.5t-111 70.5l37 59q45 -37 98 -60t110 -29v255q-114 28 -169 73.5t-55 125.5q0 83 62.5 133.5t161.5 57.5v58h61v-58q113 -10 205 -78l-42 -57q-75 51 -163 63v-258q82 -19 131.5 -42t74 -59t24.5 -92
q0 -83 -63.5 -135.5zM183 442.5q33 -27.5 110 -48.5v244q-67 -4 -105 -36.5t-38 -84.5q0 -47 33 -74.5zM354 63q71 5 110 37.5t39 81.5q0 50 -34.5 77t-114.5 46v-242z" />
    <glyph glyph-name="percent" unicode="%" horiz-adv-x="830" 
d="M67 450.5q-38 44.5 -38 115.5q0 69 38 113.5t102 44.5q63 0 101 -44.5t38 -113.5q0 -70 -38 -115t-101 -45q-64 0 -102 44.5zM228.5 485.5q21.5 32.5 21.5 80.5t-22 79.5t-59 31.5q-38 0 -59.5 -31.5t-21.5 -79.5q0 -50 22 -81.5t59 -31.5q38 0 59.5 32.5zM241 0h-66
l419 700h66zM559 39.5q-38 44.5 -38 115.5q0 69 38 113.5t102 44.5q63 0 101 -44.5t38 -113.5q0 -70 -38 -115t-101 -45q-64 0 -102 44.5zM720.5 74.5q21.5 32.5 21.5 80.5t-22 79.5t-59 31.5q-38 0 -59.5 -31.5t-21.5 -79.5q0 -50 22 -81.5t59 -31.5q38 0 59.5 32.5z" />
    <glyph glyph-name="ampersand" unicode="&#x26;" horiz-adv-x="833" 
d="M811 357h-118q-2 -54 -26.5 -119t-70.5 -120q84 -56 147 -55l-5 -63q-88 -1 -191 69q-94 -77 -225 -77q-137 0 -196.5 61.5t-59.5 148.5q0 96 59 164.5t142 103.5q-4 21 -4 46q0 87 52.5 140t142.5 53q76 0 115 -39t39 -98q0 -34 -17.5 -69.5t-50.5 -76.5h267v-69z
M600.5 255q19.5 53 21.5 102h-154v69q38 34 54 68t16 63q0 73 -91 73q-54 0 -80 -32t-26 -82q0 -88 58 -185.5t144 -171.5q38 43 57.5 96zM490 114q-70 60 -125 138.5t-81 155.5q-140 -75 -140 -195q0 -66 44 -106t132 -40q99 0 170 47z" />
    <glyph glyph-name="quotesingle" unicode="'" horiz-adv-x="197" 
d="M131 700l-23 -175h-42l8 175h57z" />
    <glyph glyph-name="parenleft" unicode="(" horiz-adv-x="354" 
d="M274 -177q-101 83 -154.5 199.5t-53.5 257.5q0 140 53.5 256.5t154.5 199.5l50 -40q-90 -78 -136.5 -185t-46.5 -231q0 -126 46.5 -232t136.5 -185z" />
    <glyph glyph-name="parenright" unicode=")" horiz-adv-x="354" 
d="M80 736q101 -83 154.5 -199.5t53.5 -256.5t-53.5 -257t-154.5 -200l-51 40q90 78 136.5 185t46.5 232t-46.5 231.5t-136.5 184.5z" />
    <glyph glyph-name="asterisk" unicode="*" horiz-adv-x="451" 
d="M309 545l-57 -11l39 -43l58 -74l-43 -31l-52 78l-28 51l-29 -51l-52 -78l-44 31l59 74l39 42l-57 12l-89 26l15 50l88 -32l53 -24l-7 58l-2 93h52l-3 -93l-7 -58l53 24l88 32l15 -50zM225 541h1v1z" />
    <glyph glyph-name="plus" unicode="+" horiz-adv-x="503" 
d="M281 363h192v-60h-192v-176h-60v176h-192v60h192v172h60v-172z" />
    <glyph glyph-name="comma" unicode="," horiz-adv-x="222" 
d="M57 -89q26 18 39.5 39.5t11.5 49.5h-46v90h95q7 -35 7 -67q0 -53 -22 -87.5t-64 -55.5z" />
    <glyph glyph-name="hyphen" unicode="-" horiz-adv-x="447" 
d="M418 251v-60h-389v60h389z" />
    <glyph glyph-name="period" unicode="." horiz-adv-x="222" 
d="M61 0v90h99v-90h-99z" />
    <glyph glyph-name="slash" unicode="/" horiz-adv-x="576" 
d="M137 -115h-71l373 815h71z" />
    <glyph glyph-name="zero" unicode="0" horiz-adv-x="717" 
d="M203 37q-66 47 -101.5 129t-35.5 185q0 101 35 182.5t101.5 129t156.5 47.5q89 0 155 -46.5t101.5 -128t35.5 -185.5q0 -101 -35 -183t-101.5 -129.5t-156.5 -47.5q-89 0 -155 47zM476 92q49 40 74.5 108t25.5 149q0 85 -26.5 153t-76 106.5t-115.5 38.5
q-68 0 -117 -39.5t-74.5 -107t-25.5 -149.5q0 -85 26.5 -153.5t76 -107t115.5 -38.5q68 0 117 40z" />
    <glyph glyph-name="one" unicode="1" horiz-adv-x="351" 
d="M24 676l165 24h64v-700h-75v635l-145 -21z" />
    <glyph glyph-name="two" unicode="2" horiz-adv-x="622" 
d="M549 63v-63h-487v52q116 85 266 223q78 74 109.5 122.5t31.5 95.5q0 69 -47.5 112.5t-121.5 43.5q-53 0 -106 -25.5t-91 -67.5l-42 48q45 48 112 77t134 29t121 -26.5t85.5 -74.5t31.5 -111q0 -59 -35 -115t-119 -136q-107 -97 -226 -184h384z" />
    <glyph glyph-name="three" unicode="3" horiz-adv-x="636" 
d="M466.5 393.5q51.5 -25.5 80 -72t28.5 -105.5q0 -66 -33.5 -117.5t-92 -80t-130.5 -28.5q-77 0 -145 29t-113 77l36 48q38 -40 99.5 -66t118.5 -26q52 0 94 21t65.5 58.5t23.5 84.5q0 63 -44 105t-114 43q-25 1 -63.5 -1t-62.5 -6l-2 41l227 239h-335v63h434l5 -50
l-237 -235q21 4 44 4q65 0 116.5 -25.5z" />
    <glyph glyph-name="four" unicode="4" horiz-adv-x="678" 
d="M489 233h123v-56h-123v-177h-71v177h-377l-13 42l367 481h94v-467zM418 643l-305 -410h305v410z" />
    <glyph glyph-name="five" unicode="5" horiz-adv-x="645" 
d="M464.5 395q53.5 -27 84 -74.5t30.5 -104.5q0 -65 -33 -116.5t-91 -80.5t-130 -29q-77 0 -145.5 28t-111.5 76l35 48q41 -41 98.5 -65.5t115.5 -24.5q54 0 96.5 21t66 58.5t23.5 84.5q0 44 -24.5 78t-68 52.5t-99.5 18.5q-36 0 -89 -12.5t-97 -29.5l-23 46l19 331h426v-63
h-359l-13 -246q75 31 169 31q67 0 120.5 -27z" />
    <glyph glyph-name="six" unicode="6" horiz-adv-x="667" 
d="M135 74q-69 84 -69 227q0 205 69.5 307t218.5 102q130 0 216 -82l-40 -51q-31 33 -76.5 50.5t-96.5 17.5q-109 0 -159.5 -73t-55.5 -212q0 -3 -0.5 -11.5t-0.5 -25.5q6 33 35.5 64.5t75.5 51.5t98 20q74 0 131 -29t88.5 -80t31.5 -116q0 -75 -33.5 -130t-93 -84.5
t-135.5 -29.5q-135 0 -204 84zM436 73.5q42 21.5 66 61.5t24 93q0 50 -24.5 89t-66.5 60.5t-93 21.5q-46 0 -89 -21.5t-70 -60.5t-27 -90q0 -48 21 -87.5t62.5 -63.5t101.5 -24q53 0 95 21.5z" />
    <glyph glyph-name="seven" unicode="7" horiz-adv-x="558" 
d="M23 700h494l13 -48l-342 -652h-84l338 637h-419v63z" />
    <glyph glyph-name="eight" unicode="8" horiz-adv-x="667" 
d="M558 303.5q43 -48.5 43 -113.5q0 -58 -34 -103.5t-95 -71t-138 -25.5q-78 0 -139 25.5t-95 71t-34 103.5q0 65 43.5 113.5t114.5 65.5q-58 20 -91.5 62.5t-33.5 96.5q0 53 30 94.5t83.5 64.5t121.5 23t121 -23t83 -64.5t30 -94.5q0 -55 -33.5 -97.5t-90.5 -61.5
q71 -17 114 -65.5zM221 428.5q43 -33.5 113 -33.5q69 0 112 33.5t43 89.5t-43 89.5t-112 33.5q-70 0 -113 -33.5t-43 -89.5t43 -89.5zM469.5 97q52.5 38 52.5 100q0 61 -52.5 98.5t-135.5 37.5q-84 0 -136.5 -37.5t-52.5 -98.5q0 -62 52.5 -100t136.5 -38q83 0 135.5 38z
" />
    <glyph glyph-name="nine" unicode="9" horiz-adv-x="667" 
d="M532 626q69 -84 69 -227q0 -205 -70 -307t-219 -102q-62 0 -117 20.5t-98 61.5l39 51q32 -33 77.5 -50.5t96.5 -17.5q109 0 159 73t56 212q0 2 0.5 12t-0.5 25q-6 -32 -35.5 -64t-75.5 -52t-98 -20q-74 0 -130.5 29t-88 80.5t-31.5 115.5q0 75 33.5 130t93 84.5
t135.5 29.5q135 0 204 -84zM192 600q-52 -48 -52 -128q0 -50 24.5 -89t67 -60.5t92.5 -21.5q47 0 90 21.5t69.5 60.5t26.5 90q0 48 -21 87.5t-62.5 63.5t-100.5 24q-82 0 -134 -48z" />
    <glyph glyph-name="colon" unicode=":" horiz-adv-x="222" 
d="M160 452h-99v90h99v-90zM61 0v90h99v-90h-99z" />
    <glyph glyph-name="semicolon" unicode=";" horiz-adv-x="225" 
d="M168 452h-99v90h99v-90zM57 -89q26 18 39.5 39.5t11.5 49.5h-46v90h95q7 -35 7 -67q0 -53 -22 -87.5t-64 -55.5z" />
    <glyph glyph-name="less" unicode="&#x3c;" horiz-adv-x="549" 
d="M483 156l-28 -39l-389 228v27l391 229l26 -40l-353 -203z" />
    <glyph glyph-name="equal" unicode="=" horiz-adv-x="447" 
d="M418 481v-57h-389v57h389zM418 285v-57h-389v57h389z" />
    <glyph glyph-name="greater" unicode="&#x3e;" horiz-adv-x="549" 
d="M483 345l-389 -228l-28 39l353 202l-353 203l26 40l391 -229v-27z" />
    <glyph glyph-name="question" unicode="?" horiz-adv-x="526" 
d="M201 199q-4 69 23 116.5t81 88.5q42 36 63.5 63t21.5 62q0 52 -39.5 80.5t-108.5 28.5q-94 0 -194 -68l-27 64q116 74 230 74q98 0 156.5 -47t58.5 -125q0 -35 -14.5 -63t-35 -49t-55.5 -51q-55 -46 -73 -81.5t-19 -92.5h-68zM188 0v90h99v-90h-99z" />
    <glyph glyph-name="at" unicode="@" horiz-adv-x="977" 
d="M712.5 650.5q93.5 -52.5 146 -146t52.5 -212.5q0 -61 -20.5 -112t-59.5 -81t-90 -30q-61 0 -93 28t-40 73q-28 -41 -70 -63t-92 -22q-55 0 -97 24.5t-65.5 67.5t-23.5 99q0 63 27.5 113.5t76 79.5t108.5 29q49 0 92.5 -26t66.5 -74l19 117l64 -10l-42 -252q-4 -28 -4 -44
q0 -88 79 -88q47 0 74.5 49.5t27.5 120.5q0 107 -45 186.5t-124.5 121.5t-178.5 42q-108 0 -193 -46t-132.5 -128.5t-47.5 -187.5q0 -106 48.5 -185t139 -122t212.5 -43l-1 -61q-131 0 -235.5 48.5t-165 141.5t-60.5 221q0 120 55 217t154.5 152t225.5 55q118 0 211.5 -52.5
zM568.5 191q41.5 43 41.5 114q0 59 -36.5 94.5t-95.5 35.5q-66 0 -107.5 -44.5t-41.5 -113.5q0 -59 36.5 -94t94.5 -35q67 0 108.5 43z" />
    <glyph glyph-name="A" unicode="A" horiz-adv-x="765" 
d="M743 0h-83l-73 161h-411l-73 -161h-81l321 700h78zM382 612l-174 -381h347z" />
    <glyph glyph-name="B" unicode="B" horiz-adv-x="747" 
d="M646 298q42 -47 42 -114q0 -85 -66.5 -134.5t-181.5 -49.5h-342v700h329q106 0 167 -47t61 -129q0 -59 -32.5 -103.5t-90.5 -61.5q72 -14 114 -61zM175 630v-241h243q79 0 120 31.5t41 89.5q0 59 -43 89.5t-126 30.5h-235zM427 70q91 0 137.5 32t46.5 92q0 61 -47.5 93
t-135.5 32h-253v-249h252z" />
    <glyph glyph-name="C" unicode="C" horiz-adv-x="724" 
d="M244 37.5q-83 47.5 -130.5 129.5t-47.5 183t47 183t129.5 129.5t183.5 47.5q160 0 265 -107l-50 -50q-42 42 -93.5 64t-119.5 22q-79 0 -143.5 -38t-101 -104t-36.5 -146q0 -83 37 -149t101.5 -103.5t142.5 -37.5q128 0 215 89l50 -49q-49 -53 -117 -82t-148 -29
q-101 0 -184 47.5z" />
    <glyph glyph-name="D" unicode="D" horiz-adv-x="818" 
d="M98 0v700h277q114 0 199 -43t131.5 -122t46.5 -184q0 -106 -46 -185.5t-131.5 -122.5t-199.5 -43h-277zM371 69q91 0 159 34t104.5 97.5t36.5 149.5q0 87 -36.5 150t-104.5 97t-160 34h-195v-562h196z" />
    <glyph glyph-name="E" unicode="E" horiz-adv-x="689" 
d="M174 324v-255h463v-69h-539v700h529v-69h-453v-238h400v-69h-400z" />
    <glyph glyph-name="F" unicode="F" horiz-adv-x="643" 
d="M616 700v-69h-445v-263h392v-70h-392v-298h-77v700h522z" />
    <glyph glyph-name="G" unicode="G" horiz-adv-x="769" 
d="M243 36.5q-83 46.5 -130 128t-47 184.5t46.5 185.5t129 129t186.5 46.5q76 0 142 -26.5t118 -77.5l-50 -49q-87 82 -208 82q-81 0 -145.5 -36.5t-101 -102.5t-36.5 -151t36 -150t101.5 -101.5t149.5 -36.5q115 0 195 70v223h71v-257q-52 -51 -122 -79t-148 -28
q-104 0 -187 46.5z" />
    <glyph glyph-name="H" unicode="H" horiz-adv-x="782" 
d="M606 386v314h78v-700h-78v316h-430v-316h-78v700h78v-314h430z" />
    <glyph glyph-name="I" unicode="I" horiz-adv-x="273" 
d="M175 0h-77v700h77v-700z" />
    <glyph glyph-name="J" unicode="J" horiz-adv-x="565" 
d="M115 24q-62 34 -96 92l51 46q30 -46 76 -73t101 -27q76 0 121.5 50.5t45.5 134.5v384h-256v69h331v-453q0 -77 -29.5 -135t-83.5 -90t-126 -32q-73 0 -135 34z" />
    <glyph glyph-name="K" unicode="K" horiz-adv-x="723" 
d="M694 0h-91l-250 350l-178 -193v-157h-77v700h77v-445l404 445h97l-270 -293z" />
    <glyph glyph-name="L" unicode="L" horiz-adv-x="610" 
d="M586 0h-488v700h77v-631h411v-69z" />
    <glyph glyph-name="M" unicode="M" horiz-adv-x="903" 
d="M452 234l282 466h71v-700h-77v558l-262 -423h-28l-263 423v-558h-77v700h71z" />
    <glyph glyph-name="N" unicode="N" horiz-adv-x="793" 
d="M175 0h-77v700h67l453 -565v565h78v-700h-65l-456 568v-568z" />
    <glyph glyph-name="O" unicode="O" horiz-adv-x="858" 
d="M242.5 36.5q-82.5 46.5 -129.5 128.5t-47 185t47 185t129.5 128.5t186.5 46.5t186.5 -46.5t129.5 -128.5t47 -185t-47 -185t-130 -128.5t-187 -46.5q-103 0 -185.5 46.5zM574 98.5q64 36.5 100 102t36 149.5t-36 150t-100 102.5t-145 36.5t-145 -36.5t-100 -102.5
t-36 -150t36 -149.5t100 -102t145 -36.5t145 36.5z" />
    <glyph glyph-name="P" unicode="P" horiz-adv-x="684" 
d="M569 638q76 -62 76 -171q0 -111 -77 -173t-211 -62h-182v-232h-77v700h261q134 0 210 -62zM356 302q101 0 156.5 42.5t55.5 123.5q0 79 -55 121t-156 42h-182v-329h181z" />
    <glyph glyph-name="Q" unicode="Q" horiz-adv-x="858" 
d="M870 1q-102 0 -258 -6q-119 -4 -174 -5h-10h-2h-1v0q-102 0 -184 47t-128.5 128.5t-46.5 184.5t47 185t129.5 128.5t186.5 46.5t186.5 -46.5t129.5 -128.5t47 -185q0 -90 -36 -164.5t-101 -123.5q98 8 162 8q34 0 53 -1v-68zM184 200.5q36 -65.5 100 -102t145 -36.5
t145 36.5t100 102t36 149.5t-36 150t-100 102.5t-145 36.5t-145 -36.5t-100 -102.5t-36 -150t36 -149.5z" />
    <glyph glyph-name="R" unicode="R" horiz-adv-x="704" 
d="M562 0l-229 255h-158v-255h-77v700h271q137 0 211.5 -58t74.5 -165q0 -94 -58.5 -150t-167.5 -69l231 -258h-98zM175 631v-307h191q212 0 212 152q0 77 -54 116t-157 39h-192z" />
    <glyph glyph-name="S" unicode="S" horiz-adv-x="635" 
d="M173 18q-72 28 -125 76l37 59q52 -43 115 -67t130 -24q82 0 127.5 33.5t45.5 86.5q0 38 -20 62t-59.5 39.5t-108.5 30.5q-126 28 -186 74t-60 130q0 59 33 102.5t90 66.5t129 23q131 0 238 -79l-42 -57q-42 30 -94.5 47.5t-106.5 17.5q-77 0 -121.5 -33t-44.5 -89
q0 -36 19 -60t59 -41t109 -33q89 -19 141.5 -42t79 -60t26.5 -95q0 -59 -33 -103.5t-91.5 -68.5t-134.5 -24q-80 0 -152 28z" />
    <glyph glyph-name="T" unicode="T" horiz-adv-x="622" 
d="M29 700h563v-69h-243v-631h-78v631h-242v69z" />
    <glyph glyph-name="U" unicode="U" horiz-adv-x="740" 
d="M214 26.5q-66 35.5 -102 102.5t-36 159v412h78v-398q0 -109 57.5 -169.5t158.5 -60.5t159 60.5t58 169.5v398h77v-412q0 -92 -35.5 -159t-102 -102.5t-156.5 -35.5t-156 35.5z" />
    <glyph glyph-name="V" unicode="V" horiz-adv-x="746" 
d="M411 0h-76l-313 700h82l268 -607h2l268 607h82z" />
    <glyph glyph-name="W" unicode="W" horiz-adv-x="1055" 
d="M762 96l189 604h82l-225 -700h-85l-195 570l-194 -570h-86l-226 700h82l191 -604l198 604h69z" />
    <glyph glyph-name="X" unicode="X" horiz-adv-x="700" 
d="M399 358l271 -358h-91l-228 300l-230 -300h-92l274 360l-260 340h92l215 -285l216 285h91z" />
    <glyph glyph-name="Y" unicode="Y" horiz-adv-x="678" 
d="M576 700h85l-283 -439v-261h-78v264l-283 436h86l237 -371z" />
    <glyph glyph-name="Z" unicode="Z" horiz-adv-x="695" 
d="M635 0h-577v49l464 582h-453v69h562v-49l-464 -582h468v-69z" />
    <glyph glyph-name="bracketleft" unicode="[" horiz-adv-x="323" 
d="M294 -174h-228v908h228v-59h-150v-790h150v-59z" />
    <glyph glyph-name="backslash" unicode="\" horiz-adv-x="621" 
d="M211 700l372 -815h-71l-372 815h71z" />
    <glyph glyph-name="bracketright" unicode="]" horiz-adv-x="323" 
d="M29 734h228v-908h-228v59h150v790h-150v59z" />
    <glyph glyph-name="asciicircum" unicode="^" horiz-adv-x="395" 
d="M232 730l97 -132l-59 -7l-72 105l-73 -105l-59 7l97 132h69z" />
    <glyph glyph-name="underscore" unicode="_" horiz-adv-x="486" 
d="M482 -38v-51h-476v51h476z" />
    <glyph glyph-name="grave" unicode="`" horiz-adv-x="301" 
d="M234 600l-52 -7l-116 127l72 17z" />
    <glyph glyph-name="a" unicode="a" horiz-adv-x="580" 
d="M447.5 494.5q58.5 -55.5 58.5 -158.5v-336h-75v102q-26 -45 -80.5 -78.5t-127.5 -33.5q-86 0 -136.5 46t-50.5 120q0 78 53 125t159 47q80 0 183 -11v18q0 72 -41.5 109.5t-121.5 37.5q-43 0 -87 -15.5t-79 -44.5l-38 55q44 37 99 55t112 18q114 0 172.5 -55.5zM340.5 85
q42.5 26 66.5 67.5t24 84.5v16q-76 12 -166 12q-157 0 -157 -105q0 -49 36 -75t102 -26q52 0 94.5 26z" />
    <glyph glyph-name="b" unicode="b" horiz-adv-x="699" 
d="M517 515q60 -35 94.5 -98.5t34.5 -145.5q0 -80 -34.5 -144t-95 -100.5t-133.5 -36.5q-69 0 -127 29t-92 82v-101h-74v738h74v-299q34 53 92 82t127 29q74 0 134 -35zM475 86q46 27 71.5 75t25.5 110q0 61 -25.5 108.5t-71.5 74.5t-103 27q-60 0 -107 -26.5t-74 -74
t-27 -109.5t27 -110.5t74 -75t107 -26.5q57 0 103 27z" />
    <glyph glyph-name="c" unicode="c" horiz-adv-x="577" 
d="M192 26q-65 36 -102 99.5t-37 144.5t37 144.5t102 99.5t145 36q60 0 113.5 -21.5t93.5 -64.5l-54 -46q-32 34 -70 49t-84 15q-59 0 -106.5 -26t-74.5 -74t-27 -111q0 -64 27 -112t75 -74t108 -26q46 0 83 15.5t70 49.5l53 -45q-40 -44 -93.5 -66.5t-113.5 -22.5
q-80 0 -145 36z" />
    <glyph glyph-name="d" unicode="d" horiz-adv-x="700" 
d="M535 738h75v-738h-75v100q-35 -53 -92 -81.5t-126 -28.5q-73 0 -133.5 36.5t-95 100.5t-34.5 144q0 82 34.5 145.5t94.5 98.5t134 35q70 0 127 -28.5t91 -81.5v298zM435 85.5q47 26.5 73.5 75t26.5 110.5t-26.5 109.5t-73.5 74t-107 26.5q-57 0 -103 -27t-71.5 -74.5
t-25.5 -108.5q0 -62 25.5 -110t71 -75t103.5 -27q60 0 107 26.5z" />
    <glyph glyph-name="e" unicode="e" horiz-adv-x="618" 
d="M129 242q7 -82 65.5 -132.5t146.5 -50.5q101 0 160 66l49 -44q-40 -43 -93.5 -66.5t-119.5 -23.5q-82 0 -146.5 36t-101 99.5t-36.5 144.5q0 80 34.5 143.5t97.5 99.5t144 36q73 0 130 -33t89 -93t32 -137q0 -18 -4 -45h-447zM193.5 434q-53.5 -48 -63.5 -127h377
q-8 84 -55.5 129.5t-122.5 45.5q-82 0 -135.5 -48z" />
    <glyph glyph-name="f" unicode="f" horiz-adv-x="417" 
d="M222 541h188v-69h-188v-472h-75v472h-101v69h101v41q0 78 43 122t116 44q33 0 64.5 -7t51.5 -16l-15 -66q-41 19 -87 19q-47 0 -72.5 -25.5t-25.5 -78.5v-33z" />
    <glyph glyph-name="g" unicode="g" horiz-adv-x="615" 
d="M374 122q103 0 158 -36.5t55 -98.5q0 -76 -75.5 -121.5t-211.5 -45.5q-115 0 -180 37t-65 102q0 33 23 60t60 46q-26 13 -40.5 34.5t-14.5 47.5q0 33 18 57t48 36q-31 23 -47.5 57.5t-16.5 76.5q0 81 60 129t163 48q62 0 103 -19l140 35l17 -62l-91 -15q27 -19 41.5 -49
t14.5 -67q0 -83 -60 -131t-163 -48q-63 0 -114 19q-21 -9 -30 -20t-9 -26q0 -22 17 -34t45 -12h155zM198.5 456q-39.5 -29 -39.5 -81q0 -54 39.5 -84t110.5 -30t110.5 29.5t39.5 83.5q0 53 -39.5 82t-110.5 29t-110.5 -29zM458 -88.5q54 23.5 54 71.5q0 36 -40 53t-118 17
h-155h-4q-64 -37 -64 -83q0 -42 45 -62t128 -20q100 0 154 23.5z" />
    <glyph glyph-name="h" unicode="h" horiz-adv-x="661" 
d="M528 488q59 -62 59 -169v-319h-75v309q0 81 -41.5 126.5t-116.5 45.5q-52 0 -95.5 -26t-69 -72t-25.5 -103v-280h-74v738h74v-294q32 48 85.5 77t121.5 29q98 0 157 -62z" />
    <glyph glyph-name="i" unicode="i" horiz-adv-x="242" 
d="M158 0h-74v541h74v-541zM161 617h-79v110h79v-110z" />
    <glyph glyph-name="j" unicode="j" horiz-adv-x="255" 
d="M-44 -92q23 -14 54 -14q39 0 62.5 22t23.5 63v562h75v-568q0 -71 -42.5 -109t-110.5 -38q-42 0 -84 21zM173 617h-79v110h79v-110z" />
    <glyph glyph-name="k" unicode="k" horiz-adv-x="630" 
d="M610 0h-90l-228 264l-128 -126v-138h-74v738h74v-510l311 313h99l-233 -229z" />
    <glyph glyph-name="l" unicode="l" horiz-adv-x="254" 
d="M164 0h-74v738h74v-738z" />
    <glyph glyph-name="m" unicode="m" horiz-adv-x="1023" 
d="M896.5 490q53.5 -60 53.5 -165v-325h-76v315q0 79 -36.5 122.5t-105.5 43.5q-48 0 -88.5 -26t-65 -71.5t-24.5 -101.5v-282h-75v315q0 79 -36.5 122.5t-105.5 43.5q-48 0 -89 -26t-65.5 -71.5t-24.5 -101.5v-282h-74v541h74v-96q32 47 83.5 76t114.5 29q68 0 115.5 -33.5
t68.5 -94.5q28 55 84.5 91.5t127.5 36.5q91 0 144.5 -60z" />
    <glyph glyph-name="n" unicode="n" horiz-adv-x="655" 
d="M522 488q59 -62 59 -169v-319h-75v309q0 81 -41.5 126.5t-116.5 45.5q-52 0 -95.5 -26t-69 -72t-25.5 -103v-280h-74v541h74v-97q32 48 85.5 77t121.5 29q98 0 157 -62z" />
    <glyph glyph-name="o" unicode="o" 
d="M190.5 26q-64.5 36 -101 100t-36.5 145q0 80 36.5 143.5t101.5 99.5t146 36q82 0 147 -36t101.5 -99t36.5 -143q0 -81 -36.5 -145t-101.5 -100.5t-147 -36.5t-146.5 36zM445.5 86q47.5 27 74.5 75t27 110t-27 110t-75 74.5t-108 26.5t-107.5 -26.5t-74.5 -74.5t-27 -110
t27 -110t75 -75t108 -27t107.5 27z" />
    <glyph glyph-name="p" unicode="p" horiz-adv-x="693" 
d="M510.5 514q60.5 -36 95 -100.5t34.5 -144.5q0 -81 -34.5 -144.5t-94.5 -99t-134 -35.5q-70 0 -127.5 29t-91.5 83v-273h-74v712h74v-102q34 53 92 82t127 29q73 0 133.5 -36zM469 86.5q46 26.5 71.5 74t25.5 108.5q0 62 -25.5 110t-71.5 75t-103 27q-60 0 -107 -26.5
t-74 -74.5t-27 -110t27 -110t74 -74t107 -26q57 0 103 26.5z" />
    <glyph glyph-name="q" unicode="q" horiz-adv-x="692" 
d="M534 541h74v-712h-74v272q-34 -53 -91.5 -82t-126.5 -29q-74 0 -134 35.5t-94.5 99t-34.5 144.5q0 80 34.5 144.5t94.5 100.5t133 36q69 0 127 -29t92 -81v101zM434 86q47 26 73.5 74t26.5 110t-26.5 110t-73.5 74.5t-107 26.5q-58 0 -103.5 -27t-71 -75t-25.5 -110
q0 -61 25.5 -108.5t71.5 -74t103 -26.5q60 0 107 26z" />
    <glyph glyph-name="r" unicode="r" horiz-adv-x="400" 
d="M380 542l-3 -77q-24 7 -50 7q-52 0 -90.5 -30t-58.5 -81.5t-20 -113.5v-247h-74v541h74v-102q27 52 72 80t99 28q24 0 51 -5z" />
    <glyph glyph-name="s" unicode="s" horiz-adv-x="526" 
d="M140.5 11q-60.5 20 -103.5 51l32 62q45 -31 96 -47.5t102 -16.5q67 0 104.5 22.5t37.5 65.5q0 38 -33.5 58t-119.5 36q-76 14 -120 34.5t-62.5 49.5t-18.5 71q0 71 53 111.5t147 40.5q55 0 114 -15.5t95 -41.5l-31 -63q-35 24 -84 37.5t-99 13.5q-56 0 -87.5 -20
t-31.5 -57q0 -34 31 -54t115 -36q79 -16 124 -38t64 -52t19 -73q0 -75 -59.5 -117t-161.5 -42q-62 0 -122.5 20z" />
    <glyph glyph-name="t" unicode="t" horiz-adv-x="480" 
d="M439 23q-24 -15 -62 -24t-70 -9q-73 0 -116.5 42.5t-43.5 117.5v322h-108v69h109l6 146h68v-146h195v-69h-195v-309q0 -48 27 -76.5t71 -28.5q24 0 54 6.5t50 17.5z" />
    <glyph glyph-name="u" unicode="u" horiz-adv-x="655" 
d="M497 541h74v-541h-74v97q-32 -48 -85.5 -77t-121.5 -29q-98 0 -157 62t-59 169v319h75v-309q0 -81 41.5 -126.5t116.5 -45.5q52 0 95.5 26t69 72t25.5 103v280z" />
    <glyph glyph-name="v" unicode="v" horiz-adv-x="586" 
d="M333 0h-80l-236 541h82l194 -455l194 455h82z" />
    <glyph glyph-name="w" unicode="w" horiz-adv-x="882" 
d="M628 87l152 454h79l-188 -541h-85l-145 440l-145 -440h-84l-190 541h79l153 -454l148 454h77z" />
    <glyph glyph-name="x" unicode="x" horiz-adv-x="590" 
d="M340 277l221 -277h-87l-180 224l-180 -224h-85l221 276l-212 265h89l168 -214l168 214h87z" />
    <glyph glyph-name="y" unicode="y" horiz-adv-x="592" 
d="M493 541h82l-236 -541l-22 -51q-30 -69 -71.5 -99.5t-106.5 -30.5q-28 0 -57.5 8.5t-48.5 20.5l24 55q38 -20 79 -20q39 0 63 19.5t45 64.5l15 34l-236 540h82l194 -455z" />
    <glyph glyph-name="z" unicode="z" horiz-adv-x="532" 
d="M495 0h-458v46l348 426h-340v69h446v-46l-351 -427h355v-68z" />
    <glyph glyph-name="braceleft" unicode="{" horiz-adv-x="354" 
d="M207 -15q0 -47 24.5 -70t93.5 -31l-1 -58q-76 3 -118.5 19t-59 43t-16.5 69q0 11 2 37q1 16 5 50q8 88 8 122q0 46 -29.5 66.5t-86.5 20.5v54q57 0 86.5 20t29.5 66q0 41 -8 123q-4 31 -5 50q-2 26 -2 37q0 42 16.5 69t59 43t118.5 19l1 -59q-52 -5 -78 -19.5t-34 -38
t-5 -64.5q1 -16 5 -50q1 -11 4 -46.5t3 -65.5q0 -52 -27 -79t-75 -32q48 -5 75 -32.5t27 -79.5q0 -26 -3 -62l-4 -48q-4 -34 -5 -51q-1 -8 -1 -22z" />
    <glyph glyph-name="bar" unicode="|" horiz-adv-x="263" 
d="M165 700v-795h-67v795h67z" />
    <glyph glyph-name="braceright" unicode="}" horiz-adv-x="354" 
d="M238.5 327.5q29.5 -20.5 86.5 -20.5v-54q-57 0 -86.5 -20t-29.5 -66q0 -44 10 -134l4 -39q2 -24 2 -35q0 -42 -16.5 -69.5t-59.5 -44t-119 -19.5l-1 59q69 7 93.5 29.5t24.5 68.5q0 15 -1 24q-1 16 -5 50q-1 11 -4 46.5t-3 65.5q0 52 27 79t75 32q-48 5 -75 32.5
t-27 79.5q0 26 3 62l4 48q4 34 5 51q1 9 1 24q0 46 -24.5 68.5t-93.5 30.5l1 58q77 -3 119.5 -19t59 -43.5t16.5 -70.5q0 -11 -2 -35l-3 -32q-11 -92 -11 -140q0 -46 29.5 -66.5z" />
    <glyph glyph-name="asciitilde" unicode="~" horiz-adv-x="502" 
d="M29 596q12 37 42.5 57.5t77.5 20.5q28 0 53 -6.5t57 -19.5q33 -12 50 -17t37 -5q32 0 53.5 13t31.5 36l42 -12q-12 -37 -42 -58t-77 -21q-26 0 -50 6.5t-56 19.5q-29 11 -50 17t-42 6q-32 0 -53.5 -13.5t-31.5 -36.5z" />
    <glyph glyph-name="uni00A0" unicode="&#xa0;" horiz-adv-x="280" 
 />
    <glyph glyph-name="exclamdown" unicode="&#xa1;" horiz-adv-x="222" 
d="M160 451h-99v89h99v-89zM148 -161h-75v311l10 191h54l11 -192v-310z" />
    <glyph glyph-name="cent" unicode="&#xa2;" horiz-adv-x="574" 
d="M421 74.5q37 15.5 70 49.5l53 -45q-40 -44 -93.5 -66.5t-113.5 -22.5q-17 0 -26 1l-24 -139h-61l26 149q-90 25 -144.5 97.5t-54.5 171.5q0 81 37 144.5t102 99.5t145 36h12l24 135h60l-25 -143q80 -19 136 -78l-54 -46q-40 43 -94 57l-73 -416h15q46 0 83 15.5z
M165 143.5q37 -52.5 100 -73.5l72 412h-1q-59 0 -106.5 -26t-74.5 -74t-27 -111q0 -75 37 -127.5z" />
    <glyph glyph-name="sterling" unicode="&#xa3;" horiz-adv-x="592" 
d="M201 280v-220h354v-61h-512v46l87 13v222h-101v47h101v119q0 122 61.5 192.5t168.5 70.5q63 0 114 -28t89 -76l-45 -44q-61 85 -154 85q-78 0 -120.5 -54t-42.5 -142v-123h236v-47h-236z" />
    <glyph glyph-name="yen" unicode="&#xa5;" horiz-adv-x="678" 
d="M576 700h85l-256 -397h136v-47h-163v-86h163v-47h-163v-123h-78v123h-166v47h166v86h-166v47h140l-257 397h86l237 -371z" />
    <glyph glyph-name="brokenbar" unicode="&#xa6;" horiz-adv-x="255" 
d="M161 700v-300h-67v300h67zM161 213v-301h-67v301h67z" />
    <glyph glyph-name="section" unicode="&#xa7;" horiz-adv-x="641" 
d="M400 555q19 -45 53 -110q44 -83 65.5 -141t21.5 -125q0 -59 -30 -101.5t-80.5 -64.5t-111.5 -22q-104 0 -203 55l21 53q70 -39 143 -45q-6 48 -25.5 94.5t-53.5 110.5q-43 80 -65 138t-22 125q0 59 30 101.5t80.5 64.5t111.5 22q104 0 203 -55l-21 -53q-71 39 -142 45
q6 -47 25 -92zM439.5 93q35.5 33 35.5 89t-19.5 106t-58.5 124t-59.5 125t-25.5 111q-63 -7 -98.5 -40t-35.5 -89t19.5 -106.5t58.5 -122.5q39 -74 59.5 -125.5t25.5 -111.5q63 7 98.5 40z" />
    <glyph glyph-name="dieresis" unicode="&#xa8;" horiz-adv-x="346" 
d="M123 617h-57v110h57v-110zM280 617h-56v110h56v-110z" />
    <glyph glyph-name="copyright" unicode="&#xa9;" horiz-adv-x="846" 
d="M244 42q-82 48 -130 130t-48 179t48 179t130 130t179 48t179 -48t130 -130t48 -179t-48 -179t-130 -130t-179 -48t-179 48zM574 91.5q69 40.5 109.5 109t40.5 150.5t-40.5 150.5t-109.5 109t-151 40.5q-81 0 -150 -40.5t-109.5 -109t-40.5 -150.5t40.5 -150.5t109.5 -109
t150 -40.5q82 0 151 40.5zM329 184q-45 25 -71 70t-26 101q0 55 26 99.5t71 69.5t100 25q92 0 148 -60l-33 -31q-45 45 -112 45q-61 0 -102 -41.5t-41 -106.5t41 -107.5t102 -42.5q35 0 61.5 12.5t50.5 36.5l33 -31q-55 -64 -148 -64q-55 0 -100 25z" />
    <glyph glyph-name="ordfeminine" unicode="&#xaa;" horiz-adv-x="311" 
d="M215 664v8q0 31 -19 47.5t-54 16.5q-49 0 -87 -23l-15 40q48 28 109 28q62 0 94 -30.5t32 -84.5v-164h-60v60q-11 -27 -38 -46.5t-60 -19.5q-43 0 -69 22t-26 59q0 42 29 67t81 25q41 0 83 -5zM192 563q23 23 23 54v12q-25 5 -69 5q-31 0 -48.5 -12.5t-17.5 -33.5
q0 -23 15 -35.5t42 -12.5q32 0 55 23zM22 400v49h254v-49h-254z" />
    <glyph glyph-name="guillemotleft" unicode="&#xab;" horiz-adv-x="486" 
d="M252 64l-43 -23l-180 204v27l175 204l48 -23l-158 -195zM456 64l-48 -23l-183 213v8l183 214l48 -23l-157 -195z" />
    <glyph glyph-name="logicalnot" unicode="&#xac;" horiz-adv-x="455" 
d="M29 313v60h397v-194h-60v134h-337z" />
    <glyph glyph-name="uni00AD" unicode="&#xad;" horiz-adv-x="447" 
d="M418 251v-60h-389v60h389z" />
    <glyph glyph-name="registered" unicode="&#xae;" horiz-adv-x="434" 
d="M292 689.5q35 -20.5 55 -55t20 -74.5q0 -41 -20 -76t-55 -55.5t-76 -20.5t-75.5 20.5t-54.5 55.5t-20 76q0 40 20 74.5t54.5 55t75.5 20.5t76 -20.5zM283 444q31 18 49 49t18 67t-18 66.5t-49 48.5t-67 18t-66.5 -18t-48.5 -48.5t-18 -66.5t18 -67t48.5 -49t66.5 -18
t67 18zM281.5 557q-13.5 -14 -37.5 -18l53 -61h-31l-50 59h-36v-59h-26v172h68q34 0 53.5 -15t19.5 -41q0 -23 -13.5 -37zM180 628v-69h42q48 0 48 34q0 16 -12.5 25.5t-35.5 9.5h-42z" />
    <glyph glyph-name="macron" unicode="&#xaf;" horiz-adv-x="414" 
d="M348 641h-282l1 49h281v-49z" />
    <glyph glyph-name="degree" unicode="&#xb0;" horiz-adv-x="434" 
d="M140.5 428.5q-34.5 20.5 -54.5 55.5t-20 76q0 40 20 74.5t54.5 55t75.5 20.5t76 -20.5t55 -55t20 -74.5q0 -41 -20 -76t-55 -55.5t-76 -20.5t-75.5 20.5zM302 473.5q36 35.5 36 86.5q0 49 -36 84.5t-86 35.5t-86 -35.5t-36 -84.5q0 -51 36 -86.5t86 -35.5t86 35.5z" />
    <glyph glyph-name="plusminus" unicode="&#xb1;" horiz-adv-x="503" 
d="M473 363v-60h-192v-151h182v-49h-416v49h174v151h-192v60h192v172h60v-172h192z" />
    <glyph glyph-name="uni00B2" unicode="&#xb2;" horiz-adv-x="296" 
d="M33 542q63 43 118 92q29 26 43 44.5t14 36.5q0 24 -18.5 39.5t-46.5 15.5q-21 0 -43 -10t-38 -27l-31 36q22 23 53.5 35t64.5 12q48 0 82 -26.5t34 -70.5q0 -27 -14 -50t-50 -55q-12 -11 -34 -29q-27 -23 -39 -34h139v-48h-234v39z" />
    <glyph glyph-name="uni00B3" unicode="&#xb3;" horiz-adv-x="302" 
d="M29 544l21 36q17 -15 45 -24.5t52 -9.5q29 0 48 16.5t19 42.5q0 22 -17.5 38t-43.5 16q-29 0 -56 -3v28l99 90h-147v39h206l4 -33l-95 -91q5 0 11.5 1t11.5 0q38 -3 62 -27.5t24 -61.5q0 -45 -35.5 -73.5t-87.5 -28.5q-71 0 -121 45z" />
    <glyph glyph-name="acute" unicode="&#xb4;" horiz-adv-x="301" 
d="M247 720l-116 -127l-52 7l96 137z" />
    <glyph glyph-name="uni00B5" unicode="&#xb5;" horiz-adv-x="655" 
d="M497 541h74v-541h-74v97q-32 -48 -85.5 -77t-121.5 -29q-85 0 -142 48l2 -210h-74v356q-2 24 -2 37v319h75v-309q0 -81 41.5 -126.5t116.5 -45.5q52 0 95.5 26t69 72t25.5 103v280z" />
    <glyph glyph-name="paragraph" unicode="&#xb6;" horiz-adv-x="733" 
d="M415 700v-820h-52v410h-71q-119 0 -186.5 54.5t-67.5 151.5q0 96 67 150t185 54h125zM583 -120v820h52v-820h-52z" />
    <glyph glyph-name="periodcentered" unicode="&#xb7;" horiz-adv-x="194" 
d="M52 324v83h92v-83h-92z" />
    <glyph glyph-name="cedilla" unicode="&#xb8;" horiz-adv-x="249" 
d="M130 -39q34 -5 53.5 -23t19.5 -44q0 -31 -27 -50.5t-78 -19.5q-32 0 -62 7l10 43q21 -7 46 -7q23 0 35 9.5t12 23.5q0 17 -17 28t-50 12l19 65h52z" />
    <glyph glyph-name="uni00B9" unicode="&#xb9;" horiz-adv-x="218" 
d="M168 503h-56v260l-77 -9l-6 47l92 11h47v-309z" />
    <glyph glyph-name="ordmasculine" unicode="&#xba;" horiz-adv-x="350" 
d="M69 536.5q-42 40.5 -42 102.5q0 61 42 101.5t106 40.5t106.5 -40.5t42.5 -101.5q0 -62 -42.5 -102.5t-106.5 -40.5t-106 40.5zM238 571.5q25 26.5 25 67.5q0 40 -25 67t-63 27t-63 -27t-25 -67t25.5 -67t62.5 -27q38 0 63 26.5zM35 400v49h283v-49h-283z" />
    <glyph glyph-name="guillemotright" unicode="&#xbb;" horiz-adv-x="486" 
d="M261 254l-183 -213l-48 23l157 194l-157 195l48 23l183 -214v-8zM457 245l-180 -204l-43 23l158 194l-158 195l48 23l175 -204v-27z" />
    <glyph glyph-name="onequarter" unicode="&#xbc;" horiz-adv-x="707" 
d="M168 411h-56v260l-77 -9l-6 47l92 11h47v-309zM121 0h-66l419 700h66zM629 0h-53v68h-164l-11 32l157 209h71v-199h49v-42h-49v-68zM576 263l-114 -153h114v153z" />
    <glyph glyph-name="onehalf" unicode="&#xbd;" horiz-adv-x="668" 
d="M168 411h-56v260l-77 -9l-6 47l92 11h47v-309zM121 0h-66l419 700h66zM405 39q63 43 118 92q29 26 43 44.5t14 36.5q0 24 -18.5 39.5t-46.5 15.5q-21 0 -43 -10t-38 -27l-31 36q22 23 53.5 35t64.5 12q48 0 82 -26.5t34 -70.5q0 -27 -14 -50t-50 -55q-12 -11 -34 -29
q-27 -23 -39 -34h139v-48h-234v39z" />
    <glyph glyph-name="threequarters" unicode="&#xbe;" horiz-adv-x="791" 
d="M29 451l21 36q17 -15 45 -24.5t52 -9.5q29 0 48 16.5t19 42.5q0 22 -17.5 38t-43.5 16q-29 0 -56 -3v28l99 90h-147v39h206l4 -33l-95 -91q5 0 11.5 1t11.5 0q38 -3 62 -27.5t24 -61.5q0 -45 -35.5 -73.5t-87.5 -28.5q-71 0 -121 45zM205 0h-66l419 700h66zM713 0h-53v68
h-164l-11 32l157 209h71v-199h49v-42h-49v-68zM660 263l-114 -153h114v153z" />
    <glyph glyph-name="questiondown" unicode="&#xbf;" horiz-adv-x="526" 
d="M339 541v-90h-99v90h99zM325 342l1 -19q0 -61 -27 -104t-78 -83q-43 -36 -64 -63t-21 -62q0 -51 40 -80t109 -29q91 0 194 69l27 -65q-120 -74 -230 -74q-99 0 -157 47t-58 126q0 50 26.5 85t77.5 77q55 47 73 82.5t19 92.5h68z" />
    <glyph glyph-name="Agrave" unicode="&#xc0;" horiz-adv-x="765" 
d="M743 0h-83l-73 161h-411l-73 -161h-81l321 700h78zM382 612l-174 -381h347zM406 752l-52 -5l-94 101l66 17z" />
    <glyph glyph-name="Aacute" unicode="&#xc1;" horiz-adv-x="765" 
d="M743 0h-83l-73 161h-411l-73 -161h-81l321 700h78zM382 612l-174 -381h347zM505 848l-94 -101l-52 5l80 113z" />
    <glyph glyph-name="Acircumflex" unicode="&#xc2;" horiz-adv-x="765" 
d="M743 0h-83l-73 161h-411l-73 -161h-81l321 700h78zM382 612l-174 -381h347zM421 881l105 -121l-64 -6l-78 96l-78 -96l-64 6l105 121h74z" />
    <glyph glyph-name="Atilde" unicode="&#xc3;" horiz-adv-x="765" 
d="M743 0h-83l-73 161h-411l-73 -161h-81l321 700h78zM382 612l-174 -381h347zM217 763q0 41 23.5 66.5t59.5 25.5q19 0 35.5 -6.5t40.5 -20.5q19 -11 31.5 -16.5t25.5 -5.5q22 0 36 15t14 39l39 -10q0 -41 -23 -66.5t-59 -25.5q-19 0 -35.5 6.5t-40.5 20.5q-20 11 -32 16.5
t-25 5.5q-22 0 -36 -15t-14 -39z" />
    <glyph glyph-name="Adieresis" unicode="&#xc4;" horiz-adv-x="765" 
d="M743 0h-83l-73 161h-411l-73 -161h-81l321 700h78zM382 612l-174 -381h347zM348 765h-70v105h70v-105zM500 765h-71v105h71v-105z" />
    <glyph glyph-name="Aring" unicode="&#xc5;" horiz-adv-x="765" 
d="M660 0l-73 161h-411l-73 -161h-81l310 675q-28 14 -44.5 40.5t-16.5 59.5q0 49 34 81t85 32q52 0 86 -32t34 -81q0 -37 -20.5 -65.5t-54.5 -40.5l308 -669h-83zM341 823.5q-20 -19.5 -20 -48.5q0 -30 19.5 -49t49.5 -19t49.5 19t19.5 49q0 29 -19.5 48.5t-49.5 19.5
q-29 0 -49 -19.5zM382 612l-174 -381h347z" />
    <glyph glyph-name="AE" unicode="&#xc6;" horiz-adv-x="1079" 
d="M565 324v-255h463v-69h-540v178h-279l-106 -178h-81l411 700h585v-69h-453v-238h400v-69h-400zM481 635l-230 -387h237v387h-7z" />
    <glyph glyph-name="Ccedilla" unicode="&#xc7;" horiz-adv-x="724" 
d="M693 101q-44 -48 -104 -76.5t-131 -33.5l-11 -36q34 -5 53.5 -23t19.5 -44q0 -31 -27 -50.5t-78 -19.5q-32 0 -62 7l10 43q21 -7 46 -7q23 0 35 9.5t12 23.5q0 17 -17 28t-50 12l17 57q-96 5 -174 53.5t-122 128.5t-44 177q0 101 47 183t129.5 129.5t183.5 47.5
q160 0 265 -107l-50 -50q-42 42 -93.5 64t-119.5 22q-79 0 -143.5 -38t-101 -104t-36.5 -146q0 -83 37 -149t101.5 -103.5t142.5 -37.5q128 0 215 89z" />
    <glyph glyph-name="Egrave" unicode="&#xc8;" horiz-adv-x="689" 
d="M174 324v-255h463v-69h-539v700h529v-69h-453v-238h400v-69h-400zM370 752l-52 -5l-94 101l66 17z" />
    <glyph glyph-name="Eacute" unicode="&#xc9;" horiz-adv-x="689" 
d="M174 324v-255h463v-69h-539v700h529v-69h-453v-238h400v-69h-400zM469 848l-94 -101l-52 5l80 113z" />
    <glyph glyph-name="Ecircumflex" unicode="&#xca;" horiz-adv-x="689" 
d="M174 324v-255h463v-69h-539v700h529v-69h-453v-238h400v-69h-400zM385 881l105 -121l-64 -6l-78 96l-78 -96l-64 6l105 121h74z" />
    <glyph glyph-name="Edieresis" unicode="&#xcb;" horiz-adv-x="689" 
d="M174 324v-255h463v-69h-539v700h529v-69h-453v-238h400v-69h-400zM312 765h-70v105h70v-105zM464 765h-71v105h71v-105z" />
    <glyph glyph-name="Igrave" unicode="&#xcc;" horiz-adv-x="273" 
d="M175 0h-77v700h77v-700zM160 752l-52 -5l-94 101l66 17z" />
    <glyph glyph-name="Iacute" unicode="&#xcd;" horiz-adv-x="273" 
d="M175 0h-77v700h77v-700zM259 848l-94 -101l-52 5l80 113z" />
    <glyph glyph-name="Icircumflex" unicode="&#xce;" horiz-adv-x="273" 
d="M175 0h-77v700h77v-700zM175 881l105 -121l-64 -6l-78 96l-78 -96l-64 6l105 121h74z" />
    <glyph glyph-name="Idieresis" unicode="&#xcf;" horiz-adv-x="273" 
d="M175 0h-77v700h77v-700zM102 765h-70v105h70v-105zM254 765h-71v105h71v-105z" />
    <glyph glyph-name="Eth" unicode="&#xd0;" horiz-adv-x="818" 
d="M375 700q114 0 199 -43t131.5 -122t46.5 -184q0 -106 -46 -185.5t-131.5 -122.5t-199.5 -43h-277v324h-63v57h63v319h277zM371 69q91 0 159 34t104.5 97.5t36.5 149.5q0 87 -36.5 150t-104.5 97t-160 34h-195v-250h231v-57h-231v-255h196z" />
    <glyph glyph-name="Ntilde" unicode="&#xd1;" horiz-adv-x="793" 
d="M175 0h-77v700h67l453 -565v565h78v-700h-65l-456 568v-568zM232 763q0 41 23.5 66.5t59.5 25.5q19 0 35.5 -6.5t40.5 -20.5q19 -11 31.5 -16.5t25.5 -5.5q22 0 36 15t14 39l39 -10q0 -41 -23 -66.5t-59 -25.5q-19 0 -35.5 6.5t-40.5 20.5q-20 11 -32 16.5t-25 5.5
q-22 0 -36 -15t-14 -39z" />
    <glyph glyph-name="Ograve" unicode="&#xd2;" horiz-adv-x="858" 
d="M242.5 36.5q-82.5 46.5 -129.5 128.5t-47 185t47 185t129.5 128.5t186.5 46.5t186.5 -46.5t129.5 -128.5t47 -185t-47 -185t-130 -128.5t-187 -46.5q-103 0 -185.5 46.5zM574 98.5q64 36.5 100 102t36 149.5t-36 150t-100 102.5t-145 36.5t-145 -36.5t-100 -102.5
t-36 -150t36 -149.5t100 -102t145 -36.5t145 36.5zM452 752l-52 -5l-94 101l66 17z" />
    <glyph glyph-name="Oacute" unicode="&#xd3;" horiz-adv-x="858" 
d="M242.5 36.5q-82.5 46.5 -129.5 128.5t-47 185t47 185t129.5 128.5t186.5 46.5t186.5 -46.5t129.5 -128.5t47 -185t-47 -185t-130 -128.5t-187 -46.5q-103 0 -185.5 46.5zM574 98.5q64 36.5 100 102t36 149.5t-36 150t-100 102.5t-145 36.5t-145 -36.5t-100 -102.5
t-36 -150t36 -149.5t100 -102t145 -36.5t145 36.5zM552 848l-94 -101l-52 5l80 113z" />
    <glyph glyph-name="Ocircumflex" unicode="&#xd4;" horiz-adv-x="858" 
d="M242.5 36.5q-82.5 46.5 -129.5 128.5t-47 185t47 185t129.5 128.5t186.5 46.5t186.5 -46.5t129.5 -128.5t47 -185t-47 -185t-130 -128.5t-187 -46.5q-103 0 -185.5 46.5zM574 98.5q64 36.5 100 102t36 149.5t-36 150t-100 102.5t-145 36.5t-145 -36.5t-100 -102.5
t-36 -150t36 -149.5t100 -102t145 -36.5t145 36.5zM467 881l105 -121l-64 -6l-78 96l-78 -96l-64 6l105 121h74z" />
    <glyph glyph-name="Otilde" unicode="&#xd5;" horiz-adv-x="858" 
d="M242.5 36.5q-82.5 46.5 -129.5 128.5t-47 185t47 185t129.5 128.5t186.5 46.5t186.5 -46.5t129.5 -128.5t47 -185t-47 -185t-130 -128.5t-187 -46.5q-103 0 -185.5 46.5zM574 98.5q64 36.5 100 102t36 149.5t-36 150t-100 102.5t-145 36.5t-145 -36.5t-100 -102.5
t-36 -150t36 -149.5t100 -102t145 -36.5t145 36.5zM264 763q0 41 23.5 66.5t59.5 25.5q19 0 35.5 -6.5t40.5 -20.5q19 -11 31.5 -16.5t25.5 -5.5q22 0 36 15t14 39l39 -10q0 -41 -23 -66.5t-59 -25.5q-19 0 -35.5 6.5t-40.5 20.5q-20 11 -32 16.5t-25 5.5q-22 0 -36 -15
t-14 -39z" />
    <glyph glyph-name="Odieresis" unicode="&#xd6;" horiz-adv-x="858" 
d="M242.5 36.5q-82.5 46.5 -129.5 128.5t-47 185t47 185t129.5 128.5t186.5 46.5t186.5 -46.5t129.5 -128.5t47 -185t-47 -185t-130 -128.5t-187 -46.5q-103 0 -185.5 46.5zM574 98.5q64 36.5 100 102t36 149.5t-36 150t-100 102.5t-145 36.5t-145 -36.5t-100 -102.5
t-36 -150t36 -149.5t100 -102t145 -36.5t145 36.5zM394 765h-70v105h70v-105zM546 765h-71v105h71v-105z" />
    <glyph glyph-name="multiply" unicode="&#xd7;" horiz-adv-x="397" 
d="M325 520l42 -42l-126 -126l126 -127l-42 -42l-126 126l-127 -127l-43 43l127 127l-126 126l42 43l127 -127z" />
    <glyph glyph-name="Oslash" unicode="&#xd8;" horiz-adv-x="858" 
d="M798 678l-90 -90q40 -47 62 -108t22 -130q0 -103 -47 -185t-130 -128.5t-187 -46.5q-69 0 -129 21t-107 60l-79 -79l-41 42l78 78q-40 47 -62 108t-22 130q0 103 47 185t129.5 128.5t186.5 46.5q69 0 129.5 -21t108.5 -60l90 90zM205 167l408 408q-75 64 -184 64
q-81 0 -145 -36.5t-100 -102.5t-36 -150q0 -107 57 -183zM653 533l-407 -408q37 -30 83.5 -46.5t99.5 -16.5q81 0 145 36.5t100 102t36 149.5q0 107 -57 183z" />
    <glyph glyph-name="Ugrave" unicode="&#xd9;" horiz-adv-x="740" 
d="M214 26.5q-66 35.5 -102 102.5t-36 159v412h78v-398q0 -109 57.5 -169.5t158.5 -60.5t159 60.5t58 169.5v398h77v-412q0 -92 -35.5 -159t-102 -102.5t-156.5 -35.5t-156 35.5zM394 752l-52 -5l-94 101l66 17z" />
    <glyph glyph-name="Uacute" unicode="&#xda;" horiz-adv-x="740" 
d="M214 26.5q-66 35.5 -102 102.5t-36 159v412h78v-398q0 -109 57.5 -169.5t158.5 -60.5t159 60.5t58 169.5v398h77v-412q0 -92 -35.5 -159t-102 -102.5t-156.5 -35.5t-156 35.5zM493 848l-94 -101l-52 5l80 113z" />
    <glyph glyph-name="Ucircumflex" unicode="&#xdb;" horiz-adv-x="740" 
d="M214 26.5q-66 35.5 -102 102.5t-36 159v412h78v-398q0 -109 57.5 -169.5t158.5 -60.5t159 60.5t58 169.5v398h77v-412q0 -92 -35.5 -159t-102 -102.5t-156.5 -35.5t-156 35.5zM409 881l105 -121l-64 -6l-78 96l-78 -96l-64 6l105 121h74z" />
    <glyph glyph-name="Udieresis" unicode="&#xdc;" horiz-adv-x="740" 
d="M214 26.5q-66 35.5 -102 102.5t-36 159v412h78v-398q0 -109 57.5 -169.5t158.5 -60.5t159 60.5t58 169.5v398h77v-412q0 -92 -35.5 -159t-102 -102.5t-156.5 -35.5t-156 35.5zM336 765h-70v105h70v-105zM488 765h-71v105h71v-105z" />
    <glyph glyph-name="Yacute" unicode="&#xdd;" horiz-adv-x="678" 
d="M576 700h85l-283 -439v-261h-78v264l-283 436h86l237 -371zM462 848l-94 -101l-52 5l80 113z" />
    <glyph glyph-name="Thorn" unicode="&#xde;" horiz-adv-x="684" 
d="M359 587q134 0 210 -62t76 -171q0 -111 -77 -173t-211 -62h-182v-119h-77v700h77v-113h184zM356 182q101 0 156.5 45t55.5 127q0 80 -55.5 125t-155.5 45h-182v-342h181z" />
    <glyph glyph-name="germandbls" unicode="&#xdf;" horiz-adv-x="665" 
d="M559.5 323q52.5 -50 52.5 -124q0 -62 -30 -109t-84 -72.5t-124 -25.5q-34 0 -67.5 8t-57.5 20l5 59q22 -12 51.5 -19.5t52.5 -7.5q84 0 133 41.5t49 112.5q0 65 -53.5 104.5t-137.5 39.5q-12 0 -30.5 -1.5t-30.5 -3.5l-1 50q5 1 25 3t25 3q67 14 109 57t42 98
q0 56 -42.5 93.5t-108.5 37.5q-75 0 -120 -48t-45 -128v-511h-74v512q0 70 29.5 123.5t84 83t125.5 29.5q64 0 115 -24.5t80 -67t29 -95.5q0 -59 -38 -107.5t-99 -69.5q83 -11 135.5 -61z" />
    <glyph glyph-name="agrave" unicode="&#xe0;" horiz-adv-x="580" 
d="M447.5 494.5q58.5 -55.5 58.5 -158.5v-336h-75v102q-26 -45 -80.5 -78.5t-127.5 -33.5q-86 0 -136.5 46t-50.5 120q0 78 53 125t159 47q80 0 183 -11v18q0 72 -41.5 109.5t-121.5 37.5q-43 0 -87 -15.5t-79 -44.5l-38 55q44 37 99 55t112 18q114 0 172.5 -55.5zM340.5 85
q42.5 26 66.5 67.5t24 84.5v16q-76 12 -166 12q-157 0 -157 -105q0 -49 36 -75t102 -26q52 0 94.5 26zM306 602l-52 -7l-116 127l72 17z" />
    <glyph glyph-name="aacute" unicode="&#xe1;" horiz-adv-x="580" 
d="M447.5 494.5q58.5 -55.5 58.5 -158.5v-336h-75v102q-26 -45 -80.5 -78.5t-127.5 -33.5q-86 0 -136.5 46t-50.5 120q0 78 53 125t159 47q80 0 183 -11v18q0 72 -41.5 109.5t-121.5 37.5q-43 0 -87 -15.5t-79 -44.5l-38 55q44 37 99 55t112 18q114 0 172.5 -55.5zM340.5 85
q42.5 26 66.5 67.5t24 84.5v16q-76 12 -166 12q-157 0 -157 -105q0 -49 36 -75t102 -26q52 0 94.5 26zM422 722l-116 -127l-52 7l96 137z" />
    <glyph glyph-name="acircumflex" unicode="&#xe2;" horiz-adv-x="580" 
d="M447.5 494.5q58.5 -55.5 58.5 -158.5v-336h-75v102q-26 -45 -80.5 -78.5t-127.5 -33.5q-86 0 -136.5 46t-50.5 120q0 78 53 125t159 47q80 0 183 -11v18q0 72 -41.5 109.5t-121.5 37.5q-43 0 -87 -15.5t-79 -44.5l-38 55q44 37 99 55t112 18q114 0 172.5 -55.5zM340.5 85
q42.5 26 66.5 67.5t24 84.5v16q-76 12 -166 12q-157 0 -157 -105q0 -49 36 -75t102 -26q52 0 94.5 26zM314 732l97 -132l-59 -7l-72 105l-73 -105l-59 7l97 132h69z" />
    <glyph glyph-name="atilde" unicode="&#xe3;" horiz-adv-x="580" 
d="M447.5 494.5q58.5 -55.5 58.5 -158.5v-336h-75v102q-26 -45 -80.5 -78.5t-127.5 -33.5q-86 0 -136.5 46t-50.5 120q0 78 53 125t159 47q80 0 183 -11v18q0 72 -41.5 109.5t-121.5 37.5q-43 0 -87 -15.5t-79 -44.5l-38 55q44 37 99 55t112 18q114 0 172.5 -55.5zM340.5 85
q42.5 26 66.5 67.5t24 84.5v16q-76 12 -166 12q-157 0 -157 -105q0 -49 36 -75t102 -26q52 0 94.5 26zM127 619q0 41 23.5 66.5t59.5 25.5q19 0 35.5 -6.5t40.5 -20.5q19 -11 31.5 -16.5t25.5 -5.5q22 0 36 15t14 39l39 -10q0 -41 -23 -66.5t-59 -25.5q-19 0 -35.5 6.5
t-40.5 20.5q-20 11 -32 16.5t-25 5.5q-22 0 -36 -15t-14 -39z" />
    <glyph glyph-name="adieresis" unicode="&#xe4;" horiz-adv-x="580" 
d="M447.5 494.5q58.5 -55.5 58.5 -158.5v-336h-75v102q-26 -45 -80.5 -78.5t-127.5 -33.5q-86 0 -136.5 46t-50.5 120q0 78 53 125t159 47q80 0 183 -11v18q0 72 -41.5 109.5t-121.5 37.5q-43 0 -87 -15.5t-79 -44.5l-38 55q44 37 99 55t112 18q114 0 172.5 -55.5zM340.5 85
q42.5 26 66.5 67.5t24 84.5v16q-76 12 -166 12q-157 0 -157 -105q0 -49 36 -75t102 -26q52 0 94.5 26zM229 619h-57v110h57v-110zM386 619h-56v110h56v-110z" />
    <glyph glyph-name="aring" unicode="&#xe5;" horiz-adv-x="587" 
d="M447.5 494.5q58.5 -55.5 58.5 -158.5v-336h-75v102q-26 -45 -80.5 -78.5t-127.5 -33.5q-86 0 -136.5 46t-50.5 120q0 78 53 125t159 47q80 0 183 -11v18q0 72 -41.5 109.5t-121.5 37.5q-43 0 -87 -15.5t-79 -44.5l-38 55q44 37 99 55t112 18q114 0 172.5 -55.5zM340.5 85
q42.5 26 66.5 67.5t24 84.5v16q-76 12 -166 12q-157 0 -157 -105q0 -49 36 -75t102 -26q52 0 94.5 26zM208 621q-34 32 -34 80q0 49 34 81t86 32q51 0 85 -32t34 -81q0 -48 -34 -80t-85 -32q-52 0 -86 32zM343 652.5q20 19.5 20 48.5q0 30 -20 49.5t-49 19.5
q-30 0 -50 -19.5t-20 -49.5q0 -29 20 -48.5t50 -19.5q29 0 49 19.5z" />
    <glyph glyph-name="ae" unicode="&#xe6;" horiz-adv-x="990" 
d="M498 242q7 -82 65 -132.5t146 -50.5q101 0 161 66l48 -44q-40 -43 -93.5 -66.5t-119.5 -23.5q-86 0 -153 40t-101 109q-32 -62 -95.5 -106t-145.5 -44t-133 45.5t-51 120.5t55.5 120.5t156.5 45.5q111 0 182 -11v30q-1 71 -42 108.5t-120 37.5q-45 0 -90.5 -16t-75.5 -44
l-41 52q45 34 101.5 52.5t112.5 18.5q78 0 129.5 -29.5t75.5 -82.5q37 53 95.5 82.5t131.5 29.5q74 0 131 -33t88.5 -93t31.5 -137q0 -15 -3 -45h-447zM561.5 434q-53.5 -48 -62.5 -127h376q-8 84 -55.5 129.5t-122.5 45.5q-82 0 -135.5 -48zM328.5 82q44.5 26 69 68
t23.5 87l2 -2l-2 19q-71 11 -167 11q-74 0 -115 -28.5t-41 -76.5t34.5 -76t95.5 -28q56 0 100.5 26z" />
    <glyph glyph-name="ccedilla" unicode="&#xe7;" horiz-adv-x="577" 
d="M421 74.5q37 15.5 70 49.5l53 -45q-35 -39 -82 -61t-100 -27l-9 -31q34 -5 53.5 -23t19.5 -44q0 -31 -27 -50.5t-78 -19.5q-32 0 -62 7l10 43q21 -7 46 -7q23 0 35 9.5t12 23.5q0 17 -17 28t-50 12l15 52q-74 6 -132.5 43t-91.5 98.5t-33 137.5q0 81 37 144.5t102 99.5
t145 36q60 0 113.5 -21.5t93.5 -64.5l-54 -46q-32 34 -70 49t-84 15q-59 0 -106.5 -26t-74.5 -74t-27 -111q0 -64 27 -112t75 -74t108 -26q46 0 83 15.5z" />
    <glyph glyph-name="egrave" unicode="&#xe8;" horiz-adv-x="618" 
d="M129 242q7 -82 65.5 -132.5t146.5 -50.5q101 0 160 66l49 -44q-40 -43 -93.5 -66.5t-119.5 -23.5q-82 0 -146.5 36t-101 99.5t-36.5 144.5q0 80 34.5 143.5t97.5 99.5t144 36q73 0 130 -33t89 -93t32 -137q0 -18 -4 -45h-447zM193.5 434q-53.5 -48 -63.5 -127h377
q-8 84 -55.5 129.5t-122.5 45.5q-82 0 -135.5 -48zM342 600l-52 -7l-116 127l72 17z" />
    <glyph glyph-name="eacute" unicode="&#xe9;" horiz-adv-x="618" 
d="M129 242q7 -82 65.5 -132.5t146.5 -50.5q101 0 160 66l49 -44q-40 -43 -93.5 -66.5t-119.5 -23.5q-82 0 -146.5 36t-101 99.5t-36.5 144.5q0 80 34.5 143.5t97.5 99.5t144 36q73 0 130 -33t89 -93t32 -137q0 -18 -4 -45h-447zM193.5 434q-53.5 -48 -63.5 -127h377
q-8 84 -55.5 129.5t-122.5 45.5q-82 0 -135.5 -48zM458 720l-116 -127l-52 7l96 137z" />
    <glyph glyph-name="ecircumflex" unicode="&#xea;" horiz-adv-x="618" 
d="M129 242q7 -82 65.5 -132.5t146.5 -50.5q101 0 160 66l49 -44q-40 -43 -93.5 -66.5t-119.5 -23.5q-82 0 -146.5 36t-101 99.5t-36.5 144.5q0 80 34.5 143.5t97.5 99.5t144 36q73 0 130 -33t89 -93t32 -137q0 -18 -4 -45h-447zM193.5 434q-53.5 -48 -63.5 -127h377
q-8 84 -55.5 129.5t-122.5 45.5q-82 0 -135.5 -48zM350 730l97 -132l-59 -7l-72 105l-73 -105l-59 7l97 132h69z" />
    <glyph glyph-name="edieresis" unicode="&#xeb;" horiz-adv-x="618" 
d="M129 242q7 -82 65.5 -132.5t146.5 -50.5q101 0 160 66l49 -44q-40 -43 -93.5 -66.5t-119.5 -23.5q-82 0 -146.5 36t-101 99.5t-36.5 144.5q0 80 34.5 143.5t97.5 99.5t144 36q73 0 130 -33t89 -93t32 -137q0 -18 -4 -45h-447zM193.5 434q-53.5 -48 -63.5 -127h377
q-8 84 -55.5 129.5t-122.5 45.5q-82 0 -135.5 -48zM265 617h-57v110h57v-110zM422 617h-56v110h56v-110z" />
    <glyph glyph-name="igrave" unicode="&#xec;" horiz-adv-x="242" 
d="M158 0h-74v541h74v-541zM147 600l-52 -7l-116 127l72 17z" />
    <glyph glyph-name="iacute" unicode="&#xed;" horiz-adv-x="242" 
d="M158 0h-74v541h74v-541zM263 720l-116 -127l-52 7l96 137z" />
    <glyph glyph-name="icircumflex" unicode="&#xee;" horiz-adv-x="242" 
d="M158 0h-74v541h74v-541zM155 730l97 -132l-59 -7l-72 105l-73 -105l-59 7l97 132h69z" />
    <glyph glyph-name="idieresis" unicode="&#xef;" horiz-adv-x="242" 
d="M158 0h-74v541h74v-541zM70 617h-57v110h57v-110zM227 617h-56v110h56v-110z" />
    <glyph glyph-name="eth" unicode="&#xf0;" 
d="M473 672q71 -56 110 -144.5t39 -199.5q0 -98 -39 -175t-109 -120t-159 -43q-76 0 -135.5 30.5t-93 85.5t-33.5 127q0 69 33 124.5t91.5 86.5t133.5 31q76 0 137.5 -43.5t97.5 -119.5v15q-1 96 -32.5 173.5t-91.5 126.5l-123 -110l-37 28l122 108q-81 48 -190 44l22 52
q124 6 219 -51l71 63l36 -28zM448 92q58 45 83 124q-19 92 -78.5 146t-134.5 54q-54 0 -98 -24t-69 -66t-25 -96q0 -53 24.5 -95t67.5 -65t97 -23q75 0 133 45z" />
    <glyph glyph-name="ntilde" unicode="&#xf1;" horiz-adv-x="655" 
d="M522 488q59 -62 59 -169v-319h-75v309q0 81 -41.5 126.5t-116.5 45.5q-52 0 -95.5 -26t-69 -72t-25.5 -103v-280h-74v541h74v-97q32 48 85.5 77t121.5 29q98 0 157 -62zM175 617q0 41 23.5 66.5t59.5 25.5q19 0 35.5 -6.5t40.5 -20.5q19 -11 31.5 -16.5t25.5 -5.5
q22 0 36 15t14 39l39 -10q0 -41 -23 -66.5t-59 -25.5q-19 0 -35.5 6.5t-40.5 20.5q-20 11 -32 16.5t-25 5.5q-22 0 -36 -15t-14 -39z" />
    <glyph glyph-name="ograve" unicode="&#xf2;" 
d="M190.5 26q-64.5 36 -101 100t-36.5 145q0 80 36.5 143.5t101.5 99.5t146 36q82 0 147 -36t101.5 -99t36.5 -143q0 -81 -36.5 -145t-101.5 -100.5t-147 -36.5t-146.5 36zM445.5 86q47.5 27 74.5 75t27 110t-27 110t-75 74.5t-108 26.5t-107.5 -26.5t-74.5 -74.5t-27 -110
t27 -110t75 -75t108 -27t107.5 27zM364 600l-52 -7l-116 127l72 17z" />
    <glyph glyph-name="oacute" unicode="&#xf3;" 
d="M190.5 26q-64.5 36 -101 100t-36.5 145q0 80 36.5 143.5t101.5 99.5t146 36q82 0 147 -36t101.5 -99t36.5 -143q0 -81 -36.5 -145t-101.5 -100.5t-147 -36.5t-146.5 36zM445.5 86q47.5 27 74.5 75t27 110t-27 110t-75 74.5t-108 26.5t-107.5 -26.5t-74.5 -74.5t-27 -110
t27 -110t75 -75t108 -27t107.5 27zM480 720l-116 -127l-52 7l96 137z" />
    <glyph glyph-name="ocircumflex" unicode="&#xf4;" 
d="M190.5 26q-64.5 36 -101 100t-36.5 145q0 80 36.5 143.5t101.5 99.5t146 36q82 0 147 -36t101.5 -99t36.5 -143q0 -81 -36.5 -145t-101.5 -100.5t-147 -36.5t-146.5 36zM445.5 86q47.5 27 74.5 75t27 110t-27 110t-75 74.5t-108 26.5t-107.5 -26.5t-74.5 -74.5t-27 -110
t27 -110t75 -75t108 -27t107.5 27zM372 730l97 -132l-59 -7l-72 105l-73 -105l-59 7l97 132h69z" />
    <glyph glyph-name="otilde" unicode="&#xf5;" 
d="M190.5 26q-64.5 36 -101 100t-36.5 145q0 80 36.5 143.5t101.5 99.5t146 36q82 0 147 -36t101.5 -99t36.5 -143q0 -81 -36.5 -145t-101.5 -100.5t-147 -36.5t-146.5 36zM445.5 86q47.5 27 74.5 75t27 110t-27 110t-75 74.5t-108 26.5t-107.5 -26.5t-74.5 -74.5t-27 -110
t27 -110t75 -75t108 -27t107.5 27zM185 617q0 41 23.5 66.5t59.5 25.5q19 0 35.5 -6.5t40.5 -20.5q19 -11 31.5 -16.5t25.5 -5.5q22 0 36 15t14 39l39 -10q0 -41 -23 -66.5t-59 -25.5q-19 0 -35.5 6.5t-40.5 20.5q-20 11 -32 16.5t-25 5.5q-22 0 -36 -15t-14 -39z" />
    <glyph glyph-name="odieresis" unicode="&#xf6;" 
d="M190.5 26q-64.5 36 -101 100t-36.5 145q0 80 36.5 143.5t101.5 99.5t146 36q82 0 147 -36t101.5 -99t36.5 -143q0 -81 -36.5 -145t-101.5 -100.5t-147 -36.5t-146.5 36zM445.5 86q47.5 27 74.5 75t27 110t-27 110t-75 74.5t-108 26.5t-107.5 -26.5t-74.5 -74.5t-27 -110
t27 -110t75 -75t108 -27t107.5 27zM287 617h-57v110h57v-110zM444 617h-56v110h56v-110z" />
    <glyph glyph-name="divide" unicode="&#xf7;" horiz-adv-x="467" 
d="M282 472h-94v85h94v-85zM438 374v-57h-409v57h409zM188 141v84h94v-84h-94z" />
    <glyph glyph-name="oslash" unicode="&#xf8;" 
d="M562 449q60 -74 60 -177q0 -81 -36.5 -145t-101.5 -100.5t-147 -36.5q-101 0 -178 56l-46 -46l-45 45l46 46q-61 74 -61 180q0 80 36.5 143.5t101.5 99.5t146 36q103 0 179 -57l50 50l45 -45zM166 143l299 299q-52 40 -128 40q-60 0 -107.5 -26.5t-74.5 -74.5t-27 -110
q0 -73 38 -128zM445.5 86q47.5 27 74.5 75t27 110q0 74 -37 126l-299 -299q53 -39 127 -39q60 0 107.5 27z" />
    <glyph glyph-name="ugrave" unicode="&#xf9;" horiz-adv-x="655" 
d="M497 541h74v-541h-74v97q-32 -48 -85.5 -77t-121.5 -29q-98 0 -157 62t-59 169v319h75v-309q0 -81 41.5 -126.5t116.5 -45.5q52 0 95.5 26t69 72t25.5 103v280zM346 600l-52 -7l-116 127l72 17z" />
    <glyph glyph-name="uacute" unicode="&#xfa;" horiz-adv-x="655" 
d="M497 541h74v-541h-74v97q-32 -48 -85.5 -77t-121.5 -29q-98 0 -157 62t-59 169v319h75v-309q0 -81 41.5 -126.5t116.5 -45.5q52 0 95.5 26t69 72t25.5 103v280zM462 720l-116 -127l-52 7l96 137z" />
    <glyph glyph-name="ucircumflex" unicode="&#xfb;" horiz-adv-x="655" 
d="M497 541h74v-541h-74v97q-32 -48 -85.5 -77t-121.5 -29q-98 0 -157 62t-59 169v319h75v-309q0 -81 41.5 -126.5t116.5 -45.5q52 0 95.5 26t69 72t25.5 103v280zM354 730l97 -132l-59 -7l-72 105l-73 -105l-59 7l97 132h69z" />
    <glyph glyph-name="udieresis" unicode="&#xfc;" horiz-adv-x="655" 
d="M497 541h74v-541h-74v97q-32 -48 -85.5 -77t-121.5 -29q-98 0 -157 62t-59 169v319h75v-309q0 -81 41.5 -126.5t116.5 -45.5q52 0 95.5 26t69 72t25.5 103v280zM269 617h-57v110h57v-110zM426 617h-56v110h56v-110z" />
    <glyph glyph-name="yacute" unicode="&#xfd;" horiz-adv-x="592" 
d="M493 541h82l-236 -541l-22 -51q-30 -69 -71.5 -99.5t-106.5 -30.5q-28 0 -57.5 8.5t-48.5 20.5l24 55q38 -20 79 -20q39 0 63 19.5t45 64.5l15 34l-236 540h82l194 -455zM463 720l-116 -127l-52 7l96 137z" />
    <glyph glyph-name="thorn" unicode="&#xfe;" horiz-adv-x="699" 
d="M521.5 514q58.5 -36 91.5 -100t33 -145q0 -79 -33 -142.5t-91.5 -100t-131.5 -36.5q-75 0 -134 38.5t-91 108.5v-308h-75v909h75v-333q32 69 91.5 107t133.5 38q73 0 131.5 -36zM474.5 80q45.5 28 71.5 78t26 112q0 63 -26 112.5t-71.5 77.5t-102.5 28q-59 0 -106.5 -28
t-74 -77.5t-26.5 -112.5q0 -62 26.5 -112t74 -78t106.5 -28q57 0 102.5 28z" />
    <glyph glyph-name="ydieresis" unicode="&#xff;" horiz-adv-x="592" 
d="M493 541h82l-236 -541l-22 -51q-30 -69 -71.5 -99.5t-106.5 -30.5q-28 0 -57.5 8.5t-48.5 20.5l24 55q38 -20 79 -20q39 0 63 19.5t45 64.5l15 34l-236 540h82l194 -455zM270 617h-57v110h57v-110zM427 617h-56v110h56v-110z" />
    <glyph glyph-name="Amacron" unicode="&#x100;" horiz-adv-x="765" 
d="M743 0h-83l-73 161h-411l-73 -161h-81l321 700h78zM382 612l-174 -381h347zM521 784h-282l1 49h281v-49z" />
    <glyph glyph-name="amacron" unicode="&#x101;" horiz-adv-x="580" 
d="M447.5 494.5q58.5 -55.5 58.5 -158.5v-336h-75v102q-26 -45 -80.5 -78.5t-127.5 -33.5q-86 0 -136.5 46t-50.5 120q0 78 53 125t159 47q80 0 183 -11v18q0 72 -41.5 109.5t-121.5 37.5q-43 0 -87 -15.5t-79 -44.5l-38 55q44 37 99 55t112 18q114 0 172.5 -55.5zM340.5 85
q42.5 26 66.5 67.5t24 84.5v16q-76 12 -166 12q-157 0 -157 -105q0 -49 36 -75t102 -26q52 0 94.5 26zM433 643h-282l1 49h281v-49z" />
    <glyph glyph-name="Abreve" unicode="&#x102;" horiz-adv-x="765" 
d="M743 0h-83l-73 161h-411l-73 -161h-81l321 700h78zM382 612l-174 -381h347zM510 876q0 -59 -35 -94.5t-94 -35.5q-60 0 -95 35.5t-35 94.5h57q0 -84 73 -84q72 0 72 84h57z" />
    <glyph glyph-name="abreve" unicode="&#x103;" horiz-adv-x="580" 
d="M447.5 494.5q58.5 -55.5 58.5 -158.5v-336h-75v102q-26 -45 -80.5 -78.5t-127.5 -33.5q-86 0 -136.5 46t-50.5 120q0 78 53 125t159 47q80 0 183 -11v18q0 72 -41.5 109.5t-121.5 37.5q-43 0 -87 -15.5t-79 -44.5l-38 55q44 37 99 55t112 18q114 0 172.5 -55.5zM340.5 85
q42.5 26 66.5 67.5t24 84.5v16q-76 12 -166 12q-157 0 -157 -105q0 -49 36 -75t102 -26q52 0 94.5 26zM409 722q0 -59 -35 -94.5t-94 -35.5q-60 0 -95 35.5t-35 94.5h57q0 -84 73 -84q72 0 72 84h57z" />
    <glyph glyph-name="Aogonek" unicode="&#x104;" horiz-adv-x="765" 
d="M772 -180q-32 -7 -63 -7q-52 0 -80.5 21t-28.5 58q0 30 21 59t57 49h-18l-73 161h-411l-73 -161h-81l321 700h78l322 -700q-37 -19 -57 -44t-20 -47q0 -24 17 -36.5t47 -12.5q19 0 38 4zM382 612l-174 -381h347z" />
    <glyph glyph-name="aogonek" unicode="&#x105;" horiz-adv-x="580" 
d="M535 -180q-32 -7 -63 -7q-52 0 -80.5 21t-28.5 58q0 30 21 59t57 49h-10v102q-26 -45 -80.5 -78.5t-127.5 -33.5q-86 0 -136.5 46t-50.5 120q0 78 53 125t159 47q80 0 183 -11v18q0 72 -41.5 109.5t-121.5 37.5q-43 0 -87 -15.5t-79 -44.5l-38 55q44 37 99 55t112 18
q114 0 172.5 -55.5t58.5 -158.5v-336q-37 -19 -57 -44t-20 -47q0 -24 17 -36.5t47 -12.5q19 0 38 4zM340.5 85q42.5 26 66.5 67.5t24 84.5v16q-76 12 -166 12q-157 0 -157 -105q0 -49 36 -75t102 -26q52 0 94.5 26z" />
    <glyph glyph-name="Cacute" unicode="&#x106;" horiz-adv-x="724" 
d="M244 37.5q-83 47.5 -130.5 129.5t-47.5 183t47 183t129.5 129.5t183.5 47.5q160 0 265 -107l-50 -50q-42 42 -93.5 64t-119.5 22q-79 0 -143.5 -38t-101 -104t-36.5 -146q0 -83 37 -149t101.5 -103.5t142.5 -37.5q128 0 215 89l50 -49q-49 -53 -117 -82t-148 -29
q-101 0 -184 47.5zM550 845l-94 -101l-52 5l80 113z" />
    <glyph glyph-name="cacute" unicode="&#x107;" horiz-adv-x="577" 
d="M192 26q-65 36 -102 99.5t-37 144.5t37 144.5t102 99.5t145 36q60 0 113.5 -21.5t93.5 -64.5l-54 -46q-32 34 -70 49t-84 15q-59 0 -106.5 -26t-74.5 -74t-27 -111q0 -64 27 -112t75 -74t108 -26q46 0 83 15.5t70 49.5l53 -45q-40 -44 -93.5 -66.5t-113.5 -22.5
q-80 0 -145 36zM478 719l-116 -127l-52 7l96 137z" />
    <glyph glyph-name="Ccircumflex" unicode="&#x108;" horiz-adv-x="724" 
d="M244 37.5q-83 47.5 -130.5 129.5t-47.5 183t47 183t129.5 129.5t183.5 47.5q160 0 265 -107l-50 -50q-42 42 -93.5 64t-119.5 22q-79 0 -143.5 -38t-101 -104t-36.5 -146q0 -83 37 -149t101.5 -103.5t142.5 -37.5q128 0 215 89l50 -49q-49 -53 -117 -82t-148 -29
q-101 0 -184 47.5zM466 878l105 -121l-64 -6l-78 96l-78 -96l-64 6l105 121h74z" />
    <glyph glyph-name="ccircumflex" unicode="&#x109;" horiz-adv-x="577" 
d="M192 26q-65 36 -102 99.5t-37 144.5t37 144.5t102 99.5t145 36q60 0 113.5 -21.5t93.5 -64.5l-54 -46q-32 34 -70 49t-84 15q-59 0 -106.5 -26t-74.5 -74t-27 -111q0 -64 27 -112t75 -74t108 -26q46 0 83 15.5t70 49.5l53 -45q-40 -44 -93.5 -66.5t-113.5 -22.5
q-80 0 -145 36zM370 729l97 -132l-59 -7l-72 105l-73 -105l-59 7l97 132h69z" />
    <glyph glyph-name="Cdotaccent" unicode="&#x10a;" horiz-adv-x="724" 
d="M244 37.5q-83 47.5 -130.5 129.5t-47.5 183t47 183t129.5 129.5t183.5 47.5q160 0 265 -107l-50 -50q-42 42 -93.5 64t-119.5 22q-79 0 -143.5 -38t-101 -104t-36.5 -146q0 -83 37 -149t101.5 -103.5t142.5 -37.5q128 0 215 89l50 -49q-49 -53 -117 -82t-148 -29
q-101 0 -184 47.5zM467 763h-79v106h79v-106z" />
    <glyph glyph-name="cdotaccent" unicode="&#x10b;" horiz-adv-x="577" 
d="M192 26q-65 36 -102 99.5t-37 144.5t37 144.5t102 99.5t145 36q60 0 113.5 -21.5t93.5 -64.5l-54 -46q-32 34 -70 49t-84 15q-59 0 -106.5 -26t-74.5 -74t-27 -111q0 -64 27 -112t75 -74t108 -26q46 0 83 15.5t70 49.5l53 -45q-40 -44 -93.5 -66.5t-113.5 -22.5
q-80 0 -145 36zM376 616h-79v110h79v-110z" />
    <glyph glyph-name="Ccaron" unicode="&#x10c;" horiz-adv-x="724" 
d="M244 37.5q-83 47.5 -130.5 129.5t-47.5 183t47 183t129.5 129.5t183.5 47.5q160 0 265 -107l-50 -50q-42 42 -93.5 64t-119.5 22q-79 0 -143.5 -38t-101 -104t-36.5 -146q0 -83 37 -149t101.5 -103.5t142.5 -37.5q128 0 215 89l50 -49q-49 -53 -117 -82t-148 -29
q-101 0 -184 47.5zM429 775l78 90l64 -5l-105 -115h-74l-105 115l64 5z" />
    <glyph glyph-name="ccaron" unicode="&#x10d;" horiz-adv-x="577" 
d="M192 26q-65 36 -102 99.5t-37 144.5t37 144.5t102 99.5t145 36q60 0 113.5 -21.5t93.5 -64.5l-54 -46q-32 34 -70 49t-84 15q-59 0 -106.5 -26t-74.5 -74t-27 -111q0 -64 27 -112t75 -74t108 -26q46 0 83 15.5t70 49.5l53 -45q-40 -44 -93.5 -66.5t-113.5 -22.5
q-80 0 -145 36zM336 624l72 104l59 -6l-97 -132h-69l-97 132l59 6z" />
    <glyph glyph-name="Dcaron" unicode="&#x10e;" horiz-adv-x="818" 
d="M98 0v700h277q114 0 199 -43t131.5 -122t46.5 -184q0 -106 -46 -185.5t-131.5 -122.5t-199.5 -43h-277zM371 69q91 0 159 34t104.5 97.5t36.5 149.5q0 87 -36.5 150t-104.5 97t-160 34h-195v-562h196zM316 778l78 90l64 -5l-105 -115h-74l-105 115l64 5z" />
    <glyph glyph-name="dcaron" unicode="&#x10f;" horiz-adv-x="743" 
d="M535 738h75v-738h-75v100q-35 -53 -92 -81.5t-126 -28.5q-73 0 -133.5 36.5t-95 100.5t-34.5 144q0 82 34.5 145.5t94.5 98.5t134 35q70 0 127 -28.5t91 -81.5v298zM686 530v208h59l-18 -208h-41zM435 85.5q47 26.5 73.5 75t26.5 110.5t-26.5 109.5t-73.5 74t-107 26.5
q-57 0 -103 -27t-71.5 -74.5t-25.5 -108.5q0 -62 25.5 -110t71 -75t103.5 -27q60 0 107 26.5z" />
    <glyph glyph-name="Dcroat" unicode="&#x110;" horiz-adv-x="818" 
d="M375 700q114 0 199 -43t131.5 -122t46.5 -184q0 -106 -46 -185.5t-131.5 -122.5t-199.5 -43h-277v324h-63v57h63v319h277zM371 69q91 0 159 34t104.5 97.5t36.5 149.5q0 87 -36.5 150t-104.5 97t-160 34h-195v-250h231v-57h-231v-255h196z" />
    <glyph glyph-name="dcroat" unicode="&#x111;" horiz-adv-x="700" 
d="M674 649v-52h-64v-597h-75v100q-35 -53 -92 -81.5t-126 -28.5q-73 0 -133.5 36.5t-95 100.5t-34.5 144q0 82 34.5 145.5t94.5 98.5t134 35q70 0 127 -28.5t91 -81.5v157h-177v52h177v89h75v-89h64zM435 85.5q47 26.5 73.5 75t26.5 110.5t-26.5 109.5t-73.5 74t-107 26.5
q-57 0 -103 -27t-71.5 -74.5t-25.5 -108.5q0 -62 25.5 -110t71 -75t103.5 -27q60 0 107 26.5z" />
    <glyph glyph-name="Emacron" unicode="&#x112;" horiz-adv-x="689" 
d="M174 324v-255h463v-69h-539v700h529v-69h-453v-238h400v-69h-400zM485 784h-282l1 49h281v-49z" />
    <glyph glyph-name="emacron" unicode="&#x113;" horiz-adv-x="618" 
d="M129 242q7 -82 65.5 -132.5t146.5 -50.5q101 0 160 66l49 -44q-40 -43 -93.5 -66.5t-119.5 -23.5q-82 0 -146.5 36t-101 99.5t-36.5 144.5q0 80 34.5 143.5t97.5 99.5t144 36q73 0 130 -33t89 -93t32 -137q0 -18 -4 -45h-447zM193.5 434q-53.5 -48 -63.5 -127h377
q-8 84 -55.5 129.5t-122.5 45.5q-82 0 -135.5 -48zM469 641h-282l1 49h281v-49z" />
    <glyph glyph-name="Ebreve" unicode="&#x114;" horiz-adv-x="689" 
d="M174 324v-255h463v-69h-539v700h529v-69h-453v-238h400v-69h-400zM474 876q0 -59 -35 -94.5t-94 -35.5q-60 0 -95 35.5t-35 94.5h57q0 -84 73 -84q72 0 72 84h57z" />
    <glyph glyph-name="ebreve" unicode="&#x115;" horiz-adv-x="618" 
d="M129 242q7 -82 65.5 -132.5t146.5 -50.5q101 0 160 66l49 -44q-40 -43 -93.5 -66.5t-119.5 -23.5q-82 0 -146.5 36t-101 99.5t-36.5 144.5q0 80 34.5 143.5t97.5 99.5t144 36q73 0 130 -33t89 -93t32 -137q0 -18 -4 -45h-447zM193.5 434q-53.5 -48 -63.5 -127h377
q-8 84 -55.5 129.5t-122.5 45.5q-82 0 -135.5 -48zM445 720q0 -59 -35 -94.5t-94 -35.5q-60 0 -95 35.5t-35 94.5h57q0 -84 73 -84q72 0 72 84h57z" />
    <glyph glyph-name="Edotaccent" unicode="&#x116;" horiz-adv-x="689" 
d="M174 324v-255h463v-69h-539v700h529v-69h-453v-238h400v-69h-400zM386 766h-79v106h79v-106z" />
    <glyph glyph-name="edotaccent" unicode="&#x117;" horiz-adv-x="618" 
d="M129 242q7 -82 65.5 -132.5t146.5 -50.5q101 0 160 66l49 -44q-40 -43 -93.5 -66.5t-119.5 -23.5q-82 0 -146.5 36t-101 99.5t-36.5 144.5q0 80 34.5 143.5t97.5 99.5t144 36q73 0 130 -33t89 -93t32 -137q0 -18 -4 -45h-447zM193.5 434q-53.5 -48 -63.5 -127h377
q-8 84 -55.5 129.5t-122.5 45.5q-82 0 -135.5 -48zM355 617h-79v110h79v-110z" />
    <glyph glyph-name="Eogonek" unicode="&#x118;" horiz-adv-x="689" 
d="M666 -180q-32 -7 -63 -7q-52 0 -80.5 21t-28.5 58q0 30 21 59t57 49h-474v700h529v-69h-453v-238h400v-69h-400v-255h463v-69q-37 -19 -57 -44t-20 -47q0 -24 17 -36.5t47 -12.5q19 0 38 4z" />
    <glyph glyph-name="eogonek" unicode="&#x119;" horiz-adv-x="618" 
d="M129 242q7 -82 65.5 -132.5t146.5 -50.5q101 0 160 66l49 -44q-31 -34 -71 -55q-35 -31 -35 -63q0 -24 17 -36.5t47 -12.5q19 0 38 4l4 -44q-32 -7 -63 -7q-52 0 -80.5 21t-28.5 58q0 26 15 50q-30 -5 -56 -5q-82 0 -146.5 36t-101 99.5t-36.5 144.5q0 80 34.5 143.5
t97.5 99.5t144 36q73 0 130 -33t89 -93t32 -137q0 -18 -4 -45h-447zM193.5 434q-53.5 -48 -63.5 -127h377q-8 84 -55.5 129.5t-122.5 45.5q-82 0 -135.5 -48z" />
    <glyph glyph-name="Ecaron" unicode="&#x11a;" horiz-adv-x="689" 
d="M174 324v-255h463v-69h-539v700h529v-69h-453v-238h400v-69h-400zM348 778l78 90l64 -5l-105 -115h-74l-105 115l64 5z" />
    <glyph glyph-name="ecaron" unicode="&#x11b;" horiz-adv-x="618" 
d="M129 242q7 -82 65.5 -132.5t146.5 -50.5q101 0 160 66l49 -44q-40 -43 -93.5 -66.5t-119.5 -23.5q-82 0 -146.5 36t-101 99.5t-36.5 144.5q0 80 34.5 143.5t97.5 99.5t144 36q73 0 130 -33t89 -93t32 -137q0 -18 -4 -45h-447zM193.5 434q-53.5 -48 -63.5 -127h377
q-8 84 -55.5 129.5t-122.5 45.5q-82 0 -135.5 -48zM316 625l72 104l59 -6l-97 -132h-69l-97 132l59 6z" />
    <glyph glyph-name="Gcircumflex" unicode="&#x11c;" horiz-adv-x="769" 
d="M243 36.5q-83 46.5 -130 128t-47 184.5t46.5 185.5t129 129t186.5 46.5q76 0 142 -26.5t118 -77.5l-50 -49q-87 82 -208 82q-81 0 -145.5 -36.5t-101 -102.5t-36.5 -151t36 -150t101.5 -101.5t149.5 -36.5q115 0 195 70v223h71v-257q-52 -51 -122 -79t-148 -28
q-104 0 -187 46.5zM478 881l105 -121l-64 -6l-78 96l-78 -96l-64 6l105 121h74z" />
    <glyph glyph-name="gcircumflex" unicode="&#x11d;" horiz-adv-x="615" 
d="M374 122q103 0 158 -36.5t55 -98.5q0 -76 -75.5 -121.5t-211.5 -45.5q-115 0 -180 37t-65 102q0 33 23 60t60 46q-26 13 -40.5 34.5t-14.5 47.5q0 33 18 57t48 36q-31 23 -47.5 57.5t-16.5 76.5q0 81 60 129t163 48q62 0 103 -19l140 35l17 -62l-91 -15q27 -19 41.5 -49
t14.5 -67q0 -83 -60 -131t-163 -48q-63 0 -114 19q-21 -9 -30 -20t-9 -26q0 -22 17 -34t45 -12h155zM198.5 456q-39.5 -29 -39.5 -81q0 -54 39.5 -84t110.5 -30t110.5 29.5t39.5 83.5q0 53 -39.5 82t-110.5 29t-110.5 -29zM458 -88.5q54 23.5 54 71.5q0 36 -40 53t-118 17
h-155h-4q-64 -37 -64 -83q0 -42 45 -62t128 -20q100 0 154 23.5zM352 730l97 -132l-59 -7l-72 105l-73 -105l-59 7l97 132h69z" />
    <glyph glyph-name="Gbreve" unicode="&#x11e;" horiz-adv-x="769" 
d="M243 36.5q-83 46.5 -130 128t-47 184.5t46.5 185.5t129 129t186.5 46.5q76 0 142 -26.5t118 -77.5l-50 -49q-87 82 -208 82q-81 0 -145.5 -36.5t-101 -102.5t-36.5 -151t36 -150t101.5 -101.5t149.5 -36.5q115 0 195 70v223h71v-257q-52 -51 -122 -79t-148 -28
q-104 0 -187 46.5zM567 876q0 -59 -35 -94.5t-94 -35.5q-60 0 -95 35.5t-35 94.5h57q0 -84 73 -84q72 0 72 84h57z" />
    <glyph glyph-name="gbreve" unicode="&#x11f;" horiz-adv-x="615" 
d="M374 122q103 0 158 -36.5t55 -98.5q0 -76 -75.5 -121.5t-211.5 -45.5q-115 0 -180 37t-65 102q0 33 23 60t60 46q-26 13 -40.5 34.5t-14.5 47.5q0 33 18 57t48 36q-31 23 -47.5 57.5t-16.5 76.5q0 81 60 129t163 48q62 0 103 -19l140 35l17 -62l-91 -15q27 -19 41.5 -49
t14.5 -67q0 -83 -60 -131t-163 -48q-63 0 -114 19q-21 -9 -30 -20t-9 -26q0 -22 17 -34t45 -12h155zM198.5 456q-39.5 -29 -39.5 -81q0 -54 39.5 -84t110.5 -30t110.5 29.5t39.5 83.5q0 53 -39.5 82t-110.5 29t-110.5 -29zM458 -88.5q54 23.5 54 71.5q0 36 -40 53t-118 17
h-155h-4q-64 -37 -64 -83q0 -42 45 -62t128 -20q100 0 154 23.5zM447 720q0 -59 -35 -94.5t-94 -35.5q-60 0 -95 35.5t-35 94.5h57q0 -84 73 -84q72 0 72 84h57z" />
    <glyph glyph-name="Gdotaccent" unicode="&#x120;" horiz-adv-x="769" 
d="M243 36.5q-83 46.5 -130 128t-47 184.5t46.5 185.5t129 129t186.5 46.5q76 0 142 -26.5t118 -77.5l-50 -49q-87 82 -208 82q-81 0 -145.5 -36.5t-101 -102.5t-36.5 -151t36 -150t101.5 -101.5t149.5 -36.5q115 0 195 70v223h71v-257q-52 -51 -122 -79t-148 -28
q-104 0 -187 46.5zM479 766h-79v106h79v-106z" />
    <glyph glyph-name="gdotaccent" unicode="&#x121;" horiz-adv-x="615" 
d="M374 122q103 0 158 -36.5t55 -98.5q0 -76 -75.5 -121.5t-211.5 -45.5q-115 0 -180 37t-65 102q0 33 23 60t60 46q-26 13 -40.5 34.5t-14.5 47.5q0 33 18 57t48 36q-31 23 -47.5 57.5t-16.5 76.5q0 81 60 129t163 48q62 0 103 -19l140 35l17 -62l-91 -15q27 -19 41.5 -49
t14.5 -67q0 -83 -60 -131t-163 -48q-63 0 -114 19q-21 -9 -30 -20t-9 -26q0 -22 17 -34t45 -12h155zM198.5 456q-39.5 -29 -39.5 -81q0 -54 39.5 -84t110.5 -30t110.5 29.5t39.5 83.5q0 53 -39.5 82t-110.5 29t-110.5 -29zM458 -88.5q54 23.5 54 71.5q0 36 -40 53t-118 17
h-155h-4q-64 -37 -64 -83q0 -42 45 -62t128 -20q100 0 154 23.5zM357 617h-79v110h79v-110z" />
    <glyph glyph-name="uni0122" unicode="&#x122;" horiz-adv-x="769" 
d="M243 36.5q-83 46.5 -130 128t-47 184.5t46.5 185.5t129 129t186.5 46.5q76 0 142 -26.5t118 -77.5l-50 -49q-87 82 -208 82q-81 0 -145.5 -36.5t-101 -102.5t-36.5 -151t36 -150t101.5 -101.5t149.5 -36.5q115 0 195 70v223h71v-257q-52 -51 -122 -79t-148 -28
q-104 0 -187 46.5zM343 -183q57 23 50 75h-45v75h95q7 -39 7 -60q0 -98 -92 -126z" />
    <glyph glyph-name="uni0123" unicode="&#x123;" horiz-adv-x="615" 
d="M374 122q103 0 158 -36.5t55 -98.5q0 -76 -75.5 -121.5t-211.5 -45.5q-115 0 -180 37t-65 102q0 33 23 60t60 46q-26 13 -40.5 34.5t-14.5 47.5q0 33 18 57t48 36q-31 23 -47.5 57.5t-16.5 76.5q0 81 60 129t163 48q62 0 103 -19l140 35l17 -62l-91 -15q27 -19 41.5 -49
t14.5 -67q0 -83 -60 -131t-163 -48q-63 0 -114 19q-21 -9 -30 -20t-9 -26q0 -22 17 -34t45 -12h155zM198.5 456q-39.5 -29 -39.5 -81q0 -54 39.5 -84t110.5 -30t110.5 29.5t39.5 83.5q0 53 -39.5 82t-110.5 29t-110.5 -29zM458 -88.5q54 23.5 54 71.5q0 36 -40 53t-118 17
h-155h-4q-64 -37 -64 -83q0 -42 45 -62t128 -20q100 0 154 23.5zM400 734q-57 -23 -50 -75h45v-75h-95q-7 39 -7 60q0 98 92 126z" />
    <glyph glyph-name="Hcircumflex" unicode="&#x124;" horiz-adv-x="782" 
d="M606 386v314h78v-700h-78v316h-430v-316h-78v700h78v-314h430zM429 881l105 -121l-64 -6l-78 96l-78 -96l-64 6l105 121h74z" />
    <glyph glyph-name="hcircumflex" unicode="&#x125;" horiz-adv-x="661" 
d="M528 488q59 -62 59 -169v-319h-75v309q0 81 -41.5 126.5t-116.5 45.5q-52 0 -95.5 -26t-69 -72t-25.5 -103v-280h-74v738h74v-294q32 48 85.5 77t121.5 29q98 0 157 -62zM371 919l105 -121l-64 -6l-78 96l-78 -96l-64 6l105 121h74z" />
    <glyph glyph-name="Hbar" unicode="&#x126;" horiz-adv-x="782" 
d="M684 568h46v-57h-46v-511h-78v316h-430v-316h-78v511h-40v57h40v132h78v-132h430v132h78v-132zM176 386h430v125h-430v-125z" />
    <glyph glyph-name="hbar" unicode="&#x127;" horiz-adv-x="661" 
d="M528 488q59 -62 59 -169v-319h-75v309q0 81 -41.5 126.5t-116.5 45.5q-52 0 -95.5 -26t-69 -72t-25.5 -103v-280h-74v597h-81v52h81v89h74v-89h161v-52h-161v-153q32 48 85.5 77t121.5 29q98 0 157 -62z" />
    <glyph glyph-name="Itilde" unicode="&#x128;" horiz-adv-x="273" 
d="M175 0h-77v700h77v-700zM-29 763q0 41 23.5 66.5t59.5 25.5q19 0 35.5 -6.5t40.5 -20.5q19 -11 31.5 -16.5t25.5 -5.5q22 0 36 15t14 39l39 -10q0 -41 -23 -66.5t-59 -25.5q-19 0 -35.5 6.5t-40.5 20.5q-20 11 -32 16.5t-25 5.5q-22 0 -36 -15t-14 -39z" />
    <glyph glyph-name="itilde" unicode="&#x129;" horiz-adv-x="242" 
d="M158 0h-74v541h74v-541zM-32 617q0 41 23.5 66.5t59.5 25.5q19 0 35.5 -6.5t40.5 -20.5q19 -11 31.5 -16.5t25.5 -5.5q22 0 36 15t14 39l39 -10q0 -41 -23 -66.5t-59 -25.5q-19 0 -35.5 6.5t-40.5 20.5q-20 11 -32 16.5t-25 5.5q-22 0 -36 -15t-14 -39z" />
    <glyph glyph-name="Imacron" unicode="&#x12a;" horiz-adv-x="273" 
d="M175 0h-77v700h77v-700zM275 784h-282l1 49h281v-49z" />
    <glyph glyph-name="imacron" unicode="&#x12b;" horiz-adv-x="242" 
d="M158 0h-74v541h74v-541zM274 641h-282l1 49h281v-49z" />
    <glyph glyph-name="Ibreve" unicode="&#x12c;" horiz-adv-x="273" 
d="M175 0h-77v700h77v-700zM264 876q0 -59 -35 -94.5t-94 -35.5q-60 0 -95 35.5t-35 94.5h57q0 -84 73 -84q72 0 72 84h57z" />
    <glyph glyph-name="ibreve" unicode="&#x12d;" horiz-adv-x="242" 
d="M158 0h-74v541h74v-541zM250 720q0 -59 -35 -94.5t-94 -35.5q-60 0 -95 35.5t-35 94.5h57q0 -84 73 -84q72 0 72 84h57z" />
    <glyph glyph-name="Iogonek" unicode="&#x12e;" horiz-adv-x="273" 
d="M196 -180q-32 -7 -63 -7q-52 0 -80.5 21t-28.5 58q0 30 21 59t57 49h-4v700h77v-700h-8q-37 -19 -57 -44t-20 -47q0 -24 17 -36.5t47 -12.5q19 0 38 4z" />
    <glyph glyph-name="iogonek" unicode="&#x12f;" horiz-adv-x="242" 
d="M82 727h79v-110h-79v110zM187 -180q-32 -7 -63 -7q-52 0 -80.5 21t-28.5 58q0 30 21 59t57 49h-9v541h74v-541q-37 -19 -57 -44t-20 -47q0 -24 17 -36.5t47 -12.5q19 0 38 4z" />
    <glyph glyph-name="Idotaccent" unicode="&#x130;" horiz-adv-x="273" 
d="M175 0h-77v700h77v-700zM176 766h-79v106h79v-106z" />
    <glyph glyph-name="dotlessi" unicode="&#x131;" horiz-adv-x="242" 
d="M158 0h-74v541h74v-541z" />
    <glyph glyph-name="IJ" unicode="&#x132;" horiz-adv-x="838" 
d="M175 0h-77v700h77v-700zM388 24q-62 34 -96 92l51 46q30 -46 76 -73t101 -27q76 0 121.5 50.5t45.5 134.5v384h-256v69h331v-453q0 -77 -29.5 -135t-83.5 -90t-126 -32q-73 0 -135 34z" />
    <glyph glyph-name="ij" unicode="&#x133;" horiz-adv-x="497" 
d="M158 0h-74v541h74v-541zM161 617h-79v110h79v-110zM198 -92q23 -14 54 -14q39 0 62.5 22t23.5 63v562h75v-568q0 -71 -42.5 -109t-110.5 -38q-42 0 -84 21zM415 617h-79v110h79v-110z" />
    <glyph glyph-name="Jcircumflex" unicode="&#x134;" horiz-adv-x="565" 
d="M115 24q-62 34 -96 92l51 46q30 -46 76 -73t101 -27q76 0 121.5 50.5t45.5 134.5v384h-256v69h331v-453q0 -77 -29.5 -135t-83.5 -90t-126 -32q-73 0 -135 34zM357 881l105 -121l-64 -6l-78 96l-78 -96l-64 6l105 121h74z" />
    <glyph glyph-name="jcircumflex" unicode="&#x135;" horiz-adv-x="255" 
d="M-44 -92q23 -14 54 -14q39 0 62.5 22t23.5 63v562h75v-568q0 -71 -42.5 -109t-110.5 -38q-42 0 -84 21zM168 730l97 -132l-59 -7l-72 105l-73 -105l-59 7l97 132h69z" />
    <glyph glyph-name="uni0136" unicode="&#x136;" horiz-adv-x="723" 
d="M694 0h-91l-250 350l-178 -193v-157h-77v700h77v-445l404 445h97l-270 -293zM301 -183q57 23 50 75h-45v75h95q7 -39 7 -60q0 -98 -92 -126z" />
    <glyph glyph-name="uni0137" unicode="&#x137;" horiz-adv-x="630" 
d="M610 0h-90l-228 264l-128 -126v-138h-74v738h74v-510l311 313h99l-233 -229zM259 -183q57 23 50 75h-45v75h95q7 -39 7 -60q0 -98 -92 -126z" />
    <glyph glyph-name="kgreenlandic" unicode="&#x138;" horiz-adv-x="639" 
d="M610 0h-90l-228 264l-128 -126v-138h-74v541h74v-313l311 313h99l-233 -229z" />
    <glyph glyph-name="Lacute" unicode="&#x139;" horiz-adv-x="610" 
d="M586 0h-488v700h77v-631h411v-69zM424 848l-94 -101l-52 5l80 113z" />
    <glyph glyph-name="lacute" unicode="&#x13a;" horiz-adv-x="254" 
d="M164 0h-74v738h74v-738zM269 917l-116 -127l-52 7l96 137z" />
    <glyph glyph-name="uni013B" unicode="&#x13b;" horiz-adv-x="610" 
d="M586 0h-488v700h77v-631h411v-69zM247 -183q57 23 50 75h-45v75h95q7 -39 7 -60q0 -98 -92 -126z" />
    <glyph glyph-name="uni013C" unicode="&#x13c;" horiz-adv-x="254" 
d="M164 0h-74v738h74v-738zM73 -183q57 23 50 75h-45v75h95q7 -39 7 -60q0 -98 -92 -126z" />
    <glyph glyph-name="Lcaron" unicode="&#x13d;" horiz-adv-x="610" 
d="M586 0h-488v700h77v-631h411v-69zM457 492v208h59l-18 -208h-41z" />
    <glyph glyph-name="lcaron" unicode="&#x13e;" horiz-adv-x="291" 
d="M164 0h-74v738h74v-738zM232 530v208h59l-18 -208h-41z" />
    <glyph glyph-name="Ldot" unicode="&#x13f;" horiz-adv-x="610" 
d="M586 0h-488v700h77v-631h411v-69zM348 318v83h92v-83h-92z" />
    <glyph glyph-name="ldot" unicode="&#x140;" horiz-adv-x="310" 
d="M164 0h-74v738h74v-738zM239 335v77h86v-77h-86z" />
    <glyph glyph-name="Lslash" unicode="&#x141;" horiz-adv-x="610" 
d="M175 343v-274h411v-69h-488v301l-64 -34l-23 46l87 46v341h77v-300l69 37l23 -45z" />
    <glyph glyph-name="lslash" unicode="&#x142;" horiz-adv-x="254" 
d="M231 456l23 -45l-90 -48v-363h-74v323l-69 -37l-23 46l92 49v357h74v-318z" />
    <glyph glyph-name="Nacute" unicode="&#x143;" horiz-adv-x="793" 
d="M175 0h-77v700h67l453 -565v565h78v-700h-65l-456 568v-568zM519 848l-94 -101l-52 5l80 113z" />
    <glyph glyph-name="nacute" unicode="&#x144;" horiz-adv-x="655" 
d="M522 488q59 -62 59 -169v-319h-75v309q0 81 -41.5 126.5t-116.5 45.5q-52 0 -95.5 -26t-69 -72t-25.5 -103v-280h-74v541h74v-97q32 48 85.5 77t121.5 29q98 0 157 -62zM470 720l-116 -127l-52 7l96 137z" />
    <glyph glyph-name="uni0145" unicode="&#x145;" horiz-adv-x="793" 
d="M175 0h-77v700h67l453 -565v565h78v-700h-65l-456 568v-568zM343 -183q57 23 50 75h-45v75h95q7 -39 7 -60q0 -98 -92 -126z" />
    <glyph glyph-name="uni0146" unicode="&#x146;" horiz-adv-x="655" 
d="M522 488q59 -62 59 -169v-319h-75v309q0 81 -41.5 126.5t-116.5 45.5q-52 0 -95.5 -26t-69 -72t-25.5 -103v-280h-74v541h74v-97q32 48 85.5 77t121.5 29q98 0 157 -62zM274 -183q57 23 50 75h-45v75h95q7 -39 7 -60q0 -98 -92 -126z" />
    <glyph glyph-name="Ncaron" unicode="&#x147;" horiz-adv-x="793" 
d="M175 0h-77v700h67l453 -565v565h78v-700h-65l-456 568v-568zM398 778l78 90l64 -5l-105 -115h-74l-105 115l64 5z" />
    <glyph glyph-name="ncaron" unicode="&#x148;" horiz-adv-x="655" 
d="M522 488q59 -62 59 -169v-319h-75v309q0 81 -41.5 126.5t-116.5 45.5q-52 0 -95.5 -26t-69 -72t-25.5 -103v-280h-74v541h74v-97q32 48 85.5 77t121.5 29q98 0 157 -62zM328 625l72 104l59 -6l-97 -132h-69l-97 132l59 6z" />
    <glyph glyph-name="Eng" unicode="&#x14a;" horiz-adv-x="785" 
d="M696 700v-700h-2v-31q0 -74 -40.5 -110.5t-108.5 -36.5q-23 0 -47 6.5t-43 17.5l19 57q26 -16 59 -16q37 0 61.5 22.5t24.5 65.5v40l-444 553v-568h-77v700h67l453 -565v565h78z" />
    <glyph glyph-name="eng" unicode="&#x14b;" horiz-adv-x="655" 
d="M522 488q59 -62 59 -169v-350q0 -74 -40 -110.5t-108 -36.5q-47 0 -89 24l19 57q26 -16 58 -16q37 0 61 22.5t24 65.5v334q0 81 -41.5 126.5t-116.5 45.5q-52 0 -95.5 -26t-69 -72t-25.5 -103v-280h-74v541h74v-97q32 48 85.5 77t121.5 29q98 0 157 -62z" />
    <glyph glyph-name="Omacron" unicode="&#x14c;" horiz-adv-x="858" 
d="M242.5 36.5q-82.5 46.5 -129.5 128.5t-47 185t47 185t129.5 128.5t186.5 46.5t186.5 -46.5t129.5 -128.5t47 -185t-47 -185t-130 -128.5t-187 -46.5q-103 0 -185.5 46.5zM574 98.5q64 36.5 100 102t36 149.5t-36 150t-100 102.5t-145 36.5t-145 -36.5t-100 -102.5
t-36 -150t36 -149.5t100 -102t145 -36.5t145 36.5zM568 784h-282l1 49h281v-49z" />
    <glyph glyph-name="omacron" unicode="&#x14d;" 
d="M190.5 26q-64.5 36 -101 100t-36.5 145q0 80 36.5 143.5t101.5 99.5t146 36q82 0 147 -36t101.5 -99t36.5 -143q0 -81 -36.5 -145t-101.5 -100.5t-147 -36.5t-146.5 36zM445.5 86q47.5 27 74.5 75t27 110t-27 110t-75 74.5t-108 26.5t-107.5 -26.5t-74.5 -74.5t-27 -110
t27 -110t75 -75t108 -27t107.5 27zM491 641h-282l1 49h281v-49z" />
    <glyph glyph-name="Obreve" unicode="&#x14e;" horiz-adv-x="858" 
d="M242.5 36.5q-82.5 46.5 -129.5 128.5t-47 185t47 185t129.5 128.5t186.5 46.5t186.5 -46.5t129.5 -128.5t47 -185t-47 -185t-130 -128.5t-187 -46.5q-103 0 -185.5 46.5zM574 98.5q64 36.5 100 102t36 149.5t-36 150t-100 102.5t-145 36.5t-145 -36.5t-100 -102.5
t-36 -150t36 -149.5t100 -102t145 -36.5t145 36.5zM557 876q0 -59 -35 -94.5t-94 -35.5q-60 0 -95 35.5t-35 94.5h57q0 -84 73 -84q72 0 72 84h57z" />
    <glyph glyph-name="obreve" unicode="&#x14f;" 
d="M190.5 26q-64.5 36 -101 100t-36.5 145q0 80 36.5 143.5t101.5 99.5t146 36q82 0 147 -36t101.5 -99t36.5 -143q0 -81 -36.5 -145t-101.5 -100.5t-147 -36.5t-146.5 36zM445.5 86q47.5 27 74.5 75t27 110t-27 110t-75 74.5t-108 26.5t-107.5 -26.5t-74.5 -74.5t-27 -110
t27 -110t75 -75t108 -27t107.5 27zM467 720q0 -59 -35 -94.5t-94 -35.5q-60 0 -95 35.5t-35 94.5h57q0 -84 73 -84q72 0 72 84h57z" />
    <glyph glyph-name="Ohungarumlaut" unicode="&#x150;" horiz-adv-x="858" 
d="M242.5 36.5q-82.5 46.5 -129.5 128.5t-47 185t47 185t129.5 128.5t186.5 46.5t186.5 -46.5t129.5 -128.5t47 -185t-47 -185t-130 -128.5t-187 -46.5q-103 0 -185.5 46.5zM574 98.5q64 36.5 100 102t36 149.5t-36 150t-100 102.5t-145 36.5t-145 -36.5t-100 -102.5
t-36 -150t36 -149.5t100 -102t145 -36.5t145 36.5zM423 848l-88 -101l-51 5l73 113zM582 848l-88 -101l-51 5l73 113z" />
    <glyph glyph-name="ohungarumlaut" unicode="&#x151;" 
d="M190.5 26q-64.5 36 -101 100t-36.5 145q0 80 36.5 143.5t101.5 99.5t146 36q82 0 147 -36t101.5 -99t36.5 -143q0 -81 -36.5 -145t-101.5 -100.5t-147 -36.5t-146.5 36zM445.5 86q47.5 27 74.5 75t27 110t-27 110t-75 74.5t-108 26.5t-107.5 -26.5t-74.5 -74.5t-27 -110
t27 -110t75 -75t108 -27t107.5 27zM322 718l-108 -127l-52 7l89 137zM481 718l-108 -127l-52 7l89 137z" />
    <glyph glyph-name="OE" unicode="&#x152;" horiz-adv-x="1234" 
d="M719 69h463v-69h-539v57q-90 -67 -215 -67q-101 0 -184 47.5t-130.5 129.5t-47.5 183t47 183t129.5 129.5t183.5 47.5q126 0 217 -66v56h529v-69h-453v-238h400v-69h-400v-255zM643 150v405l-2 -2q-42 42 -93.5 64t-119.5 22q-79 0 -143.5 -38t-101 -104t-36.5 -146
q0 -83 37 -149t101.5 -103.5t142.5 -37.5q128 0 215 89z" />
    <glyph glyph-name="oe" unicode="&#x153;" horiz-adv-x="1114" 
d="M625 242q7 -82 65.5 -132.5t146.5 -50.5q101 0 160 66l49 -44q-40 -43 -93.5 -66.5t-119.5 -23.5q-82 0 -147 36t-101 100q-36 -64 -101 -100.5t-147 -36.5t-146.5 36t-101 100t-36.5 145q0 80 36.5 143.5t101.5 99.5t146 36t146 -36t102 -98q34 63 97 98.5t143 35.5
q73 0 130 -33t89 -93t32 -137q0 -18 -4 -45h-447zM445.5 86q47.5 27 74.5 75t27 110t-27 110t-75 74.5t-108 26.5t-107.5 -26.5t-74.5 -74.5t-27 -110t27 -110t75 -75t108 -27t107.5 27zM689.5 434q-53.5 -48 -63.5 -127h377q-8 84 -55.5 129.5t-122.5 45.5
q-82 0 -135.5 -48z" />
    <glyph glyph-name="Racute" unicode="&#x154;" horiz-adv-x="704" 
d="M562 0l-229 255h-158v-255h-77v700h271q137 0 211.5 -58t74.5 -165q0 -94 -58.5 -150t-167.5 -69l231 -258h-98zM175 631v-307h191q212 0 212 152q0 77 -54 116t-157 39h-192zM482 848l-94 -101l-52 5l80 113z" />
    <glyph glyph-name="racute" unicode="&#x155;" horiz-adv-x="400" 
d="M380 542l-3 -77q-24 7 -50 7q-52 0 -90.5 -30t-58.5 -81.5t-20 -113.5v-247h-74v541h74v-102q27 52 72 80t99 28q24 0 51 -5zM332 720l-116 -127l-52 7l96 137z" />
    <glyph glyph-name="uni0156" unicode="&#x156;" horiz-adv-x="704" 
d="M562 0l-229 255h-158v-255h-77v700h271q137 0 211.5 -58t74.5 -165q0 -94 -58.5 -150t-167.5 -69l231 -258h-98zM175 631v-307h191q212 0 212 152q0 77 -54 116t-157 39h-192zM306 -183q57 23 50 75h-45v75h95q7 -39 7 -60q0 -98 -92 -126z" />
    <glyph glyph-name="uni0157" unicode="&#x157;" horiz-adv-x="400" 
d="M380 542l-3 -77q-24 7 -50 7q-52 0 -90.5 -30t-58.5 -81.5t-20 -113.5v-247h-74v541h74v-102q27 52 72 80t99 28q24 0 51 -5zM136 -183q57 23 50 75h-45v75h95q7 -39 7 -60q0 -98 -92 -126z" />
    <glyph glyph-name="Rcaron" unicode="&#x158;" horiz-adv-x="704" 
d="M562 0l-229 255h-158v-255h-77v700h271q137 0 211.5 -58t74.5 -165q0 -94 -58.5 -150t-167.5 -69l231 -258h-98zM175 631v-307h191q212 0 212 152q0 77 -54 116t-157 39h-192zM361 778l78 90l64 -5l-105 -115h-74l-105 115l64 5z" />
    <glyph glyph-name="rcaron" unicode="&#x159;" horiz-adv-x="400" 
d="M380 542l-3 -77q-24 7 -50 7q-52 0 -90.5 -30t-58.5 -81.5t-20 -113.5v-247h-74v541h74v-102q27 52 72 80t99 28q24 0 51 -5zM190 625l72 104l59 -6l-97 -132h-69l-97 132l59 6z" />
    <glyph glyph-name="Sacute" unicode="&#x15a;" horiz-adv-x="635" 
d="M173 18q-72 28 -125 76l37 59q52 -43 115 -67t130 -24q82 0 127.5 33.5t45.5 86.5q0 38 -20 62t-59.5 39.5t-108.5 30.5q-126 28 -186 74t-60 130q0 59 33 102.5t90 66.5t129 23q131 0 238 -79l-42 -57q-42 30 -94.5 47.5t-106.5 17.5q-77 0 -121.5 -33t-44.5 -89
q0 -36 19 -60t59 -41t109 -33q89 -19 141.5 -42t79 -60t26.5 -95q0 -59 -33 -103.5t-91.5 -68.5t-134.5 -24q-80 0 -152 28zM440 848l-94 -101l-52 5l80 113z" />
    <glyph glyph-name="sacute" unicode="&#x15b;" horiz-adv-x="526" 
d="M140.5 11q-60.5 20 -103.5 51l32 62q45 -31 96 -47.5t102 -16.5q67 0 104.5 22.5t37.5 65.5q0 38 -33.5 58t-119.5 36q-76 14 -120 34.5t-62.5 49.5t-18.5 71q0 71 53 111.5t147 40.5q55 0 114 -15.5t95 -41.5l-31 -63q-35 24 -84 37.5t-99 13.5q-56 0 -87.5 -20
t-31.5 -57q0 -34 31 -54t115 -36q79 -16 124 -38t64 -52t19 -73q0 -75 -59.5 -117t-161.5 -42q-62 0 -122.5 20zM408 720l-116 -127l-52 7l96 137z" />
    <glyph glyph-name="Scircumflex" unicode="&#x15c;" horiz-adv-x="635" 
d="M173 18q-72 28 -125 76l37 59q52 -43 115 -67t130 -24q82 0 127.5 33.5t45.5 86.5q0 38 -20 62t-59.5 39.5t-108.5 30.5q-126 28 -186 74t-60 130q0 59 33 102.5t90 66.5t129 23q131 0 238 -79l-42 -57q-42 30 -94.5 47.5t-106.5 17.5q-77 0 -121.5 -33t-44.5 -89
q0 -36 19 -60t59 -41t109 -33q89 -19 141.5 -42t79 -60t26.5 -95q0 -59 -33 -103.5t-91.5 -68.5t-134.5 -24q-80 0 -152 28zM356 881l105 -121l-64 -6l-78 96l-78 -96l-64 6l105 121h74z" />
    <glyph glyph-name="scircumflex" unicode="&#x15d;" horiz-adv-x="526" 
d="M140.5 11q-60.5 20 -103.5 51l32 62q45 -31 96 -47.5t102 -16.5q67 0 104.5 22.5t37.5 65.5q0 38 -33.5 58t-119.5 36q-76 14 -120 34.5t-62.5 49.5t-18.5 71q0 71 53 111.5t147 40.5q55 0 114 -15.5t95 -41.5l-31 -63q-35 24 -84 37.5t-99 13.5q-56 0 -87.5 -20
t-31.5 -57q0 -34 31 -54t115 -36q79 -16 124 -38t64 -52t19 -73q0 -75 -59.5 -117t-161.5 -42q-62 0 -122.5 20zM300 730l97 -132l-59 -7l-72 105l-73 -105l-59 7l97 132h69z" />
    <glyph glyph-name="Scedilla" unicode="&#x15e;" horiz-adv-x="635" 
d="M554 86q-30 -43 -84.5 -68t-125.5 -28l-9 -29q34 -5 53.5 -23t19.5 -44q0 -31 -27 -50.5t-78 -19.5q-32 0 -62 7l10 43q21 -7 46 -7q23 0 35 9.5t12 23.5q0 17 -17 28t-50 12l15 51q-71 6 -134 33t-110 70l37 59q52 -43 115 -67t130 -24q82 0 127.5 33.5t45.5 86.5
q0 38 -20 62t-59.5 39.5t-108.5 30.5q-126 28 -186 74t-60 130q0 59 33 102.5t90 66.5t129 23q131 0 238 -79l-42 -57q-42 30 -94.5 47.5t-106.5 17.5q-77 0 -121.5 -33t-44.5 -89q0 -36 19 -60t59 -41t109 -33q89 -19 141.5 -42t79 -60t26.5 -95q0 -57 -30 -100z" />
    <glyph glyph-name="scedilla" unicode="&#x15f;" horiz-adv-x="526" 
d="M432.5 39q-51.5 -41 -141.5 -47l-9 -31q34 -5 53.5 -23t19.5 -44q0 -31 -27 -50.5t-78 -19.5q-32 0 -62 7l10 43q21 -7 46 -7q23 0 35 9.5t12 23.5q0 17 -17 28t-50 12l15 52q-56 4 -109.5 23t-92.5 47l32 62q45 -31 96 -47.5t102 -16.5q67 0 104.5 22.5t37.5 65.5
q0 38 -33.5 58t-119.5 36q-76 14 -120 34.5t-62.5 49.5t-18.5 71q0 71 53 111.5t147 40.5q55 0 114 -15.5t95 -41.5l-31 -63q-35 24 -84 37.5t-99 13.5q-56 0 -87.5 -20t-31.5 -57q0 -34 31 -54t115 -36q79 -16 124 -38t64 -52t19 -73q0 -70 -51.5 -111z" />
    <glyph glyph-name="Scaron" unicode="&#x160;" horiz-adv-x="635" 
d="M173 18q-72 28 -125 76l37 59q52 -43 115 -67t130 -24q82 0 127.5 33.5t45.5 86.5q0 38 -20 62t-59.5 39.5t-108.5 30.5q-126 28 -186 74t-60 130q0 59 33 102.5t90 66.5t129 23q131 0 238 -79l-42 -57q-42 30 -94.5 47.5t-106.5 17.5q-77 0 -121.5 -33t-44.5 -89
q0 -36 19 -60t59 -41t109 -33q89 -19 141.5 -42t79 -60t26.5 -95q0 -59 -33 -103.5t-91.5 -68.5t-134.5 -24q-80 0 -152 28zM319 778l78 90l64 -5l-105 -115h-74l-105 115l64 5z" />
    <glyph glyph-name="scaron" unicode="&#x161;" horiz-adv-x="526" 
d="M140.5 11q-60.5 20 -103.5 51l32 62q45 -31 96 -47.5t102 -16.5q67 0 104.5 22.5t37.5 65.5q0 38 -33.5 58t-119.5 36q-76 14 -120 34.5t-62.5 49.5t-18.5 71q0 71 53 111.5t147 40.5q55 0 114 -15.5t95 -41.5l-31 -63q-35 24 -84 37.5t-99 13.5q-56 0 -87.5 -20
t-31.5 -57q0 -34 31 -54t115 -36q79 -16 124 -38t64 -52t19 -73q0 -75 -59.5 -117t-161.5 -42q-62 0 -122.5 20zM266 625l72 104l59 -6l-97 -132h-69l-97 132l59 6z" />
    <glyph glyph-name="uni0162" unicode="&#x162;" horiz-adv-x="622" 
d="M349 0h-9l-12 -39q34 -5 53.5 -23t19.5 -44q0 -31 -27 -50.5t-78 -19.5q-32 0 -62 7l10 43q21 -7 46 -7q23 0 35 9.5t12 23.5q0 17 -17 28t-50 12l18 60h-17v631h-242v69h563v-69h-243v-631z" />
    <glyph glyph-name="uni0163" unicode="&#x163;" horiz-adv-x="480" 
d="M319 -41q34 -5 53.5 -23t19.5 -44q0 -31 -27 -50.5t-78 -19.5q-32 0 -62 7l10 43q21 -7 46 -7q23 0 35 9.5t12 23.5q0 17 -17 28t-50 12l16 54q-61 8 -95.5 49.5t-34.5 108.5v322h-108v69h109l6 146h68v-146h195v-69h-195v-309q0 -48 27 -76.5t71 -28.5q24 0 54 6.5
t50 17.5l15 -59q-20 -13 -50.5 -21.5t-60.5 -10.5z" />
    <glyph glyph-name="Tcaron" unicode="&#x164;" horiz-adv-x="622" 
d="M29 700h563v-69h-243v-631h-78v631h-242v69zM312 778l78 90l64 -5l-105 -115h-74l-105 115l64 5z" />
    <glyph glyph-name="tcaron" unicode="&#x165;" horiz-adv-x="480" 
d="M439 23q-24 -15 -62 -24t-70 -9q-73 0 -116.5 42.5t-43.5 117.5v322h-108v69h109l6 146h68v-146h195v-69h-195v-309q0 -48 27 -76.5t71 -28.5q24 0 54 6.5t50 17.5zM326 600v208h59l-18 -208h-41z" />
    <glyph glyph-name="Tbar" unicode="&#x166;" horiz-adv-x="622" 
d="M592 700v-69h-243v-250h149v-57h-149v-324h-78v324h-144v57h144v250h-242v69h563z" />
    <glyph glyph-name="tbar" unicode="&#x167;" horiz-adv-x="480" 
d="M439 23q-24 -15 -62 -24t-70 -9q-73 0 -116.5 42.5t-43.5 117.5v145h-89v52h89v125h-108v69h109l6 146h68v-146h195v-69h-195v-125h152v-52h-152v-132q0 -48 27 -76.5t71 -28.5q24 0 54 6.5t50 17.5z" />
    <glyph glyph-name="Utilde" unicode="&#x168;" horiz-adv-x="740" 
d="M214 26.5q-66 35.5 -102 102.5t-36 159v412h78v-398q0 -109 57.5 -169.5t158.5 -60.5t159 60.5t58 169.5v398h77v-412q0 -92 -35.5 -159t-102 -102.5t-156.5 -35.5t-156 35.5zM206 763q0 41 23.5 66.5t59.5 25.5q19 0 35.5 -6.5t40.5 -20.5q19 -11 31.5 -16.5t25.5 -5.5
q22 0 36 15t14 39l39 -10q0 -41 -23 -66.5t-59 -25.5q-19 0 -35.5 6.5t-40.5 20.5q-20 11 -32 16.5t-25 5.5q-22 0 -36 -15t-14 -39z" />
    <glyph glyph-name="utilde" unicode="&#x169;" horiz-adv-x="655" 
d="M497 541h74v-541h-74v97q-32 -48 -85.5 -77t-121.5 -29q-98 0 -157 62t-59 169v319h75v-309q0 -81 41.5 -126.5t116.5 -45.5q52 0 95.5 26t69 72t25.5 103v280zM167 617q0 41 23.5 66.5t59.5 25.5q19 0 35.5 -6.5t40.5 -20.5q19 -11 31.5 -16.5t25.5 -5.5q22 0 36 15
t14 39l39 -10q0 -41 -23 -66.5t-59 -25.5q-19 0 -35.5 6.5t-40.5 20.5q-20 11 -32 16.5t-25 5.5q-22 0 -36 -15t-14 -39z" />
    <glyph glyph-name="Umacron" unicode="&#x16a;" horiz-adv-x="740" 
d="M214 26.5q-66 35.5 -102 102.5t-36 159v412h78v-398q0 -109 57.5 -169.5t158.5 -60.5t159 60.5t58 169.5v398h77v-412q0 -92 -35.5 -159t-102 -102.5t-156.5 -35.5t-156 35.5zM510 784h-282l1 49h281v-49z" />
    <glyph glyph-name="umacron" unicode="&#x16b;" horiz-adv-x="655" 
d="M497 541h74v-541h-74v97q-32 -48 -85.5 -77t-121.5 -29q-98 0 -157 62t-59 169v319h75v-309q0 -81 41.5 -126.5t116.5 -45.5q52 0 95.5 26t69 72t25.5 103v280zM473 641h-282l1 49h281v-49z" />
    <glyph glyph-name="Ubreve" unicode="&#x16c;" horiz-adv-x="740" 
d="M214 26.5q-66 35.5 -102 102.5t-36 159v412h78v-398q0 -109 57.5 -169.5t158.5 -60.5t159 60.5t58 169.5v398h77v-412q0 -92 -35.5 -159t-102 -102.5t-156.5 -35.5t-156 35.5zM499 876q0 -59 -35 -94.5t-94 -35.5q-60 0 -95 35.5t-35 94.5h57q0 -84 73 -84q72 0 72 84h57
z" />
    <glyph glyph-name="ubreve" unicode="&#x16d;" horiz-adv-x="655" 
d="M497 541h74v-541h-74v97q-32 -48 -85.5 -77t-121.5 -29q-98 0 -157 62t-59 169v319h75v-309q0 -81 41.5 -126.5t116.5 -45.5q52 0 95.5 26t69 72t25.5 103v280zM449 720q0 -59 -35 -94.5t-94 -35.5q-60 0 -95 35.5t-35 94.5h57q0 -84 73 -84q72 0 72 84h57z" />
    <glyph glyph-name="Uring" unicode="&#x16e;" horiz-adv-x="740" 
d="M214 26.5q-66 35.5 -102 102.5t-36 159v412h78v-398q0 -109 57.5 -169.5t158.5 -60.5t159 60.5t58 169.5v398h77v-412q0 -92 -35.5 -159t-102 -102.5t-156.5 -35.5t-156 35.5zM293 776q-34 32 -34 80q0 49 34 81t86 32q51 0 85 -32t34 -81q0 -48 -34 -80t-85 -32
q-52 0 -86 32zM428 807.5q20 19.5 20 48.5q0 30 -20 49.5t-49 19.5q-30 0 -50 -19.5t-20 -49.5q0 -29 20 -48.5t50 -19.5q29 0 49 19.5z" />
    <glyph glyph-name="uring" unicode="&#x16f;" horiz-adv-x="655" 
d="M497 541h74v-541h-74v97q-32 -48 -85.5 -77t-121.5 -29q-98 0 -157 62t-59 169v319h75v-309q0 -81 41.5 -126.5t116.5 -45.5q52 0 95.5 26t69 72t25.5 103v280zM259 619q-34 32 -34 80q0 49 34 81t86 32q51 0 85 -32t34 -81q0 -48 -34 -80t-85 -32q-52 0 -86 32z
M394 650.5q20 19.5 20 48.5q0 30 -20 49.5t-49 19.5q-30 0 -50 -19.5t-20 -49.5q0 -29 20 -48.5t50 -19.5q29 0 49 19.5z" />
    <glyph glyph-name="Uhungarumlaut" unicode="&#x170;" horiz-adv-x="740" 
d="M214 26.5q-66 35.5 -102 102.5t-36 159v412h78v-398q0 -109 57.5 -169.5t158.5 -60.5t159 60.5t58 169.5v398h77v-412q0 -92 -35.5 -159t-102 -102.5t-156.5 -35.5t-156 35.5zM365 848l-88 -101l-51 5l73 113zM524 848l-88 -101l-51 5l73 113z" />
    <glyph glyph-name="uhungarumlaut" unicode="&#x171;" horiz-adv-x="655" 
d="M497 541h74v-541h-74v97q-32 -48 -85.5 -77t-121.5 -29q-98 0 -157 62t-59 169v319h75v-309q0 -81 41.5 -126.5t116.5 -45.5q52 0 95.5 26t69 72t25.5 103v280zM304 718l-108 -127l-52 7l89 137zM463 718l-108 -127l-52 7l89 137z" />
    <glyph glyph-name="Uogonek" unicode="&#x172;" horiz-adv-x="740" 
d="M587 700h77v-412q0 -93 -37.5 -161t-105.5 -103q-28 -19 -43 -40t-15 -40q0 -24 17 -36.5t47 -12.5q19 0 38 4l4 -44q-32 -7 -63 -7q-52 0 -80.5 21t-28.5 58q0 35 28 68q-23 -4 -55 -4q-90 0 -156 35.5t-102 102.5t-36 159v412h78v-398q0 -109 57.5 -169.5t158.5 -60.5
t159 60.5t58 169.5v398z" />
    <glyph glyph-name="uogonek" unicode="&#x173;" horiz-adv-x="655" 
d="M594 -180q-32 -7 -63 -7q-52 0 -80.5 21t-28.5 58q0 30 21 59t57 49h-3v97q-32 -48 -85.5 -77t-121.5 -29q-98 0 -157 62t-59 169v319h75v-309q0 -81 41.5 -126.5t116.5 -45.5q52 0 95.5 26t69 72t25.5 103v280h74v-541h-6q-37 -19 -57 -44t-20 -47q0 -24 17 -36.5
t47 -12.5q19 0 38 4z" />
    <glyph glyph-name="Wcircumflex" unicode="&#x174;" horiz-adv-x="1055" 
d="M762 96l189 604h82l-225 -700h-85l-195 570l-194 -570h-86l-226 700h82l191 -604l198 604h69zM567 881l105 -121l-64 -6l-78 96l-78 -96l-64 6l105 121h74z" />
    <glyph glyph-name="wcircumflex" unicode="&#x175;" horiz-adv-x="882" 
d="M628 87l152 454h79l-188 -541h-85l-145 440l-145 -440h-84l-190 541h79l153 -454l148 454h77zM475 730l97 -132l-59 -7l-72 105l-73 -105l-59 7l97 132h69z" />
    <glyph glyph-name="Ycircumflex" unicode="&#x176;" horiz-adv-x="678" 
d="M576 700h85l-283 -439v-261h-78v264l-283 436h86l237 -371zM378 881l105 -121l-64 -6l-78 96l-78 -96l-64 6l105 121h74z" />
    <glyph glyph-name="ycircumflex" unicode="&#x177;" horiz-adv-x="592" 
d="M493 541h82l-236 -541l-22 -51q-30 -69 -71.5 -99.5t-106.5 -30.5q-28 0 -57.5 8.5t-48.5 20.5l24 55q38 -20 79 -20q39 0 63 19.5t45 64.5l15 34l-236 540h82l194 -455zM355 730l97 -132l-59 -7l-72 105l-73 -105l-59 7l97 132h69z" />
    <glyph glyph-name="Ydieresis" unicode="&#x178;" horiz-adv-x="678" 
d="M576 700h85l-283 -439v-261h-78v264l-283 436h86l237 -371zM305 765h-70v105h70v-105zM457 765h-71v105h71v-105z" />
    <glyph glyph-name="Zacute" unicode="&#x179;" horiz-adv-x="695" 
d="M635 0h-577v49l464 582h-453v69h562v-49l-464 -582h468v-69zM468 848l-94 -101l-52 5l80 113z" />
    <glyph glyph-name="zacute" unicode="&#x17a;" horiz-adv-x="532" 
d="M495 0h-458v46l348 426h-340v69h446v-46l-351 -427h355v-68zM405 720l-116 -127l-52 7l96 137z" />
    <glyph glyph-name="Zdotaccent" unicode="&#x17b;" horiz-adv-x="695" 
d="M635 0h-577v49l464 582h-453v69h562v-49l-464 -582h468v-69zM385 766h-79v106h79v-106z" />
    <glyph glyph-name="zdotaccent" unicode="&#x17c;" horiz-adv-x="532" 
d="M495 0h-458v46l348 426h-340v69h446v-46l-351 -427h355v-68zM303 617h-79v110h79v-110z" />
    <glyph glyph-name="Zcaron" unicode="&#x17d;" horiz-adv-x="695" 
d="M635 0h-577v49l464 582h-453v69h562v-49l-464 -582h468v-69zM347 778l78 90l64 -5l-105 -115h-74l-105 115l64 5z" />
    <glyph glyph-name="zcaron" unicode="&#x17e;" horiz-adv-x="532" 
d="M495 0h-458v46l348 426h-340v69h446v-46l-351 -427h355v-68zM263 625l72 104l59 -6l-97 -132h-69l-97 132l59 6z" />
    <glyph glyph-name="uni018F" unicode="&#x18f;" horiz-adv-x="837" 
d="M586.5 662.5q86.5 -46.5 135.5 -128.5t49 -185t-47 -185t-131 -128t-191 -46q-97 0 -173.5 43t-119.5 121t-43 179q0 19 4 30h621q-2 80 -41.5 144t-107 100t-151.5 36q-69 0 -128.5 -25t-103.5 -70l-50 46q52 55 124 85t158 30q109 0 195.5 -46.5zM537 87
q62 31 101.5 87t49.5 127l-542 -1q11 -113 80 -178.5t175 -65.5q74 0 136 31z" />
    <glyph glyph-name="florin" unicode="&#x192;" horiz-adv-x="696" 
d="M464.5 668q-31.5 -36 -49.5 -127h155v-58h-165l-45 -256q-22 -124 -73 -179t-128 -55q-62 0 -106 23l22 52q21 -9 39 -14t41 -5q49 0 81 41t50 142l44 251h-124v58h134q23 118 71 169t127 51q60 0 106 -23l-23 -53q-38 19 -75 19q-50 0 -81.5 -36z" />
    <glyph glyph-name="uni019D" unicode="&#x19d;" horiz-adv-x="809" 
d="M618 700h78v-700h-65l-456 568v-568h-1v-20q0 -74 -41 -110.5t-111 -36.5q-22 0 -46.5 6.5t-44.5 17.5l19 57q27 -16 60 -16q38 0 63 22.5t25 65.5v714h67l453 -565v565z" />
    <glyph glyph-name="Ohorn" unicode="&#x1a0;" horiz-adv-x="858" 
d="M764 495.5q28 -67.5 28 -145.5q0 -103 -47 -185t-130 -128.5t-187 -46.5q-103 0 -185.5 46.5t-129.5 128.5t-47 185t47 185t129.5 128.5t186.5 46.5q113 0 199 -54q36 -2 57.5 11.5t21.5 44.5q0 20 -10 46l65 4q12 -34 12 -61q0 -41 -24 -64t-64 -25q50 -49 78 -116.5z
M574 98.5q64 36.5 100 102t36 149.5t-36 150t-100 102.5t-145 36.5t-145 -36.5t-100 -102.5t-36 -150t36 -149.5t100 -102t145 -36.5t145 36.5z" />
    <glyph glyph-name="ohorn" unicode="&#x1a1;" 
d="M599.5 385.5q22.5 -52.5 22.5 -113.5q0 -81 -36.5 -145t-101.5 -100.5t-147 -36.5t-146.5 36t-101 100t-36.5 145q0 80 36.5 143.5t101.5 99.5t146 36q74 0 134 -29l15 -1q31 0 50 13.5t19 41.5q0 21 -10 47l65 4q12 -34 12 -62q0 -40 -23 -63t-62 -25q40 -38 62.5 -90.5
zM445.5 86q47.5 27 74.5 75t27 110t-27 110t-75 74.5t-108 26.5t-107.5 -26.5t-74.5 -74.5t-27 -110t27 -110t75 -75t108 -27t107.5 27z" />
    <glyph glyph-name="Uhorn" unicode="&#x1af;" horiz-adv-x="766" 
d="M781 805q11 -30 11 -59q0 -40 -24 -63t-65 -23q-16 0 -39 5v-377q0 -92 -35.5 -159t-102 -102.5t-156.5 -35.5t-156 35.5t-102 102.5t-36 159v412h78v-398q0 -109 57.5 -169.5t158.5 -60.5t159 60.5t58 169.5v398h56l1 4q6 -1 17 -1q30 0 48 13t18 41q0 18 -9 45z" />
    <glyph glyph-name="uhorn" unicode="&#x1b0;" horiz-adv-x="680" 
d="M689 646q11 -30 11 -58q0 -40 -23.5 -62.5t-63.5 -22.5q-19 0 -42 6v-509h-74v97q-32 -48 -85.5 -77t-121.5 -29q-98 0 -157 62t-59 169v319h75v-309q0 -81 41.5 -126.5t116.5 -45.5q52 0 95.5 26t69 72t25.5 103v280h56l2 5q6 -1 16 -1q30 0 48 13t18 41q0 18 -9 43z
" />
    <glyph glyph-name="uni01CD" unicode="&#x1cd;" horiz-adv-x="765" 
d="M743 0h-83l-73 161h-411l-73 -161h-81l321 700h78zM382 612l-174 -381h347zM384 778l78 90l64 -5l-105 -115h-74l-105 115l64 5z" />
    <glyph glyph-name="uni01CE" unicode="&#x1ce;" horiz-adv-x="580" 
d="M447.5 494.5q58.5 -55.5 58.5 -158.5v-336h-75v102q-26 -45 -80.5 -78.5t-127.5 -33.5q-86 0 -136.5 46t-50.5 120q0 78 53 125t159 47q80 0 183 -11v18q0 72 -41.5 109.5t-121.5 37.5q-43 0 -87 -15.5t-79 -44.5l-38 55q44 37 99 55t112 18q114 0 172.5 -55.5zM340.5 85
q42.5 26 66.5 67.5t24 84.5v16q-76 12 -166 12q-157 0 -157 -105q0 -49 36 -75t102 -26q52 0 94.5 26zM280 627l72 104l59 -6l-97 -132h-69l-97 132l59 6z" />
    <glyph glyph-name="uni01CF" unicode="&#x1cf;" horiz-adv-x="273" 
d="M175 0h-77v700h77v-700zM138 778l78 90l64 -5l-105 -115h-74l-105 115l64 5z" />
    <glyph glyph-name="uni01D0" unicode="&#x1d0;" horiz-adv-x="242" 
d="M158 0h-74v541h74v-541zM121 625l72 104l59 -6l-97 -132h-69l-97 132l59 6z" />
    <glyph glyph-name="uni01D1" unicode="&#x1d1;" horiz-adv-x="858" 
d="M242.5 36.5q-82.5 46.5 -129.5 128.5t-47 185t47 185t129.5 128.5t186.5 46.5t186.5 -46.5t129.5 -128.5t47 -185t-47 -185t-130 -128.5t-187 -46.5q-103 0 -185.5 46.5zM574 98.5q64 36.5 100 102t36 149.5t-36 150t-100 102.5t-145 36.5t-145 -36.5t-100 -102.5
t-36 -150t36 -149.5t100 -102t145 -36.5t145 36.5zM430 778l78 90l64 -5l-105 -115h-74l-105 115l64 5z" />
    <glyph glyph-name="uni01D2" unicode="&#x1d2;" 
d="M190.5 26q-64.5 36 -101 100t-36.5 145q0 80 36.5 143.5t101.5 99.5t146 36q82 0 147 -36t101.5 -99t36.5 -143q0 -81 -36.5 -145t-101.5 -100.5t-147 -36.5t-146.5 36zM445.5 86q47.5 27 74.5 75t27 110t-27 110t-75 74.5t-108 26.5t-107.5 -26.5t-74.5 -74.5t-27 -110
t27 -110t75 -75t108 -27t107.5 27zM338 625l72 104l59 -6l-97 -132h-69l-97 132l59 6z" />
    <glyph glyph-name="uni01D3" unicode="&#x1d3;" horiz-adv-x="740" 
d="M214 26.5q-66 35.5 -102 102.5t-36 159v412h78v-398q0 -109 57.5 -169.5t158.5 -60.5t159 60.5t58 169.5v398h77v-412q0 -92 -35.5 -159t-102 -102.5t-156.5 -35.5t-156 35.5zM372 778l78 90l64 -5l-105 -115h-74l-105 115l64 5z" />
    <glyph glyph-name="uni01D4" unicode="&#x1d4;" horiz-adv-x="655" 
d="M497 541h74v-541h-74v97q-32 -48 -85.5 -77t-121.5 -29q-98 0 -157 62t-59 169v319h75v-309q0 -81 41.5 -126.5t116.5 -45.5q52 0 95.5 26t69 72t25.5 103v280zM320 625l72 104l59 -6l-97 -132h-69l-97 132l59 6z" />
    <glyph glyph-name="uni01D5" unicode="&#x1d5;" horiz-adv-x="741" 
d="M214 26.5q-66 35.5 -102 102.5t-36 159v412h78v-398q0 -109 57.5 -169.5t158.5 -60.5t159 60.5t58 169.5v398h77v-412q0 -92 -35.5 -159t-102 -102.5t-156.5 -35.5t-156 35.5zM339 765h-70v105h70v-105zM491 765h-71v105h71v-105zM509 954h-282l1 49h281v-49z" />
    <glyph glyph-name="uni01D6" unicode="&#x1d6;" horiz-adv-x="655" 
d="M497 541h74v-541h-74v97q-32 -48 -85.5 -77t-121.5 -29q-98 0 -157 62t-59 169v319h75v-309q0 -81 41.5 -126.5t116.5 -45.5q52 0 95.5 26t69 72t25.5 103v280zM300 617h-57v110h57v-110zM457 617h-56v110h56v-110zM490 827h-282l1 49h281v-49z" />
    <glyph glyph-name="uni01D7" unicode="&#x1d7;" horiz-adv-x="741" 
d="M214 26.5q-66 35.5 -102 102.5t-36 159v412h78v-398q0 -109 57.5 -169.5t158.5 -60.5t159 60.5t58 169.5v398h77v-412q0 -92 -35.5 -159t-102 -102.5t-156.5 -35.5t-156 35.5zM339 765h-70v105h70v-105zM491 765h-71v105h71v-105zM493 1018l-94 -101l-52 5l80 113z" />
    <glyph glyph-name="uni01D8" unicode="&#x1d8;" horiz-adv-x="655" 
d="M497 541h74v-541h-74v97q-32 -48 -85.5 -77t-121.5 -29q-98 0 -157 62t-59 169v319h75v-309q0 -81 41.5 -126.5t116.5 -45.5q52 0 95.5 26t69 72t25.5 103v280zM300 617h-57v110h57v-110zM457 617h-56v110h56v-110zM480 906l-116 -127l-52 7l96 137z" />
    <glyph glyph-name="uni01D9" unicode="&#x1d9;" horiz-adv-x="741" 
d="M214 26.5q-66 35.5 -102 102.5t-36 159v412h78v-398q0 -109 57.5 -169.5t158.5 -60.5t159 60.5t58 169.5v398h77v-412q0 -92 -35.5 -159t-102 -102.5t-156.5 -35.5t-156 35.5zM339 765h-70v105h70v-105zM491 765h-71v105h71v-105zM372 948l78 90l64 -5l-105 -115h-74
l-105 115l64 5z" />
    <glyph glyph-name="uni01DA" unicode="&#x1da;" horiz-adv-x="655" 
d="M497 541h74v-541h-74v97q-32 -48 -85.5 -77t-121.5 -29q-98 0 -157 62t-59 169v319h75v-309q0 -81 41.5 -126.5t116.5 -45.5q52 0 95.5 26t69 72t25.5 103v280zM300 617h-57v110h57v-110zM457 617h-56v110h56v-110zM338 811l72 104l59 -6l-97 -132h-69l-97 132l59 6z" />
    <glyph glyph-name="uni01DB" unicode="&#x1db;" horiz-adv-x="740" 
d="M214 26.5q-66 35.5 -102 102.5t-36 159v412h78v-398q0 -109 57.5 -169.5t158.5 -60.5t159 60.5t58 169.5v398h77v-412q0 -92 -35.5 -159t-102 -102.5t-156.5 -35.5t-156 35.5zM336 765h-70v105h70v-105zM488 765h-71v105h71v-105zM394 922l-52 -5l-94 101l66 17z" />
    <glyph glyph-name="uni01DB" unicode="&#x1dc;" horiz-adv-x="740" 
d="M214 26.5q-66 35.5 -102 102.5t-36 159v412h78v-398q0 -109 57.5 -169.5t158.5 -60.5t159 60.5t58 169.5v398h77v-412q0 -92 -35.5 -159t-102 -102.5t-156.5 -35.5t-156 35.5zM336 765h-70v105h70v-105zM488 765h-71v105h71v-105zM394 922l-52 -5l-94 101l66 17z" />
    <glyph glyph-name="Gcaron" unicode="&#x1e6;" horiz-adv-x="769" 
d="M243 36.5q-83 46.5 -130 128t-47 184.5t46.5 185.5t129 129t186.5 46.5q76 0 142 -26.5t118 -77.5l-50 -49q-87 82 -208 82q-81 0 -145.5 -36.5t-101 -102.5t-36.5 -151t36 -150t101.5 -101.5t149.5 -36.5q115 0 195 70v223h71v-257q-52 -51 -122 -79t-148 -28
q-104 0 -187 46.5zM441 778l78 90l64 -5l-105 -115h-74l-105 115l64 5z" />
    <glyph glyph-name="gcaron" unicode="&#x1e7;" horiz-adv-x="615" 
d="M374 122q103 0 158 -36.5t55 -98.5q0 -76 -75.5 -121.5t-211.5 -45.5q-115 0 -180 37t-65 102q0 33 23 60t60 46q-26 13 -40.5 34.5t-14.5 47.5q0 33 18 57t48 36q-31 23 -47.5 57.5t-16.5 76.5q0 81 60 129t163 48q62 0 103 -19l140 35l17 -62l-91 -15q27 -19 41.5 -49
t14.5 -67q0 -83 -60 -131t-163 -48q-63 0 -114 19q-21 -9 -30 -20t-9 -26q0 -22 17 -34t45 -12h155zM198.5 456q-39.5 -29 -39.5 -81q0 -54 39.5 -84t110.5 -30t110.5 29.5t39.5 83.5q0 53 -39.5 82t-110.5 29t-110.5 -29zM458 -88.5q54 23.5 54 71.5q0 36 -40 53t-118 17
h-155h-4q-64 -37 -64 -83q0 -42 45 -62t128 -20q100 0 154 23.5zM318 625l72 104l59 -6l-97 -132h-69l-97 132l59 6z" />
    <glyph glyph-name="uni01EA" unicode="&#x1ea;" horiz-adv-x="858" 
d="M537 -19.5q-18 -23.5 -18 -44.5q0 -24 17 -36.5t47 -12.5q19 0 38 4l4 -44q-32 -7 -63 -7q-52 0 -80.5 21t-28.5 58q0 38 35 75q-25 -4 -60 -4q-103 0 -185.5 46.5t-129.5 128.5t-47 185t47 185t129.5 128.5t186.5 46.5t186.5 -46.5t129.5 -128.5t47 -185
q0 -112 -54.5 -198t-148.5 -129q-34 -19 -52 -42.5zM184 200.5q36 -65.5 100 -102t145 -36.5t145 36.5t100 102t36 149.5t-36 150t-100 102.5t-145 36.5t-145 -36.5t-100 -102.5t-36 -150t36 -149.5z" />
    <glyph glyph-name="uni01EB" unicode="&#x1eb;" 
d="M423.5 -22q-15.5 -22 -15.5 -41q0 -24 17 -36.5t47 -12.5q19 0 38 4l4 -44q-32 -7 -63 -7q-52 0 -80.5 21t-28.5 58t32 72q-24 -2 -37 -2q-82 0 -146.5 36t-101 100t-36.5 145q0 80 36.5 143.5t101.5 99.5t146 36q82 0 147 -36t101.5 -99t36.5 -143q0 -86 -41.5 -153
t-112.5 -101q-29 -18 -44.5 -40zM155 161q27 -48 75 -75t108 -27t107.5 27t74.5 75t27 110t-27 110t-75 74.5t-108 26.5t-107.5 -26.5t-74.5 -74.5t-27 -110t27 -110z" />
    <glyph glyph-name="Aringacute" unicode="&#x1fa;" horiz-adv-x="765" 
d="M428 1026l66 -17l-94 -101l-52 5zM660 0l-73 161h-411l-73 -161h-81l312 681q-29 14 -46 40.5t-17 60.5q0 49 34 81t85 32q52 0 86 -32t34 -81q0 -38 -21 -66.5t-57 -39.5l311 -676h-83zM341 830.5q-20 -19.5 -20 -48.5t20 -48.5t49 -19.5q30 0 49.5 19.5t19.5 48.5
t-19.5 48.5t-49.5 19.5q-29 0 -49 -19.5zM382 612l-174 -381h347z" />
    <glyph glyph-name="aringacute" unicode="&#x1fb;" horiz-adv-x="587" 
d="M447.5 494.5q58.5 -55.5 58.5 -158.5v-336h-75v102q-26 -45 -80.5 -78.5t-127.5 -33.5q-86 0 -136.5 46t-50.5 120q0 78 53 125t159 47q80 0 183 -11v18q0 72 -41.5 109.5t-121.5 37.5q-43 0 -87 -15.5t-79 -44.5l-38 55q44 37 99 55t112 18q114 0 172.5 -55.5zM340.5 85
q42.5 26 66.5 67.5t24 84.5v16q-76 12 -166 12q-157 0 -157 -105q0 -49 36 -75t102 -26q52 0 94.5 26zM208 621q-34 32 -34 80q0 49 34 81t86 32q51 0 85 -32t34 -81q0 -48 -34 -80t-85 -32q-52 0 -86 32zM343 652.5q20 19.5 20 48.5q0 30 -20 49.5t-49 19.5
q-30 0 -50 -19.5t-20 -49.5q0 -29 20 -48.5t50 -19.5q29 0 49 19.5zM428 984l-116 -127l-52 7l96 137z" />
    <glyph glyph-name="AEacute" unicode="&#x1fc;" horiz-adv-x="1079" 
d="M565 324v-255h463v-69h-540v178h-279l-106 -178h-81l411 700h585v-69h-453v-238h400v-69h-400zM481 635l-230 -387h237v387h-7zM809 848l-94 -101l-52 5l80 113z" />
    <glyph glyph-name="aeacute" unicode="&#x1fd;" horiz-adv-x="990" 
d="M498 242q7 -82 65 -132.5t146 -50.5q101 0 161 66l48 -44q-40 -43 -93.5 -66.5t-119.5 -23.5q-86 0 -153 40t-101 109q-32 -62 -95.5 -106t-145.5 -44t-133 45.5t-51 120.5t55.5 120.5t156.5 45.5q111 0 182 -11v30q-1 71 -42 108.5t-120 37.5q-45 0 -90.5 -16t-75.5 -44
l-41 52q45 34 101.5 52.5t112.5 18.5q78 0 129.5 -29.5t75.5 -82.5q37 53 95.5 82.5t131.5 29.5q74 0 131 -33t88.5 -93t31.5 -137q0 -15 -3 -45h-447zM561.5 434q-53.5 -48 -62.5 -127h376q-8 84 -55.5 129.5t-122.5 45.5q-82 0 -135.5 -48zM328.5 82q44.5 26 69 68
t23.5 87l2 -2l-2 19q-71 11 -167 11q-74 0 -115 -28.5t-41 -76.5t34.5 -76t95.5 -28q56 0 100.5 26zM646 720l-116 -127l-52 7l96 137z" />
    <glyph glyph-name="oslashacute" unicode="&#x1ff;" 
d="M562 449q60 -74 60 -177q0 -81 -36.5 -145t-101.5 -100.5t-147 -36.5q-101 0 -178 56l-46 -46l-45 45l46 46q-61 74 -61 180q0 80 36.5 143.5t101.5 99.5t146 36q103 0 179 -57l50 50l45 -45zM166 143l299 299q-52 40 -128 40q-60 0 -107.5 -26.5t-74.5 -74.5t-27 -110
q0 -73 38 -128zM445.5 86q47.5 27 74.5 75t27 110q0 74 -37 126l-299 -299q53 -39 127 -39q60 0 107.5 27zM474 720l-116 -127l-52 7l96 137z" />
    <glyph glyph-name="uni0218" unicode="&#x218;" horiz-adv-x="635" 
d="M173 18q-72 28 -125 76l37 59q52 -43 115 -67t130 -24q82 0 127.5 33.5t45.5 86.5q0 38 -20 62t-59.5 39.5t-108.5 30.5q-126 28 -186 74t-60 130q0 59 33 102.5t90 66.5t129 23q131 0 238 -79l-42 -57q-42 30 -94.5 47.5t-106.5 17.5q-77 0 -121.5 -33t-44.5 -89
q0 -36 19 -60t59 -41t109 -33q89 -19 141.5 -42t79 -60t26.5 -95q0 -59 -33 -103.5t-91.5 -68.5t-134.5 -24q-80 0 -152 28zM264 -183q57 23 50 75h-45v75h95q7 -39 7 -60q0 -98 -92 -126z" />
    <glyph glyph-name="uni0219" unicode="&#x219;" horiz-adv-x="526" 
d="M140.5 11q-60.5 20 -103.5 51l32 62q45 -31 96 -47.5t102 -16.5q67 0 104.5 22.5t37.5 65.5q0 38 -33.5 58t-119.5 36q-76 14 -120 34.5t-62.5 49.5t-18.5 71q0 71 53 111.5t147 40.5q55 0 114 -15.5t95 -41.5l-31 -63q-35 24 -84 37.5t-99 13.5q-56 0 -87.5 -20
t-31.5 -57q0 -34 31 -54t115 -36q79 -16 124 -38t64 -52t19 -73q0 -75 -59.5 -117t-161.5 -42q-62 0 -122.5 20zM212 -183q57 23 50 75h-45v75h95q7 -39 7 -60q0 -98 -92 -126z" />
    <glyph glyph-name="uni021A" unicode="&#x21a;" horiz-adv-x="622" 
d="M29 700h563v-69h-243v-631h-78v631h-242v69zM257 -183q57 23 50 75h-45v75h95q7 -39 7 -60q0 -98 -92 -126z" />
    <glyph glyph-name="uni021B" unicode="&#x21b;" horiz-adv-x="480" 
d="M439 23q-24 -15 -62 -24t-70 -9q-73 0 -116.5 42.5t-43.5 117.5v322h-108v69h109l6 146h68v-146h195v-69h-195v-309q0 -48 27 -76.5t71 -28.5q24 0 54 6.5t50 17.5zM249 -185q57 23 50 75h-45v75h95q7 -39 7 -60q0 -98 -92 -126z" />
    <glyph glyph-name="uni0232" unicode="&#x232;" horiz-adv-x="678" 
d="M576 700h85l-283 -439v-261h-78v264l-283 436h86l237 -371zM478 784h-282l1 49h281v-49z" />
    <glyph glyph-name="uni0233" unicode="&#x233;" horiz-adv-x="592" 
d="M493 541h82l-236 -541l-22 -51q-30 -69 -71.5 -99.5t-106.5 -30.5q-28 0 -57.5 8.5t-48.5 20.5l24 55q38 -20 79 -20q39 0 63 19.5t45 64.5l15 34l-236 540h82l194 -455zM473 641h-282l1 49h281v-49z" />
    <glyph glyph-name="uni0237" unicode="&#x237;" horiz-adv-x="255" 
d="M-44 -92q23 -14 54 -14q39 0 62.5 22t23.5 63v562h75v-568q0 -71 -42.5 -109t-110.5 -38q-42 0 -84 21z" />
    <glyph glyph-name="uni0259" unicode="&#x259;" horiz-adv-x="618" 
d="M427.5 514q64.5 -36 101 -99.5t36.5 -144.5q0 -80 -34.5 -143.5t-97.5 -99.5t-144 -36q-73 0 -130 33t-89 93t-32 137q0 18 4 45h447q-7 82 -65.5 132.5t-146.5 50.5q-101 0 -160 -66l-49 44q40 43 93.5 66.5t119.5 23.5q82 0 146.5 -36zM424.5 107q53.5 48 63.5 127
h-377q8 -84 55.5 -129.5t122.5 -45.5q82 0 135.5 48z" />
    <glyph glyph-name="uni0272" unicode="&#x272;" horiz-adv-x="655" 
d="M522 488q59 -62 59 -169v-319h-75v309q0 81 -41.5 126.5t-116.5 45.5q-52 0 -95.5 -26t-69 -72t-25.5 -103v-44q1 -24 1 -86v-170q0 -74 -40.5 -110.5t-107.5 -36.5q-47 0 -89 24l19 57q11 -7 27 -11.5t31 -4.5q36 0 60.5 22.5t24.5 65.5v555h74v-97q32 48 85.5 77
t121.5 29q98 0 157 -62z" />
    <glyph glyph-name="uni02B0" unicode="&#x2b0;" horiz-adv-x="342" 
d="M279 750q27 -31 27 -86v-162h-60v150q0 35 -18.5 57t-48.5 22q-31 0 -54 -24t-23 -59v-146h-60v369h60v-163q13 32 41 52.5t61 20.5q48 0 75 -31z" />
    <glyph glyph-name="circumflex" unicode="&#x2c6;" horiz-adv-x="395" 
d="M232 730l97 -132l-59 -7l-72 105l-73 -105l-59 7l97 132h69z" />
    <glyph glyph-name="caron" unicode="&#x2c7;" horiz-adv-x="395" 
d="M198 625l72 104l59 -6l-97 -132h-69l-97 132l59 6z" />
    <glyph glyph-name="breve" unicode="&#x2d8;" horiz-adv-x="391" 
d="M325 720q0 -59 -35 -94.5t-94 -35.5q-60 0 -95 35.5t-35 94.5h57q0 -84 73 -84q72 0 72 84h57z" />
    <glyph glyph-name="dotaccent" unicode="&#x2d9;" horiz-adv-x="211" 
d="M145 617h-79v110h79v-110z" />
    <glyph glyph-name="ring" unicode="&#x2da;" horiz-adv-x="356" 
d="M100 619q-34 32 -34 80q0 49 34 81t86 32q51 0 85 -32t34 -81q0 -48 -34 -80t-85 -32q-52 0 -86 32zM235 650.5q20 19.5 20 48.5q0 30 -20 49.5t-49 19.5q-30 0 -50 -19.5t-20 -49.5q0 -29 20 -48.5t50 -19.5q29 0 49 19.5z" />
    <glyph glyph-name="ogonek" unicode="&#x2db;" horiz-adv-x="244" 
d="M179 0q-37 -19 -57 -44t-20 -47q0 -24 17 -36.5t47 -12.5q19 0 38 4l4 -44q-32 -7 -63 -7q-52 0 -80.5 21t-28.5 58q0 34 28 67t74 53z" />
    <glyph glyph-name="tilde" unicode="&#x2dc;" horiz-adv-x="438" 
d="M66 617q0 41 23.5 66.5t59.5 25.5q19 0 35.5 -6.5t40.5 -20.5q19 -11 31.5 -16.5t25.5 -5.5q22 0 36 15t14 39l39 -10q0 -41 -23 -66.5t-59 -25.5q-19 0 -35.5 6.5t-40.5 20.5q-20 11 -32 16.5t-25 5.5q-22 0 -36 -15t-14 -39z" />
    <glyph glyph-name="hungarumlaut" unicode="&#x2dd;" horiz-adv-x="451" 
d="M226 720l-108 -127l-52 7l89 137zM385 720l-108 -127l-52 7l89 137z" />
    <glyph glyph-name="uni02E1" unicode="&#x2e1;" horiz-adv-x="143" 
d="M102 502h-60v369h60v-369z" />
    <glyph glyph-name="uni02E2" unicode="&#x2e2;" horiz-adv-x="277" 
d="M17 530l13 40q22 -14 51 -22.5t60 -8.5q27 0 42.5 9.5t15.5 27.5q0 16 -14 24.5t-55 17.5q-56 11 -80 30t-24 52q0 38 29 59t84 21q29 0 56.5 -7.5t48.5 -20.5l-15 -39q-43 24 -89 24q-30 0 -45.5 -8.5t-15.5 -24.5t14 -25t53 -16q57 -11 82 -29.5t25 -53.5
q0 -39 -32.5 -61.5t-85.5 -22.5q-69 0 -118 34z" />
    <glyph glyph-name="gravecomb" unicode="&#x300;" horiz-adv-x="0" 
d="M-67 600l-52 -7l-116 127l72 17z" />
    <glyph glyph-name="acutecomb" unicode="&#x301;" horiz-adv-x="0" 
d="M-66 720l-116 -127l-52 7l96 137z" />
    <glyph glyph-name="uni0302" unicode="&#x302;" horiz-adv-x="0" 
d="M-163 730l97 -132l-59 -7l-72 105l-73 -105l-59 7l97 132h69z" />
    <glyph glyph-name="tildecomb" unicode="&#x303;" horiz-adv-x="0" 
d="M-372 617q0 41 23.5 66.5t59.5 25.5q19 0 35.5 -6.5t40.5 -20.5q19 -11 31.5 -16.5t25.5 -5.5q22 0 36 15t14 39l39 -10q0 -41 -23 -66.5t-59 -25.5q-19 0 -35.5 6.5t-40.5 20.5q-20 11 -32 16.5t-25 5.5q-22 0 -36 -15t-14 -39z" />
    <glyph glyph-name="uni0304" unicode="&#x304;" horiz-adv-x="0" 
d="M-66 641h-282l1 49h281v-49z" />
    <glyph glyph-name="uni0306" unicode="&#x306;" horiz-adv-x="0" 
d="M-66 720q0 -59 -35 -94.5t-94 -35.5q-60 0 -95 35.5t-35 94.5h57q0 -84 73 -84q72 0 72 84h57z" />
    <glyph glyph-name="uni0307" unicode="&#x307;" horiz-adv-x="0" 
d="M-66 617h-79v110h79v-110z" />
    <glyph glyph-name="uni0308" unicode="&#x308;" horiz-adv-x="0" 
d="M-223 617h-57v110h57v-110zM-66 617h-56v110h56v-110z" />
    <glyph glyph-name="hookabovecomb" unicode="&#x309;" horiz-adv-x="0" 
d="M-166 595q23 23 35.5 42.5t12.5 42.5q0 17 -11.5 28t-29.5 11t-35 -10l-4 34q30 15 61 15q32 0 51.5 -17.5t19.5 -42.5q0 -59 -63 -115z" />
    <glyph glyph-name="uni030A" unicode="&#x30a;" horiz-adv-x="0" 
d="M-272 619q-34 32 -34 80q0 49 34 81t86 32q51 0 85 -32t34 -81q0 -48 -34 -80t-85 -32q-52 0 -86 32zM-137 650.5q20 19.5 20 48.5q0 30 -20 49.5t-49 19.5q-30 0 -50 -19.5t-20 -49.5q0 -29 20 -48.5t50 -19.5q29 0 49 19.5z" />
    <glyph glyph-name="uni030B" unicode="&#x30b;" horiz-adv-x="0" 
d="M-225 720l-108 -127l-52 7l89 137zM-66 720l-108 -127l-52 7l89 137z" />
    <glyph glyph-name="uni030C" unicode="&#x30c;" horiz-adv-x="0" 
d="M-197 625l72 104l59 -6l-97 -132h-69l-97 132l59 6z" />
    <glyph glyph-name="uni0312" unicode="&#x312;" horiz-adv-x="0" 
d="M-55 734q-57 -23 -50 -75h45v-75h-95q-7 39 -7 60q0 98 92 126z" />
    <glyph glyph-name="uni031B" unicode="&#x31b;" horiz-adv-x="0" 
d="M-197 566q6 -1 17 -1q31 0 50.5 14t19.5 42q0 20 -10 46l65 4q12 -34 12 -61q0 -42 -25 -65.5t-67 -23.5q-33 0 -72 15z" />
    <glyph glyph-name="dotbelowcomb" unicode="&#x323;" horiz-adv-x="0" 
d="M-145 -160v110h79v-110h-79z" />
    <glyph glyph-name="uni0324" unicode="&#x324;" horiz-adv-x="0" 
 />
    <glyph glyph-name="uni0326" unicode="&#x326;" horiz-adv-x="0" 
d="M-156 -183q57 23 50 75h-45v75h95q7 -39 7 -60q0 -98 -92 -126z" />
    <glyph glyph-name="uni0327" unicode="&#x327;" horiz-adv-x="0" 
d="M-119 -39q34 -5 53.5 -23t19.5 -44q0 -31 -27 -50.5t-78 -19.5q-32 0 -62 7l10 43q21 -7 46 -7q23 0 35 9.5t12 23.5q0 17 -17 28t-50 12l19 65h52z" />
    <glyph glyph-name="uni0328" unicode="&#x328;" horiz-adv-x="0" 
d="M-65 0q-37 -19 -57 -44t-20 -47q0 -24 17 -36.5t47 -12.5q19 0 38 4l4 -44q-32 -7 -63 -7q-52 0 -80.5 21t-28.5 58q0 34 28 67t74 53z" />
    <glyph glyph-name="uni032E" unicode="&#x32e;" horiz-adv-x="0" 
d="M-64 -36q0 -48 -33 -76.5t-88 -28.5t-88 28.5t-33 76.5l53 1q0 -69 68 -69t68 69z" />
    <glyph glyph-name="uni0331" unicode="&#x331;" horiz-adv-x="0" 
d="M-36 -112h-282l1 49h281v-49z" />
    <glyph glyph-name="uni0335" unicode="&#x335;" horiz-adv-x="0" 
d="M-352 305v52h316v-52h-316z" />
    <glyph glyph-name="uni0336" unicode="&#x336;" horiz-adv-x="0" 
 />
    <glyph glyph-name="uni0337" unicode="&#x337;" horiz-adv-x="0" 
d="M-257 268l-23 46l233 124l23 -45z" />
    <glyph glyph-name="uni0338" unicode="&#x338;" horiz-adv-x="0" 
d="M-564 -1l-45 45l498 498l45 -45z" />
    <glyph glyph-name="tonos" unicode="&#x384;" horiz-adv-x="192" 
d="M145 739l-31 -137h-47l11 137h67z" />
    <glyph glyph-name="dieresistonos" unicode="&#x385;" horiz-adv-x="340" 
d="M224 785l-29 -138h-37l11 138h55zM114 584h-49v102h49v-102zM297 584h-48v102h48v-102z" />
    <glyph glyph-name="Alphatonos" unicode="&#x386;" horiz-adv-x="765" 
d="M743 0h-83l-73 161h-411l-73 -161h-81l321 700h78zM382 612l-174 -381h347zM145 700l-31 -137h-47l11 137h67z" />
    <glyph glyph-name="Epsilontonos" unicode="&#x388;" horiz-adv-x="689" 
d="M174 324v-255h463v-69h-539v700h529v-69h-453v-238h400v-69h-400zM20 700l-31 -137h-47l11 137h67z" />
    <glyph glyph-name="Etatonos" unicode="&#x389;" horiz-adv-x="782" 
d="M606 386v314h78v-700h-78v316h-430v-316h-78v700h78v-314h430zM20 700l-31 -137h-47l11 137h67z" />
    <glyph glyph-name="Iotatonos" unicode="&#x38a;" horiz-adv-x="273" 
d="M175 0h-77v700h77v-700zM20 700l-31 -137h-47l11 137h67z" />
    <glyph glyph-name="Omicrontonos" unicode="&#x38c;" horiz-adv-x="858" 
d="M242.5 36.5q-82.5 46.5 -129.5 128.5t-47 185t47 185t129.5 128.5t186.5 46.5t186.5 -46.5t129.5 -128.5t47 -185t-47 -185t-130 -128.5t-187 -46.5q-103 0 -185.5 46.5zM574 98.5q64 36.5 100 102t36 149.5t-36 150t-100 102.5t-145 36.5t-145 -36.5t-100 -102.5
t-36 -150t36 -149.5t100 -102t145 -36.5t145 36.5zM20 700l-31 -137h-47l11 137h67z" />
    <glyph glyph-name="Upsilontonos" unicode="&#x38e;" horiz-adv-x="678" 
d="M576 700h85l-283 -439v-261h-78v264l-283 436h86l237 -371zM-53 700l-31 -137h-47l11 137h67z" />
    <glyph glyph-name="Omegatonos" unicode="&#x38f;" horiz-adv-x="775" 
d="M685.5 271q-23.5 -58 -57 -99t-88.5 -96l-23 -22l162 6v-60h-231v52q20 29 64 81q40 46 63.5 79t39.5 79t16 106q0 71 -31 125.5t-86.5 84.5t-126.5 30t-126 -30t-86 -84.5t-31 -125.5q0 -60 16 -106t39.5 -79t63.5 -79q44 -52 64 -81v-52h-231v60l163 -6l-27 27
q-55 54 -88 94.5t-55.5 97.5t-22.5 131q0 83 38.5 151.5t111.5 108.5t172 40t171.5 -40t111 -108.5t38.5 -151.5q0 -75 -23.5 -133zM34 700l-31 -137h-47l11 137h67z" />
    <glyph glyph-name="iotadieresistonos" unicode="&#x390;" horiz-adv-x="300" 
d="M234 -9q-77 0 -118.5 38.5t-41.5 134.5v377h75v-364q0 -70 24.5 -98t71.5 -28h34v-60h-45zM144 785l-29 -138h-37l11 138h55zM34 584h-49v102h49v-102zM217 584h-48v102h48v-102z" />
    <glyph glyph-name="Alpha" unicode="&#x391;" horiz-adv-x="765" 
d="M743 0h-83l-73 161h-411l-73 -161h-81l321 700h78zM382 612l-174 -381h347z" />
    <glyph glyph-name="Beta" unicode="&#x392;" horiz-adv-x="747" 
d="M646 298q42 -47 42 -114q0 -85 -66.5 -134.5t-181.5 -49.5h-342v700h329q106 0 167 -47t61 -129q0 -59 -32.5 -103.5t-90.5 -61.5q72 -14 114 -61zM175 630v-241h243q79 0 120 31.5t41 89.5q0 59 -43 89.5t-126 30.5h-235zM427 70q91 0 137.5 32t46.5 92q0 61 -47.5 93
t-135.5 32h-253v-249h252z" />
    <glyph glyph-name="Gamma" unicode="&#x393;" horiz-adv-x="610" 
d="M98 0v700h488v-69h-411v-631h-77z" />
    <glyph glyph-name="uni0394" unicode="&#x394;" horiz-adv-x="745" 
d="M334 700h77l312 -700h-701zM372 616l-240 -549h480z" />
    <glyph glyph-name="Epsilon" unicode="&#x395;" horiz-adv-x="689" 
d="M174 324v-255h463v-69h-539v700h529v-69h-453v-238h400v-69h-400z" />
    <glyph glyph-name="Zeta" unicode="&#x396;" horiz-adv-x="695" 
d="M635 0h-577v49l464 582h-453v69h562v-49l-464 -582h468v-69z" />
    <glyph glyph-name="Eta" unicode="&#x397;" horiz-adv-x="782" 
d="M606 386v314h78v-700h-78v316h-430v-316h-78v700h78v-314h430z" />
    <glyph glyph-name="Theta" unicode="&#x398;" horiz-adv-x="858" 
d="M242.5 36.5q-82.5 46.5 -129.5 128.5t-47 185t47 185t129.5 128.5t186.5 46.5t186.5 -46.5t129.5 -128.5t47 -185t-47 -185t-130 -128.5t-187 -46.5q-103 0 -185.5 46.5zM574 98.5q64 36.5 100 102t36 149.5t-36 150t-100 102.5t-145 36.5t-145 -36.5t-100 -102.5
t-36 -150t36 -149.5t100 -102t145 -36.5t145 36.5zM198 327v52h474v-52h-474z" />
    <glyph glyph-name="Iota" unicode="&#x399;" horiz-adv-x="273" 
d="M175 0h-77v700h77v-700z" />
    <glyph glyph-name="Kappa" unicode="&#x39a;" horiz-adv-x="723" 
d="M694 0h-91l-250 350l-178 -193v-157h-77v700h77v-445l404 445h97l-270 -293z" />
    <glyph glyph-name="Lambda" unicode="&#x39b;" horiz-adv-x="746" 
d="M22 0l313 700h76l313 -700h-82l-268 607h-2l-268 -607h-82z" />
    <glyph glyph-name="Mu" unicode="&#x39c;" horiz-adv-x="903" 
d="M452 234l282 466h71v-700h-77v558l-262 -423h-28l-263 423v-558h-77v700h71z" />
    <glyph glyph-name="Nu" unicode="&#x39d;" horiz-adv-x="793" 
d="M175 0h-77v700h67l453 -565v565h78v-700h-65l-456 568v-568z" />
    <glyph glyph-name="Xi" unicode="&#x39e;" horiz-adv-x="541" 
d="M490 635h-452v65h452v-65zM440 323h-360v62h360v-62zM490 0h-452v65h452v-65z" />
    <glyph glyph-name="Omicron" unicode="&#x39f;" horiz-adv-x="858" 
d="M242.5 36.5q-82.5 46.5 -129.5 128.5t-47 185t47 185t129.5 128.5t186.5 46.5t186.5 -46.5t129.5 -128.5t47 -185t-47 -185t-130 -128.5t-187 -46.5q-103 0 -185.5 46.5zM574 98.5q64 36.5 100 102t36 149.5t-36 150t-100 102.5t-145 36.5t-145 -36.5t-100 -102.5
t-36 -150t36 -149.5t100 -102t145 -36.5t145 36.5z" />
    <glyph glyph-name="Pi" unicode="&#x3a0;" horiz-adv-x="769" 
d="M672 700v-700h-78v635h-419v-635h-77v700h574z" />
    <glyph glyph-name="Rho" unicode="&#x3a1;" horiz-adv-x="684" 
d="M569 638q76 -62 76 -171q0 -111 -77 -173t-211 -62h-182v-232h-77v700h261q134 0 210 -62zM356 302q101 0 156.5 42.5t55.5 123.5q0 79 -55 121t-156 42h-182v-329h181z" />
    <glyph glyph-name="Sigma" unicode="&#x3a3;" horiz-adv-x="622" 
d="M570 0h-518v55l253 301l-253 289v55h516v-65h-421l237 -279l-237 -291h423v-65z" />
    <glyph glyph-name="Tau" unicode="&#x3a4;" horiz-adv-x="622" 
d="M29 700h563v-69h-243v-631h-78v631h-242v69z" />
    <glyph glyph-name="Upsilon" unicode="&#x3a5;" horiz-adv-x="678" 
d="M576 700h85l-283 -439v-261h-78v264l-283 436h86l237 -371z" />
    <glyph glyph-name="Phi" unicode="&#x3a6;" horiz-adv-x="896" 
d="M787.5 206q-42.5 -62 -120 -97t-181.5 -36v-78h-76v78q-104 1 -181.5 36t-120 97t-42.5 144t42.5 144t120 97t181.5 36v78h76v-78q104 -1 182 -36t120 -97t42 -144t-42.5 -144zM217.5 195q70.5 -58 192.5 -62v434q-122 -4 -192.5 -62t-70.5 -155t70.5 -155zM486 133
q122 3 192.5 61t70.5 156q0 97 -70.5 155t-192.5 62v-434z" />
    <glyph glyph-name="Chi" unicode="&#x3a7;" horiz-adv-x="700" 
d="M399 358l271 -358h-91l-228 300l-230 -300h-92l274 360l-260 340h92l215 -285l216 285h91z" />
    <glyph glyph-name="Psi" unicode="&#x3a8;" horiz-adv-x="786" 
d="M631 700h79v-224q0 -133 -69 -206t-211 -76v-194h-75v194q-141 4 -210 77t-69 206v223h78v-237q0 -208 201 -212v449h75v-449q101 1 151 55t50 156v238z" />
    <glyph glyph-name="uni03A9" unicode="&#x3a9;" horiz-adv-x="775" 
d="M685.5 271q-23.5 -58 -57 -99t-88.5 -96l-23 -22l162 6v-60h-231v52q20 29 64 81q40 46 63.5 79t39.5 79t16 106q0 71 -31 125.5t-86.5 84.5t-126.5 30t-126 -30t-86 -84.5t-31 -125.5q0 -60 16 -106t39.5 -79t63.5 -79q44 -52 64 -81v-52h-231v60l163 -6l-27 27
q-55 54 -88 94.5t-55.5 97.5t-22.5 131q0 83 38.5 151.5t111.5 108.5t172 40t171.5 -40t111 -108.5t38.5 -151.5q0 -75 -23.5 -133z" />
    <glyph glyph-name="Iotadieresis" unicode="&#x3aa;" horiz-adv-x="273" 
d="M175 0h-77v700h77v-700zM86 776h-57v110h57v-110zM243 776h-56v110h56v-110z" />
    <glyph glyph-name="Upsilondieresis" unicode="&#x3ab;" horiz-adv-x="678" 
d="M576 700h85l-283 -439v-261h-78v264l-283 436h86l237 -371zM284 776h-57v110h57v-110zM441 776h-56v110h56v-110z" />
    <glyph glyph-name="alphatonos" unicode="&#x3ac;" horiz-adv-x="698" 
d="M614 541l-12 -271l12 -270h-75l-3 143q-31 -73 -91 -113t-136 -40q-73 0 -131.5 36.5t-91.5 100t-33 142.5q0 81 33 145t91.5 100t131.5 36q75 0 135.5 -39.5t91.5 -111.5l3 142h75zM433.5 80q47.5 28 74 78t26.5 112q0 63 -26.5 112.5t-74 77.5t-106.5 28
q-58 0 -103.5 -28t-71 -77.5t-25.5 -112.5q0 -62 25.5 -112t71 -78t103.5 -28q59 0 106.5 28zM391 739l-31 -137h-47l11 137h67z" />
    <glyph glyph-name="epsilontonos" unicode="&#x3ad;" horiz-adv-x="531" 
d="M159 9.5q-49 19.5 -77.5 56t-28.5 85.5q0 46 25.5 77t70.5 47q-42 15 -65 45t-23 75q0 74 59 114.5t156 40.5q119 0 211 -65l-25 -54q-43 27 -86 41.5t-92 14.5q-69 0 -107.5 -26t-38.5 -72q0 -87 128 -87h108v-53h-108q-63 0 -99.5 -24t-36.5 -66q0 -44 40 -71.5
t107 -27.5q56 0 106 17.5t90 45.5l26 -59q-39 -32 -98.5 -53t-133.5 -21q-59 0 -108 19.5zM300 739l-31 -137h-47l11 137h67z" />
    <glyph glyph-name="etatonos" unicode="&#x3ae;" horiz-adv-x="655" 
d="M581 0h-1v-171h-74v480q0 81 -41.5 126.5t-116.5 45.5q-52 0 -95.5 -26t-69 -72t-25.5 -103v-280h-74v541h74v-97q32 48 85.5 77t121.5 29q98 0 157 -62t59 -169v-319zM364 739l-31 -137h-47l11 137h67z" />
    <glyph glyph-name="iotatonos" unicode="&#x3af;" horiz-adv-x="300" 
d="M234 -9q-77 0 -118.5 38.5t-41.5 134.5v377h75v-364q0 -70 24.5 -98t71.5 -28h34v-60h-45zM138 739l-31 -137h-47l11 137h67z" />
    <glyph glyph-name="upsilondieresistonos" unicode="&#x3b0;" horiz-adv-x="574" 
d="M55 541h76v-305q0 -186 153 -186q84 0 118 47t34 139v305h75v-317q0 -113 -57.5 -173.5t-169.5 -60.5q-105 0 -167 61.5t-62 172.5v317zM330 785l-29 -138h-37l11 138h55zM220 584h-49v102h49v-102zM403 584h-48v102h48v-102z" />
    <glyph glyph-name="alpha" unicode="&#x3b1;" horiz-adv-x="698" 
d="M614 541l-12 -271l12 -270h-75l-3 143q-31 -73 -91 -113t-136 -40q-73 0 -131.5 36.5t-91.5 100t-33 142.5q0 81 33 145t91.5 100t131.5 36q75 0 135.5 -39.5t91.5 -111.5l3 142h75zM433.5 80q47.5 28 74 78t26.5 112q0 63 -26.5 112.5t-74 77.5t-106.5 28
q-58 0 -103.5 -28t-71 -77.5t-25.5 -112.5q0 -62 25.5 -112t71 -78t103.5 -28q59 0 106.5 28z" />
    <glyph glyph-name="beta" unicode="&#x3b2;" horiz-adv-x="599" 
d="M90 548q0 77 48.5 121.5t139.5 44.5q49 0 93 -21t71.5 -62.5t27.5 -97.5q0 -43 -22 -80.5t-61 -59.5q44 -6 80.5 -33t58 -67.5t21.5 -87.5q0 -98 -60.5 -156t-168.5 -58q-84 0 -153 41v-203h-75v719zM165 95q31 -19 67.5 -30.5t70.5 -11.5q80 0 124 41.5t44 114.5
q0 41 -20.5 76.5t-56 56.5t-78.5 21h-78v52h42q48 1 80.5 31t34.5 75q0 37 -16 66t-43 45.5t-58 16.5q-48 0 -80.5 -24.5t-32.5 -76.5v-453z" />
    <glyph glyph-name="gamma" unicode="&#x3b3;" horiz-adv-x="581" 
d="M484 541h80l-237 -534v-178h-76v176l-234 536h79l193 -454z" />
    <glyph glyph-name="delta" unicode="&#x3b4;" horiz-adv-x="603" 
d="M212 682q134 -92 236 -212t102 -234q0 -70 -32 -126t-89 -87.5t-129 -31.5t-128 31.5t-87.5 87.5t-31.5 126q0 94 63.5 163.5t185.5 131.5q-75 71 -183 148v60h384v-57h-291zM390.5 77q39.5 24 62 65.5t22.5 93.5q0 115 -138 260q-113 -63 -161.5 -122t-48.5 -138
q0 -52 22 -94t61.5 -65.5t89.5 -23.5q51 0 90.5 24z" />
    <glyph glyph-name="epsilon" unicode="&#x3b5;" horiz-adv-x="531" 
d="M159 9.5q-49 19.5 -77.5 56t-28.5 85.5q0 46 25.5 77t70.5 47q-42 15 -65 45t-23 75q0 74 59 114.5t156 40.5q119 0 211 -65l-25 -54q-43 27 -86 41.5t-92 14.5q-69 0 -107.5 -26t-38.5 -72q0 -87 128 -87h108v-53h-108q-63 0 -99.5 -24t-36.5 -66q0 -44 40 -71.5
t107 -27.5q56 0 106 17.5t90 45.5l26 -59q-39 -32 -98.5 -53t-133.5 -21q-59 0 -108 19.5z" />
    <glyph glyph-name="zeta" unicode="&#x3b6;" horiz-adv-x="460" 
d="M326 72q71 -26 103.5 -52.5t32.5 -75.5q0 -47 -46 -115h-67q26 37 37.5 58t11.5 41q0 31 -25 50.5t-84 40.5l-95 32q-69 25 -110 63.5t-41 107.5q0 82 51.5 168.5t125 160t147.5 127.5h-281v60h359l-3 -59l3 -2q-75 -54 -150 -129t-125.5 -159.5t-50.5 -160.5
q0 -49 33 -76.5t84 -46.5z" />
    <glyph glyph-name="eta" unicode="&#x3b7;" horiz-adv-x="655" 
d="M581 0h-1v-171h-74v480q0 81 -41.5 126.5t-116.5 45.5q-52 0 -95.5 -26t-69 -72t-25.5 -103v-280h-74v541h74v-97q32 48 85.5 77t121.5 29q98 0 157 -62t59 -169v-319z" />
    <glyph glyph-name="theta" unicode="&#x3b8;" horiz-adv-x="647" 
d="M467.5 691.5q61.5 -48.5 94.5 -133.5t33 -193q0 -106 -32.5 -191.5t-94 -134.5t-144.5 -49t-144 48.5t-94 134t-33 193.5q0 105 32.5 190.5t93.5 134.5t145 49q82 0 143.5 -48.5zM220 637q-44 -38 -68.5 -102.5t-28.5 -144.5h400q-3 83 -28 147.5t-69 101t-103 36.5
t-103 -38zM427 93q44 38 68.5 102.5t28.5 144.5h-400q4 -83 29 -147.5t69 -101t102 -36.5q59 0 103 38z" />
    <glyph glyph-name="iota" unicode="&#x3b9;" horiz-adv-x="300" 
d="M234 -9q-77 0 -118.5 38.5t-41.5 134.5v377h75v-364q0 -70 24.5 -98t71.5 -28h34v-60h-45z" />
    <glyph glyph-name="kappa" unicode="&#x3ba;" horiz-adv-x="582" 
d="M552 0h-83l-192 236h-119v-236h-74v541h74v-238h120l175 238h84l-206 -267z" />
    <glyph glyph-name="lambda" unicode="&#x3bb;" horiz-adv-x="556" 
d="M17 0l229 516l-39 90q-19 47 -38.5 63.5t-52.5 16.5v52l21 1q36 0 58 -10.5t36 -31.5t31 -61l277 -636h-80l-179 413l-184 -413h-79z" />
    <glyph glyph-name="uni03BC" unicode="&#x3bc;" horiz-adv-x="655" 
d="M497 541h74v-541h-74v97q-32 -48 -85.5 -77t-121.5 -29q-85 0 -142 48l2 -210h-74v356q-2 24 -2 37v319h75v-309q0 -81 41.5 -126.5t116.5 -45.5q52 0 95.5 26t69 72t25.5 103v280z" />
    <glyph glyph-name="nu" unicode="&#x3bd;" horiz-adv-x="586" 
d="M333 0h-80l-236 541h82l194 -455l194 455h82z" />
    <glyph glyph-name="xi" unicode="&#x3be;" horiz-adv-x="485" 
d="M355 -172q24 30 36 52t12 44q0 21 -8.5 34t-31.5 24.5t-72 29.5l-95 35q-143 52 -143 176q0 71 41.5 122t116.5 64q-58 16 -92 59t-34 104q0 45 25.5 85.5t71.5 65.5t105 25q65 0 109 -14t88 -44l-26 -42q-40 26 -76 36.5t-86 10.5q-41 0 -72.5 -18t-49 -47t-17.5 -62
q0 -63 43 -98.5t110 -35.5h67v-54h-88q-69 0 -114 -41.5t-45 -106.5q0 -53 30.5 -85t71.5 -45l100 -36q70 -25 102.5 -51.5t32.5 -76.5q0 -28 -11.5 -54t-34.5 -56h-66z" />
    <glyph glyph-name="omicron" unicode="&#x3bf;" 
d="M190.5 26q-64.5 36 -101 100t-36.5 145q0 80 36.5 143.5t101.5 99.5t146 36q82 0 147 -36t101.5 -99t36.5 -143q0 -81 -36.5 -145t-101.5 -100.5t-147 -36.5t-146.5 36zM445.5 86q47.5 27 74.5 75t27 110t-27 110t-75 74.5t-108 26.5t-107.5 -26.5t-74.5 -74.5t-27 -110
t27 -110t75 -75t108 -27t107.5 27z" />
    <glyph glyph-name="pi" unicode="&#x3c0;" horiz-adv-x="653" 
d="M569 541v-541h-75v481h-336v-481h-74v541h485z" />
    <glyph glyph-name="rho" unicode="&#x3c1;" horiz-adv-x="706" 
d="M84 271q0 80 36.5 143.5t101.5 99.5t146 36t146 -36t102 -99.5t37 -142.5q0 -80 -37 -144.5t-102 -101t-146 -36.5q-76 0 -134.5 40t-81.5 106l6 -307h-74v442zM186 159q27 -50 75 -78t108 -28q59 0 107 28t75 78t27 112t-27 111.5t-75 77.5t-108 28t-107.5 -28
t-74.5 -77.5t-27 -111.5t27 -112z" />
    <glyph glyph-name="uni03C2" unicode="&#x3c2;" horiz-adv-x="565" 
d="M385 -171q26 37 37.5 58t11.5 41q0 31 -24.5 49.5t-84.5 41.5l-75 28q-197 73 -197 246q0 73 34.5 131.5t96 92t138.5 33.5q125 0 207 -86l-47 -43q-65 68 -159 68q-56 0 -100.5 -24.5t-69.5 -68t-25 -99.5q1 -79 48 -124.5t115 -72.5l71 -28q49 -19 76 -34t43.5 -37.5
t16.5 -56.5q0 -47 -46 -115h-67z" />
    <glyph glyph-name="sigma" unicode="&#x3c3;" horiz-adv-x="679" 
d="M674 477l-145 6q44 -38 68.5 -92.5t24.5 -118.5q0 -81 -36.5 -145t-101.5 -100.5t-147 -36.5t-146.5 36t-101 100t-36.5 145q0 80 36 143t100.5 99.5t145.5 36.5l339 1v-74zM520 381q-27 48 -75 74.5t-108 26.5t-107.5 -26.5t-74.5 -74.5t-27 -110t27 -110t75 -75
t108 -27t107.5 27t74.5 75t27 110t-27 110z" />
    <glyph glyph-name="tau" unicode="&#x3c4;" horiz-adv-x="454" 
d="M413 480h-175v-303q0 -70 24.5 -98t71.5 -28h34v-60h-45q-77 0 -118.5 38.5t-41.5 134.5v316h-124v61h374v-61z" />
    <glyph glyph-name="upsilon" unicode="&#x3c5;" horiz-adv-x="574" 
d="M55 541h76v-305q0 -186 153 -186q84 0 118 47t34 139v305h75v-317q0 -113 -57.5 -173.5t-169.5 -60.5q-105 0 -167 61.5t-62 172.5v317z" />
    <glyph glyph-name="phi" unicode="&#x3c6;" horiz-adv-x="778" 
d="M687 133q-38 -61 -106.5 -96.5t-154.5 -36.5v-170h-75v170q-87 1 -154.5 36t-105.5 96t-38 138t37.5 138t105.5 96t155 37v159h75v-159q87 -2 155 -37t106 -95.5t38 -137.5t-38 -138zM156 162.5q28 -47.5 78.5 -74.5t116.5 -28v421q-66 -1 -116.5 -28t-78.5 -74t-28 -108
t28 -108.5zM426 60q66 1 116.5 28t78.5 74t28 108t-28 108.5t-78.5 74.5t-116.5 28v-421z" />
    <glyph glyph-name="chi" unicode="&#x3c7;" horiz-adv-x="587" 
d="M339 193l220 -364h-84l-181 299l-182 -299h-83l220 364l-210 348h86l169 -284l168 284h87z" />
    <glyph glyph-name="psi" unicode="&#x3c8;" horiz-adv-x="760" 
d="M604 541h73v-279q0 -120 -71 -184t-195 -68v-181h-70v181q-118 5 -192.5 69.5t-74.5 182.5v279h72v-282q0 -82 53 -132t142 -54v468h70v-468q93 4 143 53t50 133v282z" />
    <glyph glyph-name="omega" unicode="&#x3c9;" horiz-adv-x="877" 
d="M76 390q23 73 72 151h77q-98 -151 -98 -287q0 -94 35 -147.5t104 -53.5q140 0 140 183v130h65v-130q0 -95 32.5 -139t107.5 -44q68 0 103 54.5t35 146.5q0 70 -24 140t-73 147h75q50 -81 73.5 -152.5t23.5 -145.5q0 -76 -25.5 -133.5t-71 -88.5t-105.5 -31
q-82 0 -126.5 38t-57.5 114q-29 -152 -182 -152q-60 0 -106 30.5t-71.5 87.5t-25.5 135q0 74 23 147z" />
    <glyph glyph-name="iotadieresis" unicode="&#x3ca;" horiz-adv-x="300" 
d="M234 -9q-77 0 -118.5 38.5t-41.5 134.5v377h75v-364q0 -70 24.5 -98t71.5 -28h34v-60h-45zM51 617h-57v110h57v-110zM208 617h-56v110h56v-110z" />
    <glyph glyph-name="upsilondieresis" unicode="&#x3cb;" horiz-adv-x="574" 
d="M55 541h76v-305q0 -186 153 -186q84 0 118 47t34 139v305h75v-317q0 -113 -57.5 -173.5t-169.5 -60.5q-105 0 -167 61.5t-62 172.5v317zM237 617h-57v110h57v-110zM394 617h-56v110h56v-110z" />
    <glyph glyph-name="omicrontonos" unicode="&#x3cc;" 
d="M190.5 26q-64.5 36 -101 100t-36.5 145q0 80 36.5 143.5t101.5 99.5t146 36q82 0 147 -36t101.5 -99t36.5 -143q0 -81 -36.5 -145t-101.5 -100.5t-147 -36.5t-146.5 36zM445.5 86q47.5 27 74.5 75t27 110t-27 110t-75 74.5t-108 26.5t-107.5 -26.5t-74.5 -74.5t-27 -110
t27 -110t75 -75t108 -27t107.5 27zM370 739l-31 -137h-47l11 137h67z" />
    <glyph glyph-name="upsilontonos" unicode="&#x3cd;" horiz-adv-x="574" 
d="M55 541h76v-305q0 -186 153 -186q84 0 118 47t34 139v305h75v-317q0 -113 -57.5 -173.5t-169.5 -60.5q-105 0 -167 61.5t-62 172.5v317zM324 739l-31 -137h-47l11 137h67z" />
    <glyph glyph-name="omegatonos" unicode="&#x3ce;" horiz-adv-x="877" 
d="M76 390q23 73 72 151h77q-98 -151 -98 -287q0 -94 35 -147.5t104 -53.5q140 0 140 183v130h65v-130q0 -95 32.5 -139t107.5 -44q68 0 103 54.5t35 146.5q0 70 -24 140t-73 147h75q50 -81 73.5 -152.5t23.5 -145.5q0 -76 -25.5 -133.5t-71 -88.5t-105.5 -31
q-82 0 -126.5 38t-57.5 114q-29 -152 -182 -152q-60 0 -106 30.5t-71.5 87.5t-25.5 135q0 74 23 147zM475 739l-31 -137h-47l11 137h67z" />
    <glyph glyph-name="uni0400" unicode="&#x400;" horiz-adv-x="689" 
d="M174 324v-255h463v-69h-539v700h529v-69h-453v-238h400v-69h-400zM373 759l-52 -7l-116 127l72 17z" />
    <glyph glyph-name="uni0401" unicode="&#x401;" horiz-adv-x="689" 
d="M174 324v-255h463v-69h-539v700h529v-69h-453v-238h400v-69h-400zM296 776h-57v110h57v-110zM453 776h-56v110h56v-110z" />
    <glyph glyph-name="uni0402" unicode="&#x402;" horiz-adv-x="779" 
d="M654 380.5q59 -64.5 59 -181.5v-33q0 -88 -48.5 -129.5t-122.5 -41.5q-45 0 -86 22l19 46q26 -16 56 -16q41 0 74 27.5t33 87.5v32q0 89 -44 139t-120 50q-91 0 -172 -32v-351h-78v636h-195v64h563v-64h-290v-226q103 35 194 35q99 0 158 -64.5z" />
    <glyph glyph-name="uni0403" unicode="&#x403;" horiz-adv-x="610" 
d="M98 0v700h488v-69h-411v-631h-77zM443 879l-116 -127l-52 7l96 137z" />
    <glyph glyph-name="uni0404" unicode="&#x404;" horiz-adv-x="724" 
d="M693 101q-49 -53 -117 -82t-148 -29q-101 0 -184 47.5t-130.5 129.5t-47.5 183t47 183t129.5 129.5t183.5 47.5q160 0 265 -107l-50 -50q-42 42 -93.5 64t-119.5 22q-73 0 -134 -32.5t-99 -90.5t-46 -130h372v-58h-373q5 -77 43 -138t100 -95t137 -34q128 0 215 89z" />
    <glyph glyph-name="uni0405" unicode="&#x405;" horiz-adv-x="635" 
d="M173 18q-72 28 -125 76l37 59q52 -43 115 -67t130 -24q82 0 127.5 33.5t45.5 86.5q0 38 -20 62t-59.5 39.5t-108.5 30.5q-126 28 -186 74t-60 130q0 59 33 102.5t90 66.5t129 23q131 0 238 -79l-42 -57q-42 30 -94.5 47.5t-106.5 17.5q-77 0 -121.5 -33t-44.5 -89
q0 -36 19 -60t59 -41t109 -33q89 -19 141.5 -42t79 -60t26.5 -95q0 -59 -33 -103.5t-91.5 -68.5t-134.5 -24q-80 0 -152 28z" />
    <glyph glyph-name="uni0406" unicode="&#x406;" horiz-adv-x="273" 
d="M175 0h-77v700h77v-700z" />
    <glyph glyph-name="uni0407" unicode="&#x407;" horiz-adv-x="273" 
d="M175 0h-77v700h77v-700zM86 776h-57v110h57v-110zM243 776h-56v110h56v-110z" />
    <glyph glyph-name="uni0408" unicode="&#x408;" horiz-adv-x="565" 
d="M115 24q-62 34 -96 92l51 46q30 -46 76 -73t101 -27q76 0 121.5 50.5t45.5 134.5v384h-256v69h331v-453q0 -77 -29.5 -135t-83.5 -90t-126 -32q-73 0 -135 34z" />
    <glyph glyph-name="uni0409" unicode="&#x409;" horiz-adv-x="1138" 
d="M803 468q134 0 211 -62t77 -173q0 -109 -76.5 -171t-210.5 -62h-226v635h-334l-7 -313q-4 -184 -59 -253.5t-149 -68.5v63q61 1 94 57t37 201l9 379h487v-232h147zM803 63q100 0 155.5 44.5t55.5 124.5q0 82 -56 127.5t-156 45.5h-146v-342h147z" />
    <glyph glyph-name="uni040A" unicode="&#x40a;" horiz-adv-x="1107" 
d="M777 433q131 0 207 -57.5t76 -158.5q0 -65 -34 -114t-97.5 -76t-149.5 -27h-219l2 2v362h-387v-364h-77v700h77v-271h387v271h77v-267h138zM777 57q98 0 152 42.5t54 113.5q0 73 -54 115t-153 42h-137v-313h138z" />
    <glyph glyph-name="uni040B" unicode="&#x40b;" horiz-adv-x="787" 
d="M654 382q59 -63 59 -173v-209h-75v194q0 86 -46 136.5t-122 50.5q-52 0 -91 -9t-77 -23v-349h-78v636h-195v64h563v-64h-290v-226q103 35 194 35q99 0 158 -63z" />
    <glyph glyph-name="uni040C" unicode="&#x40c;" horiz-adv-x="728" 
d="M503 879l-116 -127l-52 7l96 137zM649 0h-87l-244 315h-143v-315h-77v700h77v-314h143l224 314h89l-254 -344z" />
    <glyph glyph-name="uni040D" unicode="&#x40d;" horiz-adv-x="794" 
d="M696 700v-700h-78v568l-456 -568h-64v700h78v-565l453 565h67zM423 759l-52 -7l-116 127l72 17z" />
    <glyph glyph-name="uni040E" unicode="&#x40e;" horiz-adv-x="583" 
d="M484 699h77l-233 -525l-21 -50q-30 -68 -67.5 -97t-98.5 -29q-27 0 -58.5 8t-45.5 18l24 54q13 -8 35 -12.5t40 -4.5q37 0 60.5 19t42.5 63l15 33l-232 523h77l192 -445h1zM421 878q0 -59 -35 -94.5t-94 -35.5q-60 0 -95 35.5t-35 94.5h57q0 -84 73 -84q72 0 72 84h57z
" />
    <glyph glyph-name="uni040F" unicode="&#x40f;" horiz-adv-x="769" 
d="M594 65v635h78v-700h-250v-125h-78v125h-246v700h77v-635h419z" />
    <glyph glyph-name="uni0410" unicode="&#x410;" horiz-adv-x="765" 
d="M743 0h-83l-73 161h-411l-73 -161h-81l321 700h78zM382 612l-174 -381h347z" />
    <glyph glyph-name="uni0411" unicode="&#x411;" horiz-adv-x="728" 
d="M418 420q83 0 139.5 -29.5t84 -78t27.5 -104.5q0 -64 -31.5 -111t-86.5 -72t-126 -25h-327v700h474v-67h-397v-213h243zM408 67q83 0 133.5 36.5t50.5 111.5q0 65 -49.5 102t-127.5 37h-240v-287h233z" />
    <glyph glyph-name="uni0412" unicode="&#x412;" horiz-adv-x="747" 
d="M646 298q42 -47 42 -114q0 -85 -66.5 -134.5t-181.5 -49.5h-342v700h329q106 0 167 -47t61 -129q0 -59 -32.5 -103.5t-90.5 -61.5q72 -14 114 -61zM175 630v-241h243q79 0 120 31.5t41 89.5q0 59 -43 89.5t-126 30.5h-235zM427 70q91 0 137.5 32t46.5 92q0 61 -47.5 93
t-135.5 32h-253v-249h252z" />
    <glyph glyph-name="uni0413" unicode="&#x413;" horiz-adv-x="610" 
d="M98 0v700h488v-69h-411v-631h-77z" />
    <glyph glyph-name="uni0414" unicode="&#x414;" horiz-adv-x="780" 
d="M750 -119h-78v119h-565v-119h-78v184h51q27 1 43.5 14t28.5 67.5t16 170.5l12 383h456v-635h114v-184zM559 65v570h-304l-10 -326q-5 -175 -43 -244h357z" />
    <glyph glyph-name="uni0415" unicode="&#x415;" horiz-adv-x="689" 
d="M174 324v-255h463v-69h-539v700h529v-69h-453v-238h400v-69h-400z" />
    <glyph glyph-name="uni0416" unicode="&#x416;" horiz-adv-x="987" 
d="M957 0h-87l-244 315h-95v-315h-78v315h-95l-242 -315h-87l270 356l-252 344h90l220 -314h96v314h78v-314h96l223 314h89l-253 -345z" />
    <glyph glyph-name="uni0417" unicode="&#x417;" horiz-adv-x="636" 
d="M466.5 393.5q51.5 -25.5 80 -72t28.5 -105.5q0 -66 -33.5 -117.5t-92 -80t-130.5 -28.5q-77 0 -145 29t-113 77l36 48q38 -40 99.5 -66t118.5 -26q52 0 94 21t65.5 58.5t23.5 84.5q0 63 -44 105t-114 43q-25 1 -63.5 -1t-62.5 -6l-2 41l227 239h-335v63h434l5 -50
l-237 -235q21 4 44 4q65 0 116.5 -25.5z" />
    <glyph glyph-name="uni0418" unicode="&#x418;" horiz-adv-x="794" 
d="M696 700v-700h-78v568l-456 -568h-64v700h78v-565l453 565h67z" />
    <glyph glyph-name="uni0419" unicode="&#x419;" horiz-adv-x="794" 
d="M696 700v-700h-78v568l-456 -568h-64v700h78v-565l453 565h67zM526 879q0 -59 -35 -94.5t-94 -35.5q-60 0 -95 35.5t-35 94.5h57q0 -84 73 -84q72 0 72 84h57z" />
    <glyph glyph-name="uni041A" unicode="&#x41a;" horiz-adv-x="678" 
d="M649 0h-87l-244 315h-143v-315h-77v700h77v-314h143l224 314h89l-254 -344z" />
    <glyph glyph-name="uni041B" unicode="&#x41b;" horiz-adv-x="781" 
d="M683 0h-77v635h-362l-7 -313q-4 -184 -59 -253.5t-149 -68.5v63q61 1 94 57t37 201l9 379h514v-700z" />
    <glyph glyph-name="uni041C" unicode="&#x41c;" horiz-adv-x="903" 
d="M452 234l282 466h71v-700h-77v558l-262 -423h-28l-263 423v-558h-77v700h71z" />
    <glyph glyph-name="uni041D" unicode="&#x41d;" horiz-adv-x="782" 
d="M606 386v314h78v-700h-78v316h-430v-316h-78v700h78v-314h430z" />
    <glyph glyph-name="uni041E" unicode="&#x41e;" horiz-adv-x="858" 
d="M242.5 36.5q-82.5 46.5 -129.5 128.5t-47 185t47 185t129.5 128.5t186.5 46.5t186.5 -46.5t129.5 -128.5t47 -185t-47 -185t-130 -128.5t-187 -46.5q-103 0 -185.5 46.5zM574 98.5q64 36.5 100 102t36 149.5t-36 150t-100 102.5t-145 36.5t-145 -36.5t-100 -102.5
t-36 -150t36 -149.5t100 -102t145 -36.5t145 36.5z" />
    <glyph glyph-name="uni041F" unicode="&#x41f;" horiz-adv-x="769" 
d="M672 700v-700h-78v635h-419v-635h-77v700h574z" />
    <glyph glyph-name="uni0420" unicode="&#x420;" horiz-adv-x="684" 
d="M569 638q76 -62 76 -171q0 -111 -77 -173t-211 -62h-182v-232h-77v700h261q134 0 210 -62zM356 302q101 0 156.5 42.5t55.5 123.5q0 79 -55 121t-156 42h-182v-329h181z" />
    <glyph glyph-name="uni0421" unicode="&#x421;" horiz-adv-x="724" 
d="M244 37.5q-83 47.5 -130.5 129.5t-47.5 183t47 183t129.5 129.5t183.5 47.5q160 0 265 -107l-50 -50q-42 42 -93.5 64t-119.5 22q-79 0 -143.5 -38t-101 -104t-36.5 -146q0 -83 37 -149t101.5 -103.5t142.5 -37.5q128 0 215 89l50 -49q-49 -53 -117 -82t-148 -29
q-101 0 -184 47.5z" />
    <glyph glyph-name="uni0422" unicode="&#x422;" horiz-adv-x="622" 
d="M29 700h563v-69h-243v-631h-78v631h-242v69z" />
    <glyph glyph-name="uni0423" unicode="&#x423;" horiz-adv-x="583" 
d="M484 699h77l-233 -525l-21 -50q-30 -68 -67.5 -97t-98.5 -29q-27 0 -58.5 8t-45.5 18l24 54q13 -8 35 -12.5t40 -4.5q37 0 60.5 19t42.5 63l15 33l-232 523h77l192 -445h1z" />
    <glyph glyph-name="uni0424" unicode="&#x424;" horiz-adv-x="896" 
d="M787.5 206q-42.5 -62 -120 -97t-181.5 -36v-78h-76v78q-104 1 -181.5 36t-120 97t-42.5 144t42.5 144t120 97t181.5 36v78h76v-78q104 -1 182 -36t120 -97t42 -144t-42.5 -144zM217.5 195q70.5 -58 192.5 -62v434q-122 -4 -192.5 -62t-70.5 -155t70.5 -155zM486 133
q122 3 192.5 61t70.5 156q0 97 -70.5 155t-192.5 62v-434z" />
    <glyph glyph-name="uni0425" unicode="&#x425;" horiz-adv-x="700" 
d="M399 358l271 -358h-91l-228 300l-230 -300h-92l274 360l-260 340h92l215 -285l216 285h91z" />
    <glyph glyph-name="uni0426" unicode="&#x426;" horiz-adv-x="791" 
d="M761 67v-184h-78v119h-11v-2h-574v700h77v-635h419v635h78v-633h89z" />
    <glyph glyph-name="uni0427" unicode="&#x427;" horiz-adv-x="696" 
d="M520 700h78v-700h-78v268q-117 -39 -227 -39q-65 0 -114 28.5t-76 82t-27 125.5v235h75v-219q0 -86 46 -136.5t122 -50.5q67 0 114 10.5t87 25.5v370z" />
    <glyph glyph-name="uni0428" unicode="&#x428;" horiz-adv-x="1018" 
d="M842 65v635h79v-700h-823v700h77v-635h295v635h78v-635h294z" />
    <glyph glyph-name="uni0429" unicode="&#x429;" horiz-adv-x="1031" 
d="M1002 65v-184h-78v119h-826v700h77v-635h295v635h78v-635h294v635h79v-635h81z" />
    <glyph glyph-name="uni042A" unicode="&#x42a;" horiz-adv-x="753" 
d="M412 474q89 0 154 -29.5t100 -83.5t35 -128q0 -109 -76.5 -171t-210.5 -62h-261v633h-124v67h202v-226h181zM412 68q100 0 155.5 44t55.5 120q0 82 -55.5 127.5t-155.5 45.5h-181v-337h181z" />
    <glyph glyph-name="uni042B" unicode="&#x42b;" horiz-adv-x="953" 
d="M363 474q89 0 154 -29.5t100 -83.5t35 -128q0 -109 -76.5 -171t-210.5 -62h-261v700h78v-226h181zM364 68q99 0 154.5 44t55.5 120q0 82 -55.5 127.5t-155.5 45.5h-181v-337h182zM863 0h-74v738h74v-738z" />
    <glyph glyph-name="uni042C" unicode="&#x42c;" horiz-adv-x="699" 
d="M363 474q89 0 154 -29.5t100 -83.5t35 -128q0 -109 -76.5 -171t-210.5 -62h-261v700h78v-226h181zM364 68q99 0 154.5 44t55.5 120q0 82 -55.5 127.5t-155.5 45.5h-181v-337h182z" />
    <glyph glyph-name="uni042D" unicode="&#x42d;" horiz-adv-x="724" 
d="M481.5 662.5q82.5 -47.5 129.5 -129.5t47 -183t-47.5 -183t-130.5 -129.5t-184 -47.5q-80 0 -148 29t-117 82l50 49q87 -89 215 -89q75 0 137 34t100 95t43 138h-373v58h372q-8 72 -46 130t-99 90.5t-134 32.5q-68 0 -119.5 -22t-93.5 -64l-50 50q105 107 265 107
q101 0 183.5 -47.5z" />
    <glyph glyph-name="uni042E" unicode="&#x42e;" horiz-adv-x="1133" 
d="M890.5 663.5q82.5 -46.5 129.5 -128.5t47 -185t-47 -185t-129.5 -128.5t-186.5 -46.5q-99 0 -179 42t-128.5 117.5t-54.5 171.5h-167v-321h-77v700h77v-314h168q8 94 56 168t127.5 115t177.5 41q104 0 186.5 -46.5zM849.5 94.5q64.5 37.5 101 104.5t36.5 151t-36.5 151
t-101 105t-145.5 38t-146 -38t-101.5 -105t-36.5 -151t36.5 -151t101 -104.5t146.5 -37.5q81 0 145.5 37.5z" />
    <glyph glyph-name="uni042F" unicode="&#x42f;" horiz-adv-x="704" 
d="M606 0h-77v255h-157l-230 -255h-98l231 258q-109 13 -167.5 69t-58.5 150q0 107 74.5 165t211.5 58h271v-700zM529 324v307h-192q-103 0 -157 -39t-54 -116q0 -152 212 -152h191z" />
    <glyph glyph-name="uni0430" unicode="&#x430;" horiz-adv-x="580" 
d="M447.5 494.5q58.5 -55.5 58.5 -158.5v-336h-75v102q-26 -45 -80.5 -78.5t-127.5 -33.5q-86 0 -136.5 46t-50.5 120q0 78 53 125t159 47q80 0 183 -11v18q0 72 -41.5 109.5t-121.5 37.5q-43 0 -87 -15.5t-79 -44.5l-38 55q44 37 99 55t112 18q114 0 172.5 -55.5zM340.5 85
q42.5 26 66.5 67.5t24 84.5v16q-76 12 -166 12q-157 0 -157 -105q0 -49 36 -75t102 -26q52 0 94.5 26z" />
    <glyph glyph-name="uni0431" unicode="&#x431;" horiz-adv-x="651" 
d="M127 81q-74 91 -74 258q0 332 296 370l39 5q41 4 66 8.5t51 12.5v-62q-25 -9 -58.5 -13t-40.5 -5q-24 -1 -54 -6q-125 -18 -174.5 -99.5t-44.5 -203.5q12 38 42.5 73t77 56.5t103.5 21.5q71 0 126.5 -34.5t86 -93t30.5 -128.5q0 -77 -32.5 -134t-91.5 -87t-135 -30
q-139 0 -213 91zM473.5 103q50.5 50 50.5 137q0 52 -24 95.5t-67.5 69t-97.5 25.5q-47 0 -92 -23t-73.5 -64t-28.5 -93q0 -39 19 -84.5t63.5 -79t117.5 -33.5q82 0 132.5 50z" />
    <glyph glyph-name="uni0432" unicode="&#x432;" horiz-adv-x="605" 
d="M517 232q35 -36 35 -89q0 -67 -53.5 -105t-146.5 -38h-268v541h256q86 0 135.5 -36.5t49.5 -99.5q0 -47 -28 -80t-78 -47q63 -10 98 -46zM158 473v-167h181q53 0 82.5 22t29.5 63q0 38 -30 60t-89 22h-174zM349 68q61 0 93.5 22t32.5 63q0 39 -32.5 61t-88.5 22h-196
v-168h191z" />
    <glyph glyph-name="uni0433" unicode="&#x433;" horiz-adv-x="483" 
d="M84 0v541h378v-60h-304v-481h-74z" />
    <glyph glyph-name="uni0434" unicode="&#x434;" horiz-adv-x="648" 
d="M521 60h49v-139h-77v79h-393v-79h-77v139h29q15 0 30 17t25.5 52t12.5 84l10 328h391v-481zM447 481h-245l-8 -261q-3 -106 -47 -160h300v421z" />
    <glyph glyph-name="uni0435" unicode="&#x435;" horiz-adv-x="618" 
d="M129 242q7 -82 65.5 -132.5t146.5 -50.5q101 0 160 66l49 -44q-40 -43 -93.5 -66.5t-119.5 -23.5q-82 0 -146.5 36t-101 99.5t-36.5 144.5q0 80 34.5 143.5t97.5 99.5t144 36q73 0 130 -33t89 -93t32 -137q0 -18 -4 -45h-447zM193.5 434q-53.5 -48 -63.5 -127h377
q-8 84 -55.5 129.5t-122.5 45.5q-82 0 -135.5 -48z" />
    <glyph glyph-name="uni0436" unicode="&#x436;" horiz-adv-x="822" 
d="M802 0h-84l-189 236h-81v-236h-73v236h-82l-190 -236h-83l219 278l-203 263h83l171 -233h85v233h73v-233h84l170 233h84l-203 -263z" />
    <glyph glyph-name="uni0437" unicode="&#x437;" horiz-adv-x="531" 
d="M130.5 11.5q-59.5 21.5 -97.5 52.5l25 59q40 -28 90 -45.5t106 -17.5q67 0 107 27.5t40 71.5q0 42 -36.5 66t-99.5 24h-108v53h108q128 0 128 87q0 46 -38.5 72t-107.5 26q-48 0 -91.5 -14.5t-86.5 -41.5l-25 54q92 65 211 65q97 0 156 -40.5t59 -114.5q0 -45 -23 -75
t-65 -45q45 -16 70.5 -47t25.5 -77q0 -49 -28.5 -85.5t-77.5 -56t-108 -19.5q-74 0 -133.5 21.5z" />
    <glyph glyph-name="uni0438" unicode="&#x438;" horiz-adv-x="651" 
d="M567 541v-541h-75v423l-358 -423h-60v541h75v-421l356 421h62z" />
    <glyph glyph-name="uni0439" unicode="&#x439;" horiz-adv-x="651" 
d="M567 541v-541h-75v423l-358 -423h-60v541h75v-421l356 421h62zM468 720q0 -59 -35 -94.5t-94 -35.5q-60 0 -95 35.5t-35 94.5h57q0 -84 73 -84q72 0 72 84h57z" />
    <glyph glyph-name="uni043A" unicode="&#x43a;" horiz-adv-x="582" 
d="M552 0h-83l-192 236h-119v-236h-74v541h74v-238h120l175 238h84l-206 -267z" />
    <glyph glyph-name="uni043B" unicode="&#x43b;" horiz-adv-x="598" 
d="M514 0h-75v481h-258l-6 -276q-1 -81 -18.5 -125.5t-50 -62t-85.5 -17.5v56q41 1 59.5 36t19.5 119l8 330h406v-541z" />
    <glyph glyph-name="uni043C" unicode="&#x43c;" horiz-adv-x="759" 
d="M674 541l1 -541h-75v416l-210 -303h-21l-210 303v-416h-75v541h73l222 -323l222 323h73z" />
    <glyph glyph-name="uni043D" unicode="&#x43d;" horiz-adv-x="653" 
d="M494 309v232h75v-541h-75v242h-336v-242h-74v541h74v-232h336z" />
    <glyph glyph-name="uni043E" unicode="&#x43e;" 
d="M190.5 26q-64.5 36 -101 100t-36.5 145q0 80 36.5 143.5t101.5 99.5t146 36q82 0 147 -36t101.5 -99t36.5 -143q0 -81 -36.5 -145t-101.5 -100.5t-147 -36.5t-146.5 36zM445.5 86q47.5 27 74.5 75t27 110t-27 110t-75 74.5t-108 26.5t-107.5 -26.5t-74.5 -74.5t-27 -110
t27 -110t75 -75t108 -27t107.5 27z" />
    <glyph glyph-name="uni043F" unicode="&#x43f;" horiz-adv-x="653" 
d="M569 541v-541h-75v481h-336v-481h-74v541h485z" />
    <glyph glyph-name="uni0440" unicode="&#x440;" horiz-adv-x="693" 
d="M510.5 514q60.5 -36 95 -100.5t34.5 -144.5q0 -81 -34.5 -144.5t-94.5 -99t-134 -35.5q-70 0 -127.5 29t-91.5 83v-273h-74v712h74v-102q34 53 92 82t127 29q73 0 133.5 -36zM469 86.5q46 26.5 71.5 74t25.5 108.5q0 62 -25.5 110t-71.5 75t-103 27q-60 0 -107 -26.5
t-74 -74.5t-27 -110t27 -110t74 -74t107 -26q57 0 103 26.5z" />
    <glyph glyph-name="uni0441" unicode="&#x441;" horiz-adv-x="577" 
d="M192 26q-65 36 -102 99.5t-37 144.5t37 144.5t102 99.5t145 36q60 0 113.5 -21.5t93.5 -64.5l-54 -46q-32 34 -70 49t-84 15q-59 0 -106.5 -26t-74.5 -74t-27 -111q0 -64 27 -112t75 -74t108 -26q46 0 83 15.5t70 49.5l53 -45q-40 -44 -93.5 -66.5t-113.5 -22.5
q-80 0 -145 36z" />
    <glyph glyph-name="uni0442" unicode="&#x442;" horiz-adv-x="541" 
d="M39 541h463v-69h-194v-472h-75v472h-194v69z" />
    <glyph glyph-name="uni0443" unicode="&#x443;" horiz-adv-x="592" 
d="M493 541h82l-236 -541l-22 -51q-30 -69 -71.5 -99.5t-106.5 -30.5q-28 0 -57.5 8.5t-48.5 20.5l24 55q38 -20 79 -20q39 0 63 19.5t45 64.5l15 34l-236 540h82l194 -455z" />
    <glyph glyph-name="uni0444" unicode="&#x444;" horiz-adv-x="778" 
d="M687 133q-38 -61 -106.5 -96.5t-154.5 -36.5v-170h-75v170q-87 1 -154.5 36t-105.5 96t-38 138t37.5 138t105.5 96t155 37v159h75v-159q87 -2 155 -37t106 -95.5t38 -137.5t-38 -138zM156 162.5q28 -47.5 78.5 -74.5t116.5 -28v421q-66 -1 -116.5 -28t-78.5 -74t-28 -108
t28 -108.5zM426 60q66 1 116.5 28t78.5 74t28 108t-28 108.5t-78.5 74.5t-116.5 28v-421z" />
    <glyph glyph-name="uni0445" unicode="&#x445;" horiz-adv-x="590" 
d="M340 277l221 -277h-87l-180 224l-180 -224h-85l221 276l-212 265h89l168 -214l168 214h87z" />
    <glyph glyph-name="uni0446" unicode="&#x446;" horiz-adv-x="632" 
d="M544 541v-481h61v-139h-70v79h-451v541h74v-481h311v481h75z" />
    <glyph glyph-name="uni0447" unicode="&#x447;" horiz-adv-x="641" 
d="M482 541h75v-541h-75v213q-45 -22 -91.5 -37t-107.5 -15q-97 0 -153 62t-56 171v147h75v-134q0 -83 43.5 -132t119.5 -49q88 0 170 48v267z" />
    <glyph glyph-name="uni0448" unicode="&#x448;" horiz-adv-x="824" 
d="M665 60v481h75v-541h-656v541h74v-481h217v481h74v-481h216z" />
    <glyph glyph-name="uni0449" unicode="&#x449;" horiz-adv-x="813" 
d="M725 541v-481h61v-139h-70v79h-632v541h74v-481h209v481h75v-481h208v481h75z" />
    <glyph glyph-name="uni044A" unicode="&#x44a;" horiz-adv-x="651" 
d="M361 368q111 0 174 -49t63 -136q0 -85 -63 -134t-173 -49h-215v483h-108v58h182v-173h140zM361 61q76 0 119 32t43 90q0 59 -43 91.5t-120 32.5h-139v-246h140z" />
    <glyph glyph-name="uni044B" unicode="&#x44b;" horiz-adv-x="830" 
d="M298 368q111 0 174.5 -49t63.5 -136q0 -85 -63 -134t-173 -49h-216v541h74v-173h140zM298 61q76 0 119 32t43 90q0 59 -43 91.5t-120 32.5h-139v-246h140zM746 0h-74v541h74v-541z" />
    <glyph glyph-name="uni044C" unicode="&#x44c;" horiz-adv-x="588" 
d="M298 368q111 0 174.5 -49t63.5 -136q0 -85 -63 -134t-173 -49h-216v541h74v-173h140zM298 61q76 0 119 32t43 90q0 59 -43 91.5t-120 32.5h-139v-246h140z" />
    <glyph glyph-name="uni044D" unicode="&#x44d;" horiz-adv-x="577" 
d="M385 514q65 -36 102 -99.5t37 -144.5t-37 -144.5t-102 -99.5t-145 -36q-60 0 -113.5 22.5t-93.5 66.5l53 45q33 -34 70 -49.5t83 -15.5q83 0 140.5 48t67.5 130h-249v60h250q-9 85 -66 135t-141 50q-46 0 -84 -15t-70 -49l-54 46q40 43 93.5 64.5t113.5 21.5
q80 0 145 -36z" />
    <glyph glyph-name="uni044E" unicode="&#x44e;" horiz-adv-x="927" 
d="M736 514q65 -36 102 -99.5t37 -142.5q0 -80 -37 -144.5t-102 -101t-147 -36.5q-76 0 -137.5 31.5t-99.5 88t-45 128.5h-149v-238h-74v541h74v-234h149q8 71 46 126t99.5 86t136.5 31q82 0 147 -36zM697.5 86q47.5 27 74.5 75t27 110t-27 110t-75 74.5t-108 26.5
t-107.5 -26.5t-74.5 -74.5t-27 -110t27 -110t75 -75t108 -27t107.5 27z" />
    <glyph glyph-name="uni044F" unicode="&#x44f;" horiz-adv-x="591" 
d="M507 541v-541h-74v192h-134l-181 -192h-88l184 197q-77 12 -121 57t-44 114q0 80 61 126.5t163 46.5h234zM433 261v211h-161q-67 0 -107.5 -27t-40.5 -80q0 -54 41 -79t108 -25h160z" />
    <glyph glyph-name="uni0450" unicode="&#x450;" horiz-adv-x="618" 
d="M129 242q7 -82 65.5 -132.5t146.5 -50.5q101 0 160 66l49 -44q-40 -43 -93.5 -66.5t-119.5 -23.5q-82 0 -146.5 36t-101 99.5t-36.5 144.5q0 80 34.5 143.5t97.5 99.5t144 36q73 0 130 -33t89 -93t32 -137q0 -18 -4 -45h-447zM193.5 434q-53.5 -48 -63.5 -127h377
q-8 84 -55.5 129.5t-122.5 45.5q-82 0 -135.5 -48zM342 600l-52 -7l-116 127l72 17z" />
    <glyph glyph-name="uni0451" unicode="&#x451;" horiz-adv-x="618" 
d="M129 242q7 -82 65.5 -132.5t146.5 -50.5q101 0 160 66l49 -44q-40 -43 -93.5 -66.5t-119.5 -23.5q-82 0 -146.5 36t-101 99.5t-36.5 144.5q0 80 34.5 143.5t97.5 99.5t144 36q73 0 130 -33t89 -93t32 -137q0 -18 -4 -45h-447zM193.5 434q-53.5 -48 -63.5 -127h377
q-8 84 -55.5 129.5t-122.5 45.5q-82 0 -135.5 -48zM265 617h-57v110h57v-110zM422 617h-56v110h56v-110z" />
    <glyph glyph-name="uni0452" unicode="&#x452;" horiz-adv-x="722" 
d="M583.5 459q55.5 -62 55.5 -171v-329q0 -67 -40.5 -101t-107.5 -34q-44 0 -86 22l19 46q26 -16 56 -16q37 0 61 22.5t24 66.5v310q0 84 -44 133t-119 49q-89 0 -171 -50v-407h-75v612h-74v44h74v82h75v-82h120v-44h-120v-143q44 22 91.5 37t108.5 15q97 0 152.5 -62z" />
    <glyph glyph-name="uni0453" unicode="&#x453;" horiz-adv-x="483" 
d="M84 0v541h378v-60h-304v-481h-74zM416 720l-116 -127l-52 7l96 137z" />
    <glyph glyph-name="uni0454" unicode="&#x454;" horiz-adv-x="577" 
d="M421 74.5q37 15.5 70 49.5l53 -45q-40 -44 -93.5 -66.5t-113.5 -22.5q-80 0 -145 36t-102 99.5t-37 144.5t37 144.5t102 99.5t145 36q60 0 113.5 -21.5t93.5 -64.5l-54 -46q-32 34 -70 49t-84 15q-84 0 -141 -50t-66 -135h250v-60h-249q10 -82 67.5 -130t140.5 -48
q46 0 83 15.5z" />
    <glyph glyph-name="uni0455" unicode="&#x455;" horiz-adv-x="526" 
d="M140.5 11q-60.5 20 -103.5 51l32 62q45 -31 96 -47.5t102 -16.5q67 0 104.5 22.5t37.5 65.5q0 38 -33.5 58t-119.5 36q-76 14 -120 34.5t-62.5 49.5t-18.5 71q0 71 53 111.5t147 40.5q55 0 114 -15.5t95 -41.5l-31 -63q-35 24 -84 37.5t-99 13.5q-56 0 -87.5 -20
t-31.5 -57q0 -34 31 -54t115 -36q79 -16 124 -38t64 -52t19 -73q0 -75 -59.5 -117t-161.5 -42q-62 0 -122.5 20z" />
    <glyph glyph-name="uni0456" unicode="&#x456;" horiz-adv-x="242" 
d="M158 0h-74v541h74v-541zM161 617h-79v110h79v-110z" />
    <glyph glyph-name="uni0457" unicode="&#x457;" horiz-adv-x="242" 
d="M158 0h-74v541h74v-541zM70 617h-57v110h57v-110zM227 617h-56v110h56v-110z" />
    <glyph glyph-name="uni0458" unicode="&#x458;" horiz-adv-x="255" 
d="M-44 -92q23 -14 54 -14q39 0 62.5 22t23.5 63v562h75v-568q0 -71 -42.5 -109t-110.5 -38q-42 0 -84 21zM173 617h-79v110h79v-110z" />
    <glyph glyph-name="uni0459" unicode="&#x459;" horiz-adv-x="901" 
d="M612 368q111 0 174 -49t63 -136q0 -86 -61.5 -134.5t-171.5 -48.5h-184v481h-251l-6 -276q-1 -81 -18.5 -125.5t-50 -62t-85.5 -17.5v56q41 1 59.5 36t19.5 119l8 330h397v-173h107zM614 58q76 0 119 32.5t43 92.5t-43 93.5t-120 33.5h-108v-252h109z" />
    <glyph glyph-name="uni045A" unicode="&#x45a;" horiz-adv-x="963" 
d="M673 346q72 0 126 -21.5t82.5 -61t28.5 -90.5q0 -81 -61.5 -127t-171.5 -46h-183v254h-336v-254h-74v541h74v-225h336v225h75v-195h104zM675 56q76 0 119.5 31t43.5 84t-43.5 84.5t-120.5 31.5h-105v-231h106z" />
    <glyph glyph-name="uni045B" unicode="&#x45b;" horiz-adv-x="671" 
d="M541.5 459q55.5 -62 55.5 -171v-288h-75v275q0 84 -44 133t-119 49q-55 0 -99.5 -16t-70.5 -34v-407h-75v612h-75v44h75v82h75v-82h119v-44h-119v-143q101 52 199 52t153.5 -62z" />
    <glyph glyph-name="uni045C" unicode="&#x45c;" horiz-adv-x="599" 
d="M438 720l-116 -127l-52 7l96 137zM552 0h-83l-192 236h-119v-236h-74v541h74v-238h120l175 238h84l-206 -267z" />
    <glyph glyph-name="uni045D" unicode="&#x45d;" horiz-adv-x="651" 
d="M567 541v-541h-75v423l-358 -423h-60v541h75v-421l356 421h62zM364 600l-52 -7l-116 127l72 17z" />
    <glyph glyph-name="uni045E" unicode="&#x45e;" horiz-adv-x="592" 
d="M493 541h82l-236 -541l-22 -51q-30 -69 -71.5 -99.5t-106.5 -30.5q-28 0 -57.5 8.5t-48.5 20.5l24 55q38 -20 79 -20q39 0 63 19.5t45 64.5l15 34l-236 540h82l194 -455zM450 720q0 -59 -35 -94.5t-94 -35.5q-60 0 -95 35.5t-35 94.5h57q0 -84 73 -84q72 0 72 84h57z" />
    <glyph glyph-name="uni045F" unicode="&#x45f;" horiz-adv-x="653" 
d="M494 60v481h75v-541h-213v-120h-75v120h-197v541h74v-481h336z" />
    <glyph glyph-name="uni0474" unicode="&#x474;" horiz-adv-x="743" 
d="M335 0l-313 700h82l268 -607h2l171 412q83 210 193 210v-78q-33 -1 -63 -41t-64 -120l-200 -476h-76z" />
    <glyph glyph-name="uni0474" unicode="&#x475;" horiz-adv-x="743" 
d="M335 0l-313 700h82l268 -607h2l171 412q83 210 193 210v-78q-33 -1 -63 -41t-64 -120l-200 -476h-76z" />
    <glyph glyph-name="uni0490" unicode="&#x490;" horiz-adv-x="610" 
d="M576 830v-130h10v-69h-411v-631h-77v700h400v130h78z" />
    <glyph glyph-name="uni0491" unicode="&#x491;" horiz-adv-x="483" 
d="M389 541v106h73v-166h-304v-481h-74v541h305z" />
    <glyph glyph-name="uni04D9" unicode="&#x4d9;" horiz-adv-x="618" 
d="M427.5 514q64.5 -36 101 -99.5t36.5 -144.5q0 -80 -34.5 -143.5t-97.5 -99.5t-144 -36q-73 0 -130 33t-89 93t-32 137q0 18 4 45h447q-7 82 -65.5 132.5t-146.5 50.5q-101 0 -160 -66l-49 44q40 43 93.5 66.5t119.5 23.5q82 0 146.5 -36zM424.5 107q53.5 48 63.5 127
h-377q8 -84 55.5 -129.5t122.5 -45.5q82 0 135.5 48z" />
    <glyph glyph-name="uni1E0C" unicode="&#x1e0c;" horiz-adv-x="818" 
d="M98 0v700h277q114 0 199 -43t131.5 -122t46.5 -184q0 -106 -46 -185.5t-131.5 -122.5t-199.5 -43h-277zM371 69q91 0 159 34t104.5 97.5t36.5 149.5q0 87 -36.5 150t-104.5 97t-160 34h-195v-562h196zM336 -160v110h79v-110h-79z" />
    <glyph glyph-name="uni1E0D" unicode="&#x1e0d;" horiz-adv-x="700" 
d="M535 738h75v-738h-75v100q-35 -53 -92 -81.5t-126 -28.5q-73 0 -133.5 36.5t-95 100.5t-34.5 144q0 82 34.5 145.5t94.5 98.5t134 35q70 0 127 -28.5t91 -81.5v298zM435 85.5q47 26.5 73.5 75t26.5 110.5t-26.5 109.5t-73.5 74t-107 26.5q-57 0 -103 -27t-71.5 -74.5
t-25.5 -108.5q0 -62 25.5 -110t71 -75t103.5 -27q60 0 107 26.5zM309 -160v110h79v-110h-79z" />
    <glyph glyph-name="uni1E0E" unicode="&#x1e0e;" horiz-adv-x="818" 
d="M98 0v700h277q114 0 199 -43t131.5 -122t46.5 -184q0 -106 -46 -185.5t-131.5 -122.5t-199.5 -43h-277zM371 69q91 0 159 34t104.5 97.5t36.5 149.5q0 87 -36.5 150t-104.5 97t-160 34h-195v-562h196zM519 -112h-282l1 49h281v-49z" />
    <glyph glyph-name="uni1E0F" unicode="&#x1e0f;" horiz-adv-x="700" 
d="M535 738h75v-738h-75v100q-35 -53 -92 -81.5t-126 -28.5q-73 0 -133.5 36.5t-95 100.5t-34.5 144q0 82 34.5 145.5t94.5 98.5t134 35q70 0 127 -28.5t91 -81.5v298zM435 85.5q47 26.5 73.5 75t26.5 110.5t-26.5 109.5t-73.5 74t-107 26.5q-57 0 -103 -27t-71.5 -74.5
t-25.5 -108.5q0 -62 25.5 -110t71 -75t103.5 -27q60 0 107 26.5zM492 -112h-282l1 49h281v-49z" />
    <glyph glyph-name="uni1E20" unicode="&#x1e20;" horiz-adv-x="769" 
d="M243 36.5q-83 46.5 -130 128t-47 184.5t46.5 185.5t129 129t186.5 46.5q76 0 142 -26.5t118 -77.5l-50 -49q-87 82 -208 82q-81 0 -145.5 -36.5t-101 -102.5t-36.5 -151t36 -150t101.5 -101.5t149.5 -36.5q115 0 195 70v223h71v-257q-52 -51 -122 -79t-148 -28
q-104 0 -187 46.5zM579 784h-282l1 49h281v-49z" />
    <glyph glyph-name="uni1E21" unicode="&#x1e21;" horiz-adv-x="615" 
d="M374 122q103 0 158 -36.5t55 -98.5q0 -76 -75.5 -121.5t-211.5 -45.5q-115 0 -180 37t-65 102q0 33 23 60t60 46q-26 13 -40.5 34.5t-14.5 47.5q0 33 18 57t48 36q-31 23 -47.5 57.5t-16.5 76.5q0 81 60 129t163 48q62 0 103 -19l140 35l17 -62l-91 -15q27 -19 41.5 -49
t14.5 -67q0 -83 -60 -131t-163 -48q-63 0 -114 19q-21 -9 -30 -20t-9 -26q0 -22 17 -34t45 -12h155zM198.5 456q-39.5 -29 -39.5 -81q0 -54 39.5 -84t110.5 -30t110.5 29.5t39.5 83.5q0 53 -39.5 82t-110.5 29t-110.5 -29zM458 -88.5q54 23.5 54 71.5q0 36 -40 53t-118 17
h-155h-4q-64 -37 -64 -83q0 -42 45 -62t128 -20q100 0 154 23.5zM471 641h-282l1 49h281v-49z" />
    <glyph glyph-name="uni1E24" unicode="&#x1e24;" horiz-adv-x="782" 
d="M606 386v314h78v-700h-78v316h-430v-316h-78v700h78v-314h430zM348 -160v110h79v-110h-79z" />
    <glyph glyph-name="uni1E25" unicode="&#x1e25;" horiz-adv-x="661" 
d="M528 488q59 -62 59 -169v-319h-75v309q0 81 -41.5 126.5t-116.5 45.5q-52 0 -95.5 -26t-69 -72t-25.5 -103v-280h-74v738h74v-294q32 48 85.5 77t121.5 29q98 0 157 -62zM290 -160v110h79v-110h-79z" />
    <glyph glyph-name="uni1E2A" unicode="&#x1e2a;" horiz-adv-x="782" 
d="M606 386v314h78v-700h-78v316h-430v-316h-78v700h78v-314h430zM514 -36q0 -48 -33 -76.5t-88 -28.5t-88 28.5t-33 76.5l53 1q0 -69 68 -69t68 69z" />
    <glyph glyph-name="uni1E2B" unicode="&#x1e2b;" horiz-adv-x="661" 
d="M528 488q59 -62 59 -169v-319h-75v309q0 81 -41.5 126.5t-116.5 45.5q-52 0 -95.5 -26t-69 -72t-25.5 -103v-280h-74v738h74v-294q32 48 85.5 77t121.5 29q98 0 157 -62zM457 -36q0 -48 -33 -76.5t-88 -28.5t-88 28.5t-33 76.5l53 1q0 -69 68 -69t68 69z" />
    <glyph glyph-name="uni1E36" unicode="&#x1e36;" horiz-adv-x="610" 
d="M586 0h-488v700h77v-631h411v-69zM259 -160v110h79v-110h-79z" />
    <glyph glyph-name="uni1E37" unicode="&#x1e37;" horiz-adv-x="254" 
d="M164 0h-74v738h74v-738zM84 -160v110h79v-110h-79z" />
    <glyph glyph-name="uni1E38" unicode="&#x1e38;" horiz-adv-x="610" 
d="M586 0h-488v700h77v-631h411v-69zM259 -160v110h79v-110h-79zM440 784h-282l1 49h281v-49z" />
    <glyph glyph-name="uni1E39" unicode="&#x1e39;" horiz-adv-x="254" 
d="M164 0h-74v738h74v-738zM84 -160v110h79v-110h-79zM266 822h-282l1 49h281v-49z" />
    <glyph glyph-name="uni1E3A" unicode="&#x1e3a;" horiz-adv-x="610" 
d="M586 0h-488v700h77v-631h411v-69zM442 -112h-282l1 49h281v-49z" />
    <glyph glyph-name="uni1E3B" unicode="&#x1e3b;" horiz-adv-x="254" 
d="M164 0h-74v738h74v-738zM267 -112h-282l1 49h281v-49z" />
    <glyph glyph-name="uni1E42" unicode="&#x1e42;" horiz-adv-x="903" 
d="M452 234l282 466h71v-700h-77v558l-262 -423h-28l-263 423v-558h-77v700h71zM409 -160v110h79v-110h-79z" />
    <glyph glyph-name="uni1E43" unicode="&#x1e43;" horiz-adv-x="1023" 
d="M896.5 490q53.5 -60 53.5 -165v-325h-76v315q0 79 -36.5 122.5t-105.5 43.5q-48 0 -88.5 -26t-65 -71.5t-24.5 -101.5v-282h-75v315q0 79 -36.5 122.5t-105.5 43.5q-48 0 -89 -26t-65.5 -71.5t-24.5 -101.5v-282h-74v541h74v-96q32 47 83.5 76t114.5 29q68 0 115.5 -33.5
t68.5 -94.5q28 55 84.5 91.5t127.5 36.5q91 0 144.5 -60zM470 -160v110h79v-110h-79z" />
    <glyph glyph-name="uni1E44" unicode="&#x1e44;" horiz-adv-x="793" 
d="M175 0h-77v700h67l453 -565v565h78v-700h-65l-456 568v-568zM437 766h-79v106h79v-106z" />
    <glyph glyph-name="uni1E45" unicode="&#x1e45;" horiz-adv-x="655" 
d="M522 488q59 -62 59 -169v-319h-75v309q0 81 -41.5 126.5t-116.5 45.5q-52 0 -95.5 -26t-69 -72t-25.5 -103v-280h-74v541h74v-97q32 48 85.5 77t121.5 29q98 0 157 -62zM368 617h-79v110h79v-110z" />
    <glyph glyph-name="uni1E46" unicode="&#x1e46;" horiz-adv-x="793" 
d="M175 0h-77v700h67l453 -565v565h78v-700h-65l-456 568v-568zM354 -160v110h79v-110h-79z" />
    <glyph glyph-name="uni1E47" unicode="&#x1e47;" horiz-adv-x="655" 
d="M522 488q59 -62 59 -169v-319h-75v309q0 81 -41.5 126.5t-116.5 45.5q-52 0 -95.5 -26t-69 -72t-25.5 -103v-280h-74v541h74v-97q32 48 85.5 77t121.5 29q98 0 157 -62zM285 -160v110h79v-110h-79z" />
    <glyph glyph-name="uni1E48" unicode="&#x1e48;" horiz-adv-x="793" 
d="M175 0h-77v700h67l453 -565v565h78v-700h-65l-456 568v-568zM537 -112h-282l1 49h281v-49z" />
    <glyph glyph-name="uni1E49" unicode="&#x1e49;" horiz-adv-x="655" 
d="M522 488q59 -62 59 -169v-319h-75v309q0 81 -41.5 126.5t-116.5 45.5q-52 0 -95.5 -26t-69 -72t-25.5 -103v-280h-74v541h74v-97q32 48 85.5 77t121.5 29q98 0 157 -62zM468 -112h-282l1 49h281v-49z" />
    <glyph glyph-name="uni1E5A" unicode="&#x1e5a;" horiz-adv-x="704" 
d="M562 0l-229 255h-158v-255h-77v700h271q137 0 211.5 -58t74.5 -165q0 -94 -58.5 -150t-167.5 -69l231 -258h-98zM175 631v-307h191q212 0 212 152q0 77 -54 116t-157 39h-192zM317 -160v110h79v-110h-79z" />
    <glyph glyph-name="uni1E5B" unicode="&#x1e5b;" horiz-adv-x="400" 
d="M380 542l-3 -77q-24 7 -50 7q-52 0 -90.5 -30t-58.5 -81.5t-20 -113.5v-247h-74v541h74v-102q27 52 72 80t99 28q24 0 51 -5zM147 -160v110h79v-110h-79z" />
    <glyph glyph-name="uni1E5C" unicode="&#x1e5c;" horiz-adv-x="704" 
d="M562 0l-229 255h-158v-255h-77v700h271q137 0 211.5 -58t74.5 -165q0 -94 -58.5 -150t-167.5 -69l231 -258h-98zM175 631v-307h191q212 0 212 152q0 77 -54 116t-157 39h-192zM317 -160v110h79v-110h-79zM498 784h-282l1 49h281v-49z" />
    <glyph glyph-name="uni1E5D" unicode="&#x1e5d;" horiz-adv-x="400" 
d="M380 542l-3 -77q-24 7 -50 7q-52 0 -90.5 -30t-58.5 -81.5t-20 -113.5v-247h-74v541h74v-102q27 52 72 80t99 28q24 0 51 -5zM147 -160v110h79v-110h-79zM343 641h-282l1 49h281v-49z" />
    <glyph glyph-name="uni1E5E" unicode="&#x1e5e;" horiz-adv-x="704" 
d="M562 0l-229 255h-158v-255h-77v700h271q137 0 211.5 -58t74.5 -165q0 -94 -58.5 -150t-167.5 -69l231 -258h-98zM175 631v-307h191q212 0 212 152q0 77 -54 116t-157 39h-192zM500 -112h-282l1 49h281v-49z" />
    <glyph glyph-name="uni1E5F" unicode="&#x1e5f;" horiz-adv-x="400" 
d="M380 542l-3 -77q-24 7 -50 7q-52 0 -90.5 -30t-58.5 -81.5t-20 -113.5v-247h-74v541h74v-102q27 52 72 80t99 28q24 0 51 -5zM330 -112h-282l1 49h281v-49z" />
    <glyph glyph-name="uni1E60" unicode="&#x1e60;" horiz-adv-x="635" 
d="M173 18q-72 28 -125 76l37 59q52 -43 115 -67t130 -24q82 0 127.5 33.5t45.5 86.5q0 38 -20 62t-59.5 39.5t-108.5 30.5q-126 28 -186 74t-60 130q0 59 33 102.5t90 66.5t129 23q131 0 238 -79l-42 -57q-42 30 -94.5 47.5t-106.5 17.5q-77 0 -121.5 -33t-44.5 -89
q0 -36 19 -60t59 -41t109 -33q89 -19 141.5 -42t79 -60t26.5 -95q0 -59 -33 -103.5t-91.5 -68.5t-134.5 -24q-80 0 -152 28zM358 766h-79v106h79v-106z" />
    <glyph glyph-name="uni1E61" unicode="&#x1e61;" horiz-adv-x="526" 
d="M140.5 11q-60.5 20 -103.5 51l32 62q45 -31 96 -47.5t102 -16.5q67 0 104.5 22.5t37.5 65.5q0 38 -33.5 58t-119.5 36q-76 14 -120 34.5t-62.5 49.5t-18.5 71q0 71 53 111.5t147 40.5q55 0 114 -15.5t95 -41.5l-31 -63q-35 24 -84 37.5t-99 13.5q-56 0 -87.5 -20
t-31.5 -57q0 -34 31 -54t115 -36q79 -16 124 -38t64 -52t19 -73q0 -75 -59.5 -117t-161.5 -42q-62 0 -122.5 20zM305 617h-79v110h79v-110z" />
    <glyph glyph-name="uni1E62" unicode="&#x1e62;" horiz-adv-x="635" 
d="M173 18q-72 28 -125 76l37 59q52 -43 115 -67t130 -24q82 0 127.5 33.5t45.5 86.5q0 38 -20 62t-59.5 39.5t-108.5 30.5q-126 28 -186 74t-60 130q0 59 33 102.5t90 66.5t129 23q131 0 238 -79l-42 -57q-42 30 -94.5 47.5t-106.5 17.5q-77 0 -121.5 -33t-44.5 -89
q0 -36 19 -60t59 -41t109 -33q89 -19 141.5 -42t79 -60t26.5 -95q0 -59 -33 -103.5t-91.5 -68.5t-134.5 -24q-80 0 -152 28zM275 -160v110h79v-110h-79z" />
    <glyph glyph-name="uni1E63" unicode="&#x1e63;" horiz-adv-x="526" 
d="M140.5 11q-60.5 20 -103.5 51l32 62q45 -31 96 -47.5t102 -16.5q67 0 104.5 22.5t37.5 65.5q0 38 -33.5 58t-119.5 36q-76 14 -120 34.5t-62.5 49.5t-18.5 71q0 71 53 111.5t147 40.5q55 0 114 -15.5t95 -41.5l-31 -63q-35 24 -84 37.5t-99 13.5q-56 0 -87.5 -20
t-31.5 -57q0 -34 31 -54t115 -36q79 -16 124 -38t64 -52t19 -73q0 -75 -59.5 -117t-161.5 -42q-62 0 -122.5 20zM223 -160v110h79v-110h-79z" />
    <glyph glyph-name="uni1E6C" unicode="&#x1e6c;" horiz-adv-x="622" 
d="M29 700h563v-69h-243v-631h-78v631h-242v69zM268 -160v110h79v-110h-79z" />
    <glyph glyph-name="uni1E6D" unicode="&#x1e6d;" horiz-adv-x="480" 
d="M439 23q-24 -15 -62 -24t-70 -9q-73 0 -116.5 42.5t-43.5 117.5v322h-108v69h109l6 146h68v-146h195v-69h-195v-309q0 -48 27 -76.5t71 -28.5q24 0 54 6.5t50 17.5zM260 -162v110h79v-110h-79z" />
    <glyph glyph-name="uni1E6E" unicode="&#x1e6e;" horiz-adv-x="622" 
d="M29 700h563v-69h-243v-631h-78v631h-242v69zM451 -112h-282l1 49h281v-49z" />
    <glyph glyph-name="uni1E6F" unicode="&#x1e6f;" horiz-adv-x="480" 
d="M439 23q-24 -15 -62 -24t-70 -9q-73 0 -116.5 42.5t-43.5 117.5v322h-108v69h109l6 146h68v-146h195v-69h-195v-309q0 -48 27 -76.5t71 -28.5q24 0 54 6.5t50 17.5zM443 -114h-282l1 49h281v-49z" />
    <glyph glyph-name="Wgrave" unicode="&#x1e80;" horiz-adv-x="1055" 
d="M762 96l189 604h82l-225 -700h-85l-195 570l-194 -570h-86l-226 700h82l191 -604l198 604h69zM552 752l-52 -5l-94 101l66 17z" />
    <glyph glyph-name="wgrave" unicode="&#x1e81;" horiz-adv-x="882" 
d="M628 87l152 454h79l-188 -541h-85l-145 440l-145 -440h-84l-190 541h79l153 -454l148 454h77zM467 600l-52 -7l-116 127l72 17z" />
    <glyph glyph-name="Wacute" unicode="&#x1e82;" horiz-adv-x="1055" 
d="M762 96l189 604h82l-225 -700h-85l-195 570l-194 -570h-86l-226 700h82l191 -604l198 604h69zM651 848l-94 -101l-52 5l80 113z" />
    <glyph glyph-name="wacute" unicode="&#x1e83;" horiz-adv-x="882" 
d="M628 87l152 454h79l-188 -541h-85l-145 440l-145 -440h-84l-190 541h79l153 -454l148 454h77zM583 720l-116 -127l-52 7l96 137z" />
    <glyph glyph-name="Wdieresis" unicode="&#x1e84;" horiz-adv-x="1055" 
d="M762 96l189 604h82l-225 -700h-85l-195 570l-194 -570h-86l-226 700h82l191 -604l198 604h69zM494 765h-70v105h70v-105zM646 765h-71v105h71v-105z" />
    <glyph glyph-name="wdieresis" unicode="&#x1e85;" horiz-adv-x="882" 
d="M628 87l152 454h79l-188 -541h-85l-145 440l-145 -440h-84l-190 541h79l153 -454l148 454h77zM390 617h-57v110h57v-110zM547 617h-56v110h56v-110z" />
    <glyph glyph-name="uni1E8E" unicode="&#x1e8e;" horiz-adv-x="678" 
d="M576 700h85l-283 -439v-261h-78v264l-283 436h86l237 -371zM379 766h-79v106h79v-106z" />
    <glyph glyph-name="uni1E8F" unicode="&#x1e8f;" horiz-adv-x="592" 
d="M493 541h82l-236 -541l-22 -51q-30 -69 -71.5 -99.5t-106.5 -30.5q-28 0 -57.5 8.5t-48.5 20.5l24 55q38 -20 79 -20q39 0 63 19.5t45 64.5l15 34l-236 540h82l194 -455zM360 617h-79v110h79v-110z" />
    <glyph glyph-name="uni1E92" unicode="&#x1e92;" horiz-adv-x="695" 
d="M635 0h-577v49l464 582h-453v69h562v-49l-464 -582h468v-69zM302 -160v110h79v-110h-79z" />
    <glyph glyph-name="uni1E93" unicode="&#x1e93;" horiz-adv-x="532" 
d="M495 0h-458v46l348 426h-340v69h446v-46l-351 -427h355v-68zM220 -160v110h79v-110h-79z" />
    <glyph glyph-name="uni1E97" unicode="&#x1e97;" horiz-adv-x="480" 
d="M439 23q-24 -15 -62 -24t-70 -9q-73 0 -116.5 42.5t-43.5 117.5v322h-108v69h109l6 146h68v-146h195v-69h-195v-309q0 -48 27 -76.5t71 -28.5q24 0 54 6.5t50 17.5zM138 763h-57v110h57v-110zM295 763h-56v110h56v-110z" />
    <glyph glyph-name="uni1E9E" unicode="&#x1e9e;" horiz-adv-x="775" 
d="M536 391q188 -56 188 -204q0 -91 -65.5 -144t-175.5 -53q-73 0 -139 24t-108 65l23 59q42 -36 99.5 -57t117.5 -21q81 0 126 36t45 94q0 53 -42 91t-122 56l-38 7l95 254q-112 41 -198 41q-57 0 -99.5 -21t-65.5 -57.5t-23 -80.5v-480h-78v489q0 61 32.5 111.5t92.5 79.5
t138 29q66 0 144.5 -18.5t151.5 -50.5z" />
    <glyph glyph-name="uni1EA0" unicode="&#x1ea0;" horiz-adv-x="765" 
d="M743 0h-83l-73 161h-411l-73 -161h-81l321 700h78zM382 612l-174 -381h347zM340 -160v110h79v-110h-79z" />
    <glyph glyph-name="uni1EA1" unicode="&#x1ea1;" horiz-adv-x="580" 
d="M447.5 494.5q58.5 -55.5 58.5 -158.5v-336h-75v102q-26 -45 -80.5 -78.5t-127.5 -33.5q-86 0 -136.5 46t-50.5 120q0 78 53 125t159 47q80 0 183 -11v18q0 72 -41.5 109.5t-121.5 37.5q-43 0 -87 -15.5t-79 -44.5l-38 55q44 37 99 55t112 18q114 0 172.5 -55.5zM340.5 85
q42.5 26 66.5 67.5t24 84.5v16q-76 12 -166 12q-157 0 -157 -105q0 -49 36 -75t102 -26q52 0 94.5 26zM240 -160v110h79v-110h-79z" />
    <glyph glyph-name="uni1EA2" unicode="&#x1ea2;" horiz-adv-x="765" 
d="M743 0h-83l-73 161h-411l-73 -161h-81l321 700h78zM382 612l-174 -381h347zM348 754q23 23 35.5 42.5t12.5 42.5q0 17 -11.5 28t-29.5 11t-35 -10l-4 34q30 15 61 15q32 0 51.5 -17.5t19.5 -42.5q0 -59 -63 -115z" />
    <glyph glyph-name="uni1EA3" unicode="&#x1ea3;" horiz-adv-x="580" 
d="M447.5 494.5q58.5 -55.5 58.5 -158.5v-336h-75v102q-26 -45 -80.5 -78.5t-127.5 -33.5q-86 0 -136.5 46t-50.5 120q0 78 53 125t159 47q80 0 183 -11v18q0 72 -41.5 109.5t-121.5 37.5q-43 0 -87 -15.5t-79 -44.5l-38 55q44 37 99 55t112 18q114 0 172.5 -55.5zM340.5 85
q42.5 26 66.5 67.5t24 84.5v16q-76 12 -166 12q-157 0 -157 -105q0 -49 36 -75t102 -26q52 0 94.5 26zM246 597q23 23 35.5 42.5t12.5 42.5q0 17 -11.5 28t-29.5 11t-35 -10l-4 34q30 15 61 15q32 0 51.5 -17.5t19.5 -42.5q0 -59 -63 -115z" />
    <glyph glyph-name="uni1EA4" unicode="&#x1ea4;" horiz-adv-x="765" 
d="M568 919l63 -16l-90 -96l-49 5zM462 754l-78 96l-78 -96l-64 6l105 121h74l105 -121zM743 0h-83l-73 161h-411l-73 -161h-81l321 700h78zM382 612l-174 -381h347z" />
    <glyph glyph-name="uni1EA5" unicode="&#x1ea5;" horiz-adv-x="580" 
d="M447.5 494.5q58.5 -55.5 58.5 -158.5v-336h-75v102q-26 -45 -80.5 -78.5t-127.5 -33.5q-86 0 -136.5 46t-50.5 120q0 78 53 125t159 47q80 0 183 -11v18q0 72 -41.5 109.5t-121.5 37.5q-43 0 -87 -15.5t-79 -44.5l-38 55q44 37 99 55t112 18q114 0 172.5 -55.5zM340.5 85
q42.5 26 66.5 67.5t24 84.5v16q-76 12 -166 12q-157 0 -157 -105q0 -49 36 -75t102 -26q52 0 94.5 26zM314 732l97 -132l-59 -7l-72 105l-73 -105l-59 7l97 132h69zM422 911l-116 -127l-52 7l96 137z" />
    <glyph glyph-name="uni1EA6" unicode="&#x1ea6;" horiz-adv-x="765" 
d="M202 917l75 -107l-49 -5l-89 96zM384 850l-78 -96l-64 6l105 121h74l105 -121l-64 -6zM743 0h-83l-73 161h-411l-73 -161h-81l321 700h78zM382 612l-174 -381h347z" />
    <glyph glyph-name="uni1EA7" unicode="&#x1ea7;" horiz-adv-x="580" 
d="M447.5 494.5q58.5 -55.5 58.5 -158.5v-336h-75v102q-26 -45 -80.5 -78.5t-127.5 -33.5q-86 0 -136.5 46t-50.5 120q0 78 53 125t159 47q80 0 183 -11v18q0 72 -41.5 109.5t-121.5 37.5q-43 0 -87 -15.5t-79 -44.5l-38 55q44 37 99 55t112 18q114 0 172.5 -55.5zM340.5 85
q42.5 26 66.5 67.5t24 84.5v16q-76 12 -166 12q-157 0 -157 -105q0 -49 36 -75t102 -26q52 0 94.5 26zM314 732l97 -132l-59 -7l-72 105l-73 -105l-59 7l97 132h69zM306 791l-52 -7l-116 127l72 17z" />
    <glyph glyph-name="uni1EA8" unicode="&#x1ea8;" horiz-adv-x="765" 
d="M548 899.5q-11 10.5 -28 10.5q-16 0 -33 -10l-4 33q29 14 58 14q30 0 48.5 -16t18.5 -41q0 -55 -59 -109l-35 12q21 21 33 39.5t12 40.5q0 16 -11 26.5zM462 754l-78 96l-78 -96l-64 6l105 121h74l105 -121zM743 0h-83l-73 161h-411l-73 -161h-81l321 700h78zM382 612
l-174 -381h347z" />
    <glyph glyph-name="uni1EA9" unicode="&#x1ea9;" horiz-adv-x="580" 
d="M447.5 494.5q58.5 -55.5 58.5 -158.5v-336h-75v102q-26 -45 -80.5 -78.5t-127.5 -33.5q-86 0 -136.5 46t-50.5 120q0 78 53 125t159 47q80 0 183 -11v18q0 72 -41.5 109.5t-121.5 37.5q-43 0 -87 -15.5t-79 -44.5l-38 55q44 37 99 55t112 18q114 0 172.5 -55.5zM340.5 85
q42.5 26 66.5 67.5t24 84.5v16q-76 12 -166 12q-157 0 -157 -105q0 -49 36 -75t102 -26q52 0 94.5 26zM314 732l97 -132l-59 -7l-72 105l-73 -105l-59 7l97 132h69zM246 786q23 23 35.5 42.5t12.5 42.5q0 17 -11.5 28t-29.5 11t-35 -10l-4 34q30 15 61 15q32 0 51.5 -17.5
t19.5 -42.5q0 -59 -63 -115z" />
    <glyph glyph-name="uni1EAA" unicode="&#x1eaa;" horiz-adv-x="765" 
d="M743 0h-83l-73 161h-411l-73 -161h-81l321 700h78zM382 612l-174 -381h347zM421 881l105 -121l-64 -6l-78 96l-78 -96l-64 6l105 121h74zM217 934q0 41 23.5 66.5t59.5 25.5q19 0 35.5 -6.5t40.5 -20.5q19 -11 31.5 -16.5t25.5 -5.5q22 0 36 15t14 39l39 -10
q0 -41 -23 -66.5t-59 -25.5q-19 0 -35.5 6.5t-40.5 20.5q-20 11 -32 16.5t-25 5.5q-22 0 -36 -15t-14 -39z" />
    <glyph glyph-name="uni1EAB" unicode="&#x1eab;" horiz-adv-x="580" 
d="M447.5 494.5q58.5 -55.5 58.5 -158.5v-336h-75v102q-26 -45 -80.5 -78.5t-127.5 -33.5q-86 0 -136.5 46t-50.5 120q0 78 53 125t159 47q80 0 183 -11v18q0 72 -41.5 109.5t-121.5 37.5q-43 0 -87 -15.5t-79 -44.5l-38 55q44 37 99 55t112 18q114 0 172.5 -55.5zM340.5 85
q42.5 26 66.5 67.5t24 84.5v16q-76 12 -166 12q-157 0 -157 -105q0 -49 36 -75t102 -26q52 0 94.5 26zM314 732l97 -132l-59 -7l-72 105l-73 -105l-59 7l97 132h69zM127 808q0 41 23.5 66.5t59.5 25.5q19 0 35.5 -6.5t40.5 -20.5q19 -11 31.5 -16.5t25.5 -5.5q22 0 36 15
t14 39l39 -10q0 -41 -23 -66.5t-59 -25.5q-19 0 -35.5 6.5t-40.5 20.5q-20 11 -32 16.5t-25 5.5q-22 0 -36 -15t-14 -39z" />
    <glyph glyph-name="uni1EAC" unicode="&#x1eac;" horiz-adv-x="765" 
d="M743 0h-83l-73 161h-411l-73 -161h-81l321 700h78zM382 612l-174 -381h347zM340 -160v110h79v-110h-79zM421 881l105 -121l-64 -6l-78 96l-78 -96l-64 6l105 121h74z" />
    <glyph glyph-name="uni1EAD" unicode="&#x1ead;" horiz-adv-x="580" 
d="M447.5 494.5q58.5 -55.5 58.5 -158.5v-336h-75v102q-26 -45 -80.5 -78.5t-127.5 -33.5q-86 0 -136.5 46t-50.5 120q0 78 53 125t159 47q80 0 183 -11v18q0 72 -41.5 109.5t-121.5 37.5q-43 0 -87 -15.5t-79 -44.5l-38 55q44 37 99 55t112 18q114 0 172.5 -55.5zM340.5 85
q42.5 26 66.5 67.5t24 84.5v16q-76 12 -166 12q-157 0 -157 -105q0 -49 36 -75t102 -26q52 0 94.5 26zM240 -160v110h79v-110h-79zM314 732l97 -132l-59 -7l-72 105l-73 -105l-59 7l97 132h69z" />
    <glyph glyph-name="uni1EAE" unicode="&#x1eae;" horiz-adv-x="765" 
d="M743 0h-83l-73 161h-411l-73 -161h-81l321 700h78zM382 612l-174 -381h347zM510 876q0 -59 -35 -94.5t-94 -35.5q-60 0 -95 35.5t-35 94.5h57q0 -84 73 -84q72 0 72 84h57zM505 990l-94 -101l-52 5l80 113z" />
    <glyph glyph-name="uni1EAF" unicode="&#x1eaf;" horiz-adv-x="587" 
d="M447.5 494.5q58.5 -55.5 58.5 -158.5v-336h-75v102q-26 -45 -80.5 -78.5t-127.5 -33.5q-86 0 -136.5 46t-50.5 120q0 78 53 125t159 47q80 0 183 -11v18q0 72 -41.5 109.5t-121.5 37.5q-43 0 -87 -15.5t-79 -44.5l-38 55q44 37 99 55t112 18q114 0 172.5 -55.5zM340.5 85
q42.5 26 66.5 67.5t24 84.5v16q-76 12 -166 12q-157 0 -157 -105q0 -49 36 -75t102 -26q52 0 94.5 26zM415 722q0 -59 -35 -94.5t-94 -35.5q-60 0 -95 35.5t-35 94.5h57q0 -84 73 -84q72 0 72 84h57zM428 904l-116 -127l-52 7l96 137z" />
    <glyph glyph-name="uni1EB0" unicode="&#x1eb0;" horiz-adv-x="765" 
d="M743 0h-83l-73 161h-411l-73 -161h-81l321 700h78zM382 612l-174 -381h347zM510 876q0 -59 -35 -94.5t-94 -35.5q-60 0 -95 35.5t-35 94.5h57q0 -84 73 -84q72 0 72 84h57zM406 894l-52 -5l-94 101l66 17z" />
    <glyph glyph-name="uni1EB1" unicode="&#x1eb1;" horiz-adv-x="587" 
d="M447.5 494.5q58.5 -55.5 58.5 -158.5v-336h-75v102q-26 -45 -80.5 -78.5t-127.5 -33.5q-86 0 -136.5 46t-50.5 120q0 78 53 125t159 47q80 0 183 -11v18q0 72 -41.5 109.5t-121.5 37.5q-43 0 -87 -15.5t-79 -44.5l-38 55q44 37 99 55t112 18q114 0 172.5 -55.5zM340.5 85
q42.5 26 66.5 67.5t24 84.5v16q-76 12 -166 12q-157 0 -157 -105q0 -49 36 -75t102 -26q52 0 94.5 26zM415 722q0 -59 -35 -94.5t-94 -35.5q-60 0 -95 35.5t-35 94.5h57q0 -84 73 -84q72 0 72 84h57zM311 784l-52 -7l-116 127l72 17z" />
    <glyph glyph-name="uni1EB2" unicode="&#x1eb2;" horiz-adv-x="765" 
d="M383 1002.5q-11 10.5 -28 10.5q-15 0 -32 -10l-4 33q33 14 56 14q31 0 49.5 -16.5t18.5 -40.5q0 -53 -59 -107l-35 12q21 21 33 39t12 40q0 15 -11 25.5zM286 781q-35 35 -35 94l57 1q0 -84 73 -84q72 0 72 84l57 -1q0 -59 -35 -94t-94 -35q-60 0 -95 35zM743 0h-83
l-73 161h-411l-73 -161h-81l321 700h78zM382 612l-174 -381h347z" />
    <glyph glyph-name="uni1EB3" unicode="&#x1eb3;" horiz-adv-x="587" 
d="M447.5 494.5q58.5 -55.5 58.5 -158.5v-336h-75v102q-26 -45 -80.5 -78.5t-127.5 -33.5q-86 0 -136.5 46t-50.5 120q0 78 53 125t159 47q80 0 183 -11v18q0 72 -41.5 109.5t-121.5 37.5q-43 0 -87 -15.5t-79 -44.5l-38 55q44 37 99 55t112 18q114 0 172.5 -55.5zM340.5 85
q42.5 26 66.5 67.5t24 84.5v16q-76 12 -166 12q-157 0 -157 -105q0 -49 36 -75t102 -26q52 0 94.5 26zM415 722q0 -59 -35 -94.5t-94 -35.5q-60 0 -95 35.5t-35 94.5h57q0 -84 73 -84q72 0 72 84h57zM252 779q23 23 35.5 42.5t12.5 42.5q0 17 -11.5 28t-29.5 11t-35 -10
l-4 34q30 15 61 15q32 0 51.5 -17.5t19.5 -42.5q0 -59 -63 -115z" />
    <glyph glyph-name="uni1EB4" unicode="&#x1eb4;" horiz-adv-x="765" 
d="M743 0h-83l-73 161h-411l-73 -161h-81l321 700h78zM382 612l-174 -381h347zM510 876q0 -59 -35 -94.5t-94 -35.5q-60 0 -95 35.5t-35 94.5h57q0 -84 73 -84q72 0 72 84h57zM217 905q0 41 23.5 66.5t59.5 25.5q19 0 35.5 -6.5t40.5 -20.5q19 -11 31.5 -16.5t25.5 -5.5
q22 0 36 15t14 39l39 -10q0 -41 -23 -66.5t-59 -25.5q-19 0 -35.5 6.5t-40.5 20.5q-20 11 -32 16.5t-25 5.5q-22 0 -36 -15t-14 -39z" />
    <glyph glyph-name="uni1EB5" unicode="&#x1eb5;" horiz-adv-x="587" 
d="M447.5 494.5q58.5 -55.5 58.5 -158.5v-336h-75v102q-26 -45 -80.5 -78.5t-127.5 -33.5q-86 0 -136.5 46t-50.5 120q0 78 53 125t159 47q80 0 183 -11v18q0 72 -41.5 109.5t-121.5 37.5q-43 0 -87 -15.5t-79 -44.5l-38 55q44 37 99 55t112 18q114 0 172.5 -55.5zM340.5 85
q42.5 26 66.5 67.5t24 84.5v16q-76 12 -166 12q-157 0 -157 -105q0 -49 36 -75t102 -26q52 0 94.5 26zM415 722q0 -59 -35 -94.5t-94 -35.5q-60 0 -95 35.5t-35 94.5h57q0 -84 73 -84q72 0 72 84h57zM135 801q0 41 23.5 66.5t59.5 25.5q19 0 35.5 -6.5t40.5 -20.5
q19 -11 31.5 -16.5t25.5 -5.5q22 0 36 15t14 39l39 -10q0 -41 -23 -66.5t-59 -25.5q-19 0 -35.5 6.5t-40.5 20.5q-20 11 -32 16.5t-25 5.5q-22 0 -36 -15t-14 -39z" />
    <glyph glyph-name="uni1EB6" unicode="&#x1eb6;" horiz-adv-x="765" 
d="M743 0h-83l-73 161h-411l-73 -161h-81l321 700h78zM382 612l-174 -381h347zM340 -160v110h79v-110h-79zM510 876q0 -59 -35 -94.5t-94 -35.5q-60 0 -95 35.5t-35 94.5h57q0 -84 73 -84q72 0 72 84h57z" />
    <glyph glyph-name="uni1EB7" unicode="&#x1eb7;" horiz-adv-x="580" 
d="M447.5 494.5q58.5 -55.5 58.5 -158.5v-336h-75v102q-26 -45 -80.5 -78.5t-127.5 -33.5q-86 0 -136.5 46t-50.5 120q0 78 53 125t159 47q80 0 183 -11v18q0 72 -41.5 109.5t-121.5 37.5q-43 0 -87 -15.5t-79 -44.5l-38 55q44 37 99 55t112 18q114 0 172.5 -55.5zM340.5 85
q42.5 26 66.5 67.5t24 84.5v16q-76 12 -166 12q-157 0 -157 -105q0 -49 36 -75t102 -26q52 0 94.5 26zM240 -160v110h79v-110h-79zM409 722q0 -59 -35 -94.5t-94 -35.5q-60 0 -95 35.5t-35 94.5h57q0 -84 73 -84q72 0 72 84h57z" />
    <glyph glyph-name="uni1EB8" unicode="&#x1eb8;" horiz-adv-x="689" 
d="M174 324v-255h463v-69h-539v700h529v-69h-453v-238h400v-69h-400zM304 -160v110h79v-110h-79z" />
    <glyph glyph-name="uni1EB9" unicode="&#x1eb9;" horiz-adv-x="618" 
d="M129 242q7 -82 65.5 -132.5t146.5 -50.5q101 0 160 66l49 -44q-40 -43 -93.5 -66.5t-119.5 -23.5q-82 0 -146.5 36t-101 99.5t-36.5 144.5q0 80 34.5 143.5t97.5 99.5t144 36q73 0 130 -33t89 -93t32 -137q0 -18 -4 -45h-447zM193.5 434q-53.5 -48 -63.5 -127h377
q-8 84 -55.5 129.5t-122.5 45.5q-82 0 -135.5 -48zM277 -162v110h79v-110h-79z" />
    <glyph glyph-name="uni1EBA" unicode="&#x1eba;" horiz-adv-x="689" 
d="M174 324v-255h463v-69h-539v700h529v-69h-453v-238h400v-69h-400zM312 754q23 23 35.5 42.5t12.5 42.5q0 17 -11.5 28t-29.5 11t-35 -10l-4 34q30 15 61 15q32 0 51.5 -17.5t19.5 -42.5q0 -59 -63 -115z" />
    <glyph glyph-name="uni1EBB" unicode="&#x1ebb;" horiz-adv-x="618" 
d="M129 242q7 -82 65.5 -132.5t146.5 -50.5q101 0 160 66l49 -44q-40 -43 -93.5 -66.5t-119.5 -23.5q-82 0 -146.5 36t-101 99.5t-36.5 144.5q0 80 34.5 143.5t97.5 99.5t144 36q73 0 130 -33t89 -93t32 -137q0 -18 -4 -45h-447zM193.5 434q-53.5 -48 -63.5 -127h377
q-8 84 -55.5 129.5t-122.5 45.5q-82 0 -135.5 -48zM282 595q23 23 35.5 42.5t12.5 42.5q0 17 -11.5 28t-29.5 11t-35 -10l-4 34q30 15 61 15q32 0 51.5 -17.5t19.5 -42.5q0 -59 -63 -115z" />
    <glyph glyph-name="uni1EBC" unicode="&#x1ebc;" horiz-adv-x="689" 
d="M174 324v-255h463v-69h-539v700h529v-69h-453v-238h400v-69h-400zM181 763q0 41 23.5 66.5t59.5 25.5q19 0 35.5 -6.5t40.5 -20.5q19 -11 31.5 -16.5t25.5 -5.5q22 0 36 15t14 39l39 -10q0 -41 -23 -66.5t-59 -25.5q-19 0 -35.5 6.5t-40.5 20.5q-20 11 -32 16.5t-25 5.5
q-22 0 -36 -15t-14 -39z" />
    <glyph glyph-name="uni1EBD" unicode="&#x1ebd;" horiz-adv-x="618" 
d="M129 242q7 -82 65.5 -132.5t146.5 -50.5q101 0 160 66l49 -44q-40 -43 -93.5 -66.5t-119.5 -23.5q-82 0 -146.5 36t-101 99.5t-36.5 144.5q0 80 34.5 143.5t97.5 99.5t144 36q73 0 130 -33t89 -93t32 -137q0 -18 -4 -45h-447zM193.5 434q-53.5 -48 -63.5 -127h377
q-8 84 -55.5 129.5t-122.5 45.5q-82 0 -135.5 -48zM163 617q0 41 23.5 66.5t59.5 25.5q19 0 35.5 -6.5t40.5 -20.5q19 -11 31.5 -16.5t25.5 -5.5q22 0 36 15t14 39l39 -10q0 -41 -23 -66.5t-59 -25.5q-19 0 -35.5 6.5t-40.5 20.5q-20 11 -32 16.5t-25 5.5q-22 0 -36 -15
t-14 -39z" />
    <glyph glyph-name="uni1EBE" unicode="&#x1ebe;" horiz-adv-x="689" 
d="M545 906l63 -17l-89 -95l-49 5zM426 754l-78 96l-78 -96l-64 6l105 121h74l105 -121zM174 324v-255h463v-69h-539v700h529v-69h-453v-238h400v-69h-400z" />
    <glyph glyph-name="uni1EBF" unicode="&#x1ebf;" horiz-adv-x="618" 
d="M129 242q7 -82 65.5 -132.5t146.5 -50.5q101 0 160 66l49 -44q-40 -43 -93.5 -66.5t-119.5 -23.5q-82 0 -146.5 36t-101 99.5t-36.5 144.5q0 80 34.5 143.5t97.5 99.5t144 36q73 0 130 -33t89 -93t32 -137q0 -18 -4 -45h-447zM193.5 434q-53.5 -48 -63.5 -127h377
q-8 84 -55.5 129.5t-122.5 45.5q-82 0 -135.5 -48zM350 730l97 -132l-59 -7l-72 105l-73 -105l-59 7l97 132h69zM458 909l-116 -127l-52 7l96 137z" />
    <glyph glyph-name="uni1EC0" unicode="&#x1ec0;" horiz-adv-x="689" 
d="M206 760l36 42l-39 -4l-89 96l63 16l72 -101l62 72h74l105 -121l-64 -6l-78 96l-78 -96zM174 324v-255h463v-69h-539v700h529v-69h-453v-238h400v-69h-400z" />
    <glyph glyph-name="uni1EC1" unicode="&#x1ec1;" horiz-adv-x="618" 
d="M129 242q7 -82 65.5 -132.5t146.5 -50.5q101 0 160 66l49 -44q-40 -43 -93.5 -66.5t-119.5 -23.5q-82 0 -146.5 36t-101 99.5t-36.5 144.5q0 80 34.5 143.5t97.5 99.5t144 36q73 0 130 -33t89 -93t32 -137q0 -18 -4 -45h-447zM193.5 434q-53.5 -48 -63.5 -127h377
q-8 84 -55.5 129.5t-122.5 45.5q-82 0 -135.5 -48zM350 730l97 -132l-59 -7l-72 105l-73 -105l-59 7l97 132h69zM342 789l-52 -7l-116 127l72 17z" />
    <glyph glyph-name="uni1EC2" unicode="&#x1ec2;" horiz-adv-x="689" 
d="M506 900.5q-11 10.5 -28 10.5q-15 0 -32 -10l-3 32q29 14 56 14q29 0 47.5 -16t18.5 -40q0 -53 -58 -106l-35 11q21 21 33 39t12 40q0 15 -11 25.5zM426 754l-78 96l-78 -96l-64 6l105 121h74l105 -121zM174 324v-255h463v-69h-539v700h529v-69h-453v-238h400v-69h-400z
" />
    <glyph glyph-name="uni1EC3" unicode="&#x1ec3;" horiz-adv-x="618" 
d="M129 242q7 -82 65.5 -132.5t146.5 -50.5q101 0 160 66l49 -44q-40 -43 -93.5 -66.5t-119.5 -23.5q-82 0 -146.5 36t-101 99.5t-36.5 144.5q0 80 34.5 143.5t97.5 99.5t144 36q73 0 130 -33t89 -93t32 -137q0 -18 -4 -45h-447zM193.5 434q-53.5 -48 -63.5 -127h377
q-8 84 -55.5 129.5t-122.5 45.5q-82 0 -135.5 -48zM350 730l97 -132l-59 -7l-72 105l-73 -105l-59 7l97 132h69zM282 784q23 23 35.5 42.5t12.5 42.5q0 17 -11.5 28t-29.5 11t-35 -10l-4 34q30 15 61 15q32 0 51.5 -17.5t19.5 -42.5q0 -59 -63 -115z" />
    <glyph glyph-name="uni1EC4" unicode="&#x1ec4;" horiz-adv-x="689" 
d="M174 324v-255h463v-69h-539v700h529v-69h-453v-238h400v-69h-400zM385 881l105 -121l-64 -6l-78 96l-78 -96l-64 6l105 121h74zM181 934q0 41 23.5 66.5t59.5 25.5q19 0 35.5 -6.5t40.5 -20.5q19 -11 31.5 -16.5t25.5 -5.5q22 0 36 15t14 39l39 -10q0 -41 -23 -66.5
t-59 -25.5q-19 0 -35.5 6.5t-40.5 20.5q-20 11 -32 16.5t-25 5.5q-22 0 -36 -15t-14 -39z" />
    <glyph glyph-name="uni1EC5" unicode="&#x1ec5;" horiz-adv-x="618" 
d="M129 242q7 -82 65.5 -132.5t146.5 -50.5q101 0 160 66l49 -44q-40 -43 -93.5 -66.5t-119.5 -23.5q-82 0 -146.5 36t-101 99.5t-36.5 144.5q0 80 34.5 143.5t97.5 99.5t144 36q73 0 130 -33t89 -93t32 -137q0 -18 -4 -45h-447zM193.5 434q-53.5 -48 -63.5 -127h377
q-8 84 -55.5 129.5t-122.5 45.5q-82 0 -135.5 -48zM350 730l97 -132l-59 -7l-72 105l-73 -105l-59 7l97 132h69zM163 806q0 41 23.5 66.5t59.5 25.5q19 0 35.5 -6.5t40.5 -20.5q19 -11 31.5 -16.5t25.5 -5.5q22 0 36 15t14 39l39 -10q0 -41 -23 -66.5t-59 -25.5
q-19 0 -35.5 6.5t-40.5 20.5q-20 11 -32 16.5t-25 5.5q-22 0 -36 -15t-14 -39z" />
    <glyph glyph-name="uni1EC6" unicode="&#x1ec6;" horiz-adv-x="689" 
d="M174 324v-255h463v-69h-539v700h529v-69h-453v-238h400v-69h-400zM304 -160v110h79v-110h-79zM385 881l105 -121l-64 -6l-78 96l-78 -96l-64 6l105 121h74z" />
    <glyph glyph-name="uni1EC7" unicode="&#x1ec7;" horiz-adv-x="618" 
d="M129 242q7 -82 65.5 -132.5t146.5 -50.5q101 0 160 66l49 -44q-40 -43 -93.5 -66.5t-119.5 -23.5q-82 0 -146.5 36t-101 99.5t-36.5 144.5q0 80 34.5 143.5t97.5 99.5t144 36q73 0 130 -33t89 -93t32 -137q0 -18 -4 -45h-447zM193.5 434q-53.5 -48 -63.5 -127h377
q-8 84 -55.5 129.5t-122.5 45.5q-82 0 -135.5 -48zM277 -162v110h79v-110h-79zM350 730l97 -132l-59 -7l-72 105l-73 -105l-59 7l97 132h69z" />
    <glyph glyph-name="uni1EC8" unicode="&#x1ec8;" horiz-adv-x="273" 
d="M175 0h-77v700h77v-700zM102 754q23 23 35.5 42.5t12.5 42.5q0 17 -11.5 28t-29.5 11t-35 -10l-4 34q30 15 61 15q32 0 51.5 -17.5t19.5 -42.5q0 -59 -63 -115z" />
    <glyph glyph-name="uni1EC9" unicode="&#x1ec9;" horiz-adv-x="242" 
d="M158 0h-74v541h74v-541zM87 595q23 23 35.5 42.5t12.5 42.5q0 17 -11.5 28t-29.5 11t-35 -10l-4 34q30 15 61 15q32 0 51.5 -17.5t19.5 -42.5q0 -59 -63 -115z" />
    <glyph glyph-name="uni1ECA" unicode="&#x1eca;" horiz-adv-x="273" 
d="M175 0h-77v700h77v-700zM94 -160v110h79v-110h-79z" />
    <glyph glyph-name="uni1ECB" unicode="&#x1ecb;" horiz-adv-x="242" 
d="M158 0h-74v541h74v-541zM161 617h-79v110h79v-110zM72 -160v110h79v-110h-79z" />
    <glyph glyph-name="uni1ECC" unicode="&#x1ecc;" horiz-adv-x="858" 
d="M242.5 36.5q-82.5 46.5 -129.5 128.5t-47 185t47 185t129.5 128.5t186.5 46.5t186.5 -46.5t129.5 -128.5t47 -185t-47 -185t-130 -128.5t-187 -46.5q-103 0 -185.5 46.5zM574 98.5q64 36.5 100 102t36 149.5t-36 150t-100 102.5t-145 36.5t-145 -36.5t-100 -102.5
t-36 -150t36 -149.5t100 -102t145 -36.5t145 36.5zM386 -160v110h79v-110h-79z" />
    <glyph glyph-name="uni1ECD" unicode="&#x1ecd;" 
d="M190.5 26q-64.5 36 -101 100t-36.5 145q0 80 36.5 143.5t101.5 99.5t146 36q82 0 147 -36t101.5 -99t36.5 -143q0 -81 -36.5 -145t-101.5 -100.5t-147 -36.5t-146.5 36zM445.5 86q47.5 27 74.5 75t27 110t-27 110t-75 74.5t-108 26.5t-107.5 -26.5t-74.5 -74.5t-27 -110
t27 -110t75 -75t108 -27t107.5 27zM295 -160v110h79v-110h-79z" />
    <glyph glyph-name="uni1ECE" unicode="&#x1ece;" horiz-adv-x="858" 
d="M242.5 36.5q-82.5 46.5 -129.5 128.5t-47 185t47 185t129.5 128.5t186.5 46.5t186.5 -46.5t129.5 -128.5t47 -185t-47 -185t-130 -128.5t-187 -46.5q-103 0 -185.5 46.5zM574 98.5q64 36.5 100 102t36 149.5t-36 150t-100 102.5t-145 36.5t-145 -36.5t-100 -102.5
t-36 -150t36 -149.5t100 -102t145 -36.5t145 36.5zM395 754q23 23 35.5 42.5t12.5 42.5q0 17 -11.5 28t-29.5 11t-35 -10l-4 34q30 15 61 15q32 0 51.5 -17.5t19.5 -42.5q0 -59 -63 -115z" />
    <glyph glyph-name="uni1ECF" unicode="&#x1ecf;" 
d="M190.5 26q-64.5 36 -101 100t-36.5 145q0 80 36.5 143.5t101.5 99.5t146 36q82 0 147 -36t101.5 -99t36.5 -143q0 -81 -36.5 -145t-101.5 -100.5t-147 -36.5t-146.5 36zM445.5 86q47.5 27 74.5 75t27 110t-27 110t-75 74.5t-108 26.5t-107.5 -26.5t-74.5 -74.5t-27 -110
t27 -110t75 -75t108 -27t107.5 27zM304 595q23 23 35.5 42.5t12.5 42.5q0 17 -11.5 28t-29.5 11t-35 -10l-4 34q30 15 61 15q32 0 51.5 -17.5t19.5 -42.5q0 -59 -63 -115z" />
    <glyph glyph-name="uni1ED0" unicode="&#x1ed0;" horiz-adv-x="858" 
d="M242.5 36.5q-82.5 46.5 -129.5 128.5t-47 185t47 185t129.5 128.5t186.5 46.5t186.5 -46.5t129.5 -128.5t47 -185t-47 -185t-130 -128.5t-187 -46.5q-103 0 -185.5 46.5zM574 98.5q64 36.5 100 102t36 149.5t-36 150t-100 102.5t-145 36.5t-145 -36.5t-100 -102.5
t-36 -150t36 -149.5t100 -102t145 -36.5t145 36.5zM467 881l105 -121l-64 -6l-78 96l-78 -96l-64 6l105 121h74zM552 1019l-94 -101l-52 5l80 113z" />
    <glyph glyph-name="uni1ED1" unicode="&#x1ed1;" 
d="M190.5 26q-64.5 36 -101 100t-36.5 145q0 80 36.5 143.5t101.5 99.5t146 36q82 0 147 -36t101.5 -99t36.5 -143q0 -81 -36.5 -145t-101.5 -100.5t-147 -36.5t-146.5 36zM445.5 86q47.5 27 74.5 75t27 110t-27 110t-75 74.5t-108 26.5t-107.5 -26.5t-74.5 -74.5t-27 -110
t27 -110t75 -75t108 -27t107.5 27zM372 730l97 -132l-59 -7l-72 105l-73 -105l-59 7l97 132h69zM480 909l-116 -127l-52 7l96 137z" />
    <glyph glyph-name="uni1ED2" unicode="&#x1ed2;" horiz-adv-x="858" 
d="M242.5 36.5q-82.5 46.5 -129.5 128.5t-47 185t47 185t129.5 128.5t186.5 46.5t186.5 -46.5t129.5 -128.5t47 -185t-47 -185t-130 -128.5t-187 -46.5q-103 0 -185.5 46.5zM574 98.5q64 36.5 100 102t36 149.5t-36 150t-100 102.5t-145 36.5t-145 -36.5t-100 -102.5
t-36 -150t36 -149.5t100 -102t145 -36.5t145 36.5zM467 881l105 -121l-64 -6l-78 96l-78 -96l-64 6l105 121h74zM452 923l-52 -5l-94 101l66 17z" />
    <glyph glyph-name="uni1ED3" unicode="&#x1ed3;" 
d="M190.5 26q-64.5 36 -101 100t-36.5 145q0 80 36.5 143.5t101.5 99.5t146 36q82 0 147 -36t101.5 -99t36.5 -143q0 -81 -36.5 -145t-101.5 -100.5t-147 -36.5t-146.5 36zM445.5 86q47.5 27 74.5 75t27 110t-27 110t-75 74.5t-108 26.5t-107.5 -26.5t-74.5 -74.5t-27 -110
t27 -110t75 -75t108 -27t107.5 27zM372 730l97 -132l-59 -7l-72 105l-73 -105l-59 7l97 132h69zM364 789l-52 -7l-116 127l72 17z" />
    <glyph glyph-name="uni1ED4" unicode="&#x1ed4;" horiz-adv-x="858" 
d="M242.5 36.5q-82.5 46.5 -129.5 128.5t-47 185t47 185t129.5 128.5t186.5 46.5t186.5 -46.5t129.5 -128.5t47 -185t-47 -185t-130 -128.5t-187 -46.5q-103 0 -185.5 46.5zM574 98.5q64 36.5 100 102t36 149.5t-36 150t-100 102.5t-145 36.5t-145 -36.5t-100 -102.5
t-36 -150t36 -149.5t100 -102t145 -36.5t145 36.5zM467 881l105 -121l-64 -6l-78 96l-78 -96l-64 6l105 121h74zM395 925q23 23 35.5 42.5t12.5 42.5q0 17 -11.5 28t-29.5 11t-35 -10l-4 34q30 15 61 15q32 0 51.5 -17.5t19.5 -42.5q0 -59 -63 -115z" />
    <glyph glyph-name="uni1ED5" unicode="&#x1ed5;" 
d="M190.5 26q-64.5 36 -101 100t-36.5 145q0 80 36.5 143.5t101.5 99.5t146 36q82 0 147 -36t101.5 -99t36.5 -143q0 -81 -36.5 -145t-101.5 -100.5t-147 -36.5t-146.5 36zM445.5 86q47.5 27 74.5 75t27 110t-27 110t-75 74.5t-108 26.5t-107.5 -26.5t-74.5 -74.5t-27 -110
t27 -110t75 -75t108 -27t107.5 27zM372 730l97 -132l-59 -7l-72 105l-73 -105l-59 7l97 132h69zM304 784q23 23 35.5 42.5t12.5 42.5q0 17 -11.5 28t-29.5 11t-35 -10l-4 34q30 15 61 15q32 0 51.5 -17.5t19.5 -42.5q0 -59 -63 -115z" />
    <glyph glyph-name="uni1ED6" unicode="&#x1ed6;" horiz-adv-x="858" 
d="M242.5 36.5q-82.5 46.5 -129.5 128.5t-47 185t47 185t129.5 128.5t186.5 46.5t186.5 -46.5t129.5 -128.5t47 -185t-47 -185t-130 -128.5t-187 -46.5q-103 0 -185.5 46.5zM574 98.5q64 36.5 100 102t36 149.5t-36 150t-100 102.5t-145 36.5t-145 -36.5t-100 -102.5
t-36 -150t36 -149.5t100 -102t145 -36.5t145 36.5zM467 881l105 -121l-64 -6l-78 96l-78 -96l-64 6l105 121h74zM264 934q0 41 23.5 66.5t59.5 25.5q19 0 35.5 -6.5t40.5 -20.5q19 -11 31.5 -16.5t25.5 -5.5q22 0 36 15t14 39l39 -10q0 -41 -23 -66.5t-59 -25.5
q-19 0 -35.5 6.5t-40.5 20.5q-20 11 -32 16.5t-25 5.5q-22 0 -36 -15t-14 -39z" />
    <glyph glyph-name="uni1ED7" unicode="&#x1ed7;" 
d="M190.5 26q-64.5 36 -101 100t-36.5 145q0 80 36.5 143.5t101.5 99.5t146 36q82 0 147 -36t101.5 -99t36.5 -143q0 -81 -36.5 -145t-101.5 -100.5t-147 -36.5t-146.5 36zM445.5 86q47.5 27 74.5 75t27 110t-27 110t-75 74.5t-108 26.5t-107.5 -26.5t-74.5 -74.5t-27 -110
t27 -110t75 -75t108 -27t107.5 27zM372 730l97 -132l-59 -7l-72 105l-73 -105l-59 7l97 132h69zM185 806q0 41 23.5 66.5t59.5 25.5q19 0 35.5 -6.5t40.5 -20.5q19 -11 31.5 -16.5t25.5 -5.5q22 0 36 15t14 39l39 -10q0 -41 -23 -66.5t-59 -25.5q-19 0 -35.5 6.5t-40.5 20.5
q-20 11 -32 16.5t-25 5.5q-22 0 -36 -15t-14 -39z" />
    <glyph glyph-name="uni1ED8" unicode="&#x1ed8;" horiz-adv-x="858" 
d="M242.5 36.5q-82.5 46.5 -129.5 128.5t-47 185t47 185t129.5 128.5t186.5 46.5t186.5 -46.5t129.5 -128.5t47 -185t-47 -185t-130 -128.5t-187 -46.5q-103 0 -185.5 46.5zM574 98.5q64 36.5 100 102t36 149.5t-36 150t-100 102.5t-145 36.5t-145 -36.5t-100 -102.5
t-36 -150t36 -149.5t100 -102t145 -36.5t145 36.5zM386 -160v110h79v-110h-79zM467 881l105 -121l-64 -6l-78 96l-78 -96l-64 6l105 121h74z" />
    <glyph glyph-name="uni1ED9" unicode="&#x1ed9;" 
d="M190.5 26q-64.5 36 -101 100t-36.5 145q0 80 36.5 143.5t101.5 99.5t146 36q82 0 147 -36t101.5 -99t36.5 -143q0 -81 -36.5 -145t-101.5 -100.5t-147 -36.5t-146.5 36zM445.5 86q47.5 27 74.5 75t27 110t-27 110t-75 74.5t-108 26.5t-107.5 -26.5t-74.5 -74.5t-27 -110
t27 -110t75 -75t108 -27t107.5 27zM295 -160v110h79v-110h-79zM372 730l97 -132l-59 -7l-72 105l-73 -105l-59 7l97 132h69z" />
    <glyph glyph-name="uni1EDA" unicode="&#x1eda;" horiz-adv-x="858" 
d="M764 495.5q28 -67.5 28 -145.5q0 -103 -47 -185t-130 -128.5t-187 -46.5q-103 0 -185.5 46.5t-129.5 128.5t-47 185t47 185t129.5 128.5t186.5 46.5q113 0 199 -54q36 -2 57.5 11.5t21.5 44.5q0 20 -10 46l65 4q12 -34 12 -61q0 -41 -24 -64t-64 -25q50 -49 78 -116.5z
M574 98.5q64 36.5 100 102t36 149.5t-36 150t-100 102.5t-145 36.5t-145 -36.5t-100 -102.5t-36 -150t36 -149.5t100 -102t145 -36.5t145 36.5zM552 848l-94 -101l-52 5l80 113z" />
    <glyph glyph-name="uni1EDB" unicode="&#x1edb;" 
d="M599.5 385.5q22.5 -52.5 22.5 -113.5q0 -81 -36.5 -145t-101.5 -100.5t-147 -36.5t-146.5 36t-101 100t-36.5 145q0 80 36.5 143.5t101.5 99.5t146 36q74 0 134 -29l15 -1q31 0 50 13.5t19 41.5q0 21 -10 47l65 4q12 -34 12 -62q0 -40 -23 -63t-62 -25q40 -38 62.5 -90.5
zM445.5 86q47.5 27 74.5 75t27 110t-27 110t-75 74.5t-108 26.5t-107.5 -26.5t-74.5 -74.5t-27 -110t27 -110t75 -75t108 -27t107.5 27zM480 720l-116 -127l-52 7l96 137z" />
    <glyph glyph-name="uni1EDC" unicode="&#x1edc;" horiz-adv-x="858" 
d="M764 495.5q28 -67.5 28 -145.5q0 -103 -47 -185t-130 -128.5t-187 -46.5q-103 0 -185.5 46.5t-129.5 128.5t-47 185t47 185t129.5 128.5t186.5 46.5q113 0 199 -54q36 -2 57.5 11.5t21.5 44.5q0 20 -10 46l65 4q12 -34 12 -61q0 -41 -24 -64t-64 -25q50 -49 78 -116.5z
M574 98.5q64 36.5 100 102t36 149.5t-36 150t-100 102.5t-145 36.5t-145 -36.5t-100 -102.5t-36 -150t36 -149.5t100 -102t145 -36.5t145 36.5zM452 752l-52 -5l-94 101l66 17z" />
    <glyph glyph-name="uni1EDD" unicode="&#x1edd;" 
d="M599.5 385.5q22.5 -52.5 22.5 -113.5q0 -81 -36.5 -145t-101.5 -100.5t-147 -36.5t-146.5 36t-101 100t-36.5 145q0 80 36.5 143.5t101.5 99.5t146 36q74 0 134 -29l15 -1q31 0 50 13.5t19 41.5q0 21 -10 47l65 4q12 -34 12 -62q0 -40 -23 -63t-62 -25q40 -38 62.5 -90.5
zM445.5 86q47.5 27 74.5 75t27 110t-27 110t-75 74.5t-108 26.5t-107.5 -26.5t-74.5 -74.5t-27 -110t27 -110t75 -75t108 -27t107.5 27zM364 600l-52 -7l-116 127l72 17z" />
    <glyph glyph-name="uni1EDE" unicode="&#x1ede;" horiz-adv-x="858" 
d="M764 495.5q28 -67.5 28 -145.5q0 -103 -47 -185t-130 -128.5t-187 -46.5q-103 0 -185.5 46.5t-129.5 128.5t-47 185t47 185t129.5 128.5t186.5 46.5q113 0 199 -54q36 -2 57.5 11.5t21.5 44.5q0 20 -10 46l65 4q12 -34 12 -61q0 -41 -24 -64t-64 -25q50 -49 78 -116.5z
M574 98.5q64 36.5 100 102t36 149.5t-36 150t-100 102.5t-145 36.5t-145 -36.5t-100 -102.5t-36 -150t36 -149.5t100 -102t145 -36.5t145 36.5zM395 754q23 23 35.5 42.5t12.5 42.5q0 17 -11.5 28t-29.5 11t-35 -10l-4 34q30 15 61 15q32 0 51.5 -17.5t19.5 -42.5
q0 -59 -63 -115z" />
    <glyph glyph-name="uni1EDF" unicode="&#x1edf;" 
d="M599.5 385.5q22.5 -52.5 22.5 -113.5q0 -81 -36.5 -145t-101.5 -100.5t-147 -36.5t-146.5 36t-101 100t-36.5 145q0 80 36.5 143.5t101.5 99.5t146 36q74 0 134 -29l15 -1q31 0 50 13.5t19 41.5q0 21 -10 47l65 4q12 -34 12 -62q0 -40 -23 -63t-62 -25q40 -38 62.5 -90.5
zM445.5 86q47.5 27 74.5 75t27 110t-27 110t-75 74.5t-108 26.5t-107.5 -26.5t-74.5 -74.5t-27 -110t27 -110t75 -75t108 -27t107.5 27zM304 595q23 23 35.5 42.5t12.5 42.5q0 17 -11.5 28t-29.5 11t-35 -10l-4 34q30 15 61 15q32 0 51.5 -17.5t19.5 -42.5q0 -59 -63 -115z
" />
    <glyph glyph-name="uni1EE0" unicode="&#x1ee0;" horiz-adv-x="858" 
d="M764 495.5q28 -67.5 28 -145.5q0 -103 -47 -185t-130 -128.5t-187 -46.5q-103 0 -185.5 46.5t-129.5 128.5t-47 185t47 185t129.5 128.5t186.5 46.5q113 0 199 -54q36 -2 57.5 11.5t21.5 44.5q0 20 -10 46l65 4q12 -34 12 -61q0 -41 -24 -64t-64 -25q50 -49 78 -116.5z
M574 98.5q64 36.5 100 102t36 149.5t-36 150t-100 102.5t-145 36.5t-145 -36.5t-100 -102.5t-36 -150t36 -149.5t100 -102t145 -36.5t145 36.5zM264 763q0 41 23.5 66.5t59.5 25.5q19 0 35.5 -6.5t40.5 -20.5q19 -11 31.5 -16.5t25.5 -5.5q22 0 36 15t14 39l39 -10
q0 -41 -23 -66.5t-59 -25.5q-19 0 -35.5 6.5t-40.5 20.5q-20 11 -32 16.5t-25 5.5q-22 0 -36 -15t-14 -39z" />
    <glyph glyph-name="uni1EE1" unicode="&#x1ee1;" 
d="M599.5 385.5q22.5 -52.5 22.5 -113.5q0 -81 -36.5 -145t-101.5 -100.5t-147 -36.5t-146.5 36t-101 100t-36.5 145q0 80 36.5 143.5t101.5 99.5t146 36q74 0 134 -29l15 -1q31 0 50 13.5t19 41.5q0 21 -10 47l65 4q12 -34 12 -62q0 -40 -23 -63t-62 -25q40 -38 62.5 -90.5
zM445.5 86q47.5 27 74.5 75t27 110t-27 110t-75 74.5t-108 26.5t-107.5 -26.5t-74.5 -74.5t-27 -110t27 -110t75 -75t108 -27t107.5 27zM185 617q0 41 23.5 66.5t59.5 25.5q19 0 35.5 -6.5t40.5 -20.5q19 -11 31.5 -16.5t25.5 -5.5q22 0 36 15t14 39l39 -10q0 -41 -23 -66.5
t-59 -25.5q-19 0 -35.5 6.5t-40.5 20.5q-20 11 -32 16.5t-25 5.5q-22 0 -36 -15t-14 -39z" />
    <glyph glyph-name="uni1EE2" unicode="&#x1ee2;" horiz-adv-x="858" 
d="M764 495.5q28 -67.5 28 -145.5q0 -103 -47 -185t-130 -128.5t-187 -46.5q-103 0 -185.5 46.5t-129.5 128.5t-47 185t47 185t129.5 128.5t186.5 46.5q113 0 199 -54q36 -2 57.5 11.5t21.5 44.5q0 20 -10 46l65 4q12 -34 12 -61q0 -41 -24 -64t-64 -25q50 -49 78 -116.5z
M574 98.5q64 36.5 100 102t36 149.5t-36 150t-100 102.5t-145 36.5t-145 -36.5t-100 -102.5t-36 -150t36 -149.5t100 -102t145 -36.5t145 36.5zM386 -160v110h79v-110h-79z" />
    <glyph glyph-name="uni1EE3" unicode="&#x1ee3;" 
d="M599.5 385.5q22.5 -52.5 22.5 -113.5q0 -81 -36.5 -145t-101.5 -100.5t-147 -36.5t-146.5 36t-101 100t-36.5 145q0 80 36.5 143.5t101.5 99.5t146 36q74 0 134 -29l15 -1q31 0 50 13.5t19 41.5q0 21 -10 47l65 4q12 -34 12 -62q0 -40 -23 -63t-62 -25q40 -38 62.5 -90.5
zM445.5 86q47.5 27 74.5 75t27 110t-27 110t-75 74.5t-108 26.5t-107.5 -26.5t-74.5 -74.5t-27 -110t27 -110t75 -75t108 -27t107.5 27zM295 -160v110h79v-110h-79z" />
    <glyph glyph-name="uni1EE4" unicode="&#x1ee4;" horiz-adv-x="740" 
d="M214 26.5q-66 35.5 -102 102.5t-36 159v412h78v-398q0 -109 57.5 -169.5t158.5 -60.5t159 60.5t58 169.5v398h77v-412q0 -92 -35.5 -159t-102 -102.5t-156.5 -35.5t-156 35.5zM328 -160v110h79v-110h-79z" />
    <glyph glyph-name="uni1EE5" unicode="&#x1ee5;" horiz-adv-x="655" 
d="M497 541h74v-541h-74v97q-32 -48 -85.5 -77t-121.5 -29q-98 0 -157 62t-59 169v319h75v-309q0 -81 41.5 -126.5t116.5 -45.5q52 0 95.5 26t69 72t25.5 103v280zM293 -160v110h79v-110h-79z" />
    <glyph glyph-name="uni1EE6" unicode="&#x1ee6;" horiz-adv-x="740" 
d="M214 26.5q-66 35.5 -102 102.5t-36 159v412h78v-398q0 -109 57.5 -169.5t158.5 -60.5t159 60.5t58 169.5v398h77v-412q0 -92 -35.5 -159t-102 -102.5t-156.5 -35.5t-156 35.5zM337 754q23 23 35.5 42.5t12.5 42.5q0 17 -11.5 28t-29.5 11t-35 -10l-4 34q30 15 61 15
q32 0 51.5 -17.5t19.5 -42.5q0 -59 -63 -115z" />
    <glyph glyph-name="uni1EE7" unicode="&#x1ee7;" horiz-adv-x="655" 
d="M497 541h74v-541h-74v97q-32 -48 -85.5 -77t-121.5 -29q-98 0 -157 62t-59 169v319h75v-309q0 -81 41.5 -126.5t116.5 -45.5q52 0 95.5 26t69 72t25.5 103v280zM286 595q23 23 35.5 42.5t12.5 42.5q0 17 -11.5 28t-29.5 11t-35 -10l-4 34q30 15 61 15q32 0 51.5 -17.5
t19.5 -42.5q0 -59 -63 -115z" />
    <glyph glyph-name="uni1EE8" unicode="&#x1ee8;" horiz-adv-x="766" 
d="M781 805q11 -30 11 -59q0 -40 -24 -63t-65 -23q-16 0 -39 5v-377q0 -92 -35.5 -159t-102 -102.5t-156.5 -35.5t-156 35.5t-102 102.5t-36 159v412h78v-398q0 -109 57.5 -169.5t158.5 -60.5t159 60.5t58 169.5v398h56l1 4q6 -1 17 -1q30 0 48 13t18 41q0 18 -9 45z
M493 848l-94 -101l-52 5l80 113z" />
    <glyph glyph-name="uni1EE9" unicode="&#x1ee9;" horiz-adv-x="680" 
d="M689 646q11 -30 11 -58q0 -40 -23.5 -62.5t-63.5 -22.5q-19 0 -42 6v-509h-74v97q-32 -48 -85.5 -77t-121.5 -29q-98 0 -157 62t-59 169v319h75v-309q0 -81 41.5 -126.5t116.5 -45.5q52 0 95.5 26t69 72t25.5 103v280h56l2 5q6 -1 16 -1q30 0 48 13t18 41q0 18 -9 43z
M462 720l-116 -127l-52 7l96 137z" />
    <glyph glyph-name="uni1EEA" unicode="&#x1eea;" horiz-adv-x="766" 
d="M781 805q11 -30 11 -59q0 -40 -24 -63t-65 -23q-16 0 -39 5v-377q0 -92 -35.5 -159t-102 -102.5t-156.5 -35.5t-156 35.5t-102 102.5t-36 159v412h78v-398q0 -109 57.5 -169.5t158.5 -60.5t159 60.5t58 169.5v398h56l1 4q6 -1 17 -1q30 0 48 13t18 41q0 18 -9 45z
M394 752l-52 -5l-94 101l66 17z" />
    <glyph glyph-name="uni1EEB" unicode="&#x1eeb;" horiz-adv-x="680" 
d="M689 646q11 -30 11 -58q0 -40 -23.5 -62.5t-63.5 -22.5q-19 0 -42 6v-509h-74v97q-32 -48 -85.5 -77t-121.5 -29q-98 0 -157 62t-59 169v319h75v-309q0 -81 41.5 -126.5t116.5 -45.5q52 0 95.5 26t69 72t25.5 103v280h56l2 5q6 -1 16 -1q30 0 48 13t18 41q0 18 -9 43z
M346 600l-52 -7l-116 127l72 17z" />
    <glyph glyph-name="uni1EEC" unicode="&#x1eec;" horiz-adv-x="766" 
d="M781 805q11 -30 11 -59q0 -40 -24 -63t-65 -23q-16 0 -39 5v-377q0 -92 -35.5 -159t-102 -102.5t-156.5 -35.5t-156 35.5t-102 102.5t-36 159v412h78v-398q0 -109 57.5 -169.5t158.5 -60.5t159 60.5t58 169.5v398h56l1 4q6 -1 17 -1q30 0 48 13t18 41q0 18 -9 45z
M337 754q23 23 35.5 42.5t12.5 42.5q0 17 -11.5 28t-29.5 11t-35 -10l-4 34q30 15 61 15q32 0 51.5 -17.5t19.5 -42.5q0 -59 -63 -115z" />
    <glyph glyph-name="uni1EED" unicode="&#x1eed;" horiz-adv-x="680" 
d="M689 646q11 -30 11 -58q0 -40 -23.5 -62.5t-63.5 -22.5q-19 0 -42 6v-509h-74v97q-32 -48 -85.5 -77t-121.5 -29q-98 0 -157 62t-59 169v319h75v-309q0 -81 41.5 -126.5t116.5 -45.5q52 0 95.5 26t69 72t25.5 103v280h56l2 5q6 -1 16 -1q30 0 48 13t18 41q0 18 -9 43z
M286 595q23 23 35.5 42.5t12.5 42.5q0 17 -11.5 28t-29.5 11t-35 -10l-4 34q30 15 61 15q32 0 51.5 -17.5t19.5 -42.5q0 -59 -63 -115z" />
    <glyph glyph-name="uni1EEE" unicode="&#x1eee;" horiz-adv-x="766" 
d="M781 805q11 -30 11 -59q0 -40 -24 -63t-65 -23q-16 0 -39 5v-377q0 -92 -35.5 -159t-102 -102.5t-156.5 -35.5t-156 35.5t-102 102.5t-36 159v412h78v-398q0 -109 57.5 -169.5t158.5 -60.5t159 60.5t58 169.5v398h56l1 4q6 -1 17 -1q30 0 48 13t18 41q0 18 -9 45z
M206 763q0 41 23.5 66.5t59.5 25.5q19 0 35.5 -6.5t40.5 -20.5q19 -11 31.5 -16.5t25.5 -5.5q22 0 36 15t14 39l39 -10q0 -41 -23 -66.5t-59 -25.5q-19 0 -35.5 6.5t-40.5 20.5q-20 11 -32 16.5t-25 5.5q-22 0 -36 -15t-14 -39z" />
    <glyph glyph-name="uni1EEF" unicode="&#x1eef;" horiz-adv-x="680" 
d="M689 646q11 -30 11 -58q0 -40 -23.5 -62.5t-63.5 -22.5q-19 0 -42 6v-509h-74v97q-32 -48 -85.5 -77t-121.5 -29q-98 0 -157 62t-59 169v319h75v-309q0 -81 41.5 -126.5t116.5 -45.5q52 0 95.5 26t69 72t25.5 103v280h56l2 5q6 -1 16 -1q30 0 48 13t18 41q0 18 -9 43z
M167 617q0 41 23.5 66.5t59.5 25.5q19 0 35.5 -6.5t40.5 -20.5q19 -11 31.5 -16.5t25.5 -5.5q22 0 36 15t14 39l39 -10q0 -41 -23 -66.5t-59 -25.5q-19 0 -35.5 6.5t-40.5 20.5q-20 11 -32 16.5t-25 5.5q-22 0 -36 -15t-14 -39z" />
    <glyph glyph-name="uni1EF0" unicode="&#x1ef0;" horiz-adv-x="766" 
d="M781 805q11 -30 11 -59q0 -40 -24 -63t-65 -23q-16 0 -39 5v-377q0 -92 -35.5 -159t-102 -102.5t-156.5 -35.5t-156 35.5t-102 102.5t-36 159v412h78v-398q0 -109 57.5 -169.5t158.5 -60.5t159 60.5t58 169.5v398h56l1 4q6 -1 17 -1q30 0 48 13t18 41q0 18 -9 45z
M328 -160v110h79v-110h-79z" />
    </font>
</defs>
</svg>
