<?xml version="1.0" standalone="no"?>
<!DOCTYPE svg PUBLIC "-//W3C//DTD SVG 1.1//EN" "http://www.w3.org/Graphics/SVG/1.1/DTD/svg11.dtd" >
<svg xmlns="http://www.w3.org/2000/svg" xmlns:xlink="http://www.w3.org/1999/xlink" version="1.1">
<metadata>
Created by FontForge 20190801 at Wed Jun  3 06:06:56 2020
 By root
Copyright (c) 2020 by Francesco Canovaro. All rights reserved.
</metadata>
<defs>
<font id="Eastman-Extrabold" horiz-adv-x="697" >
  <font-face 
    font-family="Eastman Extrabold"
    font-weight="400"
    font-stretch="normal"
    units-per-em="1000"
    panose-1="0 0 8 0 0 0 0 0 0 0"
    ascent="809"
    descent="-191"
    x-height="559"
    cap-height="700"
    bbox="-864 -251 1597 1160"
    underline-thickness="113"
    underline-position="-310"
    unicode-range="U+0020-F8FF"
  />
<missing-glyph horiz-adv-x="607" 
 />
    <glyph glyph-name=".notdef" horiz-adv-x="607" 
 />
    <glyph glyph-name=".null" horiz-adv-x="0" 
 />
    <glyph glyph-name="nonmarkingreturn" horiz-adv-x="333" 
 />
    <glyph glyph-name="space" unicode=" " horiz-adv-x="294" 
 />
    <glyph glyph-name="exclam" unicode="!" horiz-adv-x="295" 
d="M42 470v230h210v-229l-32 -232h-146zM38 0v189h219v-189h-219z" />
    <glyph glyph-name="quotedbl" unicode="&#x22;" horiz-adv-x="404" 
d="M186 700l-40 -216h-109l2 216h147zM366 700l-40 -216h-109l2 216h147z" />
    <glyph glyph-name="numbersign" unicode="#" horiz-adv-x="789" 
d="M751 529v-154h-117l-31 -110h94v-154h-138l-29 -103h-186l29 103h-86l-29 -103h-186l29 103h-64v154h107l31 110h-83v154h127l31 111h187l-31 -111h85l31 111h187l-31 -111h73zM331 265h85l31 110h-85z" />
    <glyph glyph-name="dollar" unicode="$" horiz-adv-x="662" 
d="M582.5 68q-61.5 -59 -162.5 -76v-69h-160v68q-73 9 -135.5 32.5t-109.5 56.5l82 151q142 -81 251 -81q35 0 56.5 12.5t21.5 33.5q0 27 -25 39.5t-92 26.5q-134 28 -205.5 79.5t-71.5 150.5q0 91 62.5 147t165.5 70v74h160v-76q117 -18 201 -87l-97 -133
q-42 30 -91.5 46.5t-98.5 16.5q-82 0 -82 -46q0 -22 26 -37t89 -28q96 -20 155.5 -46t90.5 -68.5t31 -107.5q0 -90 -61.5 -149z" />
    <glyph glyph-name="percent" unicode="%" horiz-adv-x="1068" 
d="M71 387.5q-52 51.5 -52 139.5t52 139t141 51q88 0 140 -51.5t52 -138.5q0 -88 -52 -139.5t-140 -51.5q-89 0 -141 51.5zM249 470q14 21 14 57q0 35 -14 55.5t-37 20.5t-37 -20.5t-14 -55.5t14 -56.5t37 -21.5t37 21zM420 0h-178l409 700h179zM715 43.5
q-52 51.5 -52 139.5t52 139t141 51q88 0 140 -51.5t52 -138.5q0 -88 -52 -139.5t-140 -51.5q-89 0 -141 51.5zM893 126q14 21 14 57q0 35 -14 55.5t-37 20.5t-37 -20.5t-14 -55.5t14 -56.5t37 -21.5t37 21z" />
    <glyph glyph-name="ampersand" unicode="&#x26;" horiz-adv-x="812" 
d="M812 328h-99q-7 -43 -25 -87t-46 -84q60 -24 111 -21l1 -139q-104 -6 -223 52q-96 -61 -225 -61q-136 0 -202.5 55.5t-66.5 160.5q0 88 49.5 148.5t111.5 90.5q-4 20 -4 44q0 110 71.5 168.5t186.5 58.5q63 0 113.5 -21t79.5 -58t29 -84q0 -27 -11 -54t-33 -59h182v-110z
M569 328h-106v110q46 32 46 77q0 22 -16.5 33.5t-47.5 11.5q-32 0 -47.5 -10.5t-19.5 -26t-4 -38.5q0 -63 44.5 -135t114.5 -128q31 46 36 106zM398 136q-92 77 -148 170q-21 -21 -32.5 -42t-11.5 -47q0 -40 31 -64t90 -24q42 0 71 7z" />
    <glyph glyph-name="quotesingle" unicode="'" horiz-adv-x="224" 
d="M186 700l-40 -216h-109l2 216h147z" />
    <glyph glyph-name="parenleft" unicode="(" horiz-adv-x="432" 
d="M272 -191q-115 92 -175 211t-60 261q0 140 60 260.5t175 210.5l140 -107q-82 -80 -123 -172t-41 -192q0 -207 164 -364z" />
    <glyph glyph-name="parenright" unicode=")" horiz-adv-x="432" 
d="M160 752q115 -92 175 -211t60 -260t-60 -261.5t-175 -210.5l-141 108q83 79 124 171.5t41 192.5q0 206 -165 364z" />
    <glyph glyph-name="asterisk" unicode="*" horiz-adv-x="486" 
d="M358 490l-30 -2l23 -19l68 -78l-112 -81l-53 88l-11 28l-11 -28l-54 -88l-112 81l69 78l23 19l-30 2l-100 23l42 131l95 -40l26 -17l-8 31l-8 103h137l-8 -103l-8 -30l25 16l95 40l42 -131z" />
    <glyph glyph-name="plus" unicode="+" horiz-adv-x="514" 
d="M338 399h156v-162h-156v-138h-163v138h-156v162h156v137h163v-137z" />
    <glyph glyph-name="comma" unicode="," horiz-adv-x="295" 
d="M50 -89q37 25 52 42.5t16 46.5h-81v189h211q13 -66 13 -120q0 -70 -21 -114.5t-55.5 -71t-86.5 -48.5z" />
    <glyph glyph-name="hyphen" unicode="-" horiz-adv-x="417" 
d="M397 315v-162h-378v162h378z" />
    <glyph glyph-name="period" unicode="." horiz-adv-x="295" 
d="M38 0v189h219v-189h-219z" />
    <glyph glyph-name="slash" unicode="/" horiz-adv-x="625" 
d="M232 -104h-195l356 804h195z" />
    <glyph glyph-name="zero" unicode="0" horiz-adv-x="736" 
d="M192 31.5q-75 45.5 -115 128t-40 190.5t40 190.5t115 128t176 45.5q100 0 175 -45t115 -127.5t40 -191.5q0 -108 -40 -190.5t-115 -128t-176 -45.5q-100 0 -175 45.5zM456 209q32 54 32 141t-33 140t-88 53t-87 -53.5t-32 -139.5q0 -88 32.5 -141.5t87.5 -53.5
q56 0 88 54z" />
    <glyph glyph-name="one" unicode="1" horiz-adv-x="419" 
d="M9 672l175 28h176v-700h-211v522l-116 -18z" />
    <glyph glyph-name="two" unicode="2" horiz-adv-x="654" 
d="M606 170v-170h-558v144q167 116 243 184q48 44 72 76.5t24 59.5q0 41 -26 62.5t-69 21.5q-80 0 -152 -74l-110 131q54 52 130 80.5t153 28.5t142 -27.5t103.5 -80.5t38.5 -126q0 -62 -31.5 -114.5t-94.5 -104.5q-61 -48 -143 -91h278z" />
    <glyph glyph-name="three" unicode="3" horiz-adv-x="658" 
d="M431 435q90 -14 142 -69t52 -141q0 -73 -40 -127t-107.5 -83t-147.5 -29q-96 0 -171.5 28.5t-128.5 80.5l91 131q34 -28 95.5 -49.5t99.5 -21.5q41 0 67 20t26 50q0 26 -16.5 45t-48.5 23q-23 4 -90 4q-43 0 -57 -1v108l132 126h-233v170h485l10 -136z" />
    <glyph glyph-name="four" unicode="4" 
d="M579 276h81v-148h-81v-128h-195v128h-335l-38 111l309 461h259v-424zM384 526l-151 -250h151v250z" />
    <glyph glyph-name="five" unicode="5" horiz-adv-x="661" 
d="M517.5 407.5q49.5 -27.5 77.5 -75.5t28 -107q0 -68 -37.5 -122.5t-103.5 -85.5t-148 -31q-94 0 -171.5 26.5t-126.5 75.5l93 133q41 -31 88 -48.5t94 -17.5t74.5 19.5t27.5 50.5q0 36 -29.5 54.5t-80.5 18.5q-33 0 -97.5 -8t-91.5 -16l-38 82l16 344h497v-170h-310
l-4 -114q51 19 132 19q61 0 110.5 -27.5z" />
    <glyph glyph-name="six" unicode="6" horiz-adv-x="713" 
d="M189.5 28.5q-73.5 42.5 -113 118.5t-39.5 174q0 194 89.5 293.5t267.5 99.5q66 0 119.5 -14t110.5 -47l-73 -144q-27 19 -65.5 30t-74.5 11q-78 0 -119.5 -42.5t-44.5 -119.5l-1 -16q15 38 60.5 65.5t116.5 27.5q114 0 183.5 -59t69.5 -170q0 -74 -39.5 -130.5
t-110.5 -88t-163 -31.5q-100 0 -173.5 42.5zM439.5 180.5q28.5 25.5 28.5 65.5q0 39 -27.5 64t-66.5 25q-45 0 -74 -25.5t-29 -65.5q0 -41 26 -65t70 -24t72.5 25.5z" />
    <glyph glyph-name="seven" unicode="7" horiz-adv-x="610" 
d="M18 700h543l38 -129l-295 -571h-232l283 530h-337v170z" />
    <glyph glyph-name="eight" unicode="8" horiz-adv-x="704" 
d="M630 309q37 -47 37 -106q0 -65 -39 -114t-110 -76t-166 -27t-166 27t-110 76t-39 114q0 59 37 106t97 66q-49 19 -80 57.5t-31 83.5q0 59 36 104t102 69.5t154 24.5t154 -24.5t102 -69.5t36 -104q0 -45 -31 -83.5t-80 -57.5q60 -19 97 -66zM298 527q-21 -17 -21 -46
t21 -46.5t54 -17.5t54 17.5t21 46.5t-21 46t-54 17t-54 -17zM422 177.5q27 20.5 27 54.5q0 33 -27 53.5t-70 20.5t-70 -20.5t-27 -53.5q0 -34 27 -54.5t70 -20.5t70 20.5z" />
    <glyph glyph-name="nine" unicode="9" horiz-adv-x="713" 
d="M524 671.5q74 -42.5 113 -118t39 -174.5q0 -194 -89 -293.5t-267 -99.5q-66 0 -120 14t-111 47l74 144q26 -19 64.5 -30t74.5 -11q78 0 119.5 42.5t44.5 119.5l1 16q-15 -38 -60.5 -65.5t-116.5 -27.5q-114 0 -183.5 59t-69.5 170q0 74 39.5 130.5t110.5 88t163 31.5
q100 0 174 -42.5zM273.5 519.5q-28.5 -25.5 -28.5 -65.5q0 -39 28 -64t67 -25q44 0 73 25.5t29 65.5q0 41 -26 65t-70 24t-72.5 -25.5z" />
    <glyph glyph-name="colon" unicode=":" horiz-adv-x="295" 
d="M257 371h-219v189h219v-189zM38 0v189h219v-189h-219z" />
    <glyph glyph-name="semicolon" unicode=";" horiz-adv-x="295" 
d="M260 370h-220v189h220v-189zM50 -89q37 25 52 42.5t16 46.5h-81v189h211q13 -66 13 -120q0 -70 -21 -114.5t-55.5 -71t-86.5 -48.5z" />
    <glyph glyph-name="less" unicode="&#x3c;" horiz-adv-x="559" 
d="M522 161l-72 -102l-412 271v71l417 272l67 -103l-326 -205z" />
    <glyph glyph-name="equal" unicode="=" horiz-adv-x="417" 
d="M397 555v-136h-378v136h378zM397 326v-136h-378v136h378z" />
    <glyph glyph-name="greater" unicode="&#x3e;" horiz-adv-x="559" 
d="M521 330l-412 -271l-72 102l326 204l-326 205l67 103l417 -272v-71z" />
    <glyph glyph-name="question" unicode="?" horiz-adv-x="554" 
d="M180 239q-2 26 -2 36q0 52 20 89t66 63q28 18 41 31.5t13 32.5q0 20 -17.5 31.5t-49.5 11.5q-70 0 -173 -62l-70 165q143 76 269 76q76 0 133 -23.5t87.5 -65.5t30.5 -97q0 -52 -28.5 -90.5t-77.5 -75.5q-42 -33 -59 -57.5t-20 -64.5h-163zM151 0v189h220v-189h-220z" />
    <glyph glyph-name="at" unicode="@" horiz-adv-x="945" 
d="M711.5 671.5q96.5 -53.5 146.5 -143t50 -193.5q0 -80 -26.5 -141t-75 -94.5t-114.5 -33.5q-116 0 -146 91q-59 -80 -149 -80q-57 0 -100.5 26.5t-67 73.5t-23.5 106q0 70 29 127t79.5 89t111.5 32q41 0 76.5 -19t61.5 -60l13 78l159 -25l-45 -274q-4 -30 -4 -41
q0 -59 42 -59q31 0 56.5 26.5t40.5 73t15 104.5q0 101 -48 174.5t-130 111.5t-183 38q-106 0 -192 -47.5t-135 -132.5t-49 -191q0 -94 44.5 -174t135 -129.5t222.5 -49.5v-65q-114 0 -221.5 44t-177.5 138t-70 236q0 119 55.5 219t157 159t234.5 59q131 0 227.5 -53.5z
M512 243.5q23 25.5 23 68.5q0 36 -20 56.5t-54 20.5q-36 0 -58 -23.5t-26 -63.5q-3 -38 17.5 -61t55.5 -23q39 0 62 25.5z" />
    <glyph glyph-name="A" unicode="A" horiz-adv-x="819" 
d="M819 0h-229l-40 106h-284l-41 -106h-226l301 700h218zM409 477l-86 -222h170z" />
    <glyph glyph-name="B" unicode="B" horiz-adv-x="749" 
d="M687 300q36 -44 36 -107q0 -91 -73 -142t-203 -51h-388v700h380q121 0 189 -46.5t68 -130.5q0 -55 -28.5 -96t-80.5 -62q64 -21 100 -65zM277 535v-114h121q83 0 83 58q0 56 -82 56h-122zM419 165q87 0 87 58q0 62 -88 62h-141v-120h142z" />
    <glyph glyph-name="C" unicode="C" horiz-adv-x="730" 
d="M226.5 33q-88.5 47 -139 130.5t-50.5 186.5t49.5 186.5t136 130.5t193.5 47q187 0 300 -126l-141 -127q-57 69 -147 69q-47 0 -86 -22t-61.5 -63t-22.5 -95t22.5 -94.5t60.5 -62.5t85 -22q42 0 81 17.5t71 52.5l140 -126q-53 -65 -128.5 -97t-165.5 -32q-109 0 -197.5 47
z" />
    <glyph glyph-name="D" unicode="D" horiz-adv-x="819" 
d="M59 0v700h327q119 0 209 -43t138.5 -121.5t48.5 -183.5q0 -107 -48.5 -186.5t-138 -122.5t-209.5 -43h-327zM377 181q84 0 132.5 45.5t48.5 124.5q0 78 -48.5 123t-132.5 45h-100v-338h100z" />
    <glyph glyph-name="E" unicode="E" horiz-adv-x="695" 
d="M272 277v-105h390v-172h-603v700h594v-172h-381v-94h332v-157h-332z" />
    <glyph glyph-name="F" unicode="F" horiz-adv-x="659" 
d="M643 700v-175h-368v-130h324v-164h-324v-231h-218v700h586z" />
    <glyph glyph-name="G" unicode="G" horiz-adv-x="774" 
d="M226.5 33q-88.5 47 -139 130t-50.5 186q0 104 49.5 187.5t137 130.5t197.5 47q83 0 158.5 -31.5t134.5 -94.5l-140 -127q-65 69 -147 69q-47 0 -85.5 -22t-61 -63.5t-22.5 -96.5q0 -83 49 -131.5t130 -48.5q58 0 97 22v182h195v-283q-61 -49 -140 -76t-163 -27
q-111 0 -199.5 47z" />
    <glyph glyph-name="H" unicode="H" horiz-adv-x="797" 
d="M519 439v261h219v-700h-219v258h-241v-258h-219v700h219v-261h241z" />
    <glyph glyph-name="I" unicode="I" horiz-adv-x="336" 
d="M277 0h-218v700h218v-700z" />
    <glyph glyph-name="J" unicode="J" horiz-adv-x="597" 
d="M110 22.5q-70 36.5 -110 99.5l139 122q23 -35 50 -53.5t64 -18.5q39 0 62.5 27.5t23.5 71.5v258h-213v171h424v-430q0 -82 -36.5 -146.5t-100.5 -101t-146 -36.5q-87 0 -157 36.5z" />
    <glyph glyph-name="K" unicode="K" horiz-adv-x="784" 
d="M779 0h-240l-167 249l-95 -108v-141h-218v700h218v-302l234 302h255l-258 -295z" />
    <glyph glyph-name="L" unicode="L" horiz-adv-x="625" 
d="M610 0h-551v700h216v-520h335v-180z" />
    <glyph glyph-name="M" unicode="M" horiz-adv-x="920" 
d="M461 381l198 319h202v-700h-208v357l-159 -260h-66l-161 261v-358h-208v700h203z" />
    <glyph glyph-name="N" unicode="N" horiz-adv-x="809" 
d="M277 0h-218v700h183l289 -352v352h219v-700h-177l-296 361v-361z" />
    <glyph glyph-name="O" unicode="O" horiz-adv-x="846" 
d="M224 33q-88 47 -137.5 129.5t-49.5 186.5t49.5 187.5t138 130.5t198.5 47q111 0 199 -47t137.5 -129.5t49.5 -186.5t-50 -187.5t-138 -130.5t-199 -47q-110 0 -198 47zM539.5 221q45.5 49 45.5 128q0 52 -20.5 93t-57.5 64t-84 23t-84 -22.5t-57.5 -63.5t-20.5 -93
t20.5 -92.5t57.5 -63t84 -22.5q71 0 116.5 49z" />
    <glyph glyph-name="P" unicode="P" horiz-adv-x="711" 
d="M541 668.5q73 -31.5 112 -91t39 -139.5q0 -82 -39.5 -142t-112.5 -92.5t-172 -32.5h-91v-171h-218v700h310q99 0 172 -31.5zM363 345q52 0 81.5 24t29.5 68q0 43 -29.5 66t-81.5 23h-86v-181h86z" />
    <glyph glyph-name="Q" unicode="Q" horiz-adv-x="846" 
d="M872 0q-70 0 -146 -3t-96 -4q-22 -1 -85 -4t-116 -3h-6v0h-1q-110 0 -198 47t-137.5 129.5t-49.5 186.5t49.5 187.5t138 130.5t198.5 47q111 0 199 -47t137.5 -129.5t49.5 -186.5q0 -117 -65 -211q36 22 90 22q10 0 38 -2v-160zM281.5 257.5q20.5 -40.5 57.5 -63
t84 -22.5q71 0 116.5 49t45.5 128q0 52 -20.5 93t-57.5 64t-84 23t-84 -22.5t-57.5 -63.5t-20.5 -93t20.5 -92.5z" />
    <glyph glyph-name="R" unicode="R" horiz-adv-x="727" 
d="M481 0l-145 198h-59v-198h-218v700h320q99 0 172 -30.5t112 -87t39 -134.5t-38.5 -134t-110.5 -86l168 -228h-240zM277 526v-166h96q52 0 81.5 21.5t29.5 62.5q0 39 -29.5 60.5t-81.5 21.5h-96z" />
    <glyph glyph-name="S" unicode="S" horiz-adv-x="662" 
d="M159.5 11.5q-85.5 25.5 -144.5 68.5l82 151q142 -81 251 -81q35 0 56.5 12.5t21.5 33.5q0 27 -25 39.5t-92 26.5q-134 28 -205.5 79.5t-71.5 150.5q0 71 39 121t106 75.5t152 25.5q177 0 292 -94l-97 -133q-42 30 -91.5 46.5t-98.5 16.5q-82 0 -82 -46q0 -22 26 -37
t89 -28q96 -20 155.5 -46t90.5 -68.5t31 -107.5q0 -71 -39 -123.5t-107.5 -80t-153.5 -27.5q-99 0 -184.5 25.5z" />
    <glyph glyph-name="T" unicode="T" horiz-adv-x="674" 
d="M19 700h636v-181h-209v-519h-219v519h-208v181z" />
    <glyph glyph-name="U" unicode="U" horiz-adv-x="770" 
d="M205.5 24.5q-76.5 38.5 -117.5 110t-41 168.5v397h219v-389q0 -66 30.5 -101t87.5 -35q58 0 90 35t32 101v389h216v-397q0 -97 -41 -168.5t-117 -110t-180 -38.5q-102 0 -178.5 38.5z" />
    <glyph glyph-name="V" unicode="V" horiz-adv-x="796" 
d="M506 0h-217l-290 700h230l168 -453h2l168 453h230z" />
    <glyph glyph-name="W" unicode="W" horiz-adv-x="1139" 
d="M780 268l130 432h230l-230 -700h-223l-117 403l-117 -403h-222l-232 700h230l132 -432l122 432h173z" />
    <glyph glyph-name="X" unicode="X" horiz-adv-x="790" 
d="M529 361l256 -361h-253l-136 198l-137 -198h-254l257 362l-240 338h254l120 -179l119 179h254z" />
    <glyph glyph-name="Y" unicode="Y" horiz-adv-x="738" 
d="M508 700h236l-266 -448v-252h-218v256l-266 444h236l140 -267z" />
    <glyph glyph-name="Z" unicode="Z" horiz-adv-x="699" 
d="M671 0h-641v135l336 384h-325v181h622v-135l-335 -384h343v-181z" />
    <glyph glyph-name="bracketleft" unicode="[" horiz-adv-x="386" 
d="M367 -185h-330v930h330v-160h-113v-610h113v-160z" />
    <glyph glyph-name="backslash" unicode="\" horiz-adv-x="638" 
d="M252 700l356 -804h-195l-356 804h195z" />
    <glyph glyph-name="bracketright" unicode="]" horiz-adv-x="386" 
d="M19 745h330v-930h-330v160h114v610h-114v160z" />
    <glyph glyph-name="asciicircum" unicode="^" horiz-adv-x="461" 
d="M318 760l105 -152l-156 -8l-36 78l-37 -78l-157 8l106 152h175z" />
    <glyph glyph-name="underscore" unicode="_" horiz-adv-x="540" 
d="M538 -37v-86h-533v86h533z" />
    <glyph glyph-name="grave" unicode="`" horiz-adv-x="354" 
d="M317 609l-149 -9l-131 137l194 34z" />
    <glyph glyph-name="a" unicode="a" horiz-adv-x="636" 
d="M520.5 505q72.5 -68 72.5 -189v-316h-208v64q-25 -35 -69 -56t-102 -21q-87 0 -141.5 49t-54.5 129q0 82 59 128t174 46q68 0 133 -5q-1 37 -29 57t-84 20q-36 0 -78 -12t-72 -30l-69 139q50 31 114 48t130 17q152 0 224.5 -68zM352 161.5q28 24.5 32 65.5v15
q-32 4 -80 4q-43 0 -64.5 -15t-21.5 -42q0 -24 18.5 -38t49.5 -14q38 0 66 24.5z" />
    <glyph glyph-name="b" unicode="b" horiz-adv-x="718" 
d="M563.5 535.5q59.5 -37.5 93.5 -104t34 -149.5q0 -85 -34.5 -152t-94 -105t-132.5 -38q-102 0 -166 70v-57h-209v738h209v-236q64 71 165 71q75 0 134.5 -37.5zM453 193q29 33 29 88q0 53 -29.5 85.5t-77.5 32.5q-50 0 -80.5 -32.5t-30.5 -86.5t31 -87t80 -33t78 33z" />
    <glyph glyph-name="c" unicode="c" horiz-adv-x="595" 
d="M184 24q-73 38 -114.5 104.5t-41.5 150.5q0 85 41.5 152t114.5 104.5t164 37.5q70 0 131.5 -27t105.5 -81l-132 -118q-40 54 -101 54q-48 0 -80.5 -32t-32.5 -89q0 -56 33 -88.5t81 -32.5q60 0 100 53l132 -117q-43 -54 -105 -81.5t-132 -27.5q-91 0 -164 38z" />
    <glyph glyph-name="d" unicode="d" horiz-adv-x="717" 
d="M454 738h208v-738h-208v58q-64 -71 -167 -71q-72 0 -131.5 38t-94 105t-34.5 152q0 83 34 149.5t93.5 104t134.5 37.5q101 0 165 -72v237zM423 193q31 33 31 87t-31 86.5t-81 32.5q-48 0 -77.5 -32.5t-29.5 -85.5q0 -55 29 -88t78 -33q50 0 81 33z" />
    <glyph glyph-name="e" unicode="e" horiz-adv-x="644" 
d="M231 228q9 -41 42.5 -62t84.5 -21q71 0 117 51l117 -104q-47 -49 -106 -76t-138 -27q-92 0 -165 37.5t-114 104t-41 149.5q0 84 39 150t110 103.5t163 37.5q83 0 148 -34.5t101.5 -94.5t36.5 -134q0 -37 -10 -80h-385zM266.5 393q-27.5 -24 -35.5 -66h199
q-6 43 -30.5 66.5t-63.5 23.5q-42 0 -69.5 -24z" />
    <glyph glyph-name="f" unicode="f" horiz-adv-x="496" 
d="M340.5 608.5q-13.5 -13.5 -13.5 -45.5v-4h156v-161h-156v-398h-210v398h-94v161h94v11q0 100 59.5 156t162.5 56q57 0 103 -7.5t73 -18.5l-29 -150q-28 9 -51.5 12.5t-52.5 3.5q-28 0 -41.5 -13.5z" />
    <glyph glyph-name="g" unicode="g" horiz-adv-x="650" 
d="M362 154q144 2 207.5 -37.5t63.5 -117.5q0 -87 -84.5 -135.5t-245.5 -48.5q-266 0 -266 142q0 56 64 96q-26 15 -39 38.5t-13 50.5q0 32 18.5 57.5t47.5 42.5q-67 52 -67 140q0 89 72.5 140t198.5 51q72 0 119 -19l152 41l35 -124l-68 -7q16 -16 25.5 -37.5t9.5 -44.5
q0 -90 -72.5 -142t-199.5 -52q-44 0 -80 6q-7 -8 -7 -21q0 -12 10 -16t31 -4zM268 424q-18 -15 -18 -41q0 -29 18 -45t51 -16q34 0 52 16t18 45q0 26 -18 41t-52 15q-33 0 -51 -15zM406 -33.5q26 9.5 26 33.5q0 17 -22 23t-71 6h-97q-15 -16 -15 -31q0 -25 23.5 -33t67.5 -8
q62 0 88 9.5z" />
    <glyph glyph-name="h" unicode="h" horiz-adv-x="695" 
d="M595 512.5q57 -60.5 57 -170.5v-342h-209v303q0 45 -20.5 68t-60.5 23q-43 0 -70.5 -33t-27.5 -83v-278h-209v738h209v-249q31 39 75.5 61.5t97.5 22.5q101 0 158 -60.5z" />
    <glyph glyph-name="i" unicode="i" horiz-adv-x="308" 
d="M258 0h-209v559h209v-559zM261 607h-215v139h215v-139z" />
    <glyph glyph-name="j" unicode="j" horiz-adv-x="314" 
d="M-43 -22q16 -8 41 -8q27 0 42.5 14.5t15.5 40.5v534h209v-535q0 -103 -66 -154.5t-165 -51.5q-56 0 -111 19zM267 607h-215v139h215v-139z" />
    <glyph glyph-name="k" unicode="k" horiz-adv-x="710" 
d="M711 0h-233l-136 192l-78 -82v-110h-209v738h209v-396l179 217h245l-221 -234z" />
    <glyph glyph-name="l" unicode="l" horiz-adv-x="318" 
d="M264 0h-209v738h209v-738z" />
    <glyph glyph-name="m" unicode="m" horiz-adv-x="1051" 
d="M952.5 511.5q54.5 -61.5 54.5 -167.5v-344h-209v305q0 43 -17.5 66t-51.5 23q-42 0 -69 -32t-27 -83v-279h-209v305q0 42 -18 65.5t-52 23.5q-41 0 -68.5 -32.5t-27.5 -82.5v-279h-209v559h209v-70q31 39 75 61.5t95 22.5q66 0 113.5 -30t70.5 -86q30 52 80 84t111 32
q95 0 149.5 -61.5z" />
    <glyph glyph-name="n" unicode="n" horiz-adv-x="690" 
d="M589.5 512.5q56.5 -60.5 56.5 -170.5v-342h-208v303q0 44 -20.5 67.5t-60.5 23.5q-43 0 -71 -33t-28 -83v-278h-209v559h209v-71q31 40 76 62.5t98 22.5q101 0 157.5 -60.5z" />
    <glyph glyph-name="o" unicode="o" 
d="M183 24q-73 38 -114 105t-41 151q0 83 41.5 150t114.5 105t165 38t165 -37.5t114.5 -104.5t41.5 -150q0 -84 -41.5 -151t-115 -105.5t-165.5 -38.5t-165 38zM428 193.5q31 33.5 31 86.5t-31 86t-80 33q-48 0 -79 -32.5t-31 -84.5q0 -54 31.5 -88t79.5 -34t79 33.5z" />
    <glyph glyph-name="p" unicode="p" horiz-adv-x="713" 
d="M557 534.5q59 -37.5 93.5 -105t34.5 -152.5q0 -83 -34 -149.5t-93.5 -104t-134.5 -37.5q-101 0 -165 72v-230h-209v731h209v-58q64 71 167 71q73 0 132 -37.5zM447.5 192.5q29.5 32.5 29.5 85.5q0 55 -29.5 88t-78.5 33t-80 -33t-31 -87t31 -86.5t80 -32.5t78.5 32.5z
" />
    <glyph glyph-name="q" unicode="q" horiz-adv-x="713" 
d="M455 559h208v-731h-208v230q-64 -72 -165 -72q-75 0 -134.5 37.5t-93.5 104t-34 149.5q0 85 34.5 152.5t93.5 105t132 37.5q103 0 167 -71v58zM424 192.5q31 32.5 31 86.5t-31 87t-80 33t-78.5 -33t-29.5 -88q0 -52 30 -85t78 -33q49 0 80 32.5z" />
    <glyph glyph-name="r" unicode="r" horiz-adv-x="462" 
d="M450 564l-8 -191q-34 8 -67 8q-53 0 -85 -42.5t-32 -111.5v-227h-209v559h209v-81q26 45 63.5 67.5t79.5 22.5q23 0 49 -4z" />
    <glyph glyph-name="s" unicode="s" horiz-adv-x="557" 
d="M8 46l58 138q105 -47 216 -47q61 0 61 33q0 17 -20 26t-75 17q-121 17 -173 56.5t-52 114.5q0 89 70 138.5t183 49.5q61 0 129 -16t114 -40l-61 -135q-105 41 -192 41q-49 0 -49 -29q0 -13 17 -21t69 -17q123 -19 178 -60t55 -118q0 -89 -74 -139.5t-194 -50.5
q-140 0 -260 59z" />
    <glyph glyph-name="t" unicode="t" horiz-adv-x="539" 
d="M515 28q-38 -20 -89 -31t-93 -11q-105 0 -161.5 53.5t-56.5 156.5v202h-94v161h99l12 137h191v-137h171v-161h-171v-178q0 -28 13.5 -42.5t39.5 -14.5q21 0 50 5t52 13z" />
    <glyph glyph-name="u" unicode="u" horiz-adv-x="690" 
d="M432 559h209v-559h-209v71q-31 -40 -76 -62.5t-98 -22.5q-101 0 -157.5 60.5t-56.5 170.5v342h208v-303q0 -44 20.5 -67.5t60.5 -23.5q43 0 71 33t28 83v278z" />
    <glyph glyph-name="v" unicode="v" horiz-adv-x="682" 
d="M447 0h-211l-228 559h222l111 -333l111 333h222z" />
    <glyph glyph-name="w" unicode="w" horiz-adv-x="976" 
d="M657 242l87 317h219l-189 -559h-201l-85 291l-85 -291h-201l-189 559h219l87 -317l89 317h159z" />
    <glyph glyph-name="x" unicode="x" horiz-adv-x="696" 
d="M471 289l220 -289h-233l-111 149l-110 -149h-232l219 288l-207 271h242l89 -133l89 133h241z" />
    <glyph glyph-name="y" unicode="y" horiz-adv-x="686" 
d="M455 559h223l-228 -559l-10 -24q-26 -60 -56 -94.5t-73 -50.5t-109 -16q-42 0 -87 11t-76 26l39 135q53 -16 89 -16q53 0 69 41l2 5l-226 542h221l111 -333h1z" />
    <glyph glyph-name="z" unicode="z" horiz-adv-x="591" 
d="M564 0h-535v125l257 267h-249v167h522v-125l-258 -266h263v-168z" />
    <glyph glyph-name="braceleft" unicode="{" horiz-adv-x="425" 
d="M406 586q-51 -1 -71 -19t-20 -59q0 -16 2 -50t2 -50q0 -61 -31 -91t-91 -36v-3q60 -6 91 -36t31 -91q0 -16 -2 -48q-2 -36 -2 -52q0 -41 20 -59t71 -19v-158q-17 -1 -48 -1q-100 0 -157 19t-80 54t-23 88q0 21 3 44q9 90 9 123q0 34 -24 50.5t-67 16.5v141q43 0 67 16.5
t24 50.5q0 43 -7 102l-2 21q-3 23 -3 44q0 53 23 88t80 54t157 19q31 0 48 -1v-158z" />
    <glyph glyph-name="bar" unicode="|" horiz-adv-x="304" 
d="M245 700v-806h-186v806h186z" />
    <glyph glyph-name="braceright" unicode="}" horiz-adv-x="425" 
d="M19 -25q51 0 71.5 18.5t20.5 59.5q0 15 -2 49t-2 51q0 60 31 90.5t91 35.5v4q-60 5 -91 35t-31 91q0 16 2 50t2 50q0 41 -20.5 59t-71.5 19l1 159q16 1 45 1q101 0 158.5 -18.5t80.5 -53t23 -87.5q0 -22 -3 -46q-1 -8 -5 -49t-4 -74q0 -34 24 -51t67 -17v-141
q-44 0 -68 -17.5t-23 -52.5q3 -57 9 -120q3 -24 3 -45q0 -79 -56 -119t-199 -40q-34 0 -52 1z" />
    <glyph glyph-name="asciitilde" unicode="~" horiz-adv-x="522" 
d="M19 570q3 56 40 88.5t99 32.5q43 0 114 -15q45 -9 64 -9q23 0 37 9t17 25l112 -19q-3 -56 -40 -88.5t-99 -32.5q-36 0 -71 6.5t-41 7.5t-28.5 5.5t-37.5 4.5q-22 0 -36.5 -9t-16.5 -25z" />
    <glyph glyph-name="uni00A0" unicode="&#xa0;" horiz-adv-x="283" 
 />
    <glyph glyph-name="exclamdown" unicode="&#xa1;" horiz-adv-x="295" 
d="M257 371h-219v188h219v-188zM252 -141h-210v230l32 231h146l32 -232v-229z" />
    <glyph glyph-name="cent" unicode="&#xa2;" horiz-adv-x="593" 
d="M453 212l132 -117q-40 -50 -96.5 -77.5t-120.5 -30.5l-25 -141h-159l29 165q-85 33 -135 104t-50 164q0 79 36 142.5t100.5 103t146.5 46.5l24 135h160l-27 -155q71 -28 117 -86l-132 -118q-40 54 -101 54q-48 0 -80.5 -32t-32.5 -89q0 -56 33 -88.5t81 -32.5
q60 0 100 53z" />
    <glyph glyph-name="sterling" unicode="&#xa3;" horiz-adv-x="623" 
d="M293 276v-113h298v-165h-570v127l77 28v123h-75v89h75v62q0 133 71 208t201 75q71 0 130 -23t104 -63l-113 -126q-24 20 -46.5 30t-54.5 10q-46 0 -71.5 -29.5t-25.5 -76.5v-67h166v-89h-166z" />
    <glyph glyph-name="yen" unicode="&#xa5;" horiz-adv-x="738" 
d="M508 700h236l-233 -392h77v-63h-110v-53h110v-64h-110v-128h-218v128h-108v64h108v53h-108v63h77l-235 392h236l140 -267z" />
    <glyph glyph-name="brokenbar" unicode="&#xa6;" horiz-adv-x="299" 
d="M243 700v-322h-186v322h186zM243 240v-322h-186v322h186z" />
    <glyph glyph-name="section" unicode="&#xa7;" horiz-adv-x="658" 
d="M465 479q52 -78 80 -136.5t28 -124.5q0 -72 -38.5 -124t-106 -79t-152.5 -27q-56 0 -117 14t-121 44l52 115q60 -27 114 -35q-15 31 -59 98q-52 78 -79.5 136t-27.5 124q0 72 38.5 124t105.5 79t152 27q55 0 116.5 -14.5t121.5 -43.5l-52 -115q-62 28 -114 34
q18 -37 59 -96zM381.5 174.5q13.5 23.5 13.5 53.5q0 35 -14 71t-42 88q-28 55 -44 93.5t-25 82.5q-55 -26 -55 -89q0 -35 13.5 -68.5t42.5 -91.5q27 -52 43.5 -91.5t25.5 -84.5q28 13 41.5 36.5z" />
    <glyph glyph-name="dieresis" unicode="&#xa8;" horiz-adv-x="385" 
d="M169 607h-132v139h132v-139zM347 607h-131v139h131v-139z" />
    <glyph glyph-name="copyright" unicode="&#xa9;" horiz-adv-x="789" 
d="M215 42q-82 48 -130 130t-48 179t48 179t130 130t179 48t179 -48t130 -130t48 -179t-48 -179t-130 -130t-179 -48t-179 48zM536.5 105q65.5 38 104 103.5t38.5 142.5t-38.5 142.5t-104 103.5t-142.5 38t-142 -38t-103.5 -103.5t-38.5 -142.5t38.5 -142.5t103.5 -103.5
t142 -38t142.5 38zM289.5 173.5q-49.5 26.5 -78 72.5t-28.5 104t28.5 104.5t77.5 73t109 26.5q115 0 173 -74l-83 -82q-21 21 -38.5 29.5t-40.5 8.5q-32 0 -54 -23t-22 -62q0 -38 22 -61.5t54 -23.5q25 0 41.5 9t37.5 30l83 -81q-60 -77 -172 -77q-60 0 -109.5 26.5z" />
    <glyph glyph-name="ordfeminine" unicode="&#xaa;" horiz-adv-x="365" 
d="M298 720q41 -39 41 -107v-178h-119v40q-13 -20 -38 -33.5t-58 -13.5q-49 0 -79.5 28t-30.5 73q0 46 35 75t96 29q44 0 74 -3q-5 37 -62 37q-21 0 -45.5 -6.5t-38.5 -17.5l-42 79q30 17 66.5 27t73.5 10q86 0 127 -39zM203.5 530.5q15.5 12.5 16.5 36.5q-13 2 -45 2
q-20 0 -33.5 -8t-13.5 -18q0 -12 10 -18.5t27 -6.5q23 0 38.5 12.5zM339 302h-319v89h319v-89z" />
    <glyph glyph-name="guillemotleft" unicode="&#xab;" horiz-adv-x="584" 
d="M307 85l-113 -57l-175 202v71l171 202l117 -57l-126 -181zM565 85l-118 -57l-196 232v11l196 232l118 -57l-127 -181z" />
    <glyph glyph-name="logicalnot" unicode="&#xac;" horiz-adv-x="441" 
d="M19 275v162h402v-276h-162v114h-240z" />
    <glyph glyph-name="uni00AD" unicode="&#xad;" horiz-adv-x="417" 
d="M397 315v-162h-378v162h378z" />
    <glyph glyph-name="registered" unicode="&#xae;" horiz-adv-x="398" 
d="M279.5 692q37.5 -22 59 -59t21.5 -80q0 -44 -21.5 -81.5t-59 -59.5t-81.5 -22q-43 0 -80 22t-59 59.5t-22 81.5q0 43 22 80t59 59t80 22q44 0 81.5 -22zM265 437q31 18 49 49t18 67t-18 66.5t-49 48.5t-67 18t-66.5 -18t-48.5 -48.5t-18 -66.5t18 -67t48.5 -49t66.5 -18
t67 18zM249 527l42 -55h-67l-27 47h-16v-47h-56v173h79q37 0 59 -17t22 -46q0 -39 -36 -55zM181 602v-42h23q12 0 19 5.5t7 15.5t-7 15.5t-19 5.5h-23z" />
    <glyph glyph-name="macron" unicode="&#xaf;" horiz-adv-x="454" 
d="M416 615h-379v113h379v-113z" />
    <glyph glyph-name="degree" unicode="&#xb0;" horiz-adv-x="398" 
d="M118 412q-37 22 -59 59.5t-22 81.5q0 43 22 80t59 59t80 22q44 0 81.5 -22t59 -59t21.5 -80q0 -44 -21.5 -81.5t-59 -59.5t-81.5 -22q-43 0 -80 22zM267 484q28 28 28 69q0 40 -28 67.5t-69 27.5q-40 0 -67.5 -27.5t-27.5 -67.5q0 -41 27.5 -69t67.5 -28q41 0 69 28z" />
    <glyph glyph-name="plusminus" unicode="&#xb1;" horiz-adv-x="514" 
d="M494 399v-162h-156v-90h153v-104h-461v104h145v90h-156v162h156v137h163v-137h156z" />
    <glyph glyph-name="uni00B2" unicode="&#xb2;" horiz-adv-x="378" 
d="M33 531q14 8 21 13q82 50 112 73q24 18 35 30.5t11 21.5q0 27 -41 27t-77 -34l-75 88q33 29 77.5 43t89.5 14q70 0 118.5 -33t48.5 -94q0 -33 -16 -58.5t-49 -48.5l-32 -24h103v-115h-326v97z" />
    <glyph glyph-name="uni00B3" unicode="&#xb3;" horiz-adv-x="379" 
d="M96 439q-36 12 -77 37l45 89q17 -11 54 -18t59 -7q18 0 28.5 6.5t10.5 18.5q0 10 -10.5 18.5t-27.5 8.5h-71v64l86 55h-141v90h282l7 -76l-79 -62l12 -2q40 -10 63 -38t23 -68q0 -59 -50.5 -93.5t-122.5 -34.5q-55 0 -91 12z" />
    <glyph glyph-name="acute" unicode="&#xb4;" horiz-adv-x="354" 
d="M324 737l-131 -137l-149 9l86 162z" />
    <glyph glyph-name="uni00B5" unicode="&#xb5;" horiz-adv-x="690" 
d="M432 559h209v-559h-209v71q-31 -40 -76 -62.5t-98 -22.5h-8l4 -157h-209v360q-1 9 -1 28v342h208v-303q0 -44 20.5 -67.5t60.5 -23.5q43 0 71 33t28 83v278z" />
    <glyph glyph-name="paragraph" unicode="&#xb6;" horiz-adv-x="772" 
d="M470 700v-820h-138v359h-31q-86 0 -149.5 28t-97.5 80.5t-34 123.5q0 70 34 122t97.5 79.5t149.5 27.5h169zM574 -120v820h138v-820h-138z" />
    <glyph glyph-name="periodcentered" unicode="&#xb7;" horiz-adv-x="222" 
d="M27 321v147h171v-147h-171z" />
    <glyph glyph-name="cedilla" unicode="&#xb8;" horiz-adv-x="294" 
d="M176 -28q36 -4 58.5 -23.5t22.5 -48.5q0 -40 -38.5 -61t-103.5 -21q-40 0 -75 5l16 74q16 -3 36 -3q15 0 22 3t7 12q0 18 -28 18q-9 0 -24 -3l23 84h94z" />
    <glyph glyph-name="uni00B9" unicode="&#xb9;" horiz-adv-x="266" 
d="M241 434h-141v246l-64 -9l-17 113l105 16h117v-366z" />
    <glyph glyph-name="ordmasculine" unicode="&#xba;" horiz-adv-x="396" 
d="M104.5 449.5q-41.5 21.5 -64.5 59.5t-23 85q0 46 23.5 84t64.5 59.5t93 21.5t93 -21.5t64.5 -59t23.5 -84.5t-23.5 -85t-64.5 -59.5t-93 -21.5t-93.5 21.5zM242 545.5q17 18.5 17 48.5q0 28 -17.5 46.5t-43.5 18.5t-43.5 -18.5t-17.5 -46.5q0 -29 17.5 -48t43.5 -19
q27 0 44 18.5zM23 302v89h346v-89h-346z" />
    <glyph glyph-name="guillemotright" unicode="&#xbb;" horiz-adv-x="585" 
d="M334 260l-197 -232l-118 57l127 180l-127 181l118 57l197 -232v-11zM565 230l-174 -202l-114 57l127 180l-127 181l117 57l171 -202v-71z" />
    <glyph glyph-name="onequarter" unicode="&#xbc;" horiz-adv-x="901" 
d="M241 344h-141v246l-64 -9l-17 113l105 16h117v-366zM262 0h-178l409 700h179zM843 0h-131v55h-181l-26 75l165 236h173v-212h39v-99h-39v-55zM712 259l-67 -105h67v105z" />
    <glyph glyph-name="onehalf" unicode="&#xbd;" horiz-adv-x="864" 
d="M241 344h-141v246l-64 -9l-17 113l105 16h117v-366zM262 0h-178l409 700h179zM519 97q14 8 21 13q82 50 112 73q24 18 35 30.5t11 21.5q0 27 -41 27t-77 -34l-75 88q33 29 77.5 43t89.5 14q70 0 118.5 -33t48.5 -94q0 -33 -16 -58.5t-49 -48.5l-32 -24h103v-115h-326v97z
" />
    <glyph glyph-name="threequarters" unicode="&#xbe;" horiz-adv-x="1014" 
d="M96 349q-36 12 -77 37l45 89q17 -11 54 -18t59 -7q18 0 28.5 6.5t10.5 18.5q0 10 -10.5 18.5t-27.5 8.5h-71v64l86 55h-141v90h282l7 -76l-79 -62l12 -2q40 -10 63 -38t23 -68q0 -59 -50.5 -93.5t-122.5 -34.5q-55 0 -91 12zM375 0h-178l409 700h179zM956 0h-131v55h-181
l-26 75l165 236h173v-212h39v-99h-39v-55zM825 259l-67 -105h67v105z" />
    <glyph glyph-name="questiondown" unicode="&#xbf;" horiz-adv-x="554" 
d="M402 559v-188h-219v188h219zM374 320q1 -11 1 -33q0 -54 -19.5 -91t-65.5 -64q-28 -18 -41 -31t-13 -32q0 -21 17 -32.5t50 -11.5q70 0 173 62l70 -165q-143 -76 -269 -76q-76 0 -133 23.5t-87.5 65.5t-30.5 97q0 52 28.5 90.5t77.5 75.5q43 34 59.5 58t18.5 64h164z" />
    <glyph glyph-name="Agrave" unicode="&#xc0;" horiz-adv-x="819" 
d="M819 0h-229l-40 106h-284l-41 -106h-226l301 700h218zM409 477l-86 -222h170zM480 749l-146 -8l-123 111l178 36z" />
    <glyph glyph-name="Aacute" unicode="&#xc1;" horiz-adv-x="819" 
d="M819 0h-229l-40 106h-284l-41 -106h-226l301 700h218zM409 477l-86 -222h170zM607 852l-123 -111l-146 8l91 139z" />
    <glyph glyph-name="Acircumflex" unicode="&#xc2;" horiz-adv-x="819" 
d="M819 0h-229l-40 106h-284l-41 -106h-226l301 700h218zM409 477l-86 -222h170zM499 886l108 -136l-160 -8l-37 70l-38 -70l-159 8l108 136h178z" />
    <glyph glyph-name="Atilde" unicode="&#xc3;" horiz-adv-x="819" 
d="M819 0h-229l-40 106h-284l-41 -106h-226l301 700h218zM409 477l-86 -222h170zM221 757q0 57 29.5 91t78.5 34q32 0 86 -15q34 -9 48 -9q17 0 27.5 10t10.5 26l91 -20q0 -58 -29 -91.5t-78 -33.5q-33 0 -87 15q-34 9 -48 9q-17 0 -27 -10t-10 -26z" />
    <glyph glyph-name="Adieresis" unicode="&#xc4;" horiz-adv-x="819" 
d="M819 0h-229l-40 106h-284l-41 -106h-226l301 700h218zM409 477l-86 -222h170zM398 749h-145v134h145v-134zM573 749h-145v134h145v-134z" />
    <glyph glyph-name="Aring" unicode="&#xc5;" horiz-adv-x="819" 
d="M590 0l-40 106h-284l-41 -106h-226l294 684q-22 31 -22 71q0 54 39 89t99 35q61 0 100 -35t39 -89q0 -41 -23 -72l294 -683h-229zM377 786.5q-13 -12.5 -13 -31.5t13 -31.5t32 -12.5q20 0 33 12.5t13 31.5t-13 31.5t-33 12.5q-19 0 -32 -12.5zM409 477l-86 -222h170z" />
    <glyph glyph-name="AE" unicode="&#xc6;" horiz-adv-x="1130" 
d="M707 277v-105h390v-172h-603v123h-207l-62 -123h-226l355 700h734v-172h-381v-94h331v-157h-331zM489 521l-126 -249h131v249h-5z" />
    <glyph glyph-name="Ccedilla" unicode="&#xc7;" horiz-adv-x="730" 
d="M718 115q-46 -57 -110 -88.5t-141 -38.5l-5 -17q36 -4 58.5 -23.5t22.5 -48.5q0 -40 -38.5 -61t-103.5 -21q-40 0 -75 5l16 74q17 -3 36 -3q15 0 22 3t7 12q0 18 -28 18q-9 0 -24 -3l18 66q-96 11 -172.5 60t-120 127.5t-43.5 173.5q0 103 49.5 186.5t136 130.5t193.5 47
q187 0 300 -126l-141 -127q-57 69 -147 69q-47 0 -86 -22t-61.5 -63t-22.5 -95t22.5 -94.5t60.5 -62.5t85 -22q42 0 81 17.5t71 52.5z" />
    <glyph glyph-name="Egrave" unicode="&#xc8;" horiz-adv-x="695" 
d="M272 277v-105h390v-172h-603v700h594v-172h-381v-94h332v-157h-332zM419 749l-146 -8l-123 111l178 36z" />
    <glyph glyph-name="Eacute" unicode="&#xc9;" horiz-adv-x="695" 
d="M272 277v-105h390v-172h-603v700h594v-172h-381v-94h332v-157h-332zM546 852l-123 -111l-146 8l91 139z" />
    <glyph glyph-name="Ecircumflex" unicode="&#xca;" horiz-adv-x="695" 
d="M272 277v-105h390v-172h-603v700h594v-172h-381v-94h332v-157h-332zM438 886l108 -136l-160 -8l-37 70l-38 -70l-159 8l108 136h178z" />
    <glyph glyph-name="Edieresis" unicode="&#xcb;" horiz-adv-x="695" 
d="M272 277v-105h390v-172h-603v700h594v-172h-381v-94h332v-157h-332zM337 749h-145v134h145v-134zM512 749h-145v134h145v-134z" />
    <glyph glyph-name="Igrave" unicode="&#xcc;" horiz-adv-x="336" 
d="M277 0h-218v700h218v-700zM239 749l-146 -8l-123 111l178 36z" />
    <glyph glyph-name="Iacute" unicode="&#xcd;" horiz-adv-x="336" 
d="M277 0h-218v700h218v-700zM366 852l-123 -111l-146 8l91 139z" />
    <glyph glyph-name="Icircumflex" unicode="&#xce;" horiz-adv-x="336" 
d="M277 0h-218v700h218v-700zM258 886l108 -136l-160 -8l-37 70l-38 -70l-159 8l108 136h178z" />
    <glyph glyph-name="Idieresis" unicode="&#xcf;" horiz-adv-x="336" 
d="M277 0h-218v700h218v-700zM157 749h-145v134h145v-134zM332 749h-145v134h145v-134z" />
    <glyph glyph-name="Eth" unicode="&#xd0;" horiz-adv-x="819" 
d="M386 700q119 0 209 -43t138.5 -121.5t48.5 -183.5q0 -107 -48.5 -186.5t-138 -122.5t-209.5 -43h-327v305h-44v92h44v303h327zM377 181q84 0 132.5 45.5t48.5 124.5q0 78 -48.5 123t-132.5 45h-100v-122h159v-92h-159v-124h100z" />
    <glyph glyph-name="Ntilde" unicode="&#xd1;" horiz-adv-x="809" 
d="M277 0h-218v700h183l289 -352v352h219v-700h-177l-296 361v-361zM217 757q0 57 29.5 91t78.5 34q32 0 86 -15q34 -9 48 -9q17 0 27.5 10t10.5 26l91 -20q0 -58 -29 -91.5t-78 -33.5q-33 0 -87 15q-34 9 -48 9q-17 0 -27 -10t-10 -26z" />
    <glyph glyph-name="Ograve" unicode="&#xd2;" horiz-adv-x="846" 
d="M224 33q-88 47 -137.5 129.5t-49.5 186.5t49.5 187.5t138 130.5t198.5 47q111 0 199 -47t137.5 -129.5t49.5 -186.5t-50 -187.5t-138 -130.5t-199 -47q-110 0 -198 47zM539.5 221q45.5 49 45.5 128q0 52 -20.5 93t-57.5 64t-84 23t-84 -22.5t-57.5 -63.5t-20.5 -93
t20.5 -92.5t57.5 -63t84 -22.5q71 0 116.5 49zM494 749l-146 -8l-123 111l178 36z" />
    <glyph glyph-name="Oacute" unicode="&#xd3;" horiz-adv-x="846" 
d="M224 33q-88 47 -137.5 129.5t-49.5 186.5t49.5 187.5t138 130.5t198.5 47q111 0 199 -47t137.5 -129.5t49.5 -186.5t-50 -187.5t-138 -130.5t-199 -47q-110 0 -198 47zM539.5 221q45.5 49 45.5 128q0 52 -20.5 93t-57.5 64t-84 23t-84 -22.5t-57.5 -63.5t-20.5 -93
t20.5 -92.5t57.5 -63t84 -22.5q71 0 116.5 49zM621 852l-123 -111l-146 8l91 139z" />
    <glyph glyph-name="Ocircumflex" unicode="&#xd4;" horiz-adv-x="846" 
d="M224 33q-88 47 -137.5 129.5t-49.5 186.5t49.5 187.5t138 130.5t198.5 47q111 0 199 -47t137.5 -129.5t49.5 -186.5t-50 -187.5t-138 -130.5t-199 -47q-110 0 -198 47zM539.5 221q45.5 49 45.5 128q0 52 -20.5 93t-57.5 64t-84 23t-84 -22.5t-57.5 -63.5t-20.5 -93
t20.5 -92.5t57.5 -63t84 -22.5q71 0 116.5 49zM513 886l108 -136l-160 -8l-37 70l-38 -70l-159 8l108 136h178z" />
    <glyph glyph-name="Otilde" unicode="&#xd5;" horiz-adv-x="846" 
d="M224 33q-88 47 -137.5 129.5t-49.5 186.5t49.5 187.5t138 130.5t198.5 47q111 0 199 -47t137.5 -129.5t49.5 -186.5t-50 -187.5t-138 -130.5t-199 -47q-110 0 -198 47zM539.5 221q45.5 49 45.5 128q0 52 -20.5 93t-57.5 64t-84 23t-84 -22.5t-57.5 -63.5t-20.5 -93
t20.5 -92.5t57.5 -63t84 -22.5q71 0 116.5 49zM235 757q0 57 29.5 91t78.5 34q32 0 86 -15q34 -9 48 -9q17 0 27.5 10t10.5 26l91 -20q0 -58 -29 -91.5t-78 -33.5q-33 0 -87 15q-34 9 -48 9q-17 0 -27 -10t-10 -26z" />
    <glyph glyph-name="Odieresis" unicode="&#xd6;" horiz-adv-x="846" 
d="M224 33q-88 47 -137.5 129.5t-49.5 186.5t49.5 187.5t138 130.5t198.5 47q111 0 199 -47t137.5 -129.5t49.5 -186.5t-50 -187.5t-138 -130.5t-199 -47q-110 0 -198 47zM539.5 221q45.5 49 45.5 128q0 52 -20.5 93t-57.5 64t-84 23t-84 -22.5t-57.5 -63.5t-20.5 -93
t20.5 -92.5t57.5 -63t84 -22.5q71 0 116.5 49zM412 749h-145v134h145v-134zM587 749h-145v134h145v-134z" />
    <glyph glyph-name="multiply" unicode="&#xd7;" horiz-adv-x="484" 
d="M351 561l114 -114l-108 -108l108 -108l-114 -115l-108 108l-108 -109l-116 116l108 108l-108 108l116 115l108 -108z" />
    <glyph glyph-name="Oslash" unicode="&#xd8;" horiz-adv-x="846" 
d="M721 590q43 -48 65.5 -108.5t22.5 -130.5q0 -104 -50 -187.5t-138 -130.5t-199 -47q-135 0 -235 69l-67 -67l-58 58l64 64q-43 47 -66 108.5t-23 130.5q0 104 49.5 187.5t138 130.5t198.5 47q136 0 236 -70l75 75l58 -58zM279 263l237 237q-40 29 -93 29q-47 0 -84 -22.5
t-57.5 -63.5t-20.5 -93q0 -49 18 -87zM539.5 221q45.5 49 45.5 128q0 50 -18 87l-236 -236q40 -28 92 -28q71 0 116.5 49z" />
    <glyph glyph-name="Ugrave" unicode="&#xd9;" horiz-adv-x="770" 
d="M205.5 24.5q-76.5 38.5 -117.5 110t-41 168.5v397h219v-389q0 -66 30.5 -101t87.5 -35q58 0 90 35t32 101v389h216v-397q0 -97 -41 -168.5t-117 -110t-180 -38.5q-102 0 -178.5 38.5zM457 749l-146 -8l-123 111l178 36z" />
    <glyph glyph-name="Uacute" unicode="&#xda;" horiz-adv-x="770" 
d="M205.5 24.5q-76.5 38.5 -117.5 110t-41 168.5v397h219v-389q0 -66 30.5 -101t87.5 -35q58 0 90 35t32 101v389h216v-397q0 -97 -41 -168.5t-117 -110t-180 -38.5q-102 0 -178.5 38.5zM584 852l-123 -111l-146 8l91 139z" />
    <glyph glyph-name="Ucircumflex" unicode="&#xdb;" horiz-adv-x="770" 
d="M205.5 24.5q-76.5 38.5 -117.5 110t-41 168.5v397h219v-389q0 -66 30.5 -101t87.5 -35q58 0 90 35t32 101v389h216v-397q0 -97 -41 -168.5t-117 -110t-180 -38.5q-102 0 -178.5 38.5zM476 886l108 -136l-160 -8l-37 70l-38 -70l-159 8l108 136h178z" />
    <glyph glyph-name="Udieresis" unicode="&#xdc;" horiz-adv-x="770" 
d="M205.5 24.5q-76.5 38.5 -117.5 110t-41 168.5v397h219v-389q0 -66 30.5 -101t87.5 -35q58 0 90 35t32 101v389h216v-397q0 -97 -41 -168.5t-117 -110t-180 -38.5q-102 0 -178.5 38.5zM375 749h-145v134h145v-134zM550 749h-145v134h145v-134z" />
    <glyph glyph-name="Yacute" unicode="&#xdd;" horiz-adv-x="738" 
d="M508 700h236l-266 -448v-252h-218v256l-266 444h236l140 -267zM568 852l-123 -111l-146 8l91 139z" />
    <glyph glyph-name="Thorn" unicode="&#xde;" horiz-adv-x="711" 
d="M369 616q99 0 172 -31.5t112 -91t39 -139.5q0 -82 -39.5 -142t-112.5 -92t-172 -32h-91v-88h-218v700h218v-84h92zM363 257q51 0 81 25.5t30 70.5q0 43 -30 68t-81 25h-86v-189h86z" />
    <glyph glyph-name="germandbls" unicode="&#xdf;" horiz-adv-x="706" 
d="M642.5 325q38.5 -44 38.5 -110q0 -63 -33 -114t-88.5 -79.5t-118.5 -28.5q-86 0 -125 17l1 160q36 -14 75 -14q41 0 64.5 21.5t23.5 59.5q0 34 -24.5 53.5t-66.5 19.5q-14 0 -33.5 -1.5t-29.5 -3.5v118q6 1 19 3t18 4q31 8 50 31.5t19 53.5q0 32 -22 53t-56 21
q-41 0 -65.5 -26.5t-24.5 -69.5v-493h-209v494q0 73 38.5 131.5t106.5 92t154 33.5q80 0 143.5 -28t99.5 -77t36 -111q0 -51 -25 -92t-66 -62q62 -12 100.5 -56z" />
    <glyph glyph-name="agrave" unicode="&#xe0;" horiz-adv-x="636" 
d="M520.5 505q72.5 -68 72.5 -189v-316h-208v64q-25 -35 -69 -56t-102 -21q-87 0 -141.5 49t-54.5 129q0 82 59 128t174 46q68 0 133 -5q-1 37 -29 57t-84 20q-36 0 -78 -12t-72 -30l-69 139q50 31 114 48t130 17q152 0 224.5 -68zM352 161.5q28 24.5 32 65.5v15
q-32 4 -80 4q-43 0 -64.5 -15t-21.5 -42q0 -24 18.5 -38t49.5 -14q38 0 66 24.5zM380 610l-149 -9l-131 137l194 34z" />
    <glyph glyph-name="aacute" unicode="&#xe1;" horiz-adv-x="636" 
d="M520.5 505q72.5 -68 72.5 -189v-316h-208v64q-25 -35 -69 -56t-102 -21q-87 0 -141.5 49t-54.5 129q0 82 59 128t174 46q68 0 133 -5q-1 37 -29 57t-84 20q-36 0 -78 -12t-72 -30l-69 139q50 31 114 48t130 17q152 0 224.5 -68zM352 161.5q28 24.5 32 65.5v15
q-32 4 -80 4q-43 0 -64.5 -15t-21.5 -42q0 -24 18.5 -38t49.5 -14q38 0 66 24.5zM506 738l-131 -137l-149 9l86 162z" />
    <glyph glyph-name="acircumflex" unicode="&#xe2;" horiz-adv-x="636" 
d="M520.5 505q72.5 -68 72.5 -189v-316h-208v64q-25 -35 -69 -56t-102 -21q-87 0 -141.5 49t-54.5 129q0 82 59 128t174 46q68 0 133 -5q-1 37 -29 57t-84 20q-36 0 -78 -12t-72 -30l-69 139q50 31 114 48t130 17q152 0 224.5 -68zM352 161.5q28 24.5 32 65.5v15
q-32 4 -80 4q-43 0 -64.5 -15t-21.5 -42q0 -24 18.5 -38t49.5 -14q38 0 66 24.5zM391 761l105 -152l-156 -8l-36 78l-37 -78l-157 8l106 152h175z" />
    <glyph glyph-name="atilde" unicode="&#xe3;" horiz-adv-x="636" 
d="M520.5 505q72.5 -68 72.5 -189v-316h-208v64q-25 -35 -69 -56t-102 -21q-87 0 -141.5 49t-54.5 129q0 82 59 128t174 46q68 0 133 -5q-1 37 -29 57t-84 20q-36 0 -78 -12t-72 -30l-69 139q50 31 114 48t130 17q152 0 224.5 -68zM352 161.5q28 24.5 32 65.5v15
q-32 4 -80 4q-43 0 -64.5 -15t-21.5 -42q0 -24 18.5 -38t49.5 -14q38 0 66 24.5zM117 611q0 57 29.5 91t78.5 34q32 0 86 -15q34 -9 48 -9q17 0 27.5 10t10.5 26l91 -20q0 -58 -29 -91.5t-78 -33.5q-33 0 -87 15q-34 9 -48 9q-17 0 -27 -10t-10 -26z" />
    <glyph glyph-name="adieresis" unicode="&#xe4;" horiz-adv-x="636" 
d="M520.5 505q72.5 -68 72.5 -189v-316h-208v64q-25 -35 -69 -56t-102 -21q-87 0 -141.5 49t-54.5 129q0 82 59 128t174 46q68 0 133 -5q-1 37 -29 57t-84 20q-36 0 -78 -12t-72 -30l-69 139q50 31 114 48t130 17q152 0 224.5 -68zM352 161.5q28 24.5 32 65.5v15
q-32 4 -80 4q-43 0 -64.5 -15t-21.5 -42q0 -24 18.5 -38t49.5 -14q38 0 66 24.5zM279 608h-132v139h132v-139zM457 608h-131v139h131v-139z" />
    <glyph glyph-name="aring" unicode="&#xe5;" horiz-adv-x="640" 
d="M520.5 505q72.5 -68 72.5 -189v-316h-208v64q-25 -35 -69 -56t-102 -21q-87 0 -141.5 49t-54.5 129q0 82 59 128t174 46q68 0 133 -5q-1 37 -29 57t-84 20q-36 0 -78 -12t-72 -30l-69 139q50 31 114 48t130 17q152 0 224.5 -68zM352 161.5q28 24.5 32 65.5v15
q-32 4 -80 4q-43 0 -64.5 -15t-21.5 -42q0 -24 18.5 -38t49.5 -14q38 0 66 24.5zM207 628.5q-39 35.5 -39 89.5t39 89.5t100 35.5q60 0 99 -35.5t39 -89.5t-39 -89.5t-99 -35.5q-61 0 -100 35.5zM339.5 686.5q13.5 12.5 13.5 31.5t-13.5 32t-32.5 13t-32.5 -13t-13.5 -32
t13 -31.5t33 -12.5q19 0 32.5 12.5z" />
    <glyph glyph-name="ae" unicode="&#xe6;" horiz-adv-x="998" 
d="M585 228q10 -41 43 -62t85 -21q70 0 116 51l118 -104q-98 -103 -244 -103q-79 0 -145 28t-109 78q-37 -49 -91 -78.5t-134 -29.5q-57 0 -105 22t-76 62t-28 93q0 82 60 127t172 45q68 0 133 -5v4q-1 38 -29 58.5t-84 20.5q-36 0 -79 -12t-70 -30l-71 137
q52 29 116.5 46.5t128.5 17.5q128 0 194 -69q40 32 93.5 49.5t114.5 17.5q83 0 148 -34.5t101.5 -94.5t36.5 -134q0 -37 -10 -80h-385zM620.5 393q-27.5 -24 -35.5 -66h199q-6 43 -30.5 66.5t-63.5 23.5q-42 0 -69.5 -24zM348.5 160q28.5 24 32.5 65v19q-48 2 -81 2
q-40 0 -62.5 -15.5t-22.5 -41.5q0 -24 17.5 -38.5t47.5 -14.5q40 0 68.5 24z" />
    <glyph glyph-name="ccedilla" unicode="&#xe7;" horiz-adv-x="595" 
d="M453 212l132 -117q-37 -47 -89 -74t-112 -33l-4 -16q36 -4 58.5 -23.5t22.5 -48.5q0 -40 -38.5 -61t-103.5 -21q-40 0 -75 5l16 74q17 -3 36 -3q15 0 22 3t7 12q0 18 -28 18q-9 0 -24 -3l18 66q-77 11 -136.5 51t-93 101.5t-33.5 136.5q0 85 41.5 152t114.5 104.5
t164 37.5q70 0 131.5 -27t105.5 -81l-132 -118q-40 54 -101 54q-48 0 -80.5 -32t-32.5 -89q0 -56 33 -88.5t81 -32.5q60 0 100 53z" />
    <glyph glyph-name="egrave" unicode="&#xe8;" horiz-adv-x="644" 
d="M231 228q9 -41 42.5 -62t84.5 -21q71 0 117 51l117 -104q-47 -49 -106 -76t-138 -27q-92 0 -165 37.5t-114 104t-41 149.5q0 84 39 150t110 103.5t163 37.5q83 0 148 -34.5t101.5 -94.5t36.5 -134q0 -37 -10 -80h-385zM266.5 393q-27.5 -24 -35.5 -66h199
q-6 43 -30.5 66.5t-63.5 23.5q-42 0 -69.5 -24zM405 609l-149 -9l-131 137l194 34z" />
    <glyph glyph-name="eacute" unicode="&#xe9;" horiz-adv-x="644" 
d="M231 228q9 -41 42.5 -62t84.5 -21q71 0 117 51l117 -104q-47 -49 -106 -76t-138 -27q-92 0 -165 37.5t-114 104t-41 149.5q0 84 39 150t110 103.5t163 37.5q83 0 148 -34.5t101.5 -94.5t36.5 -134q0 -37 -10 -80h-385zM266.5 393q-27.5 -24 -35.5 -66h199
q-6 43 -30.5 66.5t-63.5 23.5q-42 0 -69.5 -24zM531 737l-131 -137l-149 9l86 162z" />
    <glyph glyph-name="ecircumflex" unicode="&#xea;" horiz-adv-x="644" 
d="M231 228q9 -41 42.5 -62t84.5 -21q71 0 117 51l117 -104q-47 -49 -106 -76t-138 -27q-92 0 -165 37.5t-114 104t-41 149.5q0 84 39 150t110 103.5t163 37.5q83 0 148 -34.5t101.5 -94.5t36.5 -134q0 -37 -10 -80h-385zM266.5 393q-27.5 -24 -35.5 -66h199
q-6 43 -30.5 66.5t-63.5 23.5q-42 0 -69.5 -24zM415 760l105 -152l-156 -8l-36 78l-37 -78l-157 8l106 152h175z" />
    <glyph glyph-name="edieresis" unicode="&#xeb;" horiz-adv-x="644" 
d="M231 228q9 -41 42.5 -62t84.5 -21q71 0 117 51l117 -104q-47 -49 -106 -76t-138 -27q-92 0 -165 37.5t-114 104t-41 149.5q0 84 39 150t110 103.5t163 37.5q83 0 148 -34.5t101.5 -94.5t36.5 -134q0 -37 -10 -80h-385zM266.5 393q-27.5 -24 -35.5 -66h199
q-6 43 -30.5 66.5t-63.5 23.5q-42 0 -69.5 -24zM304 607h-132v139h132v-139zM482 607h-131v139h131v-139z" />
    <glyph glyph-name="igrave" unicode="&#xec;" horiz-adv-x="308" 
d="M258 0h-209v559h209v-559zM231 609l-149 -9l-131 137l194 34z" />
    <glyph glyph-name="iacute" unicode="&#xed;" horiz-adv-x="308" 
d="M258 0h-209v559h209v-559zM357 737l-131 -137l-149 9l86 162z" />
    <glyph glyph-name="icircumflex" unicode="&#xee;" horiz-adv-x="308" 
d="M258 0h-209v559h209v-559zM241 760l105 -152l-156 -8l-36 78l-37 -78l-157 8l106 152h175z" />
    <glyph glyph-name="idieresis" unicode="&#xef;" horiz-adv-x="308" 
d="M258 0h-209v559h209v-559zM130 607h-132v139h132v-139zM308 607h-131v139h131v-139z" />
    <glyph glyph-name="eth" unicode="&#xf0;" horiz-adv-x="692" 
d="M461 718q96 -52 149.5 -150.5t53.5 -230.5q0 -106 -41 -185t-117 -122.5t-177 -43.5q-87 0 -155.5 30t-107 86.5t-38.5 133.5q0 70 34 125.5t96.5 87t144.5 31.5q80 0 140 -49q-21 93 -86 144l-59 -81l-62 42l55 75q-45 17 -98 20l68 137q67 -1 129 -20l59 81l62 -43z
M393.5 157q27.5 20 42.5 61q-7 44 -37 72.5t-69 28.5q-41 0 -69 -25t-28 -67q0 -41 28 -65.5t69 -24.5q36 0 63.5 20z" />
    <glyph glyph-name="ntilde" unicode="&#xf1;" horiz-adv-x="690" 
d="M589.5 512.5q56.5 -60.5 56.5 -170.5v-342h-208v303q0 44 -20.5 67.5t-60.5 23.5q-43 0 -71 -33t-28 -83v-278h-209v559h209v-71q31 40 76 62.5t98 22.5q101 0 157.5 -60.5zM160 610q0 57 29.5 91t78.5 34q32 0 86 -15q34 -9 48 -9q17 0 27.5 10t10.5 26l91 -20
q0 -58 -29 -91.5t-78 -33.5q-33 0 -87 15q-34 9 -48 9q-17 0 -27 -10t-10 -26z" />
    <glyph glyph-name="ograve" unicode="&#xf2;" 
d="M183 24q-73 38 -114 105t-41 151q0 83 41.5 150t114.5 105t165 38t165 -37.5t114.5 -104.5t41.5 -150q0 -84 -41.5 -151t-115 -105.5t-165.5 -38.5t-165 38zM428 193.5q31 33.5 31 86.5t-31 86t-80 33q-48 0 -79 -32.5t-31 -84.5q0 -54 31.5 -88t79.5 -34t79 33.5z
M426 609l-149 -9l-131 137l194 34z" />
    <glyph glyph-name="oacute" unicode="&#xf3;" 
d="M183 24q-73 38 -114 105t-41 151q0 83 41.5 150t114.5 105t165 38t165 -37.5t114.5 -104.5t41.5 -150q0 -84 -41.5 -151t-115 -105.5t-165.5 -38.5t-165 38zM428 193.5q31 33.5 31 86.5t-31 86t-80 33q-48 0 -79 -32.5t-31 -84.5q0 -54 31.5 -88t79.5 -34t79 33.5z
M552 737l-131 -137l-149 9l86 162z" />
    <glyph glyph-name="ocircumflex" unicode="&#xf4;" 
d="M183 24q-73 38 -114 105t-41 151q0 83 41.5 150t114.5 105t165 38t165 -37.5t114.5 -104.5t41.5 -150q0 -84 -41.5 -151t-115 -105.5t-165.5 -38.5t-165 38zM428 193.5q31 33.5 31 86.5t-31 86t-80 33q-48 0 -79 -32.5t-31 -84.5q0 -54 31.5 -88t79.5 -34t79 33.5z
M436 760l105 -152l-156 -8l-36 78l-37 -78l-157 8l106 152h175z" />
    <glyph glyph-name="otilde" unicode="&#xf5;" 
d="M183 24q-73 38 -114 105t-41 151q0 83 41.5 150t114.5 105t165 38t165 -37.5t114.5 -104.5t41.5 -150q0 -84 -41.5 -151t-115 -105.5t-165.5 -38.5t-165 38zM428 193.5q31 33.5 31 86.5t-31 86t-80 33q-48 0 -79 -32.5t-31 -84.5q0 -54 31.5 -88t79.5 -34t79 33.5z
M163 610q0 57 29.5 91t78.5 34q32 0 86 -15q34 -9 48 -9q17 0 27.5 10t10.5 26l91 -20q0 -58 -29 -91.5t-78 -33.5q-33 0 -87 15q-34 9 -48 9q-17 0 -27 -10t-10 -26z" />
    <glyph glyph-name="odieresis" unicode="&#xf6;" 
d="M183 24q-73 38 -114 105t-41 151q0 83 41.5 150t114.5 105t165 38t165 -37.5t114.5 -104.5t41.5 -150q0 -84 -41.5 -151t-115 -105.5t-165.5 -38.5t-165 38zM428 193.5q31 33.5 31 86.5t-31 86t-80 33q-48 0 -79 -32.5t-31 -84.5q0 -54 31.5 -88t79.5 -34t79 33.5z
M325 607h-132v139h132v-139zM503 607h-131v139h131v-139z" />
    <glyph glyph-name="divide" unicode="&#xf7;" horiz-adv-x="477" 
d="M332 447h-184v158h184v-158zM457 408v-142h-437v142h437zM148 67v158h184v-158h-184z" />
    <glyph glyph-name="oslash" unicode="&#xf8;" 
d="M612 456q58 -75 58 -175q0 -84 -41.5 -151t-115 -105.5t-165.5 -38.5t-167 39l-44 -44l-87 85l37 37q-59 76 -59 177q0 83 41.5 150t114.5 105t165 38q94 0 168 -40l48 48l87 -85zM428 193.5q31 33.5 31 86.5t-31 86t-80 33q-48 0 -79 -32.5t-31 -84.5q0 -54 31.5 -88
t79.5 -34t79 33.5z" />
    <glyph glyph-name="ugrave" unicode="&#xf9;" horiz-adv-x="690" 
d="M432 559h209v-559h-209v71q-31 -40 -76 -62.5t-98 -22.5q-101 0 -157.5 60.5t-56.5 170.5v342h208v-303q0 -44 20.5 -67.5t60.5 -23.5q43 0 71 33t28 83v278zM412 609l-149 -9l-131 137l194 34z" />
    <glyph glyph-name="uacute" unicode="&#xfa;" horiz-adv-x="690" 
d="M432 559h209v-559h-209v71q-31 -40 -76 -62.5t-98 -22.5q-101 0 -157.5 60.5t-56.5 170.5v342h208v-303q0 -44 20.5 -67.5t60.5 -23.5q43 0 71 33t28 83v278zM538 737l-131 -137l-149 9l86 162z" />
    <glyph glyph-name="ucircumflex" unicode="&#xfb;" horiz-adv-x="690" 
d="M432 559h209v-559h-209v71q-31 -40 -76 -62.5t-98 -22.5q-101 0 -157.5 60.5t-56.5 170.5v342h208v-303q0 -44 20.5 -67.5t60.5 -23.5q43 0 71 33t28 83v278zM422 760l105 -152l-156 -8l-36 78l-37 -78l-157 8l106 152h175z" />
    <glyph glyph-name="udieresis" unicode="&#xfc;" horiz-adv-x="690" 
d="M432 559h209v-559h-209v71q-31 -40 -76 -62.5t-98 -22.5q-101 0 -157.5 60.5t-56.5 170.5v342h208v-303q0 -44 20.5 -67.5t60.5 -23.5q43 0 71 33t28 83v278zM311 607h-132v139h132v-139zM489 607h-131v139h131v-139z" />
    <glyph glyph-name="yacute" unicode="&#xfd;" horiz-adv-x="686" 
d="M455 559h223l-228 -559l-10 -24q-26 -60 -56 -94.5t-73 -50.5t-109 -16q-42 0 -87 11t-76 26l39 135q53 -16 89 -16q53 0 69 41l2 5l-226 542h221l111 -333h1zM548 737l-131 -137l-149 9l86 162z" />
    <glyph glyph-name="thorn" unicode="&#xfe;" horiz-adv-x="718" 
d="M565.5 534.5q58.5 -37.5 92 -105t33.5 -152.5q0 -82 -33 -148.5t-92 -104.5t-133 -38q-104 0 -169 86v-243h-209v909h209v-252q66 86 171 86q72 0 130.5 -37.5zM452.5 189.5q29.5 34.5 29.5 88.5q0 56 -29 90.5t-78 34.5t-80 -34.5t-31 -89.5q0 -54 31 -89t80 -35
q48 0 77.5 34.5z" />
    <glyph glyph-name="ydieresis" unicode="&#xff;" horiz-adv-x="686" 
d="M455 559h223l-228 -559l-10 -24q-26 -60 -56 -94.5t-73 -50.5t-109 -16q-42 0 -87 11t-76 26l39 135q53 -16 89 -16q53 0 69 41l2 5l-226 542h221l111 -333h1zM322 607h-132v139h132v-139zM500 607h-131v139h131v-139z" />
    <glyph glyph-name="Amacron" unicode="&#x100;" horiz-adv-x="819" 
d="M819 0h-229l-40 106h-284l-41 -106h-226l301 700h218zM409 477l-86 -222h170zM593 758h-379v113h379v-113z" />
    <glyph glyph-name="amacron" unicode="&#x101;" horiz-adv-x="636" 
d="M520.5 505q72.5 -68 72.5 -189v-316h-208v64q-25 -35 -69 -56t-102 -21q-87 0 -141.5 49t-54.5 129q0 82 59 128t174 46q68 0 133 -5q-1 37 -29 57t-84 20q-36 0 -78 -12t-72 -30l-69 139q50 31 114 48t130 17q152 0 224.5 -68zM352 161.5q28 24.5 32 65.5v15
q-32 4 -80 4q-43 0 -64.5 -15t-21.5 -42q0 -24 18.5 -38t49.5 -14q38 0 66 24.5zM500 616h-379v113h379v-113z" />
    <glyph glyph-name="Abreve" unicode="&#x102;" horiz-adv-x="819" 
d="M819 0h-229l-40 106h-284l-41 -106h-226l301 700h218zM409 477l-86 -222h170zM589 891q0 -70 -50 -111t-135 -41t-135.5 41t-50.5 111l141 3q0 -52 45 -52q44 0 44 52z" />
    <glyph glyph-name="abreve" unicode="&#x103;" horiz-adv-x="636" 
d="M520.5 505q72.5 -68 72.5 -189v-316h-208v64q-25 -35 -69 -56t-102 -21q-87 0 -141.5 49t-54.5 129q0 82 59 128t174 46q68 0 133 -5q-1 37 -29 57t-84 20q-36 0 -78 -12t-72 -30l-69 139q50 31 114 48t130 17q152 0 224.5 -68zM352 161.5q28 24.5 32 65.5v15
q-32 4 -80 4q-43 0 -64.5 -15t-21.5 -42q0 -24 18.5 -38t49.5 -14q38 0 66 24.5zM488 744q0 -70 -50 -111t-135 -41t-135.5 41t-50.5 111l141 3q0 -52 45 -52q44 0 44 52z" />
    <glyph glyph-name="Aogonek" unicode="&#x104;" horiz-adv-x="819" 
d="M854 -206q-60 -14 -114 -14q-78 0 -118 29.5t-40 76.5q0 35 22 64.5t56 49.5h-70l-40 106h-284l-41 -106h-226l301 700h218l301 -700q-55 -36 -55 -65q0 -30 43 -30q18 0 37 4zM409 477l-86 -222h170z" />
    <glyph glyph-name="aogonek" unicode="&#x105;" horiz-adv-x="636" 
d="M628 -206q-60 -14 -114 -14q-78 0 -118 29.5t-40 76.5q0 35 22 64.5t56 49.5h-49v64q-25 -35 -69 -56t-102 -21q-87 0 -141.5 49t-54.5 129q0 82 59 128t174 46q68 0 133 -5q-1 37 -29 57t-84 20q-36 0 -78 -12t-72 -30l-69 139q50 31 114 48t130 17q152 0 224.5 -68
t72.5 -189v-316q-55 -36 -55 -65q0 -30 43 -30q18 0 37 4zM352 161.5q28 24.5 32 65.5v15q-32 4 -80 4q-43 0 -64.5 -15t-21.5 -42q0 -24 18.5 -38t49.5 -14q38 0 66 24.5z" />
    <glyph glyph-name="Cacute" unicode="&#x106;" horiz-adv-x="730" 
d="M226.5 33q-88.5 47 -139 130.5t-50.5 186.5t49.5 186.5t136 130.5t193.5 47q187 0 300 -126l-141 -127q-57 69 -147 69q-47 0 -86 -22t-61.5 -63t-22.5 -95t22.5 -94.5t60.5 -62.5t85 -22q42 0 81 17.5t71 52.5l140 -126q-53 -65 -128.5 -97t-165.5 -32q-109 0 -197.5 47
zM624 851l-123 -111l-146 8l91 139z" />
    <glyph glyph-name="cacute" unicode="&#x107;" horiz-adv-x="595" 
d="M184 24q-73 38 -114.5 104.5t-41.5 150.5q0 85 41.5 152t114.5 104.5t164 37.5q70 0 131.5 -27t105.5 -81l-132 -118q-40 54 -101 54q-48 0 -80.5 -32t-32.5 -89q0 -56 33 -88.5t81 -32.5q60 0 100 53l132 -117q-43 -54 -105 -81.5t-132 -27.5q-91 0 -164 38zM552 737
l-131 -137l-149 9l86 162z" />
    <glyph glyph-name="Ccircumflex" unicode="&#x108;" horiz-adv-x="730" 
d="M226.5 33q-88.5 47 -139 130.5t-50.5 186.5t49.5 186.5t136 130.5t193.5 47q187 0 300 -126l-141 -127q-57 69 -147 69q-47 0 -86 -22t-61.5 -63t-22.5 -95t22.5 -94.5t60.5 -62.5t85 -22q42 0 81 17.5t71 52.5l140 -126q-53 -65 -128.5 -97t-165.5 -32q-109 0 -197.5 47
zM516 885l108 -136l-160 -8l-37 70l-38 -70l-159 8l108 136h178z" />
    <glyph glyph-name="ccircumflex" unicode="&#x109;" horiz-adv-x="595" 
d="M184 24q-73 38 -114.5 104.5t-41.5 150.5q0 85 41.5 152t114.5 104.5t164 37.5q70 0 131.5 -27t105.5 -81l-132 -118q-40 54 -101 54q-48 0 -80.5 -32t-32.5 -89q0 -56 33 -88.5t81 -32.5q60 0 100 53l132 -117q-43 -54 -105 -81.5t-132 -27.5q-91 0 -164 38zM436 760
l105 -152l-156 -8l-36 78l-37 -78l-157 8l106 152h175z" />
    <glyph glyph-name="Cdotaccent" unicode="&#x10a;" horiz-adv-x="730" 
d="M226.5 33q-88.5 47 -139 130.5t-50.5 186.5t49.5 186.5t136 130.5t193.5 47q187 0 300 -126l-141 -127q-57 69 -147 69q-47 0 -86 -22t-61.5 -63t-22.5 -95t22.5 -94.5t60.5 -62.5t85 -22q42 0 81 17.5t71 52.5l140 -126q-53 -65 -128.5 -97t-165.5 -32q-109 0 -197.5 47
zM533 747h-215v135h215v-135z" />
    <glyph glyph-name="cdotaccent" unicode="&#x10b;" horiz-adv-x="595" 
d="M184 24q-73 38 -114.5 104.5t-41.5 150.5q0 85 41.5 152t114.5 104.5t164 37.5q70 0 131.5 -27t105.5 -81l-132 -118q-40 54 -101 54q-48 0 -80.5 -32t-32.5 -89q0 -56 33 -88.5t81 -32.5q60 0 100 53l132 -117q-43 -54 -105 -81.5t-132 -27.5q-91 0 -164 38zM455 607
h-215v139h215v-139z" />
    <glyph glyph-name="Ccaron" unicode="&#x10c;" horiz-adv-x="730" 
d="M226.5 33q-88.5 47 -139 130.5t-50.5 186.5t49.5 186.5t136 130.5t193.5 47q187 0 300 -126l-141 -127q-57 69 -147 69q-47 0 -86 -22t-61.5 -63t-22.5 -95t22.5 -94.5t60.5 -62.5t85 -22q42 0 81 17.5t71 52.5l140 -126q-53 -65 -128.5 -97t-165.5 -32q-109 0 -197.5 47
zM427 815l37 70l160 -7l-108 -137h-178l-108 137l159 7z" />
    <glyph glyph-name="ccaron" unicode="&#x10d;" horiz-adv-x="595" 
d="M184 24q-73 38 -114.5 104.5t-41.5 150.5q0 85 41.5 152t114.5 104.5t164 37.5q70 0 131.5 -27t105.5 -81l-132 -118q-40 54 -101 54q-48 0 -80.5 -32t-32.5 -89q0 -56 33 -88.5t81 -32.5q60 0 100 53l132 -117q-43 -54 -105 -81.5t-132 -27.5q-91 0 -164 38zM349 682
l36 78l156 -8l-105 -152h-175l-106 152l157 8z" />
    <glyph glyph-name="Dcaron" unicode="&#x10e;" horiz-adv-x="819" 
d="M59 0v700h327q119 0 209 -43t138.5 -121.5t48.5 -183.5q0 -107 -48.5 -186.5t-138 -122.5t-209.5 -43h-327zM377 181q84 0 132.5 45.5t48.5 124.5q0 78 -48.5 123t-132.5 45h-100v-338h100zM321 816l37 70l160 -7l-108 -137h-178l-108 137l159 7z" />
    <glyph glyph-name="dcaron" unicode="&#x10f;" horiz-adv-x="853" 
d="M708 505v234h156l-49 -234h-107zM454 738h208v-738h-208v58q-64 -71 -167 -71q-72 0 -131.5 38t-94 105t-34.5 152q0 83 34 149.5t93.5 104t134.5 37.5q101 0 165 -72v237zM423 193q31 33 31 87t-31 86.5t-81 32.5q-48 0 -77.5 -32.5t-29.5 -85.5q0 -55 29 -88t78 -33
q50 0 81 33z" />
    <glyph glyph-name="Dcroat" unicode="&#x110;" horiz-adv-x="819" 
d="M386 700q119 0 209 -43t138.5 -121.5t48.5 -183.5q0 -107 -48.5 -186.5t-138 -122.5t-209.5 -43h-327v305h-44v92h44v303h327zM377 181q84 0 132.5 45.5t48.5 124.5q0 78 -48.5 123t-132.5 45h-100v-122h159v-92h-159v-124h100z" />
    <glyph glyph-name="dcroat" unicode="&#x111;" horiz-adv-x="717" 
d="M711 672v-79h-49v-593h-208v58q-64 -71 -167 -71q-72 0 -131.5 38t-94 105t-34.5 152q0 83 34 149.5t93.5 104t134.5 37.5q101 0 165 -72v92h-130v79h130v66h208v-66h49zM423 193q31 33 31 87t-31 86.5t-81 32.5q-48 0 -77.5 -32.5t-29.5 -85.5q0 -55 29 -88t78 -33
q50 0 81 33z" />
    <glyph glyph-name="Emacron" unicode="&#x112;" horiz-adv-x="695" 
d="M272 277v-105h390v-172h-603v700h594v-172h-381v-94h332v-157h-332zM532 758h-379v113h379v-113z" />
    <glyph glyph-name="emacron" unicode="&#x113;" horiz-adv-x="644" 
d="M231 228q9 -41 42.5 -62t84.5 -21q71 0 117 51l117 -104q-47 -49 -106 -76t-138 -27q-92 0 -165 37.5t-114 104t-41 149.5q0 84 39 150t110 103.5t163 37.5q83 0 148 -34.5t101.5 -94.5t36.5 -134q0 -37 -10 -80h-385zM266.5 393q-27.5 -24 -35.5 -66h199
q-6 43 -30.5 66.5t-63.5 23.5q-42 0 -69.5 -24zM525 615h-379v113h379v-113z" />
    <glyph glyph-name="Ebreve" unicode="&#x114;" horiz-adv-x="695" 
d="M272 277v-105h390v-172h-603v700h594v-172h-381v-94h332v-157h-332zM528 891q0 -70 -50 -111t-135 -41t-135.5 41t-50.5 111l141 3q0 -52 45 -52q44 0 44 52z" />
    <glyph glyph-name="ebreve" unicode="&#x115;" horiz-adv-x="644" 
d="M231 228q9 -41 42.5 -62t84.5 -21q71 0 117 51l117 -104q-47 -49 -106 -76t-138 -27q-92 0 -165 37.5t-114 104t-41 149.5q0 84 39 150t110 103.5t163 37.5q83 0 148 -34.5t101.5 -94.5t36.5 -134q0 -37 -10 -80h-385zM266.5 393q-27.5 -24 -35.5 -66h199
q-6 43 -30.5 66.5t-63.5 23.5q-42 0 -69.5 -24zM513 743q0 -70 -50 -111t-135 -41t-135.5 41t-50.5 111l141 3q0 -52 45 -52q44 0 44 52z" />
    <glyph glyph-name="Edotaccent" unicode="&#x116;" horiz-adv-x="695" 
d="M272 277v-105h390v-172h-603v700h594v-172h-381v-94h332v-157h-332zM455 748h-215v135h215v-135z" />
    <glyph glyph-name="edotaccent" unicode="&#x117;" horiz-adv-x="644" 
d="M231 228q9 -41 42.5 -62t84.5 -21q71 0 117 51l117 -104q-47 -49 -106 -76t-138 -27q-92 0 -165 37.5t-114 104t-41 149.5q0 84 39 150t110 103.5t163 37.5q83 0 148 -34.5t101.5 -94.5t36.5 -134q0 -37 -10 -80h-385zM266.5 393q-27.5 -24 -35.5 -66h199
q-6 43 -30.5 66.5t-63.5 23.5q-42 0 -69.5 -24zM435 607h-215v139h215v-139z" />
    <glyph glyph-name="Eogonek" unicode="&#x118;" horiz-adv-x="695" 
d="M697 -206q-60 -14 -114 -14q-78 0 -118 29.5t-40 76.5q0 35 22 64.5t56 49.5h-444v700h594v-172h-381v-94h332v-157h-332v-105h390v-172q-55 -36 -55 -65q0 -30 43 -30q18 0 37 4z" />
    <glyph glyph-name="eogonek" unicode="&#x119;" horiz-adv-x="644" 
d="M231 228q9 -41 42.5 -62t84.5 -21q71 0 117 51l117 -104q-31 -33 -65 -54q-31 -25 -31 -48q0 -30 43 -30q18 0 37 4l10 -115q-60 -14 -114 -14q-78 0 -118 29.5t-40 76.5q0 26 12 49q-86 4 -154 42.5t-106 103t-38 144.5q0 84 39 150t110 103.5t163 37.5q83 0 148 -34.5
t101.5 -94.5t36.5 -134q0 -37 -10 -80h-385zM266.5 393q-27.5 -24 -35.5 -66h199q-6 43 -30.5 66.5t-63.5 23.5q-42 0 -69.5 -24z" />
    <glyph glyph-name="Ecaron" unicode="&#x11a;" horiz-adv-x="695" 
d="M272 277v-105h390v-172h-603v700h594v-172h-381v-94h332v-157h-332zM349 816l37 70l160 -7l-108 -137h-178l-108 137l159 7z" />
    <glyph glyph-name="ecaron" unicode="&#x11b;" horiz-adv-x="644" 
d="M231 228q9 -41 42.5 -62t84.5 -21q71 0 117 51l117 -104q-47 -49 -106 -76t-138 -27q-92 0 -165 37.5t-114 104t-41 149.5q0 84 39 150t110 103.5t163 37.5q83 0 148 -34.5t101.5 -94.5t36.5 -134q0 -37 -10 -80h-385zM266.5 393q-27.5 -24 -35.5 -66h199
q-6 43 -30.5 66.5t-63.5 23.5q-42 0 -69.5 -24zM328 682l36 78l156 -8l-105 -152h-175l-106 152l157 8z" />
    <glyph glyph-name="Gcircumflex" unicode="&#x11c;" horiz-adv-x="774" 
d="M226.5 33q-88.5 47 -139 130t-50.5 186q0 104 49.5 187.5t137 130.5t197.5 47q83 0 158.5 -31.5t134.5 -94.5l-140 -127q-65 69 -147 69q-47 0 -85.5 -22t-61 -63.5t-22.5 -96.5q0 -83 49 -131.5t130 -48.5q58 0 97 22v182h195v-283q-61 -49 -140 -76t-163 -27
q-111 0 -199.5 47zM528 886l108 -136l-160 -8l-37 70l-38 -70l-159 8l108 136h178z" />
    <glyph glyph-name="gcircumflex" unicode="&#x11d;" horiz-adv-x="650" 
d="M362 154q144 2 207.5 -37.5t63.5 -117.5q0 -87 -84.5 -135.5t-245.5 -48.5q-266 0 -266 142q0 56 64 96q-26 15 -39 38.5t-13 50.5q0 32 18.5 57.5t47.5 42.5q-67 52 -67 140q0 89 72.5 140t198.5 51q72 0 119 -19l152 41l35 -124l-68 -7q16 -16 25.5 -37.5t9.5 -44.5
q0 -90 -72.5 -142t-199.5 -52q-44 0 -80 6q-7 -8 -7 -21q0 -12 10 -16t31 -4zM268 424q-18 -15 -18 -41q0 -29 18 -45t51 -16q34 0 52 16t18 45q0 26 -18 41t-52 15q-33 0 -51 -15zM406 -33.5q26 9.5 26 33.5q0 17 -22 23t-71 6h-97q-15 -16 -15 -31q0 -25 23.5 -33t67.5 -8
q62 0 88 9.5zM403 770l105 -152l-156 -8l-36 78l-37 -78l-157 8l106 152h175z" />
    <glyph glyph-name="Gbreve" unicode="&#x11e;" horiz-adv-x="774" 
d="M226.5 33q-88.5 47 -139 130t-50.5 186q0 104 49.5 187.5t137 130.5t197.5 47q83 0 158.5 -31.5t134.5 -94.5l-140 -127q-65 69 -147 69q-47 0 -85.5 -22t-61 -63.5t-22.5 -96.5q0 -83 49 -131.5t130 -48.5q58 0 97 22v182h195v-283q-61 -49 -140 -76t-163 -27
q-111 0 -199.5 47zM618 891q0 -70 -50 -111t-135 -41t-135.5 41t-50.5 111l141 3q0 -52 45 -52q44 0 44 52z" />
    <glyph glyph-name="gbreve" unicode="&#x11f;" horiz-adv-x="650" 
d="M362 154q144 2 207.5 -37.5t63.5 -117.5q0 -87 -84.5 -135.5t-245.5 -48.5q-266 0 -266 142q0 56 64 96q-26 15 -39 38.5t-13 50.5q0 32 18.5 57.5t47.5 42.5q-67 52 -67 140q0 89 72.5 140t198.5 51q72 0 119 -19l152 41l35 -124l-68 -7q16 -16 25.5 -37.5t9.5 -44.5
q0 -90 -72.5 -142t-199.5 -52q-44 0 -80 6q-7 -8 -7 -21q0 -12 10 -16t31 -4zM268 424q-18 -15 -18 -41q0 -29 18 -45t51 -16q34 0 52 16t18 45q0 26 -18 41t-52 15q-33 0 -51 -15zM406 -33.5q26 9.5 26 33.5q0 17 -22 23t-71 6h-97q-15 -16 -15 -31q0 -25 23.5 -33t67.5 -8
q62 0 88 9.5zM501 753q0 -70 -50 -111t-135 -41t-135.5 41t-50.5 111l141 3q0 -52 45 -52q44 0 44 52z" />
    <glyph glyph-name="Gdotaccent" unicode="&#x120;" horiz-adv-x="774" 
d="M226.5 33q-88.5 47 -139 130t-50.5 186q0 104 49.5 187.5t137 130.5t197.5 47q83 0 158.5 -31.5t134.5 -94.5l-140 -127q-65 69 -147 69q-47 0 -85.5 -22t-61 -63.5t-22.5 -96.5q0 -83 49 -131.5t130 -48.5q58 0 97 22v182h195v-283q-61 -49 -140 -76t-163 -27
q-111 0 -199.5 47zM545 748h-215v135h215v-135z" />
    <glyph glyph-name="gdotaccent" unicode="&#x121;" horiz-adv-x="650" 
d="M362 154q144 2 207.5 -37.5t63.5 -117.5q0 -87 -84.5 -135.5t-245.5 -48.5q-266 0 -266 142q0 56 64 96q-26 15 -39 38.5t-13 50.5q0 32 18.5 57.5t47.5 42.5q-67 52 -67 140q0 89 72.5 140t198.5 51q72 0 119 -19l152 41l35 -124l-68 -7q16 -16 25.5 -37.5t9.5 -44.5
q0 -90 -72.5 -142t-199.5 -52q-44 0 -80 6q-7 -8 -7 -21q0 -12 10 -16t31 -4zM268 424q-18 -15 -18 -41q0 -29 18 -45t51 -16q34 0 52 16t18 45q0 26 -18 41t-52 15q-33 0 -51 -15zM406 -33.5q26 9.5 26 33.5q0 17 -22 23t-71 6h-97q-15 -16 -15 -31q0 -25 23.5 -33t67.5 -8
q62 0 88 9.5zM423 617h-215v139h215v-139z" />
    <glyph glyph-name="uni0122" unicode="&#x122;" horiz-adv-x="774" 
d="M226.5 33q-88.5 47 -139 130t-50.5 186q0 104 49.5 187.5t137 130.5t197.5 47q83 0 158.5 -31.5t134.5 -94.5l-140 -127q-65 69 -147 69q-47 0 -85.5 -22t-61 -63.5t-22.5 -96.5q0 -83 49 -131.5t130 -48.5q58 0 97 22v182h195v-283q-61 -49 -140 -76t-163 -27
q-111 0 -199.5 47zM321 -194q28 9 40 23.5t12 35.5h-61v97h149q10 -34 10 -66q0 -104 -121 -146z" />
    <glyph glyph-name="uni0123" unicode="&#x123;" horiz-adv-x="650" 
d="M362 154q144 2 207.5 -37.5t63.5 -117.5q0 -87 -84.5 -135.5t-245.5 -48.5q-266 0 -266 142q0 56 64 96q-26 15 -39 38.5t-13 50.5q0 32 18.5 57.5t47.5 42.5q-67 52 -67 140q0 89 72.5 140t198.5 51q72 0 119 -19l152 41l35 -124l-68 -7q16 -16 25.5 -37.5t9.5 -44.5
q0 -90 -72.5 -142t-199.5 -52q-44 0 -80 6q-7 -8 -7 -21q0 -12 10 -16t31 -4zM268 424q-18 -15 -18 -41q0 -29 18 -45t51 -16q34 0 52 16t18 45q0 26 -18 41t-52 15q-33 0 -51 -15zM406 -33.5q26 9.5 26 33.5q0 17 -22 23t-71 6h-97q-15 -16 -15 -31q0 -25 23.5 -33t67.5 -8
q62 0 88 9.5zM424 763q-28 -9 -40 -23.5t-12 -35.5h61v-97h-149q-10 34 -10 66q0 105 122 146z" />
    <glyph glyph-name="Hcircumflex" unicode="&#x124;" horiz-adv-x="797" 
d="M519 439v261h219v-700h-219v258h-241v-258h-219v700h219v-261h241zM488 886l108 -136l-160 -8l-37 70l-38 -70l-159 8l108 136h178z" />
    <glyph glyph-name="hcircumflex" unicode="&#x125;" horiz-adv-x="695" 
d="M595 512.5q57 -60.5 57 -170.5v-342h-209v303q0 45 -20.5 68t-60.5 23q-43 0 -70.5 -33t-27.5 -83v-278h-209v738h209v-249q31 39 75.5 61.5t97.5 22.5q101 0 158 -60.5zM441 924l108 -136l-160 -8l-37 70l-38 -70l-159 8l108 136h178z" />
    <glyph glyph-name="Hbar" unicode="&#x126;" horiz-adv-x="797" 
d="M738 609h37v-93h-37v-516h-219v258h-241v-258h-219v516h-31v93h31v91h219v-91h241v91h219v-91zM278 439h241v77h-241v-77z" />
    <glyph glyph-name="hbar" unicode="&#x127;" horiz-adv-x="695" 
d="M595 512.5q57 -60.5 57 -170.5v-342h-209v303q0 45 -20.5 68t-60.5 23q-43 0 -70.5 -33t-27.5 -83v-278h-209v584h-49v79h49v75h209v-75h129v-79h-129v-95q31 39 75.5 61.5t97.5 22.5q101 0 158 -60.5z" />
    <glyph glyph-name="Itilde" unicode="&#x128;" horiz-adv-x="336" 
d="M277 0h-218v700h218v-700zM-20 757q0 57 29.5 91t78.5 34q32 0 86 -15q34 -9 48 -9q17 0 27.5 10t10.5 26l91 -20q0 -58 -29 -91.5t-78 -33.5q-33 0 -87 15q-34 9 -48 9q-17 0 -27 -10t-10 -26z" />
    <glyph glyph-name="itilde" unicode="&#x129;" horiz-adv-x="308" 
d="M258 0h-209v559h209v-559zM-32 610q0 57 29.5 91t78.5 34q32 0 86 -15q34 -9 48 -9q17 0 27.5 10t10.5 26l91 -20q0 -58 -29 -91.5t-78 -33.5q-33 0 -87 15q-34 9 -48 9q-17 0 -27 -10t-10 -26z" />
    <glyph glyph-name="Imacron" unicode="&#x12a;" horiz-adv-x="336" 
d="M277 0h-218v700h218v-700zM352 758h-379v113h379v-113z" />
    <glyph glyph-name="imacron" unicode="&#x12b;" horiz-adv-x="308" 
d="M258 0h-209v559h209v-559zM351 615h-379v113h379v-113z" />
    <glyph glyph-name="Ibreve" unicode="&#x12c;" horiz-adv-x="336" 
d="M277 0h-218v700h218v-700zM348 891q0 -70 -50 -111t-135 -41t-135.5 41t-50.5 111l141 3q0 -52 45 -52q44 0 44 52z" />
    <glyph glyph-name="ibreve" unicode="&#x12d;" horiz-adv-x="308" 
d="M258 0h-209v559h209v-559zM339 743q0 -70 -50 -111t-135 -41t-135.5 41t-50.5 111l141 3q0 -52 45 -52q44 0 44 52z" />
    <glyph glyph-name="Iogonek" unicode="&#x12e;" horiz-adv-x="336" 
d="M285 -206q-60 -14 -114 -14q-78 0 -118 29.5t-40 76.5q0 35 22 64.5t56 49.5h-32v700h218v-700h-27q-55 -36 -55 -65q0 -30 43 -30q18 0 37 4z" />
    <glyph glyph-name="iogonek" unicode="&#x12f;" horiz-adv-x="308" 
d="M46 746h215v-139h-215v139zM293 -206q-60 -14 -114 -14q-78 0 -118 29.5t-40 76.5q0 35 22 64.5t56 49.5h-50v559h209v-559q-55 -36 -55 -65q0 -30 43 -30q18 0 37 4z" />
    <glyph glyph-name="Idotaccent" unicode="&#x130;" horiz-adv-x="336" 
d="M277 0h-218v700h218v-700zM275 748h-215v135h215v-135z" />
    <glyph glyph-name="dotlessi" unicode="&#x131;" horiz-adv-x="308" 
d="M258 0h-209v559h209v-559z" />
    <glyph glyph-name="IJ" unicode="&#x132;" horiz-adv-x="933" 
d="M277 0h-218v700h218v-700zM446 22.5q-70 36.5 -110 99.5l139 122q23 -35 50 -53.5t64 -18.5q39 0 62.5 27.5t23.5 71.5v258h-213v171h424v-430q0 -82 -36.5 -146.5t-100.5 -101t-146 -36.5q-87 0 -157 36.5z" />
    <glyph glyph-name="ij" unicode="&#x133;" horiz-adv-x="622" 
d="M258 0h-209v559h209v-559zM261 607h-215v139h215v-139zM265 -22q16 -8 41 -8q27 0 42.5 14.5t15.5 40.5v534h209v-535q0 -103 -66 -154.5t-165 -51.5q-56 0 -111 19zM575 607h-215v139h215v-139z" />
    <glyph glyph-name="Jcircumflex" unicode="&#x134;" horiz-adv-x="597" 
d="M110 22.5q-70 36.5 -110 99.5l139 122q23 -35 50 -53.5t64 -18.5q39 0 62.5 27.5t23.5 71.5v258h-213v171h424v-430q0 -82 -36.5 -146.5t-100.5 -101t-146 -36.5q-87 0 -157 36.5zM440 886l108 -136l-160 -8l-37 70l-38 -70l-159 8l108 136h178z" />
    <glyph glyph-name="jcircumflex" unicode="&#x135;" horiz-adv-x="314" 
d="M-43 -22q16 -8 41 -8q27 0 42.5 14.5t15.5 40.5v534h209v-535q0 -103 -66 -154.5t-165 -51.5q-56 0 -111 19zM247 760l105 -152l-156 -8l-36 78l-37 -78l-157 8l106 152h175z" />
    <glyph glyph-name="uni0136" unicode="&#x136;" horiz-adv-x="784" 
d="M779 0h-240l-167 249l-95 -108v-141h-218v700h218v-302l234 302h255l-258 -295zM325 -194q28 9 40 23.5t12 35.5h-61v97h149q10 -34 10 -66q0 -104 -121 -146z" />
    <glyph glyph-name="uni0137" unicode="&#x137;" horiz-adv-x="710" 
d="M711 0h-233l-136 192l-78 -82v-110h-209v738h209v-396l179 217h245l-221 -234zM284 -194q28 9 40 23.5t12 35.5h-61v97h149q10 -34 10 -66q0 -104 -121 -146z" />
    <glyph glyph-name="kgreenlandic" unicode="&#x138;" horiz-adv-x="716" 
d="M711 0h-233l-136 192l-78 -82v-110h-209v559h209v-217l179 217h245l-221 -234z" />
    <glyph glyph-name="Lacute" unicode="&#x139;" horiz-adv-x="625" 
d="M610 0h-551v700h216v-520h335v-180zM512 852l-123 -111l-146 8l91 139z" />
    <glyph glyph-name="lacute" unicode="&#x13a;" horiz-adv-x="318" 
d="M264 0h-209v738h209v-738zM362 916l-131 -137l-149 9l86 162z" />
    <glyph glyph-name="uni013B" unicode="&#x13b;" horiz-adv-x="625" 
d="M610 0h-551v700h216v-520h335v-180zM244 -194q28 9 40 23.5t12 35.5h-61v97h149q10 -34 10 -66q0 -104 -121 -146z" />
    <glyph glyph-name="uni013C" unicode="&#x13c;" horiz-adv-x="318" 
d="M264 0h-209v738h209v-738zM89 -194q28 9 40 23.5t12 35.5h-61v97h149q10 -34 10 -66q0 -104 -121 -146z" />
    <glyph glyph-name="Lcaron" unicode="&#x13d;" horiz-adv-x="625" 
d="M610 0h-551v700h216v-520h335v-180zM441 467v234h154l-49 -234h-105z" />
    <glyph glyph-name="lcaron" unicode="&#x13e;" horiz-adv-x="433" 
d="M264 0h-209v738h209v-738zM294 505v234h154l-49 -234h-105z" />
    <glyph glyph-name="Ldot" unicode="&#x13f;" horiz-adv-x="625" 
d="M610 0h-551v700h216v-520h335v-180zM378 300v147h171v-147h-171z" />
    <glyph glyph-name="ldot" unicode="&#x140;" horiz-adv-x="440" 
d="M264 0h-209v738h209v-738zM312 322v114h133v-114h-133z" />
    <glyph glyph-name="Lslash" unicode="&#x141;" horiz-adv-x="625" 
d="M275 359v-179h335v-180h-551v255l-44 -21l-34 70l78 38v358h216v-255l47 23l34 -70z" />
    <glyph glyph-name="lslash" unicode="&#x142;" horiz-adv-x="318" 
d="M313 487l34 -70l-83 -40v-377h-209v277l-49 -24l-34 70l83 40v375h209v-275z" />
    <glyph glyph-name="Nacute" unicode="&#x143;" horiz-adv-x="809" 
d="M277 0h-218v700h183l289 -352v352h219v-700h-177l-296 361v-361zM603 852l-123 -111l-146 8l91 139z" />
    <glyph glyph-name="nacute" unicode="&#x144;" horiz-adv-x="690" 
d="M589.5 512.5q56.5 -60.5 56.5 -170.5v-342h-208v303q0 44 -20.5 67.5t-60.5 23.5q-43 0 -71 -33t-28 -83v-278h-209v559h209v-71q31 40 76 62.5t98 22.5q101 0 157.5 -60.5zM548 737l-131 -137l-149 9l86 162z" />
    <glyph glyph-name="uni0145" unicode="&#x145;" horiz-adv-x="809" 
d="M277 0h-218v700h183l289 -352v352h219v-700h-177l-296 361v-361zM334 -194q28 9 40 23.5t12 35.5h-61v97h149q10 -34 10 -66q0 -104 -121 -146z" />
    <glyph glyph-name="uni0146" unicode="&#x146;" horiz-adv-x="690" 
d="M589.5 512.5q56.5 -60.5 56.5 -170.5v-342h-208v303q0 44 -20.5 67.5t-60.5 23.5q-43 0 -71 -33t-28 -83v-278h-209v559h209v-71q31 40 76 62.5t98 22.5q101 0 157.5 -60.5zM275 -194q28 9 40 23.5t12 35.5h-61v97h149q10 -34 10 -66q0 -104 -121 -146z" />
    <glyph glyph-name="Ncaron" unicode="&#x147;" horiz-adv-x="809" 
d="M277 0h-218v700h183l289 -352v352h219v-700h-177l-296 361v-361zM406 816l37 70l160 -7l-108 -137h-178l-108 137l159 7z" />
    <glyph glyph-name="ncaron" unicode="&#x148;" horiz-adv-x="690" 
d="M589.5 512.5q56.5 -60.5 56.5 -170.5v-342h-208v303q0 44 -20.5 67.5t-60.5 23.5q-43 0 -71 -33t-28 -83v-278h-209v559h209v-71q31 40 76 62.5t98 22.5q101 0 157.5 -60.5zM346 682l36 78l156 -8l-105 -152h-175l-106 152l157 8z" />
    <glyph glyph-name="Eng" unicode="&#x14a;" horiz-adv-x="804" 
d="M750 700v-700h-1q-1 -90 -56 -135.5t-159 -45.5q-84 0 -146 27l46 129q22 -10 48 -10q24 0 38 14.5t14 41.5v27l-257 313v-361h-218v700h183l289 -352v352h219z" />
    <glyph glyph-name="eng" unicode="&#x14b;" horiz-adv-x="690" 
d="M646 206q1 -27 1 -92v-111q0 -91 -53.5 -137.5t-154.5 -46.5q-39 0 -76 7t-66 20l45 129q20 -10 46 -10q23 0 36.5 14.5t13.5 41.5v282q0 44 -20.5 67.5t-60.5 23.5q-43 0 -71 -33t-28 -83v-278h-209v559h209v-71q31 40 76 62.5t98 22.5q101 0 157.5 -60.5t56.5 -170.5
v-136z" />
    <glyph glyph-name="Omacron" unicode="&#x14c;" horiz-adv-x="846" 
d="M224 33q-88 47 -137.5 129.5t-49.5 186.5t49.5 187.5t138 130.5t198.5 47q111 0 199 -47t137.5 -129.5t49.5 -186.5t-50 -187.5t-138 -130.5t-199 -47q-110 0 -198 47zM539.5 221q45.5 49 45.5 128q0 52 -20.5 93t-57.5 64t-84 23t-84 -22.5t-57.5 -63.5t-20.5 -93
t20.5 -92.5t57.5 -63t84 -22.5q71 0 116.5 49zM607 758h-379v113h379v-113z" />
    <glyph glyph-name="omacron" unicode="&#x14d;" 
d="M183 24q-73 38 -114 105t-41 151q0 83 41.5 150t114.5 105t165 38t165 -37.5t114.5 -104.5t41.5 -150q0 -84 -41.5 -151t-115 -105.5t-165.5 -38.5t-165 38zM428 193.5q31 33.5 31 86.5t-31 86t-80 33q-48 0 -79 -32.5t-31 -84.5q0 -54 31.5 -88t79.5 -34t79 33.5z
M546 615h-379v113h379v-113z" />
    <glyph glyph-name="Obreve" unicode="&#x14e;" horiz-adv-x="846" 
d="M224 33q-88 47 -137.5 129.5t-49.5 186.5t49.5 187.5t138 130.5t198.5 47q111 0 199 -47t137.5 -129.5t49.5 -186.5t-50 -187.5t-138 -130.5t-199 -47q-110 0 -198 47zM539.5 221q45.5 49 45.5 128q0 52 -20.5 93t-57.5 64t-84 23t-84 -22.5t-57.5 -63.5t-20.5 -93
t20.5 -92.5t57.5 -63t84 -22.5q71 0 116.5 49zM603 891q0 -70 -50 -111t-135 -41t-135.5 41t-50.5 111l141 3q0 -52 45 -52q44 0 44 52z" />
    <glyph glyph-name="obreve" unicode="&#x14f;" 
d="M183 24q-73 38 -114 105t-41 151q0 83 41.5 150t114.5 105t165 38t165 -37.5t114.5 -104.5t41.5 -150q0 -84 -41.5 -151t-115 -105.5t-165.5 -38.5t-165 38zM428 193.5q31 33.5 31 86.5t-31 86t-80 33q-48 0 -79 -32.5t-31 -84.5q0 -54 31.5 -88t79.5 -34t79 33.5z
M534 743q0 -70 -50 -111t-135 -41t-135.5 41t-50.5 111l141 3q0 -52 45 -52q44 0 44 52z" />
    <glyph glyph-name="Ohungarumlaut" unicode="&#x150;" horiz-adv-x="846" 
d="M224 33q-88 47 -137.5 129.5t-49.5 186.5t49.5 187.5t138 130.5t198.5 47q111 0 199 -47t137.5 -129.5t49.5 -186.5t-50 -187.5t-138 -130.5t-199 -47q-110 0 -198 47zM539.5 221q45.5 49 45.5 128q0 52 -20.5 93t-57.5 64t-84 23t-84 -22.5t-57.5 -63.5t-20.5 -93
t20.5 -92.5t57.5 -63t84 -22.5q71 0 116.5 49zM463 851l-100 -110l-140 7l67 139zM691 851l-100 -110l-140 7l67 139z" />
    <glyph glyph-name="ohungarumlaut" unicode="&#x151;" 
d="M183 24q-73 38 -114 105t-41 151q0 83 41.5 150t114.5 105t165 38t165 -37.5t114.5 -104.5t41.5 -150q0 -84 -41.5 -151t-115 -105.5t-165.5 -38.5t-165 38zM428 193.5q31 33.5 31 86.5t-31 86t-80 33q-48 0 -79 -32.5t-31 -84.5q0 -54 31.5 -88t79.5 -34t79 33.5z
M360 732l-104 -137l-142 9l57 162zM588 732l-104 -137l-142 9l57 162z" />
    <glyph glyph-name="OE" unicode="&#x152;" horiz-adv-x="1206" 
d="M783 172h390v-172h-603v10q-67 -24 -146 -24q-109 0 -197.5 47t-139 130.5t-50.5 186.5t49.5 186.5t136 130.5t193.5 47q85 0 154 -26v12h593v-172h-380v-94h331v-157h-331v-105zM570 233v234q-56 63 -142 63q-47 0 -86 -22t-61.5 -63t-22.5 -95t22.5 -94.5t60.5 -62.5
t85 -22q82 0 144 62z" />
    <glyph glyph-name="oe" unicode="&#x153;" horiz-adv-x="1082" 
d="M669 228q9 -41 42.5 -62t84.5 -21q71 0 117 51l117 -104q-47 -49 -106 -76t-138 -27q-65 0 -120.5 18.5t-97.5 53.5q-43 -36 -99 -55.5t-121 -19.5q-92 0 -165 38t-114 105t-41 151q0 83 41.5 150t114.5 105t165 38q64 0 119 -18.5t98 -52.5q87 69 212 69q83 0 148 -34.5
t101.5 -94.5t36.5 -134q0 -37 -10 -80h-385zM704.5 393q-27.5 -24 -35.5 -66h199q-6 43 -30.5 66.5t-63.5 23.5q-42 0 -69.5 -24zM428 193.5q31 33.5 31 86.5t-31 86t-80 33q-48 0 -79 -32.5t-31 -84.5q0 -54 31.5 -88t79.5 -34t79 33.5z" />
    <glyph glyph-name="Racute" unicode="&#x154;" horiz-adv-x="727" 
d="M481 0l-145 198h-59v-198h-218v700h320q99 0 172 -30.5t112 -87t39 -134.5t-38.5 -134t-110.5 -86l168 -228h-240zM277 526v-166h96q52 0 81.5 21.5t29.5 62.5q0 39 -29.5 60.5t-81.5 21.5h-96zM568 852l-123 -111l-146 8l91 139z" />
    <glyph glyph-name="racute" unicode="&#x155;" horiz-adv-x="462" 
d="M450 564l-8 -191q-34 8 -67 8q-53 0 -85 -42.5t-32 -111.5v-227h-209v559h209v-81q26 45 63.5 67.5t79.5 22.5q23 0 49 -4zM427 737l-131 -137l-149 9l86 162z" />
    <glyph glyph-name="uni0156" unicode="&#x156;" horiz-adv-x="727" 
d="M481 0l-145 198h-59v-198h-218v700h320q99 0 172 -30.5t112 -87t39 -134.5t-38.5 -134t-110.5 -86l168 -228h-240zM277 526v-166h96q52 0 81.5 21.5t29.5 62.5q0 39 -29.5 60.5t-81.5 21.5h-96zM300 -194q28 9 40 23.5t12 35.5h-61v97h149q10 -34 10 -66
q0 -104 -121 -146z" />
    <glyph glyph-name="uni0157" unicode="&#x157;" horiz-adv-x="462" 
d="M450 564l-8 -191q-34 8 -67 8q-53 0 -85 -42.5t-32 -111.5v-227h-209v559h209v-81q26 45 63.5 67.5t79.5 22.5q23 0 49 -4zM154 -194q28 9 40 23.5t12 35.5h-61v97h149q10 -34 10 -66q0 -104 -121 -146z" />
    <glyph glyph-name="Rcaron" unicode="&#x158;" horiz-adv-x="727" 
d="M481 0l-145 198h-59v-198h-218v700h320q99 0 172 -30.5t112 -87t39 -134.5t-38.5 -134t-110.5 -86l168 -228h-240zM277 526v-166h96q52 0 81.5 21.5t29.5 62.5q0 39 -29.5 60.5t-81.5 21.5h-96zM371 816l37 70l160 -7l-108 -137h-178l-108 137l159 7z" />
    <glyph glyph-name="rcaron" unicode="&#x159;" horiz-adv-x="462" 
d="M450 564l-8 -191q-34 8 -67 8q-53 0 -85 -42.5t-32 -111.5v-227h-209v559h209v-81q26 45 63.5 67.5t79.5 22.5q23 0 49 -4zM225 682l36 78l156 -8l-105 -152h-175l-106 152l157 8z" />
    <glyph glyph-name="Sacute" unicode="&#x15a;" horiz-adv-x="662" 
d="M159.5 11.5q-85.5 25.5 -144.5 68.5l82 151q142 -81 251 -81q35 0 56.5 12.5t21.5 33.5q0 27 -25 39.5t-92 26.5q-134 28 -205.5 79.5t-71.5 150.5q0 71 39 121t106 75.5t152 25.5q177 0 292 -94l-97 -133q-42 30 -91.5 46.5t-98.5 16.5q-82 0 -82 -46q0 -22 26 -37
t89 -28q96 -20 155.5 -46t90.5 -68.5t31 -107.5q0 -71 -39 -123.5t-107.5 -80t-153.5 -27.5q-99 0 -184.5 25.5zM532 852l-123 -111l-146 8l91 139z" />
    <glyph glyph-name="sacute" unicode="&#x15b;" horiz-adv-x="557" 
d="M8 46l58 138q105 -47 216 -47q61 0 61 33q0 17 -20 26t-75 17q-121 17 -173 56.5t-52 114.5q0 89 70 138.5t183 49.5q61 0 129 -16t114 -40l-61 -135q-105 41 -192 41q-49 0 -49 -29q0 -13 17 -21t69 -17q123 -19 178 -60t55 -118q0 -89 -74 -139.5t-194 -50.5
q-140 0 -260 59zM479 737l-131 -137l-149 9l86 162z" />
    <glyph glyph-name="Scircumflex" unicode="&#x15c;" horiz-adv-x="662" 
d="M159.5 11.5q-85.5 25.5 -144.5 68.5l82 151q142 -81 251 -81q35 0 56.5 12.5t21.5 33.5q0 27 -25 39.5t-92 26.5q-134 28 -205.5 79.5t-71.5 150.5q0 71 39 121t106 75.5t152 25.5q177 0 292 -94l-97 -133q-42 30 -91.5 46.5t-98.5 16.5q-82 0 -82 -46q0 -22 26 -37
t89 -28q96 -20 155.5 -46t90.5 -68.5t31 -107.5q0 -71 -39 -123.5t-107.5 -80t-153.5 -27.5q-99 0 -184.5 25.5zM424 886l108 -136l-160 -8l-37 70l-38 -70l-159 8l108 136h178z" />
    <glyph glyph-name="scircumflex" unicode="&#x15d;" horiz-adv-x="557" 
d="M8 46l58 138q105 -47 216 -47q61 0 61 33q0 17 -20 26t-75 17q-121 17 -173 56.5t-52 114.5q0 89 70 138.5t183 49.5q61 0 129 -16t114 -40l-61 -135q-105 41 -192 41q-49 0 -49 -29q0 -13 17 -21t69 -17q123 -19 178 -60t55 -118q0 -89 -74 -139.5t-194 -50.5
q-140 0 -260 59zM364 760l105 -152l-156 -8l-36 78l-37 -78l-157 8l106 152h175z" />
    <glyph glyph-name="Scedilla" unicode="&#x15e;" horiz-adv-x="662" 
d="M608.5 98.5q-35.5 -50.5 -98 -79t-141.5 -32.5l-4 -15q36 -4 58.5 -23.5t22.5 -48.5q0 -40 -38.5 -61t-103.5 -21q-40 0 -75 5l16 74q17 -3 36 -3q15 0 22 3t7 12q0 18 -28 18q-9 0 -24 -3l18 65q-79 8 -146 32t-115 59l82 151q142 -81 251 -81q35 0 56.5 12.5t21.5 33.5
q0 27 -25 39.5t-92 26.5q-134 28 -205.5 79.5t-71.5 150.5q0 71 39 121t106 75.5t152 25.5q177 0 292 -94l-97 -133q-42 30 -91.5 46.5t-98.5 16.5q-82 0 -82 -46q0 -22 26 -37t89 -28q96 -20 155.5 -46t90.5 -68.5t31 -107.5q0 -68 -35.5 -118.5z" />
    <glyph glyph-name="scedilla" unicode="&#x15f;" horiz-adv-x="557" 
d="M475.5 47q-60.5 -49 -162.5 -58l-5 -17q36 -4 58.5 -23.5t22.5 -48.5q0 -40 -38.5 -61t-103.5 -21q-40 0 -75 5l16 74q17 -3 36 -3q15 0 22 3t7 12q0 18 -28 18q-9 0 -24 -3l18 65q-116 10 -211 57l58 138q105 -47 216 -47q61 0 61 33q0 17 -20 26t-75 17
q-121 17 -173 56.5t-52 114.5q0 89 70 138.5t183 49.5q61 0 129 -16t114 -40l-61 -135q-105 41 -192 41q-49 0 -49 -29q0 -13 17 -21t69 -17q123 -19 178 -60t55 -118q0 -81 -60.5 -130z" />
    <glyph glyph-name="Scaron" unicode="&#x160;" horiz-adv-x="662" 
d="M159.5 11.5q-85.5 25.5 -144.5 68.5l82 151q142 -81 251 -81q35 0 56.5 12.5t21.5 33.5q0 27 -25 39.5t-92 26.5q-134 28 -205.5 79.5t-71.5 150.5q0 71 39 121t106 75.5t152 25.5q177 0 292 -94l-97 -133q-42 30 -91.5 46.5t-98.5 16.5q-82 0 -82 -46q0 -22 26 -37
t89 -28q96 -20 155.5 -46t90.5 -68.5t31 -107.5q0 -71 -39 -123.5t-107.5 -80t-153.5 -27.5q-99 0 -184.5 25.5zM335 816l37 70l160 -7l-108 -137h-178l-108 137l159 7z" />
    <glyph glyph-name="scaron" unicode="&#x161;" horiz-adv-x="557" 
d="M8 46l58 138q105 -47 216 -47q61 0 61 33q0 17 -20 26t-75 17q-121 17 -173 56.5t-52 114.5q0 89 70 138.5t183 49.5q61 0 129 -16t114 -40l-61 -135q-105 41 -192 41q-49 0 -49 -29q0 -13 17 -21t69 -17q123 -19 178 -60t55 -118q0 -89 -74 -139.5t-194 -50.5
q-140 0 -260 59zM277 682l36 78l156 -8l-105 -152h-175l-106 152l157 8z" />
    <glyph glyph-name="uni0162" unicode="&#x162;" horiz-adv-x="674" 
d="M446 0h-69l-8 -28q36 -4 58.5 -23.5t22.5 -48.5q0 -40 -38.5 -61t-103.5 -21q-40 0 -75 5l16 74q17 -3 36 -3q15 0 22 3t7 12q0 18 -28 18q-9 0 -24 -3l21 76h-56v519h-208v181h636v-181h-209v-519z" />
    <glyph glyph-name="uni0163" unicode="&#x163;" horiz-adv-x="539" 
d="M364 -28q36 -4 58.5 -23.5t22.5 -48.5q0 -40 -38.5 -61t-103.5 -21q-40 0 -75 5l16 74q17 -3 36 -3q15 0 22 3t7 12q0 18 -28 18q-9 0 -24 -3l18 67q-78 14 -119 65.5t-41 139.5v202h-94v161h99l12 137h191v-137h171v-161h-171v-178q0 -28 13.5 -42.5t39.5 -14.5
q21 0 50 5t52 13l37 -153q-30 -16 -69.5 -26.5t-77.5 -13.5z" />
    <glyph glyph-name="Tcaron" unicode="&#x164;" horiz-adv-x="674" 
d="M19 700h636v-181h-209v-519h-219v519h-208v181zM338 816l37 70l160 -7l-108 -137h-178l-108 137l159 7z" />
    <glyph glyph-name="tcaron" unicode="&#x165;" horiz-adv-x="539" 
d="M515 28q-38 -20 -89 -31t-93 -11q-105 0 -161.5 53.5t-56.5 156.5v202h-94v161h99l12 137h191v-137h171v-161h-171v-178q0 -28 13.5 -42.5t39.5 -14.5q21 0 50 5t52 13zM378 606v234h154l-49 -234h-105z" />
    <glyph glyph-name="Tbar" unicode="&#x166;" horiz-adv-x="674" 
d="M655 700v-181h-209v-122h103v-92h-103v-305h-219v305h-99v92h99v122h-208v181h636z" />
    <glyph glyph-name="tbar" unicode="&#x167;" horiz-adv-x="539" 
d="M515 28q-38 -20 -89 -31t-93 -11q-105 0 -161.5 53.5t-56.5 156.5v74h-63v79h63v49h-94v161h99l12 137h191v-137h171v-161h-171v-49h116v-79h-116v-50q0 -28 13.5 -42.5t39.5 -14.5q21 0 50 5t52 13z" />
    <glyph glyph-name="Utilde" unicode="&#x168;" horiz-adv-x="770" 
d="M205.5 24.5q-76.5 38.5 -117.5 110t-41 168.5v397h219v-389q0 -66 30.5 -101t87.5 -35q58 0 90 35t32 101v389h216v-397q0 -97 -41 -168.5t-117 -110t-180 -38.5q-102 0 -178.5 38.5zM197 757q0 57 29.5 91t78.5 34q32 0 86 -15q34 -9 48 -9q17 0 27.5 10t10.5 26l91 -20
q0 -58 -29 -91.5t-78 -33.5q-33 0 -87 15q-34 9 -48 9q-17 0 -27 -10t-10 -26z" />
    <glyph glyph-name="utilde" unicode="&#x169;" horiz-adv-x="690" 
d="M432 559h209v-559h-209v71q-31 -40 -76 -62.5t-98 -22.5q-101 0 -157.5 60.5t-56.5 170.5v342h208v-303q0 -44 20.5 -67.5t60.5 -23.5q43 0 71 33t28 83v278zM149 610q0 57 29.5 91t78.5 34q32 0 86 -15q34 -9 48 -9q17 0 27.5 10t10.5 26l91 -20q0 -58 -29 -91.5
t-78 -33.5q-33 0 -87 15q-34 9 -48 9q-17 0 -27 -10t-10 -26z" />
    <glyph glyph-name="Umacron" unicode="&#x16a;" horiz-adv-x="770" 
d="M205.5 24.5q-76.5 38.5 -117.5 110t-41 168.5v397h219v-389q0 -66 30.5 -101t87.5 -35q58 0 90 35t32 101v389h216v-397q0 -97 -41 -168.5t-117 -110t-180 -38.5q-102 0 -178.5 38.5zM569 758h-379v113h379v-113z" />
    <glyph glyph-name="umacron" unicode="&#x16b;" horiz-adv-x="690" 
d="M432 559h209v-559h-209v71q-31 -40 -76 -62.5t-98 -22.5q-101 0 -157.5 60.5t-56.5 170.5v342h208v-303q0 -44 20.5 -67.5t60.5 -23.5q43 0 71 33t28 83v278zM532 615h-379v113h379v-113z" />
    <glyph glyph-name="Ubreve" unicode="&#x16c;" horiz-adv-x="770" 
d="M205.5 24.5q-76.5 38.5 -117.5 110t-41 168.5v397h219v-389q0 -66 30.5 -101t87.5 -35q58 0 90 35t32 101v389h216v-397q0 -97 -41 -168.5t-117 -110t-180 -38.5q-102 0 -178.5 38.5zM566 891q0 -70 -50 -111t-135 -41t-135.5 41t-50.5 111l141 3q0 -52 45 -52
q44 0 44 52z" />
    <glyph glyph-name="ubreve" unicode="&#x16d;" horiz-adv-x="690" 
d="M432 559h209v-559h-209v71q-31 -40 -76 -62.5t-98 -22.5q-101 0 -157.5 60.5t-56.5 170.5v342h208v-303q0 -44 20.5 -67.5t60.5 -23.5q43 0 71 33t28 83v278zM520 743q0 -70 -50 -111t-135 -41t-135.5 41t-50.5 111l141 3q0 -52 45 -52q44 0 44 52z" />
    <glyph glyph-name="Uring" unicode="&#x16e;" horiz-adv-x="770" 
d="M205.5 24.5q-76.5 38.5 -117.5 110t-41 168.5v397h219v-389q0 -66 30.5 -101t87.5 -35q58 0 90 35t32 101v389h216v-397q0 -97 -41 -168.5t-117 -110t-180 -38.5q-102 0 -178.5 38.5zM286 770.5q-39 35.5 -39 89.5t39 89.5t100 35.5q60 0 99 -35.5t39 -89.5t-39 -89.5
t-99 -35.5q-61 0 -100 35.5zM418.5 828.5q13.5 12.5 13.5 31.5t-13.5 32t-32.5 13t-32.5 -13t-13.5 -32t13 -31.5t33 -12.5q19 0 32.5 12.5z" />
    <glyph glyph-name="uring" unicode="&#x16f;" horiz-adv-x="690" 
d="M432 559h209v-559h-209v71q-31 -40 -76 -62.5t-98 -22.5q-101 0 -157.5 60.5t-56.5 170.5v342h208v-303q0 -44 20.5 -67.5t60.5 -23.5q43 0 71 33t28 83v278zM246 627.5q-39 35.5 -39 89.5t39 89.5t100 35.5q60 0 99 -35.5t39 -89.5t-39 -89.5t-99 -35.5q-61 0 -100 35.5
zM378.5 685.5q13.5 12.5 13.5 31.5t-13.5 32t-32.5 13t-32.5 -13t-13.5 -32t13 -31.5t33 -12.5q19 0 32.5 12.5z" />
    <glyph glyph-name="Uhungarumlaut" unicode="&#x170;" horiz-adv-x="770" 
d="M205.5 24.5q-76.5 38.5 -117.5 110t-41 168.5v397h219v-389q0 -66 30.5 -101t87.5 -35q58 0 90 35t32 101v389h216v-397q0 -97 -41 -168.5t-117 -110t-180 -38.5q-102 0 -178.5 38.5zM425 851l-100 -110l-140 7l67 139zM653 851l-100 -110l-140 7l67 139z" />
    <glyph glyph-name="uhungarumlaut" unicode="&#x171;" horiz-adv-x="690" 
d="M432 559h209v-559h-209v71q-31 -40 -76 -62.5t-98 -22.5q-101 0 -157.5 60.5t-56.5 170.5v342h208v-303q0 -44 20.5 -67.5t60.5 -23.5q43 0 71 33t28 83v278zM346 732l-104 -137l-142 9l57 162zM574 732l-104 -137l-142 9l57 162z" />
    <glyph glyph-name="Uogonek" unicode="&#x172;" horiz-adv-x="770" 
d="M506 700h216v-397q0 -90 -35.5 -158.5t-102.5 -108.5q-22 -16 -33 -30t-11 -28q0 -30 43 -30q18 0 37 4l10 -115q-60 -14 -114 -14q-78 0 -118 29.5t-40 76.5q0 31 17 57q-100 2 -174 41t-114 110t-40 166v397h219v-389q0 -66 30.5 -101t87.5 -35q58 0 90 35t32 101v389z
" />
    <glyph glyph-name="uogonek" unicode="&#x173;" horiz-adv-x="690" 
d="M672 -206q-60 -14 -114 -14q-78 0 -118 29.5t-40 76.5q0 35 22 64.5t56 49.5h-46v71q-31 -40 -76 -62.5t-98 -22.5q-101 0 -157.5 60.5t-56.5 170.5v342h208v-303q0 -44 20.5 -67.5t60.5 -23.5q43 0 71 33t28 83v278h209v-559h-4q-55 -36 -55 -65q0 -30 43 -30q18 0 37 4
z" />
    <glyph glyph-name="Wcircumflex" unicode="&#x174;" horiz-adv-x="1139" 
d="M780 268l130 432h230l-230 -700h-223l-117 403l-117 -403h-222l-232 700h230l132 -432l122 432h173zM660 886l108 -136l-160 -8l-37 70l-38 -70l-159 8l108 136h178z" />
    <glyph glyph-name="wcircumflex" unicode="&#x175;" horiz-adv-x="976" 
d="M657 242l87 317h219l-189 -559h-201l-85 291l-85 -291h-201l-189 559h219l87 -317l89 317h159zM575 760l105 -152l-156 -8l-36 78l-37 -78l-157 8l106 152h175z" />
    <glyph glyph-name="Ycircumflex" unicode="&#x176;" horiz-adv-x="738" 
d="M508 700h236l-266 -448v-252h-218v256l-266 444h236l140 -267zM460 886l108 -136l-160 -8l-37 70l-38 -70l-159 8l108 136h178z" />
    <glyph glyph-name="ycircumflex" unicode="&#x177;" horiz-adv-x="686" 
d="M455 559h223l-228 -559l-10 -24q-26 -60 -56 -94.5t-73 -50.5t-109 -16q-42 0 -87 11t-76 26l39 135q53 -16 89 -16q53 0 69 41l2 5l-226 542h221l111 -333h1zM433 760l105 -152l-156 -8l-36 78l-37 -78l-157 8l106 152h175z" />
    <glyph glyph-name="Ydieresis" unicode="&#x178;" horiz-adv-x="738" 
d="M508 700h236l-266 -448v-252h-218v256l-266 444h236l140 -267zM359 749h-145v134h145v-134zM534 749h-145v134h145v-134z" />
    <glyph glyph-name="Zacute" unicode="&#x179;" horiz-adv-x="699" 
d="M671 0h-641v135l336 384h-325v181h622v-135l-335 -384h343v-181zM545 852l-123 -111l-146 8l91 139z" />
    <glyph glyph-name="zacute" unicode="&#x17a;" horiz-adv-x="591" 
d="M564 0h-535v125l257 267h-249v167h522v-125l-258 -266h263v-168zM496 737l-131 -137l-149 9l86 162z" />
    <glyph glyph-name="Zdotaccent" unicode="&#x17b;" horiz-adv-x="699" 
d="M671 0h-641v135l336 384h-325v181h622v-135l-335 -384h343v-181zM454 748h-215v135h215v-135z" />
    <glyph glyph-name="zdotaccent" unicode="&#x17c;" horiz-adv-x="591" 
d="M564 0h-535v125l257 267h-249v167h522v-125l-258 -266h263v-168zM400 607h-215v139h215v-139z" />
    <glyph glyph-name="Zcaron" unicode="&#x17d;" horiz-adv-x="699" 
d="M671 0h-641v135l336 384h-325v181h622v-135l-335 -384h343v-181zM348 816l37 70l160 -7l-108 -137h-178l-108 137l159 7z" />
    <glyph glyph-name="zcaron" unicode="&#x17e;" horiz-adv-x="591" 
d="M564 0h-535v125l257 267h-249v167h522v-125l-258 -266h263v-168zM293 682l36 78l156 -8l-105 -152h-175l-106 152l157 8z" />
    <glyph glyph-name="uni018F" unicode="&#x18f;" horiz-adv-x="828" 
d="M594.5 665q92.5 -47 144.5 -129.5t52 -186.5t-50 -186.5t-139.5 -129t-204.5 -46.5q-104 0 -186 43.5t-128 119.5t-46 171q0 38 11 76h515q-11 58 -59 96t-113 38q-50 0 -93 -19t-76 -53l-142 127q123 126 306 126q116 0 208.5 -47zM499 198.5q44 32.5 60 86.5h-299
q11 -55 48.5 -87t89.5 -32q57 0 101 32.5z" />
    <glyph glyph-name="florin" unicode="&#x192;" horiz-adv-x="742" 
d="M538.5 622q-18.5 -16 -31.5 -63h125v-154h-154l-25 -143q-47 -275 -270 -275q-97 0 -155 25l53 142q30 -10 44.5 -13t40.5 -3q19 0 33 10.5t26 41t23 88.5l22 127h-103v154h131q28 124 89 177.5t172 53.5q97 0 155 -26l-53 -142q-27 10 -40.5 13t-29.5 3q-34 0 -52.5 -16
z" />
    <glyph glyph-name="uni019D" unicode="&#x19d;" horiz-adv-x="810" 
d="M531 700h219v-700h-177l-296 361v-361q-2 -89 -57.5 -133.5t-160.5 -44.5q-40 0 -79 7t-69 20l47 129q8 -4 21.5 -7t26.5 -3q24 0 38.5 14t14.5 42v676h183l289 -352v352z" />
    <glyph glyph-name="Ohorn" unicode="&#x1a0;" horiz-adv-x="846" 
d="M808 779q15 -43 15 -80q0 -48 -23.5 -81t-64.5 -44q74 -96 74 -223q0 -104 -50 -187.5t-138 -130.5t-199 -47q-110 0 -198 47t-137.5 129.5t-49.5 186.5t49.5 187.5t138 130.5t198.5 47q83 0 153 -26q30 3 44 13.5t14 32.5q0 14 -6 35zM539.5 221q45.5 49 45.5 128
q0 52 -20.5 93t-57.5 64t-84 23t-84 -22.5t-57.5 -63.5t-20.5 -93t20.5 -92.5t57.5 -63t84 -22.5q71 0 116.5 49z" />
    <glyph glyph-name="ohorn" unicode="&#x1a1;" 
d="M701 646q15 -43 15 -80q0 -50 -25 -82.5t-68 -44.5q47 -69 47 -158q0 -84 -41.5 -151t-115 -105.5t-165.5 -38.5t-165 38t-114 105t-41 151q0 83 41.5 150t114.5 105t165 38q62 0 119 -19q31 4 45.5 14.5t14.5 32.5q0 11 -7 35zM428 193.5q31 33.5 31 86.5t-31 86t-80 33
q-48 0 -79 -32.5t-31 -84.5q0 -54 31.5 -88t79.5 -34t79 33.5z" />
    <glyph glyph-name="Uhorn" unicode="&#x1af;" horiz-adv-x="850" 
d="M868 784q13 -38 13 -70q0 -54 -32.5 -84.5t-83.5 -30.5q-18 0 -43 5v-301q0 -97 -41 -168.5t-117 -110t-180 -38.5q-102 0 -178.5 38.5t-117.5 110t-41 168.5v397h219v-389q0 -66 30.5 -101t87.5 -35q58 0 90 35t32 101v389h153l1 3q29 3 42.5 12.5t13.5 29.5q0 13 -6 31
z" />
    <glyph glyph-name="uhorn" unicode="&#x1b0;" horiz-adv-x="770" 
d="M781 640q12 -32 12 -66q0 -51 -30.5 -80t-79.5 -29q-23 0 -42 5v-470h-209v71q-31 -40 -76 -62.5t-98 -22.5q-101 0 -157.5 60.5t-56.5 170.5v342h208v-303q0 -44 20.5 -67.5t60.5 -23.5q43 0 71 33t28 83v278h152l1 4q27 3 39.5 12t12.5 27q0 15 -5 30z" />
    <glyph glyph-name="uni01CD" unicode="&#x1cd;" horiz-adv-x="819" 
d="M819 0h-229l-40 106h-284l-41 -106h-226l301 700h218zM409 477l-86 -222h170zM410 816l37 70l160 -7l-108 -137h-178l-108 137l159 7z" />
    <glyph glyph-name="uni01CE" unicode="&#x1ce;" horiz-adv-x="636" 
d="M520.5 505q72.5 -68 72.5 -189v-316h-208v64q-25 -35 -69 -56t-102 -21q-87 0 -141.5 49t-54.5 129q0 82 59 128t174 46q68 0 133 -5q-1 37 -29 57t-84 20q-36 0 -78 -12t-72 -30l-69 139q50 31 114 48t130 17q152 0 224.5 -68zM352 161.5q28 24.5 32 65.5v15
q-32 4 -80 4q-43 0 -64.5 -15t-21.5 -42q0 -24 18.5 -38t49.5 -14q38 0 66 24.5zM304 683l36 78l156 -8l-105 -152h-175l-106 152l157 8z" />
    <glyph glyph-name="uni01CF" unicode="&#x1cf;" horiz-adv-x="336" 
d="M277 0h-218v700h218v-700zM169 816l37 70l160 -7l-108 -137h-178l-108 137l159 7z" />
    <glyph glyph-name="uni01D0" unicode="&#x1d0;" horiz-adv-x="308" 
d="M258 0h-209v559h209v-559zM154 682l36 78l156 -8l-105 -152h-175l-106 152l157 8z" />
    <glyph glyph-name="uni01D1" unicode="&#x1d1;" horiz-adv-x="846" 
d="M224 33q-88 47 -137.5 129.5t-49.5 186.5t49.5 187.5t138 130.5t198.5 47q111 0 199 -47t137.5 -129.5t49.5 -186.5t-50 -187.5t-138 -130.5t-199 -47q-110 0 -198 47zM539.5 221q45.5 49 45.5 128q0 52 -20.5 93t-57.5 64t-84 23t-84 -22.5t-57.5 -63.5t-20.5 -93
t20.5 -92.5t57.5 -63t84 -22.5q71 0 116.5 49zM424 816l37 70l160 -7l-108 -137h-178l-108 137l159 7z" />
    <glyph glyph-name="uni01D2" unicode="&#x1d2;" 
d="M183 24q-73 38 -114 105t-41 151q0 83 41.5 150t114.5 105t165 38t165 -37.5t114.5 -104.5t41.5 -150q0 -84 -41.5 -151t-115 -105.5t-165.5 -38.5t-165 38zM428 193.5q31 33.5 31 86.5t-31 86t-80 33q-48 0 -79 -32.5t-31 -84.5q0 -54 31.5 -88t79.5 -34t79 33.5z
M349 682l36 78l156 -8l-105 -152h-175l-106 152l157 8z" />
    <glyph glyph-name="uni01D3" unicode="&#x1d3;" horiz-adv-x="770" 
d="M205.5 24.5q-76.5 38.5 -117.5 110t-41 168.5v397h219v-389q0 -66 30.5 -101t87.5 -35q58 0 90 35t32 101v389h216v-397q0 -97 -41 -168.5t-117 -110t-180 -38.5q-102 0 -178.5 38.5zM387 816l37 70l160 -7l-108 -137h-178l-108 137l159 7z" />
    <glyph glyph-name="uni01D4" unicode="&#x1d4;" horiz-adv-x="690" 
d="M432 559h209v-559h-209v71q-31 -40 -76 -62.5t-98 -22.5q-101 0 -157.5 60.5t-56.5 170.5v342h208v-303q0 -44 20.5 -67.5t60.5 -23.5q43 0 71 33t28 83v278zM335 682l36 78l156 -8l-105 -152h-175l-106 152l157 8z" />
    <glyph glyph-name="uni01D5" unicode="&#x1d5;" horiz-adv-x="770" 
d="M205.5 24.5q-76.5 38.5 -117.5 110t-41 168.5v397h219v-389q0 -66 30.5 -101t87.5 -35q58 0 90 35t32 101v389h216v-397q0 -97 -41 -168.5t-117 -110t-180 -38.5q-102 0 -178.5 38.5zM376 749h-145v134h145v-134zM551 749h-145v134h145v-134zM569 940h-379v113h379v-113z
" />
    <glyph glyph-name="uni01D6" unicode="&#x1d6;" horiz-adv-x="690" 
d="M432 559h209v-559h-209v71q-31 -40 -76 -62.5t-98 -22.5q-101 0 -157.5 60.5t-56.5 170.5v342h208v-303q0 -44 20.5 -67.5t60.5 -23.5q43 0 71 33t28 83v278zM330 607h-132v139h132v-139zM508 607h-131v139h131v-139zM542 802h-379v113h379v-113z" />
    <glyph glyph-name="uni01D7" unicode="&#x1d7;" horiz-adv-x="770" 
d="M205.5 24.5q-76.5 38.5 -117.5 110t-41 168.5v397h219v-389q0 -66 30.5 -101t87.5 -35q58 0 90 35t32 101v389h216v-397q0 -97 -41 -168.5t-117 -110t-180 -38.5q-102 0 -178.5 38.5zM376 749h-145v134h145v-134zM551 749h-145v134h145v-134zM583 1034l-123 -111l-146 8
l91 139z" />
    <glyph glyph-name="uni01D8" unicode="&#x1d8;" horiz-adv-x="690" 
d="M432 559h209v-559h-209v71q-31 -40 -76 -62.5t-98 -22.5q-101 0 -157.5 60.5t-56.5 170.5v342h208v-303q0 -44 20.5 -67.5t60.5 -23.5q43 0 71 33t28 83v278zM330 607h-132v139h132v-139zM508 607h-131v139h131v-139zM549 924l-131 -137l-149 9l86 162z" />
    <glyph glyph-name="uni01D9" unicode="&#x1d9;" horiz-adv-x="770" 
d="M205.5 24.5q-76.5 38.5 -117.5 110t-41 168.5v397h219v-389q0 -66 30.5 -101t87.5 -35q58 0 90 35t32 101v389h216v-397q0 -97 -41 -168.5t-117 -110t-180 -38.5q-102 0 -178.5 38.5zM376 749h-145v134h145v-134zM551 749h-145v134h145v-134zM387 998l37 70l160 -7
l-108 -137h-178l-108 137l159 7z" />
    <glyph glyph-name="uni01DA" unicode="&#x1da;" horiz-adv-x="690" 
d="M432 559h209v-559h-209v71q-31 -40 -76 -62.5t-98 -22.5q-101 0 -157.5 60.5t-56.5 170.5v342h208v-303q0 -44 20.5 -67.5t60.5 -23.5q43 0 71 33t28 83v278zM330 607h-132v139h132v-139zM508 607h-131v139h131v-139zM346 869l36 78l156 -8l-105 -152h-175l-106 152
l157 8z" />
    <glyph glyph-name="uni01DB" unicode="&#x1db;" horiz-adv-x="770" 
d="M205.5 24.5q-76.5 38.5 -117.5 110t-41 168.5v397h219v-389q0 -66 30.5 -101t87.5 -35q58 0 90 35t32 101v389h216v-397q0 -97 -41 -168.5t-117 -110t-180 -38.5q-102 0 -178.5 38.5zM375 749h-145v134h145v-134zM550 749h-145v134h145v-134zM457 931l-146 -8l-123 111
l178 36z" />
    <glyph glyph-name="uni01DB" unicode="&#x1dc;" horiz-adv-x="770" 
d="M205.5 24.5q-76.5 38.5 -117.5 110t-41 168.5v397h219v-389q0 -66 30.5 -101t87.5 -35q58 0 90 35t32 101v389h216v-397q0 -97 -41 -168.5t-117 -110t-180 -38.5q-102 0 -178.5 38.5zM375 749h-145v134h145v-134zM550 749h-145v134h145v-134zM457 931l-146 -8l-123 111
l178 36z" />
    <glyph glyph-name="Gcaron" unicode="&#x1e6;" horiz-adv-x="774" 
d="M226.5 33q-88.5 47 -139 130t-50.5 186q0 104 49.5 187.5t137 130.5t197.5 47q83 0 158.5 -31.5t134.5 -94.5l-140 -127q-65 69 -147 69q-47 0 -85.5 -22t-61 -63.5t-22.5 -96.5q0 -83 49 -131.5t130 -48.5q58 0 97 22v182h195v-283q-61 -49 -140 -76t-163 -27
q-111 0 -199.5 47zM439 816l37 70l160 -7l-108 -137h-178l-108 137l159 7z" />
    <glyph glyph-name="gcaron" unicode="&#x1e7;" horiz-adv-x="650" 
d="M362 154q144 2 207.5 -37.5t63.5 -117.5q0 -87 -84.5 -135.5t-245.5 -48.5q-266 0 -266 142q0 56 64 96q-26 15 -39 38.5t-13 50.5q0 32 18.5 57.5t47.5 42.5q-67 52 -67 140q0 89 72.5 140t198.5 51q72 0 119 -19l152 41l35 -124l-68 -7q16 -16 25.5 -37.5t9.5 -44.5
q0 -90 -72.5 -142t-199.5 -52q-44 0 -80 6q-7 -8 -7 -21q0 -12 10 -16t31 -4zM268 424q-18 -15 -18 -41q0 -29 18 -45t51 -16q34 0 52 16t18 45q0 26 -18 41t-52 15q-33 0 -51 -15zM406 -33.5q26 9.5 26 33.5q0 17 -22 23t-71 6h-97q-15 -16 -15 -31q0 -25 23.5 -33t67.5 -8
q62 0 88 9.5zM316 692l36 78l156 -8l-105 -152h-175l-106 152l157 8z" />
    <glyph glyph-name="uni01EA" unicode="&#x1ea;" horiz-adv-x="846" 
d="M578 -25q0 -30 43 -30q18 0 37 4l10 -115q-60 -14 -114 -14q-78 0 -118 29.5t-40 76.5q0 31 19 60q-108 1 -194.5 48.5t-135 129.5t-48.5 185q0 104 49.5 187.5t138 130.5t198.5 47q111 0 199 -47t137.5 -129.5t49.5 -186.5q0 -101 -47 -182.5t-130 -129.5
q-54 -34 -54 -64zM281.5 257.5q20.5 -40.5 57.5 -63t84 -22.5q71 0 116.5 49t45.5 128q0 52 -20.5 93t-57.5 64t-84 23t-84 -22.5t-57.5 -63.5t-20.5 -93t20.5 -92.5z" />
    <glyph glyph-name="uni01EB" unicode="&#x1eb;" 
d="M478 -29q0 -30 43 -30q18 0 37 4l10 -115q-60 -14 -114 -14q-78 0 -118 29.5t-40 76.5q0 33 22 65q-84 6 -150 45.5t-103 104t-37 143.5q0 83 41.5 150t114.5 105t165 38t165 -37.5t114.5 -104.5t41.5 -150q0 -81 -38.5 -146.5t-106.5 -104.5q-47 -32 -47 -59zM269.5 194
q31.5 -34 79.5 -34t79 33.5t31 86.5t-31 86t-80 33q-48 0 -79 -32.5t-31 -84.5q0 -54 31.5 -88z" />
    <glyph glyph-name="Aringacute" unicode="&#x1fa;" horiz-adv-x="819" 
d="M425 1056l177 -36l-122 -111l-147 8zM590 0l-40 106h-284l-41 -106h-226l295 685q-23 31 -23 71q0 55 39 90t99 35q61 0 100 -35t39 -90q0 -41 -23 -72l294 -684h-229zM377 788q-13 -13 -13 -32t13 -31t32 -12q20 0 33 12t13 31t-13.5 32t-32.5 13t-32 -13zM409 477
l-86 -222h170z" />
    <glyph glyph-name="aringacute" unicode="&#x1fb;" horiz-adv-x="640" 
d="M520.5 505q72.5 -68 72.5 -189v-316h-208v64q-25 -35 -69 -56t-102 -21q-87 0 -141.5 49t-54.5 129q0 82 59 128t174 46q68 0 133 -5q-1 37 -29 57t-84 20q-36 0 -78 -12t-72 -30l-69 139q50 31 114 48t130 17q152 0 224.5 -68zM352 161.5q28 24.5 32 65.5v15
q-32 4 -80 4q-43 0 -64.5 -15t-21.5 -42q0 -24 18.5 -38t49.5 -14q38 0 66 24.5zM207 628.5q-39 35.5 -39 89.5t39 89.5t100 35.5q60 0 99 -35.5t39 -89.5t-39 -89.5t-99 -35.5q-61 0 -100 35.5zM339.5 686.5q13.5 12.5 13.5 31.5t-13.5 32t-32.5 13t-32.5 -13t-13.5 -32
t13 -31.5t33 -12.5q19 0 32.5 12.5zM510 1006l-131 -137l-149 9l86 162z" />
    <glyph glyph-name="AEacute" unicode="&#x1fc;" horiz-adv-x="1130" 
d="M707 277v-105h390v-172h-603v123h-207l-62 -123h-226l355 700h734v-172h-381v-94h331v-157h-331zM489 521l-126 -249h131v249h-5zM899 852l-123 -111l-146 8l91 139z" />
    <glyph glyph-name="aeacute" unicode="&#x1fd;" horiz-adv-x="998" 
d="M585 228q10 -41 43 -62t85 -21q70 0 116 51l118 -104q-98 -103 -244 -103q-79 0 -145 28t-109 78q-37 -49 -91 -78.5t-134 -29.5q-57 0 -105 22t-76 62t-28 93q0 82 60 127t172 45q68 0 133 -5v4q-1 38 -29 58.5t-84 20.5q-36 0 -79 -12t-70 -30l-71 137
q52 29 116.5 46.5t128.5 17.5q128 0 194 -69q40 32 93.5 49.5t114.5 17.5q83 0 148 -34.5t101.5 -94.5t36.5 -134q0 -37 -10 -80h-385zM620.5 393q-27.5 -24 -35.5 -66h199q-6 43 -30.5 66.5t-63.5 23.5q-42 0 -69.5 -24zM348.5 160q28.5 24 32.5 65v19q-48 2 -81 2
q-40 0 -62.5 -15.5t-22.5 -41.5q0 -24 17.5 -38.5t47.5 -14.5q40 0 68.5 24zM709 737l-131 -137l-149 9l86 162z" />
    <glyph glyph-name="oslashacute" unicode="&#x1ff;" 
d="M612 456q58 -75 58 -175q0 -84 -41.5 -151t-115 -105.5t-165.5 -38.5t-167 39l-44 -44l-87 85l37 37q-59 76 -59 177q0 83 41.5 150t114.5 105t165 38q94 0 168 -40l48 48l87 -85zM428 193.5q31 33.5 31 86.5t-31 86t-80 33q-48 0 -79 -32.5t-31 -84.5q0 -54 31.5 -88
t79.5 -34t79 33.5zM548 737l-131 -137l-149 9l86 162z" />
    <glyph glyph-name="uni0218" unicode="&#x218;" horiz-adv-x="662" 
d="M159.5 11.5q-85.5 25.5 -144.5 68.5l82 151q142 -81 251 -81q35 0 56.5 12.5t21.5 33.5q0 27 -25 39.5t-92 26.5q-134 28 -205.5 79.5t-71.5 150.5q0 71 39 121t106 75.5t152 25.5q177 0 292 -94l-97 -133q-42 30 -91.5 46.5t-98.5 16.5q-82 0 -82 -46q0 -22 26 -37
t89 -28q96 -20 155.5 -46t90.5 -68.5t31 -107.5q0 -71 -39 -123.5t-107.5 -80t-153.5 -27.5q-99 0 -184.5 25.5zM263 -194q28 9 40 23.5t12 35.5h-61v97h149q10 -34 10 -66q0 -104 -121 -146z" />
    <glyph glyph-name="uni0219" unicode="&#x219;" horiz-adv-x="557" 
d="M8 46l58 138q105 -47 216 -47q61 0 61 33q0 17 -20 26t-75 17q-121 17 -173 56.5t-52 114.5q0 89 70 138.5t183 49.5q61 0 129 -16t114 -40l-61 -135q-105 41 -192 41q-49 0 -49 -29q0 -13 17 -21t69 -17q123 -19 178 -60t55 -118q0 -89 -74 -139.5t-194 -50.5
q-140 0 -260 59zM206 -194q28 9 40 23.5t12 35.5h-61v97h149q10 -34 10 -66q0 -104 -121 -146z" />
    <glyph glyph-name="uni021A" unicode="&#x21a;" horiz-adv-x="674" 
d="M19 700h636v-181h-209v-519h-219v519h-208v181zM267 -194q28 9 40 23.5t12 35.5h-61v97h149q10 -34 10 -66q0 -104 -121 -146z" />
    <glyph glyph-name="uni021B" unicode="&#x21b;" horiz-adv-x="539" 
d="M515 28q-38 -20 -89 -31t-93 -11q-105 0 -161.5 53.5t-56.5 156.5v202h-94v161h99l12 137h191v-137h171v-161h-171v-178q0 -28 13.5 -42.5t39.5 -14.5q21 0 50 5t52 13zM262 -194q28 9 40 23.5t12 35.5h-61v97h149q10 -34 10 -66q0 -104 -121 -146z" />
    <glyph glyph-name="uni0232" unicode="&#x232;" horiz-adv-x="738" 
d="M508 700h236l-266 -448v-252h-218v256l-266 444h236l140 -267zM553 758h-379v113h379v-113z" />
    <glyph glyph-name="uni0233" unicode="&#x233;" horiz-adv-x="686" 
d="M455 559h223l-228 -559l-10 -24q-26 -60 -56 -94.5t-73 -50.5t-109 -16q-42 0 -87 11t-76 26l39 135q53 -16 89 -16q53 0 69 41l2 5l-226 542h221l111 -333h1zM543 615h-379v113h379v-113z" />
    <glyph glyph-name="uni0237" unicode="&#x237;" horiz-adv-x="314" 
d="M-43 -22q16 -8 41 -8q27 0 42.5 14.5t15.5 40.5v534h209v-535q0 -103 -66 -154.5t-165 -51.5q-56 0 -111 19z" />
    <glyph glyph-name="uni0259" unicode="&#x259;" horiz-adv-x="644" 
d="M461 532.5q73 -37.5 114 -104t41 -149.5q0 -84 -39 -150t-110 -103.5t-163 -37.5q-83 0 -148 34.5t-101.5 94.5t-36.5 134q0 37 10 80h385q-9 41 -42.5 62t-84.5 21q-71 0 -117 -51l-117 104q47 49 106 76t138 27q92 0 165 -37.5zM377.5 166q27.5 24 35.5 66h-199
q6 -43 30.5 -66.5t63.5 -23.5q42 0 69.5 24z" />
    <glyph glyph-name="uni0272" unicode="&#x272;" horiz-adv-x="690" 
d="M589.5 512.5q56.5 -60.5 56.5 -170.5v-342h-208v303q0 44 -20.5 67.5t-60.5 23.5q-43 0 -71 -33t-28 -83v-278q-1 -88 -54.5 -133t-153.5 -45q-82 0 -142 27l45 129q8 -4 21 -7t25 -3q23 0 36.5 14t13.5 42v535h209v-71q31 40 76 62.5t98 22.5q101 0 157.5 -60.5z" />
    <glyph glyph-name="uni02B0" unicode="&#x2b0;" horiz-adv-x="396" 
d="M337.5 725q32.5 -34 32.5 -97v-193h-119v172q0 49 -45 49q-24 0 -39 -18t-15 -47v-156h-120v417h120v-138q37 45 96 45q57 0 89.5 -34z" />
    <glyph glyph-name="circumflex" unicode="&#x2c6;" horiz-adv-x="461" 
d="M318 760l105 -152l-156 -8l-36 78l-37 -78l-157 8l106 152h175z" />
    <glyph glyph-name="caron" unicode="&#x2c7;" horiz-adv-x="461" 
d="M231 682l36 78l156 -8l-105 -152h-175l-106 152l157 8z" />
    <glyph glyph-name="breve" unicode="&#x2d8;" horiz-adv-x="446" 
d="M408 743q0 -70 -50 -111t-135 -41t-135.5 41t-50.5 111l141 3q0 -52 45 -52q44 0 44 52z" />
    <glyph glyph-name="dotaccent" unicode="&#x2d9;" horiz-adv-x="290" 
d="M252 607h-215v139h215v-139z" />
    <glyph glyph-name="ring" unicode="&#x2da;" horiz-adv-x="351" 
d="M76 627.5q-39 35.5 -39 89.5t39 89.5t100 35.5q60 0 99 -35.5t39 -89.5t-39 -89.5t-99 -35.5q-61 0 -100 35.5zM208.5 685.5q13.5 12.5 13.5 31.5t-13.5 32t-32.5 13t-32.5 -13t-13.5 -32t13 -31.5t33 -12.5q19 0 32.5 12.5z" />
    <glyph glyph-name="ogonek" unicode="&#x2db;" horiz-adv-x="339" 
d="M271 0q-55 -36 -55 -65q0 -30 43 -30q18 0 37 4l10 -115q-60 -14 -114 -14q-78 0 -118 29.5t-40 76.5q0 48 39.5 85t91.5 52z" />
    <glyph glyph-name="tilde" unicode="&#x2dc;" horiz-adv-x="445" 
d="M37 610q0 57 29.5 91t78.5 34q32 0 86 -15q34 -9 48 -9q17 0 27.5 10t10.5 26l91 -20q0 -58 -29 -91.5t-78 -33.5q-33 0 -87 15q-34 9 -48 9q-17 0 -27 -10t-10 -26z" />
    <glyph glyph-name="hungarumlaut" unicode="&#x2dd;" horiz-adv-x="548" 
d="M283 737l-104 -137l-142 9l57 162zM511 737l-104 -137l-142 9l57 162z" />
    <glyph glyph-name="uni02E1" unicode="&#x2e1;" horiz-adv-x="183" 
d="M152 435h-120v417h120v-417z" />
    <glyph glyph-name="uni02E2" unicode="&#x2e2;" horiz-adv-x="320" 
d="M6 462l34 82q60 -26 121 -26q32 0 32 13q0 7 -9.5 11t-42.5 10q-70 11 -98.5 34t-28.5 65q0 52 37 79.5t104 27.5q36 0 75 -8.5t65 -22.5l-36 -83q-57 24 -108 24q-25 0 -25 -12q0 -6 9.5 -10.5t37.5 -10.5q72 -13 102 -35t30 -64q0 -51 -42 -79.5t-110 -28.5
q-81 0 -147 34z" />
    <glyph glyph-name="gravecomb" unicode="&#x300;" horiz-adv-x="0" 
d="M-37 609l-149 -9l-131 137l194 34z" />
    <glyph glyph-name="acutecomb" unicode="&#x301;" horiz-adv-x="0" 
d="M-37 737l-131 -137l-149 9l86 162z" />
    <glyph glyph-name="uni0302" unicode="&#x302;" horiz-adv-x="0" 
d="M-143 760l105 -152l-156 -8l-36 78l-37 -78l-157 8l106 152h175z" />
    <glyph glyph-name="tildecomb" unicode="&#x303;" horiz-adv-x="0" 
d="M-408 610q0 57 29.5 91t78.5 34q32 0 86 -15q34 -9 48 -9q17 0 27.5 10t10.5 26l91 -20q0 -58 -29 -91.5t-78 -33.5q-33 0 -87 15q-34 9 -48 9q-17 0 -27 -10t-10 -26z" />
    <glyph glyph-name="uni0304" unicode="&#x304;" horiz-adv-x="0" 
d="M-38 615h-379v113h379v-113z" />
    <glyph glyph-name="uni0306" unicode="&#x306;" horiz-adv-x="0" 
d="M-38 743q0 -70 -50 -111t-135 -41t-135.5 41t-50.5 111l141 3q0 -52 45 -52q44 0 44 52z" />
    <glyph glyph-name="uni0307" unicode="&#x307;" horiz-adv-x="0" 
d="M-38 607h-215v139h215v-139z" />
    <glyph glyph-name="uni0308" unicode="&#x308;" horiz-adv-x="0" 
d="M-216 607h-132v139h132v-139zM-38 607h-131v139h131v-139z" />
    <glyph glyph-name="hookabovecomb" unicode="&#x309;" horiz-adv-x="0" 
d="M-190 617q31 38 31 68q0 11 -8.5 19t-22.5 8t-33 -10l-10 84q57 29 100 29q44 0 70 -24t26 -56q0 -40 -23.5 -79t-52.5 -62z" />
    <glyph glyph-name="uni030A" unicode="&#x30a;" horiz-adv-x="0" 
d="M-275 627.5q-39 35.5 -39 89.5t39 89.5t100 35.5q60 0 99 -35.5t39 -89.5t-39 -89.5t-99 -35.5q-61 0 -100 35.5zM-142.5 685.5q13.5 12.5 13.5 31.5t-13.5 32t-32.5 13t-32.5 -13t-13.5 -32t13 -31.5t33 -12.5q19 0 32.5 12.5z" />
    <glyph glyph-name="uni030B" unicode="&#x30b;" horiz-adv-x="0" 
d="M-265 737l-104 -137l-142 9l57 162zM-37 737l-104 -137l-142 9l57 162z" />
    <glyph glyph-name="uni030C" unicode="&#x30c;" horiz-adv-x="0" 
d="M-230 682l36 78l156 -8l-105 -152h-175l-106 152l157 8z" />
    <glyph glyph-name="uni0312" unicode="&#x312;" horiz-adv-x="0" 
d="M-46 753q-28 -9 -40 -23.5t-12 -35.5h61v-97h-149q-10 34 -10 66q0 105 122 146z" />
    <glyph glyph-name="uni031B" unicode="&#x31b;" horiz-adv-x="0" 
d="M-277 633q33 3 48 13.5t15 33.5q0 14 -6 35l180 10q15 -43 15 -80q0 -61 -37 -96.5t-96 -35.5q-69 0 -145 49z" />
    <glyph glyph-name="dotbelowcomb" unicode="&#x323;" horiz-adv-x="0" 
d="M-253 -179v139h215v-139h-215z" />
    <glyph glyph-name="uni0324" unicode="&#x324;" horiz-adv-x="0" 
 />
    <glyph glyph-name="uni0326" unicode="&#x326;" horiz-adv-x="0" 
d="M-188 -194q28 9 40 23.5t12 35.5h-61v97h149q10 -34 10 -66q0 -104 -121 -146z" />
    <glyph glyph-name="uni0327" unicode="&#x327;" horiz-adv-x="0" 
d="M-118 -28q36 -4 58.5 -23.5t22.5 -48.5q0 -40 -38.5 -61t-103.5 -21q-40 0 -75 5l16 74q16 -3 36 -3q15 0 22 3t7 12q0 18 -28 18q-9 0 -24 -3l23 84h94z" />
    <glyph glyph-name="uni0328" unicode="&#x328;" horiz-adv-x="0" 
d="M-68 0q-55 -36 -55 -65q0 -30 43 -30q18 0 37 4l10 -115q-60 -14 -114 -14q-78 0 -118 29.5t-40 76.5q0 48 39.5 85t91.5 52z" />
    <glyph glyph-name="uni032E" unicode="&#x32e;" horiz-adv-x="0" 
d="M-34 -36q0 -52 -40 -83t-108 -31t-108 31t-40 83l112 3q0 -40 36 -40q35 0 35 40z" />
    <glyph glyph-name="uni0331" unicode="&#x331;" horiz-adv-x="0" 
d="M-34 -147h-379v113h379v-113z" />
    <glyph glyph-name="uni0335" unicode="&#x335;" horiz-adv-x="0" 
d="M-420 290v79h387v-79h-387z" />
    <glyph glyph-name="uni0336" unicode="&#x336;" horiz-adv-x="0" 
 />
    <glyph glyph-name="uni0337" unicode="&#x337;" horiz-adv-x="0" 
d="M-367 255l-34 70l341 164l34 -70z" />
    <glyph glyph-name="uni0338" unicode="&#x338;" horiz-adv-x="0" 
d="M-17 496l-123 -123l-85 87l121 121zM-619 66l142 143l86 -87l-141 -141z" />
    <glyph glyph-name="tonos" unicode="&#x384;" horiz-adv-x="296" 
d="M251 771l-64 -162h-113l11 162h166z" />
    <glyph glyph-name="dieresistonos" unicode="&#x385;" horiz-adv-x="534" 
d="M334 800l-56 -162h-81l10 162h127zM175 608h-107v117h107v-117zM436 608h-107v117h107v-117z" />
    <glyph glyph-name="Alphatonos" unicode="&#x386;" horiz-adv-x="819" 
d="M819 0h-229l-40 106h-284l-41 -106h-226l301 700h218zM409 477l-86 -222h170zM217 700l-64 -162h-113l11 162h166z" />
    <glyph glyph-name="Epsilontonos" unicode="&#x388;" horiz-adv-x="695" 
d="M272 277v-105h390v-172h-603v700h594v-172h-381v-94h332v-157h-332zM20 700l-64 -162h-113l11 162h166z" />
    <glyph glyph-name="Etatonos" unicode="&#x389;" horiz-adv-x="797" 
d="M519 439v261h219v-700h-219v258h-241v-258h-219v700h219v-261h241zM20 700l-64 -162h-113l11 162h166z" />
    <glyph glyph-name="Iotatonos" unicode="&#x38a;" horiz-adv-x="336" 
d="M277 0h-218v700h218v-700zM20 700l-64 -162h-113l11 162h166z" />
    <glyph glyph-name="Omicrontonos" unicode="&#x38c;" horiz-adv-x="846" 
d="M224 33q-88 47 -137.5 129.5t-49.5 186.5t49.5 187.5t138 130.5t198.5 47q111 0 199 -47t137.5 -129.5t49.5 -186.5t-50 -187.5t-138 -130.5t-199 -47q-110 0 -198 47zM539.5 221q45.5 49 45.5 128q0 52 -20.5 93t-57.5 64t-84 23t-84 -22.5t-57.5 -63.5t-20.5 -93
t20.5 -92.5t57.5 -63t84 -22.5q71 0 116.5 49zM20 700l-64 -162h-113l11 162h166z" />
    <glyph glyph-name="Upsilontonos" unicode="&#x38e;" horiz-adv-x="738" 
d="M508 700h236l-266 -448v-252h-218v256l-266 444h236l140 -267zM-52 700l-64 -162h-113l11 162h166z" />
    <glyph glyph-name="Omegatonos" unicode="&#x38f;" horiz-adv-x="776" 
d="M705 280.5q-34 -63.5 -93 -126.5l110 9v-163h-301v138q6 36 18.5 63t34.5 65q23 39 34.5 67t11.5 64q0 59 -37 96t-95 37t-95 -37t-37 -96q0 -36 11.5 -64t34.5 -67q22 -38 34.5 -65t18.5 -63v-138h-301v163l113 -9q-62 65 -96 126t-34 141q0 69 36 136t115.5 111
t200.5 44t199.5 -44t114.5 -111t36 -136q0 -77 -34 -140.5zM36 700l-64 -162h-113l11 162h166z" />
    <glyph glyph-name="iotadieresistonos" unicode="&#x390;" horiz-adv-x="357" 
d="M272 -14q-111 0 -170 47.5t-59 169.5v356h209v-316q0 -51 12.5 -72.5t41.5 -21.5h39v-163h-73zM220 800l-56 -162h-81l10 162h127zM61 608h-107v117h107v-117zM322 608h-107v117h107v-117z" />
    <glyph glyph-name="Alpha" unicode="&#x391;" horiz-adv-x="819" 
d="M819 0h-229l-40 106h-284l-41 -106h-226l301 700h218zM409 477l-86 -222h170z" />
    <glyph glyph-name="Beta" unicode="&#x392;" horiz-adv-x="749" 
d="M687 300q36 -44 36 -107q0 -91 -73 -142t-203 -51h-388v700h380q121 0 189 -46.5t68 -130.5q0 -55 -28.5 -96t-80.5 -62q64 -21 100 -65zM277 535v-114h121q83 0 83 58q0 56 -82 56h-122zM419 165q87 0 87 58q0 62 -88 62h-141v-120h142z" />
    <glyph glyph-name="Gamma" unicode="&#x393;" horiz-adv-x="625" 
d="M59 0v700h551v-180h-335v-520h-216z" />
    <glyph glyph-name="uni0394" unicode="&#x394;" horiz-adv-x="799" 
d="M290 700h219l290 -700h-800zM396 469l-117 -321h238l-114 321h-7z" />
    <glyph glyph-name="Epsilon" unicode="&#x395;" horiz-adv-x="695" 
d="M272 277v-105h390v-172h-603v700h594v-172h-381v-94h332v-157h-332z" />
    <glyph glyph-name="Zeta" unicode="&#x396;" horiz-adv-x="699" 
d="M671 0h-641v135l336 384h-325v181h622v-135l-335 -384h343v-181z" />
    <glyph glyph-name="Eta" unicode="&#x397;" horiz-adv-x="797" 
d="M519 439v261h219v-700h-219v258h-241v-258h-219v700h219v-261h241z" />
    <glyph glyph-name="Theta" unicode="&#x398;" horiz-adv-x="846" 
d="M224 33q-88 47 -137.5 129.5t-49.5 186.5t49.5 187.5t138 130.5t198.5 47q111 0 199 -47t137.5 -129.5t49.5 -186.5t-50 -187.5t-138 -130.5t-199 -47q-110 0 -198 47zM539.5 221q45.5 49 45.5 128q0 52 -20.5 93t-57.5 64t-84 23t-84 -22.5t-57.5 -63.5t-20.5 -93
t20.5 -92.5t57.5 -63t84 -22.5q71 0 116.5 49zM296 313v79h265v-79h-265z" />
    <glyph glyph-name="Iota" unicode="&#x399;" horiz-adv-x="336" 
d="M277 0h-218v700h218v-700z" />
    <glyph glyph-name="Kappa" unicode="&#x39a;" horiz-adv-x="784" 
d="M779 0h-240l-167 249l-95 -108v-141h-218v700h218v-302l234 302h255l-258 -295z" />
    <glyph glyph-name="Lambda" unicode="&#x39b;" horiz-adv-x="796" 
d="M-1 0l290 700h217l291 -700h-230l-168 453h-2l-168 -453h-230z" />
    <glyph glyph-name="Mu" unicode="&#x39c;" horiz-adv-x="920" 
d="M461 381l198 319h202v-700h-208v357l-159 -260h-66l-161 261v-358h-208v700h203z" />
    <glyph glyph-name="Nu" unicode="&#x39d;" horiz-adv-x="809" 
d="M277 0h-218v700h183l289 -352v352h219v-700h-177l-296 361v-361z" />
    <glyph glyph-name="Xi" unicode="&#x39e;" horiz-adv-x="547" 
d="M514 522h-496v178h496v-178zM468 278h-408v146h408v-146zM514 0h-496v178h496v-178z" />
    <glyph glyph-name="Omicron" unicode="&#x39f;" horiz-adv-x="846" 
d="M224 33q-88 47 -137.5 129.5t-49.5 186.5t49.5 187.5t138 130.5t198.5 47q111 0 199 -47t137.5 -129.5t49.5 -186.5t-50 -187.5t-138 -130.5t-199 -47q-110 0 -198 47zM539.5 221q45.5 49 45.5 128q0 52 -20.5 93t-57.5 64t-84 23t-84 -22.5t-57.5 -63.5t-20.5 -93
t20.5 -92.5t57.5 -63t84 -22.5q71 0 116.5 49z" />
    <glyph glyph-name="Pi" unicode="&#x3a0;" horiz-adv-x="783" 
d="M724 700v-700h-219v522h-229v-522h-217v700h665z" />
    <glyph glyph-name="Rho" unicode="&#x3a1;" horiz-adv-x="711" 
d="M541 668.5q73 -31.5 112 -91t39 -139.5q0 -82 -39.5 -142t-112.5 -92.5t-172 -32.5h-91v-171h-218v700h310q99 0 172 -31.5zM363 345q52 0 81.5 24t29.5 68q0 43 -29.5 66t-81.5 23h-86v-181h86z" />
    <glyph glyph-name="Sigma" unicode="&#x3a3;" horiz-adv-x="636" 
d="M603 0h-568v146l206 205l-208 203v146h562v-178h-299l160 -171l-160 -173h307v-178z" />
    <glyph glyph-name="Tau" unicode="&#x3a4;" horiz-adv-x="674" 
d="M19 700h636v-181h-209v-519h-219v519h-208v181z" />
    <glyph glyph-name="Upsilon" unicode="&#x3a5;" horiz-adv-x="738" 
d="M508 700h236l-266 -448v-252h-218v256l-266 444h236l140 -267z" />
    <glyph glyph-name="Phi" unicode="&#x3a6;" horiz-adv-x="995" 
d="M914.5 209q-43.5 -64 -124 -102t-187.5 -41v-82h-211v82q-107 3 -187.5 41t-124 101t-43.5 141q0 79 43.5 142.5t124 101.5t187.5 41v82h211v-82q107 -3 187.5 -41t124 -101t43.5 -141t-43.5 -142zM298 269q33 -33 94 -39v240q-61 -6 -94 -39t-33 -81t33 -81zM603 231
q61 5 94 37.5t33 80.5t-32.5 81t-94.5 39v-238z" />
    <glyph glyph-name="Chi" unicode="&#x3a7;" horiz-adv-x="790" 
d="M529 361l256 -361h-253l-136 198l-137 -198h-254l257 362l-240 338h254l120 -179l119 179h254z" />
    <glyph glyph-name="Psi" unicode="&#x3a8;" horiz-adv-x="930" 
d="M665 700h218v-195q0 -140 -79 -219.5t-234 -86.5v-199h-210v199q-155 7 -234 87t-79 220v194h219v-236q0 -55 26.5 -81.5t67.5 -28.5v346h210v-346q42 2 68.5 28.5t26.5 80.5v237z" />
    <glyph glyph-name="uni03A9" unicode="&#x3a9;" horiz-adv-x="776" 
d="M705 280.5q-34 -63.5 -93 -126.5l110 9v-163h-301v138q6 36 18.5 63t34.5 65q23 39 34.5 67t11.5 64q0 59 -37 96t-95 37t-95 -37t-37 -96q0 -36 11.5 -64t34.5 -67q22 -38 34.5 -65t18.5 -63v-138h-301v163l113 -9q-62 65 -96 126t-34 141q0 69 36 136t115.5 111
t200.5 44t199.5 -44t114.5 -111t36 -136q0 -77 -34 -140.5z" />
    <glyph glyph-name="Iotadieresis" unicode="&#x3aa;" horiz-adv-x="336" 
d="M277 0h-218v700h218v-700zM144 748h-132v139h132v-139zM322 748h-131v139h131v-139z" />
    <glyph glyph-name="Upsilondieresis" unicode="&#x3ab;" horiz-adv-x="738" 
d="M508 700h236l-266 -448v-252h-218v256l-266 444h236l140 -267zM343 748h-132v139h132v-139zM521 748h-131v139h131v-139z" />
    <glyph glyph-name="alphatonos" unicode="&#x3ac;" horiz-adv-x="718" 
d="M669 559l-22 -280l22 -279h-209l-1 78q-67 -92 -174 -92q-74 0 -132.5 38t-91.5 104.5t-33 148.5q0 86 33 153t91.5 104.5t131.5 37.5q108 0 175 -91l1 78h209zM424 190q31 35 31 89q0 55 -31 89.5t-80 34.5t-78.5 -34.5t-29.5 -90.5q0 -54 30 -88.5t78 -34.5q49 0 80 35
zM447 771l-64 -162h-113l11 162h166z" />
    <glyph glyph-name="epsilontonos" unicode="&#x3ad;" horiz-adv-x="555" 
d="M155 7q-59 22 -93 62t-34 92q0 78 68 119q-65 41 -65 118q0 52 33.5 91.5t92 61t130.5 21.5q80 0 139 -18t109 -49l-62 -120q-81 42 -159 42q-37 0 -58.5 -12.5t-21.5 -34.5q0 -19 19 -31t60 -12h101v-114h-101q-43 0 -63 -12.5t-20 -32.5q0 -19 23 -31t62 -12
q35 0 85 13t84 32l62 -123q-100 -72 -262 -72q-70 0 -129 22zM363 771l-64 -162h-113l11 162h166z" />
    <glyph glyph-name="etatonos" unicode="&#x3ae;" horiz-adv-x="690" 
d="M589.5 512.5q56.5 -60.5 56.5 -170.5v-513h-209v279h1v195q0 44 -20.5 67.5t-60.5 23.5q-43 0 -71 -33t-28 -83v-278h-209v559h209v-71q31 40 76 62.5t98 22.5q101 0 157.5 -60.5zM432 771l-64 -162h-113l11 162h166z" />
    <glyph glyph-name="iotatonos" unicode="&#x3af;" horiz-adv-x="357" 
d="M272 -14q-111 0 -170 47.5t-59 169.5v356h209v-316q0 -51 12.5 -72.5t41.5 -21.5h39v-163h-73zM225 771l-64 -162h-113l11 162h166z" />
    <glyph glyph-name="upsilondieresistonos" unicode="&#x3b0;" horiz-adv-x="646" 
d="M32 559h209v-300q0 -58 15.5 -84t54.5 -26q42 0 56.5 25.5t14.5 84.5v300h209v-341q0 -78 -38.5 -130.5t-102 -77t-139.5 -24.5q-69 0 -132.5 25t-105 77.5t-41.5 129.5v341zM406 800l-56 -162h-81l10 162h127zM247 608h-107v117h107v-117zM508 608h-107v117h107v-117z
" />
    <glyph glyph-name="alpha" unicode="&#x3b1;" horiz-adv-x="718" 
d="M669 559l-22 -280l22 -279h-209l-1 78q-67 -92 -174 -92q-74 0 -132.5 38t-91.5 104.5t-33 148.5q0 86 33 153t91.5 104.5t131.5 37.5q108 0 175 -91l1 78h209zM424 190q31 35 31 89q0 55 -31 89.5t-80 34.5t-78.5 -34.5t-29.5 -90.5q0 -54 30 -88.5t78 -34.5q49 0 80 35
z" />
    <glyph glyph-name="beta" unicode="&#x3b2;" horiz-adv-x="695" 
d="M55 498q0 109 60 177t219 68q72 0 134.5 -23t101.5 -72t39 -123q0 -93 -62 -152q47 -13 83.5 -55t36.5 -104q0 -109 -72.5 -168.5t-193.5 -59.5q-82 0 -137 20v-177h-209v669zM264 175q23 -9 48.5 -14.5t43.5 -5.5q43 0 71.5 17t28.5 52q0 32 -22 53t-59 21h-75v140h32
q26 1 43 13.5t22 36.5q1 4 1 12q0 27 -17.5 46.5t-48.5 19.5q-68 0 -68 -68v-323z" />
    <glyph glyph-name="gamma" unicode="&#x3b3;" horiz-adv-x="681" 
d="M452 559h221l-227 -552v-178h-209v171l-229 559h220l111 -331h2z" />
    <glyph glyph-name="delta" unicode="&#x3b4;" horiz-adv-x="656" 
d="M397 590q101 -78 166 -167.5t65 -172.5q0 -78 -38.5 -138t-107 -93t-156.5 -33q-87 0 -155 33t-105.5 93t-37.5 138q0 85 62.5 147.5t150.5 94.5q-65 50 -134 90v158h486v-150h-196zM392.5 181q25.5 26 25.5 69q0 66 -74 147q-56 -29 -82 -64.5t-26 -82.5q0 -43 25 -69
t65 -26q41 0 66.5 26z" />
    <glyph glyph-name="epsilon" unicode="&#x3b5;" horiz-adv-x="555" 
d="M155 7q-59 22 -93 62t-34 92q0 78 68 119q-65 41 -65 118q0 52 33.5 91.5t92 61t130.5 21.5q80 0 139 -18t109 -49l-62 -120q-81 42 -159 42q-37 0 -58.5 -12.5t-21.5 -34.5q0 -19 19 -31t60 -12h101v-114h-101q-43 0 -63 -12.5t-20 -32.5q0 -19 23 -31t62 -12
q35 0 85 13t84 32l62 -123q-100 -72 -262 -72q-70 0 -129 22z" />
    <glyph glyph-name="zeta" unicode="&#x3b6;" horiz-adv-x="570" 
d="M405 143q47 -21 76.5 -39.5t49.5 -48.5t20 -74q0 -33 -13 -73.5t-33 -78.5h-174q25 45 35 65.5t10 37.5q0 21 -18.5 36t-59.5 31l-81 29q-63 24 -101 49.5t-59 66t-21 101.5q0 104 75 190t189 140h-237v163h450l-1 -161l1 -2q-124 -70 -195 -146.5t-71 -168.5
q0 -23 13 -39.5t29 -25t47 -22.5z" />
    <glyph glyph-name="eta" unicode="&#x3b7;" horiz-adv-x="690" 
d="M589.5 512.5q56.5 -60.5 56.5 -170.5v-513h-209v279h1v195q0 44 -20.5 67.5t-60.5 23.5q-43 0 -71 -33t-28 -83v-278h-209v559h209v-71q31 40 76 62.5t98 22.5q101 0 157.5 -60.5z" />
    <glyph glyph-name="theta" unicode="&#x3b8;" horiz-adv-x="669" 
d="M497 698q69 -47 106.5 -133t37.5 -200t-37.5 -200t-107 -133.5t-163.5 -47.5q-93 0 -162 47t-106 133.5t-37 200.5t37 200t106.5 133t163.5 47q93 0 162 -47zM264.5 531q-27.5 -37 -36.5 -101h213q-9 64 -37.5 101t-69.5 37q-42 0 -69.5 -37zM404 199q28 37 37 101h-213
q9 -64 37.5 -101t69.5 -37t69 37z" />
    <glyph glyph-name="iota" unicode="&#x3b9;" horiz-adv-x="357" 
d="M272 -14q-111 0 -170 47.5t-59 169.5v356h209v-316q0 -51 12.5 -72.5t41.5 -21.5h39v-163h-73z" />
    <glyph glyph-name="kappa" unicode="&#x3ba;" horiz-adv-x="669" 
d="M664 0h-227l-115 187h-64v-187h-209v560h209v-190h64l98 190h224l-180 -262z" />
    <glyph glyph-name="lambda" unicode="&#x3bb;" horiz-adv-x="608" 
d="M8 0l204 493l-11 24q-15 46 -47.5 65.5t-71.5 19.5v136q35 3 62 3q66 0 105.5 -18t62 -50t45.5 -87l243 -586h-222l-76 200l-74 -200h-220z" />
    <glyph glyph-name="uni03BC" unicode="&#x3bc;" horiz-adv-x="690" 
d="M432 559h209v-559h-209v71q-31 -40 -76 -62.5t-98 -22.5h-8l4 -157h-209v360q-1 9 -1 28v342h208v-303q0 -44 20.5 -67.5t60.5 -23.5q43 0 71 33t28 83v278z" />
    <glyph glyph-name="nu" unicode="&#x3bd;" horiz-adv-x="682" 
d="M447 0h-211l-228 559h222l111 -333l111 333h222z" />
    <glyph glyph-name="xi" unicode="&#x3be;" horiz-adv-x="559" 
d="M336 -171q22 31 33 52.5t11 41.5q0 14 -6.5 23t-23.5 17t-53 20l-91 30q-84 27 -131 71.5t-47 126.5q0 63 36.5 109.5t112.5 59.5q-70 21 -101.5 66.5t-31.5 97.5q0 63 35.5 110t96.5 72t137 25q81 0 138.5 -17.5t105.5 -48.5l-62 -112q-75 39 -155 39q-48 0 -72 -25
t-24 -56q0 -38 28.5 -60t86.5 -22h87v-144h-108q-45 0 -70 -19t-25 -48q0 -30 14.5 -47.5t51.5 -30.5l101 -35q68 -23 107 -58t39 -100q0 -42 -11 -71.5t-35 -66.5h-174z" />
    <glyph glyph-name="omicron" unicode="&#x3bf;" 
d="M183 24q-73 38 -114 105t-41 151q0 83 41.5 150t114.5 105t165 38t165 -37.5t114.5 -104.5t41.5 -150q0 -84 -41.5 -151t-115 -105.5t-165.5 -38.5t-165 38zM428 193.5q31 33.5 31 86.5t-31 86t-80 33q-48 0 -79 -32.5t-31 -84.5q0 -54 31.5 -88t79.5 -34t79 33.5z" />
    <glyph glyph-name="pi" unicode="&#x3c0;" horiz-adv-x="687" 
d="M638 559v-560h-209v398h-171v-398h-209v560h589z" />
    <glyph glyph-name="rho" unicode="&#x3c1;" horiz-adv-x="719" 
d="M49 280q0 83 41.5 150t115 105t165.5 38q91 0 164 -37.5t114.5 -104.5t41.5 -150q0 -84 -41.5 -151t-114.5 -105.5t-165 -38.5q-39 0 -76 16.5t-56 41.5l20 -215h-209v451zM291.5 192q31.5 -35 79.5 -35q47 0 78.5 35t31.5 88q0 54 -31.5 88.5t-79.5 34.5t-79 -34
t-31 -87q0 -55 31.5 -90z" />
    <glyph glyph-name="uni03C2" unicode="&#x3c2;" horiz-adv-x="595" 
d="M332 -171q24 41 34.5 63.5t10.5 39.5q0 22 -18 36.5t-59 30.5l-76 28q-91 34 -143.5 94t-52.5 165q0 82 40.5 147.5t112.5 102.5t163 37q71 0 132.5 -26.5t104.5 -81.5l-128 -116q-41 56 -104 56q-48 0 -79 -27.5t-31 -79.5q1 -38 16.5 -62.5t36 -37t51.5 -26.5l63 -29
q47 -21 76.5 -39.5t50 -48.5t20.5 -74q0 -32 -13 -72.5t-33 -79.5h-175z" />
    <glyph glyph-name="sigma" unicode="&#x3c3;" horiz-adv-x="700" 
d="M722 370l-68 7q16 -46 16 -96q0 -84 -41.5 -151t-115 -105.5t-165.5 -38.5t-165 38t-114 105t-41 151q0 83 41 149.5t113 104.5t163 39l377 1v-204zM428 193.5q31 33.5 31 86.5t-31 86t-80 33q-48 0 -79 -32.5t-31 -84.5q0 -54 31.5 -88t79.5 -34t79 33.5z" />
    <glyph glyph-name="tau" unicode="&#x3c4;" horiz-adv-x="500" 
d="M476 397h-136v-154q0 -51 12.5 -72.5t41.5 -21.5h39v-163h-73q-111 0 -170 47.5t-59 169.5v194h-110v162h455v-162z" />
    <glyph glyph-name="upsilon" unicode="&#x3c5;" horiz-adv-x="646" 
d="M32 559h209v-300q0 -58 15.5 -84t54.5 -26q42 0 56.5 25.5t14.5 84.5v300h209v-341q0 -78 -38.5 -130.5t-102 -77t-139.5 -24.5q-69 0 -132.5 25t-105 77.5t-41.5 129.5v341z" />
    <glyph glyph-name="phi" unicode="&#x3c6;" horiz-adv-x="908" 
d="M839.5 137.5q-40.5 -62.5 -113.5 -98.5t-168 -39v-171h-208v171q-95 3 -168.5 39t-113.5 98t-40 142t40 142.5t113 98.5t169 39v141h208v-141q96 -3 169 -39t113 -98t40 -142t-40.5 -142.5zM266.5 193.5q28.5 -29.5 83.5 -30.5v234q-112 -3 -112 -117q0 -57 28.5 -86.5z
M558 163q111 3 111 116q0 115 -111 118v-234z" />
    <glyph glyph-name="chi" unicode="&#x3c7;" horiz-adv-x="688" 
d="M467 207l220 -378h-232l-111 195l-111 -195h-232l220 377l-207 353h240l90 -176l89 176h241z" />
    <glyph glyph-name="psi" unicode="&#x3c8;" horiz-adv-x="880" 
d="M630 559h201v-265q0 -150 -84 -217.5t-213 -70.5v-177h-193v177q-77 2 -144 30.5t-110.5 92t-43.5 165.5v265h201v-272q0 -49 28 -77.5t69 -32.5v382h193v-382q43 4 69.5 32t26.5 78v272z" />
    <glyph glyph-name="omega" unicode="&#x3c9;" horiz-adv-x="933" 
d="M47 410.5q19 69.5 72 148.5h210q-52 -69 -72.5 -134.5t-20.5 -131.5q0 -136 68 -136q39 0 56.5 25.5t17.5 76.5v139h177v-139q0 -53 17 -77.5t56 -24.5q36 0 52 35.5t16 100.5q0 66 -20 131.5t-72 134.5h209q53 -80 72.5 -149t19.5 -150q0 -86 -34.5 -148.5t-90 -94
t-118.5 -31.5q-87 0 -135.5 35t-60.5 98q-12 -62 -60.5 -97.5t-134.5 -35.5q-63 0 -118.5 31.5t-90 94t-34.5 148.5q0 81 19 150.5z" />
    <glyph glyph-name="iotadieresis" unicode="&#x3ca;" horiz-adv-x="357" 
d="M272 -14q-111 0 -170 47.5t-59 169.5v356h209v-316q0 -51 12.5 -72.5t41.5 -21.5h39v-163h-73zM114 607h-132v139h132v-139zM292 607h-131v139h131v-139z" />
    <glyph glyph-name="upsilondieresis" unicode="&#x3cb;" horiz-adv-x="646" 
d="M32 559h209v-300q0 -58 15.5 -84t54.5 -26q42 0 56.5 25.5t14.5 84.5v300h209v-341q0 -78 -38.5 -130.5t-102 -77t-139.5 -24.5q-69 0 -132.5 25t-105 77.5t-41.5 129.5v341zM300 607h-132v139h132v-139zM478 607h-131v139h131v-139z" />
    <glyph glyph-name="omicrontonos" unicode="&#x3cc;" 
d="M183 24q-73 38 -114 105t-41 151q0 83 41.5 150t114.5 105t165 38t165 -37.5t114.5 -104.5t41.5 -150q0 -84 -41.5 -151t-115 -105.5t-165.5 -38.5t-165 38zM428 193.5q31 33.5 31 86.5t-31 86t-80 33q-48 0 -79 -32.5t-31 -84.5q0 -54 31.5 -88t79.5 -34t79 33.5z
M433 771l-64 -162h-113l11 162h166z" />
    <glyph glyph-name="upsilontonos" unicode="&#x3cd;" horiz-adv-x="646" 
d="M32 559h209v-300q0 -58 15.5 -84t54.5 -26q42 0 56.5 25.5t14.5 84.5v300h209v-341q0 -78 -38.5 -130.5t-102 -77t-139.5 -24.5q-69 0 -132.5 25t-105 77.5t-41.5 129.5v341zM410 771l-64 -162h-113l11 162h166z" />
    <glyph glyph-name="omegatonos" unicode="&#x3ce;" horiz-adv-x="933" 
d="M47 410.5q19 69.5 72 148.5h210q-52 -69 -72.5 -134.5t-20.5 -131.5q0 -136 68 -136q39 0 56.5 25.5t17.5 76.5v139h177v-139q0 -53 17 -77.5t56 -24.5q36 0 52 35.5t16 100.5q0 66 -20 131.5t-72 134.5h209q53 -80 72.5 -149t19.5 -150q0 -86 -34.5 -148.5t-90 -94
t-118.5 -31.5q-87 0 -135.5 35t-60.5 98q-12 -62 -60.5 -97.5t-134.5 -35.5q-63 0 -118.5 31.5t-90 94t-34.5 148.5q0 81 19 150.5zM553 771l-64 -162h-113l11 162h166z" />
    <glyph glyph-name="uni0400" unicode="&#x400;" horiz-adv-x="695" 
d="M272 277v-105h390v-172h-603v700h594v-172h-381v-94h332v-157h-332zM425 750l-149 -9l-131 137l194 34z" />
    <glyph glyph-name="uni0401" unicode="&#x401;" horiz-adv-x="695" 
d="M272 277v-105h390v-172h-603v700h594v-172h-381v-94h332v-157h-332zM324 748h-132v139h132v-139zM502 748h-131v139h131v-139z" />
    <glyph glyph-name="uni0402" unicode="&#x402;" horiz-adv-x="840" 
d="M688.5 407.5q53.5 -27.5 84 -79.5t30.5 -123v-12q0 -102 -57.5 -153.5t-169.5 -51.5q-64 0 -121 25l45 122q16 -8 38 -8q24 0 40.5 12.5t16.5 39.5v9q0 35 -25.5 57t-68.5 22q-50 0 -98 -10v-257h-218v522h-166v178h636v-178h-252v-110q96 23 165 23q67 0 120.5 -27.5z
" />
    <glyph glyph-name="uni0403" unicode="&#x403;" horiz-adv-x="625" 
d="M59 0v700h551v-180h-335v-520h-216zM513 878l-131 -137l-149 9l86 162z" />
    <glyph glyph-name="uni0404" unicode="&#x404;" horiz-adv-x="730" 
d="M718 115q-53 -65 -128.5 -97t-165.5 -32q-109 0 -197.5 47t-139 130.5t-50.5 186.5t49.5 186.5t136 130.5t193.5 47q187 0 300 -126l-141 -127q-57 69 -147 69q-54 0 -96 -28.5t-61 -78.5h246v-142h-248q18 -52 60 -81t97 -29q42 0 81 17.5t71 52.5z" />
    <glyph glyph-name="uni0405" unicode="&#x405;" horiz-adv-x="662" 
d="M159.5 11.5q-85.5 25.5 -144.5 68.5l82 151q142 -81 251 -81q35 0 56.5 12.5t21.5 33.5q0 27 -25 39.5t-92 26.5q-134 28 -205.5 79.5t-71.5 150.5q0 71 39 121t106 75.5t152 25.5q177 0 292 -94l-97 -133q-42 30 -91.5 46.5t-98.5 16.5q-82 0 -82 -46q0 -22 26 -37
t89 -28q96 -20 155.5 -46t90.5 -68.5t31 -107.5q0 -71 -39 -123.5t-107.5 -80t-153.5 -27.5q-99 0 -184.5 25.5z" />
    <glyph glyph-name="uni0406" unicode="&#x406;" horiz-adv-x="336" 
d="M277 0h-218v700h218v-700z" />
    <glyph glyph-name="uni0407" unicode="&#x407;" horiz-adv-x="336" 
d="M277 0h-218v700h218v-700zM144 748h-132v139h132v-139zM322 748h-131v139h131v-139z" />
    <glyph glyph-name="uni0408" unicode="&#x408;" horiz-adv-x="597" 
d="M110 22.5q-70 36.5 -110 99.5l139 122q23 -35 50 -53.5t64 -18.5q39 0 62.5 27.5t23.5 71.5v258h-213v171h424v-430q0 -82 -36.5 -146.5t-100.5 -101t-146 -36.5q-87 0 -157 36.5z" />
    <glyph glyph-name="uni0409" unicode="&#x409;" horiz-adv-x="1123" 
d="M779 529q98 0 171 -32.5t112.5 -92.5t39.5 -142q0 -80 -39 -139.5t-112 -91t-172 -31.5h-286v522h-159l-4 -194q-3 -140 -48 -212t-111.5 -94t-160.5 -22l1 171q44 3 72 33.5t30 115.5l9 380h590v-171h67zM773 170q52 0 81.5 25t29.5 68q0 45 -29.5 70.5t-81.5 25.5h-61
v-189h61z" />
    <glyph glyph-name="uni040A" unicode="&#x40a;" horiz-adv-x="1122" 
d="M794 483q141 0 224 -60.5t83 -176.5q0 -72 -38.5 -128t-108.5 -87t-160 -31h-306l1 1v294h-212v-295h-218v700h218v-227h212v227h218v-217h87zM785 154q49 0 73.5 22t24.5 58q0 39 -23.5 59t-74.5 20h-78v-159h78z" />
    <glyph glyph-name="uni040B" unicode="&#x40b;" horiz-adv-x="846" 
d="M689 407.5q53 -27.5 83.5 -82t30.5 -130.5v-195h-209v146q0 55 -29.5 84t-76.5 29q-45 0 -85 -8v-251h-218v522h-166v178h636v-178h-252v-110q96 23 165 23q68 0 121 -27.5z" />
    <glyph glyph-name="uni040C" unicode="&#x40c;" horiz-adv-x="777" 
d="M558 878l-131 -137l-149 9l86 162zM746 0h-238l-157 252h-74v-252h-218v700h218v-251h80l136 251h243l-224 -336z" />
    <glyph glyph-name="uni040D" unicode="&#x40d;" horiz-adv-x="809" 
d="M750 700v-700h-218v361l-296 -361h-177v700h219v-352l289 352h183zM481 750l-149 -9l-131 137l194 34z" />
    <glyph glyph-name="uni040E" unicode="&#x40e;" horiz-adv-x="646" 
d="M431 700h215l-218 -531l-11 -22q-26 -58 -53.5 -91t-67 -48t-98.5 -15q-40 0 -91.5 13t-77.5 26l61 150q48 -16 92 -16q21 0 33 9l-216 525h215l108 -317h2zM508 883q0 -70 -50 -111t-135 -41t-135.5 41t-50.5 111l141 3q0 -52 45 -52q44 0 44 52z" />
    <glyph glyph-name="uni040F" unicode="&#x40f;" horiz-adv-x="783" 
d="M505 178v522h219v-700h-216v-136h-219v136h-230v700h217v-522h229z" />
    <glyph glyph-name="uni0410" unicode="&#x410;" horiz-adv-x="819" 
d="M819 0h-229l-40 106h-284l-41 -106h-226l301 700h218zM409 477l-86 -222h170z" />
    <glyph glyph-name="uni0411" unicode="&#x411;" horiz-adv-x="725" 
d="M416 448q156 0 219.5 -69.5t63.5 -164.5q0 -60 -32 -108.5t-91.5 -77t-137.5 -28.5h-379v700h548v-167h-330v-85h139zM398 169q39 0 62.5 16.5t23.5 49.5q0 31 -23.5 49t-61.5 18h-122v-133h121z" />
    <glyph glyph-name="uni0412" unicode="&#x412;" horiz-adv-x="749" 
d="M687 300q36 -44 36 -107q0 -91 -73 -142t-203 -51h-388v700h380q121 0 189 -46.5t68 -130.5q0 -55 -28.5 -96t-80.5 -62q64 -21 100 -65zM277 535v-114h121q83 0 83 58q0 56 -82 56h-122zM419 165q87 0 87 58q0 62 -88 62h-141v-120h142z" />
    <glyph glyph-name="uni0413" unicode="&#x413;" horiz-adv-x="625" 
d="M59 0v700h551v-180h-335v-520h-216z" />
    <glyph glyph-name="uni0414" unicode="&#x414;" horiz-adv-x="891" 
d="M754 178h117v-298h-218v120h-415v-120h-219v298h78q32 2 48.5 40t19.5 134l10 348h579v-522zM536 178v344h-149l-6 -191q-1 -88 -21 -153h176z" />
    <glyph glyph-name="uni0415" unicode="&#x415;" horiz-adv-x="695" 
d="M272 277v-105h390v-172h-603v700h594v-172h-381v-94h332v-157h-332z" />
    <glyph glyph-name="uni0416" unicode="&#x416;" horiz-adv-x="1074" 
d="M1069 0h-239l-156 252h-32v-252h-218v252h-31l-150 -252h-238l228 365l-218 335h243l128 -251h38v251h218v-251h37l136 251h244l-225 -337z" />
    <glyph glyph-name="uni0417" unicode="&#x417;" horiz-adv-x="658" 
d="M431 435q90 -14 142 -69t52 -141q0 -73 -40 -127t-107.5 -83t-147.5 -29q-96 0 -171.5 28.5t-128.5 80.5l91 131q34 -28 95.5 -49.5t99.5 -21.5q41 0 67 20t26 50q0 26 -16.5 45t-48.5 23q-23 4 -90 4q-43 0 -57 -1v108l132 126h-233v170h485l10 -136z" />
    <glyph glyph-name="uni0418" unicode="&#x418;" horiz-adv-x="809" 
d="M750 700v-700h-218v361l-296 -361h-177v700h219v-352l289 352h183z" />
    <glyph glyph-name="uni0419" unicode="&#x419;" horiz-adv-x="809" 
d="M750 700v-700h-218v361l-296 -361h-177v700h219v-352l289 352h183zM589 884q0 -70 -50 -111t-135 -41t-135.5 41t-50.5 111l141 3q0 -52 45 -52q44 0 44 52z" />
    <glyph glyph-name="uni041A" unicode="&#x41a;" horiz-adv-x="751" 
d="M746 0h-238l-157 252h-74v-252h-218v700h218v-251h80l136 251h243l-224 -336z" />
    <glyph glyph-name="uni041B" unicode="&#x41b;" horiz-adv-x="793" 
d="M734 0h-219v522h-181l-4 -194q-3 -140 -48 -212t-111.5 -94t-160.5 -22l1 171q44 3 72 33.5t30 115.5l9 380h612v-700z" />
    <glyph glyph-name="uni041C" unicode="&#x41c;" horiz-adv-x="920" 
d="M461 381l198 319h202v-700h-208v357l-159 -260h-66l-161 261v-358h-208v700h203z" />
    <glyph glyph-name="uni041D" unicode="&#x41d;" horiz-adv-x="797" 
d="M519 439v261h219v-700h-219v258h-241v-258h-219v700h219v-261h241z" />
    <glyph glyph-name="uni041E" unicode="&#x41e;" horiz-adv-x="846" 
d="M224 33q-88 47 -137.5 129.5t-49.5 186.5t49.5 187.5t138 130.5t198.5 47q111 0 199 -47t137.5 -129.5t49.5 -186.5t-50 -187.5t-138 -130.5t-199 -47q-110 0 -198 47zM539.5 221q45.5 49 45.5 128q0 52 -20.5 93t-57.5 64t-84 23t-84 -22.5t-57.5 -63.5t-20.5 -93
t20.5 -92.5t57.5 -63t84 -22.5q71 0 116.5 49z" />
    <glyph glyph-name="uni041F" unicode="&#x41f;" horiz-adv-x="783" 
d="M724 700v-700h-219v522h-229v-522h-217v700h665z" />
    <glyph glyph-name="uni0420" unicode="&#x420;" horiz-adv-x="711" 
d="M541 668.5q73 -31.5 112 -91t39 -139.5q0 -82 -39.5 -142t-112.5 -92.5t-172 -32.5h-91v-171h-218v700h310q99 0 172 -31.5zM363 345q52 0 81.5 24t29.5 68q0 43 -29.5 66t-81.5 23h-86v-181h86z" />
    <glyph glyph-name="uni0421" unicode="&#x421;" horiz-adv-x="730" 
d="M226.5 33q-88.5 47 -139 130.5t-50.5 186.5t49.5 186.5t136 130.5t193.5 47q187 0 300 -126l-141 -127q-57 69 -147 69q-47 0 -86 -22t-61.5 -63t-22.5 -95t22.5 -94.5t60.5 -62.5t85 -22q42 0 81 17.5t71 52.5l140 -126q-53 -65 -128.5 -97t-165.5 -32q-109 0 -197.5 47
z" />
    <glyph glyph-name="uni0422" unicode="&#x422;" horiz-adv-x="674" 
d="M19 700h636v-181h-209v-519h-219v519h-208v181z" />
    <glyph glyph-name="uni0423" unicode="&#x423;" horiz-adv-x="646" 
d="M431 700h215l-218 -531l-11 -22q-26 -58 -53.5 -91t-67 -48t-98.5 -15q-40 0 -91.5 13t-77.5 26l61 150q48 -16 92 -16q21 0 33 9l-216 525h215l108 -317h2z" />
    <glyph glyph-name="uni0424" unicode="&#x424;" horiz-adv-x="995" 
d="M914.5 209q-43.5 -64 -124 -102t-187.5 -41v-82h-211v82q-107 3 -187.5 41t-124 101t-43.5 141q0 79 43.5 142.5t124 101.5t187.5 41v82h211v-82q107 -3 187.5 -41t124 -101t43.5 -141t-43.5 -142zM298 269q33 -33 94 -39v240q-61 -6 -94 -39t-33 -81t33 -81zM603 231
q61 5 94 37.5t33 80.5t-32.5 81t-94.5 39v-238z" />
    <glyph glyph-name="uni0425" unicode="&#x425;" horiz-adv-x="790" 
d="M529 361l256 -361h-253l-136 198l-137 -198h-254l257 362l-240 338h254l120 -179l119 179h254z" />
    <glyph glyph-name="uni0426" unicode="&#x426;" horiz-adv-x="854" 
d="M724 700v-516h111v-299h-219v115h-557v700h217v-522h229v522h219z" />
    <glyph glyph-name="uni0427" unicode="&#x427;" horiz-adv-x="762" 
d="M485 700h218v-700h-218v216q-121 -31 -203 -31q-68 0 -121 27.5t-83.5 82t-30.5 130.5v275h209v-226q0 -55 29.5 -84t76.5 -29q45 0 68 4.5t55 13.5v321z" />
    <glyph glyph-name="uni0428" unicode="&#x428;" horiz-adv-x="1063" 
d="M786 178v522h218v-700h-945v700h218v-522h145v522h219v-522h145z" />
    <glyph glyph-name="uni0429" unicode="&#x429;" horiz-adv-x="1139" 
d="M1004 700v-522h116v-298h-219v120h-842v700h218v-522h145v522h219v-522h145v522h218z" />
    <glyph glyph-name="uni042A" unicode="&#x42a;" horiz-adv-x="788" 
d="M437 532q99 0 171.5 -33t112 -94t39.5 -143q0 -80 -39 -139.5t-112 -91t-172 -31.5h-310v488h-108v212h327v-168h91zM431 173q52 0 81.5 24.5t29.5 65.5q0 45 -29.5 70.5t-81.5 25.5h-85v-186h85z" />
    <glyph glyph-name="uni042B" unicode="&#x42b;" horiz-adv-x="1028" 
d="M365 532q99 0 172 -33t112.5 -94t39.5 -143q0 -80 -39.5 -139.5t-112.5 -91t-171 -31.5h-310v700h218v-168h91zM359 173q52 0 81.5 24.5t29.5 65.5q0 45 -29.5 70.5t-81.5 25.5h-85v-186h85zM974 0h-209v738h209v-738z" />
    <glyph glyph-name="uni042C" unicode="&#x42c;" horiz-adv-x="710" 
d="M365 532q99 0 172 -33t112.5 -94t39.5 -143q0 -80 -39.5 -139.5t-112.5 -91t-171 -31.5h-310v700h218v-168h91zM359 173q52 0 81.5 24.5t29.5 65.5q0 45 -29.5 70.5t-81.5 25.5h-85v-186h85z" />
    <glyph glyph-name="uni042D" unicode="&#x42d;" horiz-adv-x="730" 
d="M507.5 667q86.5 -47 136 -130.5t49.5 -186.5t-50.5 -186.5t-139 -130.5t-197.5 -47q-90 0 -165.5 32t-128.5 97l140 126q32 -35 71 -52.5t81 -17.5q55 0 97 29t60 81h-248v142h246q-19 50 -61 78.5t-96 28.5q-90 0 -147 -69l-141 127q113 126 300 126q107 0 193.5 -47z
" />
    <glyph glyph-name="uni042E" unicode="&#x42e;" horiz-adv-x="1161" 
d="M937 667q88 -47 137.5 -129.5t49.5 -186.5t-50 -187.5t-138 -130.5t-199 -47q-94 0 -172 34.5t-131 97t-72 143.5h-85v-261h-218v700h218v-260h86q19 81 72 143t131 96.5t172 34.5q111 0 199 -47zM822 192q37 23 58 64t21 93t-21 94t-58 65.5t-84 23.5q-46 0 -83.5 -23.5
t-58.5 -65t-21 -93.5t21 -93t58.5 -64.5t83.5 -23.5q47 0 84 23z" />
    <glyph glyph-name="uni042F" unicode="&#x42f;" horiz-adv-x="728" 
d="M668 0h-218v198h-59l-145 -198h-240l168 228q-71 30 -109.5 86t-38.5 134t39 134.5t111.5 87t171.5 30.5h320v-700zM450 360v166h-95q-52 0 -81.5 -21.5t-29.5 -60.5q0 -41 29 -62.5t82 -21.5h95z" />
    <glyph glyph-name="uni0430" unicode="&#x430;" horiz-adv-x="636" 
d="M520.5 505q72.5 -68 72.5 -189v-316h-208v64q-25 -35 -69 -56t-102 -21q-87 0 -141.5 49t-54.5 129q0 82 59 128t174 46q68 0 133 -5q-1 37 -29 57t-84 20q-36 0 -78 -12t-72 -30l-69 139q50 31 114 48t130 17q152 0 224.5 -68zM352 161.5q28 24.5 32 65.5v15
q-32 4 -80 4q-43 0 -64.5 -15t-21.5 -42q0 -24 18.5 -38t49.5 -14q38 0 66 24.5z" />
    <glyph glyph-name="uni0431" unicode="&#x431;" horiz-adv-x="700" 
d="M183 29q-75 43 -115 121.5t-40 183.5q0 181 89.5 271t270.5 105q69 6 102.5 10.5t65.5 12.5v-166q-27 -7 -91 -12l-66 -7q-79 -10 -112.5 -45t-38.5 -95q27 34 69.5 56t115.5 22q66 0 120.5 -32t86.5 -88.5t32 -127.5q0 -74 -39.5 -131t-110.5 -89t-163 -32
q-101 0 -176 43zM436 183q28 26 28 69q0 39 -28.5 66.5t-68.5 27.5q-47 0 -77.5 -26t-30.5 -67q0 -36 28 -66t76 -30q45 0 73 26z" />
    <glyph glyph-name="uni0432" unicode="&#x432;" horiz-adv-x="640" 
d="M578 244.5q34 -35.5 34 -87.5q0 -76 -59 -116.5t-169 -40.5h-335v560h328q103 0 158 -37t55 -106q0 -45 -28.5 -76.5t-86.5 -46.5q69 -14 103 -49.5zM252 415v-79h86q52 0 52 40q0 39 -50 39h-88zM357 145q28 0 40.5 10t12.5 31q0 38 -52 38h-106v-79h105z" />
    <glyph glyph-name="uni0433" unicode="&#x433;" horiz-adv-x="503" 
d="M49 0v559h441v-162h-232v-397h-209z" />
    <glyph glyph-name="uni0434" unicode="&#x434;" horiz-adv-x="720" 
d="M633 163h57v-243h-217v80h-248v-80h-217v243h39q22 1 37 30.5t16 77.5l8 288h525v-396zM425 163v234h-113l-3 -91q-1 -85 -28 -143h144z" />
    <glyph glyph-name="uni0435" unicode="&#x435;" horiz-adv-x="644" 
d="M231 228q9 -41 42.5 -62t84.5 -21q71 0 117 51l117 -104q-47 -49 -106 -76t-138 -27q-92 0 -165 37.5t-114 104t-41 149.5q0 84 39 150t110 103.5t163 37.5q83 0 148 -34.5t101.5 -94.5t36.5 -134q0 -37 -10 -80h-385zM266.5 393q-27.5 -24 -35.5 -66h199
q-6 43 -30.5 66.5t-63.5 23.5q-42 0 -69.5 -24z" />
    <glyph glyph-name="uni0436" unicode="&#x436;" horiz-adv-x="937" 
d="M938 0h-228l-109 187h-32v-187h-201v187h-32l-110 -187h-227l193 310l-173 250h224l83 -174h42v173h201v-173h41l83 174h224l-173 -251z" />
    <glyph glyph-name="uni0437" unicode="&#x437;" horiz-adv-x="555" 
d="M9 57l62 123q34 -19 84 -32t85 -13q39 0 62 12t23 31q0 20 -20 32.5t-63 12.5h-101v114h101q41 0 60 12t19 31q0 22 -21.5 34.5t-58.5 12.5q-78 0 -159 -42l-62 120q50 31 109 49t139 18q72 0 130.5 -21.5t92 -61t33.5 -91.5q0 -77 -65 -118q68 -41 68 -119
q0 -52 -34 -92t-93 -62t-129 -22q-162 0 -262 72z" />
    <glyph glyph-name="uni0438" unicode="&#x438;" horiz-adv-x="690" 
d="M641 559v-559h-209v246l-227 -246h-161v559h209v-237l221 237h167z" />
    <glyph glyph-name="uni0439" unicode="&#x439;" horiz-adv-x="690" 
d="M641 559v-559h-209v246l-227 -246h-161v559h209v-237l221 237h167zM537 743q0 -70 -50 -111t-135 -41t-135.5 41t-50.5 111l141 3q0 -52 45 -52q44 0 44 52z" />
    <glyph glyph-name="uni043A" unicode="&#x43a;" horiz-adv-x="669" 
d="M664 0h-227l-115 187h-64v-187h-209v560h209v-190h64l98 190h224l-180 -262z" />
    <glyph glyph-name="uni043B" unicode="&#x43b;" horiz-adv-x="663" 
d="M614 0h-209v397h-115l-2 -138q-1 -104 -30.5 -160t-88 -77t-157.5 -21l1 149q34 2 50 29t17 88l5 292h529v-559z" />
    <glyph glyph-name="uni043C" unicode="&#x43c;" horiz-adv-x="795" 
d="M398 353l151 207h196v-560h-199v240l-124 -159h-47l-126 159v-240h-200v560h197z" />
    <glyph glyph-name="uni043D" unicode="&#x43d;" horiz-adv-x="687" 
d="M429 363v197h209v-560h-209v205h-171v-205h-209v560h209v-197h171z" />
    <glyph glyph-name="uni043E" unicode="&#x43e;" 
d="M183 24q-73 38 -114 105t-41 151q0 83 41.5 150t114.5 105t165 38t165 -37.5t114.5 -104.5t41.5 -150q0 -84 -41.5 -151t-115 -105.5t-165.5 -38.5t-165 38zM428 193.5q31 33.5 31 86.5t-31 86t-80 33q-48 0 -79 -32.5t-31 -84.5q0 -54 31.5 -88t79.5 -34t79 33.5z" />
    <glyph glyph-name="uni043F" unicode="&#x43f;" horiz-adv-x="687" 
d="M638 559v-560h-209v398h-171v-398h-209v560h589z" />
    <glyph glyph-name="uni0440" unicode="&#x440;" horiz-adv-x="713" 
d="M557 534.5q59 -37.5 93.5 -105t34.5 -152.5q0 -83 -34 -149.5t-93.5 -104t-134.5 -37.5q-101 0 -165 72v-230h-209v731h209v-58q64 71 167 71q73 0 132 -37.5zM447.5 192.5q29.5 32.5 29.5 85.5q0 55 -29.5 88t-78.5 33t-80 -33t-31 -87t31 -86.5t80 -32.5t78.5 32.5z
" />
    <glyph glyph-name="uni0441" unicode="&#x441;" horiz-adv-x="595" 
d="M184 24q-73 38 -114.5 104.5t-41.5 150.5q0 85 41.5 152t114.5 104.5t164 37.5q70 0 131.5 -27t105.5 -81l-132 -118q-40 54 -101 54q-48 0 -80.5 -32t-32.5 -89q0 -56 33 -88.5t81 -32.5q60 0 100 53l132 -117q-43 -54 -105 -81.5t-132 -27.5q-91 0 -164 38z" />
    <glyph glyph-name="uni0442" unicode="&#x442;" horiz-adv-x="588" 
d="M21 559h546v-161h-169v-398h-208v398h-169v161z" />
    <glyph glyph-name="uni0443" unicode="&#x443;" horiz-adv-x="686" 
d="M455 559h223l-228 -559l-10 -24q-26 -60 -56 -94.5t-73 -50.5t-109 -16q-42 0 -87 11t-76 26l39 135q53 -16 89 -16q53 0 69 41l2 5l-226 542h221l111 -333h1z" />
    <glyph glyph-name="uni0444" unicode="&#x444;" horiz-adv-x="908" 
d="M839.5 137.5q-40.5 -62.5 -113.5 -98.5t-168 -39v-171h-208v171q-95 3 -168.5 39t-113.5 98t-40 142t40 142.5t113 98.5t169 39v141h208v-141q96 -3 169 -39t113 -98t40 -142t-40.5 -142.5zM266.5 193.5q28.5 -29.5 83.5 -30.5v234q-112 -3 -112 -117q0 -57 28.5 -86.5z
M558 163q111 3 111 116q0 115 -111 118v-234z" />
    <glyph glyph-name="uni0445" unicode="&#x445;" horiz-adv-x="696" 
d="M471 289l220 -289h-233l-111 149l-110 -149h-232l219 288l-207 271h242l89 -133l89 133h241z" />
    <glyph glyph-name="uni0446" unicode="&#x446;" horiz-adv-x="720" 
d="M624 560v-397h80v-243h-193v80h-462v560h209v-397h157v397h209z" />
    <glyph glyph-name="uni0447" unicode="&#x447;" horiz-adv-x="698" 
d="M439 559h209v-559h-209v185q-98 -36 -185 -36q-101 0 -156 60t-55 171v179h209v-138q0 -46 23 -71t67 -25q28 0 53.5 6t43.5 13v215z" />
    <glyph glyph-name="uni0448" unicode="&#x448;" horiz-adv-x="913" 
d="M654 163v396h210v-559h-815v559h209v-396h94v396h209v-396h93z" />
    <glyph glyph-name="uni0449" unicode="&#x449;" horiz-adv-x="956" 
d="M860 559v-396h79v-243h-192v80h-698v559h209v-396h92v396h209v-396h92v396h209z" />
    <glyph glyph-name="uni044A" unicode="&#x44a;" horiz-adv-x="708" 
d="M402 437q84 0 147 -26.5t97 -76.5t34 -117q0 -66 -34 -115.5t-97 -76t-147 -26.5h-269v406h-112v154h321v-122h60zM396 162q34 0 54 15t20 41t-20 41.5t-54 15.5h-54v-113h54z" />
    <glyph glyph-name="uni044B" unicode="&#x44b;" horiz-adv-x="932" 
d="M318 437q85 0 148 -26.5t97 -76.5t34 -117q0 -66 -34 -115.5t-97 -76t-147 -26.5h-270v560h209v-122h60zM312 162q35 0 55 15t20 41t-20.5 41.5t-54.5 15.5h-54v-113h54zM882 0h-209v559h209v-559z" />
    <glyph glyph-name="uni044C" unicode="&#x44c;" horiz-adv-x="624" 
d="M318 437q85 0 148 -26.5t97 -76.5t34 -117q0 -66 -34 -115.5t-97 -76t-147 -26.5h-270v560h209v-122h60zM312 162q35 0 55 15t20 41t-20.5 41.5t-54.5 15.5h-54v-113h54z" />
    <glyph glyph-name="uni044D" unicode="&#x44d;" horiz-adv-x="595" 
d="M411 535.5q73 -37.5 114.5 -104.5t41.5 -152q0 -84 -41.5 -150.5t-114.5 -104.5t-164 -38q-70 0 -132 27.5t-105 81.5l132 117q40 -53 100 -53q35 0 63 17.5t41 49.5h-138v111h137q-13 31 -40.5 47.5t-61.5 16.5q-61 0 -101 -54l-132 118q44 54 105.5 81t131.5 27
q91 0 164 -37.5z" />
    <glyph glyph-name="uni044E" unicode="&#x44e;" horiz-adv-x="1003" 
d="M820 535.5q73 -37.5 114 -104.5t41 -150q0 -84 -41.5 -151t-114.5 -105.5t-165 -38.5q-79 0 -145 29t-109.5 81t-58.5 119h-83v-215h-209v560h209v-215h83q15 67 59 119t110 80.5t145 28.5q92 0 165 -37.5zM734 193.5q31 33.5 31 86.5t-31 86t-80 33q-48 0 -79 -32.5
t-31 -84.5q0 -54 31.5 -88t79.5 -34t79 33.5z" />
    <glyph glyph-name="uni044F" unicode="&#x44f;" horiz-adv-x="645" 
d="M596 559v-559h-209v154h-43l-113 -154h-225l144 183q-54 24 -84.5 67t-30.5 103q0 98 74 152t202 54h285zM387 288v112h-72q-35 0 -56 -14t-21 -43t21.5 -42t56.5 -13h71z" />
    <glyph glyph-name="uni0450" unicode="&#x450;" horiz-adv-x="644" 
d="M231 228q9 -41 42.5 -62t84.5 -21q71 0 117 51l117 -104q-47 -49 -106 -76t-138 -27q-92 0 -165 37.5t-114 104t-41 149.5q0 84 39 150t110 103.5t163 37.5q83 0 148 -34.5t101.5 -94.5t36.5 -134q0 -37 -10 -80h-385zM266.5 393q-27.5 -24 -35.5 -66h199
q-6 43 -30.5 66.5t-63.5 23.5q-42 0 -69.5 -24zM405 609l-149 -9l-131 137l194 34z" />
    <glyph glyph-name="uni0451" unicode="&#x451;" horiz-adv-x="644" 
d="M231 228q9 -41 42.5 -62t84.5 -21q71 0 117 51l117 -104q-47 -49 -106 -76t-138 -27q-92 0 -165 37.5t-114 104t-41 149.5q0 84 39 150t110 103.5t163 37.5q83 0 148 -34.5t101.5 -94.5t36.5 -134q0 -37 -10 -80h-385zM266.5 393q-27.5 -24 -35.5 -66h199
q-6 43 -30.5 66.5t-63.5 23.5q-42 0 -69.5 -24zM304 607h-132v139h132v-139zM482 607h-131v139h131v-139z" />
    <glyph glyph-name="uni0452" unicode="&#x452;" horiz-adv-x="744" 
d="M642 421q55 -60 55 -172v-255q0 -86 -57.5 -131t-163.5 -45q-62 0 -121 25l45 122q18 -9 38 -9q23 0 36.5 14.5t13.5 42.5v195q0 46 -23 71.5t-67 25.5q-47 0 -97 -20v-285h-209v571h-46v113h46v54h209v-54h80v-113h-80v-127q44 16 88 26.5t97 10.5q101 0 156 -60z" />
    <glyph glyph-name="uni0453" unicode="&#x453;" horiz-adv-x="503" 
d="M49 0v559h441v-162h-232v-397h-209zM473 737l-131 -137l-149 9l86 162z" />
    <glyph glyph-name="uni0454" unicode="&#x454;" horiz-adv-x="595" 
d="M453 212l132 -117q-43 -54 -105 -81.5t-132 -27.5q-91 0 -164 38t-114.5 104.5t-41.5 150.5q0 85 41.5 152t114.5 104.5t164 37.5q70 0 131.5 -27t105.5 -81l-132 -118q-40 54 -101 54q-34 0 -61.5 -16.5t-40.5 -47.5h137v-111h-138q13 -32 41 -49.5t63 -17.5
q60 0 100 53z" />
    <glyph glyph-name="uni0455" unicode="&#x455;" horiz-adv-x="557" 
d="M8 46l58 138q105 -47 216 -47q61 0 61 33q0 17 -20 26t-75 17q-121 17 -173 56.5t-52 114.5q0 89 70 138.5t183 49.5q61 0 129 -16t114 -40l-61 -135q-105 41 -192 41q-49 0 -49 -29q0 -13 17 -21t69 -17q123 -19 178 -60t55 -118q0 -89 -74 -139.5t-194 -50.5
q-140 0 -260 59z" />
    <glyph glyph-name="uni0456" unicode="&#x456;" horiz-adv-x="308" 
d="M258 0h-209v559h209v-559zM261 607h-215v139h215v-139z" />
    <glyph glyph-name="uni0457" unicode="&#x457;" horiz-adv-x="308" 
d="M258 0h-209v559h209v-559zM130 607h-132v139h132v-139zM308 607h-131v139h131v-139z" />
    <glyph glyph-name="uni0458" unicode="&#x458;" horiz-adv-x="314" 
d="M-43 -22q16 -8 41 -8q27 0 42.5 14.5t15.5 40.5v534h209v-535q0 -103 -66 -154.5t-165 -51.5q-56 0 -111 19zM267 607h-215v139h215v-139z" />
    <glyph glyph-name="uni0459" unicode="&#x459;" horiz-adv-x="953" 
d="M647 437q84 0 147 -26.5t97 -76.5t34 -117q0 -101 -71 -159.5t-198 -58.5h-254v398h-112l-2 -138q-1 -104 -30.5 -160t-88 -77t-157.5 -21l1 149q34 2 50 29t17 88l5 292h518v-122h44zM649 154q35 0 54.5 16t19.5 48q0 31 -19.5 48t-54.5 17h-46v-129h46z" />
    <glyph glyph-name="uni045A" unicode="&#x45a;" horiz-adv-x="980" 
d="M675 410q83 0 146 -26t97 -72.5t34 -104.5q0 -99 -70.5 -153.5t-198.5 -54.5h-254v236h-171v-235h-209v560h209v-169h171v168h209v-149h37zM677 146q34 0 54 14.5t20 39.5q0 24 -20.5 39.5t-54.5 15.5h-38v-109h39z" />
    <glyph glyph-name="uni045B" unicode="&#x45b;" horiz-adv-x="715" 
d="M617.5 421q54.5 -60 54.5 -172v-249h-209v208q0 46 -23 71.5t-67 25.5q-47 0 -97 -21v-284h-208v571h-47v113h47v54h208v-54h81v-113h-81v-127q99 37 186 37q101 0 155.5 -60z" />
    <glyph glyph-name="uni045C" unicode="&#x45c;" horiz-adv-x="663" 
d="M501 738l-131 -137l-149 9l86 162zM664 0h-227l-115 187h-64v-187h-209v560h209v-190h64l98 190h224l-180 -262z" />
    <glyph glyph-name="uni045D" unicode="&#x45d;" horiz-adv-x="690" 
d="M641 559v-559h-209v246l-227 -246h-161v559h209v-237l221 237h167zM428 609l-149 -9l-131 137l194 34z" />
    <glyph glyph-name="uni045E" unicode="&#x45e;" horiz-adv-x="686" 
d="M455 559h223l-228 -559l-10 -24q-26 -60 -56 -94.5t-73 -50.5t-109 -16q-42 0 -87 11t-76 26l39 135q53 -16 89 -16q53 0 69 41l2 5l-226 542h221l111 -333h1zM531 743q0 -70 -50 -111t-135 -41t-135.5 41t-50.5 111l141 3q0 -52 45 -52q44 0 44 52z" />
    <glyph glyph-name="uni045F" unicode="&#x45f;" horiz-adv-x="687" 
d="M429 560h209v-560h-193v-123h-208v123h-188v560h209v-398h171v398z" />
    <glyph glyph-name="uni0474" unicode="&#x474;" horiz-adv-x="789" 
d="M289 0l-290 700h230l166 -446h6l81 213q42 122 124 192t180 70v-219q-71 -2 -123 -126l-157 -384h-217z" />
    <glyph glyph-name="uni0474" unicode="&#x475;" horiz-adv-x="789" 
d="M289 0l-290 700h230l166 -446h6l81 213q42 122 124 192t180 70v-219q-71 -2 -123 -126l-157 -384h-217z" />
    <glyph glyph-name="uni0490" unicode="&#x490;" horiz-adv-x="625" 
d="M604 831v-131h6v-180h-335v-520h-216v700h326v131h219z" />
    <glyph glyph-name="uni0491" unicode="&#x491;" horiz-adv-x="503" 
d="M288 670h203v-237h-1v-36h-232v-397h-209v559h239v111z" />
    <glyph glyph-name="uni04D9" unicode="&#x4d9;" horiz-adv-x="644" 
d="M461 532.5q73 -37.5 114 -104t41 -149.5q0 -84 -39 -150t-110 -103.5t-163 -37.5q-83 0 -148 34.5t-101.5 94.5t-36.5 134q0 37 10 80h385q-9 41 -42.5 62t-84.5 21q-71 0 -117 -51l-117 104q47 49 106 76t138 27q92 0 165 -37.5zM377.5 166q27.5 24 35.5 66h-199
q6 -43 30.5 -66.5t63.5 -23.5q42 0 69.5 24z" />
    <glyph glyph-name="uni1E0C" unicode="&#x1e0c;" horiz-adv-x="819" 
d="M59 0v700h327q119 0 209 -43t138.5 -121.5t48.5 -183.5q0 -107 -48.5 -186.5t-138 -122.5t-209.5 -43h-327zM377 181q84 0 132.5 45.5t48.5 124.5q0 78 -48.5 123t-132.5 45h-100v-338h100zM210 -179v139h215v-139h-215z" />
    <glyph glyph-name="uni1E0D" unicode="&#x1e0d;" horiz-adv-x="717" 
d="M454 738h208v-738h-208v58q-64 -71 -167 -71q-72 0 -131.5 38t-94 105t-34.5 152q0 83 34 149.5t93.5 104t134.5 37.5q101 0 165 -72v237zM423 193q31 33 31 87t-31 86.5t-81 32.5q-48 0 -77.5 -32.5t-29.5 -85.5q0 -55 29 -88t78 -33q50 0 81 33zM238 -179v139h215v-139
h-215z" />
    <glyph glyph-name="uni1E0E" unicode="&#x1e0e;" horiz-adv-x="819" 
d="M59 0v700h327q119 0 209 -43t138.5 -121.5t48.5 -183.5q0 -107 -48.5 -186.5t-138 -122.5t-209.5 -43h-327zM377 181q84 0 132.5 45.5t48.5 124.5q0 78 -48.5 123t-132.5 45h-100v-338h100zM519 -147h-379v113h379v-113z" />
    <glyph glyph-name="uni1E0F" unicode="&#x1e0f;" horiz-adv-x="717" 
d="M454 738h208v-738h-208v58q-64 -71 -167 -71q-72 0 -131.5 38t-94 105t-34.5 152q0 83 34 149.5t93.5 104t134.5 37.5q101 0 165 -72v237zM423 193q31 33 31 87t-31 86.5t-81 32.5q-48 0 -77.5 -32.5t-29.5 -85.5q0 -55 29 -88t78 -33q50 0 81 33zM547 -147h-379v113h379
v-113z" />
    <glyph glyph-name="uni1E20" unicode="&#x1e20;" horiz-adv-x="774" 
d="M226.5 33q-88.5 47 -139 130t-50.5 186q0 104 49.5 187.5t137 130.5t197.5 47q83 0 158.5 -31.5t134.5 -94.5l-140 -127q-65 69 -147 69q-47 0 -85.5 -22t-61 -63.5t-22.5 -96.5q0 -83 49 -131.5t130 -48.5q58 0 97 22v182h195v-283q-61 -49 -140 -76t-163 -27
q-111 0 -199.5 47zM621 758h-379v113h379v-113z" />
    <glyph glyph-name="uni1E21" unicode="&#x1e21;" horiz-adv-x="650" 
d="M362 154q144 2 207.5 -37.5t63.5 -117.5q0 -87 -84.5 -135.5t-245.5 -48.5q-266 0 -266 142q0 56 64 96q-26 15 -39 38.5t-13 50.5q0 32 18.5 57.5t47.5 42.5q-67 52 -67 140q0 89 72.5 140t198.5 51q72 0 119 -19l152 41l35 -124l-68 -7q16 -16 25.5 -37.5t9.5 -44.5
q0 -90 -72.5 -142t-199.5 -52q-44 0 -80 6q-7 -8 -7 -21q0 -12 10 -16t31 -4zM268 424q-18 -15 -18 -41q0 -29 18 -45t51 -16q34 0 52 16t18 45q0 26 -18 41t-52 15q-33 0 -51 -15zM406 -33.5q26 9.5 26 33.5q0 17 -22 23t-71 6h-97q-15 -16 -15 -31q0 -25 23.5 -33t67.5 -8
q62 0 88 9.5zM513 625h-379v113h379v-113z" />
    <glyph glyph-name="uni1E24" unicode="&#x1e24;" horiz-adv-x="797" 
d="M519 439v261h219v-700h-219v258h-241v-258h-219v700h219v-261h241zM279 -179v139h215v-139h-215z" />
    <glyph glyph-name="uni1E25" unicode="&#x1e25;" horiz-adv-x="695" 
d="M595 512.5q57 -60.5 57 -170.5v-342h-209v303q0 45 -20.5 68t-60.5 23q-43 0 -70.5 -33t-27.5 -83v-278h-209v738h209v-249q31 39 75.5 61.5t97.5 22.5q101 0 158 -60.5zM232 -179v139h215v-139h-215z" />
    <glyph glyph-name="uni1E2A" unicode="&#x1e2a;" horiz-adv-x="797" 
d="M519 439v261h219v-700h-219v258h-241v-258h-219v700h219v-261h241zM548 -36q0 -52 -40 -83t-108 -31t-108 31t-40 83l112 3q0 -40 36 -40q35 0 35 40z" />
    <glyph glyph-name="uni1E2B" unicode="&#x1e2b;" horiz-adv-x="695" 
d="M595 512.5q57 -60.5 57 -170.5v-342h-209v303q0 45 -20.5 68t-60.5 23q-43 0 -70.5 -33t-27.5 -83v-278h-209v738h209v-249q31 39 75.5 61.5t97.5 22.5q101 0 158 -60.5zM501 -36q0 -52 -40 -83t-108 -31t-108 31t-40 83l112 3q0 -40 36 -40q35 0 35 40z" />
    <glyph glyph-name="uni1E36" unicode="&#x1e36;" horiz-adv-x="625" 
d="M610 0h-551v700h216v-520h335v-180zM195 -179v139h215v-139h-215z" />
    <glyph glyph-name="uni1E37" unicode="&#x1e37;" horiz-adv-x="318" 
d="M264 0h-209v738h209v-738zM40 -179v139h215v-139h-215z" />
    <glyph glyph-name="uni1E38" unicode="&#x1e38;" horiz-adv-x="625" 
d="M610 0h-551v700h216v-520h335v-180zM195 -179v139h215v-139h-215zM498 758h-379v113h379v-113z" />
    <glyph glyph-name="uni1E39" unicode="&#x1e39;" horiz-adv-x="318" 
d="M264 0h-209v738h209v-738zM40 -179v139h215v-139h-215zM343 796h-379v113h379v-113z" />
    <glyph glyph-name="uni1E3A" unicode="&#x1e3a;" horiz-adv-x="625" 
d="M610 0h-551v700h216v-520h335v-180zM503 -147h-379v113h379v-113z" />
    <glyph glyph-name="uni1E3B" unicode="&#x1e3b;" horiz-adv-x="318" 
d="M264 0h-209v738h209v-738zM348 -147h-379v113h379v-113z" />
    <glyph glyph-name="uni1E42" unicode="&#x1e42;" horiz-adv-x="920" 
d="M461 381l198 319h202v-700h-208v357l-159 -260h-66l-161 261v-358h-208v700h203zM341 -179v139h215v-139h-215z" />
    <glyph glyph-name="uni1E43" unicode="&#x1e43;" horiz-adv-x="1051" 
d="M952.5 511.5q54.5 -61.5 54.5 -167.5v-344h-209v305q0 43 -17.5 66t-51.5 23q-42 0 -69 -32t-27 -83v-279h-209v305q0 42 -18 65.5t-52 23.5q-41 0 -68.5 -32.5t-27.5 -82.5v-279h-209v559h209v-70q31 39 75 61.5t95 22.5q66 0 113.5 -30t70.5 -86q30 52 80 84t111 32
q95 0 149.5 -61.5zM405 -179v139h215v-139h-215z" />
    <glyph glyph-name="uni1E44" unicode="&#x1e44;" horiz-adv-x="809" 
d="M277 0h-218v700h183l289 -352v352h219v-700h-177l-296 361v-361zM512 748h-215v135h215v-135z" />
    <glyph glyph-name="uni1E45" unicode="&#x1e45;" horiz-adv-x="690" 
d="M589.5 512.5q56.5 -60.5 56.5 -170.5v-342h-208v303q0 44 -20.5 67.5t-60.5 23.5q-43 0 -71 -33t-28 -83v-278h-209v559h209v-71q31 40 76 62.5t98 22.5q101 0 157.5 -60.5zM452 607h-215v139h215v-139z" />
    <glyph glyph-name="uni1E46" unicode="&#x1e46;" horiz-adv-x="809" 
d="M277 0h-218v700h183l289 -352v352h219v-700h-177l-296 361v-361zM286 -179v139h215v-139h-215z" />
    <glyph glyph-name="uni1E47" unicode="&#x1e47;" horiz-adv-x="690" 
d="M589.5 512.5q56.5 -60.5 56.5 -170.5v-342h-208v303q0 44 -20.5 67.5t-60.5 23.5q-43 0 -71 -33t-28 -83v-278h-209v559h209v-71q31 40 76 62.5t98 22.5q101 0 157.5 -60.5zM226 -179v139h215v-139h-215z" />
    <glyph glyph-name="uni1E48" unicode="&#x1e48;" horiz-adv-x="809" 
d="M277 0h-218v700h183l289 -352v352h219v-700h-177l-296 361v-361zM594 -147h-379v113h379v-113z" />
    <glyph glyph-name="uni1E49" unicode="&#x1e49;" horiz-adv-x="690" 
d="M589.5 512.5q56.5 -60.5 56.5 -170.5v-342h-208v303q0 44 -20.5 67.5t-60.5 23.5q-43 0 -71 -33t-28 -83v-278h-209v559h209v-71q31 40 76 62.5t98 22.5q101 0 157.5 -60.5zM534 -147h-379v113h379v-113z" />
    <glyph glyph-name="uni1E5A" unicode="&#x1e5a;" horiz-adv-x="727" 
d="M481 0l-145 198h-59v-198h-218v700h320q99 0 172 -30.5t112 -87t39 -134.5t-38.5 -134t-110.5 -86l168 -228h-240zM277 526v-166h96q52 0 81.5 21.5t29.5 62.5q0 39 -29.5 60.5t-81.5 21.5h-96zM251 -179v139h215v-139h-215z" />
    <glyph glyph-name="uni1E5B" unicode="&#x1e5b;" horiz-adv-x="462" 
d="M450 564l-8 -191q-34 8 -67 8q-53 0 -85 -42.5t-32 -111.5v-227h-209v559h209v-81q26 45 63.5 67.5t79.5 22.5q23 0 49 -4zM105 -179v139h215v-139h-215z" />
    <glyph glyph-name="uni1E5C" unicode="&#x1e5c;" horiz-adv-x="727" 
d="M481 0l-145 198h-59v-198h-218v700h320q99 0 172 -30.5t112 -87t39 -134.5t-38.5 -134t-110.5 -86l168 -228h-240zM277 526v-166h96q52 0 81.5 21.5t29.5 62.5q0 39 -29.5 60.5t-81.5 21.5h-96zM251 -179v139h215v-139h-215zM554 758h-379v113h379v-113z" />
    <glyph glyph-name="uni1E5D" unicode="&#x1e5d;" horiz-adv-x="462" 
d="M450 564l-8 -191q-34 8 -67 8q-53 0 -85 -42.5t-32 -111.5v-227h-209v559h209v-81q26 45 63.5 67.5t79.5 22.5q23 0 49 -4zM105 -179v139h215v-139h-215zM421 615h-379v113h379v-113z" />
    <glyph glyph-name="uni1E5E" unicode="&#x1e5e;" horiz-adv-x="727" 
d="M481 0l-145 198h-59v-198h-218v700h320q99 0 172 -30.5t112 -87t39 -134.5t-38.5 -134t-110.5 -86l168 -228h-240zM277 526v-166h96q52 0 81.5 21.5t29.5 62.5q0 39 -29.5 60.5t-81.5 21.5h-96zM559 -147h-379v113h379v-113z" />
    <glyph glyph-name="uni1E5F" unicode="&#x1e5f;" horiz-adv-x="462" 
d="M450 564l-8 -191q-34 8 -67 8q-53 0 -85 -42.5t-32 -111.5v-227h-209v559h209v-81q26 45 63.5 67.5t79.5 22.5q23 0 49 -4zM413 -147h-379v113h379v-113z" />
    <glyph glyph-name="uni1E60" unicode="&#x1e60;" horiz-adv-x="662" 
d="M159.5 11.5q-85.5 25.5 -144.5 68.5l82 151q142 -81 251 -81q35 0 56.5 12.5t21.5 33.5q0 27 -25 39.5t-92 26.5q-134 28 -205.5 79.5t-71.5 150.5q0 71 39 121t106 75.5t152 25.5q177 0 292 -94l-97 -133q-42 30 -91.5 46.5t-98.5 16.5q-82 0 -82 -46q0 -22 26 -37
t89 -28q96 -20 155.5 -46t90.5 -68.5t31 -107.5q0 -71 -39 -123.5t-107.5 -80t-153.5 -27.5q-99 0 -184.5 25.5zM441 748h-215v135h215v-135z" />
    <glyph glyph-name="uni1E61" unicode="&#x1e61;" horiz-adv-x="557" 
d="M8 46l58 138q105 -47 216 -47q61 0 61 33q0 17 -20 26t-75 17q-121 17 -173 56.5t-52 114.5q0 89 70 138.5t183 49.5q61 0 129 -16t114 -40l-61 -135q-105 41 -192 41q-49 0 -49 -29q0 -13 17 -21t69 -17q123 -19 178 -60t55 -118q0 -89 -74 -139.5t-194 -50.5
q-140 0 -260 59zM383 607h-215v139h215v-139z" />
    <glyph glyph-name="uni1E62" unicode="&#x1e62;" horiz-adv-x="662" 
d="M159.5 11.5q-85.5 25.5 -144.5 68.5l82 151q142 -81 251 -81q35 0 56.5 12.5t21.5 33.5q0 27 -25 39.5t-92 26.5q-134 28 -205.5 79.5t-71.5 150.5q0 71 39 121t106 75.5t152 25.5q177 0 292 -94l-97 -133q-42 30 -91.5 46.5t-98.5 16.5q-82 0 -82 -46q0 -22 26 -37
t89 -28q96 -20 155.5 -46t90.5 -68.5t31 -107.5q0 -71 -39 -123.5t-107.5 -80t-153.5 -27.5q-99 0 -184.5 25.5zM214 -179v139h215v-139h-215z" />
    <glyph glyph-name="uni1E63" unicode="&#x1e63;" horiz-adv-x="557" 
d="M8 46l58 138q105 -47 216 -47q61 0 61 33q0 17 -20 26t-75 17q-121 17 -173 56.5t-52 114.5q0 89 70 138.5t183 49.5q61 0 129 -16t114 -40l-61 -135q-105 41 -192 41q-49 0 -49 -29q0 -13 17 -21t69 -17q123 -19 178 -60t55 -118q0 -89 -74 -139.5t-194 -50.5
q-140 0 -260 59zM157 -179v139h215v-139h-215z" />
    <glyph glyph-name="uni1E6C" unicode="&#x1e6c;" horiz-adv-x="674" 
d="M19 700h636v-181h-209v-519h-219v519h-208v181zM218 -179v139h215v-139h-215z" />
    <glyph glyph-name="uni1E6D" unicode="&#x1e6d;" horiz-adv-x="539" 
d="M515 28q-38 -20 -89 -31t-93 -11q-105 0 -161.5 53.5t-56.5 156.5v202h-94v161h99l12 137h191v-137h171v-161h-171v-178q0 -28 13.5 -42.5t39.5 -14.5q21 0 50 5t52 13zM213 -179v139h215v-139h-215z" />
    <glyph glyph-name="uni1E6E" unicode="&#x1e6e;" horiz-adv-x="674" 
d="M19 700h636v-181h-209v-519h-219v519h-208v181zM526 -147h-379v113h379v-113z" />
    <glyph glyph-name="uni1E6F" unicode="&#x1e6f;" horiz-adv-x="539" 
d="M515 28q-38 -20 -89 -31t-93 -11q-105 0 -161.5 53.5t-56.5 156.5v202h-94v161h99l12 137h191v-137h171v-161h-171v-178q0 -28 13.5 -42.5t39.5 -14.5q21 0 50 5t52 13zM522 -147h-379v113h379v-113z" />
    <glyph glyph-name="Wgrave" unicode="&#x1e80;" horiz-adv-x="1139" 
d="M780 268l130 432h230l-230 -700h-223l-117 403l-117 -403h-222l-232 700h230l132 -432l122 432h173zM641 749l-146 -8l-123 111l178 36z" />
    <glyph glyph-name="wgrave" unicode="&#x1e81;" horiz-adv-x="976" 
d="M657 242l87 317h219l-189 -559h-201l-85 291l-85 -291h-201l-189 559h219l87 -317l89 317h159zM565 609l-149 -9l-131 137l194 34z" />
    <glyph glyph-name="Wacute" unicode="&#x1e82;" horiz-adv-x="1139" 
d="M780 268l130 432h230l-230 -700h-223l-117 403l-117 -403h-222l-232 700h230l132 -432l122 432h173zM768 852l-123 -111l-146 8l91 139z" />
    <glyph glyph-name="wacute" unicode="&#x1e83;" horiz-adv-x="976" 
d="M657 242l87 317h219l-189 -559h-201l-85 291l-85 -291h-201l-189 559h219l87 -317l89 317h159zM691 737l-131 -137l-149 9l86 162z" />
    <glyph glyph-name="Wdieresis" unicode="&#x1e84;" horiz-adv-x="1139" 
d="M780 268l130 432h230l-230 -700h-223l-117 403l-117 -403h-222l-232 700h230l132 -432l122 432h173zM559 749h-145v134h145v-134zM734 749h-145v134h145v-134z" />
    <glyph glyph-name="wdieresis" unicode="&#x1e85;" horiz-adv-x="976" 
d="M657 242l87 317h219l-189 -559h-201l-85 291l-85 -291h-201l-189 559h219l87 -317l89 317h159zM464 607h-132v139h132v-139zM642 607h-131v139h131v-139z" />
    <glyph glyph-name="uni1E8E" unicode="&#x1e8e;" horiz-adv-x="738" 
d="M508 700h236l-266 -448v-252h-218v256l-266 444h236l140 -267zM477 748h-215v135h215v-135z" />
    <glyph glyph-name="uni1E8F" unicode="&#x1e8f;" horiz-adv-x="686" 
d="M455 559h223l-228 -559l-10 -24q-26 -60 -56 -94.5t-73 -50.5t-109 -16q-42 0 -87 11t-76 26l39 135q53 -16 89 -16q53 0 69 41l2 5l-226 542h221l111 -333h1zM452 607h-215v139h215v-139z" />
    <glyph glyph-name="uni1E92" unicode="&#x1e92;" horiz-adv-x="699" 
d="M671 0h-641v135l336 384h-325v181h622v-135l-335 -384h343v-181zM227 -179v139h215v-139h-215z" />
    <glyph glyph-name="uni1E93" unicode="&#x1e93;" horiz-adv-x="591" 
d="M564 0h-535v125l257 267h-249v167h522v-125l-258 -266h263v-168zM173 -179v139h215v-139h-215z" />
    <glyph glyph-name="uni1E97" unicode="&#x1e97;" horiz-adv-x="539" 
d="M515 28q-38 -20 -89 -31t-93 -11q-105 0 -161.5 53.5t-56.5 156.5v202h-94v161h99l12 137h191v-137h171v-161h-171v-178q0 -28 13.5 -42.5t39.5 -14.5q21 0 50 5t52 13zM206 744h-132v139h132v-139zM384 744h-131v139h131v-139z" />
    <glyph glyph-name="uni1E9E" unicode="&#x1e9e;" horiz-adv-x="808" 
d="M645 410q71 -29 108 -75t37 -117q0 -108 -72.5 -170t-194.5 -62q-63 0 -120 14t-92 37l39 165q31 -19 71.5 -30.5t78.5 -11.5q34 0 54.5 15t20.5 40q0 21 -20 38t-55 24q-21 5 -80 13l57 235q-65 16 -109 16q-47 0 -74.5 -25t-27.5 -65v-451h-219l1 464q0 74 39.5 130.5
t112.5 88t170 31.5q74 0 163.5 -18.5t176.5 -56.5z" />
    <glyph glyph-name="uni1EA0" unicode="&#x1ea0;" horiz-adv-x="819" 
d="M819 0h-229l-40 106h-284l-41 -106h-226l301 700h218zM409 477l-86 -222h170zM290 -179v139h215v-139h-215z" />
    <glyph glyph-name="uni1EA1" unicode="&#x1ea1;" horiz-adv-x="636" 
d="M520.5 505q72.5 -68 72.5 -189v-316h-208v64q-25 -35 -69 -56t-102 -21q-87 0 -141.5 49t-54.5 129q0 82 59 128t174 46q68 0 133 -5q-1 37 -29 57t-84 20q-36 0 -78 -12t-72 -30l-69 139q50 31 114 48t130 17q152 0 224.5 -68zM352 161.5q28 24.5 32 65.5v15
q-32 4 -80 4q-43 0 -64.5 -15t-21.5 -42q0 -24 18.5 -38t49.5 -14q38 0 66 24.5zM185 -179v139h215v-139h-215z" />
    <glyph glyph-name="uni1EA2" unicode="&#x1ea2;" horiz-adv-x="819" 
d="M819 0h-229l-40 106h-284l-41 -106h-226l301 700h218zM409 477l-86 -222h170zM354 758q31 38 31 68q0 11 -8.5 19t-22.5 8t-33 -10l-10 84q57 29 100 29q44 0 70 -24t26 -56q0 -40 -23.5 -79t-52.5 -62z" />
    <glyph glyph-name="uni1EA3" unicode="&#x1ea3;" horiz-adv-x="636" 
d="M520.5 505q72.5 -68 72.5 -189v-316h-208v64q-25 -35 -69 -56t-102 -21q-87 0 -141.5 49t-54.5 129q0 82 59 128t174 46q68 0 133 -5q-1 37 -29 57t-84 20q-36 0 -78 -12t-72 -30l-69 139q50 31 114 48t130 17q152 0 224.5 -68zM352 161.5q28 24.5 32 65.5v15
q-32 4 -80 4q-43 0 -64.5 -15t-21.5 -42q0 -24 18.5 -38t49.5 -14q38 0 66 24.5zM248 618q31 38 31 68q0 11 -8.5 19t-22.5 8t-33 -10l-10 84q57 29 100 29q44 0 70 -24t26 -56q0 -40 -23.5 -79t-52.5 -62z" />
    <glyph glyph-name="uni1EA4" unicode="&#x1ea4;" horiz-adv-x="819" 
d="M641 935l149 -31l-103 -92l-123 6zM447 742l-37 70l-38 -70l-159 8l108 136h178l108 -136zM819 0h-229l-40 106h-284l-41 -106h-226l301 700h218zM409 477l-86 -222h170z" />
    <glyph glyph-name="uni1EA5" unicode="&#x1ea5;" horiz-adv-x="636" 
d="M520.5 505q72.5 -68 72.5 -189v-316h-208v64q-25 -35 -69 -56t-102 -21q-87 0 -141.5 49t-54.5 129q0 82 59 128t174 46q68 0 133 -5q-1 37 -29 57t-84 20q-36 0 -78 -12t-72 -30l-69 139q50 31 114 48t130 17q152 0 224.5 -68zM352 161.5q28 24.5 32 65.5v15
q-32 4 -80 4q-43 0 -64.5 -15t-21.5 -42q0 -24 18.5 -38t49.5 -14q38 0 66 24.5zM391 761l105 -152l-156 -8l-36 78l-37 -78l-157 8l106 152h175zM506 938l-131 -137l-149 9l86 162z" />
    <glyph glyph-name="uni1EA6" unicode="&#x1ea6;" horiz-adv-x="819" 
d="M193 938l77 -116l-123 -7l-103 93zM410 812l-38 -70l-159 8l108 136h178l108 -136l-160 -8zM819 0h-229l-40 106h-284l-41 -106h-226l301 700h218zM409 477l-86 -222h170z" />
    <glyph glyph-name="uni1EA7" unicode="&#x1ea7;" horiz-adv-x="636" 
d="M520.5 505q72.5 -68 72.5 -189v-316h-208v64q-25 -35 -69 -56t-102 -21q-87 0 -141.5 49t-54.5 129q0 82 59 128t174 46q68 0 133 -5q-1 37 -29 57t-84 20q-36 0 -78 -12t-72 -30l-69 139q50 31 114 48t130 17q152 0 224.5 -68zM352 161.5q28 24.5 32 65.5v15
q-32 4 -80 4q-43 0 -64.5 -15t-21.5 -42q0 -24 18.5 -38t49.5 -14q38 0 66 24.5zM391 761l105 -152l-156 -8l-36 78l-37 -78l-157 8l106 152h175zM380 810l-149 -9l-131 137l194 34z" />
    <glyph glyph-name="uni1EA8" unicode="&#x1ea8;" horiz-adv-x="819" 
d="M606.5 865.5q-6.5 6.5 -18.5 6.5q-11 0 -28 -9l-8 71q47 25 84 25q36 0 58 -20t22 -47q0 -34 -19.5 -66.5t-43.5 -52.5l-65 19q25 35 25 57q0 10 -6.5 16.5zM447 742l-37 70l-38 -70l-159 8l108 136h178l108 -136zM819 0h-229l-40 106h-284l-41 -106h-226l301 700h218z
M409 477l-86 -222h170z" />
    <glyph glyph-name="uni1EA9" unicode="&#x1ea9;" horiz-adv-x="636" 
d="M520.5 505q72.5 -68 72.5 -189v-316h-208v64q-25 -35 -69 -56t-102 -21q-87 0 -141.5 49t-54.5 129q0 82 59 128t174 46q68 0 133 -5q-1 37 -29 57t-84 20q-36 0 -78 -12t-72 -30l-69 139q50 31 114 48t130 17q152 0 224.5 -68zM352 161.5q28 24.5 32 65.5v15
q-32 4 -80 4q-43 0 -64.5 -15t-21.5 -42q0 -24 18.5 -38t49.5 -14q38 0 66 24.5zM391 761l105 -152l-156 -8l-36 78l-37 -78l-157 8l106 152h175zM248 818q31 38 31 68q0 11 -8.5 19t-22.5 8t-33 -10l-10 84q57 29 100 29q44 0 70 -24t26 -56q0 -40 -23.5 -79t-52.5 -62z
" />
    <glyph glyph-name="uni1EAA" unicode="&#x1eaa;" horiz-adv-x="819" 
d="M819 0h-229l-40 106h-284l-41 -106h-226l301 700h218zM409 477l-86 -222h170zM499 886l108 -136l-160 -8l-37 70l-38 -70l-159 8l108 136h178zM221 940q0 57 29.5 91t78.5 34q32 0 86 -15q34 -9 48 -9q17 0 27.5 10t10.5 26l91 -20q0 -58 -29 -91.5t-78 -33.5
q-33 0 -87 15q-34 9 -48 9q-17 0 -27 -10t-10 -26z" />
    <glyph glyph-name="uni1EAB" unicode="&#x1eab;" horiz-adv-x="636" 
d="M520.5 505q72.5 -68 72.5 -189v-316h-208v64q-25 -35 -69 -56t-102 -21q-87 0 -141.5 49t-54.5 129q0 82 59 128t174 46q68 0 133 -5q-1 37 -29 57t-84 20q-36 0 -78 -12t-72 -30l-69 139q50 31 114 48t130 17q152 0 224.5 -68zM352 161.5q28 24.5 32 65.5v15
q-32 4 -80 4q-43 0 -64.5 -15t-21.5 -42q0 -24 18.5 -38t49.5 -14q38 0 66 24.5zM391 761l105 -152l-156 -8l-36 78l-37 -78l-157 8l106 152h175zM117 811q0 57 29.5 91t78.5 34q32 0 86 -15q34 -9 48 -9q17 0 27.5 10t10.5 26l91 -20q0 -58 -29 -91.5t-78 -33.5
q-33 0 -87 15q-34 9 -48 9q-17 0 -27 -10t-10 -26z" />
    <glyph glyph-name="uni1EAC" unicode="&#x1eac;" horiz-adv-x="819" 
d="M819 0h-229l-40 106h-284l-41 -106h-226l301 700h218zM409 477l-86 -222h170zM290 -179v139h215v-139h-215zM499 886l108 -136l-160 -8l-37 70l-38 -70l-159 8l108 136h178z" />
    <glyph glyph-name="uni1EAD" unicode="&#x1ead;" horiz-adv-x="636" 
d="M520.5 505q72.5 -68 72.5 -189v-316h-208v64q-25 -35 -69 -56t-102 -21q-87 0 -141.5 49t-54.5 129q0 82 59 128t174 46q68 0 133 -5q-1 37 -29 57t-84 20q-36 0 -78 -12t-72 -30l-69 139q50 31 114 48t130 17q152 0 224.5 -68zM352 161.5q28 24.5 32 65.5v15
q-32 4 -80 4q-43 0 -64.5 -15t-21.5 -42q0 -24 18.5 -38t49.5 -14q38 0 66 24.5zM185 -179v139h215v-139h-215zM391 761l105 -152l-156 -8l-36 78l-37 -78l-157 8l106 152h175z" />
    <glyph glyph-name="uni1EAE" unicode="&#x1eae;" horiz-adv-x="819" 
d="M819 0h-229l-40 106h-284l-41 -106h-226l301 700h218zM409 477l-86 -222h170zM589 891q0 -70 -50 -111t-135 -41t-135.5 41t-50.5 111l141 3q0 -52 45 -52q44 0 44 52zM607 1021l-123 -111l-146 8l91 139z" />
    <glyph glyph-name="uni1EAF" unicode="&#x1eaf;" horiz-adv-x="640" 
d="M520.5 505q72.5 -68 72.5 -189v-316h-208v64q-25 -35 -69 -56t-102 -21q-87 0 -141.5 49t-54.5 129q0 82 59 128t174 46q68 0 133 -5q-1 37 -29 57t-84 20q-36 0 -78 -12t-72 -30l-69 139q50 31 114 48t130 17q152 0 224.5 -68zM352 161.5q28 24.5 32 65.5v15
q-32 4 -80 4q-43 0 -64.5 -15t-21.5 -42q0 -24 18.5 -38t49.5 -14q38 0 66 24.5zM492 744q0 -70 -50 -111t-135 -41t-135.5 41t-50.5 111l141 3q0 -52 45 -52q44 0 44 52zM510 930l-131 -137l-149 9l86 162z" />
    <glyph glyph-name="uni1EB0" unicode="&#x1eb0;" horiz-adv-x="819" 
d="M819 0h-229l-40 106h-284l-41 -106h-226l301 700h218zM409 477l-86 -222h170zM589 891q0 -70 -50 -111t-135 -41t-135.5 41t-50.5 111l141 3q0 -52 45 -52q44 0 44 52zM480 918l-146 -8l-123 111l178 36z" />
    <glyph glyph-name="uni1EB1" unicode="&#x1eb1;" horiz-adv-x="640" 
d="M520.5 505q72.5 -68 72.5 -189v-316h-208v64q-25 -35 -69 -56t-102 -21q-87 0 -141.5 49t-54.5 129q0 82 59 128t174 46q68 0 133 -5q-1 37 -29 57t-84 20q-36 0 -78 -12t-72 -30l-69 139q50 31 114 48t130 17q152 0 224.5 -68zM352 161.5q28 24.5 32 65.5v15
q-32 4 -80 4q-43 0 -64.5 -15t-21.5 -42q0 -24 18.5 -38t49.5 -14q38 0 66 24.5zM492 744q0 -70 -50 -111t-135 -41t-135.5 41t-50.5 111l141 3q0 -52 45 -52q44 0 44 52zM384 802l-149 -9l-131 137l194 34z" />
    <glyph glyph-name="uni1EB2" unicode="&#x1eb2;" horiz-adv-x="819" 
d="M374.5 993.5q-6.5 6.5 -17.5 6.5q-10 0 -27 -9l-7 67q45 23 79 23q35 0 55.5 -18.5t20.5 -44.5q0 -32 -18.5 -63t-41.5 -49l-61 18q24 31 24 54q0 9 -6.5 15.5zM268.5 780q-50.5 41 -50.5 111l141 3q0 -52 45 -52q44 0 44 52l141 -3q0 -70 -50 -111t-135 -41t-135.5 41z
M819 0h-229l-40 106h-284l-41 -106h-226l301 700h218zM409 477l-86 -222h170z" />
    <glyph glyph-name="uni1EB3" unicode="&#x1eb3;" horiz-adv-x="640" 
d="M520.5 505q72.5 -68 72.5 -189v-316h-208v64q-25 -35 -69 -56t-102 -21q-87 0 -141.5 49t-54.5 129q0 82 59 128t174 46q68 0 133 -5q-1 37 -29 57t-84 20q-36 0 -78 -12t-72 -30l-69 139q50 31 114 48t130 17q152 0 224.5 -68zM352 161.5q28 24.5 32 65.5v15
q-32 4 -80 4q-43 0 -64.5 -15t-21.5 -42q0 -24 18.5 -38t49.5 -14q38 0 66 24.5zM492 744q0 -70 -50 -111t-135 -41t-135.5 41t-50.5 111l141 3q0 -52 45 -52q44 0 44 52zM252 810q31 38 31 68q0 11 -8.5 19t-22.5 8t-33 -10l-10 84q57 29 100 29q44 0 70 -24t26 -56
q0 -40 -23.5 -79t-52.5 -62z" />
    <glyph glyph-name="uni1EB4" unicode="&#x1eb4;" horiz-adv-x="819" 
d="M819 0h-229l-40 106h-284l-41 -106h-226l301 700h218zM409 477l-86 -222h170zM589 891q0 -70 -50 -111t-135 -41t-135.5 41t-50.5 111l141 3q0 -52 45 -52q44 0 44 52zM221 926q0 57 29.5 91t78.5 34q32 0 86 -15q34 -9 48 -9q17 0 27.5 10t10.5 26l91 -20
q0 -58 -29 -91.5t-78 -33.5q-33 0 -87 15q-34 9 -48 9q-17 0 -27 -10t-10 -26z" />
    <glyph glyph-name="uni1EB5" unicode="&#x1eb5;" horiz-adv-x="640" 
d="M520.5 505q72.5 -68 72.5 -189v-316h-208v64q-25 -35 -69 -56t-102 -21q-87 0 -141.5 49t-54.5 129q0 82 59 128t174 46q68 0 133 -5q-1 37 -29 57t-84 20q-36 0 -78 -12t-72 -30l-69 139q50 31 114 48t130 17q152 0 224.5 -68zM352 161.5q28 24.5 32 65.5v15
q-32 4 -80 4q-43 0 -64.5 -15t-21.5 -42q0 -24 18.5 -38t49.5 -14q38 0 66 24.5zM492 744q0 -70 -50 -111t-135 -41t-135.5 41t-50.5 111l141 3q0 -52 45 -52q44 0 44 52zM123 803q0 57 29.5 91t78.5 34q32 0 86 -15q34 -9 48 -9q17 0 27.5 10t10.5 26l91 -20
q0 -58 -29 -91.5t-78 -33.5q-33 0 -87 15q-34 9 -48 9q-17 0 -27 -10t-10 -26z" />
    <glyph glyph-name="uni1EB6" unicode="&#x1eb6;" horiz-adv-x="819" 
d="M819 0h-229l-40 106h-284l-41 -106h-226l301 700h218zM409 477l-86 -222h170zM290 -179v139h215v-139h-215zM589 891q0 -70 -50 -111t-135 -41t-135.5 41t-50.5 111l141 3q0 -52 45 -52q44 0 44 52z" />
    <glyph glyph-name="uni1EB7" unicode="&#x1eb7;" horiz-adv-x="636" 
d="M520.5 505q72.5 -68 72.5 -189v-316h-208v64q-25 -35 -69 -56t-102 -21q-87 0 -141.5 49t-54.5 129q0 82 59 128t174 46q68 0 133 -5q-1 37 -29 57t-84 20q-36 0 -78 -12t-72 -30l-69 139q50 31 114 48t130 17q152 0 224.5 -68zM352 161.5q28 24.5 32 65.5v15
q-32 4 -80 4q-43 0 -64.5 -15t-21.5 -42q0 -24 18.5 -38t49.5 -14q38 0 66 24.5zM185 -179v139h215v-139h-215zM488 744q0 -70 -50 -111t-135 -41t-135.5 41t-50.5 111l141 3q0 -52 45 -52q44 0 44 52z" />
    <glyph glyph-name="uni1EB8" unicode="&#x1eb8;" horiz-adv-x="695" 
d="M272 277v-105h390v-172h-603v700h594v-172h-381v-94h332v-157h-332zM230 -179v139h215v-139h-215z" />
    <glyph glyph-name="uni1EB9" unicode="&#x1eb9;" horiz-adv-x="644" 
d="M231 228q9 -41 42.5 -62t84.5 -21q71 0 117 51l117 -104q-47 -49 -106 -76t-138 -27q-92 0 -165 37.5t-114 104t-41 149.5q0 84 39 150t110 103.5t163 37.5q83 0 148 -34.5t101.5 -94.5t36.5 -134q0 -37 -10 -80h-385zM266.5 393q-27.5 -24 -35.5 -66h199
q-6 43 -30.5 66.5t-63.5 23.5q-42 0 -69.5 -24zM210 -180v139h215v-139h-215z" />
    <glyph glyph-name="uni1EBA" unicode="&#x1eba;" horiz-adv-x="695" 
d="M272 277v-105h390v-172h-603v700h594v-172h-381v-94h332v-157h-332zM292 758q31 38 31 68q0 11 -8.5 19t-22.5 8t-33 -10l-10 84q57 29 100 29q44 0 70 -24t26 -56q0 -40 -23.5 -79t-52.5 -62z" />
    <glyph glyph-name="uni1EBB" unicode="&#x1ebb;" horiz-adv-x="644" 
d="M231 228q9 -41 42.5 -62t84.5 -21q71 0 117 51l117 -104q-47 -49 -106 -76t-138 -27q-92 0 -165 37.5t-114 104t-41 149.5q0 84 39 150t110 103.5t163 37.5q83 0 148 -34.5t101.5 -94.5t36.5 -134q0 -37 -10 -80h-385zM266.5 393q-27.5 -24 -35.5 -66h199
q-6 43 -30.5 66.5t-63.5 23.5q-42 0 -69.5 -24zM273 617q31 38 31 68q0 11 -8.5 19t-22.5 8t-33 -10l-10 84q57 29 100 29q44 0 70 -24t26 -56q0 -40 -23.5 -79t-52.5 -62z" />
    <glyph glyph-name="uni1EBC" unicode="&#x1ebc;" horiz-adv-x="695" 
d="M272 277v-105h390v-172h-603v700h594v-172h-381v-94h332v-157h-332zM160 757q0 57 29.5 91t78.5 34q32 0 86 -15q34 -9 48 -9q17 0 27.5 10t10.5 26l91 -20q0 -58 -29 -91.5t-78 -33.5q-33 0 -87 15q-34 9 -48 9q-17 0 -27 -10t-10 -26z" />
    <glyph glyph-name="uni1EBD" unicode="&#x1ebd;" horiz-adv-x="644" 
d="M231 228q9 -41 42.5 -62t84.5 -21q71 0 117 51l117 -104q-47 -49 -106 -76t-138 -27q-92 0 -165 37.5t-114 104t-41 149.5q0 84 39 150t110 103.5t163 37.5q83 0 148 -34.5t101.5 -94.5t36.5 -134q0 -37 -10 -80h-385zM266.5 393q-27.5 -24 -35.5 -66h199
q-6 43 -30.5 66.5t-63.5 23.5q-42 0 -69.5 -24zM142 610q0 57 29.5 91t78.5 34q32 0 86 -15q34 -9 48 -9q17 0 27.5 10t10.5 26l91 -20q0 -58 -29 -91.5t-78 -33.5q-33 0 -87 15q-34 9 -48 9q-17 0 -27 -10t-10 -26z" />
    <glyph glyph-name="uni1EBE" unicode="&#x1ebe;" horiz-adv-x="695" 
d="M386 742l-37 70l-38 -70l-159 8l108 136h178l60 -76l74 112l149 -31l-103 -92l-115 6l43 -55zM604 277h-332v-105h390v-172h-603v700h594v-172h-381v-94h332v-157z" />
    <glyph glyph-name="uni1EBF" unicode="&#x1ebf;" horiz-adv-x="644" 
d="M231 228q9 -41 42.5 -62t84.5 -21q71 0 117 51l117 -104q-47 -49 -106 -76t-138 -27q-92 0 -165 37.5t-114 104t-41 149.5q0 84 39 150t110 103.5t163 37.5q83 0 148 -34.5t101.5 -94.5t36.5 -134q0 -37 -10 -80h-385zM266.5 393q-27.5 -24 -35.5 -66h199
q-6 43 -30.5 66.5t-63.5 23.5q-42 0 -69.5 -24zM415 760l105 -152l-156 -8l-36 78l-37 -78l-157 8l106 152h175zM531 938l-131 -137l-149 9l86 162z" />
    <glyph glyph-name="uni1EC0" unicode="&#x1ec0;" horiz-adv-x="695" 
d="M152 750l47 60l-101 -6l-103 93l149 30l68 -102l48 61h178l108 -136l-160 -8l-37 70l-38 -70zM272 277v-105h390v-172h-603v700h594v-172h-381v-94h332v-157h-332z" />
    <glyph glyph-name="uni1EC1" unicode="&#x1ec1;" horiz-adv-x="644" 
d="M231 228q9 -41 42.5 -62t84.5 -21q71 0 117 51l117 -104q-47 -49 -106 -76t-138 -27q-92 0 -165 37.5t-114 104t-41 149.5q0 84 39 150t110 103.5t163 37.5q83 0 148 -34.5t101.5 -94.5t36.5 -134q0 -37 -10 -80h-385zM266.5 393q-27.5 -24 -35.5 -66h199
q-6 43 -30.5 66.5t-63.5 23.5q-42 0 -69.5 -24zM415 760l105 -152l-156 -8l-36 78l-37 -78l-157 8l106 152h175zM405 810l-149 -9l-131 137l194 34z" />
    <glyph glyph-name="uni1EC2" unicode="&#x1ec2;" horiz-adv-x="695" 
d="M538 866.5q-6 6.5 -17 6.5q-13 0 -26 -8l-8 65q41 22 78 22q34 0 54 -18t20 -43q0 -31 -18 -61t-41 -48l-59 18q23 31 23 52q0 8 -6 14.5zM386 742l-37 70l-38 -70l-159 8l108 136h178l108 -136zM272 277v-105h390v-172h-603v700h594v-172h-381v-94h332v-157h-332z" />
    <glyph glyph-name="uni1EC3" unicode="&#x1ec3;" horiz-adv-x="644" 
d="M231 228q9 -41 42.5 -62t84.5 -21q71 0 117 51l117 -104q-47 -49 -106 -76t-138 -27q-92 0 -165 37.5t-114 104t-41 149.5q0 84 39 150t110 103.5t163 37.5q83 0 148 -34.5t101.5 -94.5t36.5 -134q0 -37 -10 -80h-385zM266.5 393q-27.5 -24 -35.5 -66h199
q-6 43 -30.5 66.5t-63.5 23.5q-42 0 -69.5 -24zM415 760l105 -152l-156 -8l-36 78l-37 -78l-157 8l106 152h175zM273 818q31 38 31 68q0 11 -8.5 19t-22.5 8t-33 -10l-10 84q57 29 100 29q44 0 70 -24t26 -56q0 -40 -23.5 -79t-52.5 -62z" />
    <glyph glyph-name="uni1EC4" unicode="&#x1ec4;" horiz-adv-x="695" 
d="M272 277v-105h390v-172h-603v700h594v-172h-381v-94h332v-157h-332zM438 886l108 -136l-160 -8l-37 70l-38 -70l-159 8l108 136h178zM160 940q0 57 29.5 91t78.5 34q32 0 86 -15q34 -9 48 -9q17 0 27.5 10t10.5 26l91 -20q0 -58 -29 -91.5t-78 -33.5q-33 0 -87 15
q-34 9 -48 9q-17 0 -27 -10t-10 -26z" />
    <glyph glyph-name="uni1EC5" unicode="&#x1ec5;" horiz-adv-x="644" 
d="M231 228q9 -41 42.5 -62t84.5 -21q71 0 117 51l117 -104q-47 -49 -106 -76t-138 -27q-92 0 -165 37.5t-114 104t-41 149.5q0 84 39 150t110 103.5t163 37.5q83 0 148 -34.5t101.5 -94.5t36.5 -134q0 -37 -10 -80h-385zM266.5 393q-27.5 -24 -35.5 -66h199
q-6 43 -30.5 66.5t-63.5 23.5q-42 0 -69.5 -24zM415 760l105 -152l-156 -8l-36 78l-37 -78l-157 8l106 152h175zM142 811q0 57 29.5 91t78.5 34q32 0 86 -15q34 -9 48 -9q17 0 27.5 10t10.5 26l91 -20q0 -58 -29 -91.5t-78 -33.5q-33 0 -87 15q-34 9 -48 9q-17 0 -27 -10
t-10 -26z" />
    <glyph glyph-name="uni1EC6" unicode="&#x1ec6;" horiz-adv-x="695" 
d="M272 277v-105h390v-172h-603v700h594v-172h-381v-94h332v-157h-332zM230 -179v139h215v-139h-215zM438 886l108 -136l-160 -8l-37 70l-38 -70l-159 8l108 136h178z" />
    <glyph glyph-name="uni1EC7" unicode="&#x1ec7;" horiz-adv-x="644" 
d="M231 228q9 -41 42.5 -62t84.5 -21q71 0 117 51l117 -104q-47 -49 -106 -76t-138 -27q-92 0 -165 37.5t-114 104t-41 149.5q0 84 39 150t110 103.5t163 37.5q83 0 148 -34.5t101.5 -94.5t36.5 -134q0 -37 -10 -80h-385zM266.5 393q-27.5 -24 -35.5 -66h199
q-6 43 -30.5 66.5t-63.5 23.5q-42 0 -69.5 -24zM210 -180v139h215v-139h-215zM415 760l105 -152l-156 -8l-36 78l-37 -78l-157 8l106 152h175z" />
    <glyph glyph-name="uni1EC8" unicode="&#x1ec8;" horiz-adv-x="336" 
d="M277 0h-218v700h218v-700zM113 758q31 38 31 68q0 11 -8.5 19t-22.5 8t-33 -10l-10 84q57 29 100 29q44 0 70 -24t26 -56q0 -40 -23.5 -79t-52.5 -62z" />
    <glyph glyph-name="uni1EC9" unicode="&#x1ec9;" horiz-adv-x="308" 
d="M258 0h-209v559h209v-559zM98 617q31 38 31 68q0 11 -8.5 19t-22.5 8t-33 -10l-10 84q57 29 100 29q44 0 70 -24t26 -56q0 -40 -23.5 -79t-52.5 -62z" />
    <glyph glyph-name="uni1ECA" unicode="&#x1eca;" horiz-adv-x="336" 
d="M277 0h-218v700h218v-700zM49 -179v139h215v-139h-215z" />
    <glyph glyph-name="uni1ECB" unicode="&#x1ecb;" horiz-adv-x="308" 
d="M258 0h-209v559h209v-559zM261 607h-215v139h215v-139zM31 -179v139h215v-139h-215z" />
    <glyph glyph-name="uni1ECC" unicode="&#x1ecc;" horiz-adv-x="846" 
d="M224 33q-88 47 -137.5 129.5t-49.5 186.5t49.5 187.5t138 130.5t198.5 47q111 0 199 -47t137.5 -129.5t49.5 -186.5t-50 -187.5t-138 -130.5t-199 -47q-110 0 -198 47zM539.5 221q45.5 49 45.5 128q0 52 -20.5 93t-57.5 64t-84 23t-84 -22.5t-57.5 -63.5t-20.5 -93
t20.5 -92.5t57.5 -63t84 -22.5q71 0 116.5 49zM304 -179v139h215v-139h-215z" />
    <glyph glyph-name="uni1ECD" unicode="&#x1ecd;" 
d="M183 24q-73 38 -114 105t-41 151q0 83 41.5 150t114.5 105t165 38t165 -37.5t114.5 -104.5t41.5 -150q0 -84 -41.5 -151t-115 -105.5t-165.5 -38.5t-165 38zM428 193.5q31 33.5 31 86.5t-31 86t-80 33q-48 0 -79 -32.5t-31 -84.5q0 -54 31.5 -88t79.5 -34t79 33.5z
M230 -179v139h215v-139h-215z" />
    <glyph glyph-name="uni1ECE" unicode="&#x1ece;" horiz-adv-x="846" 
d="M224 33q-88 47 -137.5 129.5t-49.5 186.5t49.5 187.5t138 130.5t198.5 47q111 0 199 -47t137.5 -129.5t49.5 -186.5t-50 -187.5t-138 -130.5t-199 -47q-110 0 -198 47zM539.5 221q45.5 49 45.5 128q0 52 -20.5 93t-57.5 64t-84 23t-84 -22.5t-57.5 -63.5t-20.5 -93
t20.5 -92.5t57.5 -63t84 -22.5q71 0 116.5 49zM368 758q31 38 31 68q0 11 -8.5 19t-22.5 8t-33 -10l-10 84q57 29 100 29q44 0 70 -24t26 -56q0 -40 -23.5 -79t-52.5 -62z" />
    <glyph glyph-name="uni1ECF" unicode="&#x1ecf;" 
d="M183 24q-73 38 -114 105t-41 151q0 83 41.5 150t114.5 105t165 38t165 -37.5t114.5 -104.5t41.5 -150q0 -84 -41.5 -151t-115 -105.5t-165.5 -38.5t-165 38zM428 193.5q31 33.5 31 86.5t-31 86t-80 33q-48 0 -79 -32.5t-31 -84.5q0 -54 31.5 -88t79.5 -34t79 33.5z
M293 617q31 38 31 68q0 11 -8.5 19t-22.5 8t-33 -10l-10 84q57 29 100 29q44 0 70 -24t26 -56q0 -40 -23.5 -79t-52.5 -62z" />
    <glyph glyph-name="uni1ED0" unicode="&#x1ed0;" horiz-adv-x="846" 
d="M224 33q-88 47 -137.5 129.5t-49.5 186.5t49.5 187.5t138 130.5t198.5 47q111 0 199 -47t137.5 -129.5t49.5 -186.5t-50 -187.5t-138 -130.5t-199 -47q-110 0 -198 47zM539.5 221q45.5 49 45.5 128q0 52 -20.5 93t-57.5 64t-84 23t-84 -22.5t-57.5 -63.5t-20.5 -93
t20.5 -92.5t57.5 -63t84 -22.5q71 0 116.5 49zM513 886l108 -136l-160 -8l-37 70l-38 -70l-159 8l108 136h178zM621 1035l-123 -111l-146 8l91 139z" />
    <glyph glyph-name="uni1ED1" unicode="&#x1ed1;" 
d="M183 24q-73 38 -114 105t-41 151q0 83 41.5 150t114.5 105t165 38t165 -37.5t114.5 -104.5t41.5 -150q0 -84 -41.5 -151t-115 -105.5t-165.5 -38.5t-165 38zM428 193.5q31 33.5 31 86.5t-31 86t-80 33q-48 0 -79 -32.5t-31 -84.5q0 -54 31.5 -88t79.5 -34t79 33.5z
M436 760l105 -152l-156 -8l-36 78l-37 -78l-157 8l106 152h175zM552 938l-131 -137l-149 9l86 162z" />
    <glyph glyph-name="uni1ED2" unicode="&#x1ed2;" horiz-adv-x="846" 
d="M224 33q-88 47 -137.5 129.5t-49.5 186.5t49.5 187.5t138 130.5t198.5 47q111 0 199 -47t137.5 -129.5t49.5 -186.5t-50 -187.5t-138 -130.5t-199 -47q-110 0 -198 47zM539.5 221q45.5 49 45.5 128q0 52 -20.5 93t-57.5 64t-84 23t-84 -22.5t-57.5 -63.5t-20.5 -93
t20.5 -92.5t57.5 -63t84 -22.5q71 0 116.5 49zM513 886l108 -136l-160 -8l-37 70l-38 -70l-159 8l108 136h178zM494 932l-146 -8l-123 111l178 36z" />
    <glyph glyph-name="uni1ED3" unicode="&#x1ed3;" 
d="M183 24q-73 38 -114 105t-41 151q0 83 41.5 150t114.5 105t165 38t165 -37.5t114.5 -104.5t41.5 -150q0 -84 -41.5 -151t-115 -105.5t-165.5 -38.5t-165 38zM428 193.5q31 33.5 31 86.5t-31 86t-80 33q-48 0 -79 -32.5t-31 -84.5q0 -54 31.5 -88t79.5 -34t79 33.5z
M436 760l105 -152l-156 -8l-36 78l-37 -78l-157 8l106 152h175zM426 810l-149 -9l-131 137l194 34z" />
    <glyph glyph-name="uni1ED4" unicode="&#x1ed4;" horiz-adv-x="846" 
d="M224 33q-88 47 -137.5 129.5t-49.5 186.5t49.5 187.5t138 130.5t198.5 47q111 0 199 -47t137.5 -129.5t49.5 -186.5t-50 -187.5t-138 -130.5t-199 -47q-110 0 -198 47zM539.5 221q45.5 49 45.5 128q0 52 -20.5 93t-57.5 64t-84 23t-84 -22.5t-57.5 -63.5t-20.5 -93
t20.5 -92.5t57.5 -63t84 -22.5q71 0 116.5 49zM513 886l108 -136l-160 -8l-37 70l-38 -70l-159 8l108 136h178zM368 941q31 38 31 68q0 11 -8.5 19t-22.5 8t-33 -10l-10 84q57 29 100 29q44 0 70 -24t26 -56q0 -40 -23.5 -79t-52.5 -62z" />
    <glyph glyph-name="uni1ED5" unicode="&#x1ed5;" 
d="M183 24q-73 38 -114 105t-41 151q0 83 41.5 150t114.5 105t165 38t165 -37.5t114.5 -104.5t41.5 -150q0 -84 -41.5 -151t-115 -105.5t-165.5 -38.5t-165 38zM428 193.5q31 33.5 31 86.5t-31 86t-80 33q-48 0 -79 -32.5t-31 -84.5q0 -54 31.5 -88t79.5 -34t79 33.5z
M436 760l105 -152l-156 -8l-36 78l-37 -78l-157 8l106 152h175zM293 818q31 38 31 68q0 11 -8.5 19t-22.5 8t-33 -10l-10 84q57 29 100 29q44 0 70 -24t26 -56q0 -40 -23.5 -79t-52.5 -62z" />
    <glyph glyph-name="uni1ED6" unicode="&#x1ed6;" horiz-adv-x="846" 
d="M224 33q-88 47 -137.5 129.5t-49.5 186.5t49.5 187.5t138 130.5t198.5 47q111 0 199 -47t137.5 -129.5t49.5 -186.5t-50 -187.5t-138 -130.5t-199 -47q-110 0 -198 47zM539.5 221q45.5 49 45.5 128q0 52 -20.5 93t-57.5 64t-84 23t-84 -22.5t-57.5 -63.5t-20.5 -93
t20.5 -92.5t57.5 -63t84 -22.5q71 0 116.5 49zM513 886l108 -136l-160 -8l-37 70l-38 -70l-159 8l108 136h178zM235 940q0 57 29.5 91t78.5 34q32 0 86 -15q34 -9 48 -9q17 0 27.5 10t10.5 26l91 -20q0 -58 -29 -91.5t-78 -33.5q-33 0 -87 15q-34 9 -48 9q-17 0 -27 -10
t-10 -26z" />
    <glyph glyph-name="uni1ED7" unicode="&#x1ed7;" 
d="M183 24q-73 38 -114 105t-41 151q0 83 41.5 150t114.5 105t165 38t165 -37.5t114.5 -104.5t41.5 -150q0 -84 -41.5 -151t-115 -105.5t-165.5 -38.5t-165 38zM428 193.5q31 33.5 31 86.5t-31 86t-80 33q-48 0 -79 -32.5t-31 -84.5q0 -54 31.5 -88t79.5 -34t79 33.5z
M436 760l105 -152l-156 -8l-36 78l-37 -78l-157 8l106 152h175zM163 811q0 57 29.5 91t78.5 34q32 0 86 -15q34 -9 48 -9q17 0 27.5 10t10.5 26l91 -20q0 -58 -29 -91.5t-78 -33.5q-33 0 -87 15q-34 9 -48 9q-17 0 -27 -10t-10 -26z" />
    <glyph glyph-name="uni1ED8" unicode="&#x1ed8;" horiz-adv-x="846" 
d="M224 33q-88 47 -137.5 129.5t-49.5 186.5t49.5 187.5t138 130.5t198.5 47q111 0 199 -47t137.5 -129.5t49.5 -186.5t-50 -187.5t-138 -130.5t-199 -47q-110 0 -198 47zM539.5 221q45.5 49 45.5 128q0 52 -20.5 93t-57.5 64t-84 23t-84 -22.5t-57.5 -63.5t-20.5 -93
t20.5 -92.5t57.5 -63t84 -22.5q71 0 116.5 49zM304 -179v139h215v-139h-215zM513 886l108 -136l-160 -8l-37 70l-38 -70l-159 8l108 136h178z" />
    <glyph glyph-name="uni1ED9" unicode="&#x1ed9;" 
d="M183 24q-73 38 -114 105t-41 151q0 83 41.5 150t114.5 105t165 38t165 -37.5t114.5 -104.5t41.5 -150q0 -84 -41.5 -151t-115 -105.5t-165.5 -38.5t-165 38zM428 193.5q31 33.5 31 86.5t-31 86t-80 33q-48 0 -79 -32.5t-31 -84.5q0 -54 31.5 -88t79.5 -34t79 33.5z
M230 -179v139h215v-139h-215zM436 760l105 -152l-156 -8l-36 78l-37 -78l-157 8l106 152h175z" />
    <glyph glyph-name="uni1EDA" unicode="&#x1eda;" horiz-adv-x="846" 
d="M808 779q15 -43 15 -80q0 -48 -23.5 -81t-64.5 -44q74 -96 74 -223q0 -104 -50 -187.5t-138 -130.5t-199 -47q-110 0 -198 47t-137.5 129.5t-49.5 186.5t49.5 187.5t138 130.5t198.5 47q83 0 153 -26q30 3 44 13.5t14 32.5q0 14 -6 35zM539.5 221q45.5 49 45.5 128
q0 52 -20.5 93t-57.5 64t-84 23t-84 -22.5t-57.5 -63.5t-20.5 -93t20.5 -92.5t57.5 -63t84 -22.5q71 0 116.5 49zM621 852l-123 -111l-146 8l91 139z" />
    <glyph glyph-name="uni1EDB" unicode="&#x1edb;" 
d="M701 646q15 -43 15 -80q0 -50 -25 -82.5t-68 -44.5q47 -69 47 -158q0 -84 -41.5 -151t-115 -105.5t-165.5 -38.5t-165 38t-114 105t-41 151q0 83 41.5 150t114.5 105t165 38q62 0 119 -19q31 4 45.5 14.5t14.5 32.5q0 11 -7 35zM428 193.5q31 33.5 31 86.5t-31 86t-80 33
q-48 0 -79 -32.5t-31 -84.5q0 -54 31.5 -88t79.5 -34t79 33.5zM552 737l-131 -137l-149 9l86 162z" />
    <glyph glyph-name="uni1EDC" unicode="&#x1edc;" horiz-adv-x="846" 
d="M808 779q15 -43 15 -80q0 -48 -23.5 -81t-64.5 -44q74 -96 74 -223q0 -104 -50 -187.5t-138 -130.5t-199 -47q-110 0 -198 47t-137.5 129.5t-49.5 186.5t49.5 187.5t138 130.5t198.5 47q83 0 153 -26q30 3 44 13.5t14 32.5q0 14 -6 35zM539.5 221q45.5 49 45.5 128
q0 52 -20.5 93t-57.5 64t-84 23t-84 -22.5t-57.5 -63.5t-20.5 -93t20.5 -92.5t57.5 -63t84 -22.5q71 0 116.5 49zM494 749l-146 -8l-123 111l178 36z" />
    <glyph glyph-name="uni1EDD" unicode="&#x1edd;" 
d="M701 646q15 -43 15 -80q0 -50 -25 -82.5t-68 -44.5q47 -69 47 -158q0 -84 -41.5 -151t-115 -105.5t-165.5 -38.5t-165 38t-114 105t-41 151q0 83 41.5 150t114.5 105t165 38q62 0 119 -19q31 4 45.5 14.5t14.5 32.5q0 11 -7 35zM428 193.5q31 33.5 31 86.5t-31 86t-80 33
q-48 0 -79 -32.5t-31 -84.5q0 -54 31.5 -88t79.5 -34t79 33.5zM426 609l-149 -9l-131 137l194 34z" />
    <glyph glyph-name="uni1EDE" unicode="&#x1ede;" horiz-adv-x="846" 
d="M808 779q15 -43 15 -80q0 -48 -23.5 -81t-64.5 -44q74 -96 74 -223q0 -104 -50 -187.5t-138 -130.5t-199 -47q-110 0 -198 47t-137.5 129.5t-49.5 186.5t49.5 187.5t138 130.5t198.5 47q83 0 153 -26q30 3 44 13.5t14 32.5q0 14 -6 35zM539.5 221q45.5 49 45.5 128
q0 52 -20.5 93t-57.5 64t-84 23t-84 -22.5t-57.5 -63.5t-20.5 -93t20.5 -92.5t57.5 -63t84 -22.5q71 0 116.5 49zM368 758q31 38 31 68q0 11 -8.5 19t-22.5 8t-33 -10l-10 84q57 29 100 29q44 0 70 -24t26 -56q0 -40 -23.5 -79t-52.5 -62z" />
    <glyph glyph-name="uni1EDF" unicode="&#x1edf;" 
d="M701 646q15 -43 15 -80q0 -50 -25 -82.5t-68 -44.5q47 -69 47 -158q0 -84 -41.5 -151t-115 -105.5t-165.5 -38.5t-165 38t-114 105t-41 151q0 83 41.5 150t114.5 105t165 38q62 0 119 -19q31 4 45.5 14.5t14.5 32.5q0 11 -7 35zM428 193.5q31 33.5 31 86.5t-31 86t-80 33
q-48 0 -79 -32.5t-31 -84.5q0 -54 31.5 -88t79.5 -34t79 33.5zM293 617q31 38 31 68q0 11 -8.5 19t-22.5 8t-33 -10l-10 84q57 29 100 29q44 0 70 -24t26 -56q0 -40 -23.5 -79t-52.5 -62z" />
    <glyph glyph-name="uni1EE0" unicode="&#x1ee0;" horiz-adv-x="846" 
d="M808 779q15 -43 15 -80q0 -48 -23.5 -81t-64.5 -44q74 -96 74 -223q0 -104 -50 -187.5t-138 -130.5t-199 -47q-110 0 -198 47t-137.5 129.5t-49.5 186.5t49.5 187.5t138 130.5t198.5 47q83 0 153 -26q30 3 44 13.5t14 32.5q0 14 -6 35zM539.5 221q45.5 49 45.5 128
q0 52 -20.5 93t-57.5 64t-84 23t-84 -22.5t-57.5 -63.5t-20.5 -93t20.5 -92.5t57.5 -63t84 -22.5q71 0 116.5 49zM235 757q0 57 29.5 91t78.5 34q32 0 86 -15q34 -9 48 -9q17 0 27.5 10t10.5 26l91 -20q0 -58 -29 -91.5t-78 -33.5q-33 0 -87 15q-34 9 -48 9q-17 0 -27 -10
t-10 -26z" />
    <glyph glyph-name="uni1EE1" unicode="&#x1ee1;" 
d="M701 646q15 -43 15 -80q0 -50 -25 -82.5t-68 -44.5q47 -69 47 -158q0 -84 -41.5 -151t-115 -105.5t-165.5 -38.5t-165 38t-114 105t-41 151q0 83 41.5 150t114.5 105t165 38q62 0 119 -19q31 4 45.5 14.5t14.5 32.5q0 11 -7 35zM428 193.5q31 33.5 31 86.5t-31 86t-80 33
q-48 0 -79 -32.5t-31 -84.5q0 -54 31.5 -88t79.5 -34t79 33.5zM163 610q0 57 29.5 91t78.5 34q32 0 86 -15q34 -9 48 -9q17 0 27.5 10t10.5 26l91 -20q0 -58 -29 -91.5t-78 -33.5q-33 0 -87 15q-34 9 -48 9q-17 0 -27 -10t-10 -26z" />
    <glyph glyph-name="uni1EE2" unicode="&#x1ee2;" horiz-adv-x="846" 
d="M808 779q15 -43 15 -80q0 -48 -23.5 -81t-64.5 -44q74 -96 74 -223q0 -104 -50 -187.5t-138 -130.5t-199 -47q-110 0 -198 47t-137.5 129.5t-49.5 186.5t49.5 187.5t138 130.5t198.5 47q83 0 153 -26q30 3 44 13.5t14 32.5q0 14 -6 35zM539.5 221q45.5 49 45.5 128
q0 52 -20.5 93t-57.5 64t-84 23t-84 -22.5t-57.5 -63.5t-20.5 -93t20.5 -92.5t57.5 -63t84 -22.5q71 0 116.5 49zM304 -179v139h215v-139h-215z" />
    <glyph glyph-name="uni1EE3" unicode="&#x1ee3;" 
d="M701 646q15 -43 15 -80q0 -50 -25 -82.5t-68 -44.5q47 -69 47 -158q0 -84 -41.5 -151t-115 -105.5t-165.5 -38.5t-165 38t-114 105t-41 151q0 83 41.5 150t114.5 105t165 38q62 0 119 -19q31 4 45.5 14.5t14.5 32.5q0 11 -7 35zM428 193.5q31 33.5 31 86.5t-31 86t-80 33
q-48 0 -79 -32.5t-31 -84.5q0 -54 31.5 -88t79.5 -34t79 33.5zM230 -179v139h215v-139h-215z" />
    <glyph glyph-name="uni1EE4" unicode="&#x1ee4;" horiz-adv-x="770" 
d="M205.5 24.5q-76.5 38.5 -117.5 110t-41 168.5v397h219v-389q0 -66 30.5 -101t87.5 -35q58 0 90 35t32 101v389h216v-397q0 -97 -41 -168.5t-117 -110t-180 -38.5q-102 0 -178.5 38.5zM266 -179v139h215v-139h-215z" />
    <glyph glyph-name="uni1EE5" unicode="&#x1ee5;" horiz-adv-x="690" 
d="M432 559h209v-559h-209v71q-31 -40 -76 -62.5t-98 -22.5q-101 0 -157.5 60.5t-56.5 170.5v342h208v-303q0 -44 20.5 -67.5t60.5 -23.5q43 0 71 33t28 83v278zM229 -179v139h215v-139h-215z" />
    <glyph glyph-name="uni1EE6" unicode="&#x1ee6;" horiz-adv-x="770" 
d="M205.5 24.5q-76.5 38.5 -117.5 110t-41 168.5v397h219v-389q0 -66 30.5 -101t87.5 -35q58 0 90 35t32 101v389h216v-397q0 -97 -41 -168.5t-117 -110t-180 -38.5q-102 0 -178.5 38.5zM330 758q31 38 31 68q0 11 -8.5 19t-22.5 8t-33 -10l-10 84q57 29 100 29q44 0 70 -24
t26 -56q0 -40 -23.5 -79t-52.5 -62z" />
    <glyph glyph-name="uni1EE7" unicode="&#x1ee7;" horiz-adv-x="690" 
d="M432 559h209v-559h-209v71q-31 -40 -76 -62.5t-98 -22.5q-101 0 -157.5 60.5t-56.5 170.5v342h208v-303q0 -44 20.5 -67.5t60.5 -23.5q43 0 71 33t28 83v278zM279 617q31 38 31 68q0 11 -8.5 19t-22.5 8t-33 -10l-10 84q57 29 100 29q44 0 70 -24t26 -56q0 -40 -23.5 -79
t-52.5 -62z" />
    <glyph glyph-name="uni1EE8" unicode="&#x1ee8;" horiz-adv-x="850" 
d="M868 784q13 -38 13 -70q0 -54 -32.5 -84.5t-83.5 -30.5q-18 0 -43 5v-301q0 -97 -41 -168.5t-117 -110t-180 -38.5q-102 0 -178.5 38.5t-117.5 110t-41 168.5v397h219v-389q0 -66 30.5 -101t87.5 -35q58 0 90 35t32 101v389h153l1 3q29 3 42.5 12.5t13.5 29.5q0 13 -6 31
zM584 852l-123 -111l-146 8l91 139z" />
    <glyph glyph-name="uni1EE9" unicode="&#x1ee9;" horiz-adv-x="770" 
d="M781 640q12 -32 12 -66q0 -51 -30.5 -80t-79.5 -29q-23 0 -42 5v-470h-209v71q-31 -40 -76 -62.5t-98 -22.5q-101 0 -157.5 60.5t-56.5 170.5v342h208v-303q0 -44 20.5 -67.5t60.5 -23.5q43 0 71 33t28 83v278h152l1 4q27 3 39.5 12t12.5 27q0 15 -5 30zM538 737
l-131 -137l-149 9l86 162z" />
    <glyph glyph-name="uni1EEA" unicode="&#x1eea;" horiz-adv-x="850" 
d="M868 784q13 -38 13 -70q0 -54 -32.5 -84.5t-83.5 -30.5q-18 0 -43 5v-301q0 -97 -41 -168.5t-117 -110t-180 -38.5q-102 0 -178.5 38.5t-117.5 110t-41 168.5v397h219v-389q0 -66 30.5 -101t87.5 -35q58 0 90 35t32 101v389h153l1 3q29 3 42.5 12.5t13.5 29.5q0 13 -6 31
zM457 749l-146 -8l-123 111l178 36z" />
    <glyph glyph-name="uni1EEB" unicode="&#x1eeb;" horiz-adv-x="770" 
d="M781 640q12 -32 12 -66q0 -51 -30.5 -80t-79.5 -29q-23 0 -42 5v-470h-209v71q-31 -40 -76 -62.5t-98 -22.5q-101 0 -157.5 60.5t-56.5 170.5v342h208v-303q0 -44 20.5 -67.5t60.5 -23.5q43 0 71 33t28 83v278h152l1 4q27 3 39.5 12t12.5 27q0 15 -5 30zM412 609l-149 -9
l-131 137l194 34z" />
    <glyph glyph-name="uni1EEC" unicode="&#x1eec;" horiz-adv-x="850" 
d="M868 784q13 -38 13 -70q0 -54 -32.5 -84.5t-83.5 -30.5q-18 0 -43 5v-301q0 -97 -41 -168.5t-117 -110t-180 -38.5q-102 0 -178.5 38.5t-117.5 110t-41 168.5v397h219v-389q0 -66 30.5 -101t87.5 -35q58 0 90 35t32 101v389h153l1 3q29 3 42.5 12.5t13.5 29.5q0 13 -6 31
zM330 758q31 38 31 68q0 11 -8.5 19t-22.5 8t-33 -10l-10 84q57 29 100 29q44 0 70 -24t26 -56q0 -40 -23.5 -79t-52.5 -62z" />
    <glyph glyph-name="uni1EED" unicode="&#x1eed;" horiz-adv-x="770" 
d="M781 640q12 -32 12 -66q0 -51 -30.5 -80t-79.5 -29q-23 0 -42 5v-470h-209v71q-31 -40 -76 -62.5t-98 -22.5q-101 0 -157.5 60.5t-56.5 170.5v342h208v-303q0 -44 20.5 -67.5t60.5 -23.5q43 0 71 33t28 83v278h152l1 4q27 3 39.5 12t12.5 27q0 15 -5 30zM279 617
q31 38 31 68q0 11 -8.5 19t-22.5 8t-33 -10l-10 84q57 29 100 29q44 0 70 -24t26 -56q0 -40 -23.5 -79t-52.5 -62z" />
    <glyph glyph-name="uni1EEE" unicode="&#x1eee;" horiz-adv-x="850" 
d="M868 784q13 -38 13 -70q0 -54 -32.5 -84.5t-83.5 -30.5q-18 0 -43 5v-301q0 -97 -41 -168.5t-117 -110t-180 -38.5q-102 0 -178.5 38.5t-117.5 110t-41 168.5v397h219v-389q0 -66 30.5 -101t87.5 -35q58 0 90 35t32 101v389h153l1 3q29 3 42.5 12.5t13.5 29.5q0 13 -6 31
zM197 757q0 57 29.5 91t78.5 34q32 0 86 -15q34 -9 48 -9q17 0 27.5 10t10.5 26l91 -20q0 -58 -29 -91.5t-78 -33.5q-33 0 -87 15q-34 9 -48 9q-17 0 -27 -10t-10 -26z" />
    <glyph glyph-name="uni1EEF" unicode="&#x1eef;" horiz-adv-x="770" 
d="M781 640q12 -32 12 -66q0 -51 -30.5 -80t-79.5 -29q-23 0 -42 5v-470h-209v71q-31 -40 -76 -62.5t-98 -22.5q-101 0 -157.5 60.5t-56.5 170.5v342h208v-303q0 -44 20.5 -67.5t60.5 -23.5q43 0 71 33t28 83v278h152l1 4q27 3 39.5 12t12.5 27q0 15 -5 30zM149 610
q0 57 29.5 91t78.5 34q32 0 86 -15q34 -9 48 -9q17 0 27.5 10t10.5 26l91 -20q0 -58 -29 -91.5t-78 -33.5q-33 0 -87 15q-34 9 -48 9q-17 0 -27 -10t-10 -26z" />
    <glyph glyph-name="uni1EF0" unicode="&#x1ef0;" horiz-adv-x="850" 
d="M868 784q13 -38 13 -70q0 -54 -32.5 -84.5t-83.5 -30.5q-18 0 -43 5v-301q0 -97 -41 -168.5t-117 -110t-180 -38.5q-102 0 -178.5 38.5t-117.5 110t-41 168.5v397h219v-389q0 -66 30.5 -101t87.5 -35q58 0 90 35t32 101v389h153l1 3q29 3 42.5 12.5t13.5 29.5q0 13 -6 31
zM266 -179v139h215v-139h-215z" />
    <glyph glyph-name="uni1EF1" unicode="&#x1ef1;" horiz-adv-x="770" 
d="M781 640q12 -32 12 -66q0 -51 -30.5 -80t-79.5 -29q-23 0 -42 5v-470h-209v71q-31 -40 -76 -62.5t-98 -22.5q-101 0 -157.5 60.5t-56.5 170.5v342h208v-303q0 -44 20.5 -67.5t60.5 -23.5q43 0 71 33t28 83v278h152l1 4q27 3 39.5 12t12.5 27q0 15 -5 30zM229 -179v139
h215v-139h-215z" />
    <glyph glyph-name="Ygrave" unicode="&#x1ef2;" horiz-adv-x="738" 
d="M508 700h236l-266 -448v-252h-218v256l-266 444h236l140 -267zM440 749l-146 -8l-123 111l178 36z" />
    <glyph glyph-name="ygrave" unicode="&#x1ef3;" horiz-adv-x="686" 
d="M455 559h223l-228 -559l-10 -24q-26 -60 -56 -94.5t-73 -50.5t-109 -16q-42 0 -87 11t-76 26l39 135q53 -16 89 -16q53 0 69 41l2 5l-226 542h221l111 -333h1zM422 609l-149 -9l-131 137l194 34z" />
    <glyph glyph-name="uni1EF4" unicode="&#x1ef4;" horiz-adv-x="738" 
d="M508 700h236l-266 -448v-252h-218v256l-266 444h236l140 -267zM250 -179v139h215v-139h-215z" />
    <glyph glyph-name="uni1EF5" unicode="&#x1ef5;" horiz-adv-x="686" 
d="M440 -24l-16 -35h147v-103h-159v82q-34 -57 -82 -81t-128 -24q-42 0 -87 11t-76 26l39 135q53 -16 89 -16q53 0 69 41l2 5l-226 542h221l111 -333h1l110 333h223l-228 -559z" />
    <glyph glyph-name="uni1EF6" unicode="&#x1ef6;" horiz-adv-x="738" 
d="M508 700h236l-266 -448v-252h-218v256l-266 444h236l140 -267zM314 758q31 38 31 68q0 11 -8.5 19t-22.5 8t-33 -10l-10 84q57 29 100 29q44 0 70 -24t26 -56q0 -40 -23.5 -79t-52.5 -62z" />
    <glyph glyph-name="uni1EF7" unicode="&#x1ef7;" horiz-adv-x="686" 
d="M455 559h223l-228 -559l-10 -24q-26 -60 -56 -94.5t-73 -50.5t-109 -16q-42 0 -87 11t-76 26l39 135q53 -16 89 -16q53 0 69 41l2 5l-226 542h221l111 -333h1zM290 617q31 38 31 68q0 11 -8.5 19t-22.5 8t-33 -10l-10 84q57 29 100 29q44 0 70 -24t26 -56
q0 -40 -23.5 -79t-52.5 -62z" />
    <glyph glyph-name="uni1EF8" unicode="&#x1ef8;" horiz-adv-x="738" 
d="M508 700h236l-266 -448v-252h-218v256l-266 444h236l140 -267zM181 757q0 57 29.5 91t78.5 34q32 0 86 -15q34 -9 48 -9q17 0 27.5 10t10.5 26l91 -20q0 -58 -29 -91.5t-78 -33.5q-33 0 -87 15q-34 9 -48 9q-17 0 -27 -10t-10 -26z" />
    <glyph glyph-name="uni1EF9" unicode="&#x1ef9;" horiz-adv-x="686" 
d="M455 559h223l-228 -559l-10 -24q-26 -60 -56 -94.5t-73 -50.5t-109 -16q-42 0 -87 11t-76 26l39 135q53 -16 89 -16q53 0 69 41l2 5l-226 542h221l111 -333h1zM160 610q0 57 29.5 91t78.5 34q32 0 86 -15q34 -9 48 -9q17 0 27.5 10t10.5 26l91 -20q0 -58 -29 -91.5
t-78 -33.5q-33 0 -87 15q-34 9 -48 9q-17 0 -27 -10t-10 -26z" />
    <glyph glyph-name="uni2000" unicode="&#x2000;" horiz-adv-x="507" 
 />
    <glyph glyph-name="uni2001" unicode="&#x2001;" horiz-adv-x="1007" 
 />
    <glyph glyph-name="uni2002" unicode="&#x2002;" horiz-adv-x="507" 
 />
    <glyph glyph-name="uni2003" unicode="&#x2003;" horiz-adv-x="1007" 
 />
    <glyph glyph-name="uni2004" unicode="&#x2004;" horiz-adv-x="340" 
 />
    <glyph glyph-name="uni2005" unicode="&#x2005;" horiz-adv-x="257" 
 />
    <glyph glyph-name="uni2006" unicode="&#x2006;" horiz-adv-x="174" 
 />
    <glyph glyph-name="uni2007" unicode="&#x2007;" horiz-adv-x="736" 
 />
    <glyph glyph-name="uni2008" unicode="&#x2008;" horiz-adv-x="295" 
 />
    <glyph glyph-name="uni2009" unicode="&#x2009;" horiz-adv-x="207" 
 />
    <glyph glyph-name="uni200A" unicode="&#x200a;" horiz-adv-x="150" 
 />
    <glyph glyph-name="uni200B" unicode="&#x200b;" horiz-adv-x="7" 
 />
    <glyph glyph-name="uni200C" unicode="&#x200c;" horiz-adv-x="7" 
 />
    <glyph glyph-name="uni200D" unicode="&#x200d;" horiz-adv-x="7" 
 />
    <glyph glyph-name="uni2010" unicode="&#x2010;" horiz-adv-x="417" 
d="M397 315v-162h-378v162h378z" />
    <glyph glyph-name="figuredash" unicode="&#x2012;" horiz-adv-x="417" 
d="M397 315v-162h-378v162h378z" />
    <glyph glyph-name="endash" unicode="&#x2013;" horiz-adv-x="605" 
d="M586 315v-162h-567v162h567z" />
    <glyph glyph-name="emdash" unicode="&#x2014;" horiz-adv-x="795" 
d="M775 315v-162h-756v162h756z" />
    <glyph glyph-name="uni2015" unicode="&#x2015;" horiz-adv-x="795" 
d="M775 315v-162h-756v162h756z" />
    <glyph glyph-name="quoteleft" unicode="&#x2018;" horiz-adv-x="295" 
d="M245 635q-38 -25 -53 -42t-15 -47h81v-189h-211q-13 68 -13 121q0 69 21 114t55.5 71t86.5 49z" />
    <glyph glyph-name="quoteright" unicode="&#x2019;" horiz-adv-x="295" 
d="M50 422q37 25 52 42.5t16 46.5h-81v189h211q13 -66 13 -120q0 -70 -21 -114.5t-55.5 -71t-86.5 -48.5z" />
    <glyph glyph-name="quotesinglbase" unicode="&#x201a;" horiz-adv-x="295" 
d="M50 -89q37 25 52 42.5t16 46.5h-81v189h211q13 -66 13 -120q0 -70 -21 -114.5t-55.5 -71t-86.5 -48.5z" />
    <glyph glyph-name="quotedblleft" unicode="&#x201c;" horiz-adv-x="572" 
d="M245 638q-38 -25 -53 -42t-15 -47h81v-189h-211q-13 68 -13 121q0 69 21 114t55.5 71t86.5 48zM522 638q-37 -25 -52 -42.5t-16 -46.5h81v-189h-211q-13 66 -13 120q0 70 21 114.5t56 71t87 48.5z" />
    <glyph glyph-name="quotedblright" unicode="&#x201d;" horiz-adv-x="572" 
d="M50 422q37 25 52 42.5t16 46.5h-81v189h211q13 -66 13 -120q0 -70 -21 -114.5t-55.5 -71t-86.5 -48.5zM327 422q37 25 52 42.5t16 46.5h-81v189h211q13 -66 13 -120q0 -70 -21 -114.5t-55.5 -71t-86.5 -48.5z" />
    <glyph glyph-name="quotedblbase" unicode="&#x201e;" horiz-adv-x="572" 
d="M50 -89q37 25 52 42.5t16 46.5h-81v189h211q13 -66 13 -120q0 -70 -21 -114.5t-55.5 -71t-86.5 -48.5zM327 -89q37 25 52 42.5t16 46.5h-81v189h211q13 -66 13 -120q0 -70 -21 -114.5t-55.5 -71t-86.5 -48.5z" />
    <glyph glyph-name="dagger" unicode="&#x2020;" horiz-adv-x="610" 
d="M377 518l196 23v-188l-197 23l23 -482h-188l24 482l-198 -23v188l197 -22l-23 181h188z" />
    <glyph glyph-name="daggerdbl" unicode="&#x2021;" horiz-adv-x="574" 
d="M359 518l196 23v-188l-197 23l6 -80l-6 -78l197 23v-188l-196 23l22 -182h-188l23 181l-197 -22v188l198 -22l-6 77l6 79l-198 -22v188l197 -22l-23 181h188z" />
    <glyph glyph-name="bullet" unicode="&#x2022;" horiz-adv-x="346" 
d="M104.5 232.5q-30.5 18.5 -48.5 49.5t-18 68t17.5 68t48.5 49t68 18t68.5 -18t49.5 -49t18 -68t-18 -68t-49.5 -49.5t-68.5 -18.5t-67.5 18.5z" />
    <glyph glyph-name="twodotenleader" unicode="&#x2025;" horiz-adv-x="590" 
d="M38 0v189h219v-189h-219zM333 0v189h219v-189h-219z" />
    <glyph glyph-name="ellipsis" unicode="&#x2026;" horiz-adv-x="855" 
d="M38 0v189h219v-189h-219zM318 0v189h219v-189h-219zM598 0v189h219v-189h-219z" />
    <glyph glyph-name="uni202F" unicode="&#x202f;" horiz-adv-x="607" 
 />
    </font>
</defs>
</svg>
