<?xml version="1.0" standalone="no"?>
<!DOCTYPE svg PUBLIC "-//W3C//DTD SVG 1.1//EN" "http://www.w3.org/Graphics/SVG/1.1/DTD/svg11.dtd" >
<svg xmlns="http://www.w3.org/2000/svg" xmlns:xlink="http://www.w3.org/1999/xlink" version="1.1">
<metadata>
Created by FontForge 20190801 at Wed Jun  3 06:01:35 2020
 By root
Copyright (c) 2020 by Francesco Canovaro. All rights reserved.
</metadata>
<defs>
<font id="Eastman-Light" horiz-adv-x="668" >
  <font-face 
    font-family="Eastman Light"
    font-weight="400"
    font-stretch="normal"
    units-per-em="1000"
    panose-1="0 0 4 0 0 0 0 0 0 0"
    ascent="806"
    descent="-194"
    x-height="538"
    cap-height="700"
    bbox="-778 -206 1377 1091"
    underline-thickness="45"
    underline-position="-242"
    unicode-range="U+0020-F8FF"
  />
<missing-glyph horiz-adv-x="608" 
 />
    <glyph glyph-name=".notdef" horiz-adv-x="608" 
 />
    <glyph glyph-name=".null" horiz-adv-x="0" 
 />
    <glyph glyph-name="nonmarkingreturn" horiz-adv-x="333" 
 />
    <glyph glyph-name="space" unicode=" " horiz-adv-x="285" 
 />
    <glyph glyph-name="exclam" unicode="!" horiz-adv-x="205" 
d="M75 377v324h53v-323l-7 -186h-38zM63 0v73h79v-73h-79z" />
    <glyph glyph-name="quotedbl" unicode="&#x22;" horiz-adv-x="295" 
d="M119 700l-20 -168h-30l9 168h41zM226 700l-20 -168h-30l9 168h41z" />
    <glyph glyph-name="numbersign" unicode="#" horiz-adv-x="705" 
d="M637 479v-41h-130l-46 -172h141v-42h-153l-51 -191h-49l51 191h-166l-51 -191h-49l51 191h-116v42h128l46 172h-139v41h150l52 193h49l-52 -193h166l52 193h49l-52 -193h119zM246 266h166l46 172h-166z" />
    <glyph glyph-name="dollar" unicode="$" horiz-adv-x="630" 
d="M509 47.5q-64 -51.5 -168 -56.5v-54h-43v55q-71 4 -135.5 32t-110.5 72l27 42q44 -41 100.5 -65.5t118.5 -29.5v286q-117 28 -171 71t-54 122q0 82 63 132t162 55v56h43v-57q116 -8 206 -76l-29 -40q-38 27 -83.5 44.5t-93.5 21.5v-286q83 -19 132.5 -42t74.5 -58.5
t25 -90.5q0 -82 -64 -133.5zM169.5 436q38.5 -31 128.5 -54v277q-76 -4 -121.5 -41.5t-45.5 -96.5q0 -54 38.5 -85zM341 42q83 4 129 41.5t46 95.5t-40.5 88.5t-134.5 51.5v-277z" />
    <glyph glyph-name="percent" unicode="%" horiz-adv-x="771" 
d="M64.5 460.5q-35.5 43.5 -35.5 110.5q0 66 35 109.5t94 43.5t94.5 -43t35.5 -110q0 -66 -35.5 -110t-94.5 -44q-58 0 -93.5 43.5zM221.5 486.5q23.5 34.5 23.5 84.5q0 51 -23.5 84.5t-63.5 33.5q-41 0 -64 -33.5t-23 -84.5q0 -52 24 -85.5t63 -33.5q40 0 63.5 34.5zM201 0
h-48l422 700h47zM519.5 38.5q-35.5 43.5 -35.5 110.5q0 66 35 109.5t94 43.5t94.5 -43t35.5 -110q0 -66 -35.5 -110t-94.5 -44q-58 0 -93.5 43.5zM676.5 64.5q23.5 34.5 23.5 84.5q0 51 -23.5 84.5t-63.5 33.5q-41 0 -64 -33.5t-23 -84.5q0 -52 24 -85.5t63 -33.5
q40 0 63.5 34.5z" />
    <glyph glyph-name="ampersand" unicode="&#x26;" horiz-adv-x="837" 
d="M814 365h-130q-1 -55 -26 -125.5t-74 -127.5q45 -32 86.5 -50t75.5 -17l-3 -46q-86 0 -194 77q-94 -84 -230 -84q-92 0 -148 31t-79 78t-23 100q0 66 30 120.5t78 93t102 58.5q-5 30 -5 53q0 83 49 133t130 50q69 0 107.5 -36.5t38.5 -96.5q0 -73 -74 -162h289v-49z
M611.5 252.5q21.5 61.5 21.5 112.5h-162v49q40 39 58 79t18 73q0 45 -27.5 66t-73.5 21q-56 0 -86.5 -35t-30.5 -92q0 -96 63 -201.5t154 -182.5q44 49 65.5 110.5zM510 108q-76 65 -135.5 151t-84.5 170q-71 -33 -119 -87.5t-48 -133.5q0 -73 49 -118t146 -45q114 0 192 63
z" />
    <glyph glyph-name="quotesingle" unicode="'" horiz-adv-x="188" 
d="M119 700l-20 -168h-30l9 168h41z" />
    <glyph glyph-name="parenleft" unicode="(" horiz-adv-x="336" 
d="M272 -175q-99 81 -151 197.5t-52 256.5q0 141 52 257.5t151 197.5l36 -30q-91 -78 -138.5 -186.5t-47.5 -238.5q0 -129 47.5 -238t138.5 -187z" />
    <glyph glyph-name="parenright" unicode=")" horiz-adv-x="336" 
d="M64 734q99 -81 151.5 -197.5t52.5 -257.5q0 -140 -52.5 -256.5t-151.5 -197.5l-35 29q90 79 137.5 187.5t47.5 237.5t-47.5 238t-137.5 187z" />
    <glyph glyph-name="asterisk" unicode="*" horiz-adv-x="442" 
d="M300 554l-61 -13l41 -47l56 -73l-32 -22l-51 75l-32 53l-31 -53l-52 -75l-32 22l56 73l41 47l-60 13l-88 26l11 37l87 -30l57 -24l-6 61l-2 92h38l-1 -92l-6 -61l56 24l87 30l11 -37z" />
    <glyph glyph-name="plus" unicode="+" horiz-adv-x="496" 
d="M270 357h197v-43h-197v-182h-43v182h-198v43h198v178h43v-178z" />
    <glyph glyph-name="comma" unicode="," horiz-adv-x="205" 
d="M56 -89q52 36 48 89h-40v73h76q6 -30 6 -57q0 -89 -73 -129z" />
    <glyph glyph-name="hyphen" unicode="-" horiz-adv-x="448" 
d="M419 241v-44h-390v44h390z" />
    <glyph glyph-name="period" unicode="." horiz-adv-x="205" 
d="M63 0v73h79v-73h-79z" />
    <glyph glyph-name="slash" unicode="/" horiz-adv-x="563" 
d="M119 -117h-50l375 817h51z" />
    <glyph glyph-name="zero" unicode="0" horiz-adv-x="709" 
d="M203 38q-65 47 -99.5 129t-34.5 184q0 100 34 181.5t99 129t153 47.5q87 0 152 -46.5t99.5 -128t34.5 -184.5q0 -100 -34 -182t-99 -129.5t-153 -47.5q-87 0 -152 47zM480.5 78.5q52.5 42.5 80 114t27.5 156.5q0 90 -28.5 161.5t-82 112.5t-123.5 41q-73 0 -125.5 -42
t-79.5 -113.5t-27 -157.5q0 -90 28.5 -161.5t81.5 -112.5t123 -41q73 0 125.5 42.5z" />
    <glyph glyph-name="one" unicode="1" horiz-adv-x="333" 
d="M25 677l162 23h46v-700h-53v654l-149 -22z" />
    <glyph glyph-name="two" unicode="2" horiz-adv-x="614" 
d="M540 45v-45h-476v37q118 88 270 229q83 79 116 130t33 102q0 49 -23.5 87t-65 59t-93.5 21q-55 0 -110 -26t-94 -69l-31 33q44 48 109.5 77t130.5 29t117.5 -26t82.5 -73.5t30 -108.5q0 -59 -35.5 -115.5t-122.5 -140.5q-134 -121 -239 -200h401z" />
    <glyph glyph-name="three" unicode="3" horiz-adv-x="630" 
d="M460 389.5q50 -25.5 78 -71t28 -104.5q0 -65 -32.5 -115.5t-89.5 -79t-127 -28.5q-74 0 -140.5 29t-110.5 77l27 33q40 -41 101 -67.5t120 -26.5q57 0 102 23t70.5 63.5t25.5 91.5q0 46 -22 82.5t-61.5 57.5t-89.5 21q-26 1 -62 -1.5t-61 -6.5l-1 30l247 258h-357v45h426
l5 -36l-253 -254q37 5 63 5q64 0 114 -25.5z" />
    <glyph glyph-name="four" unicode="4" horiz-adv-x="671" 
d="M472 226h130v-41h-130v-185h-51v185h-383l-10 30l377 485h67v-474zM421 658l-329 -432h329v432z" />
    <glyph glyph-name="five" unicode="5" horiz-adv-x="638" 
d="M453.5 390.5q54.5 -26.5 85 -73t30.5 -103.5q0 -64 -32 -115t-88.5 -79.5t-127.5 -28.5q-74 0 -141 28.5t-109 75.5l26 34q41 -42 100 -67.5t119 -25.5q58 0 103.5 23t71 63.5t25.5 91.5q0 47 -26.5 84t-73.5 57.5t-106 20.5q-37 0 -90 -11t-98 -27l-18 33l20 329h414
v-45h-367l-15 -269q81 31 176 31q67 0 121.5 -26.5z" />
    <glyph glyph-name="six" unicode="6" horiz-adv-x="657" 
d="M135 73q-66 83 -66 224q0 208 66.5 310t211.5 102q62 0 116 -21t95 -62l-30 -36q-32 35 -79 54t-101 19q-117 0 -170 -82.5t-56 -244.5q0 -2 -0.5 -12.5t0.5 -27.5q5 40 36.5 76t80 58.5t103.5 22.5q71 0 127.5 -28.5t88 -79.5t31.5 -116q0 -73 -33 -127t-90.5 -83
t-131.5 -29q-133 0 -199 83zM438.5 59q45.5 23 71.5 66t26 100q0 54 -26.5 96t-72.5 65.5t-101 23.5q-50 0 -96 -23t-75.5 -65.5t-29.5 -97.5q0 -51 22.5 -93.5t68 -68.5t109.5 -26q58 0 103.5 23z" />
    <glyph glyph-name="seven" unicode="7" horiz-adv-x="545" 
d="M21 700h486l10 -34l-351 -666h-59l346 655h-432v45z" />
    <glyph glyph-name="eight" unicode="8" horiz-adv-x="656" 
d="M542 303q46 -49 46 -115q0 -56 -33.5 -101t-92.5 -70.5t-134 -25.5q-74 0 -133.5 25.5t-92.5 70.5t-33 101q0 66 46 115t120 65q-61 18 -96.5 61.5t-35.5 100.5q0 51 28.5 92t80 64t116.5 23t116.5 -23t80 -64t28.5 -92q0 -57 -35.5 -100.5t-96.5 -61.5q75 -16 121 -65z
M205.5 425q47.5 -38 122.5 -38t122.5 37.5t47.5 98.5q0 62 -47 99.5t-123 37.5q-75 0 -122.5 -37.5t-47.5 -99.5q0 -60 47.5 -98zM433.5 59q46.5 19 72.5 54t26 79t-26 78t-72.5 53t-105.5 19t-105.5 -19t-72.5 -53t-26 -78t26 -79t72.5 -54t105.5 -19t105.5 19z" />
    <glyph glyph-name="nine" unicode="9" horiz-adv-x="657" 
d="M522.5 627.5q66.5 -82.5 66.5 -224.5q0 -207 -67 -309.5t-212 -102.5q-61 0 -115 21t-96 63l30 35q32 -35 79 -54t101 -19q117 0 170 82.5t56 244.5q0 3 0.5 13.5t-0.5 26.5q-5 -39 -36.5 -75.5t-80 -59t-102.5 -22.5q-71 0 -127.5 29t-88 80t-31.5 115q0 73 32.5 127
t90 83t131.5 29q133 0 199.5 -82.5zM218.5 642q-45.5 -23 -71.5 -66.5t-26 -100.5q0 -54 26.5 -96t72.5 -65t101 -23q50 0 96.5 23t75.5 65t29 97q0 51 -22.5 94t-67.5 69t-110 26q-58 0 -103.5 -23z" />
    <glyph glyph-name="colon" unicode=":" horiz-adv-x="205" 
d="M142 466h-79v73h79v-73zM63 0v73h79v-73h-79z" />
    <glyph glyph-name="semicolon" unicode=";" horiz-adv-x="210" 
d="M151 466h-79v73h79v-73zM56 -89q52 36 48 89h-40v73h76q6 -30 6 -57q0 -89 -73 -129z" />
    <glyph glyph-name="less" unicode="&#x3c;" horiz-adv-x="543" 
d="M475 156l-21 -29l-385 221v19l387 222l19 -30l-358 -202z" />
    <glyph glyph-name="equal" unicode="=" horiz-adv-x="448" 
d="M419 467v-42h-390v42h390zM419 277v-42h-390v42h390z" />
    <glyph glyph-name="greater" unicode="&#x3e;" horiz-adv-x="543" 
d="M474 348l-385 -221l-20 29l357 201l-357 202l18 30l387 -222v-19z" />
    <glyph glyph-name="question" unicode="?" horiz-adv-x="517" 
d="M205 192l-1 19q0 61 27 103.5t79 83.5q46 40 68 68.5t22 66.5q0 58 -43.5 91.5t-118.5 33.5q-96 0 -197 -69l-21 45q116 74 224 74q96 0 152.5 -46.5t56.5 -124.5q0 -35 -14 -63t-34.5 -49t-55.5 -50q-57 -50 -76.5 -87.5t-19.5 -95.5h-48zM191 0v73h79v-73h-79z" />
    <glyph glyph-name="at" unicode="@" horiz-adv-x="976" 
d="M708.5 647q92.5 -52 145.5 -146.5t53 -216.5q0 -58 -19.5 -107.5t-55.5 -78.5t-85 -29q-63 0 -93.5 31.5t-37.5 80.5q-28 -45 -72 -70t-96 -25q-53 0 -94 24t-64 66.5t-23 96.5q0 62 27 112t74.5 78.5t105.5 28.5q54 0 99 -30t66 -82l21 133l46 -7l-43 -259
q-3 -16 -3 -37q0 -44 20.5 -73.5t70.5 -29.5t81 50t31 126q0 113 -47.5 197.5t-130 129.5t-184.5 45q-111 0 -199.5 -48t-138.5 -134t-50 -196t51 -193t145.5 -128t219.5 -45l-1 -44q-131 0 -235.5 49.5t-164 142.5t-59.5 218q0 121 55 217t153 150.5t223 54.5
q116 0 208.5 -52zM575.5 180q46.5 48 46.5 125q0 64 -40 103t-104 39q-46 0 -83 -22.5t-57.5 -62.5t-20.5 -90q0 -63 39 -101.5t101 -38.5q72 0 118.5 48z" />
    <glyph glyph-name="A" unicode="A" horiz-adv-x="752" 
d="M729 0h-59l-82 176h-425l-82 -176h-57l325 700h54zM376 636l-190 -410h379z" />
    <glyph glyph-name="B" unicode="B" horiz-adv-x="740" 
d="M634 298.5q44 -47.5 44 -116.5q0 -84 -65.5 -133t-177.5 -49h-335v700h320q104 0 164 -47t60 -128q0 -62 -34.5 -106.5t-96.5 -60.5q77 -12 121 -59.5zM155 650v-271h264q82 0 126.5 36t44.5 100q0 65 -47.5 100t-135.5 35h-252zM425 50q96 0 147.5 36.5t51.5 102.5
q0 67 -51.5 104t-143.5 37h-274v-280h270z" />
    <glyph glyph-name="C" unicode="C" horiz-adv-x="720" 
d="M244 38.5q-82 47.5 -128.5 129.5t-46.5 182t46.5 182t128 129.5t182.5 47.5q154 0 259 -103l-35 -36q-44 43 -98 66t-126 23q-85 0 -154 -41t-108 -111.5t-39 -155.5q0 -87 40 -158t109 -111.5t152 -40.5q68 0 125 24.5t101 68.5l35 -35q-49 -51 -115.5 -79.5
t-145.5 -28.5q-100 0 -182 47.5z" />
    <glyph glyph-name="D" unicode="D" horiz-adv-x="812" 
d="M100 0v700h269q113 0 198 -43t131 -122t46 -185t-46 -185t-131 -122t-198 -43h-269zM366 50q97 0 169.5 36.5t111.5 104t39 159.5t-39 160t-111.5 104.5t-170.5 36.5h-210v-601h211z" />
    <glyph glyph-name="E" unicode="E" horiz-adv-x="683" 
d="M154 333v-283h477v-50h-531v700h521v-49h-467v-269h410v-49h-410z" />
    <glyph glyph-name="F" unicode="F" horiz-adv-x="636" 
d="M609 700v-49h-457v-290h402v-50h-402v-311h-55v700h512z" />
    <glyph glyph-name="G" unicode="G" horiz-adv-x="762" 
d="M243.5 37q-81.5 46 -128 128t-46.5 184q0 103 46 185t127.5 128.5t184.5 46.5q75 0 139.5 -25.5t114.5 -74.5l-35 -35q-91 85 -218 85q-87 0 -156 -39.5t-107.5 -109.5t-38.5 -160t38.5 -160.5t108 -109.5t158.5 -39q123 0 211 78v232h51v-256q-52 -50 -120 -77t-145 -27
q-103 0 -184.5 46z" />
    <glyph glyph-name="H" unicode="H" horiz-adv-x="771" 
d="M616 377v323h55v-700h-55v328h-461v-328h-55v700h55v-323h461z" />
    <glyph glyph-name="I" unicode="I" horiz-adv-x="255" 
d="M155 0h-55v700h55v-700z" />
    <glyph glyph-name="J" unicode="J" horiz-adv-x="558" 
d="M116 25q-60 34 -93 92l37 32q29 -49 78.5 -78t107.5 -29q83 0 131.5 54t48.5 146v409h-262v49h315v-457q0 -76 -28.5 -133t-80.5 -88t-122 -31q-72 0 -132 34z" />
    <glyph glyph-name="K" unicode="K" horiz-adv-x="707" 
d="M676 0h-65l-265 365l-191 -205v-160h-55v700h55v-470l433 470h70l-274 -294z" />
    <glyph glyph-name="L" unicode="L" horiz-adv-x="604" 
d="M579 0h-479v700h54v-650h425v-50z" />
    <glyph glyph-name="M" unicode="M" horiz-adv-x="892" 
d="M447 207l296 493h49v-700h-54v598l-281 -460h-21l-281 461v-599h-55v700h50z" />
    <glyph glyph-name="N" unicode="N" horiz-adv-x="783" 
d="M155 0h-55v700h47l481 -604v604h55v-700h-46l-482 606v-606z" />
    <glyph glyph-name="O" unicode="O" horiz-adv-x="855" 
d="M243 37q-82 46 -128 128t-46 185t46.5 184.5t128 128t184.5 46.5t184.5 -46t128 -128t46.5 -185t-46.5 -184.5t-128.5 -128t-185 -46.5q-102 0 -184 46zM583.5 81q68.5 39 107 109.5t38.5 159.5t-38.5 159.5t-107 110t-155.5 39.5t-156 -39.5t-107.5 -110t-38.5 -159.5
t38.5 -159.5t107.5 -109.5t156 -39t155.5 39z" />
    <glyph glyph-name="P" unicode="P" horiz-adv-x="673" 
d="M559.5 639.5q74.5 -60.5 74.5 -167.5q0 -108 -75.5 -169t-207.5 -61h-196v-242h-55v700h253q132 0 206.5 -60.5zM351 292q109 0 169 47t60 134q0 85 -60 131.5t-168 46.5h-197v-359h196z" />
    <glyph glyph-name="Q" unicode="Q" horiz-adv-x="855" 
d="M863 0q-111 0 -229 -5q-136 -4 -204 -4h-3h-1h-5v0q-101 1 -181 47.5t-125.5 128t-45.5 183.5q0 103 46.5 184.5t128 128t184.5 46.5t184.5 -46t128 -128t46.5 -185q0 -101 -44.5 -181.5t-122.5 -126.5l32 2q130 5 168 5h43v-49zM164.5 190.5q38.5 -70.5 107.5 -109.5
t156 -39t155.5 39t107 109.5t38.5 159.5t-38.5 159.5t-107 110t-155.5 39.5t-156 -39.5t-107.5 -110t-38.5 -159.5t38.5 -159.5z" />
    <glyph glyph-name="R" unicode="R" horiz-adv-x="696" 
d="M577 0l-242 264h-180v-264h-55v700h263q135 0 208 -56t73 -162q0 -97 -62 -152.5t-179 -63.5l243 -266h-69zM155 651v-338h206q112 0 170.5 42t58.5 127q0 83 -58.5 126t-169.5 43h-207z" />
    <glyph glyph-name="S" unicode="S" horiz-adv-x="630" 
d="M173.5 19.5q-71.5 28.5 -121.5 76.5l27 42q50 -46 114 -71t133 -25q89 0 139.5 38.5t50.5 98.5q0 43 -21.5 69.5t-64 43.5t-115.5 33q-126 28 -184 72t-58 125q0 57 32 99.5t87.5 65t124.5 22.5q63 0 122 -20t108 -57l-29 -40q-43 31 -96.5 49t-108.5 18
q-83 0 -132.5 -38t-49.5 -100q0 -40 21 -67t63.5 -45t115.5 -35q87 -19 138.5 -42t77.5 -59t26 -92q0 -57 -32 -100t-88.5 -66.5t-130.5 -23.5q-77 0 -148.5 28.5z" />
    <glyph glyph-name="T" unicode="T" horiz-adv-x="608" 
d="M29 700h551v-49h-249v-651h-55v651h-247v49z" />
    <glyph glyph-name="U" unicode="U" horiz-adv-x="731" 
d="M214 26.5q-65 35.5 -100 102t-35 157.5v414h55v-405q0 -116 62 -181t170 -65q107 0 169.5 65t62.5 181v405h54v-414q0 -91 -34.5 -157.5t-99.5 -102t-152 -35.5t-152 35.5z" />
    <glyph glyph-name="V" unicode="V" horiz-adv-x="734" 
d="M394 0h-53l-317 700h58l285 -633h1l285 633h58z" />
    <glyph glyph-name="W" unicode="W" horiz-adv-x="1038" 
d="M755 69l201 632h58l-227 -701h-60l-208 609l-207 -609h-60l-228 700h58l203 -631l209 631h50z" />
    <glyph glyph-name="X" unicode="X" horiz-adv-x="680" 
d="M375 357l274 -357h-64l-244 317l-245 -317h-65l276 359l-263 341h66l231 -301l231 301h65z" />
    <glyph glyph-name="Y" unicode="Y" horiz-adv-x="665" 
d="M585 700h61l-286 -436v-264h-56v267l-285 433h61l253 -388z" />
    <glyph glyph-name="Z" unicode="Z" horiz-adv-x="693" 
d="M628 0h-567v35l486 616h-475v49h552v-35l-486 -615h490v-50z" />
    <glyph glyph-name="bracketleft" unicode="[" horiz-adv-x="308" 
d="M280 -172h-211v904h211v-42h-157v-820h157v-42z" />
    <glyph glyph-name="backslash" unicode="\" horiz-adv-x="614" 
d="M202 700l375 -817h-51l-375 817h51z" />
    <glyph glyph-name="bracketright" unicode="]" horiz-adv-x="308" 
d="M29 732h211v-904h-211v42h156v820h-156v42z" />
    <glyph glyph-name="asciicircum" unicode="^" horiz-adv-x="380" 
d="M216 724l95 -129l-41 -6l-80 109l-80 -109l-41 6l95 129h52z" />
    <glyph glyph-name="underscore" unicode="_" horiz-adv-x="473" 
d="M470 -42v-39h-466v39h466z" />
    <glyph glyph-name="grave" unicode="`" horiz-adv-x="287" 
d="M219 598l-37 -6l-113 126l51 14z" />
    <glyph glyph-name="a" unicode="a" horiz-adv-x="567" 
d="M434 493.5q56 -53.5 56 -154.5v-339h-53v120q-25 -51 -81.5 -90t-131.5 -39q-86 0 -136 44.5t-50 117.5q0 77 52.5 121.5t155.5 44.5q93 0 191 -13v32q0 79 -44 119.5t-127 40.5q-46 0 -91 -15.5t-82 -45.5l-27 40q43 35 96 52.5t109 17.5q107 0 163 -53.5zM339.5 69
q45.5 29 71.5 74.5t26 90.5v27q-89 13 -180 13q-85 0 -126.5 -30.5t-41.5 -87.5q0 -56 38.5 -86t111.5 -30q55 0 100.5 29z" />
    <glyph glyph-name="b" unicode="b" horiz-adv-x="692" 
d="M508.5 511.5q59.5 -35.5 93.5 -98.5t34 -144q0 -80 -34 -143.5t-93.5 -99t-132.5 -35.5q-76 0 -136.5 35t-93.5 97v-123h-53v738h53v-324q32 63 93 98t137 35q73 0 132.5 -35.5zM480 69.5q49 29.5 76.5 81.5t27.5 118t-27.5 118t-76.5 81t-111 29q-64 0 -115 -28.5
t-79.5 -80.5t-28.5 -119q0 -66 28.5 -118.5t79.5 -81.5t115 -29q62 0 111 29.5z" />
    <glyph glyph-name="c" unicode="c" horiz-adv-x="573" 
d="M190.5 26.5q-63.5 35.5 -99.5 99t-36 143.5t36.5 143.5t100 99t142.5 35.5q58 0 109.5 -21t91.5 -63l-37 -32q-67 67 -165 67q-64 0 -115 -29t-80 -81t-29 -119t29 -119t80.5 -81t115.5 -29q50 0 89.5 16.5t74.5 52.5l38 -32q-39 -42 -91.5 -64t-111.5 -22
q-79 0 -142.5 35.5z" />
    <glyph glyph-name="d" unicode="d" horiz-adv-x="692" 
d="M546 738h53v-738h-53v122q-33 -62 -94 -96.5t-136 -34.5q-73 0 -132.5 36t-93.5 99t-34 143q0 81 34 144t93.5 98.5t133.5 35.5q76 0 136.5 -35t92.5 -98v324zM438.5 69q50.5 29 79 81t28.5 119t-28.5 119t-79 80.5t-114.5 28.5q-62 0 -111 -29t-76.5 -81t-27.5 -118
t27.5 -118t76.5 -81.5t111 -29.5q64 0 114.5 29z" />
    <glyph glyph-name="e" unicode="e" horiz-adv-x="616" 
d="M109 251q3 -62 33 -110t80.5 -74.5t113.5 -26.5q105 0 171 71l35 -32q-39 -41 -92.5 -64.5t-116.5 -23.5q-79 0 -142.5 36t-99.5 99.5t-36 142.5q0 80 34 143t95.5 98.5t141.5 35.5q72 0 127.5 -33t86.5 -93t31 -139q0 -4 -2 -30h-460zM176.5 442q-58.5 -56 -66.5 -145
h409q-6 94 -58 147.5t-135 53.5q-91 0 -149.5 -56z" />
    <glyph glyph-name="f" unicode="f" horiz-adv-x="396" 
d="M200 538h193v-49h-193v-489h-53v489h-100v49h100v51q0 74 40 116t109 42q30 0 58.5 -6.5t47.5 -16.5l-12 -46q-38 19 -85 19q-50 0 -77.5 -28.5t-27.5 -85.5v-45z" />
    <glyph glyph-name="g" unicode="g" horiz-adv-x="602" 
d="M366 111q100 0 155.5 -34.5t55.5 -93.5q0 -74 -74.5 -118.5t-205.5 -44.5q-112 0 -176 37t-64 101q0 35 25 63.5t65 48.5q-29 11 -45 33t-16 50q0 30 18.5 53t50.5 34q-65 48 -65 133q0 80 57.5 127t157.5 47q57 0 98 -18l139 29l11 -45l-96 -14q30 -21 47 -53t17 -73
q0 -80 -57.5 -127.5t-156.5 -47.5q-68 0 -119 23q-49 -20 -49 -55q0 -26 19 -40.5t51 -14.5h157zM185.5 466.5q-43.5 -33.5 -43.5 -92.5q0 -60 43.5 -94.5t120.5 -34.5q76 0 119.5 34t43.5 94q0 59 -43.5 93t-119.5 34q-77 0 -120.5 -33.5zM464.5 -102q59.5 29 59.5 82
q0 41 -44.5 61.5t-125.5 20.5h-158h-5q-80 -42 -80 -97q0 -47 49.5 -71.5t138.5 -24.5q106 0 165.5 29z" />
    <glyph glyph-name="h" unicode="h" horiz-adv-x="651" 
d="M472.5 518.5q48.5 -28.5 75 -81t26.5 -123.5v-314h-53v308q0 88 -46 138.5t-126 50.5q-55 0 -101.5 -27.5t-74 -76t-27.5 -109.5v-284h-53v738h53v-313q30 54 86.5 88t127.5 34q64 0 112.5 -28.5z" />
    <glyph glyph-name="i" unicode="i" horiz-adv-x="227" 
d="M140 0h-53v538h53v-538zM142 619h-56v105h56v-105z" />
    <glyph glyph-name="j" unicode="j" horiz-adv-x="239" 
d="M-50 -109q26 -16 57 -16q40 0 66 23.5t26 68.5v571h53v-575q0 -66 -39.5 -101t-100.5 -35q-40 0 -79 21zM153 619h-56v105h56v-105z" />
    <glyph glyph-name="k" unicode="k" horiz-adv-x="615" 
d="M590 0h-65l-243 278l-136 -131v-147h-53v738h53v-527l335 327h71l-236 -227z" />
    <glyph glyph-name="l" unicode="l" horiz-adv-x="239" 
d="M146 0h-53v738h53v-738z" />
    <glyph glyph-name="m" unicode="m" horiz-adv-x="1013" 
d="M883.5 486.5q52.5 -60.5 52.5 -165.5v-321h-53v315q0 86 -41 134t-115 48q-51 0 -94.5 -27.5t-69 -76t-25.5 -107.5v-286h-53v315q0 86 -41 134t-115 48q-51 0 -94.5 -27.5t-69 -76t-25.5 -107.5v-286h-53v538h53v-112q28 53 82 87t120 34q71 0 119 -37.5t67 -105.5
q25 61 82 102t130 41q91 0 143.5 -60.5z" />
    <glyph glyph-name="n" unicode="n" horiz-adv-x="645" 
d="M466.5 518.5q48.5 -28.5 75 -81t26.5 -123.5v-314h-53v308q0 88 -46 138.5t-126 50.5q-55 0 -101.5 -27.5t-74 -76t-27.5 -109.5v-284h-53v538h53v-113q30 54 86.5 88t127.5 34q64 0 112.5 -28.5z" />
    <glyph glyph-name="o" unicode="o" 
d="M190.5 27q-63.5 36 -99.5 99.5t-36 142.5t36 142.5t99.5 99.5t142.5 36q80 0 144 -36t100 -99t36 -142q0 -80 -36 -143.5t-100 -99.5t-144 -36q-79 0 -142.5 36zM450.5 69.5q51.5 29.5 80.5 81.5t29 118q0 67 -29 119t-81 81t-117 29q-64 0 -115.5 -29t-80.5 -81.5
t-29 -118.5t29.5 -118t81 -81.5t115.5 -29.5q65 0 116.5 29.5z" />
    <glyph glyph-name="p" unicode="p" horiz-adv-x="686" 
d="M502.5 511q59.5 -36 93.5 -99.5t34 -143.5q0 -81 -34 -144t-93.5 -98t-132.5 -35q-76 0 -137 35t-93 98v-295h-53v709h53v-123q33 62 93.5 97t136.5 35q73 0 132.5 -36zM474 69q49 29 76.5 81t27.5 118q0 67 -27.5 119t-76.5 81.5t-111 29.5q-64 0 -115 -29t-79.5 -81.5
t-28.5 -118.5q0 -67 28.5 -119t79.5 -81t115 -29q62 0 111 29z" />
    <glyph glyph-name="q" unicode="q" horiz-adv-x="685" 
d="M545 538h53v-709h-53v294q-33 -62 -93.5 -97t-135.5 -35q-73 0 -133 35t-94 98.5t-34 143.5t34 143.5t94 99.5t133 36q74 0 135 -34.5t94 -95.5v121zM431.5 65.5q48.5 25.5 78.5 72t35 107.5v48q-5 60 -35 106.5t-78.5 72.5t-108.5 26q-62 0 -111 -29.5t-76.5 -81.5
t-27.5 -119q0 -66 27.5 -118t76.5 -81t111 -29q60 0 108.5 25.5z" />
    <glyph glyph-name="r" unicode="r" horiz-adv-x="385" 
d="M366 539l-2 -55q-24 6 -47 6q-54 0 -94.5 -32t-61.5 -85.5t-21 -115.5v-257h-53v538h53v-119q25 57 72 90.5t106 33.5q18 0 48 -4z" />
    <glyph glyph-name="s" unicode="s" horiz-adv-x="518" 
d="M139.5 11.5q-59.5 20.5 -100.5 53.5l24 43q42 -31 95 -49t105 -18q74 0 115.5 26t41.5 76q0 30 -15.5 49t-51 33t-97.5 26q-75 14 -118 33.5t-61.5 47.5t-18.5 68q0 68 52.5 107t143.5 39q53 0 108 -15.5t91 -41.5l-23 -45q-35 25 -83 39t-96 14q-65 0 -102 -25t-37 -68
q0 -40 34 -62.5t124 -40.5q77 -16 120.5 -36.5t62.5 -49t19 -70.5q0 -72 -57 -113t-155 -41q-61 0 -120.5 20.5z" />
    <glyph glyph-name="t" unicode="t" horiz-adv-x="466" 
d="M425 22q-22 -14 -57 -22.5t-66 -8.5q-69 0 -110.5 40.5t-41.5 111.5v346h-110v49h110l5 148h48v-148h199v-49h-199v-337q0 -52 30 -82.5t77 -30.5q25 0 54 7t49 18z" />
    <glyph glyph-name="u" unicode="u" horiz-adv-x="645" 
d="M505 538h53v-538h-53v114q-30 -54 -86 -88.5t-128 -34.5q-97 0 -155 63t-58 170v314h52v-308q0 -88 46 -138.5t126 -50.5q55 0 101.5 27.5t74 76t27.5 109.5v284z" />
    <glyph glyph-name="v" unicode="v" horiz-adv-x="563" 
d="M310 0h-56l-239 538h58l208 -476h1l208 476h58z" />
    <glyph glyph-name="w" unicode="w" horiz-adv-x="859" 
d="M619 63l164 475h56l-190 -538h-60l-159 467l-160 -467h-60l-190 538h56l164 -475l161 475h56z" />
    <glyph glyph-name="x" unicode="x" horiz-adv-x="568" 
d="M316 275l221 -275h-62l-191 238l-192 -238h-61l221 274l-212 264h64l180 -227l181 227h62z" />
    <glyph glyph-name="y" unicode="y" horiz-adv-x="567" 
d="M494 538h58l-239 -538l-24 -56q-29 -65 -68.5 -94.5t-99.5 -29.5q-25 0 -51 7.5t-45 18.5l17 39q35 -19 78 -19q41 0 68 21.5t49 68.5l20 46l-238 536h58l208 -476h1z" />
    <glyph glyph-name="z" unicode="z" horiz-adv-x="519" 
d="M483 0h-447v33l367 456h-358v49h433v-33l-368 -456h373v-49z" />
    <glyph glyph-name="braceleft" unicode="{" horiz-adv-x="338" 
d="M212.5 -98.5q25.5 -23.5 96.5 -31.5l-1 -42q-69 5 -107.5 20.5t-53.5 41t-15 64.5q0 10 2 36q1 15 5 45q10 96 10 134q0 49 -30.5 70.5t-89.5 21.5v39q59 0 89.5 21t30.5 70q-1 57 -10 134q-4 30 -5 45q-2 24 -2 35q0 39 15 65t53.5 41.5t107.5 20.5l1 -42
q-71 -8 -96.5 -31.5t-25.5 -71.5q0 -24 3 -54.5t4 -41.5q8 -68 8 -103q0 -51 -27 -77t-73 -31q46 -5 73 -31.5t27 -77.5q0 -31 -8 -101q-1 -12 -4 -43t-3 -54q0 -48 25.5 -71.5z" />
    <glyph glyph-name="bar" unicode="|" horiz-adv-x="248" 
d="M148 700v-793h-48v793h48z" />
    <glyph glyph-name="braceright" unicode="}" horiz-adv-x="338" 
d="M219.5 321q30.5 -21 89.5 -21v-39q-59 0 -89.5 -21.5t-30.5 -70.5q1 -57 10 -134q4 -30 5 -45q2 -24 2 -35q0 -39 -15 -65t-53.5 -41.5t-107.5 -20.5l-1 42q71 8 96.5 31.5t25.5 71.5q0 17 -1 26q-1 13 -5 48q-1 9 -5 49.5t-4 75.5q0 98 100 108q-47 5 -73.5 31.5
t-26.5 77.5q0 32 4 73t5 51q4 35 5 48q1 9 1 26q0 48 -25.5 71.5t-96.5 31.5l1 42q69 -5 107.5 -20.5t53.5 -41t15 -64.5q0 -10 -2 -36q-1 -15 -5 -45q-10 -96 -10 -134q0 -49 30.5 -70z" />
    <glyph glyph-name="asciitilde" unicode="~" horiz-adv-x="495" 
d="M29 600q13 34 42 53t74 19q28 0 50.5 -7t59.5 -21q29 -12 49 -18.5t42 -6.5q32 0 55 14t35 37l30 -10q-13 -34 -42 -53.5t-74 -19.5q-26 0 -50 7t-56 21q-34 13 -53.5 19t-41.5 6q-64 0 -90 -51z" />
    <glyph glyph-name="uni00A0" unicode="&#xa0;" horiz-adv-x="274" 
 />
    <glyph glyph-name="exclamdown" unicode="&#xa1;" horiz-adv-x="205" 
d="M142 464h-79v73h79v-73zM128 -164h-53v324l8 185h38l7 -186v-323z" />
    <glyph glyph-name="cent" unicode="&#xa2;" horiz-adv-x="571" 
d="M536 77q-39 -42 -91.5 -64t-111.5 -22q-19 0 -28 1l-25 -139h-44l26 146q-93 22 -150 95t-57 175q0 80 36.5 143.5t100 99t142.5 35.5q16 0 24 -1l24 135h44l-25 -141q79 -19 134 -77l-37 -32q-46 46 -105 60l-80 -450q7 -1 21 -1q50 0 89.5 16.5t74.5 52.5zM153 126.5
q44 -59.5 117 -78.5l80 450h-17q-64 0 -115 -29t-80 -81t-29 -119q0 -83 44 -142.5z" />
    <glyph glyph-name="sterling" unicode="&#xa3;" horiz-adv-x="585" 
d="M186 281v-237h363v-44h-502v32l89 11v238h-107v35h107v133q0 121 59.5 190t163.5 69q62 0 112 -28.5t86 -77.5l-34 -31q-64 93 -162 93q-83 0 -129 -58t-46 -153v-137h245v-35h-245z" />
    <glyph glyph-name="yen" unicode="&#xa5;" horiz-adv-x="665" 
d="M585 700h61l-264 -403h151v-35h-173v-100h173v-35h-173v-127h-56v127h-174v35h174v100h-174v35h154l-265 403h61l253 -388z" />
    <glyph glyph-name="brokenbar" unicode="&#xa6;" horiz-adv-x="243" 
d="M145 700v-297h-48v297h48zM145 208v-297h-48v297h48z" />
    <glyph glyph-name="section" unicode="&#xa7;" horiz-adv-x="633" 
d="M386 561q20 -49 59 -122q44 -83 65.5 -141t21.5 -125q0 -57 -28.5 -98t-76 -62t-104.5 -21q-101 0 -198 54l16 38q78 -42 153 -48q-4 55 -24.5 105.5t-58.5 122.5q-44 82 -66 139.5t-22 124.5q0 57 28.5 98t76.5 62t105 21q101 0 198 -54l-17 -38q-76 42 -152 48
q4 -55 24 -104zM446 77.5q40 36.5 40 97.5q0 59 -20 111t-61 129q-41 78 -62.5 132t-24.5 118q-68 -5 -108 -41.5t-40 -97.5q0 -59 20 -111t61 -129q41 -76 63 -131t25 -119q67 5 107 41.5z" />
    <glyph glyph-name="dieresis" unicode="&#xa8;" horiz-adv-x="330" 
d="M110 619h-41v105h41v-105zM262 619h-42v105h42v-105z" />
    <glyph glyph-name="copyright" unicode="&#xa9;" horiz-adv-x="851" 
d="M247 42q-82 48 -130 130t-48 179t48 179t130 130t179 48t179 -48t130 -130t48 -179t-48 -179t-130 -130t-179 -48t-179 48zM584.5 77.5q72.5 42.5 115 115t42.5 158.5t-42.5 158.5t-115 115t-158.5 42.5t-158.5 -42.5t-115 -115t-42.5 -158.5t42.5 -158.5t115 -115
t158.5 -42.5t158.5 42.5zM332.5 186q-44.5 25 -69.5 69.5t-25 100.5q0 54 25.5 98t69.5 69.5t99 25.5q87 0 144 -58l-25 -23q-47 46 -118 46q-43 0 -78 -20.5t-55.5 -56.5t-20.5 -81q0 -46 20.5 -83t55.5 -57.5t78 -20.5q37 0 65.5 13t52.5 38l25 -24q-55 -61 -145 -61
q-54 0 -98.5 25z" />
    <glyph glyph-name="ordfeminine" unicode="&#xaa;" horiz-adv-x="300" 
d="M219 668v13q0 73 -79 73q-49 0 -88 -25l-12 28q46 30 105 30q58 0 87.5 -28.5t29.5 -80.5v-167h-43v65q-11 -27 -39 -48.5t-63 -21.5q-43 0 -68.5 21.5t-25.5 58.5q0 40 28 63.5t79 23.5q42 0 89 -5zM193.5 565.5q25.5 27.5 25.5 60.5v15q-29 5 -79 5q-36 0 -55.5 -14
t-19.5 -39q0 -26 17 -40.5t49 -14.5q37 0 62.5 27.5zM20 419v36h244v-36h-244z" />
    <glyph glyph-name="guillemotleft" unicode="&#xab;" horiz-adv-x="463" 
d="M238 60l-31 -17l-178 205v19l174 204l35 -17l-163 -197zM434 60l-34 -17l-181 211v7l181 210l34 -17l-163 -197z" />
    <glyph glyph-name="logicalnot" unicode="&#xac;" horiz-adv-x="453" 
d="M29 319v44h395v-181h-43v137h-352z" />
    <glyph glyph-name="uni00AD" unicode="&#xad;" horiz-adv-x="448" 
d="M419 241v-44h-390v44h390z" />
    <glyph glyph-name="registered" unicode="&#xae;" horiz-adv-x="435" 
d="M292 689q34 -20 54 -54t20 -74q0 -41 -20 -75.5t-54 -54.5t-75 -20q-40 0 -74 20t-54 54.5t-20 75.5q0 40 20 74t54 54t74 20q41 0 75 -20zM284 445q31 18 49 49t18 67t-18 66.5t-49 48.5t-67 18t-66.5 -18t-48.5 -48.5t-18 -66.5t18 -67t48.5 -49t66.5 -18t67 18z
M280.5 559q-14.5 -14 -40.5 -18l56 -62h-25l-54 61h-39v-61h-21v172h66q33 0 52.5 -14.5t19.5 -40.5q0 -23 -14.5 -37zM178 632v-74h45q51 0 51 37q0 18 -13.5 27.5t-37.5 9.5h-45z" />
    <glyph glyph-name="macron" unicode="&#xaf;" horiz-adv-x="403" 
d="M334 645h-265v36h266z" />
    <glyph glyph-name="degree" unicode="&#xb0;" horiz-adv-x="435" 
d="M143 431q-34 20 -54 54.5t-20 75.5q0 40 20 74t54 54t74 20q41 0 75 -20t54 -54t20 -74q0 -41 -20 -75.5t-54 -54.5t-75 -20q-40 0 -74 20zM305.5 472q36.5 37 36.5 89t-37 88.5t-89 36.5t-88.5 -36.5t-36.5 -88.5t36.5 -89t88.5 -37q53 0 89.5 37z" />
    <glyph glyph-name="plusminus" unicode="&#xb1;" horiz-adv-x="496" 
d="M467 357v-43h-197v-163h185v-36h-408v36h180v163h-198v43h198v178h43v-178h197z" />
    <glyph glyph-name="uni00B2" unicode="&#xb2;" horiz-adv-x="276" 
d="M31 543q54 38 114 93q31 27 45 47t14 39q0 27 -19.5 44t-49.5 17q-22 0 -43.5 -10.5t-38.5 -27.5l-23 27q21 21 50 33t60 12q44 0 75 -25t31 -66q0 -27 -13.5 -49.5t-50.5 -56.5q-5 -5 -42 -36q-27 -23 -38 -33h146v-36h-217v28z" />
    <glyph glyph-name="uni00B3" unicode="&#xb3;" horiz-adv-x="283" 
d="M78.5 522q-28.5 12 -50.5 32l17 27q17 -16 43.5 -26t49.5 -10q32 0 53 18.5t21 46.5q0 25 -19 42.5t-47 17.5q-30 0 -54 -4v21l102 97h-148v29h192l3 -24l-98 -97q18 2 25 2q38 -2 62.5 -26.5t24.5 -60.5q0 -43 -33 -70t-81 -27q-34 0 -62.5 12z" />
    <glyph glyph-name="acute" unicode="&#xb4;" horiz-adv-x="287" 
d="M227 718l-114 -126l-36 6l98 134z" />
    <glyph glyph-name="uni00B5" unicode="&#xb5;" horiz-adv-x="645" 
d="M505 538h53v-538h-53v114q-30 -54 -86 -88.5t-128 -34.5q-51 0 -92 18t-69 52l1 -232h-53v709h52v-308q0 -88 46 -138.5t126 -50.5q55 0 101.5 27.5t74 76t27.5 109.5v284z" />
    <glyph glyph-name="paragraph" unicode="&#xb6;" horiz-adv-x="720" 
d="M403 700v-820h-38v418h-77q-117 0 -183 53t-66 149q0 94 65.5 147t181.5 53h117zM582 -120v820h38v-820h-38z" />
    <glyph glyph-name="periodcentered" unicode="&#xb7;" horiz-adv-x="183" 
d="M55 324v70h75v-70h-75z" />
    <glyph glyph-name="cedilla" unicode="&#xb8;" horiz-adv-x="237" 
d="M116 -39q35 -5 56 -23t21 -45q0 -30 -25.5 -50t-72.5 -20q-32 0 -61 9l8 32q19 -8 49 -8q28 0 42 11.5t14 29.5q0 21 -19.5 33.5t-54.5 12.5l17 61h39z" />
    <glyph glyph-name="uni00B9" unicode="&#xb9;" horiz-adv-x="204" 
d="M151 515h-40v262l-78 -9l-5 35l90 10h33v-298z" />
    <glyph glyph-name="ordmasculine" unicode="&#xba;" horiz-adv-x="343" 
d="M68.5 546q-40.5 40 -40.5 100q0 61 40.5 101t102.5 40q63 0 103.5 -39.5t40.5 -100.5t-41 -101t-103 -40t-102.5 40zM243.5 571.5q28.5 29.5 28.5 74.5q0 46 -28.5 76t-72.5 30q-43 0 -71.5 -30t-28.5 -76q0 -44 29 -74t72 -30t71.5 29.5zM36 419v36h276v-36h-276z" />
    <glyph glyph-name="guillemotright" unicode="&#xbb;" horiz-adv-x="463" 
d="M244 254l-180 -211l-35 17l163 197l-163 197l35 17l180 -210v-7zM435 248l-179 -205l-31 17l163 197l-163 197l35 17l175 -204v-19z" />
    <glyph glyph-name="onequarter" unicode="&#xbc;" horiz-adv-x="658" 
d="M151 422h-40v262l-78 -9l-5 35l90 10h33v-298zM89 0h-48l422 700h47zM579 0h-39v71h-161l-7 24l155 203h52v-196h50v-31h-50v-71zM540 264l-123 -162h123v162z" />
    <glyph glyph-name="onehalf" unicode="&#xbd;" horiz-adv-x="619" 
d="M151 422h-40v262l-78 -9l-5 35l90 10h33v-298zM89 0h-48l422 700h47zM374 28q54 38 114 93q31 27 45 47t14 39q0 27 -19.5 44t-49.5 17q-22 0 -43.5 -10.5t-38.5 -27.5l-23 27q21 21 50 33t60 12q44 0 75 -25t31 -66q0 -27 -13.5 -49.5t-50.5 -56.5q-5 -5 -42 -36
q-27 -23 -38 -33h146v-36h-217v28z" />
    <glyph glyph-name="threequarters" unicode="&#xbe;" horiz-adv-x="737" 
d="M78.5 429q-28.5 12 -50.5 32l17 27q17 -16 43.5 -26t49.5 -10q32 0 53 18.5t21 46.5q0 25 -19 42.5t-47 17.5q-30 0 -54 -4v21l102 97h-148v29h192l3 -24l-98 -97q18 2 25 2q38 -2 62.5 -26.5t24.5 -60.5q0 -43 -33 -70t-81 -27q-34 0 -62.5 12zM168 0h-48l422 700h47z
M658 0h-39v71h-161l-7 24l155 203h52v-196h50v-31h-50v-71zM619 264l-123 -162h123v162z" />
    <glyph glyph-name="questiondown" unicode="&#xbf;" horiz-adv-x="517" 
d="M326 538v-74h-79v74h79zM313 345q4 -69 -23 -115.5t-82 -90.5q-45 -38 -68 -67t-23 -67q0 -58 43.5 -91.5t118.5 -33.5q97 0 198 69l20 -45q-114 -74 -223 -74q-96 0 -153 46t-57 124q0 50 26.5 85t77.5 77q57 50 76.5 87.5t20.5 95.5h48z" />
    <glyph glyph-name="Agrave" unicode="&#xc0;" horiz-adv-x="752" 
d="M729 0h-59l-82 176h-425l-82 -176h-57l325 700h54zM376 636l-190 -410h379zM392 753l-36 -4l-89 99l48 14z" />
    <glyph glyph-name="Aacute" unicode="&#xc1;" horiz-adv-x="752" 
d="M729 0h-59l-82 176h-425l-82 -176h-57l325 700h54zM376 636l-190 -410h379zM487 848l-90 -99l-36 4l77 109z" />
    <glyph glyph-name="Acircumflex" unicode="&#xc2;" horiz-adv-x="752" 
d="M729 0h-59l-82 176h-425l-82 -176h-57l325 700h54zM376 636l-190 -410h379zM406 880l104 -118l-45 -6l-87 100l-88 -100l-45 6l104 118h57z" />
    <glyph glyph-name="Atilde" unicode="&#xc3;" horiz-adv-x="752" 
d="M729 0h-59l-82 176h-425l-82 -176h-57l325 700h54zM376 636l-190 -410h379zM216 764q0 38 22 61.5t55 23.5q19 0 35 -7.5t39 -21.5q21 -12 33.5 -18t25.5 -6q23 0 37.5 16t14.5 41l30 -7q0 -38 -22 -61.5t-56 -23.5q-19 0 -35 7.5t-39 21.5q-22 13 -33.5 18.5t-24.5 5.5
q-23 0 -37.5 -16t-14.5 -41z" />
    <glyph glyph-name="Adieresis" unicode="&#xc4;" horiz-adv-x="752" 
d="M729 0h-59l-82 176h-425l-82 -176h-57l325 700h54zM376 636l-190 -410h379zM333 768h-52v101h52v-101zM481 768h-52v101h52v-101z" />
    <glyph glyph-name="Aring" unicode="&#xc5;" horiz-adv-x="752" 
d="M670 0l-82 176h-425l-82 -176h-57l316 680q-30 11 -48 37t-18 58q0 44 31 73.5t77 29.5t76.5 -29.5t30.5 -73.5q0 -35 -20.5 -62t-54.5 -37l315 -676h-59zM331.5 725q20.5 -20 50.5 -20t50 20t20 50t-20 50t-50 20t-50.5 -20t-20.5 -50t20.5 -50zM376 636l-190 -410h379z
" />
    <glyph glyph-name="AE" unicode="&#xc6;" horiz-adv-x="1066" 
d="M537 333v-283h477v-50h-531v187h-288l-113 -187h-58l420 700h560v-49h-467v-269h410v-49h-410zM478 653l-252 -416h257v416h-5z" />
    <glyph glyph-name="Ccedilla" unicode="&#xc7;" horiz-adv-x="720" 
d="M687 99q-46 -47 -106.5 -75t-132.5 -32l-11 -38q35 -5 56 -23t21 -45q0 -30 -25.5 -50t-72.5 -20q-32 0 -61 9l8 32q19 -8 49 -8q28 0 42 11.5t14 29.5q0 21 -19.5 33.5t-54.5 12.5l15 55q-96 4 -173.5 52.5t-122 129t-44.5 177.5q0 100 46.5 182t128 129.5t182.5 47.5
q154 0 259 -103l-35 -36q-44 43 -98 66t-126 23q-85 0 -154 -41t-108 -111.5t-39 -155.5q0 -87 40 -158t109 -111.5t152 -40.5q68 0 125 24.5t101 68.5z" />
    <glyph glyph-name="Egrave" unicode="&#xc8;" horiz-adv-x="683" 
d="M154 333v-283h477v-50h-531v700h521v-49h-467v-269h410v-49h-410zM362 753l-36 -4l-89 99l48 14z" />
    <glyph glyph-name="Eacute" unicode="&#xc9;" horiz-adv-x="683" 
d="M154 333v-283h477v-50h-531v700h521v-49h-467v-269h410v-49h-410zM458 848l-90 -99l-36 4l77 109z" />
    <glyph glyph-name="Ecircumflex" unicode="&#xca;" horiz-adv-x="683" 
d="M154 333v-283h477v-50h-531v700h521v-49h-467v-269h410v-49h-410zM376 880l104 -118l-45 -6l-87 100l-88 -100l-45 6l104 118h57z" />
    <glyph glyph-name="Edieresis" unicode="&#xcb;" horiz-adv-x="683" 
d="M154 333v-283h477v-50h-531v700h521v-49h-467v-269h410v-49h-410zM303 768h-52v101h52v-101zM451 768h-52v101h52v-101z" />
    <glyph glyph-name="Igrave" unicode="&#xcc;" horiz-adv-x="255" 
d="M155 0h-55v700h55v-700zM142 753l-36 -4l-89 99l48 14z" />
    <glyph glyph-name="Iacute" unicode="&#xcd;" horiz-adv-x="255" 
d="M155 0h-55v700h55v-700zM238 848l-90 -99l-36 4l77 109z" />
    <glyph glyph-name="Icircumflex" unicode="&#xce;" horiz-adv-x="255" 
d="M155 0h-55v700h55v-700zM156 880l104 -118l-45 -6l-87 100l-88 -100l-45 6l104 118h57z" />
    <glyph glyph-name="Idieresis" unicode="&#xcf;" horiz-adv-x="255" 
d="M155 0h-55v700h55v-700zM83 768h-52v101h52v-101zM231 768h-52v101h52v-101z" />
    <glyph glyph-name="Eth" unicode="&#xd0;" horiz-adv-x="812" 
d="M369 700q113 0 198 -43t131 -122t46 -185t-46 -185t-131 -122t-198 -43h-269v331h-65v42h65v327h269zM366 50q97 0 169.5 36.5t111.5 104t39 159.5t-39 160t-111.5 104.5t-170.5 36.5h-210v-278h242v-42h-242v-281h211z" />
    <glyph glyph-name="Ntilde" unicode="&#xd1;" horiz-adv-x="783" 
d="M155 0h-55v700h47l481 -604v604h55v-700h-46l-482 606v-606zM231 764q0 38 22 61.5t55 23.5q19 0 35 -7.5t39 -21.5q21 -12 33.5 -18t25.5 -6q23 0 37.5 16t14.5 41l30 -7q0 -38 -22 -61.5t-56 -23.5q-19 0 -35 7.5t-39 21.5q-22 13 -33.5 18.5t-24.5 5.5
q-23 0 -37.5 -16t-14.5 -41z" />
    <glyph glyph-name="Ograve" unicode="&#xd2;" horiz-adv-x="855" 
d="M243 37q-82 46 -128 128t-46 185t46.5 184.5t128 128t184.5 46.5t184.5 -46t128 -128t46.5 -185t-46.5 -184.5t-128.5 -128t-185 -46.5q-102 0 -184 46zM583.5 81q68.5 39 107 109.5t38.5 159.5t-38.5 159.5t-107 110t-155.5 39.5t-156 -39.5t-107.5 -110t-38.5 -159.5
t38.5 -159.5t107.5 -109.5t156 -39t155.5 39zM443 753l-36 -4l-89 99l48 14z" />
    <glyph glyph-name="Oacute" unicode="&#xd3;" horiz-adv-x="855" 
d="M243 37q-82 46 -128 128t-46 185t46.5 184.5t128 128t184.5 46.5t184.5 -46t128 -128t46.5 -185t-46.5 -184.5t-128.5 -128t-185 -46.5q-102 0 -184 46zM583.5 81q68.5 39 107 109.5t38.5 159.5t-38.5 159.5t-107 110t-155.5 39.5t-156 -39.5t-107.5 -110t-38.5 -159.5
t38.5 -159.5t107.5 -109.5t156 -39t155.5 39zM539 848l-90 -99l-36 4l77 109z" />
    <glyph glyph-name="Ocircumflex" unicode="&#xd4;" horiz-adv-x="855" 
d="M243 37q-82 46 -128 128t-46 185t46.5 184.5t128 128t184.5 46.5t184.5 -46t128 -128t46.5 -185t-46.5 -184.5t-128.5 -128t-185 -46.5q-102 0 -184 46zM583.5 81q68.5 39 107 109.5t38.5 159.5t-38.5 159.5t-107 110t-155.5 39.5t-156 -39.5t-107.5 -110t-38.5 -159.5
t38.5 -159.5t107.5 -109.5t156 -39t155.5 39zM457 880l104 -118l-45 -6l-87 100l-88 -100l-45 6l104 118h57z" />
    <glyph glyph-name="Otilde" unicode="&#xd5;" horiz-adv-x="855" 
d="M243 37q-82 46 -128 128t-46 185t46.5 184.5t128 128t184.5 46.5t184.5 -46t128 -128t46.5 -185t-46.5 -184.5t-128.5 -128t-185 -46.5q-102 0 -184 46zM583.5 81q68.5 39 107 109.5t38.5 159.5t-38.5 159.5t-107 110t-155.5 39.5t-156 -39.5t-107.5 -110t-38.5 -159.5
t38.5 -159.5t107.5 -109.5t156 -39t155.5 39zM267 764q0 38 22 61.5t55 23.5q19 0 35 -7.5t39 -21.5q21 -12 33.5 -18t25.5 -6q23 0 37.5 16t14.5 41l30 -7q0 -38 -22 -61.5t-56 -23.5q-19 0 -35 7.5t-39 21.5q-22 13 -33.5 18.5t-24.5 5.5q-23 0 -37.5 -16t-14.5 -41z" />
    <glyph glyph-name="Odieresis" unicode="&#xd6;" horiz-adv-x="855" 
d="M243 37q-82 46 -128 128t-46 185t46.5 184.5t128 128t184.5 46.5t184.5 -46t128 -128t46.5 -185t-46.5 -184.5t-128.5 -128t-185 -46.5q-102 0 -184 46zM583.5 81q68.5 39 107 109.5t38.5 159.5t-38.5 159.5t-107 110t-155.5 39.5t-156 -39.5t-107.5 -110t-38.5 -159.5
t38.5 -159.5t107.5 -109.5t156 -39t155.5 39zM384 768h-52v101h52v-101zM532 768h-52v101h52v-101z" />
    <glyph glyph-name="multiply" unicode="&#xd7;" horiz-adv-x="378" 
d="M318 513l31 -30l-129 -129l129 -129l-31 -31l-129 129l-129 -130l-31 32l129 129l-129 129l31 31l129 -129z" />
    <glyph glyph-name="Oslash" unicode="&#xd8;" horiz-adv-x="855" 
d="M787 679l-87 -87q42 -47 64.5 -109t22.5 -133q0 -103 -46.5 -184.5t-128.5 -128t-185 -46.5q-70 0 -132 22.5t-109 64.5l-80 -80l-30 30l80 80q-42 47 -64.5 109t-22.5 133q0 103 46.5 184.5t128 128t184.5 46.5q71 0 133 -22.5t109 -64.5l87 87zM143.5 238
q17.5 -52 50.5 -92l438 438q-39 36 -91.5 55.5t-112.5 19.5q-87 0 -156 -39.5t-107.5 -110t-38.5 -159.5q0 -60 17.5 -112zM711.5 461q-17.5 52 -50.5 92l-437 -437q39 -36 91.5 -55t112.5 -19q87 0 155.5 39t107 109.5t38.5 159.5q0 59 -17.5 111z" />
    <glyph glyph-name="Ugrave" unicode="&#xd9;" horiz-adv-x="731" 
d="M214 26.5q-65 35.5 -100 102t-35 157.5v414h55v-405q0 -116 62 -181t170 -65q107 0 169.5 65t62.5 181v405h54v-414q0 -91 -34.5 -157.5t-99.5 -102t-152 -35.5t-152 35.5zM381 753l-36 -4l-89 99l48 14z" />
    <glyph glyph-name="Uacute" unicode="&#xda;" horiz-adv-x="731" 
d="M214 26.5q-65 35.5 -100 102t-35 157.5v414h55v-405q0 -116 62 -181t170 -65q107 0 169.5 65t62.5 181v405h54v-414q0 -91 -34.5 -157.5t-99.5 -102t-152 -35.5t-152 35.5zM477 848l-90 -99l-36 4l77 109z" />
    <glyph glyph-name="Ucircumflex" unicode="&#xdb;" horiz-adv-x="731" 
d="M214 26.5q-65 35.5 -100 102t-35 157.5v414h55v-405q0 -116 62 -181t170 -65q107 0 169.5 65t62.5 181v405h54v-414q0 -91 -34.5 -157.5t-99.5 -102t-152 -35.5t-152 35.5zM395 880l104 -118l-45 -6l-87 100l-88 -100l-45 6l104 118h57z" />
    <glyph glyph-name="Udieresis" unicode="&#xdc;" horiz-adv-x="731" 
d="M214 26.5q-65 35.5 -100 102t-35 157.5v414h55v-405q0 -116 62 -181t170 -65q107 0 169.5 65t62.5 181v405h54v-414q0 -91 -34.5 -157.5t-99.5 -102t-152 -35.5t-152 35.5zM322 768h-52v101h52v-101zM470 768h-52v101h52v-101z" />
    <glyph glyph-name="Yacute" unicode="&#xdd;" horiz-adv-x="665" 
d="M585 700h61l-286 -436v-264h-56v267l-285 433h61l253 -388zM444 848l-90 -99l-36 4l77 109z" />
    <glyph glyph-name="Thorn" unicode="&#xde;" horiz-adv-x="673" 
d="M353 582q132 0 206.5 -60.5t74.5 -167.5q0 -108 -75.5 -169t-207.5 -61h-196v-124h-55v700h55v-118h198zM351 169q109 0 169 49t60 137q0 86 -60 134t-168 48h-197v-368h196z" />
    <glyph glyph-name="germandbls" unicode="&#xdf;" horiz-adv-x="653" 
d="M544 323q55 -51 55 -126q0 -62 -30 -108.5t-83.5 -71.5t-124.5 -25q-32 0 -66 8.5t-59 21.5l5 42q24 -13 54.5 -20.5t55.5 -7.5q90 0 143 44.5t53 120.5q0 46 -26.5 82t-73.5 56t-106 20q-13 0 -31.5 -1.5t-30.5 -3.5v37q6 1 26.5 3t25.5 3q73 14 118.5 60.5t45.5 105.5
q0 40 -21 72t-58 50t-84 18q-81 0 -129 -51.5t-48 -137.5v-514h-53v515q0 69 28.5 122t80.5 81.5t121 28.5q61 0 110.5 -23.5t77 -65t27.5 -92.5q0 -61 -40.5 -110.5t-105.5 -70.5q88 -11 143 -62z" />
    <glyph glyph-name="agrave" unicode="&#xe0;" horiz-adv-x="567" 
d="M434 493.5q56 -53.5 56 -154.5v-339h-53v120q-25 -51 -81.5 -90t-131.5 -39q-86 0 -136 44.5t-50 117.5q0 77 52.5 121.5t155.5 44.5q93 0 191 -13v32q0 79 -44 119.5t-127 40.5q-46 0 -91 -15.5t-82 -45.5l-27 40q43 35 96 52.5t109 17.5q107 0 163 -53.5zM339.5 69
q45.5 29 71.5 74.5t26 90.5v27q-89 13 -180 13q-85 0 -126.5 -30.5t-41.5 -87.5q0 -56 38.5 -86t111.5 -30q55 0 100.5 29zM294 601l-37 -6l-113 126l51 14z" />
    <glyph glyph-name="aacute" unicode="&#xe1;" horiz-adv-x="567" 
d="M434 493.5q56 -53.5 56 -154.5v-339h-53v120q-25 -51 -81.5 -90t-131.5 -39q-86 0 -136 44.5t-50 117.5q0 77 52.5 121.5t155.5 44.5q93 0 191 -13v32q0 79 -44 119.5t-127 40.5q-46 0 -91 -15.5t-82 -45.5l-27 40q43 35 96 52.5t109 17.5q107 0 163 -53.5zM339.5 69
q45.5 29 71.5 74.5t26 90.5v27q-89 13 -180 13q-85 0 -126.5 -30.5t-41.5 -87.5q0 -56 38.5 -86t111.5 -30q55 0 100.5 29zM407 721l-114 -126l-36 6l98 134z" />
    <glyph glyph-name="acircumflex" unicode="&#xe2;" horiz-adv-x="567" 
d="M434 493.5q56 -53.5 56 -154.5v-339h-53v120q-25 -51 -81.5 -90t-131.5 -39q-86 0 -136 44.5t-50 117.5q0 77 52.5 121.5t155.5 44.5q93 0 191 -13v32q0 79 -44 119.5t-127 40.5q-46 0 -91 -15.5t-82 -45.5l-27 40q43 35 96 52.5t109 17.5q107 0 163 -53.5zM339.5 69
q45.5 29 71.5 74.5t26 90.5v27q-89 13 -180 13q-85 0 -126.5 -30.5t-41.5 -87.5q0 -56 38.5 -86t111.5 -30q55 0 100.5 29zM301 727l95 -129l-41 -6l-80 109l-80 -109l-41 6l95 129h52z" />
    <glyph glyph-name="atilde" unicode="&#xe3;" horiz-adv-x="567" 
d="M434 493.5q56 -53.5 56 -154.5v-339h-53v120q-25 -51 -81.5 -90t-131.5 -39q-86 0 -136 44.5t-50 117.5q0 77 52.5 121.5t155.5 44.5q93 0 191 -13v32q0 79 -44 119.5t-127 40.5q-46 0 -91 -15.5t-82 -45.5l-27 40q43 35 96 52.5t109 17.5q107 0 163 -53.5zM339.5 69
q45.5 29 71.5 74.5t26 90.5v27q-89 13 -180 13q-85 0 -126.5 -30.5t-41.5 -87.5q0 -56 38.5 -86t111.5 -30q55 0 100.5 29zM129 621q0 38 22 61.5t55 23.5q19 0 35 -7.5t39 -21.5q21 -12 33.5 -18t25.5 -6q23 0 37.5 16t14.5 41l30 -7q0 -38 -22 -61.5t-56 -23.5
q-19 0 -35 7.5t-39 21.5q-22 13 -33.5 18.5t-24.5 5.5q-23 0 -37.5 -16t-14.5 -41z" />
    <glyph glyph-name="adieresis" unicode="&#xe4;" horiz-adv-x="567" 
d="M434 493.5q56 -53.5 56 -154.5v-339h-53v120q-25 -51 -81.5 -90t-131.5 -39q-86 0 -136 44.5t-50 117.5q0 77 52.5 121.5t155.5 44.5q93 0 191 -13v32q0 79 -44 119.5t-127 40.5q-46 0 -91 -15.5t-82 -45.5l-27 40q43 35 96 52.5t109 17.5q107 0 163 -53.5zM339.5 69
q45.5 29 71.5 74.5t26 90.5v27q-89 13 -180 13q-85 0 -126.5 -30.5t-41.5 -87.5q0 -56 38.5 -86t111.5 -30q55 0 100.5 29zM218 622h-41v105h41v-105zM370 622h-42v105h42v-105z" />
    <glyph glyph-name="aring" unicode="&#xe5;" horiz-adv-x="572" 
d="M434 493.5q56 -53.5 56 -154.5v-339h-53v120q-25 -51 -81.5 -90t-131.5 -39q-86 0 -136 44.5t-50 117.5q0 77 52.5 121.5t155.5 44.5q93 0 191 -13v32q0 79 -44 119.5t-127 40.5q-46 0 -91 -15.5t-82 -45.5l-27 40q43 35 96 52.5t109 17.5q107 0 163 -53.5zM339.5 69
q45.5 29 71.5 74.5t26 90.5v27q-89 13 -180 13q-85 0 -126.5 -30.5t-41.5 -87.5q0 -56 38.5 -86t111.5 -30q55 0 100.5 29zM206.5 618.5q-30.5 29.5 -30.5 73.5t30.5 73.5t76.5 29.5t77 -29.5t31 -73.5t-31 -73.5t-77 -29.5t-76.5 29.5zM333.5 642q20.5 20 20.5 50t-20.5 50
t-50.5 20t-50 -20t-20 -50t20 -50t50 -20t50.5 20z" />
    <glyph glyph-name="ae" unicode="&#xe6;" horiz-adv-x="992" 
d="M479 251q3 -62 33 -110t80.5 -74.5t114.5 -26.5q105 0 170 71l35 -32q-39 -41 -92 -64.5t-116 -23.5q-88 0 -156 43t-100 117q-16 -40 -50 -77t-83 -60t-107 -23q-81 0 -130.5 44t-49.5 117q0 75 54.5 119t153.5 44q107 0 191 -12v3v36q-1 78 -44.5 118.5t-126.5 40.5
q-47 0 -93 -15.5t-80 -44.5l-29 37q44 33 97.5 51t108.5 18q81 0 132.5 -33t72.5 -93q34 59 94.5 92t136.5 33q72 0 127.5 -33t86.5 -93t31 -139q0 -4 -2 -30h-460zM589 472.5q-47 -25.5 -75.5 -71t-33.5 -104.5h409q-6 94 -58 147.5t-135 53.5q-60 0 -107 -25.5zM327 67
q47 29 73.5 74t26.5 92q-2 18 -2 29q-73 12 -178 12q-79 0 -123.5 -31.5t-44.5 -86.5t37.5 -86.5t103.5 -31.5q60 0 107 29z" />
    <glyph glyph-name="ccedilla" unicode="&#xe7;" horiz-adv-x="573" 
d="M536 77q-36 -39 -83.5 -60.5t-100.5 -24.5l-10 -32q35 -5 56 -23t21 -45q0 -30 -25.5 -50t-72.5 -20q-32 0 -61 9l8 32q19 -8 49 -8q28 0 42 11.5t14 29.5q0 21 -19.5 33.5t-54.5 12.5l14 50q-74 4 -132.5 41t-92 98.5t-33.5 137.5q0 80 36.5 143.5t100 99t142.5 35.5
q58 0 109.5 -21t91.5 -63l-37 -32q-67 67 -165 67q-64 0 -115 -29t-80 -81t-29 -119t29 -119t80.5 -81t115.5 -29q50 0 89.5 16.5t74.5 52.5z" />
    <glyph glyph-name="egrave" unicode="&#xe8;" horiz-adv-x="616" 
d="M109 251q3 -62 33 -110t80.5 -74.5t113.5 -26.5q105 0 171 71l35 -32q-39 -41 -92.5 -64.5t-116.5 -23.5q-79 0 -142.5 36t-99.5 99.5t-36 142.5q0 80 34 143t95.5 98.5t141.5 35.5q72 0 127.5 -33t86.5 -93t31 -139q0 -4 -2 -30h-460zM176.5 442q-58.5 -56 -66.5 -145
h409q-6 94 -58 147.5t-135 53.5q-91 0 -149.5 -56zM331 598l-37 -6l-113 126l51 14z" />
    <glyph glyph-name="eacute" unicode="&#xe9;" horiz-adv-x="616" 
d="M109 251q3 -62 33 -110t80.5 -74.5t113.5 -26.5q105 0 171 71l35 -32q-39 -41 -92.5 -64.5t-116.5 -23.5q-79 0 -142.5 36t-99.5 99.5t-36 142.5q0 80 34 143t95.5 98.5t141.5 35.5q72 0 127.5 -33t86.5 -93t31 -139q0 -4 -2 -30h-460zM176.5 442q-58.5 -56 -66.5 -145
h409q-6 94 -58 147.5t-135 53.5q-91 0 -149.5 -56zM445 718l-114 -126l-36 6l98 134z" />
    <glyph glyph-name="ecircumflex" unicode="&#xea;" horiz-adv-x="616" 
d="M109 251q3 -62 33 -110t80.5 -74.5t113.5 -26.5q105 0 171 71l35 -32q-39 -41 -92.5 -64.5t-116.5 -23.5q-79 0 -142.5 36t-99.5 99.5t-36 142.5q0 80 34 143t95.5 98.5t141.5 35.5q72 0 127.5 -33t86.5 -93t31 -139q0 -4 -2 -30h-460zM176.5 442q-58.5 -56 -66.5 -145
h409q-6 94 -58 147.5t-135 53.5q-91 0 -149.5 -56zM338 724l95 -129l-41 -6l-80 109l-80 -109l-41 6l95 129h52z" />
    <glyph glyph-name="edieresis" unicode="&#xeb;" horiz-adv-x="616" 
d="M109 251q3 -62 33 -110t80.5 -74.5t113.5 -26.5q105 0 171 71l35 -32q-39 -41 -92.5 -64.5t-116.5 -23.5q-79 0 -142.5 36t-99.5 99.5t-36 142.5q0 80 34 143t95.5 98.5t141.5 35.5q72 0 127.5 -33t86.5 -93t31 -139q0 -4 -2 -30h-460zM176.5 442q-58.5 -56 -66.5 -145
h409q-6 94 -58 147.5t-135 53.5q-91 0 -149.5 -56zM256 619h-41v105h41v-105zM408 619h-42v105h42v-105z" />
    <glyph glyph-name="igrave" unicode="&#xec;" horiz-adv-x="227" 
d="M140 0h-53v538h53v-538zM132 598l-37 -6l-113 126l51 14z" />
    <glyph glyph-name="iacute" unicode="&#xed;" horiz-adv-x="227" 
d="M140 0h-53v538h53v-538zM245 718l-114 -126l-36 6l98 134z" />
    <glyph glyph-name="icircumflex" unicode="&#xee;" horiz-adv-x="227" 
d="M140 0h-53v538h53v-538zM139 724l95 -129l-41 -6l-80 109l-80 -109l-41 6l95 129h52z" />
    <glyph glyph-name="idieresis" unicode="&#xef;" horiz-adv-x="227" 
d="M140 0h-53v538h53v-538zM57 619h-41v105h41v-105zM209 619h-42v105h42v-105z" />
    <glyph glyph-name="eth" unicode="&#xf0;" horiz-adv-x="669" 
d="M476 661q66 -56 102 -142.5t36 -192.5q0 -97 -39 -173t-108 -119t-156 -43q-74 0 -132 30.5t-91 85.5t-33 125q0 69 32.5 124.5t91 87t131.5 31.5q82 0 148 -50.5t101 -137.5q1 12 1 38q-1 98 -33 177t-91 130l-146 -107l-26 23l144 105q-91 61 -215 55l15 38l25 1
q121 0 215 -64l77 56l26 -23zM457 81q63 49 88 134q-14 66 -48 115t-81.5 75t-101.5 26q-59 0 -106 -25.5t-74 -71.5t-27 -104q0 -57 26.5 -102t73 -70.5t104.5 -25.5q83 0 146 49z" />
    <glyph glyph-name="ntilde" unicode="&#xf1;" horiz-adv-x="645" 
d="M466.5 518.5q48.5 -28.5 75 -81t26.5 -123.5v-314h-53v308q0 88 -46 138.5t-126 50.5q-55 0 -101.5 -27.5t-74 -76t-27.5 -109.5v-284h-53v538h53v-113q30 54 86.5 88t127.5 34q64 0 112.5 -28.5zM177 618q0 38 22 61.5t55 23.5q19 0 35 -7.5t39 -21.5q21 -12 33.5 -18
t25.5 -6q23 0 37.5 16t14.5 41l30 -7q0 -38 -22 -61.5t-56 -23.5q-19 0 -35 7.5t-39 21.5q-22 13 -33.5 18.5t-24.5 5.5q-23 0 -37.5 -16t-14.5 -41z" />
    <glyph glyph-name="ograve" unicode="&#xf2;" 
d="M190.5 27q-63.5 36 -99.5 99.5t-36 142.5t36 142.5t99.5 99.5t142.5 36q80 0 144 -36t100 -99t36 -142q0 -80 -36 -143.5t-100 -99.5t-144 -36q-79 0 -142.5 36zM450.5 69.5q51.5 29.5 80.5 81.5t29 118q0 67 -29 119t-81 81t-117 29q-64 0 -115.5 -29t-80.5 -81.5
t-29 -118.5t29.5 -118t81 -81.5t115.5 -29.5q65 0 116.5 29.5zM353 598l-37 -6l-113 126l51 14z" />
    <glyph glyph-name="oacute" unicode="&#xf3;" 
d="M190.5 27q-63.5 36 -99.5 99.5t-36 142.5t36 142.5t99.5 99.5t142.5 36q80 0 144 -36t100 -99t36 -142q0 -80 -36 -143.5t-100 -99.5t-144 -36q-79 0 -142.5 36zM450.5 69.5q51.5 29.5 80.5 81.5t29 118q0 67 -29 119t-81 81t-117 29q-64 0 -115.5 -29t-80.5 -81.5
t-29 -118.5t29.5 -118t81 -81.5t115.5 -29.5q65 0 116.5 29.5zM467 718l-114 -126l-36 6l98 134z" />
    <glyph glyph-name="ocircumflex" unicode="&#xf4;" 
d="M190.5 27q-63.5 36 -99.5 99.5t-36 142.5t36 142.5t99.5 99.5t142.5 36q80 0 144 -36t100 -99t36 -142q0 -80 -36 -143.5t-100 -99.5t-144 -36q-79 0 -142.5 36zM450.5 69.5q51.5 29.5 80.5 81.5t29 118q0 67 -29 119t-81 81t-117 29q-64 0 -115.5 -29t-80.5 -81.5
t-29 -118.5t29.5 -118t81 -81.5t115.5 -29.5q65 0 116.5 29.5zM360 724l95 -129l-41 -6l-80 109l-80 -109l-41 6l95 129h52z" />
    <glyph glyph-name="otilde" unicode="&#xf5;" 
d="M190.5 27q-63.5 36 -99.5 99.5t-36 142.5t36 142.5t99.5 99.5t142.5 36q80 0 144 -36t100 -99t36 -142q0 -80 -36 -143.5t-100 -99.5t-144 -36q-79 0 -142.5 36zM450.5 69.5q51.5 29.5 80.5 81.5t29 118q0 67 -29 119t-81 81t-117 29q-64 0 -115.5 -29t-80.5 -81.5
t-29 -118.5t29.5 -118t81 -81.5t115.5 -29.5q65 0 116.5 29.5zM189 618q0 38 22 61.5t55 23.5q19 0 35 -7.5t39 -21.5q21 -12 33.5 -18t25.5 -6q23 0 37.5 16t14.5 41l30 -7q0 -38 -22 -61.5t-56 -23.5q-19 0 -35 7.5t-39 21.5q-22 13 -33.5 18.5t-24.5 5.5q-23 0 -37.5 -16
t-14.5 -41z" />
    <glyph glyph-name="odieresis" unicode="&#xf6;" 
d="M190.5 27q-63.5 36 -99.5 99.5t-36 142.5t36 142.5t99.5 99.5t142.5 36q80 0 144 -36t100 -99t36 -142q0 -80 -36 -143.5t-100 -99.5t-144 -36q-79 0 -142.5 36zM450.5 69.5q51.5 29.5 80.5 81.5t29 118q0 67 -29 119t-81 81t-117 29q-64 0 -115.5 -29t-80.5 -81.5
t-29 -118.5t29.5 -118t81 -81.5t115.5 -29.5q65 0 116.5 29.5zM278 619h-41v105h41v-105zM430 619h-42v105h42v-105z" />
    <glyph glyph-name="divide" unicode="&#xf7;" horiz-adv-x="460" 
d="M270 478h-77v71h77v-71zM432 367v-42h-404v42h404zM193 153v70h77v-70h-77z" />
    <glyph glyph-name="oslash" unicode="&#xf8;" 
d="M550 452q30 -36 46.5 -82.5t16.5 -99.5q0 -80 -36 -143.5t-100 -99.5t-144 -36q-53 0 -99.5 16.5t-82.5 46.5l-50 -50l-32 32l50 50q-64 75 -64 183q0 79 36 142.5t99.5 99.5t142.5 36q108 0 184 -63l52 52l32 -33zM156 123l325 325q-61 50 -148 50q-64 0 -115.5 -29
t-80.5 -81.5t-29 -118.5q0 -84 48 -146zM450.5 69.5q51.5 29.5 80.5 81.5t29 118q0 85 -47 146l-325 -325q29 -24 66.5 -37t79.5 -13q65 0 116.5 29.5z" />
    <glyph glyph-name="ugrave" unicode="&#xf9;" horiz-adv-x="645" 
d="M505 538h53v-538h-53v114q-30 -54 -86 -88.5t-128 -34.5q-97 0 -155 63t-58 170v314h52v-308q0 -88 46 -138.5t126 -50.5q55 0 101.5 27.5t74 76t27.5 109.5v284zM339 598l-37 -6l-113 126l51 14z" />
    <glyph glyph-name="uacute" unicode="&#xfa;" horiz-adv-x="645" 
d="M505 538h53v-538h-53v114q-30 -54 -86 -88.5t-128 -34.5q-97 0 -155 63t-58 170v314h52v-308q0 -88 46 -138.5t126 -50.5q55 0 101.5 27.5t74 76t27.5 109.5v284zM452 718l-114 -126l-36 6l98 134z" />
    <glyph glyph-name="ucircumflex" unicode="&#xfb;" horiz-adv-x="645" 
d="M505 538h53v-538h-53v114q-30 -54 -86 -88.5t-128 -34.5q-97 0 -155 63t-58 170v314h52v-308q0 -88 46 -138.5t126 -50.5q55 0 101.5 27.5t74 76t27.5 109.5v284zM346 724l95 -129l-41 -6l-80 109l-80 -109l-41 6l95 129h52z" />
    <glyph glyph-name="udieresis" unicode="&#xfc;" horiz-adv-x="645" 
d="M505 538h53v-538h-53v114q-30 -54 -86 -88.5t-128 -34.5q-97 0 -155 63t-58 170v314h52v-308q0 -88 46 -138.5t126 -50.5q55 0 101.5 27.5t74 76t27.5 109.5v284zM264 619h-41v105h41v-105zM416 619h-42v105h42v-105z" />
    <glyph glyph-name="yacute" unicode="&#xfd;" horiz-adv-x="567" 
d="M494 538h58l-239 -538l-24 -56q-29 -65 -68.5 -94.5t-99.5 -29.5q-25 0 -51 7.5t-45 18.5l17 39q35 -19 78 -19q41 0 68 21.5t49 68.5l20 46l-238 536h58l208 -476h1zM444 718l-114 -126l-36 6l98 134z" />
    <glyph glyph-name="thorn" unicode="&#xfe;" horiz-adv-x="692" 
d="M511.5 511q58.5 -36 91.5 -99.5t33 -143.5q0 -79 -33 -142t-91.5 -99t-131.5 -36q-80 0 -142 43t-92 119v-324h-53v909h53v-350q30 74 92.5 116.5t141.5 42.5q73 0 131.5 -36zM480 66q49 30 76.5 83t27.5 120t-27.5 120t-76.5 83t-111 30q-64 0 -114.5 -30t-79.5 -83
t-29 -120t29 -120t79.5 -83t114.5 -30q62 0 111 30z" />
    <glyph glyph-name="ydieresis" unicode="&#xff;" horiz-adv-x="567" 
d="M494 538h58l-239 -538l-24 -56q-29 -65 -68.5 -94.5t-99.5 -29.5q-25 0 -51 7.5t-45 18.5l17 39q35 -19 78 -19q41 0 68 21.5t49 68.5l20 46l-238 536h58l208 -476h1zM255 619h-41v105h41v-105zM407 619h-42v105h42v-105z" />
    <glyph glyph-name="Amacron" unicode="&#x100;" horiz-adv-x="752" 
d="M729 0h-59l-82 176h-425l-82 -176h-57l325 700h54zM376 636l-190 -410h379zM507 788h-265v36h266z" />
    <glyph glyph-name="amacron" unicode="&#x101;" horiz-adv-x="567" 
d="M434 493.5q56 -53.5 56 -154.5v-339h-53v120q-25 -51 -81.5 -90t-131.5 -39q-86 0 -136 44.5t-50 117.5q0 77 52.5 121.5t155.5 44.5q93 0 191 -13v32q0 79 -44 119.5t-127 40.5q-46 0 -91 -15.5t-82 -45.5l-27 40q43 35 96 52.5t109 17.5q107 0 163 -53.5zM339.5 69
q45.5 29 71.5 74.5t26 90.5v27q-89 13 -180 13q-85 0 -126.5 -30.5t-41.5 -87.5q0 -56 38.5 -86t111.5 -30q55 0 100.5 29zM420 648h-265v36h266z" />
    <glyph glyph-name="Abreve" unicode="&#x102;" horiz-adv-x="752" 
d="M729 0h-59l-82 176h-425l-82 -176h-57l325 700h54zM376 636l-190 -410h379zM495 873q0 -58 -32.5 -92t-87.5 -34t-87.5 34t-32.5 92h40q0 -44 20.5 -68t59.5 -24q38 0 59 24t21 68h40z" />
    <glyph glyph-name="abreve" unicode="&#x103;" horiz-adv-x="567" 
d="M434 493.5q56 -53.5 56 -154.5v-339h-53v120q-25 -51 -81.5 -90t-131.5 -39q-86 0 -136 44.5t-50 117.5q0 77 52.5 121.5t155.5 44.5q93 0 191 -13v32q0 79 -44 119.5t-127 40.5q-46 0 -91 -15.5t-82 -45.5l-27 40q43 35 96 52.5t109 17.5q107 0 163 -53.5zM339.5 69
q45.5 29 71.5 74.5t26 90.5v27q-89 13 -180 13q-85 0 -126.5 -30.5t-41.5 -87.5q0 -56 38.5 -86t111.5 -30q55 0 100.5 29zM395 719q0 -58 -32.5 -92t-87.5 -34t-87.5 34t-32.5 92h40q0 -44 20.5 -68t59.5 -24q38 0 59 24t21 68h40z" />
    <glyph glyph-name="Aogonek" unicode="&#x104;" horiz-adv-x="752" 
d="M757 -176q-30 -6 -55 -6q-48 0 -74.5 20t-26.5 55q0 29 20.5 57.5t56.5 49.5h-8l-82 176h-425l-82 -176h-57l325 700h54l326 -700q-40 -20 -60.5 -46t-20.5 -49q0 -25 17.5 -38.5t50.5 -13.5q19 0 38 4zM376 636l-190 -410h379z" />
    <glyph glyph-name="aogonek" unicode="&#x105;" horiz-adv-x="567" 
d="M519 -176q-30 -6 -55 -6q-48 0 -74.5 20t-26.5 55q0 29 20.5 57.5t56.5 49.5h-3v120q-25 -51 -81.5 -90t-131.5 -39q-86 0 -136 44.5t-50 117.5q0 77 52.5 121.5t155.5 44.5q93 0 191 -13v32q0 79 -44 119.5t-127 40.5q-46 0 -91 -15.5t-82 -45.5l-27 40q43 35 96 52.5
t109 17.5q107 0 163 -53.5t56 -154.5v-339h1q-40 -20 -60.5 -46t-20.5 -49q0 -25 17.5 -38.5t50.5 -13.5q19 0 38 4zM339.5 69q45.5 29 71.5 74.5t26 90.5v27q-89 13 -180 13q-85 0 -126.5 -30.5t-41.5 -87.5q0 -56 38.5 -86t111.5 -30q55 0 100.5 29z" />
    <glyph glyph-name="Cacute" unicode="&#x106;" horiz-adv-x="720" 
d="M244 38.5q-82 47.5 -128.5 129.5t-46.5 182t46.5 182t128 129.5t182.5 47.5q154 0 259 -103l-35 -36q-44 43 -98 66t-126 23q-85 0 -154 -41t-108 -111.5t-39 -155.5q0 -87 40 -158t109 -111.5t152 -40.5q68 0 125 24.5t101 68.5l35 -35q-49 -51 -115.5 -79.5
t-145.5 -28.5q-100 0 -182 47.5zM537 844l-90 -99l-36 4l77 109z" />
    <glyph glyph-name="cacute" unicode="&#x107;" horiz-adv-x="573" 
d="M190.5 26.5q-63.5 35.5 -99.5 99t-36 143.5t36.5 143.5t100 99t142.5 35.5q58 0 109.5 -21t91.5 -63l-37 -32q-67 67 -165 67q-64 0 -115 -29t-80 -81t-29 -119t29 -119t80.5 -81t115.5 -29q50 0 89.5 16.5t74.5 52.5l38 -32q-39 -42 -91.5 -64t-111.5 -22
q-79 0 -142.5 35.5zM464 717l-114 -126l-36 6l98 134z" />
    <glyph glyph-name="Ccircumflex" unicode="&#x108;" horiz-adv-x="720" 
d="M244 38.5q-82 47.5 -128.5 129.5t-46.5 182t46.5 182t128 129.5t182.5 47.5q154 0 259 -103l-35 -36q-44 43 -98 66t-126 23q-85 0 -154 -41t-108 -111.5t-39 -155.5q0 -87 40 -158t109 -111.5t152 -40.5q68 0 125 24.5t101 68.5l35 -35q-49 -51 -115.5 -79.5
t-145.5 -28.5q-100 0 -182 47.5zM455 876l104 -118l-45 -6l-87 100l-88 -100l-45 6l104 118h57z" />
    <glyph glyph-name="ccircumflex" unicode="&#x109;" horiz-adv-x="573" 
d="M190.5 26.5q-63.5 35.5 -99.5 99t-36 143.5t36.5 143.5t100 99t142.5 35.5q58 0 109.5 -21t91.5 -63l-37 -32q-67 67 -165 67q-64 0 -115 -29t-80 -81t-29 -119t29 -119t80.5 -81t115.5 -29q50 0 89.5 16.5t74.5 52.5l38 -32q-39 -42 -91.5 -64t-111.5 -22
q-79 0 -142.5 35.5zM358 723l95 -129l-41 -6l-80 109l-80 -109l-41 6l95 129h52z" />
    <glyph glyph-name="Cdotaccent" unicode="&#x10a;" horiz-adv-x="720" 
d="M244 38.5q-82 47.5 -128.5 129.5t-46.5 182t46.5 182t128 129.5t182.5 47.5q154 0 259 -103l-35 -36q-44 43 -98 66t-126 23q-85 0 -154 -41t-108 -111.5t-39 -155.5q0 -87 40 -158t109 -111.5t152 -40.5q68 0 125 24.5t101 68.5l35 -35q-49 -51 -115.5 -79.5
t-145.5 -28.5q-100 0 -182 47.5zM454 764h-56v102h56v-102z" />
    <glyph glyph-name="cdotaccent" unicode="&#x10b;" horiz-adv-x="573" 
d="M190.5 26.5q-63.5 35.5 -99.5 99t-36 143.5t36.5 143.5t100 99t142.5 35.5q58 0 109.5 -21t91.5 -63l-37 -32q-67 67 -165 67q-64 0 -115 -29t-80 -81t-29 -119t29 -119t80.5 -81t115.5 -29q50 0 89.5 16.5t74.5 52.5l38 -32q-39 -42 -91.5 -64t-111.5 -22
q-79 0 -142.5 35.5zM361 618h-56v105h56v-105z" />
    <glyph glyph-name="Ccaron" unicode="&#x10c;" horiz-adv-x="720" 
d="M244 38.5q-82 47.5 -128.5 129.5t-46.5 182t46.5 182t128 129.5t182.5 47.5q154 0 259 -103l-35 -36q-44 43 -98 66t-126 23q-85 0 -154 -41t-108 -111.5t-39 -155.5q0 -87 40 -158t109 -111.5t152 -40.5q68 0 125 24.5t101 68.5l35 -35q-49 -51 -115.5 -79.5
t-145.5 -28.5q-100 0 -182 47.5zM427 767l87 95l45 -5l-104 -112h-57l-104 112l45 5z" />
    <glyph glyph-name="ccaron" unicode="&#x10d;" horiz-adv-x="573" 
d="M190.5 26.5q-63.5 35.5 -99.5 99t-36 143.5t36.5 143.5t100 99t142.5 35.5q58 0 109.5 -21t91.5 -63l-37 -32q-67 67 -165 67q-64 0 -115 -29t-80 -81t-29 -119t29 -119t80.5 -81t115.5 -29q50 0 89.5 16.5t74.5 52.5l38 -32q-39 -42 -91.5 -64t-111.5 -22
q-79 0 -142.5 35.5zM332 615l80 108l41 -5l-95 -129h-52l-95 129l41 5z" />
    <glyph glyph-name="Dcaron" unicode="&#x10e;" horiz-adv-x="812" 
d="M100 0v700h269q113 0 198 -43t131 -122t46 -185t-46 -185t-131 -122t-198 -43h-269zM366 50q97 0 169.5 36.5t111.5 104t39 159.5t-39 160t-111.5 104.5t-170.5 36.5h-210v-601h211zM311 771l87 95l45 -5l-104 -112h-57l-104 112l45 5z" />
    <glyph glyph-name="dcaron" unicode="&#x10f;" horiz-adv-x="720" 
d="M546 738h53v-738h-53v122q-33 -62 -94 -96.5t-136 -34.5q-73 0 -132.5 36t-93.5 99t-34 143q0 81 34 144t93.5 98.5t133.5 35.5q76 0 136.5 -35t92.5 -98v324zM680 534v204l44 -1l-14 -203h-30zM438.5 69q50.5 29 79 81t28.5 119t-28.5 119t-79 80.5t-114.5 28.5
q-62 0 -111 -29t-76.5 -81t-27.5 -118t27.5 -118t76.5 -81.5t111 -29.5q64 0 114.5 29z" />
    <glyph glyph-name="Dcroat" unicode="&#x110;" horiz-adv-x="812" 
d="M369 700q113 0 198 -43t131 -122t46 -185t-46 -185t-131 -122t-198 -43h-269v331h-65v42h65v327h269zM366 50q97 0 169.5 36.5t111.5 104t39 159.5t-39 160t-111.5 104.5t-170.5 36.5h-210v-278h242v-42h-242v-281h211z" />
    <glyph glyph-name="dcroat" unicode="&#x111;" horiz-adv-x="692" 
d="M666 639v-38h-67v-601h-53v122q-33 -62 -94 -96.5t-136 -34.5q-73 0 -132.5 36t-93.5 99t-34 143q0 81 34 144t93.5 98.5t133.5 35.5q76 0 136.5 -35t92.5 -98v187h-185v38h185v99h53v-99h67zM438.5 69q50.5 29 79 81t28.5 119t-28.5 119t-79 80.5t-114.5 28.5
q-62 0 -111 -29t-76.5 -81t-27.5 -118t27.5 -118t76.5 -81.5t111 -29.5q64 0 114.5 29z" />
    <glyph glyph-name="Emacron" unicode="&#x112;" horiz-adv-x="683" 
d="M154 333v-283h477v-50h-531v700h521v-49h-467v-269h410v-49h-410zM477 788h-265v36h266z" />
    <glyph glyph-name="emacron" unicode="&#x113;" horiz-adv-x="616" 
d="M109 251q3 -62 33 -110t80.5 -74.5t113.5 -26.5q105 0 171 71l35 -32q-39 -41 -92.5 -64.5t-116.5 -23.5q-79 0 -142.5 36t-99.5 99.5t-36 142.5q0 80 34 143t95.5 98.5t141.5 35.5q72 0 127.5 -33t86.5 -93t31 -139q0 -4 -2 -30h-460zM176.5 442q-58.5 -56 -66.5 -145
h409q-6 94 -58 147.5t-135 53.5q-91 0 -149.5 -56zM458 645h-265v36h266z" />
    <glyph glyph-name="Ebreve" unicode="&#x114;" horiz-adv-x="683" 
d="M154 333v-283h477v-50h-531v700h521v-49h-467v-269h410v-49h-410zM466 873q0 -58 -32.5 -92t-87.5 -34t-87.5 34t-32.5 92h40q0 -44 20.5 -68t59.5 -24q38 0 59 24t21 68h40z" />
    <glyph glyph-name="ebreve" unicode="&#x115;" horiz-adv-x="616" 
d="M109 251q3 -62 33 -110t80.5 -74.5t113.5 -26.5q105 0 171 71l35 -32q-39 -41 -92.5 -64.5t-116.5 -23.5q-79 0 -142.5 36t-99.5 99.5t-36 142.5q0 80 34 143t95.5 98.5t141.5 35.5q72 0 127.5 -33t86.5 -93t31 -139q0 -4 -2 -30h-460zM176.5 442q-58.5 -56 -66.5 -145
h409q-6 94 -58 147.5t-135 53.5q-91 0 -149.5 -56zM433 716q0 -58 -32.5 -92t-87.5 -34t-87.5 34t-32.5 92h40q0 -44 20.5 -68t59.5 -24q38 0 59 24t21 68h40z" />
    <glyph glyph-name="Edotaccent" unicode="&#x116;" horiz-adv-x="683" 
d="M154 333v-283h477v-50h-531v700h521v-49h-467v-269h410v-49h-410zM375 768h-56v102h56v-102z" />
    <glyph glyph-name="edotaccent" unicode="&#x117;" horiz-adv-x="616" 
d="M109 251q3 -62 33 -110t80.5 -74.5t113.5 -26.5q105 0 171 71l35 -32q-39 -41 -92.5 -64.5t-116.5 -23.5q-79 0 -142.5 36t-99.5 99.5t-36 142.5q0 80 34 143t95.5 98.5t141.5 35.5q72 0 127.5 -33t86.5 -93t31 -139q0 -4 -2 -30h-460zM176.5 442q-58.5 -56 -66.5 -145
h409q-6 94 -58 147.5t-135 53.5q-91 0 -149.5 -56zM341 619h-56v105h56v-105z" />
    <glyph glyph-name="Eogonek" unicode="&#x118;" horiz-adv-x="683" 
d="M659 -176q-30 -6 -55 -6q-48 0 -74.5 20t-26.5 55q0 29 20.5 57.5t56.5 49.5h-480v700h521v-49h-467v-269h410v-49h-410v-283h477v-50q-40 -20 -60.5 -46t-20.5 -49q0 -25 17.5 -38.5t50.5 -13.5q19 0 38 4z" />
    <glyph glyph-name="eogonek" unicode="&#x119;" horiz-adv-x="616" 
d="M109 251q3 -62 33 -110t80.5 -74.5t113.5 -26.5q105 0 171 71l35 -32q-33 -35 -73 -56q-17 -15 -26 -32t-9 -32q0 -25 17.5 -38.5t50.5 -13.5q19 0 38 4l3 -33q-30 -6 -55 -6q-48 0 -74.5 20t-26.5 55q0 26 17 52q-37 -8 -71 -8q-79 0 -142.5 36t-99.5 99.5t-36 142.5
q0 80 34 143t95.5 98.5t141.5 35.5q72 0 127.5 -33t86.5 -93t31 -139q0 -4 -2 -30h-460zM176.5 442q-58.5 -56 -66.5 -145h409q-6 94 -58 147.5t-135 53.5q-91 0 -149.5 -56z" />
    <glyph glyph-name="Ecaron" unicode="&#x11a;" horiz-adv-x="683" 
d="M154 333v-283h477v-50h-531v700h521v-49h-467v-269h410v-49h-410zM348 771l87 95l45 -5l-104 -112h-57l-104 112l45 5z" />
    <glyph glyph-name="ecaron" unicode="&#x11b;" horiz-adv-x="616" 
d="M109 251q3 -62 33 -110t80.5 -74.5t113.5 -26.5q105 0 171 71l35 -32q-39 -41 -92.5 -64.5t-116.5 -23.5q-79 0 -142.5 36t-99.5 99.5t-36 142.5q0 80 34 143t95.5 98.5t141.5 35.5q72 0 127.5 -33t86.5 -93t31 -139q0 -4 -2 -30h-460zM176.5 442q-58.5 -56 -66.5 -145
h409q-6 94 -58 147.5t-135 53.5q-91 0 -149.5 -56zM312 616l80 108l41 -5l-95 -129h-52l-95 129l41 5z" />
    <glyph glyph-name="Gcircumflex" unicode="&#x11c;" horiz-adv-x="762" 
d="M243.5 37q-81.5 46 -128 128t-46.5 184q0 103 46 185t127.5 128.5t184.5 46.5q75 0 139.5 -25.5t114.5 -74.5l-35 -35q-91 85 -218 85q-87 0 -156 -39.5t-107.5 -109.5t-38.5 -160t38.5 -160.5t108 -109.5t158.5 -39q123 0 211 78v232h51v-256q-52 -50 -120 -77t-145 -27
q-103 0 -184.5 46zM467 880l104 -118l-45 -6l-87 100l-88 -100l-45 6l104 118h57z" />
    <glyph glyph-name="gcircumflex" unicode="&#x11d;" horiz-adv-x="602" 
d="M366 111q100 0 155.5 -34.5t55.5 -93.5q0 -74 -74.5 -118.5t-205.5 -44.5q-112 0 -176 37t-64 101q0 35 25 63.5t65 48.5q-29 11 -45 33t-16 50q0 30 18.5 53t50.5 34q-65 48 -65 133q0 80 57.5 127t157.5 47q57 0 98 -18l139 29l11 -45l-96 -14q30 -21 47 -53t17 -73
q0 -80 -57.5 -127.5t-156.5 -47.5q-68 0 -119 23q-49 -20 -49 -55q0 -26 19 -40.5t51 -14.5h157zM185.5 466.5q-43.5 -33.5 -43.5 -92.5q0 -60 43.5 -94.5t120.5 -34.5q76 0 119.5 34t43.5 94q0 59 -43.5 93t-119.5 34q-77 0 -120.5 -33.5zM464.5 -102q59.5 29 59.5 82
q0 41 -44.5 61.5t-125.5 20.5h-158h-5q-80 -42 -80 -97q0 -47 49.5 -71.5t138.5 -24.5q106 0 165.5 29zM339 724l95 -129l-41 -6l-80 109l-80 -109l-41 6l95 129h52z" />
    <glyph glyph-name="Gbreve" unicode="&#x11e;" horiz-adv-x="762" 
d="M243.5 37q-81.5 46 -128 128t-46.5 184q0 103 46 185t127.5 128.5t184.5 46.5q75 0 139.5 -25.5t114.5 -74.5l-35 -35q-91 85 -218 85q-87 0 -156 -39.5t-107.5 -109.5t-38.5 -160t38.5 -160.5t108 -109.5t158.5 -39q123 0 211 78v232h51v-256q-52 -50 -120 -77t-145 -27
q-103 0 -184.5 46zM557 873q0 -58 -32.5 -92t-87.5 -34t-87.5 34t-32.5 92h40q0 -44 20.5 -68t59.5 -24q38 0 59 24t21 68h40z" />
    <glyph glyph-name="gbreve" unicode="&#x11f;" horiz-adv-x="602" 
d="M366 111q100 0 155.5 -34.5t55.5 -93.5q0 -74 -74.5 -118.5t-205.5 -44.5q-112 0 -176 37t-64 101q0 35 25 63.5t65 48.5q-29 11 -45 33t-16 50q0 30 18.5 53t50.5 34q-65 48 -65 133q0 80 57.5 127t157.5 47q57 0 98 -18l139 29l11 -45l-96 -14q30 -21 47 -53t17 -73
q0 -80 -57.5 -127.5t-156.5 -47.5q-68 0 -119 23q-49 -20 -49 -55q0 -26 19 -40.5t51 -14.5h157zM185.5 466.5q-43.5 -33.5 -43.5 -92.5q0 -60 43.5 -94.5t120.5 -34.5q76 0 119.5 34t43.5 94q0 59 -43.5 93t-119.5 34q-77 0 -120.5 -33.5zM464.5 -102q59.5 29 59.5 82
q0 41 -44.5 61.5t-125.5 20.5h-158h-5q-80 -42 -80 -97q0 -47 49.5 -71.5t138.5 -24.5q106 0 165.5 29zM434 716q0 -58 -32.5 -92t-87.5 -34t-87.5 34t-32.5 92h40q0 -44 20.5 -68t59.5 -24q38 0 59 24t21 68h40z" />
    <glyph glyph-name="Gdotaccent" unicode="&#x120;" horiz-adv-x="762" 
d="M243.5 37q-81.5 46 -128 128t-46.5 184q0 103 46 185t127.5 128.5t184.5 46.5q75 0 139.5 -25.5t114.5 -74.5l-35 -35q-91 85 -218 85q-87 0 -156 -39.5t-107.5 -109.5t-38.5 -160t38.5 -160.5t108 -109.5t158.5 -39q123 0 211 78v232h51v-256q-52 -50 -120 -77t-145 -27
q-103 0 -184.5 46zM466 768h-56v102h56v-102z" />
    <glyph glyph-name="gdotaccent" unicode="&#x121;" horiz-adv-x="602" 
d="M366 111q100 0 155.5 -34.5t55.5 -93.5q0 -74 -74.5 -118.5t-205.5 -44.5q-112 0 -176 37t-64 101q0 35 25 63.5t65 48.5q-29 11 -45 33t-16 50q0 30 18.5 53t50.5 34q-65 48 -65 133q0 80 57.5 127t157.5 47q57 0 98 -18l139 29l11 -45l-96 -14q30 -21 47 -53t17 -73
q0 -80 -57.5 -127.5t-156.5 -47.5q-68 0 -119 23q-49 -20 -49 -55q0 -26 19 -40.5t51 -14.5h157zM185.5 466.5q-43.5 -33.5 -43.5 -92.5q0 -60 43.5 -94.5t120.5 -34.5q76 0 119.5 34t43.5 94q0 59 -43.5 93t-119.5 34q-77 0 -120.5 -33.5zM464.5 -102q59.5 29 59.5 82
q0 41 -44.5 61.5t-125.5 20.5h-158h-5q-80 -42 -80 -97q0 -47 49.5 -71.5t138.5 -24.5q106 0 165.5 29zM342 619h-56v105h56v-105z" />
    <glyph glyph-name="uni0122" unicode="&#x122;" horiz-adv-x="762" 
d="M243.5 37q-81.5 46 -128 128t-46.5 184q0 103 46 185t127.5 128.5t184.5 46.5q75 0 139.5 -25.5t114.5 -74.5l-35 -35q-91 85 -218 85q-87 0 -156 -39.5t-107.5 -109.5t-38.5 -160t38.5 -160.5t108 -109.5t158.5 -39q123 0 211 78v232h51v-256q-52 -50 -120 -77t-145 -27
q-103 0 -184.5 46zM350 -176q54 27 47 76h-39v64h76q6 -29 6 -52q0 -87 -77 -115z" />
    <glyph glyph-name="uni0123" unicode="&#x123;" horiz-adv-x="602" 
d="M366 111q100 0 155.5 -34.5t55.5 -93.5q0 -74 -74.5 -118.5t-205.5 -44.5q-112 0 -176 37t-64 101q0 35 25 63.5t65 48.5q-29 11 -45 33t-16 50q0 30 18.5 53t50.5 34q-65 48 -65 133q0 80 57.5 127t157.5 47q57 0 98 -18l139 29l11 -45l-96 -14q30 -21 47 -53t17 -73
q0 -80 -57.5 -127.5t-156.5 -47.5q-68 0 -119 23q-49 -20 -49 -55q0 -26 19 -40.5t51 -14.5h157zM185.5 466.5q-43.5 -33.5 -43.5 -92.5q0 -60 43.5 -94.5t120.5 -34.5q76 0 119.5 34t43.5 94q0 59 -43.5 93t-119.5 34q-77 0 -120.5 -33.5zM464.5 -102q59.5 29 59.5 82
q0 41 -44.5 61.5t-125.5 20.5h-158h-5q-80 -42 -80 -97q0 -47 49.5 -71.5t138.5 -24.5q106 0 165.5 29zM384 727q-55 -27 -47 -77h39v-64h-76q-6 29 -6 52q0 86 77 116z" />
    <glyph glyph-name="Hcircumflex" unicode="&#x124;" horiz-adv-x="771" 
d="M616 377v323h55v-700h-55v328h-461v-328h-55v700h55v-323h461zM414 880l104 -118l-45 -6l-87 100l-88 -100l-45 6l104 118h57z" />
    <glyph glyph-name="hcircumflex" unicode="&#x125;" horiz-adv-x="651" 
d="M472.5 518.5q48.5 -28.5 75 -81t26.5 -123.5v-314h-53v308q0 88 -46 138.5t-126 50.5q-55 0 -101.5 -27.5t-74 -76t-27.5 -109.5v-284h-53v738h53v-313q30 54 86.5 88t127.5 34q64 0 112.5 -28.5zM357 918l104 -118l-45 -6l-87 100l-88 -100l-45 6l104 118h57z" />
    <glyph glyph-name="Hbar" unicode="&#x126;" horiz-adv-x="771" 
d="M671 552h46v-42h-46v-510h-55v328h-461v-328h-55v510h-41v42h41v148h55v-148h461v148h55v-148zM155 377h461v133h-461v-133z" />
    <glyph glyph-name="hbar" unicode="&#x127;" horiz-adv-x="651" 
d="M472.5 518.5q48.5 -28.5 75 -81t26.5 -123.5v-314h-53v308q0 88 -46 138.5t-126 50.5q-55 0 -101.5 -27.5t-74 -76t-27.5 -109.5v-284h-53v602h-86v38h86v98h53v-98h166v-38h-166v-177q30 54 86.5 88t127.5 34q64 0 112.5 -28.5z" />
    <glyph glyph-name="Itilde" unicode="&#x128;" horiz-adv-x="255" 
d="M155 0h-55v700h55v-700zM-33 764q0 38 22 61.5t55 23.5q19 0 35 -7.5t39 -21.5q21 -12 33.5 -18t25.5 -6q23 0 37.5 16t14.5 41l30 -7q0 -38 -22 -61.5t-56 -23.5q-19 0 -35 7.5t-39 21.5q-22 13 -33.5 18.5t-24.5 5.5q-23 0 -37.5 -16t-14.5 -41z" />
    <glyph glyph-name="itilde" unicode="&#x129;" horiz-adv-x="227" 
d="M140 0h-53v538h53v-538zM-33 618q0 38 22 61.5t55 23.5q19 0 35 -7.5t39 -21.5q21 -12 33.5 -18t25.5 -6q23 0 37.5 16t14.5 41l30 -7q0 -38 -22 -61.5t-56 -23.5q-19 0 -35 7.5t-39 21.5q-22 13 -33.5 18.5t-24.5 5.5q-23 0 -37.5 -16t-14.5 -41z" />
    <glyph glyph-name="Imacron" unicode="&#x12a;" horiz-adv-x="255" 
d="M155 0h-55v700h55v-700zM258 788h-265v36h266z" />
    <glyph glyph-name="imacron" unicode="&#x12b;" horiz-adv-x="227" 
d="M140 0h-53v538h53v-538zM259 645h-265v36h266z" />
    <glyph glyph-name="Ibreve" unicode="&#x12c;" horiz-adv-x="255" 
d="M155 0h-55v700h55v-700zM246 873q0 -58 -32.5 -92t-87.5 -34t-87.5 34t-32.5 92h40q0 -44 20.5 -68t59.5 -24q38 0 59 24t21 68h40z" />
    <glyph glyph-name="ibreve" unicode="&#x12d;" horiz-adv-x="227" 
d="M140 0h-53v538h53v-538zM233 716q0 -58 -32.5 -92t-87.5 -34t-87.5 34t-32.5 92h40q0 -44 20.5 -68t59.5 -24q38 0 59 24t21 68h40z" />
    <glyph glyph-name="Iogonek" unicode="&#x12e;" horiz-adv-x="255" 
d="M177 -176q-30 -6 -55 -6q-48 0 -74.5 20t-26.5 55q0 29 21 58t58 50v699h55v-700h-6q-40 -20 -60.5 -46t-20.5 -49q0 -25 17.5 -38.5t50.5 -13.5q19 0 38 4z" />
    <glyph glyph-name="iogonek" unicode="&#x12f;" horiz-adv-x="227" 
d="M86 724h56v-105h-56v105zM168 -176q-30 -6 -55 -6q-48 0 -74.5 20t-26.5 55q0 29 20.5 57.5t56.5 49.5h-2v538h53v-538q-40 -20 -60.5 -46t-20.5 -49q0 -25 17.5 -38.5t50.5 -13.5q19 0 38 4z" />
    <glyph glyph-name="Idotaccent" unicode="&#x130;" horiz-adv-x="255" 
d="M155 0h-55v700h55v-700zM156 768h-56v102h56v-102z" />
    <glyph glyph-name="dotlessi" unicode="&#x131;" horiz-adv-x="227" 
d="M140 0h-53v538h53v-538z" />
    <glyph glyph-name="IJ" unicode="&#x132;" horiz-adv-x="812" 
d="M155 0h-55v700h55v-700zM371 25q-60 34 -93 92l37 32q29 -49 78.5 -78t107.5 -29q83 0 131.5 54t48.5 146v409h-262v49h315v-457q0 -76 -28.5 -133t-80.5 -88t-122 -31q-72 0 -132 34z" />
    <glyph glyph-name="ij" unicode="&#x133;" horiz-adv-x="466" 
d="M140 0h-53v538h53v-538zM142 619h-56v105h56v-105zM177 -109q26 -16 57 -16q40 0 66 23.5t26 68.5v571h53v-575q0 -66 -39.5 -101t-100.5 -35q-40 0 -79 21zM380 619h-56v105h56v-105z" />
    <glyph glyph-name="Jcircumflex" unicode="&#x134;" horiz-adv-x="558" 
d="M116 25q-60 34 -93 92l37 32q29 -49 78.5 -78t107.5 -29q83 0 131.5 54t48.5 146v409h-262v49h315v-457q0 -76 -28.5 -133t-80.5 -88t-122 -31q-72 0 -132 34zM343 880l104 -118l-45 -6l-87 100l-88 -100l-45 6l104 118h57z" />
    <glyph glyph-name="jcircumflex" unicode="&#x135;" horiz-adv-x="239" 
d="M-50 -109q26 -16 57 -16q40 0 66 23.5t26 68.5v571h53v-575q0 -66 -39.5 -101t-100.5 -35q-40 0 -79 21zM151 724l95 -129l-41 -6l-80 109l-80 -109l-41 6l95 129h52z" />
    <glyph glyph-name="uni0136" unicode="&#x136;" horiz-adv-x="707" 
d="M676 0h-65l-265 365l-191 -205v-160h-55v700h55v-470l433 470h70l-274 -294zM301 -176q54 27 47 76h-39v64h76q6 -29 6 -52q0 -87 -77 -115z" />
    <glyph glyph-name="uni0137" unicode="&#x137;" horiz-adv-x="615" 
d="M590 0h-65l-243 278l-136 -131v-147h-53v738h53v-527l335 327h71l-236 -227zM259 -176q54 27 47 76h-39v64h76q6 -29 6 -52q0 -87 -77 -115z" />
    <glyph glyph-name="kgreenlandic" unicode="&#x138;" horiz-adv-x="621" 
d="M590 0h-65l-243 278l-136 -131v-147h-53v538h53v-327l335 327h71l-236 -227z" />
    <glyph glyph-name="Lacute" unicode="&#x139;" horiz-adv-x="604" 
d="M579 0h-479v700h54v-650h425v-50zM406 848l-90 -99l-36 4l77 109z" />
    <glyph glyph-name="lacute" unicode="&#x13a;" horiz-adv-x="239" 
d="M146 0h-53v738h53v-738zM251 918l-114 -126l-36 6l98 134z" />
    <glyph glyph-name="uni013B" unicode="&#x13b;" horiz-adv-x="604" 
d="M579 0h-479v700h54v-650h425v-50zM250 -176q54 27 47 76h-39v64h76q6 -29 6 -52q0 -87 -77 -115z" />
    <glyph glyph-name="uni013C" unicode="&#x13c;" horiz-adv-x="239" 
d="M146 0h-53v738h53v-738zM74 -176q54 27 47 76h-39v64h76q6 -29 6 -52q0 -87 -77 -115z" />
    <glyph glyph-name="Lcaron" unicode="&#x13d;" horiz-adv-x="604" 
d="M579 0h-479v700h54v-650h425v-50zM456 496v204l43 -1l-14 -203h-29z" />
    <glyph glyph-name="lcaron" unicode="&#x13e;" horiz-adv-x="263" 
d="M146 0h-53v738h53v-738zM220 534v204l43 -1l-14 -203h-29z" />
    <glyph glyph-name="Ldot" unicode="&#x13f;" horiz-adv-x="604" 
d="M579 0h-479v700h54v-650h425v-50zM343 320v70h75v-70h-75z" />
    <glyph glyph-name="ldot" unicode="&#x140;" horiz-adv-x="284" 
d="M146 0h-53v738h53v-738zM226 337v67h72v-67h-72z" />
    <glyph glyph-name="Lslash" unicode="&#x141;" horiz-adv-x="604" 
d="M154 343v-293h425v-50h-479v314l-67 -37l-17 33l84 46v344h54v-314l71 39l18 -33z" />
    <glyph glyph-name="lslash" unicode="&#x142;" horiz-adv-x="239" 
d="M215 444l18 -33l-87 -48v-363h-53v334l-70 -38l-17 33l87 48v361h53v-332z" />
    <glyph glyph-name="Nacute" unicode="&#x143;" horiz-adv-x="783" 
d="M155 0h-55v700h47l481 -604v604h55v-700h-46l-482 606v-606zM503 848l-90 -99l-36 4l77 109z" />
    <glyph glyph-name="nacute" unicode="&#x144;" horiz-adv-x="645" 
d="M466.5 518.5q48.5 -28.5 75 -81t26.5 -123.5v-314h-53v308q0 88 -46 138.5t-126 50.5q-55 0 -101.5 -27.5t-74 -76t-27.5 -109.5v-284h-53v538h53v-113q30 54 86.5 88t127.5 34q64 0 112.5 -28.5zM455 718l-114 -126l-36 6l98 134z" />
    <glyph glyph-name="uni0145" unicode="&#x145;" horiz-adv-x="783" 
d="M155 0h-55v700h47l481 -604v604h55v-700h-46l-482 606v-606zM346 -176q54 27 47 76h-39v64h76q6 -29 6 -52q0 -87 -77 -115z" />
    <glyph glyph-name="uni0146" unicode="&#x146;" horiz-adv-x="645" 
d="M466.5 518.5q48.5 -28.5 75 -81t26.5 -123.5v-314h-53v308q0 88 -46 138.5t-126 50.5q-55 0 -101.5 -27.5t-74 -76t-27.5 -109.5v-284h-53v538h53v-113q30 54 86.5 88t127.5 34q64 0 112.5 -28.5zM277 -176q54 27 47 76h-39v64h76q6 -29 6 -52q0 -87 -77 -115z" />
    <glyph glyph-name="Ncaron" unicode="&#x147;" horiz-adv-x="783" 
d="M155 0h-55v700h47l481 -604v604h55v-700h-46l-482 606v-606zM393 771l87 95l45 -5l-104 -112h-57l-104 112l45 5z" />
    <glyph glyph-name="ncaron" unicode="&#x148;" horiz-adv-x="645" 
d="M466.5 518.5q48.5 -28.5 75 -81t26.5 -123.5v-314h-53v308q0 88 -46 138.5t-126 50.5q-55 0 -101.5 -27.5t-74 -76t-27.5 -109.5v-284h-53v538h53v-113q30 54 86.5 88t127.5 34q64 0 112.5 -28.5zM323 616l80 108l41 -5l-95 -129h-52l-95 129l41 5z" />
    <glyph glyph-name="Eng" unicode="&#x14a;" horiz-adv-x="778" 
d="M683 700v-700h-1v-42q0 -68 -38 -101.5t-99 -33.5q-21 0 -43 6t-40 16l15 41q26 -17 61 -17q39 0 65 23.5t26 70.5v47l-474 596v-606h-55v700h47l481 -604v604h55z" />
    <glyph glyph-name="eng" unicode="&#x14b;" horiz-adv-x="645" 
d="M466.5 518.5q48.5 -28.5 75 -81t26.5 -123.5v-356q0 -68 -38 -101.5t-99 -33.5q-20 0 -42 6t-40 16l15 41q12 -8 28 -12.5t32 -4.5q39 0 65 23.5t26 70.5v345q0 88 -46 138.5t-126 50.5q-55 0 -101.5 -27.5t-74 -76t-27.5 -109.5v-284h-53v538h53v-113q30 54 86.5 88
t127.5 34q64 0 112.5 -28.5z" />
    <glyph glyph-name="Omacron" unicode="&#x14c;" horiz-adv-x="855" 
d="M243 37q-82 46 -128 128t-46 185t46.5 184.5t128 128t184.5 46.5t184.5 -46t128 -128t46.5 -185t-46.5 -184.5t-128.5 -128t-185 -46.5q-102 0 -184 46zM583.5 81q68.5 39 107 109.5t38.5 159.5t-38.5 159.5t-107 110t-155.5 39.5t-156 -39.5t-107.5 -110t-38.5 -159.5
t38.5 -159.5t107.5 -109.5t156 -39t155.5 39zM558 788h-265v36h266z" />
    <glyph glyph-name="omacron" unicode="&#x14d;" 
d="M190.5 27q-63.5 36 -99.5 99.5t-36 142.5t36 142.5t99.5 99.5t142.5 36q80 0 144 -36t100 -99t36 -142q0 -80 -36 -143.5t-100 -99.5t-144 -36q-79 0 -142.5 36zM450.5 69.5q51.5 29.5 80.5 81.5t29 118q0 67 -29 119t-81 81t-117 29q-64 0 -115.5 -29t-80.5 -81.5
t-29 -118.5t29.5 -118t81 -81.5t115.5 -29.5q65 0 116.5 29.5zM480 645h-265v36h266z" />
    <glyph glyph-name="Obreve" unicode="&#x14e;" horiz-adv-x="855" 
d="M243 37q-82 46 -128 128t-46 185t46.5 184.5t128 128t184.5 46.5t184.5 -46t128 -128t46.5 -185t-46.5 -184.5t-128.5 -128t-185 -46.5q-102 0 -184 46zM583.5 81q68.5 39 107 109.5t38.5 159.5t-38.5 159.5t-107 110t-155.5 39.5t-156 -39.5t-107.5 -110t-38.5 -159.5
t38.5 -159.5t107.5 -109.5t156 -39t155.5 39zM547 873q0 -58 -32.5 -92t-87.5 -34t-87.5 34t-32.5 92h40q0 -44 20.5 -68t59.5 -24q38 0 59 24t21 68h40z" />
    <glyph glyph-name="obreve" unicode="&#x14f;" 
d="M190.5 27q-63.5 36 -99.5 99.5t-36 142.5t36 142.5t99.5 99.5t142.5 36q80 0 144 -36t100 -99t36 -142q0 -80 -36 -143.5t-100 -99.5t-144 -36q-79 0 -142.5 36zM450.5 69.5q51.5 29.5 80.5 81.5t29 118q0 67 -29 119t-81 81t-117 29q-64 0 -115.5 -29t-80.5 -81.5
t-29 -118.5t29.5 -118t81 -81.5t115.5 -29.5q65 0 116.5 29.5zM455 716q0 -58 -32.5 -92t-87.5 -34t-87.5 34t-32.5 92h40q0 -44 20.5 -68t59.5 -24q38 0 59 24t21 68h40z" />
    <glyph glyph-name="Ohungarumlaut" unicode="&#x150;" horiz-adv-x="855" 
d="M243 37q-82 46 -128 128t-46 185t46.5 184.5t128 128t184.5 46.5t184.5 -46t128 -128t46.5 -185t-46.5 -184.5t-128.5 -128t-185 -46.5q-102 0 -184 46zM583.5 81q68.5 39 107 109.5t38.5 159.5t-38.5 159.5t-107 110t-155.5 39.5t-156 -39.5t-107.5 -110t-38.5 -159.5
t38.5 -159.5t107.5 -109.5t156 -39t155.5 39zM414 848l-86 -99l-36 4l74 109zM562 848l-86 -99l-36 4l74 109z" />
    <glyph glyph-name="ohungarumlaut" unicode="&#x151;" 
d="M190.5 27q-63.5 36 -99.5 99.5t-36 142.5t36 142.5t99.5 99.5t142.5 36q80 0 144 -36t100 -99t36 -142q0 -80 -36 -143.5t-100 -99.5t-144 -36q-79 0 -142.5 36zM450.5 69.5q51.5 29.5 80.5 81.5t29 118q0 67 -29 119t-81 81t-117 29q-64 0 -115.5 -29t-80.5 -81.5
t-29 -118.5t29.5 -118t81 -81.5t115.5 -29.5q65 0 116.5 29.5zM313 717l-108 -126l-37 6l94 134zM461 717l-108 -126l-37 6l94 134z" />
    <glyph glyph-name="OE" unicode="&#x152;" horiz-adv-x="1233" 
d="M704 50h477v-50h-531v65q-45 -35 -102 -54.5t-122 -19.5q-100 0 -182 47.5t-128.5 129.5t-46.5 182t46.5 182t128 129.5t182.5 47.5q130 0 224 -72v63h521v-49h-467v-269h410v-49h-410v-283zM650 132v438q-44 43 -98 66t-126 23q-85 0 -154 -41t-108 -111.5t-39 -155.5
q0 -87 40 -158t109 -111.5t152 -40.5q131 0 224 91z" />
    <glyph glyph-name="oe" unicode="&#x153;" horiz-adv-x="1122" 
d="M615 251q3 -62 33 -110t80.5 -74.5t113.5 -26.5q105 0 171 71l35 -32q-39 -41 -92.5 -64.5t-116.5 -23.5q-86 0 -152.5 42t-99.5 113q-33 -71 -100 -113t-154 -42q-79 0 -142.5 36t-99.5 99.5t-36 142.5t36 142.5t99.5 99.5t142.5 36q87 0 153.5 -41t99.5 -112
q32 71 96 111.5t150 40.5q72 0 127.5 -33t86.5 -93t31 -139q0 -4 -2 -30h-460zM450.5 69.5q51.5 29.5 80.5 81.5t29 118q0 67 -29 119t-81 81t-117 29q-64 0 -115.5 -29t-80.5 -81.5t-29 -118.5t29.5 -118t81 -81.5t115.5 -29.5q65 0 116.5 29.5zM682.5 442
q-58.5 -56 -66.5 -145h409q-6 94 -58 147.5t-135 53.5q-91 0 -149.5 -56z" />
    <glyph glyph-name="Racute" unicode="&#x154;" horiz-adv-x="696" 
d="M577 0l-242 264h-180v-264h-55v700h263q135 0 208 -56t73 -162q0 -97 -62 -152.5t-179 -63.5l243 -266h-69zM155 651v-338h206q112 0 170.5 42t58.5 127q0 83 -58.5 126t-169.5 43h-207zM465 848l-90 -99l-36 4l77 109z" />
    <glyph glyph-name="racute" unicode="&#x155;" horiz-adv-x="385" 
d="M366 539l-2 -55q-24 6 -47 6q-54 0 -94.5 -32t-61.5 -85.5t-21 -115.5v-257h-53v538h53v-119q25 57 72 90.5t106 33.5q18 0 48 -4zM314 718l-114 -126l-36 6l98 134z" />
    <glyph glyph-name="uni0156" unicode="&#x156;" horiz-adv-x="696" 
d="M577 0l-242 264h-180v-264h-55v700h263q135 0 208 -56t73 -162q0 -97 -62 -152.5t-179 -63.5l243 -266h-69zM155 651v-338h206q112 0 170.5 42t58.5 127q0 83 -58.5 126t-169.5 43h-207zM308 -176q54 27 47 76h-39v64h76q6 -29 6 -52q0 -87 -77 -115z" />
    <glyph glyph-name="uni0157" unicode="&#x157;" horiz-adv-x="385" 
d="M366 539l-2 -55q-24 6 -47 6q-54 0 -94.5 -32t-61.5 -85.5t-21 -115.5v-257h-53v538h53v-119q25 57 72 90.5t106 33.5q18 0 48 -4zM137 -176q54 27 47 76h-39v64h76q6 -29 6 -52q0 -87 -77 -115z" />
    <glyph glyph-name="Rcaron" unicode="&#x158;" horiz-adv-x="696" 
d="M577 0l-242 264h-180v-264h-55v700h263q135 0 208 -56t73 -162q0 -97 -62 -152.5t-179 -63.5l243 -266h-69zM155 651v-338h206q112 0 170.5 42t58.5 127q0 83 -58.5 126t-169.5 43h-207zM355 771l87 95l45 -5l-104 -112h-57l-104 112l45 5z" />
    <glyph glyph-name="rcaron" unicode="&#x159;" horiz-adv-x="385" 
d="M366 539l-2 -55q-24 6 -47 6q-54 0 -94.5 -32t-61.5 -85.5t-21 -115.5v-257h-53v538h53v-119q25 57 72 90.5t106 33.5q18 0 48 -4zM182 616l80 108l41 -5l-95 -129h-52l-95 129l41 5z" />
    <glyph glyph-name="Sacute" unicode="&#x15a;" horiz-adv-x="630" 
d="M173.5 19.5q-71.5 28.5 -121.5 76.5l27 42q50 -46 114 -71t133 -25q89 0 139.5 38.5t50.5 98.5q0 43 -21.5 69.5t-64 43.5t-115.5 33q-126 28 -184 72t-58 125q0 57 32 99.5t87.5 65t124.5 22.5q63 0 122 -20t108 -57l-29 -40q-43 31 -96.5 49t-108.5 18
q-83 0 -132.5 -38t-49.5 -100q0 -40 21 -67t63.5 -45t115.5 -35q87 -19 138.5 -42t77.5 -59t26 -92q0 -57 -32 -100t-88.5 -66.5t-130.5 -23.5q-77 0 -148.5 28.5zM425 848l-90 -99l-36 4l77 109z" />
    <glyph glyph-name="sacute" unicode="&#x15b;" horiz-adv-x="518" 
d="M139.5 11.5q-59.5 20.5 -100.5 53.5l24 43q42 -31 95 -49t105 -18q74 0 115.5 26t41.5 76q0 30 -15.5 49t-51 33t-97.5 26q-75 14 -118 33.5t-61.5 47.5t-18.5 68q0 68 52.5 107t143.5 39q53 0 108 -15.5t91 -41.5l-23 -45q-35 25 -83 39t-96 14q-65 0 -102 -25t-37 -68
q0 -40 34 -62.5t124 -40.5q77 -16 120.5 -36.5t62.5 -49t19 -70.5q0 -72 -57 -113t-155 -41q-61 0 -120.5 20.5zM393 718l-114 -126l-36 6l98 134z" />
    <glyph glyph-name="Scircumflex" unicode="&#x15c;" horiz-adv-x="630" 
d="M173.5 19.5q-71.5 28.5 -121.5 76.5l27 42q50 -46 114 -71t133 -25q89 0 139.5 38.5t50.5 98.5q0 43 -21.5 69.5t-64 43.5t-115.5 33q-126 28 -184 72t-58 125q0 57 32 99.5t87.5 65t124.5 22.5q63 0 122 -20t108 -57l-29 -40q-43 31 -96.5 49t-108.5 18
q-83 0 -132.5 -38t-49.5 -100q0 -40 21 -67t63.5 -45t115.5 -35q87 -19 138.5 -42t77.5 -59t26 -92q0 -57 -32 -100t-88.5 -66.5t-130.5 -23.5q-77 0 -148.5 28.5zM343 880l104 -118l-45 -6l-87 100l-88 -100l-45 6l104 118h57z" />
    <glyph glyph-name="scircumflex" unicode="&#x15d;" horiz-adv-x="518" 
d="M139.5 11.5q-59.5 20.5 -100.5 53.5l24 43q42 -31 95 -49t105 -18q74 0 115.5 26t41.5 76q0 30 -15.5 49t-51 33t-97.5 26q-75 14 -118 33.5t-61.5 47.5t-18.5 68q0 68 52.5 107t143.5 39q53 0 108 -15.5t91 -41.5l-23 -45q-35 25 -83 39t-96 14q-65 0 -102 -25t-37 -68
q0 -40 34 -62.5t124 -40.5q77 -16 120.5 -36.5t62.5 -49t19 -70.5q0 -72 -57 -113t-155 -41q-61 0 -120.5 20.5zM287 724l95 -129l-41 -6l-80 109l-80 -109l-41 6l95 129h52z" />
    <glyph glyph-name="Scedilla" unicode="&#x15e;" horiz-adv-x="630" 
d="M542.5 83.5q-30.5 -42.5 -85 -67t-125.5 -25.5l-9 -30q35 -5 56 -23t21 -45q0 -30 -25.5 -50t-72.5 -20q-32 0 -61 9l8 32q19 -8 49 -8q28 0 42 11.5t14 29.5q0 21 -19.5 33.5t-54.5 12.5l14 49q-70 5 -133.5 33t-108.5 71l27 42q50 -46 114 -71t133 -25q89 0 139.5 38.5
t50.5 98.5q0 43 -21.5 69.5t-64 43.5t-115.5 33q-126 28 -184 72t-58 125q0 57 32 99.5t87.5 65t124.5 22.5q63 0 122 -20t108 -57l-29 -40q-43 31 -96.5 49t-108.5 18q-83 0 -132.5 -38t-49.5 -100q0 -40 21 -67t63.5 -45t115.5 -35q87 -19 138.5 -42t77.5 -59t26 -92
q0 -55 -30.5 -97.5z" />
    <glyph glyph-name="scedilla" unicode="&#x15f;" horiz-adv-x="518" 
d="M420.5 36.5q-51.5 -40.5 -141.5 -45.5l-9 -30q35 -5 56 -23t21 -45q0 -30 -25.5 -50t-72.5 -20q-32 0 -61 9l8 32q19 -8 49 -8q28 0 42 11.5t14 29.5q0 21 -19.5 33.5t-54.5 12.5l14 49q-57 3 -111 22.5t-91 50.5l24 43q42 -31 95 -49t105 -18q74 0 115.5 26t41.5 76
q0 30 -15.5 49t-51 33t-97.5 26q-75 14 -118 33.5t-61.5 47.5t-18.5 68q0 68 52.5 107t143.5 39q53 0 108 -15.5t91 -41.5l-23 -45q-35 25 -83 39t-96 14q-65 0 -102 -25t-37 -68q0 -40 34 -62.5t124 -40.5q77 -16 120.5 -36.5t62.5 -49t19 -70.5q0 -68 -51.5 -108.5z" />
    <glyph glyph-name="Scaron" unicode="&#x160;" horiz-adv-x="630" 
d="M173.5 19.5q-71.5 28.5 -121.5 76.5l27 42q50 -46 114 -71t133 -25q89 0 139.5 38.5t50.5 98.5q0 43 -21.5 69.5t-64 43.5t-115.5 33q-126 28 -184 72t-58 125q0 57 32 99.5t87.5 65t124.5 22.5q63 0 122 -20t108 -57l-29 -40q-43 31 -96.5 49t-108.5 18
q-83 0 -132.5 -38t-49.5 -100q0 -40 21 -67t63.5 -45t115.5 -35q87 -19 138.5 -42t77.5 -59t26 -92q0 -57 -32 -100t-88.5 -66.5t-130.5 -23.5q-77 0 -148.5 28.5zM315 771l87 95l45 -5l-104 -112h-57l-104 112l45 5z" />
    <glyph glyph-name="scaron" unicode="&#x161;" horiz-adv-x="518" 
d="M139.5 11.5q-59.5 20.5 -100.5 53.5l24 43q42 -31 95 -49t105 -18q74 0 115.5 26t41.5 76q0 30 -15.5 49t-51 33t-97.5 26q-75 14 -118 33.5t-61.5 47.5t-18.5 68q0 68 52.5 107t143.5 39q53 0 108 -15.5t91 -41.5l-23 -45q-35 25 -83 39t-96 14q-65 0 -102 -25t-37 -68
q0 -40 34 -62.5t124 -40.5q77 -16 120.5 -36.5t62.5 -49t19 -70.5q0 -72 -57 -113t-155 -41q-61 0 -120.5 20.5zM261 616l80 108l41 -5l-95 -129h-52l-95 129l41 5z" />
    <glyph glyph-name="uni0162" unicode="&#x162;" horiz-adv-x="608" 
d="M331 0h-6l-12 -39q35 -5 56 -23t21 -45q0 -30 -25.5 -50t-72.5 -20q-32 0 -61 9l8 32q19 -8 49 -8q28 0 42 11.5t14 29.5q0 21 -19.5 33.5t-54.5 12.5l16 57h-10v651h-247v49h551v-49h-249v-651z" />
    <glyph glyph-name="uni0163" unicode="&#x163;" horiz-adv-x="466" 
d="M305 -41q35 -5 56 -23t21 -45q0 -30 -25.5 -50t-72.5 -20q-32 0 -61 9l8 32q19 -8 49 -8q28 0 42 11.5t14 29.5q0 21 -19.5 33.5t-54.5 12.5l14 52q-58 7 -92 46.5t-34 103.5v346h-110v49h110l5 148h48v-148h199v-49h-199v-337q0 -52 30 -82.5t77 -30.5q25 0 54 7t49 18
l12 -42q-20 -13 -50.5 -21t-59.5 -10z" />
    <glyph glyph-name="Tcaron" unicode="&#x164;" horiz-adv-x="608" 
d="M29 700h551v-49h-249v-651h-55v651h-247v49zM306 771l87 95l45 -5l-104 -112h-57l-104 112l45 5z" />
    <glyph glyph-name="tcaron" unicode="&#x165;" horiz-adv-x="466" 
d="M425 22q-22 -14 -57 -22.5t-66 -8.5q-69 0 -110.5 40.5t-41.5 111.5v346h-110v49h110l5 148h48v-148h199v-49h-199v-337q0 -52 30 -82.5t77 -30.5q25 0 54 7t49 18zM321 614v204l43 -1l-14 -203h-29z" />
    <glyph glyph-name="Tbar" unicode="&#x166;" horiz-adv-x="608" 
d="M580 700v-49h-249v-278h156v-42h-156v-331h-55v331h-151v42h151v278h-247v49h551z" />
    <glyph glyph-name="tbar" unicode="&#x167;" horiz-adv-x="466" 
d="M425 22q-22 -14 -57 -22.5t-66 -8.5q-69 0 -110.5 40.5t-41.5 111.5v160h-94v38h94v148h-110v49h110l5 148h48v-148h199v-49h-199v-148h158v-38h-158v-151q0 -52 30 -82.5t77 -30.5q25 0 54 7t49 18z" />
    <glyph glyph-name="Utilde" unicode="&#x168;" horiz-adv-x="731" 
d="M214 26.5q-65 35.5 -100 102t-35 157.5v414h55v-405q0 -116 62 -181t170 -65q107 0 169.5 65t62.5 181v405h54v-414q0 -91 -34.5 -157.5t-99.5 -102t-152 -35.5t-152 35.5zM205 764q0 38 22 61.5t55 23.5q19 0 35 -7.5t39 -21.5q21 -12 33.5 -18t25.5 -6q23 0 37.5 16
t14.5 41l30 -7q0 -38 -22 -61.5t-56 -23.5q-19 0 -35 7.5t-39 21.5q-22 13 -33.5 18.5t-24.5 5.5q-23 0 -37.5 -16t-14.5 -41z" />
    <glyph glyph-name="utilde" unicode="&#x169;" horiz-adv-x="645" 
d="M505 538h53v-538h-53v114q-30 -54 -86 -88.5t-128 -34.5q-97 0 -155 63t-58 170v314h52v-308q0 -88 46 -138.5t126 -50.5q55 0 101.5 27.5t74 76t27.5 109.5v284zM174 618q0 38 22 61.5t55 23.5q19 0 35 -7.5t39 -21.5q21 -12 33.5 -18t25.5 -6q23 0 37.5 16t14.5 41
l30 -7q0 -38 -22 -61.5t-56 -23.5q-19 0 -35 7.5t-39 21.5q-22 13 -33.5 18.5t-24.5 5.5q-23 0 -37.5 -16t-14.5 -41z" />
    <glyph glyph-name="Umacron" unicode="&#x16a;" horiz-adv-x="731" 
d="M214 26.5q-65 35.5 -100 102t-35 157.5v414h55v-405q0 -116 62 -181t170 -65q107 0 169.5 65t62.5 181v405h54v-414q0 -91 -34.5 -157.5t-99.5 -102t-152 -35.5t-152 35.5zM497 788h-265v36h266z" />
    <glyph glyph-name="umacron" unicode="&#x16b;" horiz-adv-x="645" 
d="M505 538h53v-538h-53v114q-30 -54 -86 -88.5t-128 -34.5q-97 0 -155 63t-58 170v314h52v-308q0 -88 46 -138.5t126 -50.5q55 0 101.5 27.5t74 76t27.5 109.5v284zM465 645h-265v36h266z" />
    <glyph glyph-name="Ubreve" unicode="&#x16c;" horiz-adv-x="731" 
d="M214 26.5q-65 35.5 -100 102t-35 157.5v414h55v-405q0 -116 62 -181t170 -65q107 0 169.5 65t62.5 181v405h54v-414q0 -91 -34.5 -157.5t-99.5 -102t-152 -35.5t-152 35.5zM485 873q0 -58 -32.5 -92t-87.5 -34t-87.5 34t-32.5 92h40q0 -44 20.5 -68t59.5 -24q38 0 59 24
t21 68h40z" />
    <glyph glyph-name="ubreve" unicode="&#x16d;" horiz-adv-x="645" 
d="M505 538h53v-538h-53v114q-30 -54 -86 -88.5t-128 -34.5q-97 0 -155 63t-58 170v314h52v-308q0 -88 46 -138.5t126 -50.5q55 0 101.5 27.5t74 76t27.5 109.5v284zM440 716q0 -58 -32.5 -92t-87.5 -34t-87.5 34t-32.5 92h40q0 -44 20.5 -68t59.5 -24q38 0 59 24t21 68h40z
" />
    <glyph glyph-name="Uring" unicode="&#x16e;" horiz-adv-x="731" 
d="M214 26.5q-65 35.5 -100 102t-35 157.5v414h55v-405q0 -116 62 -181t170 -65q107 0 169.5 65t62.5 181v405h54v-414q0 -91 -34.5 -157.5t-99.5 -102t-152 -35.5t-152 35.5zM294.5 774.5q-30.5 29.5 -30.5 73.5t30.5 73.5t76.5 29.5t77 -29.5t31 -73.5t-31 -73.5
t-77 -29.5t-76.5 29.5zM421.5 798q20.5 20 20.5 50t-20.5 50t-50.5 20t-50 -20t-20 -50t20 -50t50 -20t50.5 20z" />
    <glyph glyph-name="uring" unicode="&#x16f;" horiz-adv-x="645" 
d="M505 538h53v-538h-53v114q-30 -54 -86 -88.5t-128 -34.5q-97 0 -155 63t-58 170v314h52v-308q0 -88 46 -138.5t126 -50.5q55 0 101.5 27.5t74 76t27.5 109.5v284zM259.5 615.5q-30.5 29.5 -30.5 73.5t30.5 73.5t76.5 29.5t77 -29.5t31 -73.5t-31 -73.5t-77 -29.5
t-76.5 29.5zM386.5 639q20.5 20 20.5 50t-20.5 50t-50.5 20t-50 -20t-20 -50t20 -50t50 -20t50.5 20z" />
    <glyph glyph-name="Uhungarumlaut" unicode="&#x170;" horiz-adv-x="731" 
d="M214 26.5q-65 35.5 -100 102t-35 157.5v414h55v-405q0 -116 62 -181t170 -65q107 0 169.5 65t62.5 181v405h54v-414q0 -91 -34.5 -157.5t-99.5 -102t-152 -35.5t-152 35.5zM353 848l-86 -99l-36 4l74 109zM501 848l-86 -99l-36 4l74 109z" />
    <glyph glyph-name="uhungarumlaut" unicode="&#x171;" horiz-adv-x="645" 
d="M505 538h53v-538h-53v114q-30 -54 -86 -88.5t-128 -34.5q-97 0 -155 63t-58 170v314h52v-308q0 -88 46 -138.5t126 -50.5q55 0 101.5 27.5t74 76t27.5 109.5v284zM299 717l-108 -126l-37 6l94 134zM447 717l-108 -126l-37 6l94 134z" />
    <glyph glyph-name="Uogonek" unicode="&#x172;" horiz-adv-x="731" 
d="M598 700h54v-414q0 -97 -39 -166t-111 -102q-27 -18 -40.5 -39t-13.5 -40q0 -25 17.5 -38.5t50.5 -13.5q19 0 38 4l3 -33q-30 -6 -55 -6q-48 0 -74.5 20t-26.5 55t30 70q-31 -6 -65 -6q-87 0 -152 35.5t-100 102t-35 157.5v414h55v-405q0 -116 62 -181t170 -65
q107 0 169.5 65t62.5 181v405z" />
    <glyph glyph-name="uogonek" unicode="&#x173;" horiz-adv-x="645" 
d="M582 -176q-30 -6 -55 -6q-48 0 -74.5 20t-26.5 55q0 29 21 58t58 50v113q-30 -54 -86 -88.5t-128 -34.5q-97 0 -155 63t-58 170v314h52v-308q0 -88 46 -138.5t126 -50.5q55 0 101.5 27.5t74 76t27.5 109.5v284h53v-538h-4q-40 -20 -60.5 -46t-20.5 -49q0 -25 17.5 -38.5
t50.5 -13.5q19 0 38 4z" />
    <glyph glyph-name="Wcircumflex" unicode="&#x174;" horiz-adv-x="1038" 
d="M755 69l201 632h58l-227 -701h-60l-208 609l-207 -609h-60l-228 700h58l203 -631l209 631h50zM549 880l104 -118l-45 -6l-87 100l-88 -100l-45 6l104 118h57z" />
    <glyph glyph-name="wcircumflex" unicode="&#x175;" horiz-adv-x="859" 
d="M619 63l164 475h56l-190 -538h-60l-159 467l-160 -467h-60l-190 538h56l164 -475l161 475h56zM455 724l95 -129l-41 -6l-80 109l-80 -109l-41 6l95 129h52z" />
    <glyph glyph-name="Ycircumflex" unicode="&#x176;" horiz-adv-x="665" 
d="M585 700h61l-286 -436v-264h-56v267l-285 433h61l253 -388zM362 880l104 -118l-45 -6l-87 100l-88 -100l-45 6l104 118h57z" />
    <glyph glyph-name="ycircumflex" unicode="&#x177;" horiz-adv-x="567" 
d="M494 538h58l-239 -538l-24 -56q-29 -65 -68.5 -94.5t-99.5 -29.5q-25 0 -51 7.5t-45 18.5l17 39q35 -19 78 -19q41 0 68 21.5t49 68.5l20 46l-238 536h58l208 -476h1zM338 724l95 -129l-41 -6l-80 109l-80 -109l-41 6l95 129h52z" />
    <glyph glyph-name="Ydieresis" unicode="&#x178;" horiz-adv-x="665" 
d="M585 700h61l-286 -436v-264h-56v267l-285 433h61l253 -388zM289 768h-52v101h52v-101zM437 768h-52v101h52v-101z" />
    <glyph glyph-name="Zacute" unicode="&#x179;" horiz-adv-x="693" 
d="M628 0h-567v35l486 616h-475v49h552v-35l-486 -615h490v-50zM454 848l-90 -99l-36 4l77 109z" />
    <glyph glyph-name="zacute" unicode="&#x17a;" horiz-adv-x="519" 
d="M483 0h-447v33l367 456h-358v49h433v-33l-368 -456h373v-49zM389 718l-114 -126l-36 6l98 134z" />
    <glyph glyph-name="Zdotaccent" unicode="&#x17b;" horiz-adv-x="693" 
d="M628 0h-567v35l486 616h-475v49h552v-35l-486 -615h490v-50zM372 768h-56v102h56v-102z" />
    <glyph glyph-name="zdotaccent" unicode="&#x17c;" horiz-adv-x="519" 
d="M483 0h-447v33l367 456h-358v49h433v-33l-368 -456h373v-49zM285 619h-56v105h56v-105z" />
    <glyph glyph-name="Zcaron" unicode="&#x17d;" horiz-adv-x="693" 
d="M628 0h-567v35l486 616h-475v49h552v-35l-486 -615h490v-50zM345 771l87 95l45 -5l-104 -112h-57l-104 112l45 5z" />
    <glyph glyph-name="zcaron" unicode="&#x17e;" horiz-adv-x="519" 
d="M483 0h-447v33l367 456h-358v49h433v-33l-368 -456h373v-49zM257 616l80 108l41 -5l-95 -129h-52l-95 129l41 5z" />
    <glyph glyph-name="uni018F" unicode="&#x18f;" horiz-adv-x="834" 
d="M583 662.5q86 -46.5 134.5 -128.5t48.5 -185q0 -102 -47 -184t-130.5 -128t-188.5 -46q-96 0 -171 42.5t-117.5 121t-42.5 180.5q0 17 2 23h638q-1 87 -42.5 156.5t-114 108.5t-163.5 39q-73 0 -135 -26t-107 -73l-35 32q51 54 122 84t155 30q108 0 194 -46.5zM548.5 73
q67.5 35 109.5 97.5t49 142.5l-582 -1q5 -84 41 -146t96 -95t137 -33q82 0 149.5 35z" />
    <glyph glyph-name="florin" unicode="&#x192;" horiz-adv-x="686" 
d="M451 675q-34 -40 -52 -137h160v-42h-167l-49 -274q-22 -122 -69.5 -175t-120.5 -53q-54 0 -98 23l18 37q38 -19 79 -19q52 0 86.5 42.5t52.5 147.5l47 271h-127v42h134q22 117 68.5 167.5t119.5 50.5q29 0 55 -6.5t43 -16.5l-17 -37q-40 19 -76 19q-53 0 -87 -40z" />
    <glyph glyph-name="uni019D" unicode="&#x19d;" horiz-adv-x="804" 
d="M628 700h55v-700h-46l-482 606v-606h-1v-29q0 -68 -38.5 -102t-100.5 -34q-45 0 -84 22l15 41q13 -8 30 -12.5t32 -4.5q40 0 66 23.5t26 70.5v725h47l481 -604v604z" />
    <glyph glyph-name="Ohorn" unicode="&#x1a0;" horiz-adv-x="855" 
d="M757.5 500q29.5 -69 29.5 -150q0 -103 -46.5 -184.5t-128.5 -128t-185 -46.5q-102 0 -184 46t-128 128t-46 185t46.5 184.5t128 128t184.5 46.5q115 0 204 -58q37 -3 61 11t24 47q0 21 -10 48l46 3q11 -30 11 -59q0 -40 -24 -62t-65 -21q53 -49 82.5 -118zM583.5 81
q68.5 39 107 109.5t38.5 159.5t-38.5 159.5t-107 110t-155.5 39.5t-156 -39.5t-107.5 -110t-38.5 -159.5t38.5 -159.5t107.5 -109.5t156 -39t155.5 39z" />
    <glyph glyph-name="ohorn" unicode="&#x1a1;" 
d="M588.5 389.5q24.5 -54.5 24.5 -119.5q0 -80 -36 -143.5t-100 -99.5t-144 -36q-79 0 -142.5 36t-99.5 99.5t-36 142.5t36 142.5t99.5 99.5t142.5 36q74 0 136 -31q6 -1 19 -1q31 0 50 14t19 44q0 21 -10 48l46 3q12 -33 12 -59q0 -38 -23 -60t-63 -23q45 -38 69.5 -92.5z
M450.5 69.5q51.5 29.5 80.5 81.5t29 118q0 67 -29 119t-81 81t-117 29q-64 0 -115.5 -29t-80.5 -81.5t-29 -118.5t29.5 -118t81 -81.5t115.5 -29.5q65 0 116.5 29.5z" />
    <glyph glyph-name="Uhorn" unicode="&#x1af;" horiz-adv-x="748" 
d="M762 808q11 -29 11 -57q0 -38 -22.5 -59.5t-61.5 -21.5q-15 0 -37 5v-389q0 -91 -34.5 -157.5t-99.5 -102t-152 -35.5t-152 35.5t-100 102t-35 157.5v414h55v-405q0 -116 62 -181t170 -65q107 0 169.5 65t62.5 181v405h39l1 3q7 -1 21 -1q30 0 48.5 14t18.5 43
q0 19 -9 46z" />
    <glyph glyph-name="uhorn" unicode="&#x1b0;" horiz-adv-x="661" 
d="M669 645q11 -29 11 -57q0 -37 -22.5 -58t-61.5 -21q-15 0 -38 5v-514h-53v114q-30 -54 -86 -88.5t-128 -34.5q-97 0 -155 63t-58 170v314h52v-308q0 -88 46 -138.5t126 -50.5q55 0 101.5 27.5t74 76t27.5 109.5v284h41l1 3q6 -1 19 -1q31 0 50 13.5t19 42.5q0 21 -10 47z
" />
    <glyph glyph-name="uni01CD" unicode="&#x1cd;" horiz-adv-x="752" 
d="M729 0h-59l-82 176h-425l-82 -176h-57l325 700h54zM376 636l-190 -410h379zM378 771l87 95l45 -5l-104 -112h-57l-104 112l45 5z" />
    <glyph glyph-name="uni01CE" unicode="&#x1ce;" horiz-adv-x="567" 
d="M434 493.5q56 -53.5 56 -154.5v-339h-53v120q-25 -51 -81.5 -90t-131.5 -39q-86 0 -136 44.5t-50 117.5q0 77 52.5 121.5t155.5 44.5q93 0 191 -13v32q0 79 -44 119.5t-127 40.5q-46 0 -91 -15.5t-82 -45.5l-27 40q43 35 96 52.5t109 17.5q107 0 163 -53.5zM339.5 69
q45.5 29 71.5 74.5t26 90.5v27q-89 13 -180 13q-85 0 -126.5 -30.5t-41.5 -87.5q0 -56 38.5 -86t111.5 -30q55 0 100.5 29zM275 619l80 108l41 -5l-95 -129h-52l-95 129l41 5z" />
    <glyph glyph-name="uni01CF" unicode="&#x1cf;" horiz-adv-x="255" 
d="M155 0h-55v700h55v-700zM128 771l87 95l45 -5l-104 -112h-57l-104 112l45 5z" />
    <glyph glyph-name="uni01D0" unicode="&#x1d0;" horiz-adv-x="227" 
d="M140 0h-53v538h53v-538zM113 616l80 108l41 -5l-95 -129h-52l-95 129l41 5z" />
    <glyph glyph-name="uni01D1" unicode="&#x1d1;" horiz-adv-x="855" 
d="M243 37q-82 46 -128 128t-46 185t46.5 184.5t128 128t184.5 46.5t184.5 -46t128 -128t46.5 -185t-46.5 -184.5t-128.5 -128t-185 -46.5q-102 0 -184 46zM583.5 81q68.5 39 107 109.5t38.5 159.5t-38.5 159.5t-107 110t-155.5 39.5t-156 -39.5t-107.5 -110t-38.5 -159.5
t38.5 -159.5t107.5 -109.5t156 -39t155.5 39zM429 771l87 95l45 -5l-104 -112h-57l-104 112l45 5z" />
    <glyph glyph-name="uni01D2" unicode="&#x1d2;" 
d="M190.5 27q-63.5 36 -99.5 99.5t-36 142.5t36 142.5t99.5 99.5t142.5 36q80 0 144 -36t100 -99t36 -142q0 -80 -36 -143.5t-100 -99.5t-144 -36q-79 0 -142.5 36zM450.5 69.5q51.5 29.5 80.5 81.5t29 118q0 67 -29 119t-81 81t-117 29q-64 0 -115.5 -29t-80.5 -81.5
t-29 -118.5t29.5 -118t81 -81.5t115.5 -29.5q65 0 116.5 29.5zM334 616l80 108l41 -5l-95 -129h-52l-95 129l41 5z" />
    <glyph glyph-name="uni01D3" unicode="&#x1d3;" horiz-adv-x="731" 
d="M214 26.5q-65 35.5 -100 102t-35 157.5v414h55v-405q0 -116 62 -181t170 -65q107 0 169.5 65t62.5 181v405h54v-414q0 -91 -34.5 -157.5t-99.5 -102t-152 -35.5t-152 35.5zM367 771l87 95l45 -5l-104 -112h-57l-104 112l45 5z" />
    <glyph glyph-name="uni01D4" unicode="&#x1d4;" horiz-adv-x="645" 
d="M505 538h53v-538h-53v114q-30 -54 -86 -88.5t-128 -34.5q-97 0 -155 63t-58 170v314h52v-308q0 -88 46 -138.5t126 -50.5q55 0 101.5 27.5t74 76t27.5 109.5v284zM320 616l80 108l41 -5l-95 -129h-52l-95 129l41 5z" />
    <glyph glyph-name="uni01D5" unicode="&#x1d5;" horiz-adv-x="731" 
d="M214 26.5q-65 35.5 -100 102t-35 157.5v414h55v-405q0 -116 62 -181t170 -65q107 0 169.5 65t62.5 181v405h54v-414q0 -91 -34.5 -157.5t-99.5 -102t-152 -35.5t-152 35.5zM324 768h-52v101h52v-101zM472 768h-52v101h52v-101zM497 955h-265v36h266z" />
    <glyph glyph-name="uni01D6" unicode="&#x1d6;" horiz-adv-x="645" 
d="M505 538h53v-538h-53v114q-30 -54 -86 -88.5t-128 -34.5q-97 0 -155 63t-58 170v314h52v-308q0 -88 46 -138.5t126 -50.5q55 0 101.5 27.5t74 76t27.5 109.5v284zM284 619h-41v105h41v-105zM436 619h-42v105h42v-105zM477 831h-265v36h266z" />
    <glyph glyph-name="uni01D7" unicode="&#x1d7;" horiz-adv-x="731" 
d="M214 26.5q-65 35.5 -100 102t-35 157.5v414h55v-405q0 -116 62 -181t170 -65q107 0 169.5 65t62.5 181v405h54v-414q0 -91 -34.5 -157.5t-99.5 -102t-152 -35.5t-152 35.5zM324 768h-52v101h52v-101zM472 768h-52v101h52v-101zM477 1015l-90 -99l-36 4l77 109z" />
    <glyph glyph-name="uni01D8" unicode="&#x1d8;" horiz-adv-x="645" 
d="M505 538h53v-538h-53v114q-30 -54 -86 -88.5t-128 -34.5q-97 0 -155 63t-58 170v314h52v-308q0 -88 46 -138.5t126 -50.5q55 0 101.5 27.5t74 76t27.5 109.5v284zM284 619h-41v105h41v-105zM436 619h-42v105h42v-105zM463 904l-114 -126l-36 6l98 134z" />
    <glyph glyph-name="uni01D9" unicode="&#x1d9;" horiz-adv-x="731" 
d="M214 26.5q-65 35.5 -100 102t-35 157.5v414h55v-405q0 -116 62 -181t170 -65q107 0 169.5 65t62.5 181v405h54v-414q0 -91 -34.5 -157.5t-99.5 -102t-152 -35.5t-152 35.5zM324 768h-52v101h52v-101zM472 768h-52v101h52v-101zM368 938l87 95l45 -5l-104 -112h-57
l-104 112l45 5z" />
    <glyph glyph-name="uni01DA" unicode="&#x1da;" horiz-adv-x="645" 
d="M505 538h53v-538h-53v114q-30 -54 -86 -88.5t-128 -34.5q-97 0 -155 63t-58 170v314h52v-308q0 -88 46 -138.5t126 -50.5q55 0 101.5 27.5t74 76t27.5 109.5v284zM284 619h-41v105h41v-105zM436 619h-42v105h42v-105zM332 802l80 108l41 -5l-95 -129h-52l-95 129l41 5z
" />
    <glyph glyph-name="uni01DB" unicode="&#x1db;" horiz-adv-x="731" 
d="M214 26.5q-65 35.5 -100 102t-35 157.5v414h55v-405q0 -116 62 -181t170 -65q107 0 169.5 65t62.5 181v405h54v-414q0 -91 -34.5 -157.5t-99.5 -102t-152 -35.5t-152 35.5zM322 768h-52v101h52v-101zM470 768h-52v101h52v-101zM381 921l-36 -4l-89 99l48 14z" />
    <glyph glyph-name="uni01DB" unicode="&#x1dc;" horiz-adv-x="731" 
d="M214 26.5q-65 35.5 -100 102t-35 157.5v414h55v-405q0 -116 62 -181t170 -65q107 0 169.5 65t62.5 181v405h54v-414q0 -91 -34.5 -157.5t-99.5 -102t-152 -35.5t-152 35.5zM322 768h-52v101h52v-101zM470 768h-52v101h52v-101zM381 921l-36 -4l-89 99l48 14z" />
    <glyph glyph-name="Gcaron" unicode="&#x1e6;" horiz-adv-x="762" 
d="M243.5 37q-81.5 46 -128 128t-46.5 184q0 103 46 185t127.5 128.5t184.5 46.5q75 0 139.5 -25.5t114.5 -74.5l-35 -35q-91 85 -218 85q-87 0 -156 -39.5t-107.5 -109.5t-38.5 -160t38.5 -160.5t108 -109.5t158.5 -39q123 0 211 78v232h51v-256q-52 -50 -120 -77t-145 -27
q-103 0 -184.5 46zM439 771l87 95l45 -5l-104 -112h-57l-104 112l45 5z" />
    <glyph glyph-name="gcaron" unicode="&#x1e7;" horiz-adv-x="602" 
d="M366 111q100 0 155.5 -34.5t55.5 -93.5q0 -74 -74.5 -118.5t-205.5 -44.5q-112 0 -176 37t-64 101q0 35 25 63.5t65 48.5q-29 11 -45 33t-16 50q0 30 18.5 53t50.5 34q-65 48 -65 133q0 80 57.5 127t157.5 47q57 0 98 -18l139 29l11 -45l-96 -14q30 -21 47 -53t17 -73
q0 -80 -57.5 -127.5t-156.5 -47.5q-68 0 -119 23q-49 -20 -49 -55q0 -26 19 -40.5t51 -14.5h157zM185.5 466.5q-43.5 -33.5 -43.5 -92.5q0 -60 43.5 -94.5t120.5 -34.5q76 0 119.5 34t43.5 94q0 59 -43.5 93t-119.5 34q-77 0 -120.5 -33.5zM464.5 -102q59.5 29 59.5 82
q0 41 -44.5 61.5t-125.5 20.5h-158h-5q-80 -42 -80 -97q0 -47 49.5 -71.5t138.5 -24.5q106 0 165.5 29zM313 616l80 108l41 -5l-95 -129h-52l-95 129l41 5z" />
    <glyph glyph-name="uni01EA" unicode="&#x1ea;" horiz-adv-x="855" 
d="M527.5 -21q-20.5 -26 -20.5 -49q0 -25 17.5 -38.5t50.5 -13.5q19 0 38 4l3 -33q-30 -6 -55 -6q-48 0 -74.5 20t-26.5 55q0 42 39 79q-34 -6 -72 -6q-102 0 -184 46t-128 128t-46 185t46.5 184.5t128 128t184.5 46.5t184.5 -46t128 -128t46.5 -185q0 -111 -53.5 -197
t-146.5 -128q-39 -20 -59.5 -46zM164.5 190.5q38.5 -70.5 107.5 -109.5t156 -39t155.5 39t107 109.5t38.5 159.5t-38.5 159.5t-107 110t-155.5 39.5t-156 -39.5t-107.5 -110t-38.5 -159.5t38.5 -159.5z" />
    <glyph glyph-name="uni01EB" unicode="&#x1eb;" 
d="M575.5 123.5q-37.5 -64.5 -103.5 -99.5h1q-40 -20 -60.5 -46t-20.5 -49q0 -25 17.5 -38.5t50.5 -13.5q19 0 38 4l3 -33q-30 -6 -55 -6q-48 0 -74.5 20t-26.5 55q0 42 38 78q-21 -4 -50 -4q-79 0 -142.5 36t-99.5 99.5t-36 142.5t36 142.5t99.5 99.5t142.5 36
q80 0 144 -36t100 -99t36 -142q0 -82 -37.5 -146.5zM450.5 69.5q51.5 29.5 80.5 81.5t29 118q0 67 -29 119t-81 81t-117 29q-64 0 -115.5 -29t-80.5 -81.5t-29 -118.5t29.5 -118t81 -81.5t115.5 -29.5q65 0 116.5 29.5z" />
    <glyph glyph-name="Aringacute" unicode="&#x1fa;" horiz-adv-x="752" 
d="M431 1022l48 -14l-89 -99l-36 4zM670 0l-82 176h-425l-82 -176h-57l317 683q-30 11 -48.5 37t-18.5 59q0 44 31 73.5t77 29.5t76.5 -29.5t30.5 -73.5q0 -36 -21 -63t-56 -36l317 -680h-59zM331.5 729q20.5 -20 50.5 -20t50 20t20 50t-20 50t-50 20t-50.5 -20t-20.5 -50
t20.5 -50zM376 636l-190 -410h379z" />
    <glyph glyph-name="aringacute" unicode="&#x1fb;" horiz-adv-x="572" 
d="M434 493.5q56 -53.5 56 -154.5v-339h-53v120q-25 -51 -81.5 -90t-131.5 -39q-86 0 -136 44.5t-50 117.5q0 77 52.5 121.5t155.5 44.5q93 0 191 -13v32q0 79 -44 119.5t-127 40.5q-46 0 -91 -15.5t-82 -45.5l-27 40q43 35 96 52.5t109 17.5q107 0 163 -53.5zM339.5 69
q45.5 29 71.5 74.5t26 90.5v27q-89 13 -180 13q-85 0 -126.5 -30.5t-41.5 -87.5q0 -56 38.5 -86t111.5 -30q55 0 100.5 29zM206.5 618.5q-30.5 29.5 -30.5 73.5t30.5 73.5t76.5 29.5t77 -29.5t31 -73.5t-31 -73.5t-77 -29.5t-76.5 29.5zM333.5 642q20.5 20 20.5 50t-20.5 50
t-50.5 20t-50 -20t-20 -50t20 -50t50 -20t50.5 20zM411 969l-114 -126l-36 6l98 134z" />
    <glyph glyph-name="AEacute" unicode="&#x1fc;" horiz-adv-x="1066" 
d="M537 333v-283h477v-50h-531v187h-288l-113 -187h-58l420 700h560v-49h-467v-269h410v-49h-410zM478 653l-252 -416h257v416h-5zM793 848l-90 -99l-36 4l77 109z" />
    <glyph glyph-name="aeacute" unicode="&#x1fd;" horiz-adv-x="992" 
d="M479 251q3 -62 33 -110t80.5 -74.5t114.5 -26.5q105 0 170 71l35 -32q-39 -41 -92 -64.5t-116 -23.5q-88 0 -156 43t-100 117q-16 -40 -50 -77t-83 -60t-107 -23q-81 0 -130.5 44t-49.5 117q0 75 54.5 119t153.5 44q107 0 191 -12v3v36q-1 78 -44.5 118.5t-126.5 40.5
q-47 0 -93 -15.5t-80 -44.5l-29 37q44 33 97.5 51t108.5 18q81 0 132.5 -33t72.5 -93q34 59 94.5 92t136.5 33q72 0 127.5 -33t86.5 -93t31 -139q0 -4 -2 -30h-460zM589 472.5q-47 -25.5 -75.5 -71t-33.5 -104.5h409q-6 94 -58 147.5t-135 53.5q-60 0 -107 -25.5zM327 67
q47 29 73.5 74t26.5 92q-2 18 -2 29q-73 12 -178 12q-79 0 -123.5 -31.5t-44.5 -86.5t37.5 -86.5t103.5 -31.5q60 0 107 29zM634 718l-114 -126l-36 6l98 134z" />
    <glyph glyph-name="oslashacute" unicode="&#x1ff;" 
d="M550 452q30 -36 46.5 -82.5t16.5 -99.5q0 -80 -36 -143.5t-100 -99.5t-144 -36q-53 0 -99.5 16.5t-82.5 46.5l-50 -50l-32 32l50 50q-64 75 -64 183q0 79 36 142.5t99.5 99.5t142.5 36q108 0 184 -63l52 52l32 -33zM156 123l325 325q-61 50 -148 50q-64 0 -115.5 -29
t-80.5 -81.5t-29 -118.5q0 -84 48 -146zM450.5 69.5q51.5 29.5 80.5 81.5t29 118q0 85 -47 146l-325 -325q29 -24 66.5 -37t79.5 -13q65 0 116.5 29.5zM463 718l-114 -126l-36 6l98 134z" />
    <glyph glyph-name="uni0218" unicode="&#x218;" horiz-adv-x="630" 
d="M173.5 19.5q-71.5 28.5 -121.5 76.5l27 42q50 -46 114 -71t133 -25q89 0 139.5 38.5t50.5 98.5q0 43 -21.5 69.5t-64 43.5t-115.5 33q-126 28 -184 72t-58 125q0 57 32 99.5t87.5 65t124.5 22.5q63 0 122 -20t108 -57l-29 -40q-43 31 -96.5 49t-108.5 18
q-83 0 -132.5 -38t-49.5 -100q0 -40 21 -67t63.5 -45t115.5 -35q87 -19 138.5 -42t77.5 -59t26 -92q0 -57 -32 -100t-88.5 -66.5t-130.5 -23.5q-77 0 -148.5 28.5zM269 -176q54 27 47 76h-39v64h76q6 -29 6 -52q0 -87 -77 -115z" />
    <glyph glyph-name="uni0219" unicode="&#x219;" horiz-adv-x="518" 
d="M139.5 11.5q-59.5 20.5 -100.5 53.5l24 43q42 -31 95 -49t105 -18q74 0 115.5 26t41.5 76q0 30 -15.5 49t-51 33t-97.5 26q-75 14 -118 33.5t-61.5 47.5t-18.5 68q0 68 52.5 107t143.5 39q53 0 108 -15.5t91 -41.5l-23 -45q-35 25 -83 39t-96 14q-65 0 -102 -25t-37 -68
q0 -40 34 -62.5t124 -40.5q77 -16 120.5 -36.5t62.5 -49t19 -70.5q0 -72 -57 -113t-155 -41q-61 0 -120.5 20.5zM216 -176q54 27 47 76h-39v64h76q6 -29 6 -52q0 -87 -77 -115z" />
    <glyph glyph-name="uni021A" unicode="&#x21a;" horiz-adv-x="608" 
d="M29 700h551v-49h-249v-651h-55v651h-247v49zM259 -176q54 27 47 76h-39v64h76q6 -29 6 -52q0 -87 -77 -115z" />
    <glyph glyph-name="uni021B" unicode="&#x21b;" horiz-adv-x="466" 
d="M425 22q-22 -14 -57 -22.5t-66 -8.5q-69 0 -110.5 40.5t-41.5 111.5v346h-110v49h110l5 148h48v-148h199v-49h-199v-337q0 -52 30 -82.5t77 -30.5q25 0 54 7t49 18zM250 -178q54 27 47 76h-39v64h76q6 -29 6 -52q0 -87 -77 -115z" />
    <glyph glyph-name="uni0232" unicode="&#x232;" horiz-adv-x="665" 
d="M585 700h61l-286 -436v-264h-56v267l-285 433h61l253 -388zM464 788h-265v36h266z" />
    <glyph glyph-name="uni0233" unicode="&#x233;" horiz-adv-x="567" 
d="M494 538h58l-239 -538l-24 -56q-29 -65 -68.5 -94.5t-99.5 -29.5q-25 0 -51 7.5t-45 18.5l17 39q35 -19 78 -19q41 0 68 21.5t49 68.5l20 46l-238 536h58l208 -476h1zM457 645h-265v36h266z" />
    <glyph glyph-name="uni0237" unicode="&#x237;" horiz-adv-x="239" 
d="M-50 -109q26 -16 57 -16q40 0 66 23.5t26 68.5v571h53v-575q0 -66 -39.5 -101t-100.5 -35q-40 0 -79 21z" />
    <glyph glyph-name="uni0259" unicode="&#x259;" horiz-adv-x="616" 
d="M425.5 511q63.5 -36 99.5 -99.5t36 -142.5q0 -80 -34 -143t-95.5 -98.5t-141.5 -35.5q-72 0 -127.5 33t-86.5 93t-31 139q0 4 2 30h460q-3 62 -33 110t-80.5 74.5t-113.5 26.5q-105 0 -171 -71l-35 32q39 42 92.5 65t116.5 23q79 0 142.5 -36zM439.5 95.5
q58.5 55.5 66.5 145.5h-409q6 -94 58 -147.5t135 -53.5q91 0 149.5 55.5z" />
    <glyph glyph-name="uni0272" unicode="&#x272;" horiz-adv-x="645" 
d="M466.5 518.5q48.5 -28.5 75 -81t26.5 -123.5v-314h-53v308q0 88 -46 138.5t-126 50.5q-55 0 -101.5 -27.5t-74 -76t-27.5 -109.5v-313q0 -68 -37.5 -102t-98.5 -34q-20 0 -42 6t-40 16l14 41q29 -17 61 -17q39 0 64.5 23.5t25.5 70.5v563h53v-113q30 54 86.5 88t127.5 34
q64 0 112.5 -28.5z" />
    <glyph glyph-name="uni02B0" unicode="&#x2b0;" horiz-adv-x="334" 
d="M268.5 756q27.5 -31 27.5 -86v-159h-43v152q0 40 -21 64t-56 24t-62 -27t-27 -67v-146h-43v369h43v-168q12 32 41 53.5t65 21.5q48 0 75.5 -31z" />
    <glyph glyph-name="circumflex" unicode="&#x2c6;" horiz-adv-x="380" 
d="M216 724l95 -129l-41 -6l-80 109l-80 -109l-41 6l95 129h52z" />
    <glyph glyph-name="caron" unicode="&#x2c7;" horiz-adv-x="380" 
d="M190 616l80 108l41 -5l-95 -129h-52l-95 129l41 5z" />
    <glyph glyph-name="breve" unicode="&#x2d8;" horiz-adv-x="378" 
d="M309 716q0 -58 -32.5 -92t-87.5 -34t-87.5 34t-32.5 92h40q0 -44 20.5 -68t59.5 -24q38 0 59 24t21 68h40z" />
    <glyph glyph-name="dotaccent" unicode="&#x2d9;" horiz-adv-x="193" 
d="M125 619h-56v105h56v-105z" />
    <glyph glyph-name="ring" unicode="&#x2da;" horiz-adv-x="342" 
d="M99.5 615.5q-30.5 29.5 -30.5 73.5t30.5 73.5t76.5 29.5t77 -29.5t31 -73.5t-31 -73.5t-77 -29.5t-76.5 29.5zM226.5 639q20.5 20 20.5 50t-20.5 50t-50.5 20t-50 -20t-20 -50t20 -50t50 -20t50.5 20z" />
    <glyph glyph-name="ogonek" unicode="&#x2db;" horiz-adv-x="224" 
d="M162 0q-40 -20 -60.5 -46t-20.5 -49q0 -25 17.5 -38.5t50.5 -13.5q19 0 38 4l3 -33q-30 -6 -55 -6q-48 0 -74.5 20t-26.5 55q0 33 26 65t71 52z" />
    <glyph glyph-name="tilde" unicode="&#x2dc;" horiz-adv-x="429" 
d="M69 618q0 38 22 61.5t55 23.5q19 0 35 -7.5t39 -21.5q21 -12 33.5 -18t25.5 -6q23 0 37.5 16t14.5 41l30 -7q0 -38 -22 -61.5t-56 -23.5q-19 0 -35 7.5t-39 21.5q-22 13 -33.5 18.5t-24.5 5.5q-23 0 -37.5 -16t-14.5 -41z" />
    <glyph glyph-name="hungarumlaut" unicode="&#x2dd;" horiz-adv-x="429" 
d="M213 718l-108 -126l-37 6l94 134zM361 718l-108 -126l-37 6l94 134z" />
    <glyph glyph-name="uni02E1" unicode="&#x2e1;" horiz-adv-x="131" 
d="M87 511h-43v369h43v-369z" />
    <glyph glyph-name="uni02E2" unicode="&#x2e2;" horiz-adv-x="269" 
d="M69.5 515.5q-29.5 9.5 -51.5 25.5l12 30q20 -15 48.5 -24t57.5 -9q32 0 50.5 12t18.5 33q0 19 -16 29.5t-60 19.5q-56 11 -78.5 29t-22.5 49q0 36 27.5 56t78.5 20q29 0 55.5 -7.5t45.5 -20.5l-12 -29q-19 12 -42.5 18.5t-45.5 6.5q-33 0 -51 -10.5t-18 -30.5
q0 -18 16 -28.5t58 -18.5q56 -11 80.5 -29.5t24.5 -50.5q0 -37 -31 -58.5t-81 -21.5q-34 0 -63.5 9.5z" />
    <glyph glyph-name="gravecomb" unicode="&#x300;" horiz-adv-x="0" 
d="M-68 598l-37 -6l-113 126l51 14z" />
    <glyph glyph-name="acutecomb" unicode="&#x301;" horiz-adv-x="0" 
d="M-68 718l-114 -126l-36 6l98 134z" />
    <glyph glyph-name="uni0302" unicode="&#x302;" horiz-adv-x="0" 
d="M-164 724l95 -129l-41 -6l-80 109l-80 -109l-41 6l95 129h52z" />
    <glyph glyph-name="tildecomb" unicode="&#x303;" horiz-adv-x="0" 
d="M-360 618q0 38 22 61.5t55 23.5q19 0 35 -7.5t39 -21.5q21 -12 33.5 -18t25.5 -6q23 0 37.5 16t14.5 41l30 -7q0 -38 -22 -61.5t-56 -23.5q-19 0 -35 7.5t-39 21.5q-22 13 -33.5 18.5t-24.5 5.5q-23 0 -37.5 -16t-14.5 -41z" />
    <glyph glyph-name="uni0304" unicode="&#x304;" horiz-adv-x="0" 
d="M-69 645h-265v36h266z" />
    <glyph glyph-name="uni0306" unicode="&#x306;" horiz-adv-x="0" 
d="M-69 716q0 -58 -32.5 -92t-87.5 -34t-87.5 34t-32.5 92h40q0 -44 20.5 -68t59.5 -24q38 0 59 24t21 68h40z" />
    <glyph glyph-name="uni0307" unicode="&#x307;" horiz-adv-x="0" 
d="M-68 619h-56v105h56v-105z" />
    <glyph glyph-name="uni0308" unicode="&#x308;" horiz-adv-x="0" 
d="M-220 619h-41v105h41v-105zM-68 619h-42v105h42v-105z" />
    <glyph glyph-name="hookabovecomb" unicode="&#x309;" horiz-adv-x="0" 
d="M-160 592q24 20 38.5 41t14.5 47q0 17 -13 28.5t-32 11.5q-17 0 -36 -10l-2 26q29 13 54 13q30 0 48.5 -16.5t18.5 -40.5q0 -57 -63 -111z" />
    <glyph glyph-name="uni030A" unicode="&#x30a;" horiz-adv-x="0" 
d="M-253.5 615.5q-30.5 29.5 -30.5 73.5t30.5 73.5t76.5 29.5t77 -29.5t31 -73.5t-31 -73.5t-77 -29.5t-76.5 29.5zM-126.5 639q20.5 20 20.5 50t-20.5 50t-50.5 20t-50 -20t-20 -50t20 -50t50 -20t50.5 20z" />
    <glyph glyph-name="uni030B" unicode="&#x30b;" horiz-adv-x="0" 
d="M-216 718l-108 -126l-37 6l94 134zM-68 718l-108 -126l-37 6l94 134z" />
    <glyph glyph-name="uni030C" unicode="&#x30c;" horiz-adv-x="0" 
d="M-190 616l80 108l41 -5l-95 -129h-52l-95 129l41 5z" />
    <glyph glyph-name="uni0312" unicode="&#x312;" horiz-adv-x="0" 
d="M-61 727q-55 -27 -47 -77h39v-64h-76q-6 29 -6 52q0 86 77 116z" />
    <glyph glyph-name="uni031B" unicode="&#x31b;" horiz-adv-x="0" 
d="M-182 555q7 -1 21 -1q32 0 51 14t19 44q0 21 -10 48l46 3q12 -33 12 -59q0 -39 -24 -61t-64 -22q-26 0 -59 11z" />
    <glyph glyph-name="dotbelowcomb" unicode="&#x323;" horiz-adv-x="0" 
d="M-124 -157v105h56v-105h-56z" />
    <glyph glyph-name="uni0324" unicode="&#x324;" horiz-adv-x="0" 
 />
    <glyph glyph-name="uni0326" unicode="&#x326;" horiz-adv-x="0" 
d="M-132 -176q54 27 47 76h-39v64h76q6 -29 6 -52q0 -87 -77 -115z" />
    <glyph glyph-name="uni0327" unicode="&#x327;" horiz-adv-x="0" 
d="M-121 -39q35 -5 56 -23t21 -45q0 -30 -25.5 -50t-72.5 -20q-32 0 -61 9l8 32q19 -8 49 -8q28 0 42 11.5t14 29.5q0 21 -19.5 33.5t-54.5 12.5l17 61h39z" />
    <glyph glyph-name="uni0328" unicode="&#x328;" horiz-adv-x="0" 
d="M-62 0q-40 -20 -60.5 -46t-20.5 -49q0 -25 17.5 -38.5t50.5 -13.5q19 0 38 4l3 -33q-30 -6 -55 -6q-48 0 -74.5 20t-26.5 55q0 33 26 65t71 52z" />
    <glyph glyph-name="uni032E" unicode="&#x32e;" horiz-adv-x="0" 
d="M-66 -36q0 -47 -31.5 -75.5t-84.5 -28.5q-52 0 -83.5 28.5t-31.5 75.5h39q0 -36 19.5 -56t56.5 -20t57 20t20 56h39z" />
    <glyph glyph-name="uni0331" unicode="&#x331;" horiz-adv-x="0" 
d="M-34 -107h-265v36h266z" />
    <glyph glyph-name="uni0335" unicode="&#x335;" horiz-adv-x="0" 
d="M-338 311v38h305v-38h-305z" />
    <glyph glyph-name="uni0336" unicode="&#x336;" horiz-adv-x="0" 
 />
    <glyph glyph-name="uni0337" unicode="&#x337;" horiz-adv-x="0" 
d="M-236 275l-17 33l209 115l18 -33z" />
    <glyph glyph-name="uni0338" unicode="&#x338;" horiz-adv-x="0" 
d="M-572 3l-32 32l500 500l32 -33z" />
    <glyph glyph-name="tonos" unicode="&#x384;" horiz-adv-x="170" 
d="M125 734l-26 -133h-34l11 133h49z" />
    <glyph glyph-name="dieresistonos" unicode="&#x385;" horiz-adv-x="303" 
d="M201 783l-24 -134h-27l10 134h41zM101 580h-36v100h36v-100zM270 580h-36v100h36v-100z" />
    <glyph glyph-name="Alphatonos" unicode="&#x386;" horiz-adv-x="752" 
d="M729 0h-59l-82 176h-425l-82 -176h-57l325 700h54zM376 636l-190 -410h379zM134 700l-26 -133h-34l11 133h49z" />
    <glyph glyph-name="Epsilontonos" unicode="&#x388;" horiz-adv-x="683" 
d="M154 333v-283h477v-50h-531v700h521v-49h-467v-269h410v-49h-410zM20 700l-26 -133h-34l11 133h49z" />
    <glyph glyph-name="Etatonos" unicode="&#x389;" horiz-adv-x="771" 
d="M616 377v323h55v-700h-55v328h-461v-328h-55v700h55v-323h461zM20 700l-26 -133h-34l11 133h49z" />
    <glyph glyph-name="Iotatonos" unicode="&#x38a;" horiz-adv-x="255" 
d="M155 0h-55v700h55v-700zM20 700l-26 -133h-34l11 133h49z" />
    <glyph glyph-name="Omicrontonos" unicode="&#x38c;" horiz-adv-x="855" 
d="M243 37q-82 46 -128 128t-46 185t46.5 184.5t128 128t184.5 46.5t184.5 -46t128 -128t46.5 -185t-46.5 -184.5t-128.5 -128t-185 -46.5q-102 0 -184 46zM583.5 81q68.5 39 107 109.5t38.5 159.5t-38.5 159.5t-107 110t-155.5 39.5t-156 -39.5t-107.5 -110t-38.5 -159.5
t38.5 -159.5t107.5 -109.5t156 -39t155.5 39zM20 700l-26 -133h-34l11 133h49z" />
    <glyph glyph-name="Upsilontonos" unicode="&#x38e;" horiz-adv-x="665" 
d="M585 700h61l-286 -436v-264h-56v267l-285 433h61l253 -388zM-53 700l-26 -133h-34l11 133h49z" />
    <glyph glyph-name="Omegatonos" unicode="&#x38f;" horiz-adv-x="770" 
d="M679 266q-23 -59 -56.5 -99.5t-88.5 -94.5l-34 -33l170 5v-44h-220v38q30 37 62 71q45 49 71.5 85t44.5 86.5t18 116.5q0 77 -33 135.5t-92.5 90.5t-135.5 32t-135.5 -32t-92.5 -90.5t-33 -135.5q0 -66 18 -116.5t44.5 -86.5t71.5 -85q32 -34 62 -71v-38h-219v44l170 -5
l-34 34q-56 54 -89 94.5t-56 99t-23 135.5q0 85 38.5 153.5t110.5 108t168 39.5q95 0 166.5 -39.5t110.5 -108t39 -153.5q0 -77 -23 -136zM31 700l-26 -133h-34l11 133h49z" />
    <glyph glyph-name="iotadieresistonos" unicode="&#x390;" horiz-adv-x="285" 
d="M225 -9q-70 0 -109 37.5t-39 129.5v380h53v-372q0 -73 27 -102t76 -29h33v-44h-41zM131 783l-24 -134h-27l10 134h41zM31 580h-36v100h36v-100zM200 580h-36v100h36v-100z" />
    <glyph glyph-name="Alpha" unicode="&#x391;" horiz-adv-x="752" 
d="M729 0h-59l-82 176h-425l-82 -176h-57l325 700h54zM376 636l-190 -410h379z" />
    <glyph glyph-name="Beta" unicode="&#x392;" horiz-adv-x="740" 
d="M634 298.5q44 -47.5 44 -116.5q0 -84 -65.5 -133t-177.5 -49h-335v700h320q104 0 164 -47t60 -128q0 -62 -34.5 -106.5t-96.5 -60.5q77 -12 121 -59.5zM155 650v-271h264q82 0 126.5 36t44.5 100q0 65 -47.5 100t-135.5 35h-252zM425 50q96 0 147.5 36.5t51.5 102.5
q0 67 -51.5 104t-143.5 37h-274v-280h270z" />
    <glyph glyph-name="Gamma" unicode="&#x393;" horiz-adv-x="604" 
d="M100 0v700h479v-49h-425v-651h-54z" />
    <glyph glyph-name="uni0394" unicode="&#x394;" horiz-adv-x="732" 
d="M339 700h54l316 -700h-685zM366 638l-264 -590h528z" />
    <glyph glyph-name="Epsilon" unicode="&#x395;" horiz-adv-x="683" 
d="M154 333v-283h477v-50h-531v700h521v-49h-467v-269h410v-49h-410z" />
    <glyph glyph-name="Zeta" unicode="&#x396;" horiz-adv-x="693" 
d="M628 0h-567v35l486 616h-475v49h552v-35l-486 -615h490v-50z" />
    <glyph glyph-name="Eta" unicode="&#x397;" horiz-adv-x="771" 
d="M616 377v323h55v-700h-55v328h-461v-328h-55v700h55v-323h461z" />
    <glyph glyph-name="Theta" unicode="&#x398;" horiz-adv-x="855" 
d="M243 37q-82 46 -128 128t-46 185t46.5 184.5t128 128t184.5 46.5t184.5 -46t128 -128t46.5 -185t-46.5 -184.5t-128.5 -128t-185 -46.5q-102 0 -184 46zM583.5 81q68.5 39 107 109.5t38.5 159.5t-38.5 159.5t-107 110t-155.5 39.5t-156 -39.5t-107.5 -110t-38.5 -159.5
t38.5 -159.5t107.5 -109.5t156 -39t155.5 39zM185 333v38h497v-38h-497z" />
    <glyph glyph-name="Iota" unicode="&#x399;" horiz-adv-x="255" 
d="M155 0h-55v700h55v-700z" />
    <glyph glyph-name="Kappa" unicode="&#x39a;" horiz-adv-x="707" 
d="M676 0h-65l-265 365l-191 -205v-160h-55v700h55v-470l433 470h70l-274 -294z" />
    <glyph glyph-name="Lambda" unicode="&#x39b;" horiz-adv-x="734" 
d="M24 0l317 700h53l317 -700h-58l-285 633h-1l-285 -633h-58z" />
    <glyph glyph-name="Mu" unicode="&#x39c;" horiz-adv-x="892" 
d="M447 207l296 493h49v-700h-54v598l-281 -460h-21l-281 461v-599h-55v700h50z" />
    <glyph glyph-name="Nu" unicode="&#x39d;" horiz-adv-x="783" 
d="M155 0h-55v700h47l481 -604v604h55v-700h-46l-482 606v-606z" />
    <glyph glyph-name="Xi" unicode="&#x39e;" horiz-adv-x="542" 
d="M489 654h-444v46h444v-46zM440 333h-353v45h353v-45zM489 0h-444v47h444v-47z" />
    <glyph glyph-name="Omicron" unicode="&#x39f;" horiz-adv-x="855" 
d="M243 37q-82 46 -128 128t-46 185t46.5 184.5t128 128t184.5 46.5t184.5 -46t128 -128t46.5 -185t-46.5 -184.5t-128.5 -128t-185 -46.5q-102 0 -184 46zM583.5 81q68.5 39 107 109.5t38.5 159.5t-38.5 159.5t-107 110t-155.5 39.5t-156 -39.5t-107.5 -110t-38.5 -159.5
t38.5 -159.5t107.5 -109.5t156 -39t155.5 39z" />
    <glyph glyph-name="Pi" unicode="&#x3a0;" horiz-adv-x="759" 
d="M659 700v-700h-54v654h-451v-654h-54v700h559z" />
    <glyph glyph-name="Rho" unicode="&#x3a1;" horiz-adv-x="673" 
d="M559.5 639.5q74.5 -60.5 74.5 -167.5q0 -108 -75.5 -169t-207.5 -61h-196v-242h-55v700h253q132 0 206.5 -60.5zM351 292q109 0 169 47t60 134q0 85 -60 131.5t-168 46.5h-197v-359h196z" />
    <glyph glyph-name="Sigma" unicode="&#x3a3;" horiz-adv-x="615" 
d="M563 0h-510v40l260 317l-261 303v40h509v-46h-441l250 -297l-250 -310h443v-47z" />
    <glyph glyph-name="Tau" unicode="&#x3a4;" horiz-adv-x="608" 
d="M29 700h551v-49h-249v-651h-55v651h-247v49z" />
    <glyph glyph-name="Upsilon" unicode="&#x3a5;" horiz-adv-x="665" 
d="M585 700h61l-286 -436v-264h-56v267l-285 433h61l253 -388z" />
    <glyph glyph-name="Phi" unicode="&#x3a6;" horiz-adv-x="875" 
d="M764.5 206q-42.5 -62 -120 -96.5t-180.5 -35.5v-77h-53v77q-103 1 -180.5 35.5t-119.5 96.5t-42 144t42 144t119.5 96.5t180.5 35.5v77h53v-77q104 -1 181.5 -35.5t119.5 -96.5t42 -144t-42.5 -144zM202.5 182q76.5 -62 208.5 -64v464q-132 -2 -208.5 -64t-76.5 -168
t76.5 -168zM464 118q87 1 151.5 29.5t99.5 80.5t35 122q0 105 -76.5 167t-209.5 65v-464z" />
    <glyph glyph-name="Chi" unicode="&#x3a7;" horiz-adv-x="680" 
d="M375 357l274 -357h-64l-244 317l-245 -317h-65l276 359l-263 341h66l231 -301l231 301h65z" />
    <glyph glyph-name="Psi" unicode="&#x3a8;" horiz-adv-x="757" 
d="M624 700h55v-229q0 -132 -67.5 -203.5t-206.5 -73.5v-194h-53v194q-139 3 -206 75t-67 204v227h55v-238q0 -224 218 -227v465h53v-465q111 1 165 59t54 167v239z" />
    <glyph glyph-name="uni03A9" unicode="&#x3a9;" horiz-adv-x="770" 
d="M679 266q-23 -59 -56.5 -99.5t-88.5 -94.5l-34 -33l170 5v-44h-220v38q30 37 62 71q45 49 71.5 85t44.5 86.5t18 116.5q0 77 -33 135.5t-92.5 90.5t-135.5 32t-135.5 -32t-92.5 -90.5t-33 -135.5q0 -66 18 -116.5t44.5 -86.5t71.5 -85q32 -34 62 -71v-38h-219v44l170 -5
l-34 34q-56 54 -89 94.5t-56 99t-23 135.5q0 85 38.5 153.5t110.5 108t168 39.5q95 0 166.5 -39.5t110.5 -108t39 -153.5q0 -77 -23 -136z" />
    <glyph glyph-name="Iotadieresis" unicode="&#x3aa;" horiz-adv-x="255" 
d="M155 0h-55v700h55v-700zM71 781h-41v105h41v-105zM223 781h-42v105h42v-105z" />
    <glyph glyph-name="Upsilondieresis" unicode="&#x3ab;" horiz-adv-x="665" 
d="M585 700h61l-286 -436v-264h-56v267l-285 433h61l253 -388zM273 781h-41v105h41v-105zM425 781h-42v105h42v-105z" />
    <glyph glyph-name="alphatonos" unicode="&#x3ac;" horiz-adv-x="691" 
d="M604 538l-10 -269l10 -269h-54l-3 157q-29 -78 -91.5 -122t-143.5 -44q-73 0 -132 36t-92 99t-33 142q0 80 33 143.5t91.5 99.5t131.5 36q81 0 144 -43.5t92 -119.5l3 154h54zM437.5 66q50.5 30 79 83t28.5 120t-28.5 120t-79 83t-114.5 30q-62 0 -111 -30t-76.5 -83
t-27.5 -120t27.5 -120t76.5 -83t111 -30q64 0 114.5 30zM380 734l-26 -133h-34l11 133h49z" />
    <glyph glyph-name="epsilontonos" unicode="&#x3ad;" horiz-adv-x="526" 
d="M158.5 9.5q-47.5 19.5 -75.5 55.5t-28 84t28.5 79.5t77.5 45.5q-46 13 -71 43t-25 77q0 73 56.5 113t151.5 40q62 0 111.5 -17t93.5 -48l-19 -38q-44 28 -87.5 42.5t-93.5 14.5q-75 0 -117 -29t-42 -82q0 -49 36 -73t104 -24h107v-38h-107q-68 0 -108.5 -26.5
t-40.5 -74.5q0 -52 44 -83t116 -31q109 0 200 67l20 -42q-39 -32 -98 -53.5t-129 -21.5q-57 0 -104.5 19.5zM290 734l-26 -133h-34l11 133h49z" />
    <glyph glyph-name="etatonos" unicode="&#x3ae;" horiz-adv-x="645" 
d="M568 0h-1v-171h-52v479q0 88 -46 138.5t-126 50.5q-55 0 -101.5 -27.5t-74 -76t-27.5 -109.5v-284h-53v538h53v-113q30 54 86.5 88t127.5 34q64 0 112.5 -28.5t75 -81t26.5 -123.5v-314zM351 734l-26 -133h-34l11 133h49z" />
    <glyph glyph-name="iotatonos" unicode="&#x3af;" horiz-adv-x="285" 
d="M225 -9q-70 0 -109 37.5t-39 129.5v380h53v-372q0 -73 27 -102t76 -29h33v-44h-41zM125 734l-26 -133h-34l11 133h49z" />
    <glyph glyph-name="upsilondieresistonos" unicode="&#x3b0;" horiz-adv-x="558" 
d="M57 538h53v-305q0 -95 40.5 -147t126.5 -52q91 0 128.5 50.5t37.5 148.5v305h53v-313q0 -114 -54 -174t-165 -60q-104 0 -162 61.5t-58 172.5v313zM313 783l-24 -134h-27l10 134h41zM213 580h-36v100h36v-100zM382 580h-36v100h36v-100z" />
    <glyph glyph-name="alpha" unicode="&#x3b1;" horiz-adv-x="691" 
d="M604 538l-10 -269l10 -269h-54l-3 157q-29 -78 -91.5 -122t-143.5 -44q-73 0 -132 36t-92 99t-33 142q0 80 33 143.5t91.5 99.5t131.5 36q81 0 144 -43.5t92 -119.5l3 154h54zM437.5 66q50.5 30 79 83t28.5 120t-28.5 120t-79 83t-114.5 30q-62 0 -111 -30t-76.5 -83
t-27.5 -120t27.5 -120t76.5 -83t111 -30q64 0 114.5 30z" />
    <glyph glyph-name="beta" unicode="&#x3b2;" horiz-adv-x="580" 
d="M93 556q0 72 46.5 112.5t127.5 40.5q45 0 86 -21t66.5 -60.5t25.5 -93.5q0 -43 -23 -80t-63 -57q46 -6 84 -34t60 -70t22 -89q0 -97 -58.5 -155t-165.5 -58q-83 0 -155 45v-207h-53v727zM146 82q33 -21 71.5 -33.5t74.5 -12.5q86 0 132.5 46t46.5 125q0 44 -22 82
t-60.5 61t-84.5 23h-79v39h44q52 0 87.5 34t35.5 83q0 39 -18 69.5t-47 47.5t-61 17q-50 0 -85 -26.5t-35 -80.5v-474z" />
    <glyph glyph-name="gamma" unicode="&#x3b3;" horiz-adv-x="558" 
d="M486 538h57l-239 -531v-178h-54v176l-235 533h56l206 -474z" />
    <glyph glyph-name="delta" unicode="&#x3b4;" horiz-adv-x="591" 
d="M183 698q136 -94 244.5 -219t108.5 -245q0 -69 -30.5 -124.5t-85.5 -87t-125 -31.5q-69 0 -124 31.5t-85.5 87t-30.5 124.5q0 95 63 166t191 138q-72 71 -189 157v43h366v-40h-303zM392.5 62q42.5 26 66.5 71t24 101q0 125 -148 278q-123 -67 -175 -130.5t-52 -147.5
q0 -56 24 -101t66.5 -71t96.5 -26q55 0 97.5 26z" />
    <glyph glyph-name="epsilon" unicode="&#x3b5;" horiz-adv-x="526" 
d="M158.5 9.5q-47.5 19.5 -75.5 55.5t-28 84t28.5 79.5t77.5 45.5q-46 13 -71 43t-25 77q0 73 56.5 113t151.5 40q62 0 111.5 -17t93.5 -48l-19 -38q-44 28 -87.5 42.5t-93.5 14.5q-75 0 -117 -29t-42 -82q0 -49 36 -73t104 -24h107v-38h-107q-68 0 -108.5 -26.5
t-40.5 -74.5q0 -52 44 -83t116 -31q109 0 200 67l20 -42q-39 -32 -98 -53.5t-129 -21.5q-57 0 -104.5 19.5z" />
    <glyph glyph-name="zeta" unicode="&#x3b6;" horiz-adv-x="437" 
d="M311 61q70 -26 102 -51.5t32 -71.5q0 -45 -46 -109h-49q25 33 37 55t12 43q0 33 -26 53t-88 42l-97 33q-65 23 -105.5 60t-40.5 104q0 82 53 172t129 168t152 136h-289v43h344l-3 -42l3 -2q-75 -56 -152 -135.5t-130 -169t-53 -167.5q0 -51 34.5 -80.5t86.5 -47.5z" />
    <glyph glyph-name="eta" unicode="&#x3b7;" horiz-adv-x="645" 
d="M568 0h-1v-171h-52v479q0 88 -46 138.5t-126 50.5q-55 0 -101.5 -27.5t-74 -76t-27.5 -109.5v-284h-53v538h53v-113q30 54 86.5 88t127.5 34q64 0 112.5 -28.5t75 -81t26.5 -123.5v-314z" />
    <glyph glyph-name="theta" unicode="&#x3b8;" horiz-adv-x="641" 
d="M462 691q60 -49 92 -134t32 -192q0 -105 -31.5 -190.5t-91.5 -135t-142 -49.5q-81 0 -141.5 49t-92.5 134.5t-32 192.5q0 104 31.5 189.5t92 135t142.5 49.5q81 0 141 -49zM207 651.5q-48 -41.5 -73.5 -112t-28.5 -156.5h431q-3 89 -30 159.5t-74.5 110.5t-111.5 40
q-65 0 -113 -41.5zM433.5 78.5q47.5 41.5 73.5 112t29 156.5h-431q3 -89 30.5 -159.5t75 -110.5t110.5 -40q65 0 112.5 41.5z" />
    <glyph glyph-name="iota" unicode="&#x3b9;" horiz-adv-x="285" 
d="M225 -9q-70 0 -109 37.5t-39 129.5v380h53v-372q0 -73 27 -102t76 -29h33v-44h-41z" />
    <glyph glyph-name="kappa" unicode="&#x3ba;" horiz-adv-x="563" 
d="M532 0h-60l-204 244h-128v-244h-53v538h53v-246h128l188 246h61l-211 -267z" />
    <glyph glyph-name="lambda" unicode="&#x3bb;" horiz-adv-x="541" 
d="M15 0l233 519l-44 101q-20 48 -37.5 64t-48.5 16v38q37 2 58 -6t35 -27.5t31 -59.5l284 -645h-57l-196 447l-202 -447h-56z" />
    <glyph glyph-name="uni03BC" unicode="&#x3bc;" horiz-adv-x="645" 
d="M505 538h53v-538h-53v114q-30 -54 -86 -88.5t-128 -34.5q-51 0 -92 18t-69 52l1 -232h-53v709h52v-308q0 -88 46 -138.5t126 -50.5q55 0 101.5 27.5t74 76t27.5 109.5v284z" />
    <glyph glyph-name="nu" unicode="&#x3bd;" horiz-adv-x="563" 
d="M310 0h-56l-239 538h58l208 -476h1l208 476h58z" />
    <glyph glyph-name="xi" unicode="&#x3be;" horiz-adv-x="470" 
d="M357 -172q24 31 36.5 53t12.5 44t-9 35t-33 25.5t-75 31.5l-96 36q-56 20 -97 61t-41 111q0 72 43 124t117 65q-56 15 -90.5 57.5t-34.5 104.5q0 43 24 82.5t67.5 64t100.5 24.5q62 0 104 -13t84 -43l-19 -31q-41 27 -76.5 38t-87.5 11q-42 0 -75.5 -19t-52 -50
t-18.5 -66q0 -68 45.5 -105t114.5 -37h64v-40h-86q-48 0 -86.5 -20.5t-60.5 -57t-22 -83.5q0 -57 33 -91t75 -48l100 -36q70 -25 102 -50.5t32 -71.5q0 -26 -11.5 -50t-34.5 -56h-49z" />
    <glyph glyph-name="omicron" unicode="&#x3bf;" 
d="M190.5 27q-63.5 36 -99.5 99.5t-36 142.5t36 142.5t99.5 99.5t142.5 36q80 0 144 -36t100 -99t36 -142q0 -80 -36 -143.5t-100 -99.5t-144 -36q-79 0 -142.5 36zM450.5 69.5q51.5 29.5 80.5 81.5t29 118q0 67 -29 119t-81 81t-117 29q-64 0 -115.5 -29t-80.5 -81.5
t-29 -118.5t29.5 -118t81 -81.5t115.5 -29.5q65 0 116.5 29.5z" />
    <glyph glyph-name="pi" unicode="&#x3c0;" horiz-adv-x="643" 
d="M556 538v-538h-54v495h-362v-495h-53v538h469z" />
    <glyph glyph-name="rho" unicode="&#x3c1;" horiz-adv-x="700" 
d="M87 269q0 79 36 142.5t99.5 99.5t142.5 36q80 0 144 -36t100 -99t36 -142t-36 -143t-100 -100t-144 -36q-82 0 -144 43.5t-85 116.5l4 -322h-53v440zM169.5 150q29.5 -53 81 -83t115.5 -30t115.5 30t81 83t29.5 119q0 67 -29.5 120t-81 83t-116.5 30q-64 0 -115.5 -30
t-80.5 -83t-29 -120q0 -66 29.5 -119z" />
    <glyph glyph-name="uni03C2" unicode="&#x3c2;" horiz-adv-x="556" 
d="M393 -171q24 32 36 54.5t12 43.5q0 33 -25 52t-88 43l-75 28q-198 75 -198 244q0 71 33.5 129t93.5 91t135 33q121 0 202 -84l-34 -30q-69 70 -167 70q-60 0 -107.5 -26.5t-74.5 -74t-27 -106.5q0 -140 172 -207l72 -28q49 -19 76 -33.5t43 -36t16 -53.5q0 -45 -46 -109
h-49z" />
    <glyph glyph-name="sigma" unicode="&#x3c3;" horiz-adv-x="671" 
d="M664 495l-168 5q55 -37 86 -97t31 -133q0 -80 -36 -143.5t-100 -99.5t-144 -36q-79 0 -142.5 36t-99.5 99.5t-36 142.5t35.5 142t98.5 99.5t142 36.5h333v-52zM531 388q-29 52 -81 81t-117 29q-64 0 -115.5 -29t-80.5 -81.5t-29 -118.5t29.5 -118t81 -81.5t115.5 -29.5
q65 0 116.5 29.5t80.5 81.5t29 118q0 67 -29 119z" />
    <glyph glyph-name="tau" unicode="&#x3c4;" horiz-adv-x="442" 
d="M401 494h-171v-328q0 -73 27 -102t76 -29h33v-44h-41q-71 0 -109.5 37.5t-38.5 129.5v336h-137v44h361v-44z" />
    <glyph glyph-name="upsilon" unicode="&#x3c5;" horiz-adv-x="558" 
d="M57 538h53v-305q0 -95 40.5 -147t126.5 -52q91 0 128.5 50.5t37.5 148.5v305h53v-313q0 -114 -54 -174t-165 -60q-104 0 -162 61.5t-58 172.5v313z" />
    <glyph glyph-name="phi" unicode="&#x3c6;" horiz-adv-x="753" 
d="M660.5 131.5q-37.5 -60.5 -105 -95.5t-152.5 -36v-170h-53v170q-85 1 -152.5 36t-105 95.5t-37.5 137.5t37.5 137.5t105 95.5t152.5 36v162h53v-162q85 -1 152.5 -36t105 -95.5t37.5 -137.5t-37.5 -137.5zM138.5 153.5q30.5 -50.5 85.5 -79.5t126 -30v451
q-71 -1 -126 -30.5t-85.5 -80t-30.5 -115.5t30.5 -115.5zM403 44q71 1 126 29.5t85.5 79.5t30.5 116t-30.5 115.5t-85.5 80t-126 30.5v-451z" />
    <glyph glyph-name="chi" unicode="&#x3c7;" horiz-adv-x="566" 
d="M315 191l221 -362h-60l-193 316l-193 -316h-59l221 362l-211 347h61l181 -302l182 302h61z" />
    <glyph glyph-name="psi" unicode="&#x3c8;" horiz-adv-x="737" 
d="M598 538h52v-282q0 -115 -69 -178.5t-192 -66.5v-182h-50v182q-117 5 -189.5 69t-72.5 176v282h51v-283q0 -88 57 -141t154 -58v482h50v-482q101 4 155 56.5t54 142.5v283z" />
    <glyph glyph-name="omega" unicode="&#x3c9;" horiz-adv-x="865" 
d="M79 386.5q24 72.5 73 151.5h55q-99 -155 -99 -290q0 -99 38 -155.5t112 -56.5q79 0 115 51t36 146v127h47v-127q0 -102 35 -149.5t116 -47.5q73 0 111.5 57.5t38.5 154.5q0 70 -25 140t-74 150h54q49 -82 73 -153t24 -144q0 -75 -24 -131.5t-68 -87.5t-103 -31
q-81 0 -124.5 38t-57.5 117q-31 -155 -180 -155q-91 0 -144 67t-53 183q0 73 24 145.5z" />
    <glyph glyph-name="iotadieresis" unicode="&#x3ca;" horiz-adv-x="285" 
d="M225 -9q-70 0 -109 37.5t-39 129.5v380h53v-372q0 -73 27 -102t76 -29h33v-44h-41zM41 619h-41v105h41v-105zM193 619h-42v105h42v-105z" />
    <glyph glyph-name="upsilondieresis" unicode="&#x3cb;" horiz-adv-x="558" 
d="M57 538h53v-305q0 -95 40.5 -147t126.5 -52q91 0 128.5 50.5t37.5 148.5v305h53v-313q0 -114 -54 -174t-165 -60q-104 0 -162 61.5t-58 172.5v313zM223 619h-41v105h41v-105zM375 619h-42v105h42v-105z" />
    <glyph glyph-name="omicrontonos" unicode="&#x3cc;" 
d="M190.5 27q-63.5 36 -99.5 99.5t-36 142.5t36 142.5t99.5 99.5t142.5 36q80 0 144 -36t100 -99t36 -142q0 -80 -36 -143.5t-100 -99.5t-144 -36q-79 0 -142.5 36zM450.5 69.5q51.5 29.5 80.5 81.5t29 118q0 67 -29 119t-81 81t-117 29q-64 0 -115.5 -29t-80.5 -81.5
t-29 -118.5t29.5 -118t81 -81.5t115.5 -29.5q65 0 116.5 29.5zM360 734l-26 -133h-34l11 133h49z" />
    <glyph glyph-name="upsilontonos" unicode="&#x3cd;" horiz-adv-x="558" 
d="M57 538h53v-305q0 -95 40.5 -147t126.5 -52q91 0 128.5 50.5t37.5 148.5v305h53v-313q0 -114 -54 -174t-165 -60q-104 0 -162 61.5t-58 172.5v313zM307 734l-26 -133h-34l11 133h49z" />
    <glyph glyph-name="omegatonos" unicode="&#x3ce;" horiz-adv-x="865" 
d="M79 386.5q24 72.5 73 151.5h55q-99 -155 -99 -290q0 -99 38 -155.5t112 -56.5q79 0 115 51t36 146v127h47v-127q0 -102 35 -149.5t116 -47.5q73 0 111.5 57.5t38.5 154.5q0 70 -25 140t-74 150h54q49 -82 73 -153t24 -144q0 -75 -24 -131.5t-68 -87.5t-103 -31
q-81 0 -124.5 38t-57.5 117q-31 -155 -180 -155q-91 0 -144 67t-53 183q0 73 24 145.5zM460 734l-26 -133h-34l11 133h49z" />
    <glyph glyph-name="uni0400" unicode="&#x400;" horiz-adv-x="683" 
d="M154 333v-283h477v-50h-531v700h521v-49h-467v-269h410v-49h-410zM365 760l-37 -6l-113 126l51 14z" />
    <glyph glyph-name="uni0401" unicode="&#x401;" horiz-adv-x="683" 
d="M154 333v-283h477v-50h-531v700h521v-49h-467v-269h410v-49h-410zM290 781h-41v105h41v-105zM442 781h-42v105h42v-105z" />
    <glyph glyph-name="uni0402" unicode="&#x402;" horiz-adv-x="764" 
d="M638 381.5q58 -65.5 58 -183.5v-37q0 -85 -47 -125t-114 -40q-43 0 -81 22l15 33q27 -17 58 -17q45 0 80.5 29.5t35.5 95.5v36q0 98 -47 152.5t-129 54.5q-90 0 -184 -36v-366h-55v654h-199v46h551v-46h-297v-244q47 16 94.5 26.5t104.5 10.5q98 0 156 -65.5z" />
    <glyph glyph-name="uni0403" unicode="&#x403;" horiz-adv-x="604" 
d="M100 0v700h479v-49h-425v-651h-54zM432 880l-114 -126l-36 6l98 134z" />
    <glyph glyph-name="uni0404" unicode="&#x404;" horiz-adv-x="720" 
d="M687 99q-49 -51 -115.5 -79.5t-145.5 -28.5q-100 0 -182 47.5t-128.5 129.5t-46.5 182t46.5 182t128 129.5t182.5 47.5q154 0 259 -103l-35 -36q-44 43 -98 66t-126 23q-80 0 -146 -36.5t-107 -100.5t-47 -143h394v-42h-395q3 -84 44 -151.5t108.5 -106t148.5 -38.5
q68 0 125 24.5t101 68.5z" />
    <glyph glyph-name="uni0405" unicode="&#x405;" horiz-adv-x="630" 
d="M173.5 19.5q-71.5 28.5 -121.5 76.5l27 42q50 -46 114 -71t133 -25q89 0 139.5 38.5t50.5 98.5q0 43 -21.5 69.5t-64 43.5t-115.5 33q-126 28 -184 72t-58 125q0 57 32 99.5t87.5 65t124.5 22.5q63 0 122 -20t108 -57l-29 -40q-43 31 -96.5 49t-108.5 18
q-83 0 -132.5 -38t-49.5 -100q0 -40 21 -67t63.5 -45t115.5 -35q87 -19 138.5 -42t77.5 -59t26 -92q0 -57 -32 -100t-88.5 -66.5t-130.5 -23.5q-77 0 -148.5 28.5z" />
    <glyph glyph-name="uni0406" unicode="&#x406;" horiz-adv-x="255" 
d="M155 0h-55v700h55v-700z" />
    <glyph glyph-name="uni0407" unicode="&#x407;" horiz-adv-x="255" 
d="M155 0h-55v700h55v-700zM71 781h-41v105h41v-105zM223 781h-42v105h42v-105z" />
    <glyph glyph-name="uni0408" unicode="&#x408;" horiz-adv-x="558" 
d="M116 25q-60 34 -93 92l37 32q29 -49 78.5 -78t107.5 -29q83 0 131.5 54t48.5 146v409h-262v49h315v-457q0 -76 -28.5 -133t-80.5 -88t-122 -31q-72 0 -132 34z" />
    <glyph glyph-name="uni0409" unicode="&#x409;" horiz-adv-x="1141" 
d="M807 458q132 0 207.5 -61t75.5 -169q0 -107 -74.5 -167.5t-206.5 -60.5h-216v654h-362l-8 -333q-4 -182 -54 -252t-136 -69v45q63 1 97 61.5t38 214.5l9 379h471v-242h159zM809 45q107 0 167 48t60 134q0 88 -60 137t-168 49h-160v-368h161z" />
    <glyph glyph-name="uni040A" unicode="&#x40a;" horiz-adv-x="1101" 
d="M770 424q130 0 205 -56t75 -155q0 -64 -33.5 -112t-96.5 -74.5t-148 -26.5h-205l2 2v373h-414v-375h-55v700h55v-278h414v278h55v-276h146zM771 42q106 0 165.5 45.5t59.5 121.5q0 79 -59 124.5t-166 45.5h-147v-337h147z" />
    <glyph glyph-name="uni040B" unicode="&#x40b;" horiz-adv-x="773" 
d="M637.5 384q58.5 -63 58.5 -172v-212h-53v201q0 92 -48.5 146t-129.5 54q-91 0 -182 -36v-365h-55v654h-199v46h551v-46h-297v-244q47 16 94.5 26.5t104.5 10.5q97 0 155.5 -63z" />
    <glyph glyph-name="uni040C" unicode="&#x40c;" horiz-adv-x="716" 
d="M486 880l-114 -126l-36 6l98 134zM629 0h-62l-258 325h-154v-325h-55v700h55v-324h153l238 324h64l-259 -346z" />
    <glyph glyph-name="uni040D" unicode="&#x40d;" horiz-adv-x="783" 
d="M683 700v-700h-55v606l-482 -606h-46v700h55v-604l481 604h47zM410 760l-37 -6l-113 126l51 14z" />
    <glyph glyph-name="uni040E" unicode="&#x40e;" horiz-adv-x="569" 
d="M491 699h55l-236 -524l-23 -55q-29 -65 -65 -93.5t-92 -28.5q-24 0 -52 7.5t-42 17.5l18 38q12 -8 33.5 -12.5t39.5 -4.5q39 0 64.5 21t46.5 68l20 45l-234 521h54l206 -466h1zM404 877q0 -58 -32.5 -92t-87.5 -34t-87.5 34t-32.5 92h40q0 -44 20.5 -68t59.5 -24
q38 0 59 24t21 68h40z" />
    <glyph glyph-name="uni040F" unicode="&#x40f;" horiz-adv-x="759" 
d="M605 47v653h54v-700h-254v-123h-55v123h-250v700h54v-653h451z" />
    <glyph glyph-name="uni0410" unicode="&#x410;" horiz-adv-x="752" 
d="M729 0h-59l-82 176h-425l-82 -176h-57l325 700h54zM376 636l-190 -410h379z" />
    <glyph glyph-name="uni0411" unicode="&#x411;" horiz-adv-x="722" 
d="M415 410q79 0 134.5 -27.5t83 -73.5t27.5 -102q0 -65 -31 -111.5t-85.5 -71t-124.5 -24.5h-319v700h462v-48h-407v-242h260zM406 48q90 0 145 41t55 122q0 70 -53.5 111t-138.5 41h-259v-315h251z" />
    <glyph glyph-name="uni0412" unicode="&#x412;" horiz-adv-x="740" 
d="M634 298.5q44 -47.5 44 -116.5q0 -84 -65.5 -133t-177.5 -49h-335v700h320q104 0 164 -47t60 -128q0 -62 -34.5 -106.5t-96.5 -60.5q77 -12 121 -59.5zM155 650v-271h264q82 0 126.5 36t44.5 100q0 65 -47.5 100t-135.5 35h-252zM425 50q96 0 147.5 36.5t51.5 102.5
q0 67 -51.5 104t-143.5 37h-274v-280h270z" />
    <glyph glyph-name="uni0413" unicode="&#x413;" horiz-adv-x="604" 
d="M100 0v700h479v-49h-425v-651h-54z" />
    <glyph glyph-name="uni0414" unicode="&#x414;" horiz-adv-x="757" 
d="M728 -118h-55v118h-589v-118h-55v165h46q28 0 44.5 13t29.5 70.5t17 181.5l12 388h437v-653h113v-165zM560 47v607h-329l-11 -348q-5 -194 -47 -259h387z" />
    <glyph glyph-name="uni0415" unicode="&#x415;" horiz-adv-x="683" 
d="M154 333v-283h477v-50h-531v700h521v-49h-467v-269h410v-49h-410z" />
    <glyph glyph-name="uni0416" unicode="&#x416;" horiz-adv-x="968" 
d="M937 0h-63l-258 325h-106v-325h-54v325h-106l-257 -325h-62l277 354l-258 346h65l235 -324h106v324h54v-324h106l237 324h64l-259 -346z" />
    <glyph glyph-name="uni0417" unicode="&#x417;" horiz-adv-x="630" 
d="M460 389.5q50 -25.5 78 -71t28 -104.5q0 -65 -32.5 -115.5t-89.5 -79t-127 -28.5q-74 0 -140.5 29t-110.5 77l27 33q40 -41 101 -67.5t120 -26.5q57 0 102 23t70.5 63.5t25.5 91.5q0 46 -22 82.5t-61.5 57.5t-89.5 21q-26 1 -62 -1.5t-61 -6.5l-1 30l247 258h-357v45h426
l5 -36l-253 -254q37 5 63 5q64 0 114 -25.5z" />
    <glyph glyph-name="uni0418" unicode="&#x418;" horiz-adv-x="783" 
d="M683 700v-700h-55v606l-482 -606h-46v700h55v-604l481 604h47z" />
    <glyph glyph-name="uni0419" unicode="&#x419;" horiz-adv-x="783" 
d="M683 700v-700h-55v606l-482 -606h-46v700h55v-604l481 604h47zM512 878q0 -58 -32.5 -92t-87.5 -34t-87.5 34t-32.5 92h40q0 -44 20.5 -68t59.5 -24q38 0 59 24t21 68h40z" />
    <glyph glyph-name="uni041A" unicode="&#x41a;" horiz-adv-x="660" 
d="M629 0h-62l-258 325h-154v-325h-55v700h55v-324h153l238 324h64l-259 -346z" />
    <glyph glyph-name="uni041B" unicode="&#x41b;" horiz-adv-x="776" 
d="M676 0h-55v654h-390l-8 -333q-4 -182 -54 -252t-136 -69v45q63 1 97 61.5t38 214.5l9 379h499v-700z" />
    <glyph glyph-name="uni041C" unicode="&#x41c;" horiz-adv-x="892" 
d="M447 207l296 493h49v-700h-54v598l-281 -460h-21l-281 461v-599h-55v700h50z" />
    <glyph glyph-name="uni041D" unicode="&#x41d;" horiz-adv-x="771" 
d="M616 377v323h55v-700h-55v328h-461v-328h-55v700h55v-323h461z" />
    <glyph glyph-name="uni041E" unicode="&#x41e;" horiz-adv-x="855" 
d="M243 37q-82 46 -128 128t-46 185t46.5 184.5t128 128t184.5 46.5t184.5 -46t128 -128t46.5 -185t-46.5 -184.5t-128.5 -128t-185 -46.5q-102 0 -184 46zM583.5 81q68.5 39 107 109.5t38.5 159.5t-38.5 159.5t-107 110t-155.5 39.5t-156 -39.5t-107.5 -110t-38.5 -159.5
t38.5 -159.5t107.5 -109.5t156 -39t155.5 39z" />
    <glyph glyph-name="uni041F" unicode="&#x41f;" horiz-adv-x="759" 
d="M659 700v-700h-54v654h-451v-654h-54v700h559z" />
    <glyph glyph-name="uni0420" unicode="&#x420;" horiz-adv-x="673" 
d="M559.5 639.5q74.5 -60.5 74.5 -167.5q0 -108 -75.5 -169t-207.5 -61h-196v-242h-55v700h253q132 0 206.5 -60.5zM351 292q109 0 169 47t60 134q0 85 -60 131.5t-168 46.5h-197v-359h196z" />
    <glyph glyph-name="uni0421" unicode="&#x421;" horiz-adv-x="720" 
d="M244 38.5q-82 47.5 -128.5 129.5t-46.5 182t46.5 182t128 129.5t182.5 47.5q154 0 259 -103l-35 -36q-44 43 -98 66t-126 23q-85 0 -154 -41t-108 -111.5t-39 -155.5q0 -87 40 -158t109 -111.5t152 -40.5q68 0 125 24.5t101 68.5l35 -35q-49 -51 -115.5 -79.5
t-145.5 -28.5q-100 0 -182 47.5z" />
    <glyph glyph-name="uni0422" unicode="&#x422;" horiz-adv-x="608" 
d="M29 700h551v-49h-249v-651h-55v651h-247v49z" />
    <glyph glyph-name="uni0423" unicode="&#x423;" horiz-adv-x="569" 
d="M491 699h55l-236 -524l-23 -55q-29 -65 -65 -93.5t-92 -28.5q-24 0 -52 7.5t-42 17.5l18 38q12 -8 33.5 -12.5t39.5 -4.5q39 0 64.5 21t46.5 68l20 45l-234 521h54l206 -466h1z" />
    <glyph glyph-name="uni0424" unicode="&#x424;" horiz-adv-x="875" 
d="M764.5 206q-42.5 -62 -120 -96.5t-180.5 -35.5v-77h-53v77q-103 1 -180.5 35.5t-119.5 96.5t-42 144t42 144t119.5 96.5t180.5 35.5v77h53v-77q104 -1 181.5 -35.5t119.5 -96.5t42 -144t-42.5 -144zM202.5 182q76.5 -62 208.5 -64v464q-132 -2 -208.5 -64t-76.5 -168
t76.5 -168zM464 118q87 1 151.5 29.5t99.5 80.5t35 122q0 105 -76.5 167t-209.5 65v-464z" />
    <glyph glyph-name="uni0425" unicode="&#x425;" horiz-adv-x="680" 
d="M375 357l274 -357h-64l-244 317l-245 -317h-65l276 359l-263 341h66l231 -301l231 301h65z" />
    <glyph glyph-name="uni0426" unicode="&#x426;" horiz-adv-x="776" 
d="M747 48v-165h-55v118h-33v-1h-559v700h54v-653h451v653h54v-652h88z" />
    <glyph glyph-name="uni0427" unicode="&#x427;" horiz-adv-x="679" 
d="M524 700h55v-700h-55v276q-120 -39 -232 -39q-97 0 -155 63t-58 172v228h53v-218q0 -92 48.5 -145.5t129.5 -53.5q113 0 214 39v378z" />
    <glyph glyph-name="uni0428" unicode="&#x428;" horiz-adv-x="1003" 
d="M848 47v653h55v-700h-803v700h55v-653h319v653h55v-653h319z" />
    <glyph glyph-name="uni0429" unicode="&#x429;" horiz-adv-x="1009" 
d="M981 47v-165h-56v118h-825v700h55v-653h319v653h55v-653h319v653h55v-653h78z" />
    <glyph glyph-name="uni042A" unicode="&#x42a;" horiz-adv-x="743" 
d="M405 462q131 0 207 -62.5t76 -171.5q0 -107 -74.5 -167.5t-206.5 -60.5h-253v652h-125v48h180v-238h196zM406 49q107 0 167 47.5t60 130.5q0 88 -60 137t-168 49h-196v-364h197z" />
    <glyph glyph-name="uni042B" unicode="&#x42b;" horiz-adv-x="934" 
d="M361 462q131 0 207 -62.5t76 -171.5q0 -107 -74.5 -167.5t-206.5 -60.5h-253v700h55v-238h196zM362 49q107 0 167 47.5t60 130.5q0 88 -60 137t-168 49h-196v-364h197zM841 0h-53v738h53v-738z" />
    <glyph glyph-name="uni042C" unicode="&#x42c;" horiz-adv-x="695" 
d="M361 462q131 0 207 -62.5t76 -171.5q0 -107 -74.5 -167.5t-206.5 -60.5h-253v700h55v-238h196zM362 49q107 0 167 47.5t60 130.5q0 88 -60 137t-168 49h-196v-364h197z" />
    <glyph glyph-name="uni042D" unicode="&#x42d;" horiz-adv-x="720" 
d="M477 661.5q82 -47.5 128.5 -129.5t46.5 -182t-47 -182t-129 -129.5t-182 -47.5q-79 0 -145.5 28.5t-115.5 79.5l36 35q43 -44 100 -68.5t125 -24.5q81 0 148.5 38.5t108.5 106t44 151.5h-395v42h394q-6 79 -47 143t-107 100.5t-146 36.5q-72 0 -125.5 -23t-97.5 -66
l-36 36q105 103 260 103q100 0 182 -47.5z" />
    <glyph glyph-name="uni042E" unicode="&#x42e;" horiz-adv-x="1122" 
d="M878.5 663q81.5 -46 128 -128t46.5 -185t-46.5 -184.5t-128 -128t-184.5 -46.5q-100 0 -180 43.5t-127.5 121t-51.5 175.5h-180v-331h-55v700h55v-322h181q6 96 53.5 171t127 117.5t177.5 42.5q103 0 184.5 -46zM850 79q69 40 108 111t39 160t-39 160.5t-108 111.5
t-156 40t-156 -40t-108 -111.5t-39 -160.5t39 -160t108 -111t156 -40t156 40z" />
    <glyph glyph-name="uni042F" unicode="&#x42f;" horiz-adv-x="696" 
d="M596 0h-55v264h-180l-242 -264h-69l243 266q-117 8 -179 63.5t-62 152.5q0 106 73 162t208 56h263v-700zM541 313v338h-207q-111 0 -169.5 -43t-58.5 -126q0 -85 58.5 -127t170.5 -42h206z" />
    <glyph glyph-name="uni0430" unicode="&#x430;" horiz-adv-x="567" 
d="M434 493.5q56 -53.5 56 -154.5v-339h-53v120q-25 -51 -81.5 -90t-131.5 -39q-86 0 -136 44.5t-50 117.5q0 77 52.5 121.5t155.5 44.5q93 0 191 -13v32q0 79 -44 119.5t-127 40.5q-46 0 -91 -15.5t-82 -45.5l-27 40q43 35 96 52.5t109 17.5q107 0 163 -53.5zM339.5 69
q45.5 29 71.5 74.5t26 90.5v27q-89 13 -180 13q-85 0 -126.5 -30.5t-41.5 -87.5q0 -56 38.5 -86t111.5 -30q55 0 100.5 29z" />
    <glyph glyph-name="uni0431" unicode="&#x431;" horiz-adv-x="640" 
d="M127 81.5q-72 90.5 -72 258.5t73.5 259t213.5 109q27 4 48 6q8 1 31 4.5t40.5 7t33.5 9.5v-45q-31 -10 -94 -17l-58 -8q-124 -18 -178 -100t-54 -206q0 -22 1 -33q12 44 45 82t81.5 61t103.5 23q71 0 126 -34.5t86 -92.5t31 -126q0 -76 -31.5 -132t-88 -86t-129.5 -30
q-137 0 -209 90.5zM478 90q54 54 54 148q0 56 -26 103.5t-72.5 75t-105.5 27.5q-49 0 -97.5 -25t-79.5 -69.5t-31 -99.5q0 -42 20 -91.5t68.5 -86t127.5 -36.5q88 0 142 54z" />
    <glyph glyph-name="uni0432" unicode="&#x432;" horiz-adv-x="600" 
d="M509 230.5q36 -35.5 36 -89.5q0 -65 -53 -103t-143 -38h-262v538h249q84 0 132.5 -36.5t48.5 -98.5q0 -49 -28.5 -82t-79.5 -45q64 -10 100 -45.5zM140 489v-193h198q59 0 92.5 25.5t33.5 71.5q0 45 -35 70.5t-100 25.5h-189zM345 49q69 0 107.5 26t38.5 73
q0 45 -38 71.5t-102 26.5h-211v-197h205z" />
    <glyph glyph-name="uni0433" unicode="&#x433;" horiz-adv-x="474" 
d="M87 0v538h368v-43h-315v-495h-53z" />
    <glyph glyph-name="uni0434" unicode="&#x434;" horiz-adv-x="631" 
d="M548 44v-122h-54v78h-417v-78h-54v122h27q15 0 31 18t27 54t13 87l10 335h326l44 -1v-493h47zM448 495h-265l-10 -289q-4 -109 -50 -162h325v451z" />
    <glyph glyph-name="uni0435" unicode="&#x435;" horiz-adv-x="616" 
d="M109 251q3 -62 33 -110t80.5 -74.5t113.5 -26.5q105 0 171 71l35 -32q-39 -41 -92.5 -64.5t-116.5 -23.5q-79 0 -142.5 36t-99.5 99.5t-36 142.5q0 80 34 143t95.5 98.5t141.5 35.5q72 0 127.5 -33t86.5 -93t31 -139q0 -4 -2 -30h-460zM176.5 442q-58.5 -56 -66.5 -145
h409q-6 94 -58 147.5t-135 53.5q-91 0 -149.5 -56z" />
    <glyph glyph-name="uni0436" unicode="&#x436;" horiz-adv-x="806" 
d="M781 0h-60l-202 244h-89v-244h-53v244h-90l-202 -244h-60l223 273l-208 265h60l185 -243h92v243h53v-243h90l185 243h61l-208 -265z" />
    <glyph glyph-name="uni0437" unicode="&#x437;" horiz-adv-x="526" 
d="M134 11.5q-59 21.5 -97 53.5l19 42q91 -67 200 -67q72 0 116 31t44 83q0 48 -40.5 74.5t-108.5 26.5h-107v38h107q68 0 104 24t36 73q0 53 -42 82t-117 29q-50 0 -93.5 -14.5t-87.5 -42.5l-19 38q92 65 205 65q95 0 151.5 -40t56.5 -113q0 -47 -25 -77t-71 -43
q49 -14 77.5 -45.5t28.5 -79.5t-28 -84t-75.5 -55.5t-104.5 -19.5q-70 0 -129 21.5z" />
    <glyph glyph-name="uni0438" unicode="&#x438;" horiz-adv-x="640" 
d="M553 538v-538h-53v455l-380 -455h-43v538h53v-453l379 453h44z" />
    <glyph glyph-name="uni0439" unicode="&#x439;" horiz-adv-x="640" 
d="M553 538v-538h-53v455l-380 -455h-43v538h53v-453l379 453h44zM456 716q0 -58 -32.5 -92t-87.5 -34t-87.5 34t-32.5 92h40q0 -44 20.5 -68t59.5 -24q38 0 59 24t21 68h40z" />
    <glyph glyph-name="uni043A" unicode="&#x43a;" horiz-adv-x="563" 
d="M532 0h-60l-204 244h-128v-244h-53v538h53v-246h128l188 246h61l-211 -267z" />
    <glyph glyph-name="uni043B" unicode="&#x43b;" horiz-adv-x="582" 
d="M495 0h-53v495h-282l-6 -298q-1 -77 -16.5 -120t-44 -60t-74.5 -17v41q42 0 60.5 36t20.5 125l8 336h387v-538z" />
    <glyph glyph-name="uni043C" unicode="&#x43c;" horiz-adv-x="745" 
d="M373 193l233 345h52v-538h-53v447l-224 -328h-17l-223 328v-447h-54v538h52z" />
    <glyph glyph-name="uni043D" unicode="&#x43d;" horiz-adv-x="643" 
d="M502 298v240h54v-538h-54v250h-362v-250h-53v538h53v-240h362z" />
    <glyph glyph-name="uni043E" unicode="&#x43e;" 
d="M190.5 27q-63.5 36 -99.5 99.5t-36 142.5t36 142.5t99.5 99.5t142.5 36q80 0 144 -36t100 -99t36 -142q0 -80 -36 -143.5t-100 -99.5t-144 -36q-79 0 -142.5 36zM450.5 69.5q51.5 29.5 80.5 81.5t29 118q0 67 -29 119t-81 81t-117 29q-64 0 -115.5 -29t-80.5 -81.5
t-29 -118.5t29.5 -118t81 -81.5t115.5 -29.5q65 0 116.5 29.5z" />
    <glyph glyph-name="uni043F" unicode="&#x43f;" horiz-adv-x="643" 
d="M556 538v-538h-54v495h-362v-495h-53v538h469z" />
    <glyph glyph-name="uni0440" unicode="&#x440;" horiz-adv-x="686" 
d="M502.5 511q59.5 -36 93.5 -99.5t34 -143.5q0 -81 -34 -144t-93.5 -98t-132.5 -35q-76 0 -137 35t-93 98v-295h-53v709h53v-123q33 62 93.5 97t136.5 35q73 0 132.5 -36zM474 69q49 29 76.5 81t27.5 118q0 67 -27.5 119t-76.5 81.5t-111 29.5q-64 0 -115 -29t-79.5 -81.5
t-28.5 -118.5q0 -67 28.5 -119t79.5 -81t115 -29q62 0 111 29z" />
    <glyph glyph-name="uni0441" unicode="&#x441;" horiz-adv-x="573" 
d="M190.5 26.5q-63.5 35.5 -99.5 99t-36 143.5t36.5 143.5t100 99t142.5 35.5q58 0 109.5 -21t91.5 -63l-37 -32q-67 67 -165 67q-64 0 -115 -29t-80 -81t-29 -119t29 -119t80.5 -81t115.5 -29q50 0 89.5 16.5t74.5 52.5l38 -32q-39 -42 -91.5 -64t-111.5 -22
q-79 0 -142.5 35.5z" />
    <glyph glyph-name="uni0442" unicode="&#x442;" horiz-adv-x="529" 
d="M40 538h449v-49h-198v-489h-53v489h-198v49z" />
    <glyph glyph-name="uni0443" unicode="&#x443;" horiz-adv-x="567" 
d="M494 538h58l-239 -538l-24 -56q-29 -65 -68.5 -94.5t-99.5 -29.5q-25 0 -51 7.5t-45 18.5l17 39q35 -19 78 -19q41 0 68 21.5t49 68.5l20 46l-238 536h58l208 -476h1z" />
    <glyph glyph-name="uni0444" unicode="&#x444;" horiz-adv-x="753" 
d="M660.5 131.5q-37.5 -60.5 -105 -95.5t-152.5 -36v-170h-53v170q-85 1 -152.5 36t-105 95.5t-37.5 137.5t37.5 137.5t105 95.5t152.5 36v162h53v-162q85 -1 152.5 -36t105 -95.5t37.5 -137.5t-37.5 -137.5zM138.5 153.5q30.5 -50.5 85.5 -79.5t126 -30v451
q-71 -1 -126 -30.5t-85.5 -80t-30.5 -115.5t30.5 -115.5zM403 44q71 1 126 29.5t85.5 79.5t30.5 116t-30.5 115.5t-85.5 80t-126 30.5v-451z" />
    <glyph glyph-name="uni0445" unicode="&#x445;" horiz-adv-x="568" 
d="M316 275l221 -275h-62l-191 238l-192 -238h-61l221 274l-212 264h64l180 -227l181 227h62z" />
    <glyph glyph-name="uni0446" unicode="&#x446;" horiz-adv-x="613" 
d="M587 44v-122h-50v78h-450v538h53v-494h336v494h53v-494h58z" />
    <glyph glyph-name="uni0447" unicode="&#x447;" horiz-adv-x="628" 
d="M487 538h54v-538h-54v218q-42 -22 -90 -38.5t-111 -16.5q-97 0 -153 62.5t-56 171.5v141h53v-133q0 -89 47.5 -142.5t127.5 -53.5q59 0 106 17.5t76 36.5v275z" />
    <glyph glyph-name="uni0448" unicode="&#x448;" horiz-adv-x="804" 
d="M664 44v494h53v-538h-630v538h53v-494h236v494h53v-494h235z" />
    <glyph glyph-name="uni0449" unicode="&#x449;" horiz-adv-x="785" 
d="M758 44v-122h-49v78h-622v538h53v-494h227v494h53v-494h228v494h53v-494h57z" />
    <glyph glyph-name="uni044A" unicode="&#x44a;" horiz-adv-x="638" 
d="M352 357q108 0 169.5 -47.5t61.5 -131.5q0 -83 -61 -130.5t-168 -47.5h-208v496h-106v42h159v-181h153zM352 44q83 0 130 35.5t47 98.5t-47 99t-131 36h-152v-269h153z" />
    <glyph glyph-name="uni044B" unicode="&#x44b;" horiz-adv-x="805" 
d="M293 357q108 0 169 -47.5t61 -131.5q0 -83 -61 -130.5t-168 -47.5h-207v538h53v-181h153zM293 44q83 0 130 35.5t47 98.5t-47 99t-131 36h-152v-269h153zM718 0h-53v538h53v-538z" />
    <glyph glyph-name="uni044C" unicode="&#x44c;" horiz-adv-x="578" 
d="M293 357q108 0 169 -47.5t61 -131.5q0 -83 -61 -130.5t-168 -47.5h-207v538h53v-181h153zM293 44q83 0 130 35.5t47 98.5t-47 99t-131 36h-152v-269h153z" />
    <glyph glyph-name="uni044D" unicode="&#x44d;" horiz-adv-x="573" 
d="M381.5 511.5q63.5 -35.5 100 -99t36.5 -143.5t-36 -143.5t-99.5 -99t-142.5 -35.5q-59 0 -111.5 22t-91.5 64l38 32q35 -36 74.5 -52.5t89.5 -16.5q61 0 110.5 26t79.5 73t34 109h-268v44h268q-5 61 -35 108t-78.5 72.5t-109.5 25.5q-98 0 -164 -67l-38 32q40 42 91.5 63
t109.5 21q79 0 142.5 -35.5z" />
    <glyph glyph-name="uni044E" unicode="&#x44e;" horiz-adv-x="912" 
d="M721 511q64 -36 100 -99t36 -142t-36 -143t-100 -100t-144 -36q-76 0 -137.5 32.5t-98.5 91t-42 132.5h-159v-247h-53v538h53v-242h159q6 73 43 130t98.5 89t136.5 32q80 0 144 -36zM693.5 69.5q51.5 29.5 80.5 81.5t29 118q0 67 -29 119t-80.5 81t-116.5 29t-116 -29
t-80 -81t-29 -119q0 -66 29 -118t80.5 -81.5t116.5 -29.5q64 0 115.5 29.5z" />
    <glyph glyph-name="uni044F" unicode="&#x44f;" horiz-adv-x="572" 
d="M485 538v-538h-52v200h-147l-193 -200h-63l194 202q-81 9 -128.5 54t-47.5 115q0 77 59 122t156 45h222zM433 249v240h-171q-73 0 -117 -31.5t-44 -89.5t45 -88.5t117 -30.5h170z" />
    <glyph glyph-name="uni0450" unicode="&#x450;" horiz-adv-x="616" 
d="M109 251q3 -62 33 -110t80.5 -74.5t113.5 -26.5q105 0 171 71l35 -32q-39 -41 -92.5 -64.5t-116.5 -23.5q-79 0 -142.5 36t-99.5 99.5t-36 142.5q0 80 34 143t95.5 98.5t141.5 35.5q72 0 127.5 -33t86.5 -93t31 -139q0 -4 -2 -30h-460zM176.5 442q-58.5 -56 -66.5 -145
h409q-6 94 -58 147.5t-135 53.5q-91 0 -149.5 -56zM331 598l-37 -6l-113 126l51 14z" />
    <glyph glyph-name="uni0451" unicode="&#x451;" horiz-adv-x="616" 
d="M109 251q3 -62 33 -110t80.5 -74.5t113.5 -26.5q105 0 171 71l35 -32q-39 -41 -92.5 -64.5t-116.5 -23.5q-79 0 -142.5 36t-99.5 99.5t-36 142.5q0 80 34 143t95.5 98.5t141.5 35.5q72 0 127.5 -33t86.5 -93t31 -139q0 -4 -2 -30h-460zM176.5 442q-58.5 -56 -66.5 -145
h409q-6 94 -58 147.5t-135 53.5q-91 0 -149.5 -56zM256 619h-41v105h41v-105zM408 619h-42v105h42v-105z" />
    <glyph glyph-name="uni0452" unicode="&#x452;" horiz-adv-x="714" 
d="M572 465.5q56 -62.5 56 -171.5v-341q0 -63 -37.5 -95.5t-98.5 -32.5q-43 0 -81 22l15 33q27 -17 59 -17q39 0 64.5 24t25.5 71v328q0 90 -47 143t-128 53q-60 0 -107 -18t-75 -37v-427h-53v619h-80v33h80v86h53v-86h126v-33h-126v-146q43 22 90.5 38.5t110.5 16.5
q97 0 153 -62.5z" />
    <glyph glyph-name="uni0453" unicode="&#x453;" horiz-adv-x="474" 
d="M87 0v538h368v-43h-315v-495h-53zM404 718l-114 -126l-36 6l98 134z" />
    <glyph glyph-name="uni0454" unicode="&#x454;" horiz-adv-x="573" 
d="M536 77q-39 -42 -91.5 -64t-111.5 -22q-79 0 -142.5 35.5t-99.5 99t-36 143.5t36.5 143.5t100 99t142.5 35.5q58 0 109.5 -21t91.5 -63l-37 -32q-67 67 -165 67q-61 0 -109.5 -25.5t-78.5 -72.5t-35 -108h268v-44h-268q4 -62 34.5 -109t79.5 -73t110 -26q50 0 89.5 16.5
t74.5 52.5z" />
    <glyph glyph-name="uni0455" unicode="&#x455;" horiz-adv-x="518" 
d="M139.5 11.5q-59.5 20.5 -100.5 53.5l24 43q42 -31 95 -49t105 -18q74 0 115.5 26t41.5 76q0 30 -15.5 49t-51 33t-97.5 26q-75 14 -118 33.5t-61.5 47.5t-18.5 68q0 68 52.5 107t143.5 39q53 0 108 -15.5t91 -41.5l-23 -45q-35 25 -83 39t-96 14q-65 0 -102 -25t-37 -68
q0 -40 34 -62.5t124 -40.5q77 -16 120.5 -36.5t62.5 -49t19 -70.5q0 -72 -57 -113t-155 -41q-61 0 -120.5 20.5z" />
    <glyph glyph-name="uni0456" unicode="&#x456;" horiz-adv-x="227" 
d="M140 0h-53v538h53v-538zM142 619h-56v105h56v-105z" />
    <glyph glyph-name="uni0457" unicode="&#x457;" horiz-adv-x="227" 
d="M140 0h-53v538h53v-538zM57 619h-41v105h41v-105zM209 619h-42v105h42v-105z" />
    <glyph glyph-name="uni0458" unicode="&#x458;" horiz-adv-x="239" 
d="M-50 -109q26 -16 57 -16q40 0 66 23.5t26 68.5v571h53v-575q0 -66 -39.5 -101t-100.5 -35q-40 0 -79 21zM153 619h-56v105h56v-105z" />
    <glyph glyph-name="uni0459" unicode="&#x459;" horiz-adv-x="888" 
d="M603 357q108 0 169 -47.5t61 -131.5t-59.5 -131t-167.5 -47h-172v495h-274l-6 -298q-1 -77 -16.5 -120t-44 -60t-74.5 -17v41q42 0 60.5 36t20.5 125l8 336h377v-181h118zM605 42q83 0 130 36t47 100q0 65 -46.5 101t-131.5 36h-119v-273h120z" />
    <glyph glyph-name="uni045A" unicode="&#x45a;" horiz-adv-x="956" 
d="M671 336q106 0 168 -46t62 -122q0 -78 -60 -123t-167 -45h-172v270h-362v-270h-53v538h53v-223h362v223h54v-202h115zM673 41q83 0 130 34t47 91q0 58 -47.5 92.5t-130.5 34.5h-116v-252h117z" />
    <glyph glyph-name="uni045B" unicode="&#x45b;" horiz-adv-x="659" 
d="M526.5 465.5q55.5 -62.5 55.5 -171.5v-294h-52v286q0 89 -47.5 142.5t-127.5 53.5q-60 0 -107.5 -18t-75.5 -37v-427h-53v619h-79v33h79v86h53v-86h126v-33h-126v-146q43 22 91 38.5t111 16.5q97 0 152.5 -62.5z" />
    <glyph glyph-name="uni045C" unicode="&#x45c;" horiz-adv-x="584" 
d="M421 718l-114 -126l-36 6l98 134zM532 0h-60l-204 244h-128v-244h-53v538h53v-246h128l188 246h61l-211 -267z" />
    <glyph glyph-name="uni045D" unicode="&#x45d;" horiz-adv-x="640" 
d="M553 538v-538h-53v455l-380 -455h-43v538h53v-453l379 453h44zM355 598l-37 -6l-113 126l51 14z" />
    <glyph glyph-name="uni045E" unicode="&#x45e;" horiz-adv-x="567" 
d="M494 538h58l-239 -538l-24 -56q-29 -65 -68.5 -94.5t-99.5 -29.5q-25 0 -51 7.5t-45 18.5l17 39q35 -19 78 -19q41 0 68 21.5t49 68.5l20 46l-238 536h58l208 -476h1zM432 716q0 -58 -32.5 -92t-87.5 -34t-87.5 34t-32.5 92h40q0 -44 20.5 -68t59.5 -24q38 0 59 24t21 68
h40z" />
    <glyph glyph-name="uni045F" unicode="&#x45f;" horiz-adv-x="643" 
d="M502 44v494h54v-538h-216v-120h-53v120h-200v538h53v-494h362z" />
    <glyph glyph-name="uni0474" unicode="&#x474;" horiz-adv-x="732" 
d="M341 0l-317 700h58l285 -633h1l186 444q40 101 82 151.5t92 50.5v-56q-32 0 -61.5 -40t-65.5 -125l-207 -492h-53z" />
    <glyph glyph-name="uni0474" unicode="&#x475;" horiz-adv-x="732" 
d="M341 0l-317 700h58l285 -633h1l186 444q40 101 82 151.5t92 50.5v-56q-32 0 -61.5 -40t-65.5 -125l-207 -492h-53z" />
    <glyph glyph-name="uni0490" unicode="&#x490;" horiz-adv-x="604" 
d="M572 701h-55v130h55v-130zM100 0v700h479v-49h-425v-651h-54z" />
    <glyph glyph-name="uni0491" unicode="&#x491;" horiz-adv-x="474" 
d="M404 645h52v-133h-1v-17h-315v-495h-53v538h317v107z" />
    <glyph glyph-name="uni04D9" unicode="&#x4d9;" horiz-adv-x="616" 
d="M425.5 511q63.5 -36 99.5 -99.5t36 -142.5q0 -80 -34 -143t-95.5 -98.5t-141.5 -35.5q-72 0 -127.5 33t-86.5 93t-31 139q0 4 2 30h460q-3 62 -33 110t-80.5 74.5t-113.5 26.5q-105 0 -171 -71l-35 32q39 42 92.5 65t116.5 23q79 0 142.5 -36zM439.5 95.5
q58.5 55.5 66.5 145.5h-409q6 -94 58 -147.5t135 -53.5q91 0 149.5 55.5z" />
    <glyph glyph-name="uni1E0C" unicode="&#x1e0c;" horiz-adv-x="812" 
d="M100 0v700h269q113 0 198 -43t131 -122t46 -185t-46 -185t-131 -122t-198 -43h-269zM366 50q97 0 169.5 36.5t111.5 104t39 159.5t-39 160t-111.5 104.5t-170.5 36.5h-210v-601h211zM353 -157v105h56v-105h-56z" />
    <glyph glyph-name="uni1E0D" unicode="&#x1e0d;" horiz-adv-x="692" 
d="M546 738h53v-738h-53v122q-33 -62 -94 -96.5t-136 -34.5q-73 0 -132.5 36t-93.5 99t-34 143q0 81 34 144t93.5 98.5t133.5 35.5q76 0 136.5 -35t92.5 -98v324zM438.5 69q50.5 29 79 81t28.5 119t-28.5 119t-79 80.5t-114.5 28.5q-62 0 -111 -29t-76.5 -81t-27.5 -118
t27.5 -118t76.5 -81.5t111 -29.5q64 0 114.5 29zM319 -157v105h56v-105h-56z" />
    <glyph glyph-name="uni1E0E" unicode="&#x1e0e;" horiz-adv-x="812" 
d="M100 0v700h269q113 0 198 -43t131 -122t46 -185t-46 -185t-131 -122t-198 -43h-269zM366 50q97 0 169.5 36.5t111.5 104t39 159.5t-39 160t-111.5 104.5t-170.5 36.5h-210v-601h211zM515 -107h-265v36h266z" />
    <glyph glyph-name="uni1E0F" unicode="&#x1e0f;" horiz-adv-x="692" 
d="M546 738h53v-738h-53v122q-33 -62 -94 -96.5t-136 -34.5q-73 0 -132.5 36t-93.5 99t-34 143q0 81 34 144t93.5 98.5t133.5 35.5q76 0 136.5 -35t92.5 -98v324zM438.5 69q50.5 29 79 81t28.5 119t-28.5 119t-79 80.5t-114.5 28.5q-62 0 -111 -29t-76.5 -81t-27.5 -118
t27.5 -118t76.5 -81.5t111 -29.5q64 0 114.5 29zM481 -107h-265v36h266z" />
    <glyph glyph-name="uni1E20" unicode="&#x1e20;" horiz-adv-x="762" 
d="M243.5 37q-81.5 46 -128 128t-46.5 184q0 103 46 185t127.5 128.5t184.5 46.5q75 0 139.5 -25.5t114.5 -74.5l-35 -35q-91 85 -218 85q-87 0 -156 -39.5t-107.5 -109.5t-38.5 -160t38.5 -160.5t108 -109.5t158.5 -39q123 0 211 78v232h51v-256q-52 -50 -120 -77t-145 -27
q-103 0 -184.5 46zM569 788h-265v36h266z" />
    <glyph glyph-name="uni1E21" unicode="&#x1e21;" horiz-adv-x="602" 
d="M366 111q100 0 155.5 -34.5t55.5 -93.5q0 -74 -74.5 -118.5t-205.5 -44.5q-112 0 -176 37t-64 101q0 35 25 63.5t65 48.5q-29 11 -45 33t-16 50q0 30 18.5 53t50.5 34q-65 48 -65 133q0 80 57.5 127t157.5 47q57 0 98 -18l139 29l11 -45l-96 -14q30 -21 47 -53t17 -73
q0 -80 -57.5 -127.5t-156.5 -47.5q-68 0 -119 23q-49 -20 -49 -55q0 -26 19 -40.5t51 -14.5h157zM185.5 466.5q-43.5 -33.5 -43.5 -92.5q0 -60 43.5 -94.5t120.5 -34.5q76 0 119.5 34t43.5 94q0 59 -43.5 93t-119.5 34q-77 0 -120.5 -33.5zM464.5 -102q59.5 29 59.5 82
q0 41 -44.5 61.5t-125.5 20.5h-158h-5q-80 -42 -80 -97q0 -47 49.5 -71.5t138.5 -24.5q106 0 165.5 29zM459 645h-265v36h266z" />
    <glyph glyph-name="uni1E24" unicode="&#x1e24;" horiz-adv-x="771" 
d="M616 377v323h55v-700h-55v328h-461v-328h-55v700h55v-323h461zM355 -157v105h56v-105h-56z" />
    <glyph glyph-name="uni1E25" unicode="&#x1e25;" horiz-adv-x="651" 
d="M472.5 518.5q48.5 -28.5 75 -81t26.5 -123.5v-314h-53v308q0 88 -46 138.5t-126 50.5q-55 0 -101.5 -27.5t-74 -76t-27.5 -109.5v-284h-53v738h53v-313q30 54 86.5 88t127.5 34q64 0 112.5 -28.5zM298 -157v105h56v-105h-56z" />
    <glyph glyph-name="uni1E2A" unicode="&#x1e2a;" horiz-adv-x="771" 
d="M616 377v323h55v-700h-55v328h-461v-328h-55v700h55v-323h461zM503 -36q0 -47 -31.5 -75.5t-84.5 -28.5q-52 0 -83.5 28.5t-31.5 75.5h39q0 -36 19.5 -56t56.5 -20t57 20t20 56h39z" />
    <glyph glyph-name="uni1E2B" unicode="&#x1e2b;" horiz-adv-x="651" 
d="M472.5 518.5q48.5 -28.5 75 -81t26.5 -123.5v-314h-53v308q0 88 -46 138.5t-126 50.5q-55 0 -101.5 -27.5t-74 -76t-27.5 -109.5v-284h-53v738h53v-313q30 54 86.5 88t127.5 34q64 0 112.5 -28.5zM446 -36q0 -47 -31.5 -75.5t-84.5 -28.5q-52 0 -83.5 28.5t-31.5 75.5h39
q0 -36 19.5 -56t56.5 -20t57 20t20 56h39z" />
    <glyph glyph-name="uni1E36" unicode="&#x1e36;" horiz-adv-x="604" 
d="M579 0h-479v700h54v-650h425v-50zM266 -157v105h56v-105h-56z" />
    <glyph glyph-name="uni1E37" unicode="&#x1e37;" horiz-adv-x="239" 
d="M146 0h-53v738h53v-738zM90 -157v105h56v-105h-56z" />
    <glyph glyph-name="uni1E38" unicode="&#x1e38;" horiz-adv-x="604" 
d="M579 0h-479v700h54v-650h425v-50zM266 -157v105h56v-105h-56zM426 788h-265v36h266z" />
    <glyph glyph-name="uni1E39" unicode="&#x1e39;" horiz-adv-x="239" 
d="M146 0h-53v738h53v-738zM90 -157v105h56v-105h-56zM250 826h-265v36h266z" />
    <glyph glyph-name="uni1E3A" unicode="&#x1e3a;" horiz-adv-x="604" 
d="M579 0h-479v700h54v-650h425v-50zM428 -107h-265v36h266z" />
    <glyph glyph-name="uni1E3B" unicode="&#x1e3b;" horiz-adv-x="239" 
d="M146 0h-53v738h53v-738zM251 -107h-265v36h266z" />
    <glyph glyph-name="uni1E42" unicode="&#x1e42;" horiz-adv-x="892" 
d="M447 207l296 493h49v-700h-54v598l-281 -460h-21l-281 461v-599h-55v700h50zM416 -157v105h56v-105h-56z" />
    <glyph glyph-name="uni1E43" unicode="&#x1e43;" horiz-adv-x="1013" 
d="M883.5 486.5q52.5 -60.5 52.5 -165.5v-321h-53v315q0 86 -41 134t-115 48q-51 0 -94.5 -27.5t-69 -76t-25.5 -107.5v-286h-53v315q0 86 -41 134t-115 48q-51 0 -94.5 -27.5t-69 -76t-25.5 -107.5v-286h-53v538h53v-112q28 53 82 87t120 34q71 0 119 -37.5t67 -105.5
q25 61 82 102t130 41q91 0 143.5 -60.5zM479 -157v105h56v-105h-56z" />
    <glyph glyph-name="uni1E44" unicode="&#x1e44;" horiz-adv-x="783" 
d="M155 0h-55v700h47l481 -604v604h55v-700h-46l-482 606v-606zM420 768h-56v102h56v-102z" />
    <glyph glyph-name="uni1E45" unicode="&#x1e45;" horiz-adv-x="645" 
d="M466.5 518.5q48.5 -28.5 75 -81t26.5 -123.5v-314h-53v308q0 88 -46 138.5t-126 50.5q-55 0 -101.5 -27.5t-74 -76t-27.5 -109.5v-284h-53v538h53v-113q30 54 86.5 88t127.5 34q64 0 112.5 -28.5zM351 619h-56v105h56v-105z" />
    <glyph glyph-name="uni1E46" unicode="&#x1e46;" horiz-adv-x="783" 
d="M155 0h-55v700h47l481 -604v604h55v-700h-46l-482 606v-606zM362 -157v105h56v-105h-56z" />
    <glyph glyph-name="uni1E47" unicode="&#x1e47;" horiz-adv-x="645" 
d="M466.5 518.5q48.5 -28.5 75 -81t26.5 -123.5v-314h-53v308q0 88 -46 138.5t-126 50.5q-55 0 -101.5 -27.5t-74 -76t-27.5 -109.5v-284h-53v538h53v-113q30 54 86.5 88t127.5 34q64 0 112.5 -28.5zM293 -157v105h56v-105h-56z" />
    <glyph glyph-name="uni1E48" unicode="&#x1e48;" horiz-adv-x="783" 
d="M155 0h-55v700h47l481 -604v604h55v-700h-46l-482 606v-606zM524 -107h-265v36h266z" />
    <glyph glyph-name="uni1E49" unicode="&#x1e49;" horiz-adv-x="645" 
d="M466.5 518.5q48.5 -28.5 75 -81t26.5 -123.5v-314h-53v308q0 88 -46 138.5t-126 50.5q-55 0 -101.5 -27.5t-74 -76t-27.5 -109.5v-284h-53v538h53v-113q30 54 86.5 88t127.5 34q64 0 112.5 -28.5zM455 -107h-265v36h266z" />
    <glyph glyph-name="uni1E5A" unicode="&#x1e5a;" horiz-adv-x="696" 
d="M577 0l-242 264h-180v-264h-55v700h263q135 0 208 -56t73 -162q0 -97 -62 -152.5t-179 -63.5l243 -266h-69zM155 651v-338h206q112 0 170.5 42t58.5 127q0 83 -58.5 126t-169.5 43h-207zM324 -157v105h56v-105h-56z" />
    <glyph glyph-name="uni1E5B" unicode="&#x1e5b;" horiz-adv-x="385" 
d="M366 539l-2 -55q-24 6 -47 6q-54 0 -94.5 -32t-61.5 -85.5t-21 -115.5v-257h-53v538h53v-119q25 57 72 90.5t106 33.5q18 0 48 -4zM152 -157v105h56v-105h-56z" />
    <glyph glyph-name="uni1E5C" unicode="&#x1e5c;" horiz-adv-x="696" 
d="M577 0l-242 264h-180v-264h-55v700h263q135 0 208 -56t73 -162q0 -97 -62 -152.5t-179 -63.5l243 -266h-69zM155 651v-338h206q112 0 170.5 42t58.5 127q0 83 -58.5 126t-169.5 43h-207zM324 -157v105h56v-105h-56zM485 788h-265v36h266z" />
    <glyph glyph-name="uni1E5D" unicode="&#x1e5d;" horiz-adv-x="385" 
d="M366 539l-2 -55q-24 6 -47 6q-54 0 -94.5 -32t-61.5 -85.5t-21 -115.5v-257h-53v538h53v-119q25 57 72 90.5t106 33.5q18 0 48 -4zM152 -157v105h56v-105h-56zM327 645h-265v36h266z" />
    <glyph glyph-name="uni1E5E" unicode="&#x1e5e;" horiz-adv-x="696" 
d="M577 0l-242 264h-180v-264h-55v700h263q135 0 208 -56t73 -162q0 -97 -62 -152.5t-179 -63.5l243 -266h-69zM155 651v-338h206q112 0 170.5 42t58.5 127q0 83 -58.5 126t-169.5 43h-207zM486 -107h-265v36h266z" />
    <glyph glyph-name="uni1E5F" unicode="&#x1e5f;" horiz-adv-x="385" 
d="M366 539l-2 -55q-24 6 -47 6q-54 0 -94.5 -32t-61.5 -85.5t-21 -115.5v-257h-53v538h53v-119q25 57 72 90.5t106 33.5q18 0 48 -4zM314 -107h-265v36h266z" />
    <glyph glyph-name="uni1E60" unicode="&#x1e60;" horiz-adv-x="630" 
d="M173.5 19.5q-71.5 28.5 -121.5 76.5l27 42q50 -46 114 -71t133 -25q89 0 139.5 38.5t50.5 98.5q0 43 -21.5 69.5t-64 43.5t-115.5 33q-126 28 -184 72t-58 125q0 57 32 99.5t87.5 65t124.5 22.5q63 0 122 -20t108 -57l-29 -40q-43 31 -96.5 49t-108.5 18
q-83 0 -132.5 -38t-49.5 -100q0 -40 21 -67t63.5 -45t115.5 -35q87 -19 138.5 -42t77.5 -59t26 -92q0 -57 -32 -100t-88.5 -66.5t-130.5 -23.5q-77 0 -148.5 28.5zM343 768h-56v102h56v-102z" />
    <glyph glyph-name="uni1E61" unicode="&#x1e61;" horiz-adv-x="518" 
d="M139.5 11.5q-59.5 20.5 -100.5 53.5l24 43q42 -31 95 -49t105 -18q74 0 115.5 26t41.5 76q0 30 -15.5 49t-51 33t-97.5 26q-75 14 -118 33.5t-61.5 47.5t-18.5 68q0 68 52.5 107t143.5 39q53 0 108 -15.5t91 -41.5l-23 -45q-35 25 -83 39t-96 14q-65 0 -102 -25t-37 -68
q0 -40 34 -62.5t124 -40.5q77 -16 120.5 -36.5t62.5 -49t19 -70.5q0 -72 -57 -113t-155 -41q-61 0 -120.5 20.5zM290 619h-56v105h56v-105z" />
    <glyph glyph-name="uni1E62" unicode="&#x1e62;" horiz-adv-x="630" 
d="M173.5 19.5q-71.5 28.5 -121.5 76.5l27 42q50 -46 114 -71t133 -25q89 0 139.5 38.5t50.5 98.5q0 43 -21.5 69.5t-64 43.5t-115.5 33q-126 28 -184 72t-58 125q0 57 32 99.5t87.5 65t124.5 22.5q63 0 122 -20t108 -57l-29 -40q-43 31 -96.5 49t-108.5 18
q-83 0 -132.5 -38t-49.5 -100q0 -40 21 -67t63.5 -45t115.5 -35q87 -19 138.5 -42t77.5 -59t26 -92q0 -57 -32 -100t-88.5 -66.5t-130.5 -23.5q-77 0 -148.5 28.5zM284 -157v105h56v-105h-56z" />
    <glyph glyph-name="uni1E63" unicode="&#x1e63;" horiz-adv-x="518" 
d="M139.5 11.5q-59.5 20.5 -100.5 53.5l24 43q42 -31 95 -49t105 -18q74 0 115.5 26t41.5 76q0 30 -15.5 49t-51 33t-97.5 26q-75 14 -118 33.5t-61.5 47.5t-18.5 68q0 68 52.5 107t143.5 39q53 0 108 -15.5t91 -41.5l-23 -45q-35 25 -83 39t-96 14q-65 0 -102 -25t-37 -68
q0 -40 34 -62.5t124 -40.5q77 -16 120.5 -36.5t62.5 -49t19 -70.5q0 -72 -57 -113t-155 -41q-61 0 -120.5 20.5zM232 -157v105h56v-105h-56z" />
    <glyph glyph-name="uni1E6C" unicode="&#x1e6c;" horiz-adv-x="608" 
d="M29 700h551v-49h-249v-651h-55v651h-247v49zM275 -157v105h56v-105h-56z" />
    <glyph glyph-name="uni1E6D" unicode="&#x1e6d;" horiz-adv-x="466" 
d="M425 22q-22 -14 -57 -22.5t-66 -8.5q-69 0 -110.5 40.5t-41.5 111.5v346h-110v49h110l5 148h48v-148h199v-49h-199v-337q0 -52 30 -82.5t77 -30.5q25 0 54 7t49 18zM266 -159v105h56v-105h-56z" />
    <glyph glyph-name="uni1E6E" unicode="&#x1e6e;" horiz-adv-x="608" 
d="M29 700h551v-49h-249v-651h-55v651h-247v49zM437 -107h-265v36h266z" />
    <glyph glyph-name="uni1E6F" unicode="&#x1e6f;" horiz-adv-x="466" 
d="M425 22q-22 -14 -57 -22.5t-66 -8.5q-69 0 -110.5 40.5t-41.5 111.5v346h-110v49h110l5 148h48v-148h199v-49h-199v-337q0 -52 30 -82.5t77 -30.5q25 0 54 7t49 18zM428 -109h-265v36h266z" />
    <glyph glyph-name="Wgrave" unicode="&#x1e80;" horiz-adv-x="1038" 
d="M755 69l201 632h58l-227 -701h-60l-208 609l-207 -609h-60l-228 700h58l203 -631l209 631h50zM535 753l-36 -4l-89 99l48 14z" />
    <glyph glyph-name="wgrave" unicode="&#x1e81;" horiz-adv-x="859" 
d="M619 63l164 475h56l-190 -538h-60l-159 467l-160 -467h-60l-190 538h56l164 -475l161 475h56zM448 598l-37 -6l-113 126l51 14z" />
    <glyph glyph-name="Wacute" unicode="&#x1e82;" horiz-adv-x="1038" 
d="M755 69l201 632h58l-227 -701h-60l-208 609l-207 -609h-60l-228 700h58l203 -631l209 631h50zM630 848l-90 -99l-36 4l77 109z" />
    <glyph glyph-name="wacute" unicode="&#x1e83;" horiz-adv-x="859" 
d="M619 63l164 475h56l-190 -538h-60l-159 467l-160 -467h-60l-190 538h56l164 -475l161 475h56zM562 718l-114 -126l-36 6l98 134z" />
    <glyph glyph-name="Wdieresis" unicode="&#x1e84;" horiz-adv-x="1038" 
d="M755 69l201 632h58l-227 -701h-60l-208 609l-207 -609h-60l-228 700h58l203 -631l209 631h50zM476 768h-52v101h52v-101zM624 768h-52v101h52v-101z" />
    <glyph glyph-name="wdieresis" unicode="&#x1e85;" horiz-adv-x="859" 
d="M619 63l164 475h56l-190 -538h-60l-159 467l-160 -467h-60l-190 538h56l164 -475l161 475h56zM373 619h-41v105h41v-105zM525 619h-42v105h42v-105z" />
    <glyph glyph-name="uni1E8E" unicode="&#x1e8e;" horiz-adv-x="665" 
d="M585 700h61l-286 -436v-264h-56v267l-285 433h61l253 -388zM361 768h-56v102h56v-102z" />
    <glyph glyph-name="uni1E8F" unicode="&#x1e8f;" horiz-adv-x="567" 
d="M494 538h58l-239 -538l-24 -56q-29 -65 -68.5 -94.5t-99.5 -29.5q-25 0 -51 7.5t-45 18.5l17 39q35 -19 78 -19q41 0 68 21.5t49 68.5l20 46l-238 536h58l208 -476h1zM340 619h-56v105h56v-105z" />
    <glyph glyph-name="uni1E92" unicode="&#x1e92;" horiz-adv-x="693" 
d="M628 0h-567v35l486 616h-475v49h552v-35l-486 -615h490v-50zM314 -157v105h56v-105h-56z" />
    <glyph glyph-name="uni1E93" unicode="&#x1e93;" horiz-adv-x="519" 
d="M483 0h-447v33l367 456h-358v49h433v-33l-368 -456h373v-49zM227 -157v105h56v-105h-56z" />
    <glyph glyph-name="uni1E97" unicode="&#x1e97;" horiz-adv-x="466" 
d="M425 22q-22 -14 -57 -22.5t-66 -8.5q-69 0 -110.5 40.5t-41.5 111.5v346h-110v49h110l5 148h48v-148h199v-49h-199v-337q0 -52 30 -82.5t77 -30.5q25 0 54 7t49 18zM123 767h-41v105h41v-105zM275 767h-42v105h42v-105z" />
    <glyph glyph-name="uni1E9E" unicode="&#x1e9e;" horiz-adv-x="769" 
d="M515 387q197 -53 197 -205q0 -87 -63.5 -139t-171.5 -52q-74 0 -140.5 25.5t-110.5 69.5l19 42q43 -41 103.5 -64t124.5 -23q88 0 136.5 39.5t48.5 103.5q0 60 -45 102t-133 61l-31 6l105 258q-56 22 -113 35t-106 13q-61 0 -106.5 -23t-70 -62.5t-24.5 -86.5v-487h-55
v493q0 59 31 108.5t88.5 78.5t132.5 29q65 0 142.5 -19t148.5 -50z" />
    <glyph glyph-name="uni1EA0" unicode="&#x1ea0;" horiz-adv-x="752" 
d="M729 0h-59l-82 176h-425l-82 -176h-57l325 700h54zM376 636l-190 -410h379zM347 -157v105h56v-105h-56z" />
    <glyph glyph-name="uni1EA1" unicode="&#x1ea1;" horiz-adv-x="567" 
d="M434 493.5q56 -53.5 56 -154.5v-339h-53v120q-25 -51 -81.5 -90t-131.5 -39q-86 0 -136 44.5t-50 117.5q0 77 52.5 121.5t155.5 44.5q93 0 191 -13v32q0 79 -44 119.5t-127 40.5q-46 0 -91 -15.5t-82 -45.5l-27 40q43 35 96 52.5t109 17.5q107 0 163 -53.5zM339.5 69
q45.5 29 71.5 74.5t26 90.5v27q-89 13 -180 13q-85 0 -126.5 -30.5t-41.5 -87.5q0 -56 38.5 -86t111.5 -30q55 0 100.5 29zM248 -157v105h56v-105h-56z" />
    <glyph glyph-name="uni1EA2" unicode="&#x1ea2;" horiz-adv-x="752" 
d="M729 0h-59l-82 176h-425l-82 -176h-57l325 700h54zM376 636l-190 -410h379zM346 754q24 20 38.5 41t14.5 47q0 17 -13 28.5t-32 11.5q-17 0 -36 -10l-2 26q29 13 54 13q30 0 48.5 -16.5t18.5 -40.5q0 -57 -63 -111z" />
    <glyph glyph-name="uni1EA3" unicode="&#x1ea3;" horiz-adv-x="567" 
d="M434 493.5q56 -53.5 56 -154.5v-339h-53v120q-25 -51 -81.5 -90t-131.5 -39q-86 0 -136 44.5t-50 117.5q0 77 52.5 121.5t155.5 44.5q93 0 191 -13v32q0 79 -44 119.5t-127 40.5q-46 0 -91 -15.5t-82 -45.5l-27 40q43 35 96 52.5t109 17.5q107 0 163 -53.5zM339.5 69
q45.5 29 71.5 74.5t26 90.5v27q-89 13 -180 13q-85 0 -126.5 -30.5t-41.5 -87.5q0 -56 38.5 -86t111.5 -30q55 0 100.5 29zM245 595q24 20 38.5 41t14.5 47q0 17 -13 28.5t-32 11.5q-17 0 -36 -10l-2 26q29 13 54 13q30 0 48.5 -16.5t18.5 -40.5q0 -57 -63 -111z" />
    <glyph glyph-name="uni1EA4" unicode="&#x1ea4;" horiz-adv-x="752" 
d="M554 916l46 -14l-86 -96l-35 5zM465 756l-87 100l-88 -100l-45 6l104 118h57l104 -118zM729 0h-59l-82 176h-425l-82 -176h-57l325 700h54zM376 636l-190 -410h379z" />
    <glyph glyph-name="uni1EA5" unicode="&#x1ea5;" horiz-adv-x="567" 
d="M434 493.5q56 -53.5 56 -154.5v-339h-53v120q-25 -51 -81.5 -90t-131.5 -39q-86 0 -136 44.5t-50 117.5q0 77 52.5 121.5t155.5 44.5q93 0 191 -13v32q0 79 -44 119.5t-127 40.5q-46 0 -91 -15.5t-82 -45.5l-27 40q43 35 96 52.5t109 17.5q107 0 163 -53.5zM339.5 69
q45.5 29 71.5 74.5t26 90.5v27q-89 13 -180 13q-85 0 -126.5 -30.5t-41.5 -87.5q0 -56 38.5 -86t111.5 -30q55 0 100.5 29zM301 727l95 -129l-41 -6l-80 109l-80 -109l-41 6l95 129h52zM407 907l-114 -126l-36 6l98 134z" />
    <glyph glyph-name="uni1EA6" unicode="&#x1ea6;" horiz-adv-x="752" 
d="M199 913l75 -105l-35 -5l-86 96zM378 856l-88 -100l-45 6l104 118h57l104 -118l-45 -6zM729 0h-59l-82 176h-425l-82 -176h-57l325 700h54zM376 636l-190 -410h379z" />
    <glyph glyph-name="uni1EA7" unicode="&#x1ea7;" horiz-adv-x="567" 
d="M434 493.5q56 -53.5 56 -154.5v-339h-53v120q-25 -51 -81.5 -90t-131.5 -39q-86 0 -136 44.5t-50 117.5q0 77 52.5 121.5t155.5 44.5q93 0 191 -13v32q0 79 -44 119.5t-127 40.5q-46 0 -91 -15.5t-82 -45.5l-27 40q43 35 96 52.5t109 17.5q107 0 163 -53.5zM339.5 69
q45.5 29 71.5 74.5t26 90.5v27q-89 13 -180 13q-85 0 -126.5 -30.5t-41.5 -87.5q0 -56 38.5 -86t111.5 -30q55 0 100.5 29zM301 727l95 -129l-41 -6l-80 109l-80 -109l-41 6l95 129h52zM294 787l-37 -6l-113 126l51 14z" />
    <glyph glyph-name="uni1EA8" unicode="&#x1ea8;" horiz-adv-x="752" 
d="M539 905q-12 11 -31 11q-16 0 -35 -10l-2 26q25 12 52 12q29 0 47 -15.5t18 -39.5q0 -55 -61 -107l-27 10q23 21 37 41t14 44q0 17 -12 28zM465 756l-87 100l-88 -100l-45 6l104 118h57l104 -118zM729 0h-59l-82 176h-425l-82 -176h-57l325 700h54zM376 636l-190 -410
h379z" />
    <glyph glyph-name="uni1EA9" unicode="&#x1ea9;" horiz-adv-x="567" 
d="M434 493.5q56 -53.5 56 -154.5v-339h-53v120q-25 -51 -81.5 -90t-131.5 -39q-86 0 -136 44.5t-50 117.5q0 77 52.5 121.5t155.5 44.5q93 0 191 -13v32q0 79 -44 119.5t-127 40.5q-46 0 -91 -15.5t-82 -45.5l-27 40q43 35 96 52.5t109 17.5q107 0 163 -53.5zM339.5 69
q45.5 29 71.5 74.5t26 90.5v27q-89 13 -180 13q-85 0 -126.5 -30.5t-41.5 -87.5q0 -56 38.5 -86t111.5 -30q55 0 100.5 29zM301 727l95 -129l-41 -6l-80 109l-80 -109l-41 6l95 129h52zM245 781q24 20 38.5 41t14.5 47q0 17 -13 28.5t-32 11.5q-17 0 -36 -10l-2 26
q29 13 54 13q30 0 48.5 -16.5t18.5 -40.5q0 -57 -63 -111z" />
    <glyph glyph-name="uni1EAA" unicode="&#x1eaa;" horiz-adv-x="752" 
d="M729 0h-59l-82 176h-425l-82 -176h-57l325 700h54zM376 636l-190 -410h379zM406 880l104 -118l-45 -6l-87 100l-88 -100l-45 6l104 118h57zM216 932q0 38 22 61.5t55 23.5q19 0 35 -7.5t39 -21.5q21 -12 33.5 -18t25.5 -6q23 0 37.5 16t14.5 41l30 -7q0 -38 -22 -61.5
t-56 -23.5q-19 0 -35 7.5t-39 21.5q-22 13 -33.5 18.5t-24.5 5.5q-23 0 -37.5 -16t-14.5 -41z" />
    <glyph glyph-name="uni1EAB" unicode="&#x1eab;" horiz-adv-x="567" 
d="M434 493.5q56 -53.5 56 -154.5v-339h-53v120q-25 -51 -81.5 -90t-131.5 -39q-86 0 -136 44.5t-50 117.5q0 77 52.5 121.5t155.5 44.5q93 0 191 -13v32q0 79 -44 119.5t-127 40.5q-46 0 -91 -15.5t-82 -45.5l-27 40q43 35 96 52.5t109 17.5q107 0 163 -53.5zM339.5 69
q45.5 29 71.5 74.5t26 90.5v27q-89 13 -180 13q-85 0 -126.5 -30.5t-41.5 -87.5q0 -56 38.5 -86t111.5 -30q55 0 100.5 29zM301 727l95 -129l-41 -6l-80 109l-80 -109l-41 6l95 129h52zM129 807q0 38 22 61.5t55 23.5q19 0 35 -7.5t39 -21.5q21 -12 33.5 -18t25.5 -6
q23 0 37.5 16t14.5 41l30 -7q0 -38 -22 -61.5t-56 -23.5q-19 0 -35 7.5t-39 21.5q-22 13 -33.5 18.5t-24.5 5.5q-23 0 -37.5 -16t-14.5 -41z" />
    <glyph glyph-name="uni1EAC" unicode="&#x1eac;" horiz-adv-x="752" 
d="M729 0h-59l-82 176h-425l-82 -176h-57l325 700h54zM376 636l-190 -410h379zM347 -157v105h56v-105h-56zM406 880l104 -118l-45 -6l-87 100l-88 -100l-45 6l104 118h57z" />
    <glyph glyph-name="uni1EAD" unicode="&#x1ead;" horiz-adv-x="567" 
d="M434 493.5q56 -53.5 56 -154.5v-339h-53v120q-25 -51 -81.5 -90t-131.5 -39q-86 0 -136 44.5t-50 117.5q0 77 52.5 121.5t155.5 44.5q93 0 191 -13v32q0 79 -44 119.5t-127 40.5q-46 0 -91 -15.5t-82 -45.5l-27 40q43 35 96 52.5t109 17.5q107 0 163 -53.5zM339.5 69
q45.5 29 71.5 74.5t26 90.5v27q-89 13 -180 13q-85 0 -126.5 -30.5t-41.5 -87.5q0 -56 38.5 -86t111.5 -30q55 0 100.5 29zM248 -157v105h56v-105h-56zM301 727l95 -129l-41 -6l-80 109l-80 -109l-41 6l95 129h52z" />
    <glyph glyph-name="uni1EAE" unicode="&#x1eae;" horiz-adv-x="752" 
d="M729 0h-59l-82 176h-425l-82 -176h-57l325 700h54zM376 636l-190 -410h379zM495 873q0 -58 -32.5 -92t-87.5 -34t-87.5 34t-32.5 92h40q0 -44 20.5 -68t59.5 -24q38 0 59 24t21 68h40zM487 986l-90 -99l-36 4l77 109z" />
    <glyph glyph-name="uni1EAF" unicode="&#x1eaf;" horiz-adv-x="572" 
d="M434 493.5q56 -53.5 56 -154.5v-339h-53v120q-25 -51 -81.5 -90t-131.5 -39q-86 0 -136 44.5t-50 117.5q0 77 52.5 121.5t155.5 44.5q93 0 191 -13v32q0 79 -44 119.5t-127 40.5q-46 0 -91 -15.5t-82 -45.5l-27 40q43 35 96 52.5t109 17.5q107 0 163 -53.5zM339.5 69
q45.5 29 71.5 74.5t26 90.5v27q-89 13 -180 13q-85 0 -126.5 -30.5t-41.5 -87.5q0 -56 38.5 -86t111.5 -30q55 0 100.5 29zM398 719q0 -58 -32.5 -92t-87.5 -34t-87.5 34t-32.5 92h40q0 -44 20.5 -68t59.5 -24q38 0 59 24t21 68h40zM411 901l-114 -126l-36 6l98 134z" />
    <glyph glyph-name="uni1EB0" unicode="&#x1eb0;" horiz-adv-x="752" 
d="M729 0h-59l-82 176h-425l-82 -176h-57l325 700h54zM376 636l-190 -410h379zM495 873q0 -58 -32.5 -92t-87.5 -34t-87.5 34t-32.5 92h40q0 -44 20.5 -68t59.5 -24q38 0 59 24t21 68h40zM392 891l-36 -4l-89 99l48 14z" />
    <glyph glyph-name="uni1EB1" unicode="&#x1eb1;" horiz-adv-x="572" 
d="M434 493.5q56 -53.5 56 -154.5v-339h-53v120q-25 -51 -81.5 -90t-131.5 -39q-86 0 -136 44.5t-50 117.5q0 77 52.5 121.5t155.5 44.5q93 0 191 -13v32q0 79 -44 119.5t-127 40.5q-46 0 -91 -15.5t-82 -45.5l-27 40q43 35 96 52.5t109 17.5q107 0 163 -53.5zM339.5 69
q45.5 29 71.5 74.5t26 90.5v27q-89 13 -180 13q-85 0 -126.5 -30.5t-41.5 -87.5q0 -56 38.5 -86t111.5 -30q55 0 100.5 29zM398 719q0 -58 -32.5 -92t-87.5 -34t-87.5 34t-32.5 92h40q0 -44 20.5 -68t59.5 -24q38 0 59 24t21 68h40zM297 781l-37 -6l-113 126l51 14z" />
    <glyph glyph-name="uni1EB2" unicode="&#x1eb2;" horiz-adv-x="752" 
d="M385 1005q-12 11 -31 11q-17 0 -34 -10l-3 25q25 12 52 12q29 0 47 -15.5t18 -39.5q0 -55 -61 -105l-27 10q23 19 37 39.5t14 44.5q0 17 -12 28zM287.5 781q-32.5 34 -32.5 92h40q0 -44 20.5 -68t59.5 -24q38 0 59 24t21 68h40q0 -58 -32.5 -92t-87.5 -34t-87.5 34z
M729 0h-59l-82 176h-425l-82 -176h-57l325 700h54zM376 636l-190 -410h379z" />
    <glyph glyph-name="uni1EB3" unicode="&#x1eb3;" horiz-adv-x="572" 
d="M434 493.5q56 -53.5 56 -154.5v-339h-53v120q-25 -51 -81.5 -90t-131.5 -39q-86 0 -136 44.5t-50 117.5q0 77 52.5 121.5t155.5 44.5q93 0 191 -13v32q0 79 -44 119.5t-127 40.5q-46 0 -91 -15.5t-82 -45.5l-27 40q43 35 96 52.5t109 17.5q107 0 163 -53.5zM339.5 69
q45.5 29 71.5 74.5t26 90.5v27q-89 13 -180 13q-85 0 -126.5 -30.5t-41.5 -87.5q0 -56 38.5 -86t111.5 -30q55 0 100.5 29zM398 719q0 -58 -32.5 -92t-87.5 -34t-87.5 34t-32.5 92h40q0 -44 20.5 -68t59.5 -24q38 0 59 24t21 68h40zM248 775q24 20 38.5 41t14.5 47
q0 17 -13 28.5t-32 11.5q-17 0 -36 -10l-2 26q29 13 54 13q30 0 48.5 -16.5t18.5 -40.5q0 -57 -63 -111z" />
    <glyph glyph-name="uni1EB4" unicode="&#x1eb4;" horiz-adv-x="752" 
d="M729 0h-59l-82 176h-425l-82 -176h-57l325 700h54zM376 636l-190 -410h379zM495 873q0 -58 -32.5 -92t-87.5 -34t-87.5 34t-32.5 92h40q0 -44 20.5 -68t59.5 -24q38 0 59 24t21 68h40zM216 902q0 38 22 61.5t55 23.5q19 0 35 -7.5t39 -21.5q21 -12 33.5 -18t25.5 -6
q23 0 37.5 16t14.5 41l30 -7q0 -38 -22 -61.5t-56 -23.5q-19 0 -35 7.5t-39 21.5q-22 13 -33.5 18.5t-24.5 5.5q-23 0 -37.5 -16t-14.5 -41z" />
    <glyph glyph-name="uni1EB5" unicode="&#x1eb5;" horiz-adv-x="572" 
d="M434 493.5q56 -53.5 56 -154.5v-339h-53v120q-25 -51 -81.5 -90t-131.5 -39q-86 0 -136 44.5t-50 117.5q0 77 52.5 121.5t155.5 44.5q93 0 191 -13v32q0 79 -44 119.5t-127 40.5q-46 0 -91 -15.5t-82 -45.5l-27 40q43 35 96 52.5t109 17.5q107 0 163 -53.5zM339.5 69
q45.5 29 71.5 74.5t26 90.5v27q-89 13 -180 13q-85 0 -126.5 -30.5t-41.5 -87.5q0 -56 38.5 -86t111.5 -30q55 0 100.5 29zM398 719q0 -58 -32.5 -92t-87.5 -34t-87.5 34t-32.5 92h40q0 -44 20.5 -68t59.5 -24q38 0 59 24t21 68h40zM135 801q0 38 22 61.5t55 23.5
q19 0 35 -7.5t39 -21.5q21 -12 33.5 -18t25.5 -6q23 0 37.5 16t14.5 41l30 -7q0 -38 -22 -61.5t-56 -23.5q-19 0 -35 7.5t-39 21.5q-22 13 -33.5 18.5t-24.5 5.5q-23 0 -37.5 -16t-14.5 -41z" />
    <glyph glyph-name="uni1EB6" unicode="&#x1eb6;" horiz-adv-x="752" 
d="M729 0h-59l-82 176h-425l-82 -176h-57l325 700h54zM376 636l-190 -410h379zM347 -157v105h56v-105h-56zM495 873q0 -58 -32.5 -92t-87.5 -34t-87.5 34t-32.5 92h40q0 -44 20.5 -68t59.5 -24q38 0 59 24t21 68h40z" />
    <glyph glyph-name="uni1EB7" unicode="&#x1eb7;" horiz-adv-x="567" 
d="M434 493.5q56 -53.5 56 -154.5v-339h-53v120q-25 -51 -81.5 -90t-131.5 -39q-86 0 -136 44.5t-50 117.5q0 77 52.5 121.5t155.5 44.5q93 0 191 -13v32q0 79 -44 119.5t-127 40.5q-46 0 -91 -15.5t-82 -45.5l-27 40q43 35 96 52.5t109 17.5q107 0 163 -53.5zM339.5 69
q45.5 29 71.5 74.5t26 90.5v27q-89 13 -180 13q-85 0 -126.5 -30.5t-41.5 -87.5q0 -56 38.5 -86t111.5 -30q55 0 100.5 29zM248 -157v105h56v-105h-56zM395 719q0 -58 -32.5 -92t-87.5 -34t-87.5 34t-32.5 92h40q0 -44 20.5 -68t59.5 -24q38 0 59 24t21 68h40z" />
    <glyph glyph-name="uni1EB8" unicode="&#x1eb8;" horiz-adv-x="683" 
d="M154 333v-283h477v-50h-531v700h521v-49h-467v-269h410v-49h-410zM317 -157v105h56v-105h-56z" />
    <glyph glyph-name="uni1EB9" unicode="&#x1eb9;" horiz-adv-x="616" 
d="M109 251q3 -62 33 -110t80.5 -74.5t113.5 -26.5q105 0 171 71l35 -32q-39 -41 -92.5 -64.5t-116.5 -23.5q-79 0 -142.5 36t-99.5 99.5t-36 142.5q0 80 34 143t95.5 98.5t141.5 35.5q72 0 127.5 -33t86.5 -93t31 -139q0 -4 -2 -30h-460zM176.5 442q-58.5 -56 -66.5 -145
h409q-6 94 -58 147.5t-135 53.5q-91 0 -149.5 -56zM287 -160v105h56v-105h-56z" />
    <glyph glyph-name="uni1EBA" unicode="&#x1eba;" horiz-adv-x="683" 
d="M154 333v-283h477v-50h-531v700h521v-49h-467v-269h410v-49h-410zM316 754q24 20 38.5 41t14.5 47q0 17 -13 28.5t-32 11.5q-17 0 -36 -10l-2 26q29 13 54 13q30 0 48.5 -16.5t18.5 -40.5q0 -57 -63 -111z" />
    <glyph glyph-name="uni1EBB" unicode="&#x1ebb;" horiz-adv-x="616" 
d="M109 251q3 -62 33 -110t80.5 -74.5t113.5 -26.5q105 0 171 71l35 -32q-39 -41 -92.5 -64.5t-116.5 -23.5q-79 0 -142.5 36t-99.5 99.5t-36 142.5q0 80 34 143t95.5 98.5t141.5 35.5q72 0 127.5 -33t86.5 -93t31 -139q0 -4 -2 -30h-460zM176.5 442q-58.5 -56 -66.5 -145
h409q-6 94 -58 147.5t-135 53.5q-91 0 -149.5 -56zM282 592q24 20 38.5 41t14.5 47q0 17 -13 28.5t-32 11.5q-17 0 -36 -10l-2 26q29 13 54 13q30 0 48.5 -16.5t18.5 -40.5q0 -57 -63 -111z" />
    <glyph glyph-name="uni1EBC" unicode="&#x1ebc;" horiz-adv-x="683" 
d="M154 333v-283h477v-50h-531v700h521v-49h-467v-269h410v-49h-410zM186 764q0 38 22 61.5t55 23.5q19 0 35 -7.5t39 -21.5q21 -12 33.5 -18t25.5 -6q23 0 37.5 16t14.5 41l30 -7q0 -38 -22 -61.5t-56 -23.5q-19 0 -35 7.5t-39 21.5q-22 13 -33.5 18.5t-24.5 5.5
q-23 0 -37.5 -16t-14.5 -41z" />
    <glyph glyph-name="uni1EBD" unicode="&#x1ebd;" horiz-adv-x="616" 
d="M109 251q3 -62 33 -110t80.5 -74.5t113.5 -26.5q105 0 171 71l35 -32q-39 -41 -92.5 -64.5t-116.5 -23.5q-79 0 -142.5 36t-99.5 99.5t-36 142.5q0 80 34 143t95.5 98.5t141.5 35.5q72 0 127.5 -33t86.5 -93t31 -139q0 -4 -2 -30h-460zM176.5 442q-58.5 -56 -66.5 -145
h409q-6 94 -58 147.5t-135 53.5q-91 0 -149.5 -56zM167 618q0 38 22 61.5t55 23.5q19 0 35 -7.5t39 -21.5q21 -12 33.5 -18t25.5 -6q23 0 37.5 16t14.5 41l30 -7q0 -38 -22 -61.5t-56 -23.5q-19 0 -35 7.5t-39 21.5q-22 13 -33.5 18.5t-24.5 5.5q-23 0 -37.5 -16t-14.5 -41z
" />
    <glyph glyph-name="uni1EBE" unicode="&#x1ebe;" horiz-adv-x="683" 
d="M539 902l47 -13l-87 -96l-35 4zM435 756l-87 100l-88 -100l-45 6l104 118h57l104 -118zM154 333v-283h477v-50h-531v700h521v-49h-467v-269h410v-49h-410z" />
    <glyph glyph-name="uni1EBF" unicode="&#x1ebf;" horiz-adv-x="616" 
d="M109 251q3 -62 33 -110t80.5 -74.5t113.5 -26.5q105 0 171 71l35 -32q-39 -41 -92.5 -64.5t-116.5 -23.5q-79 0 -142.5 36t-99.5 99.5t-36 142.5q0 80 34 143t95.5 98.5t141.5 35.5q72 0 127.5 -33t86.5 -93t31 -139q0 -4 -2 -30h-460zM176.5 442q-58.5 -56 -66.5 -145
h409q-6 94 -58 147.5t-135 53.5q-91 0 -149.5 -56zM338 724l95 -129l-41 -6l-80 109l-80 -109l-41 6l95 129h52zM445 905l-114 -126l-36 6l98 134z" />
    <glyph glyph-name="uni1EC0" unicode="&#x1ec0;" horiz-adv-x="683" 
d="M215 762l35 40l-32 -5l-86 96l46 13l74 -102l67 76h57l104 -118l-45 -6l-87 100l-88 -100zM154 333v-283h477v-50h-531v700h521v-49h-467v-269h410v-49h-410z" />
    <glyph glyph-name="uni1EC1" unicode="&#x1ec1;" horiz-adv-x="616" 
d="M109 251q3 -62 33 -110t80.5 -74.5t113.5 -26.5q105 0 171 71l35 -32q-39 -41 -92.5 -64.5t-116.5 -23.5q-79 0 -142.5 36t-99.5 99.5t-36 142.5q0 80 34 143t95.5 98.5t141.5 35.5q72 0 127.5 -33t86.5 -93t31 -139q0 -4 -2 -30h-460zM176.5 442q-58.5 -56 -66.5 -145
h409q-6 94 -58 147.5t-135 53.5q-91 0 -149.5 -56zM338 724l95 -129l-41 -6l-80 109l-80 -109l-41 6l95 129h52zM331 785l-37 -6l-113 126l51 14z" />
    <glyph glyph-name="uni1EC2" unicode="&#x1ec2;" horiz-adv-x="683" 
d="M502 906q-12 11 -31 11q-17 0 -34 -10l-3 25q27 13 52 13q29 0 46.5 -15.5t17.5 -39.5q0 -55 -61 -105l-26 10q23 20 37 40t14 43q0 17 -12 28zM435 756l-87 100l-88 -100l-45 6l104 118h57l104 -118zM154 333v-283h477v-50h-531v700h521v-49h-467v-269h410v-49h-410z
" />
    <glyph glyph-name="uni1EC3" unicode="&#x1ec3;" horiz-adv-x="616" 
d="M109 251q3 -62 33 -110t80.5 -74.5t113.5 -26.5q105 0 171 71l35 -32q-39 -41 -92.5 -64.5t-116.5 -23.5q-79 0 -142.5 36t-99.5 99.5t-36 142.5q0 80 34 143t95.5 98.5t141.5 35.5q72 0 127.5 -33t86.5 -93t31 -139q0 -4 -2 -30h-460zM176.5 442q-58.5 -56 -66.5 -145
h409q-6 94 -58 147.5t-135 53.5q-91 0 -149.5 -56zM338 724l95 -129l-41 -6l-80 109l-80 -109l-41 6l95 129h52zM282 779q24 20 38.5 41t14.5 47q0 17 -13 28.5t-32 11.5q-17 0 -36 -10l-2 26q29 13 54 13q30 0 48.5 -16.5t18.5 -40.5q0 -57 -63 -111z" />
    <glyph glyph-name="uni1EC4" unicode="&#x1ec4;" horiz-adv-x="683" 
d="M154 333v-283h477v-50h-531v700h521v-49h-467v-269h410v-49h-410zM376 880l104 -118l-45 -6l-87 100l-88 -100l-45 6l104 118h57zM186 932q0 38 22 61.5t55 23.5q19 0 35 -7.5t39 -21.5q21 -12 33.5 -18t25.5 -6q23 0 37.5 16t14.5 41l30 -7q0 -38 -22 -61.5t-56 -23.5
q-19 0 -35 7.5t-39 21.5q-22 13 -33.5 18.5t-24.5 5.5q-23 0 -37.5 -16t-14.5 -41z" />
    <glyph glyph-name="uni1EC5" unicode="&#x1ec5;" horiz-adv-x="616" 
d="M109 251q3 -62 33 -110t80.5 -74.5t113.5 -26.5q105 0 171 71l35 -32q-39 -41 -92.5 -64.5t-116.5 -23.5q-79 0 -142.5 36t-99.5 99.5t-36 142.5q0 80 34 143t95.5 98.5t141.5 35.5q72 0 127.5 -33t86.5 -93t31 -139q0 -4 -2 -30h-460zM176.5 442q-58.5 -56 -66.5 -145
h409q-6 94 -58 147.5t-135 53.5q-91 0 -149.5 -56zM338 724l95 -129l-41 -6l-80 109l-80 -109l-41 6l95 129h52zM167 805q0 38 22 61.5t55 23.5q19 0 35 -7.5t39 -21.5q21 -12 33.5 -18t25.5 -6q23 0 37.5 16t14.5 41l30 -7q0 -38 -22 -61.5t-56 -23.5q-19 0 -35 7.5
t-39 21.5q-22 13 -33.5 18.5t-24.5 5.5q-23 0 -37.5 -16t-14.5 -41z" />
    <glyph glyph-name="uni1EC6" unicode="&#x1ec6;" horiz-adv-x="683" 
d="M154 333v-283h477v-50h-531v700h521v-49h-467v-269h410v-49h-410zM317 -157v105h56v-105h-56zM376 880l104 -118l-45 -6l-87 100l-88 -100l-45 6l104 118h57z" />
    <glyph glyph-name="uni1EC7" unicode="&#x1ec7;" horiz-adv-x="616" 
d="M109 251q3 -62 33 -110t80.5 -74.5t113.5 -26.5q105 0 171 71l35 -32q-39 -41 -92.5 -64.5t-116.5 -23.5q-79 0 -142.5 36t-99.5 99.5t-36 142.5q0 80 34 143t95.5 98.5t141.5 35.5q72 0 127.5 -33t86.5 -93t31 -139q0 -4 -2 -30h-460zM176.5 442q-58.5 -56 -66.5 -145
h409q-6 94 -58 147.5t-135 53.5q-91 0 -149.5 -56zM287 -160v105h56v-105h-56zM338 724l95 -129l-41 -6l-80 109l-80 -109l-41 6l95 129h52z" />
    <glyph glyph-name="uni1EC8" unicode="&#x1ec8;" horiz-adv-x="255" 
d="M155 0h-55v700h55v-700zM97 754q24 20 38.5 41t14.5 47q0 17 -13 28.5t-32 11.5q-17 0 -36 -10l-2 26q29 13 54 13q30 0 48.5 -16.5t18.5 -40.5q0 -57 -63 -111z" />
    <glyph glyph-name="uni1EC9" unicode="&#x1ec9;" horiz-adv-x="227" 
d="M140 0h-53v538h53v-538zM83 592q24 20 38.5 41t14.5 47q0 17 -13 28.5t-32 11.5q-17 0 -36 -10l-2 26q29 13 54 13q30 0 48.5 -16.5t18.5 -40.5q0 -57 -63 -111z" />
    <glyph glyph-name="uni1ECA" unicode="&#x1eca;" horiz-adv-x="255" 
d="M155 0h-55v700h55v-700zM98 -157v105h56v-105h-56z" />
    <glyph glyph-name="uni1ECB" unicode="&#x1ecb;" horiz-adv-x="227" 
d="M140 0h-53v538h53v-538zM142 619h-56v105h56v-105zM80 -157v105h56v-105h-56z" />
    <glyph glyph-name="uni1ECC" unicode="&#x1ecc;" horiz-adv-x="855" 
d="M243 37q-82 46 -128 128t-46 185t46.5 184.5t128 128t184.5 46.5t184.5 -46t128 -128t46.5 -185t-46.5 -184.5t-128.5 -128t-185 -46.5q-102 0 -184 46zM583.5 81q68.5 39 107 109.5t38.5 159.5t-38.5 159.5t-107 110t-155.5 39.5t-156 -39.5t-107.5 -110t-38.5 -159.5
t38.5 -159.5t107.5 -109.5t156 -39t155.5 39zM398 -157v105h56v-105h-56z" />
    <glyph glyph-name="uni1ECD" unicode="&#x1ecd;" 
d="M190.5 27q-63.5 36 -99.5 99.5t-36 142.5t36 142.5t99.5 99.5t142.5 36q80 0 144 -36t100 -99t36 -142q0 -80 -36 -143.5t-100 -99.5t-144 -36q-79 0 -142.5 36zM450.5 69.5q51.5 29.5 80.5 81.5t29 118q0 67 -29 119t-81 81t-117 29q-64 0 -115.5 -29t-80.5 -81.5
t-29 -118.5t29.5 -118t81 -81.5t115.5 -29.5q65 0 116.5 29.5zM305 -157v105h56v-105h-56z" />
    <glyph glyph-name="uni1ECE" unicode="&#x1ece;" horiz-adv-x="855" 
d="M243 37q-82 46 -128 128t-46 185t46.5 184.5t128 128t184.5 46.5t184.5 -46t128 -128t46.5 -185t-46.5 -184.5t-128.5 -128t-185 -46.5q-102 0 -184 46zM583.5 81q68.5 39 107 109.5t38.5 159.5t-38.5 159.5t-107 110t-155.5 39.5t-156 -39.5t-107.5 -110t-38.5 -159.5
t38.5 -159.5t107.5 -109.5t156 -39t155.5 39zM397 754q24 20 38.5 41t14.5 47q0 17 -13 28.5t-32 11.5q-17 0 -36 -10l-2 26q29 13 54 13q30 0 48.5 -16.5t18.5 -40.5q0 -57 -63 -111z" />
    <glyph glyph-name="uni1ECF" unicode="&#x1ecf;" 
d="M190.5 27q-63.5 36 -99.5 99.5t-36 142.5t36 142.5t99.5 99.5t142.5 36q80 0 144 -36t100 -99t36 -142q0 -80 -36 -143.5t-100 -99.5t-144 -36q-79 0 -142.5 36zM450.5 69.5q51.5 29.5 80.5 81.5t29 118q0 67 -29 119t-81 81t-117 29q-64 0 -115.5 -29t-80.5 -81.5
t-29 -118.5t29.5 -118t81 -81.5t115.5 -29.5q65 0 116.5 29.5zM304 592q24 20 38.5 41t14.5 47q0 17 -13 28.5t-32 11.5q-17 0 -36 -10l-2 26q29 13 54 13q30 0 48.5 -16.5t18.5 -40.5q0 -57 -63 -111z" />
    <glyph glyph-name="uni1ED0" unicode="&#x1ed0;" horiz-adv-x="855" 
d="M243 37q-82 46 -128 128t-46 185t46.5 184.5t128 128t184.5 46.5t184.5 -46t128 -128t46.5 -185t-46.5 -184.5t-128.5 -128t-185 -46.5q-102 0 -184 46zM583.5 81q68.5 39 107 109.5t38.5 159.5t-38.5 159.5t-107 110t-155.5 39.5t-156 -39.5t-107.5 -110t-38.5 -159.5
t38.5 -159.5t107.5 -109.5t156 -39t155.5 39zM457 880l104 -118l-45 -6l-87 100l-88 -100l-45 6l104 118h57zM539 1016l-90 -99l-36 4l77 109z" />
    <glyph glyph-name="uni1ED1" unicode="&#x1ed1;" 
d="M190.5 27q-63.5 36 -99.5 99.5t-36 142.5t36 142.5t99.5 99.5t142.5 36q80 0 144 -36t100 -99t36 -142q0 -80 -36 -143.5t-100 -99.5t-144 -36q-79 0 -142.5 36zM450.5 69.5q51.5 29.5 80.5 81.5t29 118q0 67 -29 119t-81 81t-117 29q-64 0 -115.5 -29t-80.5 -81.5
t-29 -118.5t29.5 -118t81 -81.5t115.5 -29.5q65 0 116.5 29.5zM360 724l95 -129l-41 -6l-80 109l-80 -109l-41 6l95 129h52zM467 905l-114 -126l-36 6l98 134z" />
    <glyph glyph-name="uni1ED2" unicode="&#x1ed2;" horiz-adv-x="855" 
d="M243 37q-82 46 -128 128t-46 185t46.5 184.5t128 128t184.5 46.5t184.5 -46t128 -128t46.5 -185t-46.5 -184.5t-128.5 -128t-185 -46.5q-102 0 -184 46zM583.5 81q68.5 39 107 109.5t38.5 159.5t-38.5 159.5t-107 110t-155.5 39.5t-156 -39.5t-107.5 -110t-38.5 -159.5
t38.5 -159.5t107.5 -109.5t156 -39t155.5 39zM457 880l104 -118l-45 -6l-87 100l-88 -100l-45 6l104 118h57zM443 921l-36 -4l-89 99l48 14z" />
    <glyph glyph-name="uni1ED3" unicode="&#x1ed3;" 
d="M190.5 27q-63.5 36 -99.5 99.5t-36 142.5t36 142.5t99.5 99.5t142.5 36q80 0 144 -36t100 -99t36 -142q0 -80 -36 -143.5t-100 -99.5t-144 -36q-79 0 -142.5 36zM450.5 69.5q51.5 29.5 80.5 81.5t29 118q0 67 -29 119t-81 81t-117 29q-64 0 -115.5 -29t-80.5 -81.5
t-29 -118.5t29.5 -118t81 -81.5t115.5 -29.5q65 0 116.5 29.5zM360 724l95 -129l-41 -6l-80 109l-80 -109l-41 6l95 129h52zM353 785l-37 -6l-113 126l51 14z" />
    <glyph glyph-name="uni1ED4" unicode="&#x1ed4;" horiz-adv-x="855" 
d="M243 37q-82 46 -128 128t-46 185t46.5 184.5t128 128t184.5 46.5t184.5 -46t128 -128t46.5 -185t-46.5 -184.5t-128.5 -128t-185 -46.5q-102 0 -184 46zM583.5 81q68.5 39 107 109.5t38.5 159.5t-38.5 159.5t-107 110t-155.5 39.5t-156 -39.5t-107.5 -110t-38.5 -159.5
t38.5 -159.5t107.5 -109.5t156 -39t155.5 39zM457 880l104 -118l-45 -6l-87 100l-88 -100l-45 6l104 118h57zM397 923q24 20 38.5 41t14.5 47q0 17 -13 28.5t-32 11.5q-17 0 -36 -10l-2 26q29 13 54 13q30 0 48.5 -16.5t18.5 -40.5q0 -57 -63 -111z" />
    <glyph glyph-name="uni1ED5" unicode="&#x1ed5;" 
d="M190.5 27q-63.5 36 -99.5 99.5t-36 142.5t36 142.5t99.5 99.5t142.5 36q80 0 144 -36t100 -99t36 -142q0 -80 -36 -143.5t-100 -99.5t-144 -36q-79 0 -142.5 36zM450.5 69.5q51.5 29.5 80.5 81.5t29 118q0 67 -29 119t-81 81t-117 29q-64 0 -115.5 -29t-80.5 -81.5
t-29 -118.5t29.5 -118t81 -81.5t115.5 -29.5q65 0 116.5 29.5zM360 724l95 -129l-41 -6l-80 109l-80 -109l-41 6l95 129h52zM304 779q24 20 38.5 41t14.5 47q0 17 -13 28.5t-32 11.5q-17 0 -36 -10l-2 26q29 13 54 13q30 0 48.5 -16.5t18.5 -40.5q0 -57 -63 -111z" />
    <glyph glyph-name="uni1ED6" unicode="&#x1ed6;" horiz-adv-x="855" 
d="M243 37q-82 46 -128 128t-46 185t46.5 184.5t128 128t184.5 46.5t184.5 -46t128 -128t46.5 -185t-46.5 -184.5t-128.5 -128t-185 -46.5q-102 0 -184 46zM583.5 81q68.5 39 107 109.5t38.5 159.5t-38.5 159.5t-107 110t-155.5 39.5t-156 -39.5t-107.5 -110t-38.5 -159.5
t38.5 -159.5t107.5 -109.5t156 -39t155.5 39zM457 880l104 -118l-45 -6l-87 100l-88 -100l-45 6l104 118h57zM267 932q0 38 22 61.5t55 23.5q19 0 35 -7.5t39 -21.5q21 -12 33.5 -18t25.5 -6q23 0 37.5 16t14.5 41l30 -7q0 -38 -22 -61.5t-56 -23.5q-19 0 -35 7.5t-39 21.5
q-22 13 -33.5 18.5t-24.5 5.5q-23 0 -37.5 -16t-14.5 -41z" />
    <glyph glyph-name="uni1ED7" unicode="&#x1ed7;" 
d="M190.5 27q-63.5 36 -99.5 99.5t-36 142.5t36 142.5t99.5 99.5t142.5 36q80 0 144 -36t100 -99t36 -142q0 -80 -36 -143.5t-100 -99.5t-144 -36q-79 0 -142.5 36zM450.5 69.5q51.5 29.5 80.5 81.5t29 118q0 67 -29 119t-81 81t-117 29q-64 0 -115.5 -29t-80.5 -81.5
t-29 -118.5t29.5 -118t81 -81.5t115.5 -29.5q65 0 116.5 29.5zM360 724l95 -129l-41 -6l-80 109l-80 -109l-41 6l95 129h52zM189 805q0 38 22 61.5t55 23.5q19 0 35 -7.5t39 -21.5q21 -12 33.5 -18t25.5 -6q23 0 37.5 16t14.5 41l30 -7q0 -38 -22 -61.5t-56 -23.5
q-19 0 -35 7.5t-39 21.5q-22 13 -33.5 18.5t-24.5 5.5q-23 0 -37.5 -16t-14.5 -41z" />
    <glyph glyph-name="uni1ED8" unicode="&#x1ed8;" horiz-adv-x="855" 
d="M243 37q-82 46 -128 128t-46 185t46.5 184.5t128 128t184.5 46.5t184.5 -46t128 -128t46.5 -185t-46.5 -184.5t-128.5 -128t-185 -46.5q-102 0 -184 46zM583.5 81q68.5 39 107 109.5t38.5 159.5t-38.5 159.5t-107 110t-155.5 39.5t-156 -39.5t-107.5 -110t-38.5 -159.5
t38.5 -159.5t107.5 -109.5t156 -39t155.5 39zM398 -157v105h56v-105h-56zM457 880l104 -118l-45 -6l-87 100l-88 -100l-45 6l104 118h57z" />
    <glyph glyph-name="uni1ED9" unicode="&#x1ed9;" 
d="M190.5 27q-63.5 36 -99.5 99.5t-36 142.5t36 142.5t99.5 99.5t142.5 36q80 0 144 -36t100 -99t36 -142q0 -80 -36 -143.5t-100 -99.5t-144 -36q-79 0 -142.5 36zM450.5 69.5q51.5 29.5 80.5 81.5t29 118q0 67 -29 119t-81 81t-117 29q-64 0 -115.5 -29t-80.5 -81.5
t-29 -118.5t29.5 -118t81 -81.5t115.5 -29.5q65 0 116.5 29.5zM305 -157v105h56v-105h-56zM360 724l95 -129l-41 -6l-80 109l-80 -109l-41 6l95 129h52z" />
    <glyph glyph-name="uni1EDA" unicode="&#x1eda;" horiz-adv-x="855" 
d="M757.5 500q29.5 -69 29.5 -150q0 -103 -46.5 -184.5t-128.5 -128t-185 -46.5q-102 0 -184 46t-128 128t-46 185t46.5 184.5t128 128t184.5 46.5q115 0 204 -58q37 -3 61 11t24 47q0 21 -10 48l46 3q11 -30 11 -59q0 -40 -24 -62t-65 -21q53 -49 82.5 -118zM583.5 81
q68.5 39 107 109.5t38.5 159.5t-38.5 159.5t-107 110t-155.5 39.5t-156 -39.5t-107.5 -110t-38.5 -159.5t38.5 -159.5t107.5 -109.5t156 -39t155.5 39zM539 848l-90 -99l-36 4l77 109z" />
    <glyph glyph-name="uni1EDB" unicode="&#x1edb;" 
d="M588.5 389.5q24.5 -54.5 24.5 -119.5q0 -80 -36 -143.5t-100 -99.5t-144 -36q-79 0 -142.5 36t-99.5 99.5t-36 142.5t36 142.5t99.5 99.5t142.5 36q74 0 136 -31q6 -1 19 -1q31 0 50 14t19 44q0 21 -10 48l46 3q12 -33 12 -59q0 -38 -23 -60t-63 -23q45 -38 69.5 -92.5z
M450.5 69.5q51.5 29.5 80.5 81.5t29 118q0 67 -29 119t-81 81t-117 29q-64 0 -115.5 -29t-80.5 -81.5t-29 -118.5t29.5 -118t81 -81.5t115.5 -29.5q65 0 116.5 29.5zM467 718l-114 -126l-36 6l98 134z" />
    <glyph glyph-name="uni1EDC" unicode="&#x1edc;" horiz-adv-x="855" 
d="M757.5 500q29.5 -69 29.5 -150q0 -103 -46.5 -184.5t-128.5 -128t-185 -46.5q-102 0 -184 46t-128 128t-46 185t46.5 184.5t128 128t184.5 46.5q115 0 204 -58q37 -3 61 11t24 47q0 21 -10 48l46 3q11 -30 11 -59q0 -40 -24 -62t-65 -21q53 -49 82.5 -118zM583.5 81
q68.5 39 107 109.5t38.5 159.5t-38.5 159.5t-107 110t-155.5 39.5t-156 -39.5t-107.5 -110t-38.5 -159.5t38.5 -159.5t107.5 -109.5t156 -39t155.5 39zM443 753l-36 -4l-89 99l48 14z" />
    <glyph glyph-name="uni1EDD" unicode="&#x1edd;" 
d="M588.5 389.5q24.5 -54.5 24.5 -119.5q0 -80 -36 -143.5t-100 -99.5t-144 -36q-79 0 -142.5 36t-99.5 99.5t-36 142.5t36 142.5t99.5 99.5t142.5 36q74 0 136 -31q6 -1 19 -1q31 0 50 14t19 44q0 21 -10 48l46 3q12 -33 12 -59q0 -38 -23 -60t-63 -23q45 -38 69.5 -92.5z
M450.5 69.5q51.5 29.5 80.5 81.5t29 118q0 67 -29 119t-81 81t-117 29q-64 0 -115.5 -29t-80.5 -81.5t-29 -118.5t29.5 -118t81 -81.5t115.5 -29.5q65 0 116.5 29.5zM353 598l-37 -6l-113 126l51 14z" />
    <glyph glyph-name="uni1EDE" unicode="&#x1ede;" horiz-adv-x="855" 
d="M757.5 500q29.5 -69 29.5 -150q0 -103 -46.5 -184.5t-128.5 -128t-185 -46.5q-102 0 -184 46t-128 128t-46 185t46.5 184.5t128 128t184.5 46.5q115 0 204 -58q37 -3 61 11t24 47q0 21 -10 48l46 3q11 -30 11 -59q0 -40 -24 -62t-65 -21q53 -49 82.5 -118zM583.5 81
q68.5 39 107 109.5t38.5 159.5t-38.5 159.5t-107 110t-155.5 39.5t-156 -39.5t-107.5 -110t-38.5 -159.5t38.5 -159.5t107.5 -109.5t156 -39t155.5 39zM397 754q24 20 38.5 41t14.5 47q0 17 -13 28.5t-32 11.5q-17 0 -36 -10l-2 26q29 13 54 13q30 0 48.5 -16.5t18.5 -40.5
q0 -57 -63 -111z" />
    <glyph glyph-name="uni1EDF" unicode="&#x1edf;" 
d="M588.5 389.5q24.5 -54.5 24.5 -119.5q0 -80 -36 -143.5t-100 -99.5t-144 -36q-79 0 -142.5 36t-99.5 99.5t-36 142.5t36 142.5t99.5 99.5t142.5 36q74 0 136 -31q6 -1 19 -1q31 0 50 14t19 44q0 21 -10 48l46 3q12 -33 12 -59q0 -38 -23 -60t-63 -23q45 -38 69.5 -92.5z
M450.5 69.5q51.5 29.5 80.5 81.5t29 118q0 67 -29 119t-81 81t-117 29q-64 0 -115.5 -29t-80.5 -81.5t-29 -118.5t29.5 -118t81 -81.5t115.5 -29.5q65 0 116.5 29.5zM304 592q24 20 38.5 41t14.5 47q0 17 -13 28.5t-32 11.5q-17 0 -36 -10l-2 26q29 13 54 13
q30 0 48.5 -16.5t18.5 -40.5q0 -57 -63 -111z" />
    <glyph glyph-name="uni1EE0" unicode="&#x1ee0;" horiz-adv-x="855" 
d="M757.5 500q29.5 -69 29.5 -150q0 -103 -46.5 -184.5t-128.5 -128t-185 -46.5q-102 0 -184 46t-128 128t-46 185t46.5 184.5t128 128t184.5 46.5q115 0 204 -58q37 -3 61 11t24 47q0 21 -10 48l46 3q11 -30 11 -59q0 -40 -24 -62t-65 -21q53 -49 82.5 -118zM583.5 81
q68.5 39 107 109.5t38.5 159.5t-38.5 159.5t-107 110t-155.5 39.5t-156 -39.5t-107.5 -110t-38.5 -159.5t38.5 -159.5t107.5 -109.5t156 -39t155.5 39zM267 764q0 38 22 61.5t55 23.5q19 0 35 -7.5t39 -21.5q21 -12 33.5 -18t25.5 -6q23 0 37.5 16t14.5 41l30 -7
q0 -38 -22 -61.5t-56 -23.5q-19 0 -35 7.5t-39 21.5q-22 13 -33.5 18.5t-24.5 5.5q-23 0 -37.5 -16t-14.5 -41z" />
    <glyph glyph-name="uni1EE1" unicode="&#x1ee1;" 
d="M588.5 389.5q24.5 -54.5 24.5 -119.5q0 -80 -36 -143.5t-100 -99.5t-144 -36q-79 0 -142.5 36t-99.5 99.5t-36 142.5t36 142.5t99.5 99.5t142.5 36q74 0 136 -31q6 -1 19 -1q31 0 50 14t19 44q0 21 -10 48l46 3q12 -33 12 -59q0 -38 -23 -60t-63 -23q45 -38 69.5 -92.5z
M450.5 69.5q51.5 29.5 80.5 81.5t29 118q0 67 -29 119t-81 81t-117 29q-64 0 -115.5 -29t-80.5 -81.5t-29 -118.5t29.5 -118t81 -81.5t115.5 -29.5q65 0 116.5 29.5zM189 618q0 38 22 61.5t55 23.5q19 0 35 -7.5t39 -21.5q21 -12 33.5 -18t25.5 -6q23 0 37.5 16t14.5 41
l30 -7q0 -38 -22 -61.5t-56 -23.5q-19 0 -35 7.5t-39 21.5q-22 13 -33.5 18.5t-24.5 5.5q-23 0 -37.5 -16t-14.5 -41z" />
    <glyph glyph-name="uni1EE2" unicode="&#x1ee2;" horiz-adv-x="855" 
d="M757.5 500q29.5 -69 29.5 -150q0 -103 -46.5 -184.5t-128.5 -128t-185 -46.5q-102 0 -184 46t-128 128t-46 185t46.5 184.5t128 128t184.5 46.5q115 0 204 -58q37 -3 61 11t24 47q0 21 -10 48l46 3q11 -30 11 -59q0 -40 -24 -62t-65 -21q53 -49 82.5 -118zM583.5 81
q68.5 39 107 109.5t38.5 159.5t-38.5 159.5t-107 110t-155.5 39.5t-156 -39.5t-107.5 -110t-38.5 -159.5t38.5 -159.5t107.5 -109.5t156 -39t155.5 39zM398 -157v105h56v-105h-56z" />
    <glyph glyph-name="uni1EE3" unicode="&#x1ee3;" 
d="M588.5 389.5q24.5 -54.5 24.5 -119.5q0 -80 -36 -143.5t-100 -99.5t-144 -36q-79 0 -142.5 36t-99.5 99.5t-36 142.5t36 142.5t99.5 99.5t142.5 36q74 0 136 -31q6 -1 19 -1q31 0 50 14t19 44q0 21 -10 48l46 3q12 -33 12 -59q0 -38 -23 -60t-63 -23q45 -38 69.5 -92.5z
M450.5 69.5q51.5 29.5 80.5 81.5t29 118q0 67 -29 119t-81 81t-117 29q-64 0 -115.5 -29t-80.5 -81.5t-29 -118.5t29.5 -118t81 -81.5t115.5 -29.5q65 0 116.5 29.5zM305 -157v105h56v-105h-56z" />
    <glyph glyph-name="uni1EE4" unicode="&#x1ee4;" horiz-adv-x="731" 
d="M214 26.5q-65 35.5 -100 102t-35 157.5v414h55v-405q0 -116 62 -181t170 -65q107 0 169.5 65t62.5 181v405h54v-414q0 -91 -34.5 -157.5t-99.5 -102t-152 -35.5t-152 35.5zM336 -157v105h56v-105h-56z" />
    <glyph glyph-name="uni1EE5" unicode="&#x1ee5;" horiz-adv-x="645" 
d="M505 538h53v-538h-53v114q-30 -54 -86 -88.5t-128 -34.5q-97 0 -155 63t-58 170v314h52v-308q0 -88 46 -138.5t126 -50.5q55 0 101.5 27.5t74 76t27.5 109.5v284zM304 -157v105h56v-105h-56z" />
    <glyph glyph-name="uni1EE6" unicode="&#x1ee6;" horiz-adv-x="731" 
d="M214 26.5q-65 35.5 -100 102t-35 157.5v414h55v-405q0 -116 62 -181t170 -65q107 0 169.5 65t62.5 181v405h54v-414q0 -91 -34.5 -157.5t-99.5 -102t-152 -35.5t-152 35.5zM336 754q24 20 38.5 41t14.5 47q0 17 -13 28.5t-32 11.5q-17 0 -36 -10l-2 26q29 13 54 13
q30 0 48.5 -16.5t18.5 -40.5q0 -57 -63 -111z" />
    <glyph glyph-name="uni1EE7" unicode="&#x1ee7;" horiz-adv-x="645" 
d="M505 538h53v-538h-53v114q-30 -54 -86 -88.5t-128 -34.5q-97 0 -155 63t-58 170v314h52v-308q0 -88 46 -138.5t126 -50.5q55 0 101.5 27.5t74 76t27.5 109.5v284zM290 592q24 20 38.5 41t14.5 47q0 17 -13 28.5t-32 11.5q-17 0 -36 -10l-2 26q29 13 54 13
q30 0 48.5 -16.5t18.5 -40.5q0 -57 -63 -111z" />
    <glyph glyph-name="uni1EE8" unicode="&#x1ee8;" horiz-adv-x="748" 
d="M762 808q11 -29 11 -57q0 -38 -22.5 -59.5t-61.5 -21.5q-15 0 -37 5v-389q0 -91 -34.5 -157.5t-99.5 -102t-152 -35.5t-152 35.5t-100 102t-35 157.5v414h55v-405q0 -116 62 -181t170 -65q107 0 169.5 65t62.5 181v405h39l1 3q7 -1 21 -1q30 0 48.5 14t18.5 43
q0 19 -9 46zM477 848l-90 -99l-36 4l77 109z" />
    <glyph glyph-name="uni1EE9" unicode="&#x1ee9;" horiz-adv-x="661" 
d="M669 645q11 -29 11 -57q0 -37 -22.5 -58t-61.5 -21q-15 0 -38 5v-514h-53v114q-30 -54 -86 -88.5t-128 -34.5q-97 0 -155 63t-58 170v314h52v-308q0 -88 46 -138.5t126 -50.5q55 0 101.5 27.5t74 76t27.5 109.5v284h41l1 3q6 -1 19 -1q31 0 50 13.5t19 42.5q0 21 -10 47z
M452 718l-114 -126l-36 6l98 134z" />
    </font>
</defs>
</svg>
