<svg width="1399" height="151" viewBox="0 0 1399 151" fill="none" xmlns="http://www.w3.org/2000/svg">
<path d="M170.646 148H123.211L114.926 126.043H56.0988L47.6061 148H0.792969L63.1415 3.00344H108.298L170.646 148ZM85.7195 49.1952L67.9056 95.1798H103.119L85.7195 49.1952Z" fill="#633F94"/>
<path d="M244.62 150.9C230.949 150.9 218.175 149.174 206.3 145.721C194.562 142.131 184.619 137.367 176.472 131.429L193.457 100.151C213.066 111.337 230.397 116.929 245.449 116.929C250.282 116.929 254.148 116.101 257.048 114.444C260.086 112.648 261.605 110.301 261.605 107.401C261.605 103.672 259.879 100.98 256.427 99.3225C252.975 97.5273 246.622 95.6631 237.37 93.7298C218.866 89.8632 204.642 84.4086 194.7 77.3659C184.895 70.1852 179.993 59.7592 179.993 46.0881C179.993 36.2836 182.686 27.929 188.071 21.0244C193.457 14.1198 200.776 8.9414 210.028 5.4891C219.28 1.89871 229.775 0.103516 241.513 0.103516C265.955 0.103516 286.117 6.59384 301.997 19.5745L281.905 47.1238C276.105 42.981 269.753 39.8049 262.848 37.5955C256.082 35.2479 249.315 34.0741 242.549 34.0741C231.225 34.0741 225.563 37.2502 225.563 43.6025C225.563 46.6405 227.359 49.1952 230.949 51.2666C234.539 53.3379 240.684 55.2712 249.384 57.0664C262.641 59.8283 273.343 63.0044 281.491 66.5948C289.776 70.1852 296.059 74.9493 300.34 80.8873C304.621 86.6871 306.761 94.075 306.761 103.051C306.761 112.856 304.069 121.417 298.683 128.736C293.297 135.917 285.841 141.441 276.312 145.307C266.922 149.036 256.358 150.9 244.62 150.9Z" fill="#633F94"/>
<path d="M499.411 148H385.278V3.00344H430.02V110.715H499.411V148Z" fill="#633F94"/>
<path d="M584.488 150.9C569.298 150.9 555.627 147.655 543.475 141.164C531.323 134.674 521.794 125.767 514.89 114.444C508.123 102.982 504.74 90.0704 504.74 75.7088C504.74 61.3473 508.123 48.4357 514.89 36.9741C521.794 25.3743 531.323 16.3293 543.475 9.83899C555.765 3.34867 569.505 0.103516 584.695 0.103516C600.023 0.103516 613.763 3.34867 625.915 9.83899C638.068 16.3293 647.527 25.3053 654.293 36.7669C661.198 48.0905 664.65 60.933 664.65 75.2945C664.65 89.6561 661.198 102.637 654.293 114.236C647.389 125.698 637.86 134.674 625.708 141.164C613.556 147.655 599.816 150.9 584.488 150.9ZM584.695 112.372C594.5 112.372 602.509 108.989 608.723 102.222C615.075 95.456 618.251 86.6181 618.251 75.7088C618.251 68.528 616.801 62.1068 613.901 56.445C611.14 50.7832 607.204 46.3643 602.095 43.1882C596.985 40.0121 591.185 38.424 584.695 38.424C578.205 38.424 572.405 40.0121 567.295 43.1882C562.186 46.2262 558.181 50.5761 555.281 56.2379C552.52 61.8996 551.139 68.3209 551.139 75.5017C551.139 82.6825 552.52 89.1037 555.281 94.7655C558.181 100.289 562.186 104.639 567.295 107.815C572.405 110.853 578.205 112.372 584.695 112.372Z" fill="#633F94"/>
<path d="M761.322 150.9C745.994 150.9 732.185 147.655 719.895 141.164C707.742 134.674 698.145 125.698 691.102 114.236C684.198 102.775 680.745 89.9323 680.745 75.7088C680.745 61.3473 684.129 48.4357 690.895 36.9741C697.8 25.3743 707.259 16.3293 719.273 9.83899C731.425 3.34867 745.096 0.103516 760.286 0.103516C771.748 0.103516 782.657 2.31299 793.014 6.73193C803.509 11.0128 812.83 17.5031 820.978 26.2029L791.979 52.5094C783.003 42.981 772.853 38.2169 761.529 38.2169C755.039 38.2169 749.101 39.7359 743.715 42.7739C738.468 45.8119 734.256 50.2309 731.08 56.0307C728.042 61.6925 726.523 68.3209 726.523 75.916C726.523 87.3776 729.906 96.4917 736.673 103.258C743.439 109.887 752.415 113.201 763.601 113.201C771.61 113.201 778.307 111.682 783.693 108.644V70.9447H824.085V129.565C815.661 136.331 805.995 141.579 795.086 145.307C784.176 149.036 772.922 150.9 761.322 150.9Z" fill="#633F94"/>
<path d="M891.698 148H846.542V3.00344H891.698V148Z" fill="#633F94"/>
<path d="M975.99 150.9C962.319 150.9 949.545 149.174 937.669 145.721C925.931 142.131 915.989 137.367 907.841 131.429L924.827 100.151C944.436 111.337 961.766 116.929 976.818 116.929C981.651 116.929 985.518 116.101 988.418 114.444C991.456 112.648 992.975 110.301 992.975 107.401C992.975 103.672 991.249 100.98 987.797 99.3225C984.344 97.5273 977.992 95.6631 968.74 93.7298C950.236 89.8632 936.012 84.4086 926.07 77.3659C916.265 70.1852 911.363 59.7592 911.363 46.0881C911.363 36.2836 914.056 27.929 919.441 21.0244C924.827 14.1198 932.146 8.9414 941.398 5.4891C950.65 1.89871 961.145 0.103516 972.883 0.103516C997.325 0.103516 1017.49 6.59384 1033.37 19.5745L1013.27 47.1238C1007.47 42.981 1001.12 39.8049 994.218 37.5955C987.451 35.2479 980.685 34.0741 973.918 34.0741C962.595 34.0741 956.933 37.2502 956.933 43.6025C956.933 46.6405 958.728 49.1952 962.319 51.2666C965.909 53.3379 972.054 55.2712 980.754 57.0664C994.011 59.8283 1004.71 63.0044 1012.86 66.5948C1021.15 70.1852 1027.43 74.9493 1031.71 80.8873C1035.99 86.6871 1038.13 94.075 1038.13 103.051C1038.13 112.856 1035.44 121.417 1030.05 128.736C1024.67 135.917 1017.21 141.441 1007.68 145.307C998.292 149.036 987.727 150.9 975.99 150.9Z" fill="#633F94"/>
<path d="M1042.8 3.00344H1174.54V40.4954H1131.25V148H1085.89V40.4954H1042.8V3.00344Z" fill="#633F94"/>
<path d="M1236.65 148H1191.49V3.00344H1236.65V148Z" fill="#633F94"/>
<path d="M1337.51 150.9C1322.46 150.9 1308.79 147.655 1296.5 141.164C1284.35 134.674 1274.75 125.698 1267.71 114.236C1260.8 102.637 1257.35 89.7252 1257.35 75.5017C1257.35 61.2782 1260.73 48.4357 1267.5 36.9741C1274.4 25.3743 1283.79 16.3293 1295.67 9.83899C1307.68 3.34867 1321.08 0.103516 1335.85 0.103516C1361.68 0.103516 1382.39 8.80331 1398 26.2029L1368.79 52.5094C1360.92 42.981 1350.77 38.2169 1338.34 38.2169C1331.85 38.2169 1325.91 39.7359 1320.53 42.7739C1315.14 45.8119 1310.86 50.1618 1307.68 55.8236C1304.65 61.4854 1303.13 68.0447 1303.13 75.5017C1303.13 82.9586 1304.65 89.518 1307.68 95.1798C1310.86 100.703 1315.07 104.984 1320.32 108.022C1325.57 111.06 1331.44 112.579 1337.93 112.579C1343.73 112.579 1349.32 111.406 1354.7 109.058C1360.09 106.572 1364.99 102.913 1369.41 98.0797L1398.41 124.179C1391.09 133.155 1382.18 139.852 1371.69 144.271C1361.33 148.69 1349.94 150.9 1337.51 150.9Z" fill="#633F94"/>
</svg>
