<svg width="65" height="72" viewBox="0 0 65 72" fill="none" xmlns="http://www.w3.org/2000/svg">
<mask id="mask0_242_4622" style="mask-type:luminance" maskUnits="userSpaceOnUse" x="0" y="12" width="48" height="58">
<path d="M2.33905 55.9035L25.9271 69.5012L25.9203 60.0935L8.37248 49.9793L8.37999 26.9019L14.6436 30.5063L31.6866 20.673C31.9859 20.5226 32.3241 20.4375 32.682 20.4375C32.9908 20.4375 33.285 20.5008 33.5523 20.6148L40.0389 24.4083L47.2142 20.1745L33.6934 12.3765L33.6832 12.3769C33.3083 12.1587 32.8727 12.0337 32.4078 12.0337C31.956 12.0337 31.5319 12.1517 31.1642 12.3586L31.1625 12.3585L14.6398 21.7955L3.79663 15.5418L3.79637 15.542C3.42599 15.3309 2.99735 15.2102 2.5404 15.2102C1.13745 15.2102 0 16.3475 0 17.7506C0 17.8258 0.00338351 17.9002 0.00989895 17.9739L0.00739668 51.8953C0.00351248 51.9693 0.00150503 52.0439 0.00150503 52.1191C0.00150503 53.7751 0.953011 55.2088 2.33905 55.9035Z" fill="white"/>
</mask>
<g mask="url(#mask0_242_4622)">
<path fill-rule="evenodd" clip-rule="evenodd" d="M-18.959 36.018L-18.6241 35.6704L21.3757 74.2229L21.0408 74.5705L-18.959 36.018Z" fill="#FE9600"/>
<path fill-rule="evenodd" clip-rule="evenodd" d="M-18.6934 35.7428L-18.4832 35.5249L21.5166 74.0775L21.3066 74.2954L-18.6934 35.7428Z" fill="#FE9600"/>
<path fill-rule="evenodd" clip-rule="evenodd" d="M-18.5547 35.5978L-18.3447 35.3799L21.6551 73.9324L21.4451 74.1503L-18.5547 35.5978Z" fill="#FE9600"/>
<path fill-rule="evenodd" clip-rule="evenodd" d="M-18.4141 35.4523L-18.2041 35.2344L21.7959 73.7869L21.5859 74.0048L-18.4141 35.4523Z" fill="#FE9600"/>
<path fill-rule="evenodd" clip-rule="evenodd" d="M-18.2734 35.3072L-18.0634 35.0894L21.9364 73.642L21.7264 73.8599L-18.2734 35.3072Z" fill="#FE9601"/>
<path fill-rule="evenodd" clip-rule="evenodd" d="M-18.1348 35.1617L-17.9248 34.9438L22.0752 73.4963L21.8651 73.7142L-18.1348 35.1617Z" fill="#FE9601"/>
<path fill-rule="evenodd" clip-rule="evenodd" d="M-17.9941 35.0167L-17.7841 34.7988L22.2157 73.3513L22.0057 73.5692L-17.9941 35.0167Z" fill="#FE9601"/>
<path fill-rule="evenodd" clip-rule="evenodd" d="M-17.8535 34.8712L-17.6435 34.6533L22.3563 73.2058L22.1463 73.4237L-17.8535 34.8712Z" fill="#FE9502"/>
<path fill-rule="evenodd" clip-rule="evenodd" d="M-17.7129 34.7262L-17.5028 34.5083L22.4971 73.0608L22.287 73.2787L-17.7129 34.7262Z" fill="#FE9502"/>
<path fill-rule="evenodd" clip-rule="evenodd" d="M-17.5742 34.5808L-17.3642 34.3628L22.6356 72.9154L22.4256 73.1333L-17.5742 34.5808Z" fill="#FD9503"/>
<path fill-rule="evenodd" clip-rule="evenodd" d="M-17.4336 34.4357L-17.2236 34.2178L22.7763 72.7703L22.5663 72.9882L-17.4336 34.4357Z" fill="#FD9504"/>
<path fill-rule="evenodd" clip-rule="evenodd" d="M-17.293 34.2907L-17.083 34.0728L22.9168 72.6253L22.7068 72.8432L-17.293 34.2907Z" fill="#FD9405"/>
<path fill-rule="evenodd" clip-rule="evenodd" d="M-17.1543 34.1446L-16.9443 33.9268L23.0555 72.4794L22.8455 72.6973L-17.1543 34.1446Z" fill="#FD9405"/>
<path fill-rule="evenodd" clip-rule="evenodd" d="M-17.0137 34.0001L-16.8035 33.7822L23.1963 72.3347L22.9863 72.5526L-17.0137 34.0001Z" fill="#FD9406"/>
<path fill-rule="evenodd" clip-rule="evenodd" d="M-16.875 33.8546L-16.665 33.6367L23.3348 72.1892L23.1248 72.4071L-16.875 33.8546Z" fill="#FD9307"/>
<path fill-rule="evenodd" clip-rule="evenodd" d="M-16.7344 33.7091L-16.5244 33.4912L23.4756 72.0438L23.2656 72.2617L-16.7344 33.7091Z" fill="#FD9308"/>
<path fill-rule="evenodd" clip-rule="evenodd" d="M-16.5938 33.5641L-16.3837 33.3462L23.6161 71.8987L23.4061 72.1166L-16.5938 33.5641Z" fill="#FC9309"/>
<path fill-rule="evenodd" clip-rule="evenodd" d="M-16.4531 33.4186L-16.2431 33.2007L23.7568 71.7532L23.5467 71.9711L-16.4531 33.4186Z" fill="#FC920A"/>
<path fill-rule="evenodd" clip-rule="evenodd" d="M-16.3145 33.2736L-16.1045 33.0557L23.8954 71.6082L23.6854 71.826L-16.3145 33.2736Z" fill="#FC920C"/>
<path fill-rule="evenodd" clip-rule="evenodd" d="M-16.1738 33.1281L-15.9638 32.9102L24.036 71.4627L23.826 71.6806L-16.1738 33.1281Z" fill="#FC910D"/>
<path fill-rule="evenodd" clip-rule="evenodd" d="M-16.0332 32.9832L-15.8232 32.7651L24.1767 71.3178L23.9667 71.5357L-16.0332 32.9832Z" fill="#FC910E"/>
<path fill-rule="evenodd" clip-rule="evenodd" d="M-15.8945 32.8375L-15.6845 32.6196L24.3153 71.1721L24.1053 71.39L-15.8945 32.8375Z" fill="#FB9010"/>
<path fill-rule="evenodd" clip-rule="evenodd" d="M-15.7539 32.6925L-15.5439 32.4746L24.456 71.0271L24.2459 71.245L-15.7539 32.6925Z" fill="#FB9011"/>
<path fill-rule="evenodd" clip-rule="evenodd" d="M-15.6152 32.5475L-15.4052 32.3296L24.5946 70.8822L24.3846 71.1001L-15.6152 32.5475Z" fill="#FB8F13"/>
<path fill-rule="evenodd" clip-rule="evenodd" d="M-15.4727 32.402L-15.2627 32.1841L24.7372 70.7366L24.5272 70.9545L-15.4727 32.402Z" fill="#FA8F14"/>
<path fill-rule="evenodd" clip-rule="evenodd" d="M-15.334 32.2569L-15.1239 32.0391L24.876 70.5916L24.666 70.8095L-15.334 32.2569Z" fill="#FA8E16"/>
<path fill-rule="evenodd" clip-rule="evenodd" d="M-15.1934 32.111L-14.9834 31.8931L25.0165 70.4457L24.8064 70.6636L-15.1934 32.111Z" fill="#FA8E17"/>
<path fill-rule="evenodd" clip-rule="evenodd" d="M-15.0547 31.9659L-14.8447 31.748L25.1552 70.3006L24.9453 70.5184L-15.0547 31.9659Z" fill="#FA8D19"/>
<path fill-rule="evenodd" clip-rule="evenodd" d="M-14.9141 31.8209L-14.7041 31.603L25.2957 70.1555L25.0858 70.3734L-14.9141 31.8209Z" fill="#F98C1B"/>
<path fill-rule="evenodd" clip-rule="evenodd" d="M-14.7734 31.6754L-14.5634 31.4575L25.4364 70.01L25.2264 70.228L-14.7734 31.6754Z" fill="#F98C1C"/>
<path fill-rule="evenodd" clip-rule="evenodd" d="M-14.6348 31.5304L-14.4246 31.3125L25.5752 69.865L25.3652 70.0829L-14.6348 31.5304Z" fill="#F98B1E"/>
<path fill-rule="evenodd" clip-rule="evenodd" d="M-14.4941 31.385L-14.2841 31.167L25.7157 69.7196L25.5057 69.9375L-14.4941 31.385Z" fill="#F88A20"/>
<path fill-rule="evenodd" clip-rule="evenodd" d="M-14.3535 31.2399L-14.1435 31.022L25.8564 69.5745L25.6464 69.7924L-14.3535 31.2399Z" fill="#F88A22"/>
<path fill-rule="evenodd" clip-rule="evenodd" d="M-14.2129 31.0944L-14.0029 30.8765L25.9969 69.429L25.7869 69.6469L-14.2129 31.0944Z" fill="#F88924"/>
<path fill-rule="evenodd" clip-rule="evenodd" d="M-14.0742 30.9493L-13.8642 30.7314L26.1357 69.2841L25.9256 69.502L-14.0742 30.9493Z" fill="#F78826"/>
<path fill-rule="evenodd" clip-rule="evenodd" d="M-13.9336 30.8043L-13.7236 30.5864L26.2762 69.1389L26.0662 69.3568L-13.9336 30.8043Z" fill="#F78828"/>
<path fill-rule="evenodd" clip-rule="evenodd" d="M-13.793 30.6588L-13.583 30.4409L26.4168 68.9934L26.2068 69.2113L-13.793 30.6588Z" fill="#F6872A"/>
<path fill-rule="evenodd" clip-rule="evenodd" d="M-13.6543 30.5133L-13.4442 30.2954L26.5556 68.848L26.3456 69.0659L-13.6543 30.5133Z" fill="#F6862C"/>
<path fill-rule="evenodd" clip-rule="evenodd" d="M-13.5137 30.3678L-13.3037 30.1499L26.6961 68.7024L26.4861 68.9203L-13.5137 30.3678Z" fill="#F6852E"/>
<path fill-rule="evenodd" clip-rule="evenodd" d="M-13.375 30.2233L-13.165 30.0054L26.8349 68.5579L26.6249 68.7758L-13.375 30.2233Z" fill="#F58430"/>
<path fill-rule="evenodd" clip-rule="evenodd" d="M-13.2324 30.0778L-13.0224 29.8599L26.9774 68.4124L26.7674 68.6304L-13.2324 30.0778Z" fill="#F58433"/>
<path fill-rule="evenodd" clip-rule="evenodd" d="M-13.0938 29.9322L-12.8838 29.7144L27.1161 68.2669L26.9061 68.4848L-13.0938 29.9322Z" fill="#F48335"/>
<path fill-rule="evenodd" clip-rule="evenodd" d="M-12.9531 29.7873L-12.743 29.5693L27.2568 68.122L27.0468 68.3399L-12.9531 29.7873Z" fill="#F48237"/>
<path fill-rule="evenodd" clip-rule="evenodd" d="M-12.8125 29.6417L-12.6025 29.4238L27.3973 67.9763L27.1873 68.1942L-12.8125 29.6417Z" fill="#F48139"/>
<path fill-rule="evenodd" clip-rule="evenodd" d="M-12.6738 29.4967L-12.4638 29.2788L27.5361 67.8313L27.3261 68.0492L-12.6738 29.4967Z" fill="#F3803C"/>
<path fill-rule="evenodd" clip-rule="evenodd" d="M-12.5332 29.3512L-12.3232 29.1333L27.6766 67.6859L27.4666 67.9038L-12.5332 29.3512Z" fill="#F37F3E"/>
<path fill-rule="evenodd" clip-rule="evenodd" d="M-12.3945 29.2062L-12.1845 28.9883L27.8154 67.5408L27.6053 67.7587L-12.3945 29.2062Z" fill="#F27F40"/>
<path fill-rule="evenodd" clip-rule="evenodd" d="M-12.252 29.0611L-12.042 28.8433L27.9579 67.3958L27.7479 67.6136L-12.252 29.0611Z" fill="#F27E43"/>
<path fill-rule="evenodd" clip-rule="evenodd" d="M-12.1133 28.9152L-11.9033 28.6973L28.0965 67.2499L27.8865 67.4678L-12.1133 28.9152Z" fill="#F17D45"/>
<path fill-rule="evenodd" clip-rule="evenodd" d="M-11.9727 28.7701L-11.7627 28.5522L28.2373 67.1047L28.0273 67.3226L-11.9727 28.7701Z" fill="#F17C48"/>
<path fill-rule="evenodd" clip-rule="evenodd" d="M-11.834 28.6251L-11.624 28.4072L28.3758 66.9597L28.1658 67.1776L-11.834 28.6251Z" fill="#F07B4A"/>
<path fill-rule="evenodd" clip-rule="evenodd" d="M-11.6934 28.4796L-11.4834 28.2617L28.5166 66.8142L28.3065 67.0322L-11.6934 28.4796Z" fill="#F07A4D"/>
<path fill-rule="evenodd" clip-rule="evenodd" d="M-11.5527 28.3346L-11.3427 28.1167L28.6571 66.6692L28.4471 66.8871L-11.5527 28.3346Z" fill="#EF794F"/>
<path fill-rule="evenodd" clip-rule="evenodd" d="M-11.4141 28.1891L-11.2041 27.9712L28.7957 66.5237L28.5858 66.7416L-11.4141 28.1891Z" fill="#EF7852"/>
<path fill-rule="evenodd" clip-rule="evenodd" d="M-11.2734 28.0441L-11.0633 27.8262L28.9365 66.3787L28.7265 66.5966L-11.2734 28.0441Z" fill="#EE7754"/>
<path fill-rule="evenodd" clip-rule="evenodd" d="M-11.1328 27.8986L-10.9228 27.6807L29.077 66.2332L28.867 66.451L-11.1328 27.8986Z" fill="#EE7657"/>
<path fill-rule="evenodd" clip-rule="evenodd" d="M-10.9922 27.7535L-10.7822 27.5356L29.2177 66.0883L29.0078 66.3062L-10.9922 27.7535Z" fill="#ED7559"/>
<path fill-rule="evenodd" clip-rule="evenodd" d="M-10.8535 27.608L-10.6435 27.3901L29.3563 65.9426L29.1463 66.1605L-10.8535 27.608Z" fill="#ED745C"/>
<path fill-rule="evenodd" clip-rule="evenodd" d="M-10.7129 27.463L-10.5029 27.2451L29.4971 65.7976L29.2869 66.0155L-10.7129 27.463Z" fill="#EC735E"/>
<path fill-rule="evenodd" clip-rule="evenodd" d="M-10.5723 27.3175L-10.3623 27.0996L29.6375 65.6522L29.4275 65.8701L-10.5723 27.3175Z" fill="#EC7261"/>
<path fill-rule="evenodd" clip-rule="evenodd" d="M-10.4336 27.1725L-10.2236 26.9546L29.7762 65.5071L29.5662 65.725L-10.4336 27.1725Z" fill="#EB7164"/>
<path fill-rule="evenodd" clip-rule="evenodd" d="M-10.293 27.0275L-10.083 26.8096L29.917 65.3621L29.707 65.58L-10.293 27.0275Z" fill="#EB7066"/>
<path fill-rule="evenodd" clip-rule="evenodd" d="M-10.1543 26.8815L-9.9443 26.6636L30.0555 65.2161L29.8455 65.4341L-10.1543 26.8815Z" fill="#EA6F69"/>
<path fill-rule="evenodd" clip-rule="evenodd" d="M-10.0117 26.7364L-9.80172 26.5186L30.1982 65.0711L29.9881 65.2889L-10.0117 26.7364Z" fill="#EA6E6B"/>
<path fill-rule="evenodd" clip-rule="evenodd" d="M-9.87305 26.5914L-9.66305 26.3735L30.3368 64.926L30.1268 65.1439L-9.87305 26.5914Z" fill="#E96D6E"/>
<path fill-rule="evenodd" clip-rule="evenodd" d="M-9.73242 26.4459L-9.52243 26.228L30.4774 64.7805L30.2674 64.9984L-9.73242 26.4459Z" fill="#E86C71"/>
<path fill-rule="evenodd" clip-rule="evenodd" d="M-9.59375 26.3009L-9.38363 26.083L30.6162 64.6355L30.4062 64.8534L-9.59375 26.3009Z" fill="#E86B73"/>
<path fill-rule="evenodd" clip-rule="evenodd" d="M-9.45312 26.1554L-9.24312 25.9375L30.7567 64.4901L30.5467 64.708L-9.45312 26.1554Z" fill="#E76A76"/>
<path fill-rule="evenodd" clip-rule="evenodd" d="M-9.3125 26.0104L-9.1025 25.7925L30.8974 64.345L30.6874 64.5629L-9.3125 26.0104Z" fill="#E76978"/>
<path fill-rule="evenodd" clip-rule="evenodd" d="M-9.17383 25.8649L-8.96383 25.647L31.036 64.1995L30.826 64.4174L-9.17383 25.8649Z" fill="#E6687B"/>
<path fill-rule="evenodd" clip-rule="evenodd" d="M-9.0332 25.7194L-8.8232 25.5015L31.1766 64.0541L30.9666 64.272L-9.0332 25.7194Z" fill="#E6677E"/>
<path fill-rule="evenodd" clip-rule="evenodd" d="M-8.89453 25.5748L-8.68441 25.3569L31.3154 63.9094L31.1054 64.1273L-8.89453 25.5748Z" fill="#E56680"/>
<path fill-rule="evenodd" clip-rule="evenodd" d="M-8.75195 25.4293L-8.54195 25.2114L31.4579 63.7639L31.2479 63.9818L-8.75195 25.4293Z" fill="#E46583"/>
<path fill-rule="evenodd" clip-rule="evenodd" d="M-8.61328 25.2838L-8.40328 25.0659L31.5967 63.6184L31.3867 63.8364L-8.61328 25.2838Z" fill="#E46386"/>
<path fill-rule="evenodd" clip-rule="evenodd" d="M-8.47266 25.1383L-8.26266 24.9204L31.7372 63.4729L31.5272 63.6908L-8.47266 25.1383Z" fill="#E36288"/>
<path fill-rule="evenodd" clip-rule="evenodd" d="M-8.33398 24.9933L-8.12398 24.7754L31.876 63.3279L31.6658 63.5458L-8.33398 24.9933Z" fill="#E3618B"/>
<path fill-rule="evenodd" clip-rule="evenodd" d="M-8.19336 24.8483L-7.98336 24.6304L32.0165 63.1829L31.8064 63.4008L-8.19336 24.8483Z" fill="#E2608D"/>
<path fill-rule="evenodd" clip-rule="evenodd" d="M-8.05273 24.7028L-7.84274 24.4849L32.1571 63.0374L31.9471 63.2553L-8.05273 24.7028Z" fill="#E15F90"/>
<path fill-rule="evenodd" clip-rule="evenodd" d="M-7.91406 24.5577L-7.70407 24.3398L32.2959 62.8925L32.0859 63.1104L-7.91406 24.5577Z" fill="#E15E92"/>
<path fill-rule="evenodd" clip-rule="evenodd" d="M-7.77344 24.4122L-7.56344 24.1943L32.4364 62.7468L32.2264 62.9647L-7.77344 24.4122Z" fill="#E05D95"/>
<path fill-rule="evenodd" clip-rule="evenodd" d="M-7.63281 24.2672L-7.42282 24.0493L32.5771 62.6018L32.367 62.8197L-7.63281 24.2672Z" fill="#E05C97"/>
<path fill-rule="evenodd" clip-rule="evenodd" d="M-7.49219 24.1217L-7.28219 23.9038L32.7176 62.4564L32.5076 62.6743L-7.49219 24.1217Z" fill="#DF5B9A"/>
<path fill-rule="evenodd" clip-rule="evenodd" d="M-7.35352 23.9767L-7.14352 23.7588L32.8563 62.3113L32.6463 62.5292L-7.35352 23.9767Z" fill="#DF5A9C"/>
<path fill-rule="evenodd" clip-rule="evenodd" d="M-7.21289 23.8317L-7.00277 23.6138L32.997 62.1663L32.787 62.3842L-7.21289 23.8317Z" fill="#DE599F"/>
<path fill-rule="evenodd" clip-rule="evenodd" d="M-7.07227 23.6857L-6.86226 23.4678L33.1375 62.0203L32.9276 62.2383L-7.07227 23.6857Z" fill="#DD58A1"/>
<path fill-rule="evenodd" clip-rule="evenodd" d="M-6.93359 23.5406L-6.7236 23.3228L33.2763 61.8753L33.0663 62.0932L-6.93359 23.5406Z" fill="#DD57A4"/>
<path fill-rule="evenodd" clip-rule="evenodd" d="M-6.79297 23.3951L-6.58297 23.1772L33.4168 61.7297L33.2068 61.9476L-6.79297 23.3951Z" fill="#DC56A6"/>
<path fill-rule="evenodd" clip-rule="evenodd" d="M-6.6543 23.2501L-6.4443 23.0322L33.5556 61.5847L33.3455 61.8026L-6.6543 23.2501Z" fill="#DC55A9"/>
<path fill-rule="evenodd" clip-rule="evenodd" d="M-6.51172 23.1051L-6.30172 22.8872L33.6981 61.4397L33.4881 61.6576L-6.51172 23.1051Z" fill="#DB54AB"/>
<path fill-rule="evenodd" clip-rule="evenodd" d="M-6.37305 22.9596L-6.16305 22.7417L33.8368 61.2943L33.6268 61.5122L-6.37305 22.9596Z" fill="#DA52AD"/>
<path fill-rule="evenodd" clip-rule="evenodd" d="M-6.23242 22.8146L-6.02242 22.5967L33.9775 61.1492L33.7675 61.3671L-6.23242 22.8146Z" fill="#DA51B0"/>
<path fill-rule="evenodd" clip-rule="evenodd" d="M-6.09375 22.6691L-5.88376 22.4512L34.1161 61.0037L33.9061 61.2216L-6.09375 22.6691Z" fill="#D950B2"/>
<path fill-rule="evenodd" clip-rule="evenodd" d="M-5.95312 22.5241L-5.74312 22.3062L34.2568 60.8588L34.0467 61.0767L-5.95312 22.5241Z" fill="#D84FB4"/>
<path fill-rule="evenodd" clip-rule="evenodd" d="M-5.8125 22.3785L-5.60251 22.1606L34.3973 60.7131L34.1873 60.931L-5.8125 22.3785Z" fill="#D84EB6"/>
<path fill-rule="evenodd" clip-rule="evenodd" d="M-5.67383 22.2335L-5.46383 22.0156L34.536 60.5681L34.326 60.786L-5.67383 22.2335Z" fill="#D74DB8"/>
<path fill-rule="evenodd" clip-rule="evenodd" d="M-5.5332 22.088L-5.32308 21.8701L34.6767 60.4226L34.4667 60.6406L-5.5332 22.088Z" fill="#D74CBB"/>
<path fill-rule="evenodd" clip-rule="evenodd" d="M-5.39453 21.9425L-5.18454 21.7246L34.8153 60.2771L34.6053 60.495L-5.39453 21.9425Z" fill="#D64BBD"/>
<path fill-rule="evenodd" clip-rule="evenodd" d="M-5.25195 21.798L-5.04196 21.5801L34.958 60.1326L34.748 60.3505L-5.25195 21.798Z" fill="#D54ABF"/>
<path fill-rule="evenodd" clip-rule="evenodd" d="M-5.11328 21.652L-4.90329 21.4341L35.0965 59.9866L34.8865 60.2045L-5.11328 21.652Z" fill="#D549C1"/>
<path fill-rule="evenodd" clip-rule="evenodd" d="M-4.97266 21.5069L-4.76266 21.2891L35.2372 59.8416L35.0271 60.0594L-4.97266 21.5069Z" fill="#D448C3"/>
<path fill-rule="evenodd" clip-rule="evenodd" d="M-4.83398 21.3619L-4.62386 21.144L35.3759 59.6967L35.166 59.9146L-4.83398 21.3619Z" fill="#D447C5"/>
<path fill-rule="evenodd" clip-rule="evenodd" d="M-4.69336 21.2164L-4.48336 20.9985L35.5165 59.551L35.3065 59.7689L-4.69336 21.2164Z" fill="#D346C7"/>
<path fill-rule="evenodd" clip-rule="evenodd" d="M-4.55273 21.0714L-4.34274 20.8535L35.6572 59.406L35.4472 59.6239L-4.55273 21.0714Z" fill="#D345C9"/>
<path fill-rule="evenodd" clip-rule="evenodd" d="M-4.41406 20.9259L-4.20406 20.708L35.7957 59.2606L35.5858 59.4785L-4.41406 20.9259Z" fill="#D244CA"/>
<path fill-rule="evenodd" clip-rule="evenodd" d="M-4.27344 20.7809L-4.06344 20.563L35.9365 59.1155L35.7264 59.3334L-4.27344 20.7809Z" fill="#D144CC"/>
<path fill-rule="evenodd" clip-rule="evenodd" d="M-4.13281 20.6354L-3.92281 20.4175L36.077 58.97L35.867 59.1879L-4.13281 20.6354Z" fill="#D143CE"/>
<path fill-rule="evenodd" clip-rule="evenodd" d="M-3.99219 20.4903L-3.78219 20.2725L36.2176 58.825L36.0076 59.043L-3.99219 20.4903Z" fill="#D042D0"/>
<path fill-rule="evenodd" clip-rule="evenodd" d="M-3.85352 20.3448L-3.64351 20.127L36.3564 58.6795L36.1464 58.8973L-3.85352 20.3448Z" fill="#D041D1"/>
<path fill-rule="evenodd" clip-rule="evenodd" d="M-3.71289 20.1998L-3.50289 19.9819L36.4969 58.5344L36.2869 58.7523L-3.71289 20.1998Z" fill="#CF40D3"/>
<path fill-rule="evenodd" clip-rule="evenodd" d="M-3.57227 20.0543L-3.36226 19.8364L36.6377 58.3889L36.4277 58.6068L-3.57227 20.0543Z" fill="#CE3FD5"/>
<path fill-rule="evenodd" clip-rule="evenodd" d="M-3.43359 19.9088L-3.2236 19.6909L36.7762 58.2434L36.5662 58.4613L-3.43359 19.9088Z" fill="#CE3ED6"/>
<path fill-rule="evenodd" clip-rule="evenodd" d="M-3.29297 19.7638L-3.08297 19.5459L36.9168 58.0985L36.7068 58.3164L-3.29297 19.7638Z" fill="#CD3DD8"/>
<path fill-rule="evenodd" clip-rule="evenodd" d="M-3.1543 19.6188L-2.94417 19.4009L37.0556 57.9534L36.8456 58.1713L-3.1543 19.6188Z" fill="#CD3CD9"/>
<path fill-rule="evenodd" clip-rule="evenodd" d="M-3.01172 19.4733L-2.80172 19.2554L37.1981 57.8079L36.9881 58.0258L-3.01172 19.4733Z" fill="#CC3BDA"/>
<path fill-rule="evenodd" clip-rule="evenodd" d="M-2.87305 19.3282L-2.66305 19.1104L37.3369 57.663L37.1269 57.8809L-2.87305 19.3282Z" fill="#CC3BDC"/>
<path fill-rule="evenodd" clip-rule="evenodd" d="M-2.73242 19.1827L-2.52243 18.9648L37.4774 57.5173L37.2674 57.7352L-2.73242 19.1827Z" fill="#CB3ADD"/>
<path fill-rule="evenodd" clip-rule="evenodd" d="M-2.59375 19.0377L-2.38376 18.8198L37.6162 57.3723L37.4061 57.5902L-2.59375 19.0377Z" fill="#CA39DE"/>
<path fill-rule="evenodd" clip-rule="evenodd" d="M-2.45312 18.8922L-2.24312 18.6743L37.7567 57.2268L37.5467 57.4448L-2.45312 18.8922Z" fill="#CA38DF"/>
<path fill-rule="evenodd" clip-rule="evenodd" d="M-2.3125 18.7472L-2.10251 18.5293L37.8973 57.0818L37.6873 57.2997L-2.3125 18.7472Z" fill="#C937E0"/>
<path fill-rule="evenodd" clip-rule="evenodd" d="M-2.17383 18.6017L-1.96383 18.3838L38.0361 56.9363L37.8261 57.1542L-2.17383 18.6017Z" fill="#C937E1"/>
<path fill-rule="evenodd" clip-rule="evenodd" d="M-2.0332 18.4562L-1.8232 18.2383L38.1766 56.7908L37.9666 57.0087L-2.0332 18.4562Z" fill="#C836E2"/>
<path fill-rule="evenodd" clip-rule="evenodd" d="M-1.89258 18.3112L-1.68258 18.0933L38.3174 56.6458L38.1072 56.8637L-1.89258 18.3112Z" fill="#C835E3"/>
<path fill-rule="evenodd" clip-rule="evenodd" d="M-1.75195 18.1656L-1.54195 17.9478L38.4579 56.5004L38.2479 56.7183L-1.75195 18.1656Z" fill="#C735E4"/>
<path fill-rule="evenodd" clip-rule="evenodd" d="M-1.61328 18.0206L-1.40328 17.8027L38.5965 56.3552L38.3865 56.5731L-1.61328 18.0206Z" fill="#C734E5"/>
<path fill-rule="evenodd" clip-rule="evenodd" d="M-1.47266 17.8751L-1.26253 17.6572L38.7373 56.2097L38.5273 56.4276L-1.47266 17.8751Z" fill="#C633E5"/>
<path fill-rule="evenodd" clip-rule="evenodd" d="M-1.33203 17.7301L-1.12203 17.5122L38.8778 56.0648L38.6678 56.2827L-1.33203 17.7301Z" fill="#C632E6"/>
<path fill-rule="evenodd" clip-rule="evenodd" d="M-1.19336 17.5851L-0.983358 17.3672L39.0166 55.9197L38.8066 56.1376L-1.19336 17.5851Z" fill="#C532E6"/>
<path fill-rule="evenodd" clip-rule="evenodd" d="M-1.05273 17.4396L-0.84274 17.2217L39.1571 55.7742L38.9471 55.9921L-1.05273 17.4396Z" fill="#C531E7"/>
<path fill-rule="evenodd" clip-rule="evenodd" d="M-0.914062 17.2946L-0.704062 17.0767L39.2957 55.6292L39.0858 55.8472L-0.914062 17.2946Z" fill="#C431E7"/>
<path fill-rule="evenodd" clip-rule="evenodd" d="M-0.771484 17.1491L-0.561361 16.9312L39.4384 55.4837L39.2285 55.7016L-0.771484 17.1491Z" fill="#C430E7"/>
<path fill-rule="evenodd" clip-rule="evenodd" d="M-0.632812 17.004L-0.422818 16.7861L39.577 55.3386L39.367 55.5565L-0.632812 17.004Z" fill="#C32FE8"/>
<path fill-rule="evenodd" clip-rule="evenodd" d="M-0.492188 16.8585L-0.282187 16.6406L39.7178 55.1931L39.5077 55.411L-0.492188 16.8585Z" fill="#C32FE8"/>
<path fill-rule="evenodd" clip-rule="evenodd" d="M-0.351562 16.713L-0.141568 16.4951L39.8582 55.0476L39.6482 55.2655L-0.351562 16.713Z" fill="#C22EE8"/>
<path fill-rule="evenodd" clip-rule="evenodd" d="M-0.212891 16.568L-0.0028958 16.3501L39.997 54.9027L39.7869 55.1206L-0.212891 16.568Z" fill="#C22EE8"/>
<path fill-rule="evenodd" clip-rule="evenodd" d="M-0.0722656 16.4225L0.137735 16.2046L40.1375 54.7571L39.9276 54.975L-0.0722656 16.4225Z" fill="#C12DE8"/>
<path fill-rule="evenodd" clip-rule="evenodd" d="M0.0664062 16.2775L0.276401 16.0596L40.2762 54.6121L40.0662 54.83L0.0664062 16.2775Z" fill="#C12DE8"/>
<path fill-rule="evenodd" clip-rule="evenodd" d="M0.208984 16.132L0.419108 15.9141L40.4189 54.4667L40.2089 54.6846L0.208984 16.132Z" fill="#C02CE8"/>
<path fill-rule="evenodd" clip-rule="evenodd" d="M0.347656 15.9869L0.557657 15.769L40.5575 54.3216L40.3475 54.5394L0.347656 15.9869Z" fill="#C02CE8"/>
<path fill-rule="evenodd" clip-rule="evenodd" d="M0.488281 15.8419L0.698276 15.624L40.6982 54.1765L40.4882 54.3944L0.488281 15.8419Z" fill="#BF2BE8"/>
<path fill-rule="evenodd" clip-rule="evenodd" d="M0.626953 15.6964L0.836954 15.4785L40.8368 54.031L40.6268 54.249L0.626953 15.6964Z" fill="#BF2BE8"/>
<path fill-rule="evenodd" clip-rule="evenodd" d="M0.767578 15.5514L0.977579 15.3335L40.9774 53.886L40.7674 54.1039L0.767578 15.5514Z" fill="#BE2AE8"/>
<path fill-rule="evenodd" clip-rule="evenodd" d="M0.908203 15.4059L1.11833 15.188L41.1181 53.7405L40.9081 53.9584L0.908203 15.4059Z" fill="#BD29E8"/>
<path fill-rule="evenodd" clip-rule="evenodd" d="M1.04688 15.2609L1.25688 15.043L41.2567 53.5955L41.0467 53.8134L1.04688 15.2609Z" fill="#BD29E8"/>
<path fill-rule="evenodd" clip-rule="evenodd" d="M1.1875 15.1153L1.3975 14.8975L41.3974 53.45L41.1874 53.6678L1.1875 15.1153Z" fill="#BC28E8"/>
<path fill-rule="evenodd" clip-rule="evenodd" d="M1.32812 14.9699L1.53812 14.752L41.5379 53.3046L41.3279 53.5225L1.32812 14.9699Z" fill="#BC28E8"/>
<path fill-rule="evenodd" clip-rule="evenodd" d="M1.46875 14.8248L1.67875 14.6069L41.6787 53.1594L41.4686 53.3773L1.46875 14.8248Z" fill="#BB27E8"/>
<path fill-rule="evenodd" clip-rule="evenodd" d="M1.60742 14.6793L1.81742 14.4614L41.8172 53.0139L41.6072 53.2318L1.60742 14.6793Z" fill="#BB27E8"/>
<path fill-rule="evenodd" clip-rule="evenodd" d="M1.74805 14.5343L1.95804 14.3164L41.9579 52.869L41.7479 53.0869L1.74805 14.5343Z" fill="#BA26E8"/>
<path fill-rule="evenodd" clip-rule="evenodd" d="M1.88672 14.3888L2.09672 14.1709L42.0967 52.7234L41.8867 52.9413L1.88672 14.3888Z" fill="#B926E8"/>
<path fill-rule="evenodd" clip-rule="evenodd" d="M2.02734 14.2438L2.23734 14.0259L42.2372 52.5784L42.0271 52.7963L2.02734 14.2438Z" fill="#B925E8"/>
<path fill-rule="evenodd" clip-rule="evenodd" d="M2.16797 14.0987L2.37796 13.8809L42.3779 52.4334L42.1678 52.6514L2.16797 14.0987Z" fill="#B825E7"/>
<path fill-rule="evenodd" clip-rule="evenodd" d="M2.30664 13.9532L2.51664 13.7354L42.5164 52.2878L42.3065 52.5057L2.30664 13.9532Z" fill="#B725E7"/>
<path fill-rule="evenodd" clip-rule="evenodd" d="M2.44727 13.8082L2.65726 13.5903L42.6571 52.1428L42.4471 52.3607L2.44727 13.8082Z" fill="#B724E7"/>
<path fill-rule="evenodd" clip-rule="evenodd" d="M2.58594 13.6627L2.79606 13.4448L42.7959 51.9973L42.5859 52.2152L2.58594 13.6627Z" fill="#B624E7"/>
<path fill-rule="evenodd" clip-rule="evenodd" d="M2.72852 13.5177L2.93851 13.2998L42.9383 51.8523L42.7283 52.0702L2.72852 13.5177Z" fill="#B623E7"/>
<path fill-rule="evenodd" clip-rule="evenodd" d="M2.86719 13.3722L3.07718 13.1543L43.0771 51.7069L42.8671 51.9248L2.86719 13.3722Z" fill="#B523E7"/>
<path fill-rule="evenodd" clip-rule="evenodd" d="M3.00781 13.2267L3.21781 13.0088L43.2176 51.5613L43.0076 51.7792L3.00781 13.2267Z" fill="#B422E7"/>
<path fill-rule="evenodd" clip-rule="evenodd" d="M3.14648 13.0817L3.35649 12.8638L43.3563 51.4163L43.1463 51.6342L3.14648 13.0817Z" fill="#B422E7"/>
<path fill-rule="evenodd" clip-rule="evenodd" d="M3.28711 12.9361L3.49723 12.7183L43.497 51.2709L43.287 51.4888L3.28711 12.9361Z" fill="#B321E7"/>
<path fill-rule="evenodd" clip-rule="evenodd" d="M3.42773 12.7911L3.63774 12.5732L43.6375 51.1257L43.4275 51.3436L3.42773 12.7911Z" fill="#B221E7"/>
<path fill-rule="evenodd" clip-rule="evenodd" d="M3.56641 12.6456L3.7764 12.4277L43.7763 50.9802L43.5663 51.1981L3.56641 12.6456Z" fill="#B221E7"/>
<path fill-rule="evenodd" clip-rule="evenodd" d="M3.70703 12.5006L3.91703 12.2827L43.9168 50.8354L43.7068 51.0532L3.70703 12.5006Z" fill="#B120E7"/>
<path fill-rule="evenodd" clip-rule="evenodd" d="M3.84766 12.3556L4.05765 12.1377L44.0576 50.6902L43.8475 50.9081L3.84766 12.3556Z" fill="#B020E7"/>
<path fill-rule="evenodd" clip-rule="evenodd" d="M3.98828 12.2101L4.19829 11.9922L44.1981 50.5447L43.9881 50.7626L3.98828 12.2101Z" fill="#B01FE6"/>
<path fill-rule="evenodd" clip-rule="evenodd" d="M4.12695 12.0651L4.33695 11.8472L44.3368 50.3997L44.1268 50.6176L4.12695 12.0651Z" fill="#AF1FE6"/>
<path fill-rule="evenodd" clip-rule="evenodd" d="M4.26758 11.9191L4.4777 11.7012L44.4775 50.2537L44.2675 50.4716L4.26758 11.9191Z" fill="#AE1EE6"/>
<path fill-rule="evenodd" clip-rule="evenodd" d="M4.4082 11.7745L4.6182 11.5566L44.618 50.1093L44.408 50.3272L4.4082 11.7745Z" fill="#AE1EE6"/>
<path fill-rule="evenodd" clip-rule="evenodd" d="M4.54688 11.629L4.75687 11.4111L44.7568 49.9636L44.5468 50.1815L4.54688 11.629Z" fill="#AD1EE6"/>
<path fill-rule="evenodd" clip-rule="evenodd" d="M4.6875 11.4835L4.89751 11.2656L44.8973 49.8181L44.6873 50.036L4.6875 11.4835Z" fill="#AC1DE6"/>
<path fill-rule="evenodd" clip-rule="evenodd" d="M4.82617 11.3385L5.03618 11.1206L45.036 49.6732L44.826 49.8911L4.82617 11.3385Z" fill="#AC1DE6"/>
<path fill-rule="evenodd" clip-rule="evenodd" d="M4.96875 11.193L5.17888 10.9751L45.1787 49.5276L44.9687 49.7455L4.96875 11.193Z" fill="#AB1DE6"/>
<path fill-rule="evenodd" clip-rule="evenodd" d="M5.10742 11.048L5.31742 10.8301L45.3172 49.3826L45.1072 49.6005L5.10742 11.048Z" fill="#AA1CE6"/>
<path fill-rule="evenodd" clip-rule="evenodd" d="M5.24805 10.9025L5.45804 10.6846L45.458 49.2372L45.248 49.4551L5.24805 10.9025Z" fill="#AA1CE6"/>
<path fill-rule="evenodd" clip-rule="evenodd" d="M5.38672 10.7575L5.59671 10.5396L45.5965 49.0921L45.3865 49.31L5.38672 10.7575Z" fill="#A91BE5"/>
<path fill-rule="evenodd" clip-rule="evenodd" d="M5.52734 10.6124L5.73735 10.3945L45.7373 48.947L45.5272 49.1649L5.52734 10.6124Z" fill="#A81BE5"/>
<path fill-rule="evenodd" clip-rule="evenodd" d="M5.66797 10.4669L5.87796 10.249L45.8778 48.8015L45.6678 49.0194L5.66797 10.4669Z" fill="#A71BE5"/>
<path fill-rule="evenodd" clip-rule="evenodd" d="M5.80664 10.3219L6.01664 10.104L46.0165 48.6565L45.8064 48.8744L5.80664 10.3219Z" fill="#A71AE5"/>
<path fill-rule="evenodd" clip-rule="evenodd" d="M5.94727 10.176L6.15726 9.95801L46.1572 48.5106L45.9472 48.7285L5.94727 10.176Z" fill="#A61AE5"/>
<path fill-rule="evenodd" clip-rule="evenodd" d="M6.08789 10.0309L6.29789 9.81299L46.2977 48.3655L46.0877 48.5834L6.08789 10.0309Z" fill="#A51AE5"/>
<path fill-rule="evenodd" clip-rule="evenodd" d="M6.22852 9.88586L6.43851 9.66797L46.4384 48.2205L46.2283 48.4384L6.22852 9.88586Z" fill="#A519E5"/>
<path fill-rule="evenodd" clip-rule="evenodd" d="M6.36719 9.74036L6.57719 9.52246L46.577 48.0751L46.367 48.293L6.36719 9.74036Z" fill="#A419E5"/>
<path fill-rule="evenodd" clip-rule="evenodd" d="M6.50781 9.59534L6.71781 9.37744L46.7176 47.93L46.5076 48.1478L6.50781 9.59534Z" fill="#A319E5"/>
<path fill-rule="evenodd" clip-rule="evenodd" d="M6.64844 9.44983L6.85855 9.23193L46.8584 47.7844L46.6484 48.0023L6.64844 9.44983Z" fill="#A318E4"/>
<path fill-rule="evenodd" clip-rule="evenodd" d="M6.78711 9.3048L6.9971 9.08691L46.9969 47.6395L46.7869 47.8574L6.78711 9.3048Z" fill="#A218E4"/>
<path fill-rule="evenodd" clip-rule="evenodd" d="M6.92773 9.15929L7.13773 8.94141L47.1377 47.4939L46.9277 47.7118L6.92773 9.15929Z" fill="#A118E4"/>
<path fill-rule="evenodd" clip-rule="evenodd" d="M7.06641 9.01429L7.27641 8.79639L47.2762 47.3489L47.0662 47.5668L7.06641 9.01429Z" fill="#A117E4"/>
<path fill-rule="evenodd" clip-rule="evenodd" d="M7.20898 8.86925L7.41899 8.65137L47.4189 47.2039L47.2088 47.4218L7.20898 8.86925Z" fill="#A017E4"/>
<path fill-rule="evenodd" clip-rule="evenodd" d="M7.34766 8.72375L7.55765 8.50586L47.5575 47.0584L47.3475 47.2763L7.34766 8.72375Z" fill="#9F17E4"/>
<path fill-rule="evenodd" clip-rule="evenodd" d="M7.48828 8.57886L7.69828 8.36084L47.6981 46.9135L47.4881 47.1314L7.48828 8.57886Z" fill="#9F17E4"/>
<path fill-rule="evenodd" clip-rule="evenodd" d="M7.62695 8.43323L7.83695 8.21533L47.8369 46.7678L47.6269 46.9857L7.62695 8.43323Z" fill="#9E16E4"/>
<path fill-rule="evenodd" clip-rule="evenodd" d="M7.76758 8.28772L7.97757 8.06982L47.9774 46.6223L47.7674 46.8402L7.76758 8.28772Z" fill="#9D16E3"/>
<path fill-rule="evenodd" clip-rule="evenodd" d="M7.9082 8.14269L8.11821 7.9248L48.1181 46.4774L47.908 46.6953L7.9082 8.14269Z" fill="#9D16E3"/>
<path fill-rule="evenodd" clip-rule="evenodd" d="M8.04688 7.99718L8.25687 7.7793L48.2567 46.3318L48.0467 46.5497L8.04688 7.99718Z" fill="#9C15E3"/>
<path fill-rule="evenodd" clip-rule="evenodd" d="M8.1875 7.85218L8.39749 7.63428L48.3973 46.1868L48.1873 46.4047L8.1875 7.85218Z" fill="#9B15E3"/>
<path fill-rule="evenodd" clip-rule="evenodd" d="M8.32812 7.70666L8.53824 7.48877L48.5381 46.0414L48.3281 46.2593L8.32812 7.70666Z" fill="#9B15E3"/>
<path fill-rule="evenodd" clip-rule="evenodd" d="M8.46875 7.56164L8.67874 7.34375L48.6786 45.8963L48.4686 46.1142L8.46875 7.56164Z" fill="#9A15E3"/>
<path fill-rule="evenodd" clip-rule="evenodd" d="M8.60742 7.41613L8.81742 7.19824L48.8174 45.7507L48.6074 45.9686L8.60742 7.41613Z" fill="#9914E3"/>
<path fill-rule="evenodd" clip-rule="evenodd" d="M8.74805 7.27112L8.95804 7.05322L48.9578 45.6057L48.7478 45.8236L8.74805 7.27112Z" fill="#9914E3"/>
<path fill-rule="evenodd" clip-rule="evenodd" d="M8.88867 7.1261L9.09867 6.9082L49.0985 45.4607L48.8885 45.6786L8.88867 7.1261Z" fill="#9814E2"/>
<path fill-rule="evenodd" clip-rule="evenodd" d="M9.02734 6.98022L9.23746 6.76221L49.2373 45.3148L49.0273 45.5327L9.02734 6.98022Z" fill="#9814E2"/>
<path fill-rule="evenodd" clip-rule="evenodd" d="M9.16797 6.83556L9.37796 6.61768L49.3778 45.1702L49.1678 45.3881L9.16797 6.83556Z" fill="#9713E2"/>
<path fill-rule="evenodd" clip-rule="evenodd" d="M9.30664 6.69007L9.51664 6.47217L49.5166 45.0247L49.3066 45.2426L9.30664 6.69007Z" fill="#9613E2"/>
<path fill-rule="evenodd" clip-rule="evenodd" d="M9.44922 6.54455L9.65923 6.32666L49.659 44.8793L49.449 45.0972L9.44922 6.54455Z" fill="#9613E2"/>
<path fill-rule="evenodd" clip-rule="evenodd" d="M9.58789 6.39953L9.7979 6.18164L49.7978 44.7341L49.5877 44.952L9.58789 6.39953Z" fill="#9513E2"/>
<path fill-rule="evenodd" clip-rule="evenodd" d="M9.72852 6.25402L9.93851 6.03613L49.9383 44.5886L49.7283 44.8065L9.72852 6.25402Z" fill="#9412E2"/>
<path fill-rule="evenodd" clip-rule="evenodd" d="M9.86719 6.10901L10.0772 5.89111L50.077 44.4437L49.867 44.6616L9.86719 6.10901Z" fill="#9412E2"/>
<path fill-rule="evenodd" clip-rule="evenodd" d="M10.0078 5.9635L10.2178 5.74561L50.2177 44.2981L50.0078 44.516L10.0078 5.9635Z" fill="#9312E2"/>
<path fill-rule="evenodd" clip-rule="evenodd" d="M10.1484 5.81847L10.3584 5.60059L50.3582 44.1531L50.1483 44.371L10.1484 5.81847Z" fill="#9312E1"/>
<path fill-rule="evenodd" clip-rule="evenodd" d="M10.2871 5.67297L10.4971 5.45508L50.497 44.0076L50.2869 44.2255L10.2871 5.67297Z" fill="#9212E1"/>
<path fill-rule="evenodd" clip-rule="evenodd" d="M10.4277 5.52796L10.6377 5.31006L50.6375 43.8626L50.4275 44.0805L10.4277 5.52796Z" fill="#9211E1"/>
<path fill-rule="evenodd" clip-rule="evenodd" d="M10.5684 5.38306L10.7784 5.16504L50.7782 43.7177L50.5682 43.9356L10.5684 5.38306Z" fill="#9111E1"/>
<path fill-rule="evenodd" clip-rule="evenodd" d="M10.709 5.23742L10.9191 5.01953L50.9189 43.572L50.7089 43.7899L10.709 5.23742Z" fill="#9011E1"/>
<path fill-rule="evenodd" clip-rule="evenodd" d="M10.8477 5.0924L11.0577 4.87451L51.0575 43.427L50.8475 43.6449L10.8477 5.0924Z" fill="#9011E1"/>
<path fill-rule="evenodd" clip-rule="evenodd" d="M10.9883 4.94641L11.1983 4.72852L51.1982 43.2812L50.9882 43.499L10.9883 4.94641Z" fill="#8F11E1"/>
<path fill-rule="evenodd" clip-rule="evenodd" d="M11.1289 4.80188L11.3389 4.58398L51.3387 43.1365L51.1287 43.3544L11.1289 4.80188Z" fill="#8F11E1"/>
<path fill-rule="evenodd" clip-rule="evenodd" d="M11.2676 4.65636L11.4776 4.43848L51.4775 42.991L51.2674 43.2089L11.2676 4.65636Z" fill="#8E10E1"/>
<path fill-rule="evenodd" clip-rule="evenodd" d="M11.4082 4.51086L11.6182 4.29297L51.618 42.8456L51.408 43.0635L11.4082 4.51086Z" fill="#8E10E0"/>
<path fill-rule="evenodd" clip-rule="evenodd" d="M11.5469 4.36585L11.7569 4.14795L51.7567 42.7005L51.5467 42.9184L11.5469 4.36585Z" fill="#8D10E0"/>
<path fill-rule="evenodd" clip-rule="evenodd" d="M11.6895 4.22034L11.8994 4.00244L51.8994 42.555L51.6894 42.7728L11.6895 4.22034Z" fill="#8D10E0"/>
<path fill-rule="evenodd" clip-rule="evenodd" d="M11.8281 4.07531L12.0381 3.85742L52.0379 42.4099L51.8279 42.6278L11.8281 4.07531Z" fill="#8C10E0"/>
<path fill-rule="evenodd" clip-rule="evenodd" d="M11.9688 3.9298L12.1787 3.71191L52.1787 42.2644L51.9686 42.4823L11.9688 3.9298Z" fill="#8C10E0"/>
<path fill-rule="evenodd" clip-rule="evenodd" d="M12.1074 3.78492L12.3174 3.56689L52.3172 42.1195L52.1072 42.3374L12.1074 3.78492Z" fill="#8B0FE0"/>
<path fill-rule="evenodd" clip-rule="evenodd" d="M12.248 3.63977L12.458 3.42188L52.4579 41.9744L52.2479 42.1923L12.248 3.63977Z" fill="#8B0FE0"/>
<path fill-rule="evenodd" clip-rule="evenodd" d="M12.3887 3.49425L12.5988 3.27637L52.5986 41.8289L52.3886 42.0468L12.3887 3.49425Z" fill="#8B0FE0"/>
<path fill-rule="evenodd" clip-rule="evenodd" d="M12.5273 3.34875L12.7374 3.13086L52.7372 41.6835L52.5272 41.9014L12.5273 3.34875Z" fill="#8A0FE0"/>
<path fill-rule="evenodd" clip-rule="evenodd" d="M12.668 3.20325L12.878 2.98535L52.8779 41.5379L52.6679 41.7558L12.668 3.20325Z" fill="#8A0FE0"/>
<path fill-rule="evenodd" clip-rule="evenodd" d="M12.8086 3.05823L13.0186 2.84033L53.0184 41.3928L52.8084 41.6107L12.8086 3.05823Z" fill="#890FDF"/>
<path fill-rule="evenodd" clip-rule="evenodd" d="M12.9492 2.9132L13.1592 2.69531L53.159 41.2479L52.949 41.4658L12.9492 2.9132Z" fill="#890FDF"/>
<path fill-rule="evenodd" clip-rule="evenodd" d="M13.0879 2.76769L13.298 2.5498L53.2978 41.1023L53.0878 41.3202L13.0879 2.76769Z" fill="#890FDF"/>
<path fill-rule="evenodd" clip-rule="evenodd" d="M13.2285 2.62267L13.4385 2.40479L53.4383 40.9573L53.2283 41.1752L13.2285 2.62267Z" fill="#880EDF"/>
<path fill-rule="evenodd" clip-rule="evenodd" d="M13.3672 2.47718L13.5772 2.25928L53.5771 40.8118L53.3671 41.0297L13.3672 2.47718Z" fill="#880EDF"/>
<path fill-rule="evenodd" clip-rule="evenodd" d="M13.5078 2.33214L13.7178 2.11426L53.7176 40.6668L53.5076 40.8847L13.5078 2.33214Z" fill="#870EDF"/>
<path fill-rule="evenodd" clip-rule="evenodd" d="M13.6484 2.18676L13.8584 1.96875L53.8584 40.5214L53.6482 40.7393L13.6484 2.18676Z" fill="#870EDF"/>
<path fill-rule="evenodd" clip-rule="evenodd" d="M13.7871 2.04163L13.9971 1.82373L53.9969 40.3762L53.7869 40.5941L13.7871 2.04163Z" fill="#870EDF"/>
<path fill-rule="evenodd" clip-rule="evenodd" d="M13.9277 1.89661L14.1377 1.67871L54.1375 40.2312L53.9276 40.4491L13.9277 1.89661Z" fill="#860EDF"/>
<path fill-rule="evenodd" clip-rule="evenodd" d="M14.0684 1.75109L14.2784 1.5332L54.2783 40.0858L54.0683 40.3037L14.0684 1.75109Z" fill="#860EDF"/>
<path fill-rule="evenodd" clip-rule="evenodd" d="M14.209 1.60607L14.419 1.38818L54.4188 39.9407L54.2088 40.1586L14.209 1.60607Z" fill="#860EDF"/>
<path fill-rule="evenodd" clip-rule="evenodd" d="M14.3477 1.46056L14.5577 1.24268L54.5576 39.7952L54.3476 40.0131L14.3477 1.46056Z" fill="#860EDF"/>
<path fill-rule="evenodd" clip-rule="evenodd" d="M14.4883 1.31507L14.6983 1.09717L54.6981 39.6498L54.4881 39.8677L14.4883 1.31507Z" fill="#850EDF"/>
<path fill-rule="evenodd" clip-rule="evenodd" d="M14.6289 1.17004L14.8389 0.952148L54.8387 39.5047L54.6287 39.7225L14.6289 1.17004Z" fill="#850EDE"/>
<path fill-rule="evenodd" clip-rule="evenodd" d="M14.7676 1.02502L14.9777 0.807129L54.9775 39.3596L54.7675 39.5775L14.7676 1.02502Z" fill="#850DDE"/>
<path fill-rule="evenodd" clip-rule="evenodd" d="M14.9082 0.87952L15.1182 0.661621L55.118 39.2141L54.908 39.432L14.9082 0.87952Z" fill="#850DDE"/>
<path fill-rule="evenodd" clip-rule="evenodd" d="M15.0469 0.734013L15.2569 0.516113L55.2568 39.0686L55.0468 39.2865L15.0469 0.734013Z" fill="#840DDE"/>
<path fill-rule="evenodd" clip-rule="evenodd" d="M15.1895 0.589103L15.3994 0.371094L55.3993 38.9237L55.1893 39.1416L15.1895 0.589103Z" fill="#840DDE"/>
<path fill-rule="evenodd" clip-rule="evenodd" d="M15.3281 0.443473L15.5381 0.225586L55.5381 38.7781L55.3279 38.996L15.3281 0.443473Z" fill="#840DDE"/>
<path fill-rule="evenodd" clip-rule="evenodd" d="M15.4688 0.298453L15.6787 0.0805664L55.6786 38.6331L55.4686 38.851L15.4688 0.298453Z" fill="#840DDE"/>
<path fill-rule="evenodd" clip-rule="evenodd" d="M15.6074 0.152958L15.8174 -0.0649414L55.8172 38.4877L55.6072 38.7056L15.6074 0.152958Z" fill="#840DDE"/>
<path fill-rule="evenodd" clip-rule="evenodd" d="M15.748 0.00743784L15.9581 -0.210449L55.958 38.3421L55.748 38.56L15.748 0.00743784Z" fill="#840DDE"/>
<path fill-rule="evenodd" clip-rule="evenodd" d="M15.8887 -0.137093L16.0987 -0.35498L56.0985 38.1975L55.8885 38.4154L15.8887 -0.137093Z" fill="#830DDE"/>
<path fill-rule="evenodd" clip-rule="evenodd" d="M16.0273 -0.283077L16.2373 -0.500977L56.2373 38.0517L56.0271 38.2695L16.0273 -0.283077Z" fill="#830DDE"/>
<path fill-rule="evenodd" clip-rule="evenodd" d="M16.168 -0.428097L16.378 -0.645996L56.3778 37.9065L56.1678 38.1244L16.168 -0.428097Z" fill="#830DDE"/>
<path fill-rule="evenodd" clip-rule="evenodd" d="M16.3066 -0.573129L16.5166 -0.791016L56.5165 37.7615L56.3065 37.9794L16.3066 -0.573129Z" fill="#830DDE"/>
<path fill-rule="evenodd" clip-rule="evenodd" d="M16.4492 -0.718636L16.6593 -0.936523L56.6592 37.616L56.4492 37.8339L16.4492 -0.718636Z" fill="#830DDE"/>
<path fill-rule="evenodd" clip-rule="evenodd" d="M16.5879 -0.863656L16.7979 -1.08154L56.7977 37.471L56.5877 37.6888L16.5879 -0.863656Z" fill="#830DDE"/>
<path fill-rule="evenodd" clip-rule="evenodd" d="M16.7285 -1.00903L16.9385 -1.22705L56.9384 37.3256L56.7284 37.5435L16.7285 -1.00903Z" fill="#830DDE"/>
<path fill-rule="evenodd" clip-rule="evenodd" d="M16.8672 -1.15417L20.8237 -5.25928L60.8236 33.2932L56.867 37.3983L16.8672 -1.15417Z" fill="#830DDE"/>
</g>
<path fill-rule="evenodd" clip-rule="evenodd" d="M28.4325 67.8115L28.4238 67.8073L28.4171 59.0136L10.2275 48.523L10.2207 30.5194L17.9227 34.9454L17.926 43.2097C17.9736 43.8894 18.1678 44.3547 18.7547 44.8233L35.1396 54.2727L35.1429 54.279C35.6873 54.5805 36.0561 55.1606 36.0561 55.8269C36.0561 55.8907 36.0527 55.9536 36.0462 56.0156L36.0564 61.5806L55.0413 50.632C55.6272 50.1422 55.7932 49.6478 55.8202 48.9001L55.8241 48.907V29.1746L63.9155 24.5122V51.9699C63.9186 52.0367 63.9204 52.1038 63.9204 52.1713C63.9204 53.7172 63.091 55.0693 61.8533 55.8075L61.853 55.8084L61.808 55.8344L61.7851 55.8476L35.0289 71.2774C34.3535 71.7336 33.5395 72 32.6631 72C30.3405 72 28.4553 70.1287 28.4325 67.8115Z" fill="url(#paint0_linear_242_4622)"/>
<mask id="mask1_242_4622" style="mask-type:luminance" maskUnits="userSpaceOnUse" x="5" y="0" width="60" height="58">
<path d="M38.0168 57.7093L37.9931 49.0617L45.0442 45.0148C45.6777 44.509 45.854 44.0071 45.8817 43.235L45.8818 43.2352L45.9192 23.6767L51.9644 20.1906L32.499 8.9338L14.7137 19.1911L5.96484 14.1446L29.5301 0.5835L29.6054 0.540147L29.6708 0.502558L29.6729 0.502938C30.2691 0.182177 30.9507 0 31.675 0C32.6042 0 33.4633 0.299578 34.1613 0.807407L63.5278 17.7436L63.5274 17.7461C64.2749 18.1882 64.7764 19.0025 64.7764 19.934C64.7764 20.8331 64.309 21.6233 63.604 22.0747L63.6062 22.0845L53.8111 27.7434L53.8148 48.612L38.0168 57.7093Z" fill="white"/>
</mask>
<g mask="url(#mask1_242_4622)">
<path fill-rule="evenodd" clip-rule="evenodd" d="M40.9847 60.8247L40.8301 60.6622L74.3458 28.7676L74.5005 28.9302L40.9847 60.8247Z" fill="#01F40E"/>
<path fill-rule="evenodd" clip-rule="evenodd" d="M40.9057 60.7432L40.6738 60.4995L74.1895 28.605L74.4214 28.8487L40.9057 60.7432Z" fill="#01F40F"/>
<path fill-rule="evenodd" clip-rule="evenodd" d="M40.7515 60.5806L40.5195 60.337L74.0352 28.4424L74.2672 28.6861L40.7515 60.5806Z" fill="#01F40F"/>
<path fill-rule="evenodd" clip-rule="evenodd" d="M40.5972 60.4184L40.3652 60.1747L73.8809 28.2803L74.1129 28.5238L40.5972 60.4184Z" fill="#01F30F"/>
<path fill-rule="evenodd" clip-rule="evenodd" d="M40.4409 60.2559L40.209 60.0121L73.7248 28.1177L73.9566 28.3614L40.4409 60.2559Z" fill="#01F30F"/>
<path fill-rule="evenodd" clip-rule="evenodd" d="M40.2886 60.0934L40.0566 59.8497L73.5725 27.9551L73.8044 28.1988L40.2886 60.0934Z" fill="#01F310"/>
<path fill-rule="evenodd" clip-rule="evenodd" d="M40.1341 59.9307L39.9023 59.687L73.418 27.7925L73.65 28.0362L40.1341 59.9307Z" fill="#01F310"/>
<path fill-rule="evenodd" clip-rule="evenodd" d="M39.9779 59.7685L39.7461 59.525L73.2618 27.6304L73.4937 27.8741L39.9779 59.7685Z" fill="#01F310"/>
<path fill-rule="evenodd" clip-rule="evenodd" d="M39.8237 59.6059L39.5918 59.3622L73.1075 27.4678L73.3394 27.7114L39.8237 59.6059Z" fill="#01F310"/>
<path fill-rule="evenodd" clip-rule="evenodd" d="M39.6675 59.4434L39.4355 59.1996L72.9512 27.3052L73.1832 27.5489L39.6675 59.4434Z" fill="#01F211"/>
<path fill-rule="evenodd" clip-rule="evenodd" d="M39.5151 59.2809L39.2832 59.0372L72.7989 27.1426L73.0308 27.3863L39.5151 59.2809Z" fill="#01F211"/>
<path fill-rule="evenodd" clip-rule="evenodd" d="M39.3608 59.1186L39.1289 58.875L72.6446 26.9805L72.8765 27.2242L39.3608 59.1186Z" fill="#01F212"/>
<path fill-rule="evenodd" clip-rule="evenodd" d="M39.2065 58.956L38.9746 58.7123L72.4904 26.8179L72.7222 27.0616L39.2065 58.956Z" fill="#01F212"/>
<path fill-rule="evenodd" clip-rule="evenodd" d="M39.0503 58.7936L38.8184 58.5499L72.3342 26.6553L72.566 26.899L39.0503 58.7936Z" fill="#01F112"/>
<path fill-rule="evenodd" clip-rule="evenodd" d="M38.896 58.6309L38.6641 58.3871L72.1799 26.4927L72.4118 26.7364L38.896 58.6309Z" fill="#01F113"/>
<path fill-rule="evenodd" clip-rule="evenodd" d="M38.7416 58.4689L38.5098 58.2252L72.0255 26.3306L72.2574 26.5743L38.7416 58.4689Z" fill="#01F113"/>
<path fill-rule="evenodd" clip-rule="evenodd" d="M38.5873 58.3062L38.3555 58.0625L71.8712 26.168L72.1031 26.4117L38.5873 58.3062Z" fill="#01F114"/>
<path fill-rule="evenodd" clip-rule="evenodd" d="M38.4331 58.1435L38.2012 57.8998L71.7169 26.0054L71.9488 26.2491L38.4331 58.1435Z" fill="#01F014"/>
<path fill-rule="evenodd" clip-rule="evenodd" d="M38.2769 57.9811L38.0449 57.7374L71.5606 25.8428L71.7925 26.0865L38.2769 57.9811Z" fill="#01F015"/>
<path fill-rule="evenodd" clip-rule="evenodd" d="M38.1225 57.8188L37.8906 57.5751L71.4063 25.6807L71.6382 25.9244L38.1225 57.8188Z" fill="#01F015"/>
<path fill-rule="evenodd" clip-rule="evenodd" d="M37.9682 57.6564L37.7363 57.4127L71.252 25.5181L71.4839 25.7618L37.9682 57.6564Z" fill="#01EF16"/>
<path fill-rule="evenodd" clip-rule="evenodd" d="M37.814 57.4941L37.582 57.2504L71.0979 25.356L71.3297 25.5996L37.814 57.4941Z" fill="#01EF17"/>
<path fill-rule="evenodd" clip-rule="evenodd" d="M37.6597 57.3315L37.4277 57.0878L70.9436 25.1934L71.1755 25.4371L37.6597 57.3315Z" fill="#01EF17"/>
<path fill-rule="evenodd" clip-rule="evenodd" d="M37.5054 57.1691L37.2734 56.9254L70.7892 25.0308L71.0212 25.2745L37.5054 57.1691Z" fill="#01EE18"/>
<path fill-rule="evenodd" clip-rule="evenodd" d="M37.3509 57.0068L37.1191 56.7631L70.6348 24.8687L70.8667 25.1124L37.3509 57.0068Z" fill="#01EE18"/>
<path fill-rule="evenodd" clip-rule="evenodd" d="M37.1948 56.8444L36.9629 56.6007L70.4786 24.7061L70.7105 24.9497L37.1948 56.8444Z" fill="#01EE19"/>
<path fill-rule="evenodd" clip-rule="evenodd" d="M37.0405 56.6816L36.8086 56.4379L70.3243 24.5435L70.5562 24.7871L37.0405 56.6816Z" fill="#01ED1A"/>
<path fill-rule="evenodd" clip-rule="evenodd" d="M36.8882 56.519L36.6562 56.2753L70.1719 24.3809L70.4039 24.6246L36.8882 56.519Z" fill="#01ED1A"/>
<path fill-rule="evenodd" clip-rule="evenodd" d="M36.7319 56.3566L36.5 56.1129L70.0157 24.2183L70.2476 24.462L36.7319 56.3566Z" fill="#01EC1B"/>
<path fill-rule="evenodd" clip-rule="evenodd" d="M36.5776 56.1943L36.3457 55.9506L69.8615 24.0562L70.0933 24.2999L36.5776 56.1943Z" fill="#01EC1C"/>
<path fill-rule="evenodd" clip-rule="evenodd" d="M36.4214 56.0319L36.1895 55.7882L69.7053 23.8936L69.9371 24.1373L36.4214 56.0319Z" fill="#01EC1D"/>
<path fill-rule="evenodd" clip-rule="evenodd" d="M36.2671 55.8691L36.0352 55.6254L69.551 23.731L69.7829 23.9747L36.2671 55.8691Z" fill="#01EB1D"/>
<path fill-rule="evenodd" clip-rule="evenodd" d="M36.1127 55.7065L35.8809 55.4628L69.3965 23.5684L69.6285 23.8121L36.1127 55.7065Z" fill="#01EB1E"/>
<path fill-rule="evenodd" clip-rule="evenodd" d="M35.9584 55.5446L35.7266 55.3009L69.2423 23.4062L69.4742 23.65L35.9584 55.5446Z" fill="#01EA1F"/>
<path fill-rule="evenodd" clip-rule="evenodd" d="M35.8042 55.3818L35.5723 55.1381L69.088 23.2437L69.3199 23.4874L35.8042 55.3818Z" fill="#01EA20"/>
<path fill-rule="evenodd" clip-rule="evenodd" d="M35.6499 55.2194L35.418 54.9757L68.9337 23.0811L69.1656 23.3248L35.6499 55.2194Z" fill="#01E921"/>
<path fill-rule="evenodd" clip-rule="evenodd" d="M35.4956 55.0571L35.2637 54.8134L68.7794 22.9189L69.0113 23.1627L35.4956 55.0571Z" fill="#01E921"/>
<path fill-rule="evenodd" clip-rule="evenodd" d="M35.3393 54.8945L35.1074 54.6508L68.6231 22.7563L68.855 23L35.3393 54.8945Z" fill="#01E822"/>
<path fill-rule="evenodd" clip-rule="evenodd" d="M35.187 54.7321L34.9551 54.4884L68.4709 22.5938L68.7027 22.8375L35.187 54.7321Z" fill="#01E823"/>
<path fill-rule="evenodd" clip-rule="evenodd" d="M35.0308 54.5698L34.7988 54.3261L68.3146 22.4316L68.5466 22.6753L35.0308 54.5698Z" fill="#01E724"/>
<path fill-rule="evenodd" clip-rule="evenodd" d="M34.8765 54.4073L34.6445 54.1636L68.1604 22.269L68.3923 22.5127L34.8765 54.4073Z" fill="#01E725"/>
<path fill-rule="evenodd" clip-rule="evenodd" d="M34.722 54.2446L34.4902 54.0009L68.0059 22.1064L68.2379 22.3502L34.722 54.2446Z" fill="#01E626"/>
<path fill-rule="evenodd" clip-rule="evenodd" d="M34.5659 54.0825L34.334 53.8388L67.8497 21.9443L68.0816 22.188L34.5659 54.0825Z" fill="#01E627"/>
<path fill-rule="evenodd" clip-rule="evenodd" d="M34.4136 53.92L34.1816 53.6763L67.6973 21.7817L67.9293 22.0254L34.4136 53.92Z" fill="#01E528"/>
<path fill-rule="evenodd" clip-rule="evenodd" d="M34.2593 53.7573L34.0273 53.5136L67.543 21.6191L67.775 21.8628L34.2593 53.7573Z" fill="#01E528"/>
<path fill-rule="evenodd" clip-rule="evenodd" d="M34.105 53.5948L33.873 53.3511L67.3887 21.4565L67.6207 21.7002L34.105 53.5948Z" fill="#01E429"/>
<path fill-rule="evenodd" clip-rule="evenodd" d="M33.9487 53.4326L33.7168 53.1889L67.2326 21.2944L67.4644 21.5381L33.9487 53.4326Z" fill="#01E42A"/>
<path fill-rule="evenodd" clip-rule="evenodd" d="M33.7944 53.27L33.5625 53.0263L67.0783 21.1318L67.3101 21.3755L33.7944 53.27Z" fill="#01E32B"/>
<path fill-rule="evenodd" clip-rule="evenodd" d="M33.6401 53.1075L33.4082 52.8638L66.924 20.9692L67.1559 21.2129L33.6401 53.1075Z" fill="#01E22C"/>
<path fill-rule="evenodd" clip-rule="evenodd" d="M33.4857 52.9448L33.2539 52.7011L66.7696 20.8066L67.0015 21.0503L33.4857 52.9448Z" fill="#01E22D"/>
<path fill-rule="evenodd" clip-rule="evenodd" d="M33.3314 52.7828L33.0996 52.5391L66.6153 20.6445L66.8472 20.8882L33.3314 52.7828Z" fill="#01E12E"/>
<path fill-rule="evenodd" clip-rule="evenodd" d="M33.1753 52.6201L32.9434 52.3764L66.4591 20.4819L66.691 20.7256L33.1753 52.6201Z" fill="#01E12F"/>
<path fill-rule="evenodd" clip-rule="evenodd" d="M33.021 52.4575L32.7891 52.2138L66.3047 20.3193L66.5367 20.563L33.021 52.4575Z" fill="#01E030"/>
<path fill-rule="evenodd" clip-rule="evenodd" d="M32.8647 52.295L32.6328 52.0513L66.1485 20.1567L66.3804 20.4004L32.8647 52.295Z" fill="#01E031"/>
<path fill-rule="evenodd" clip-rule="evenodd" d="M32.7124 52.1323L32.4805 51.8886L65.9962 19.9941L66.2281 20.2378L32.7124 52.1323Z" fill="#01DF32"/>
<path fill-rule="evenodd" clip-rule="evenodd" d="M32.5581 51.9703L32.3262 51.7266L65.842 19.832L66.0738 20.0757L32.5581 51.9703Z" fill="#01DE33"/>
<path fill-rule="evenodd" clip-rule="evenodd" d="M32.4038 51.8081L32.1719 51.5644L65.6877 19.6699L65.9196 19.9136L32.4038 51.8081Z" fill="#01DE34"/>
<path fill-rule="evenodd" clip-rule="evenodd" d="M32.2475 51.6455L32.0156 51.4018L65.5314 19.5073L65.7634 19.751L32.2475 51.6455Z" fill="#01DD35"/>
<path fill-rule="evenodd" clip-rule="evenodd" d="M32.0931 51.4825L31.8613 51.2388L65.377 19.3442L65.6089 19.5879L32.0931 51.4825Z" fill="#01DD37"/>
<path fill-rule="evenodd" clip-rule="evenodd" d="M31.939 51.3203L31.707 51.0766L65.2227 19.1821L65.4547 19.4258L31.939 51.3203Z" fill="#01DC38"/>
<path fill-rule="evenodd" clip-rule="evenodd" d="M31.7847 51.1583L31.5527 50.9146L65.0684 19.02L65.3004 19.2637L31.7847 51.1583Z" fill="#01DB39"/>
<path fill-rule="evenodd" clip-rule="evenodd" d="M31.6304 50.9956L31.3984 50.7519L64.9141 18.8574L65.146 19.1011L31.6304 50.9956Z" fill="#01DB3A"/>
<path fill-rule="evenodd" clip-rule="evenodd" d="M31.4761 50.833L31.2441 50.5893L64.7598 18.6948L64.9918 18.9385L31.4761 50.833Z" fill="#01DA3B"/>
<path fill-rule="evenodd" clip-rule="evenodd" d="M31.3198 50.6705L31.0879 50.4268L64.6037 18.5322L64.8355 18.7759L31.3198 50.6705Z" fill="#01D93C"/>
<path fill-rule="evenodd" clip-rule="evenodd" d="M31.1655 50.5083L30.9336 50.2646L64.4494 18.3701L64.6812 18.6138L31.1655 50.5083Z" fill="#01D93D"/>
<path fill-rule="evenodd" clip-rule="evenodd" d="M31.0112 50.3458L30.7793 50.1021L64.2951 18.2075L64.527 18.4512L31.0112 50.3458Z" fill="#01D83E"/>
<path fill-rule="evenodd" clip-rule="evenodd" d="M30.8568 50.1831L30.625 49.9394L64.1407 18.0449L64.3726 18.2886L30.8568 50.1831Z" fill="#01D73F"/>
<path fill-rule="evenodd" clip-rule="evenodd" d="M30.7025 50.0205L30.4707 49.7768L63.9864 17.8823L64.2183 18.126L30.7025 50.0205Z" fill="#01D741"/>
<path fill-rule="evenodd" clip-rule="evenodd" d="M30.5483 49.8585L30.3164 49.6148L63.8321 17.7202L64.064 17.9639L30.5483 49.8585Z" fill="#01D642"/>
<path fill-rule="evenodd" clip-rule="evenodd" d="M30.3921 49.6958L30.1602 49.4521L63.6758 17.5576L63.9078 17.8013L30.3921 49.6958Z" fill="#01D543"/>
<path fill-rule="evenodd" clip-rule="evenodd" d="M30.2378 49.5333L30.0059 49.2896L63.5216 17.395L63.7535 17.6387L30.2378 49.5333Z" fill="#01D544"/>
<path fill-rule="evenodd" clip-rule="evenodd" d="M30.0854 49.3706L29.8535 49.1269L63.3692 17.2324L63.6011 17.4761L30.0854 49.3706Z" fill="#01D445"/>
<path fill-rule="evenodd" clip-rule="evenodd" d="M29.9292 49.2085L29.6973 48.9648L63.2131 17.0703L63.4449 17.314L29.9292 49.2085Z" fill="#01D346"/>
<path fill-rule="evenodd" clip-rule="evenodd" d="M29.7749 49.046L29.543 48.8023L63.0588 16.9077L63.2907 17.1514L29.7749 49.046Z" fill="#01D347"/>
<path fill-rule="evenodd" clip-rule="evenodd" d="M29.6186 48.8838L29.3867 48.6401L62.9025 16.7456L63.1345 16.9893L29.6186 48.8838Z" fill="#01D249"/>
<path fill-rule="evenodd" clip-rule="evenodd" d="M29.4642 48.7207L29.2324 48.4771L62.7481 16.5825L62.98 16.8262L29.4642 48.7207Z" fill="#01D14A"/>
<path fill-rule="evenodd" clip-rule="evenodd" d="M29.312 48.5586L29.0801 48.3149L62.5958 16.4204L62.8277 16.6641L29.312 48.5586Z" fill="#01D14B"/>
<path fill-rule="evenodd" clip-rule="evenodd" d="M29.1577 48.3965L28.9258 48.1528L62.4415 16.2583L62.6734 16.502L29.1577 48.3965Z" fill="#01D04C"/>
<path fill-rule="evenodd" clip-rule="evenodd" d="M29.0015 48.234L28.7695 47.9903L62.2852 16.0957L62.5172 16.3394L29.0015 48.234Z" fill="#01CF4D"/>
<path fill-rule="evenodd" clip-rule="evenodd" d="M28.8472 48.0713L28.6152 47.8276L62.1309 15.9331L62.3629 16.1768L28.8472 48.0713Z" fill="#01CF4F"/>
<path fill-rule="evenodd" clip-rule="evenodd" d="M28.6929 47.9087L28.4609 47.6651L61.9768 15.7705L62.2086 16.0142L28.6929 47.9087Z" fill="#01CE50"/>
<path fill-rule="evenodd" clip-rule="evenodd" d="M28.5386 47.7466L28.3066 47.5029L61.8225 15.6084L62.0543 15.852L28.5386 47.7466Z" fill="#01CD51"/>
<path fill-rule="evenodd" clip-rule="evenodd" d="M28.3843 47.584L28.1523 47.3403L61.6682 15.4458L61.9001 15.6895L28.3843 47.584Z" fill="#01CC52"/>
<path fill-rule="evenodd" clip-rule="evenodd" d="M28.2279 47.4215L27.9961 47.1778L61.5118 15.2832L61.7437 15.5269L28.2279 47.4215Z" fill="#01CC53"/>
<path fill-rule="evenodd" clip-rule="evenodd" d="M28.0736 47.2588L27.8418 47.0151L61.3575 15.1206L61.5894 15.3643L28.0736 47.2588Z" fill="#01CB55"/>
<path fill-rule="evenodd" clip-rule="evenodd" d="M27.9194 47.0962L27.6875 46.8526L61.2032 14.958L61.4351 15.2017L27.9194 47.0962Z" fill="#01CA56"/>
<path fill-rule="evenodd" clip-rule="evenodd" d="M27.7632 46.9341L27.5312 46.6904L61.0469 14.7959L61.2789 15.0395L27.7632 46.9341Z" fill="#01CA57"/>
<path fill-rule="evenodd" clip-rule="evenodd" d="M27.6108 46.7715L27.3789 46.5278L60.8946 14.6333L61.1265 14.877L27.6108 46.7715Z" fill="#01C958"/>
<path fill-rule="evenodd" clip-rule="evenodd" d="M27.4565 46.609L27.2246 46.3653L60.7403 14.4707L60.9722 14.7144L27.4565 46.609Z" fill="#01C85A"/>
<path fill-rule="evenodd" clip-rule="evenodd" d="M27.3022 46.4463L27.0703 46.2026L60.5861 14.3081L60.8179 14.5518L27.3022 46.4463Z" fill="#01C85B"/>
<path fill-rule="evenodd" clip-rule="evenodd" d="M27.146 46.2842L26.9141 46.0406L60.4299 14.146L60.6618 14.3897L27.146 46.2842Z" fill="#01C75C"/>
<path fill-rule="evenodd" clip-rule="evenodd" d="M26.9917 46.1221L26.7598 45.8784L60.2756 13.9839L60.5075 14.2275L26.9917 46.1221Z" fill="#01C65D"/>
<path fill-rule="evenodd" clip-rule="evenodd" d="M26.8373 45.959L26.6055 45.7153L60.1212 13.8208L60.3531 14.0645L26.8373 45.959Z" fill="#01C55F"/>
<path fill-rule="evenodd" clip-rule="evenodd" d="M26.6831 45.7965L26.4512 45.5528L59.9669 13.6582L60.1988 13.9019L26.6831 45.7965Z" fill="#01C560"/>
<path fill-rule="evenodd" clip-rule="evenodd" d="M26.5288 45.6343L26.2969 45.3906L59.8126 13.4961L60.0445 13.7398L26.5288 45.6343Z" fill="#01C461"/>
<path fill-rule="evenodd" clip-rule="evenodd" d="M26.3725 45.4722L26.1406 45.2286L59.6563 13.334L59.8882 13.5777L26.3725 45.4722Z" fill="#01C362"/>
<path fill-rule="evenodd" clip-rule="evenodd" d="M26.2182 45.3096L25.9863 45.0659L59.502 13.1714L59.7339 13.415L26.2182 45.3096Z" fill="#01C363"/>
<path fill-rule="evenodd" clip-rule="evenodd" d="M26.064 45.147L25.832 44.9033L59.3479 13.0088L59.5797 13.2525L26.064 45.147Z" fill="#01C265"/>
<path fill-rule="evenodd" clip-rule="evenodd" d="M25.9097 44.9845L25.6777 44.7408L59.1936 12.8462L59.4254 13.0899L25.9097 44.9845Z" fill="#01C166"/>
<path fill-rule="evenodd" clip-rule="evenodd" d="M25.7554 44.8223L25.5234 44.5786L59.0392 12.6841L59.2712 12.9278L25.7554 44.8223Z" fill="#01C067"/>
<path fill-rule="evenodd" clip-rule="evenodd" d="M25.6009 44.6597L25.3691 44.4161L58.8848 12.5215L59.1167 12.7652L25.6009 44.6597Z" fill="#01C068"/>
<path fill-rule="evenodd" clip-rule="evenodd" d="M25.4466 44.4971L25.2148 44.2534L58.7305 12.3589L58.9625 12.6025L25.4466 44.4971Z" fill="#01BF6A"/>
<path fill-rule="evenodd" clip-rule="evenodd" d="M25.2905 44.3345L25.0586 44.0908L58.5743 12.1963L58.8062 12.44L25.2905 44.3345Z" fill="#01BE6B"/>
<path fill-rule="evenodd" clip-rule="evenodd" d="M25.1362 44.1725L24.9043 43.9288L58.42 12.0342L58.6519 12.2779L25.1362 44.1725Z" fill="#01BD6C"/>
<path fill-rule="evenodd" clip-rule="evenodd" d="M24.9819 44.0098L24.75 43.7661L58.2657 11.8716L58.4976 12.1153L24.9819 44.0098Z" fill="#01BD6D"/>
<path fill-rule="evenodd" clip-rule="evenodd" d="M24.8276 43.8472L24.5957 43.6036L58.1114 11.709L58.3433 11.9527L24.8276 43.8472Z" fill="#01BC6F"/>
<path fill-rule="evenodd" clip-rule="evenodd" d="M24.6733 43.6851L24.4414 43.4413L57.9572 11.5469L58.189 11.7904L24.6733 43.6851Z" fill="#01BB70"/>
<path fill-rule="evenodd" clip-rule="evenodd" d="M24.5171 43.522L24.2852 43.2783L57.801 11.3838L58.0329 11.6275L24.5171 43.522Z" fill="#01BB71"/>
<path fill-rule="evenodd" clip-rule="evenodd" d="M24.3628 43.36L24.1309 43.1163L57.6467 11.2217L57.8786 11.4654L24.3628 43.36Z" fill="#01BA72"/>
<path fill-rule="evenodd" clip-rule="evenodd" d="M24.2103 43.1973L23.9785 42.9536L57.4942 11.0591L57.7261 11.3028L24.2103 43.1973Z" fill="#01B974"/>
<path fill-rule="evenodd" clip-rule="evenodd" d="M24.0542 43.0347L23.8223 42.7911L57.338 10.8965L57.5699 11.1402L24.0542 43.0347Z" fill="#01B875"/>
<path fill-rule="evenodd" clip-rule="evenodd" d="M23.8999 42.8721L23.668 42.6284L57.1837 10.7339L57.4156 10.9775L23.8999 42.8721Z" fill="#01B876"/>
<path fill-rule="evenodd" clip-rule="evenodd" d="M23.7456 42.71L23.5137 42.4662L57.0294 10.5718L57.2613 10.8155L23.7456 42.71Z" fill="#00B777"/>
<path fill-rule="evenodd" clip-rule="evenodd" d="M23.5893 42.5475L23.3574 42.3038L56.8731 10.4092L57.105 10.6529L23.5893 42.5475Z" fill="#00B679"/>
<path fill-rule="evenodd" clip-rule="evenodd" d="M23.437 42.3852L23.2051 42.1416L56.7209 10.2471L56.9527 10.4908L23.437 42.3852Z" fill="#00B67A"/>
<path fill-rule="evenodd" clip-rule="evenodd" d="M23.2827 42.2222L23.0508 41.9786L56.5666 10.084L56.7984 10.3277L23.2827 42.2222Z" fill="#00B57B"/>
<path fill-rule="evenodd" clip-rule="evenodd" d="M23.1265 42.0601L22.8945 41.8163L56.4104 9.92188L56.6423 10.1655L23.1265 42.0601Z" fill="#00B47C"/>
<path fill-rule="evenodd" clip-rule="evenodd" d="M22.972 41.8979L22.7402 41.6542L56.2559 9.75977L56.4879 10.0035L22.972 41.8979Z" fill="#00B37E"/>
<path fill-rule="evenodd" clip-rule="evenodd" d="M22.8158 41.7355L22.584 41.4918L56.0997 9.59717L56.3316 9.84086L22.8158 41.7355Z" fill="#00B37F"/>
<path fill-rule="evenodd" clip-rule="evenodd" d="M22.6636 41.5728L22.4316 41.3291L55.9473 9.43457L56.1793 9.67828L22.6636 41.5728Z" fill="#00B280"/>
<path fill-rule="evenodd" clip-rule="evenodd" d="M22.5093 41.4101L22.2773 41.1666L55.793 9.27197L56.025 9.51568L22.5093 41.4101Z" fill="#00B181"/>
<path fill-rule="evenodd" clip-rule="evenodd" d="M22.355 41.248L22.123 41.0043L55.6387 9.10986L55.8707 9.35345L22.355 41.248Z" fill="#00B182"/>
<path fill-rule="evenodd" clip-rule="evenodd" d="M22.1987 41.0854L21.9668 40.8417L55.4825 8.94727L55.7144 9.19097L22.1987 41.0854Z" fill="#00B084"/>
<path fill-rule="evenodd" clip-rule="evenodd" d="M22.0444 40.923L21.8125 40.6793L55.3283 8.78467L55.5601 9.02836L22.0444 40.923Z" fill="#00AF85"/>
<path fill-rule="evenodd" clip-rule="evenodd" d="M21.8901 40.7602L21.6582 40.5165L55.174 8.62207L55.4058 8.86576L21.8901 40.7602Z" fill="#00AF86"/>
<path fill-rule="evenodd" clip-rule="evenodd" d="M21.7358 40.5981L21.5039 40.3546L55.0197 8.45996L55.2516 8.70367L21.7358 40.5981Z" fill="#00AE87"/>
<path fill-rule="evenodd" clip-rule="evenodd" d="M21.5814 40.4355L21.3496 40.1918L54.8653 8.29736L55.0972 8.54095L21.5814 40.4355Z" fill="#00AD88"/>
<path fill-rule="evenodd" clip-rule="evenodd" d="M21.4272 40.2729L21.1953 40.0292L54.711 8.13477L54.9429 8.37847L21.4272 40.2729Z" fill="#00AC8A"/>
<path fill-rule="evenodd" clip-rule="evenodd" d="M21.271 40.1105L21.0391 39.8668L54.5547 7.97217L54.7867 8.21586L21.271 40.1105Z" fill="#00AC8B"/>
<path fill-rule="evenodd" clip-rule="evenodd" d="M21.1167 39.9482L20.8848 39.7045L54.4005 7.81006L54.6324 8.05375L21.1167 39.9482Z" fill="#00AB8C"/>
<path fill-rule="evenodd" clip-rule="evenodd" d="M20.9624 39.7856L20.7305 39.5421L54.2462 7.64746L54.4781 7.89117L20.9624 39.7856Z" fill="#00AA8D"/>
<path fill-rule="evenodd" clip-rule="evenodd" d="M20.8081 39.6235L20.5762 39.3798L54.0919 7.48535L54.3238 7.72893L20.8081 39.6235Z" fill="#00AA8E"/>
<path fill-rule="evenodd" clip-rule="evenodd" d="M20.6538 39.4609L20.4219 39.2172L53.9377 7.32275L54.1695 7.56646L20.6538 39.4609Z" fill="#00A990"/>
<path fill-rule="evenodd" clip-rule="evenodd" d="M20.4995 39.2985L20.2676 39.0548L53.7834 7.16016L54.0153 7.40386L20.4995 39.2985Z" fill="#00A891"/>
<path fill-rule="evenodd" clip-rule="evenodd" d="M20.3431 39.1362L20.1113 38.8925L53.627 6.99805L53.8589 7.24175L20.3431 39.1362Z" fill="#00A892"/>
<path fill-rule="evenodd" clip-rule="evenodd" d="M20.1888 38.9736L19.957 38.7301L53.4727 6.83545L53.7047 7.07915L20.1888 38.9736Z" fill="#00A793"/>
<path fill-rule="evenodd" clip-rule="evenodd" d="M20.0366 38.811L19.8047 38.5673L53.3204 6.67285L53.5523 6.91643L20.0366 38.811Z" fill="#00A694"/>
<path fill-rule="evenodd" clip-rule="evenodd" d="M19.8804 38.6484L19.6484 38.4047L53.1641 6.51025L53.396 6.75396L19.8804 38.6484Z" fill="#00A695"/>
<path fill-rule="evenodd" clip-rule="evenodd" d="M19.7261 38.4864L19.4941 38.2427L53.0098 6.34814L53.2418 6.59185L19.7261 38.4864Z" fill="#00A597"/>
<path fill-rule="evenodd" clip-rule="evenodd" d="M19.5698 38.3237L19.3379 38.08L52.8536 6.18555L53.0855 6.42925L19.5698 38.3237Z" fill="#00A498"/>
<path fill-rule="evenodd" clip-rule="evenodd" d="M19.4155 38.1611L19.1836 37.9174L52.6994 6.02295L52.9312 6.26664L19.4155 38.1611Z" fill="#00A499"/>
<path fill-rule="evenodd" clip-rule="evenodd" d="M19.2612 37.9987L19.0293 37.755L52.5451 5.86035L52.7769 6.10406L19.2612 37.9987Z" fill="#00A39A"/>
<path fill-rule="evenodd" clip-rule="evenodd" d="M19.1069 37.8359L18.875 37.5922L52.3908 5.69775L52.6227 5.94146L19.1069 37.8359Z" fill="#00A29B"/>
<path fill-rule="evenodd" clip-rule="evenodd" d="M18.9525 37.6739L18.7207 37.4302L52.2364 5.53564L52.4683 5.77935L18.9525 37.6739Z" fill="#00A29C"/>
<path fill-rule="evenodd" clip-rule="evenodd" d="M18.7982 37.5112L18.5664 37.2675L52.0821 5.37305L52.314 5.61675L18.7982 37.5112Z" fill="#00A19D"/>
<path fill-rule="evenodd" clip-rule="evenodd" d="M18.644 37.3486L18.4121 37.1049L51.9278 5.21045L52.1597 5.45414L18.644 37.3486Z" fill="#00A09E"/>
<path fill-rule="evenodd" clip-rule="evenodd" d="M18.4878 37.1862L18.2559 36.9425L51.7716 5.04785L52.0035 5.29156L18.4878 37.1862Z" fill="#00A0A0"/>
<path fill-rule="evenodd" clip-rule="evenodd" d="M18.3354 37.0239L18.1035 36.7802L51.6192 4.88574L51.8511 5.12945L18.3354 37.0239Z" fill="#009FA1"/>
<path fill-rule="evenodd" clip-rule="evenodd" d="M18.1792 36.8614L17.9473 36.6177L51.463 4.72314L51.6949 4.96685L18.1792 36.8614Z" fill="#009EA2"/>
<path fill-rule="evenodd" clip-rule="evenodd" d="M18.0249 36.6987L17.793 36.455L51.3088 4.56055L51.5406 4.80425L18.0249 36.6987Z" fill="#009EA3"/>
<path fill-rule="evenodd" clip-rule="evenodd" d="M17.8706 36.5361L17.6387 36.2924L51.1545 4.39795L51.3864 4.64164L17.8706 36.5361Z" fill="#009DA4"/>
<path fill-rule="evenodd" clip-rule="evenodd" d="M17.7143 36.3741L17.4824 36.1304L50.9982 4.23584L51.2302 4.47954L17.7143 36.3741Z" fill="#009DA5"/>
<path fill-rule="evenodd" clip-rule="evenodd" d="M17.5619 36.2119L17.3301 35.9682L50.8458 4.07373L51.0777 4.31744L17.5619 36.2119Z" fill="#009CA6"/>
<path fill-rule="evenodd" clip-rule="evenodd" d="M17.4077 36.0494L17.1758 35.8057L50.6915 3.91113L50.9234 4.15484L17.4077 36.0494Z" fill="#009BA7"/>
<path fill-rule="evenodd" clip-rule="evenodd" d="M17.2534 35.8867L17.0215 35.643L50.5372 3.74854L50.7691 3.99224L17.2534 35.8867Z" fill="#009BA8"/>
<path fill-rule="evenodd" clip-rule="evenodd" d="M17.0972 35.7241L16.8652 35.4804L50.3809 3.58594L50.6129 3.82964L17.0972 35.7241Z" fill="#009AA9"/>
<path fill-rule="evenodd" clip-rule="evenodd" d="M16.9429 35.5621L16.7109 35.3184L50.2266 3.42383L50.4586 3.66753L16.9429 35.5621Z" fill="#009AAA"/>
<path fill-rule="evenodd" clip-rule="evenodd" d="M16.7886 35.3994L16.5566 35.1557L50.0725 3.26123L50.3043 3.50494L16.7886 35.3994Z" fill="#0099AB"/>
<path fill-rule="evenodd" clip-rule="evenodd" d="M16.6343 35.2369L16.4023 34.9932L49.9182 3.09863L50.15 3.34234L16.6343 35.2369Z" fill="#0098AC"/>
<path fill-rule="evenodd" clip-rule="evenodd" d="M16.48 35.0742L16.248 34.8305L49.7639 2.93604L49.9958 3.17974L16.48 35.0742Z" fill="#0098AD"/>
<path fill-rule="evenodd" clip-rule="evenodd" d="M16.3236 34.9121L16.0918 34.6684L49.6075 2.77393L49.8394 3.01763L16.3236 34.9121Z" fill="#0097AE"/>
<path fill-rule="evenodd" clip-rule="evenodd" d="M16.1693 34.7496L15.9375 34.5059L49.4532 2.61133L49.6851 2.85502L16.1693 34.7496Z" fill="#0097AF"/>
<path fill-rule="evenodd" clip-rule="evenodd" d="M16.0132 34.5869L15.7812 34.3432L49.2969 2.44873L49.5289 2.69242L16.0132 34.5869Z" fill="#0096B0"/>
<path fill-rule="evenodd" clip-rule="evenodd" d="M15.8608 34.4244L15.6289 34.1807L49.1446 2.28613L49.3765 2.52984L15.8608 34.4244Z" fill="#0096B1"/>
<path fill-rule="evenodd" clip-rule="evenodd" d="M15.7065 34.2617L15.4746 34.018L48.9903 2.12354L49.2222 2.36724L15.7065 34.2617Z" fill="#0095B2"/>
<path fill-rule="evenodd" clip-rule="evenodd" d="M15.5522 34.0996L15.3203 33.8559L48.836 1.96143L49.0679 2.20513L15.5522 34.0996Z" fill="#0094B3"/>
<path fill-rule="evenodd" clip-rule="evenodd" d="M15.396 33.9371L15.1641 33.6934L48.6799 1.79883L48.9117 2.04252L15.396 33.9371Z" fill="#0094B4"/>
<path fill-rule="evenodd" clip-rule="evenodd" d="M15.2417 33.7749L15.0098 33.5312L48.5256 1.63672L48.7575 1.88041L15.2417 33.7749Z" fill="#0093B5"/>
<path fill-rule="evenodd" clip-rule="evenodd" d="M15.0874 33.6124L14.8555 33.3687L48.3713 1.47412L48.6032 1.71783L15.0874 33.6124Z" fill="#0093B6"/>
<path fill-rule="evenodd" clip-rule="evenodd" d="M14.933 33.4502L14.7012 33.2065L48.2169 1.31201L48.4488 1.55572L14.933 33.4502Z" fill="#0092B7"/>
<path fill-rule="evenodd" clip-rule="evenodd" d="M14.7788 33.2876L14.5469 33.0439L48.0626 1.14941L48.2945 1.39312L14.7788 33.2876Z" fill="#0092B8"/>
<path fill-rule="evenodd" clip-rule="evenodd" d="M14.6245 33.1251L14.3926 32.8814L47.9083 0.986816L48.1402 1.23052L14.6245 33.1251Z" fill="#0091B9"/>
<path fill-rule="evenodd" clip-rule="evenodd" d="M14.4682 32.9624L14.2363 32.7187L47.752 0.824219L47.9839 1.06791L14.4682 32.9624Z" fill="#0091BA"/>
<path fill-rule="evenodd" clip-rule="evenodd" d="M14.314 32.7999L14.082 32.5562L47.5977 0.661621L47.8297 0.905326L14.314 32.7999Z" fill="#0090BB"/>
<path fill-rule="evenodd" clip-rule="evenodd" d="M14.1597 32.6377L13.9277 32.394L47.4436 0.499512L47.6754 0.743217L14.1597 32.6377Z" fill="#0090BB"/>
<path fill-rule="evenodd" clip-rule="evenodd" d="M14.0054 32.4751L13.7734 32.2314L47.2892 0.336914L47.521 0.580619L14.0054 32.4751Z" fill="#008FBC"/>
<path fill-rule="evenodd" clip-rule="evenodd" d="M13.8511 32.3126L13.6191 32.0689L47.135 0.174316L47.3669 0.418022L13.8511 32.3126Z" fill="#008FBD"/>
<path fill-rule="evenodd" clip-rule="evenodd" d="M13.6966 32.1499L13.4648 31.9062L46.9805 0.0117188L47.2125 0.255424L13.6966 32.1499Z" fill="#008EBE"/>
<path fill-rule="evenodd" clip-rule="evenodd" d="M13.5404 31.9879L13.3086 31.7442L46.8243 -0.150391L47.0562 0.0933145L13.5404 31.9879Z" fill="#008EBF"/>
<path fill-rule="evenodd" clip-rule="evenodd" d="M13.3862 31.8252L13.1543 31.5815L46.67 -0.312988L46.9019 -0.0692832L13.3862 31.8252Z" fill="#008DC0"/>
<path fill-rule="evenodd" clip-rule="evenodd" d="M13.2339 31.6626L13.002 31.4189L46.5177 -0.475586L46.7496 -0.231881L13.2339 31.6626Z" fill="#008DC1"/>
<path fill-rule="evenodd" clip-rule="evenodd" d="M13.0776 31.5001L12.8457 31.2564L46.3614 -0.638184L46.5933 -0.394478L13.0776 31.5001Z" fill="#008CC1"/>
<path fill-rule="evenodd" clip-rule="evenodd" d="M12.9233 31.3379L12.6914 31.0942L46.2071 -0.800293L46.439 -0.556588L12.9233 31.3379Z" fill="#008CC2"/>
<path fill-rule="evenodd" clip-rule="evenodd" d="M12.7671 31.1754L12.5352 30.9317L46.051 -0.962891L46.2828 -0.719198L12.7671 31.1754Z" fill="#008BC3"/>
<path fill-rule="evenodd" clip-rule="evenodd" d="M12.6128 31.0127L12.3809 30.769L45.8967 -1.12549L46.1286 -0.881795L12.6128 31.0127Z" fill="#008BC4"/>
<path fill-rule="evenodd" clip-rule="evenodd" d="M12.4604 30.8501L12.2285 30.6064L45.7443 -1.28809L45.9763 -1.04438L12.4604 30.8501Z" fill="#008AC5"/>
<path fill-rule="evenodd" clip-rule="evenodd" d="M12.306 30.6881L12.0742 30.4444L45.5899 -1.4502L45.8218 -1.20649L12.306 30.6881Z" fill="#008AC5"/>
<path fill-rule="evenodd" clip-rule="evenodd" d="M12.1499 30.5259L11.918 30.2822L45.4337 -1.6123L45.6656 -1.3686L12.1499 30.5259Z" fill="#0089C6"/>
<path fill-rule="evenodd" clip-rule="evenodd" d="M11.9956 30.3629L11.7637 30.1192L45.2794 -1.77539L45.5113 -1.5317L11.9956 30.3629Z" fill="#0089C7"/>
<path fill-rule="evenodd" clip-rule="evenodd" d="M11.8413 30.2007L11.6094 29.957L45.1251 -1.9375L45.357 -1.69381L11.8413 30.2007Z" fill="#0088C8"/>
<path fill-rule="evenodd" clip-rule="evenodd" d="M11.687 30.0381L11.4551 29.7944L44.9708 -2.1001L45.2027 -1.85639L11.687 30.0381Z" fill="#0088C8"/>
<path fill-rule="evenodd" clip-rule="evenodd" d="M11.5327 29.8761L11.3008 29.6324L44.8166 -2.26221L45.0484 -2.0185L11.5327 29.8761Z" fill="#0088C9"/>
<path fill-rule="evenodd" clip-rule="evenodd" d="M11.3765 29.7134L11.1445 29.4697L44.6604 -2.4248L44.8922 -2.1811L11.3765 29.7134Z" fill="#0087CA"/>
<path fill-rule="evenodd" clip-rule="evenodd" d="M11.2222 29.5509L10.9902 29.3072L44.5061 -2.5874L44.738 -2.3437L11.2222 29.5509Z" fill="#0087CB"/>
<path fill-rule="evenodd" clip-rule="evenodd" d="M11.0677 29.3882L10.8359 29.1445L44.3516 -2.75L44.5836 -2.50631L11.0677 29.3882Z" fill="#0086CB"/>
<path fill-rule="evenodd" clip-rule="evenodd" d="M10.9115 29.2256L10.6797 28.9819L44.1954 -2.9126L44.4273 -2.66889L10.9115 29.2256Z" fill="#0086CC"/>
<path fill-rule="evenodd" clip-rule="evenodd" d="M10.7593 29.0636L10.5273 28.8199L44.043 -3.07471L44.275 -2.831L10.7593 29.0636Z" fill="#0086CD"/>
<path fill-rule="evenodd" clip-rule="evenodd" d="M10.605 28.9009L10.373 28.6572L43.8887 -3.2373L44.1207 -2.9936L10.605 28.9009Z" fill="#0085CD"/>
<path fill-rule="evenodd" clip-rule="evenodd" d="M10.4507 28.7384L10.2188 28.4947L43.7344 -3.3999L43.9664 -3.1562L10.4507 28.7384Z" fill="#0085CE"/>
<path fill-rule="evenodd" clip-rule="evenodd" d="M10.2944 28.5757L10.0625 28.332L43.5782 -3.5625L43.8101 -3.31879L10.2944 28.5757Z" fill="#0085CF"/>
<path fill-rule="evenodd" clip-rule="evenodd" d="M10.1401 28.4136L9.9082 28.1699L43.424 -3.72461L43.6558 -3.4809L10.1401 28.4136Z" fill="#0084CF"/>
<path fill-rule="evenodd" clip-rule="evenodd" d="M9.98583 28.2511L9.75391 28.0074L43.2697 -3.88721L43.5016 -3.6435L9.98583 28.2511Z" fill="#0084D0"/>
<path fill-rule="evenodd" clip-rule="evenodd" d="M9.83153 28.0889L9.59961 27.8452L43.1154 -4.04932L43.3474 -3.80561L9.83153 28.0889Z" fill="#0083D0"/>
<path fill-rule="evenodd" clip-rule="evenodd" d="M9.67711 27.9258L9.44531 27.6822L42.961 -4.2124L43.1929 -3.9687L9.67711 27.9258Z" fill="#0083D1"/>
<path fill-rule="evenodd" clip-rule="evenodd" d="M9.52098 27.7637L9.28906 27.52L42.8047 -4.37451L43.0367 -4.13081L9.52098 27.7637Z" fill="#0083D2"/>
<path fill-rule="evenodd" clip-rule="evenodd" d="M9.36669 27.6016L9.13477 27.3579L42.6505 -4.53662L42.8824 -4.29293L9.36669 27.6016Z" fill="#0082D2"/>
<path fill-rule="evenodd" clip-rule="evenodd" d="M9.21239 27.4391L8.98047 27.1954L42.4962 -4.69922L42.7281 -4.45551L9.21239 27.4391Z" fill="#0082D3"/>
<path fill-rule="evenodd" clip-rule="evenodd" d="M9.05811 27.2764L8.82617 27.0327L42.3419 -4.86182L42.5738 -4.61811L9.05811 27.2764Z" fill="#0082D3"/>
<path fill-rule="evenodd" clip-rule="evenodd" d="M8.9038 27.1138L8.67188 26.8702L42.1877 -5.02441L42.4195 -4.78071L8.9038 27.1138Z" fill="#0081D4"/>
<path fill-rule="evenodd" clip-rule="evenodd" d="M8.7495 26.9517L8.51758 26.7079L42.0334 -5.18652L42.2652 -4.94295L8.7495 26.9517Z" fill="#0081D4"/>
<path fill-rule="evenodd" clip-rule="evenodd" d="M8.59325 26.7891L8.36133 26.5454L41.8771 -5.34912L42.1091 -5.10543L8.59325 26.7891Z" fill="#0081D5"/>
<path fill-rule="evenodd" clip-rule="evenodd" d="M8.43883 26.6266L8.20703 26.3829L41.7227 -5.51172L41.9547 -5.26801L8.43883 26.6266Z" fill="#0081D5"/>
<path fill-rule="evenodd" clip-rule="evenodd" d="M8.28453 26.4639L8.05273 26.2202L41.5684 -5.67432L41.8004 -5.43061L8.28453 26.4639Z" fill="#0080D6"/>
<path fill-rule="evenodd" clip-rule="evenodd" d="M8.13036 26.3018L7.89844 26.0582L41.4141 -5.83643L41.646 -5.59272L8.13036 26.3018Z" fill="#0080D6"/>
<path fill-rule="evenodd" clip-rule="evenodd" d="M7.97607 26.1392L7.74414 25.8954L41.2598 -5.99902L41.4918 -5.75544L7.97607 26.1392Z" fill="#0080D7"/>
<path fill-rule="evenodd" clip-rule="evenodd" d="M7.82178 25.9766L7.58984 25.7329L41.1055 -6.16162L41.3375 -5.91792L7.82178 25.9766Z" fill="#007FD7"/>
<path fill-rule="evenodd" clip-rule="evenodd" d="M7.66552 25.8141L7.43359 25.5704L40.9493 -6.32422L41.1812 -6.08051L7.66552 25.8141Z" fill="#007FD8"/>
<path fill-rule="evenodd" clip-rule="evenodd" d="M7.51122 25.6518L7.2793 25.4082L40.7951 -6.48633L41.0269 -6.24262L7.51122 25.6518Z" fill="#007FD8"/>
<path fill-rule="evenodd" clip-rule="evenodd" d="M7.35887 25.4893L7.12695 25.2457L40.6428 -6.64893L40.8747 -6.40522L7.35887 25.4893Z" fill="#007FD9"/>
<path fill-rule="evenodd" clip-rule="evenodd" d="M7.20262 25.3267L6.9707 25.0829L40.4865 -6.81152L40.7184 -6.56794L7.20262 25.3267Z" fill="#007FD9"/>
<path fill-rule="evenodd" clip-rule="evenodd" d="M7.04821 25.1641L6.81641 24.9204L40.3321 -6.97412L40.564 -6.73042L7.04821 25.1641Z" fill="#007ED9"/>
<path fill-rule="evenodd" clip-rule="evenodd" d="M6.89403 25.0016L6.66211 24.7579L40.1778 -7.13672L40.4097 -6.89303L6.89403 25.0016Z" fill="#007EDA"/>
<path fill-rule="evenodd" clip-rule="evenodd" d="M6.73779 24.8394L6.50586 24.5957L40.0216 -7.29883L40.2535 -7.05512L6.73779 24.8394Z" fill="#007EDA"/>
<path fill-rule="evenodd" clip-rule="evenodd" d="M6.58545 24.6768L6.35352 24.4332L39.8692 -7.46143L40.1011 -7.21772L6.58545 24.6768Z" fill="#007EDA"/>
<path fill-rule="evenodd" clip-rule="evenodd" d="M6.43114 24.5146L6.19922 24.2709L39.7149 -7.62354L39.9468 -7.37995L6.43114 24.5146Z" fill="#007DDB"/>
<path fill-rule="evenodd" clip-rule="evenodd" d="M6.27489 24.352L6.04297 24.1083L39.5588 -7.78613L39.7906 -7.54243L6.27489 24.352Z" fill="#007DDB"/>
<path fill-rule="evenodd" clip-rule="evenodd" d="M6.12059 24.1896L5.88867 23.9459L39.4045 -7.94873L39.6363 -7.70504L6.12059 24.1896Z" fill="#007DDB"/>
<path fill-rule="evenodd" clip-rule="evenodd" d="M5.96434 24.0273L5.73242 23.7836L39.2482 -8.11084L39.4802 -7.86715L5.96434 24.0273Z" fill="#007DDC"/>
<path fill-rule="evenodd" clip-rule="evenodd" d="M5.81188 23.8647L5.58008 23.6212L39.0958 -8.27344L39.3277 -8.02973L5.81188 23.8647Z" fill="#007DDC"/>
<path fill-rule="evenodd" clip-rule="evenodd" d="M5.65758 23.7021L5.42578 23.4584L38.9415 -8.43604L39.1734 -8.19245L5.65758 23.7021Z" fill="#007DDC"/>
<path fill-rule="evenodd" clip-rule="evenodd" d="M5.50342 23.5395L5.27148 23.2958L38.7872 -8.59863L39.0191 -8.35493L5.50342 23.5395Z" fill="#007CDD"/>
<path fill-rule="evenodd" clip-rule="evenodd" d="M5.34716 23.3776L5.11523 23.1339L38.6309 -8.76074L38.8629 -8.51705L5.34716 23.3776Z" fill="#007CDD"/>
<path fill-rule="evenodd" clip-rule="evenodd" d="M5.19286 23.2148L4.96094 22.9711L38.4766 -8.92334L38.7086 -8.67965L5.19286 23.2148Z" fill="#007CDD"/>
<path fill-rule="evenodd" clip-rule="evenodd" d="M5.03856 23.0522L4.80664 22.8087L38.3223 -9.08594L38.5543 -8.84223L5.03856 23.0522Z" fill="#007CDD"/>
<path fill-rule="evenodd" clip-rule="evenodd" d="M4.88427 22.8896L4.65234 22.6459L38.1682 -9.24854L38.4 -9.00495L4.88427 22.8896Z" fill="#007CDD"/>
<path fill-rule="evenodd" clip-rule="evenodd" d="M4.72997 22.7275L4.49805 22.4838L38.0139 -9.41064L38.2458 -9.16694L4.72997 22.7275Z" fill="#007CDE"/>
<path fill-rule="evenodd" clip-rule="evenodd" d="M4.57373 22.5651L4.3418 22.3214L37.8576 -9.57324L38.0896 -9.32954L4.57373 22.5651Z" fill="#007CDE"/>
<path fill-rule="evenodd" clip-rule="evenodd" d="M4.4193 22.4023L4.1875 22.1586L37.7032 -9.73584L37.9351 -9.49213L4.4193 22.4023Z" fill="#007CDE"/>
<path fill-rule="evenodd" clip-rule="evenodd" d="M4.26514 22.2397L4.0332 21.9962L37.5489 -9.89844L37.7808 -9.65473L4.26514 22.2397Z" fill="#007BDE"/>
<path fill-rule="evenodd" clip-rule="evenodd" d="M4.11083 22.0776L3.87891 21.8339L37.3946 -10.0605L37.6265 -9.81696L4.11083 22.0776Z" fill="#007BDE"/>
<path fill-rule="evenodd" clip-rule="evenodd" d="M3.95653 21.9155L3.72461 21.6718L37.2403 -10.2227L37.4722 -9.97895L3.95653 21.9155Z" fill="#007BDE"/>
<path fill-rule="evenodd" clip-rule="evenodd" d="M3.80223 21.7526L3.57031 21.5089L37.086 -10.3857L37.3179 -10.142L3.80223 21.7526Z" fill="#007BDF"/>
<path fill-rule="evenodd" clip-rule="evenodd" d="M3.64794 21.5903L3.41602 21.3466L36.9318 -10.5479L37.1636 -10.3041L3.64794 21.5903Z" fill="#007BDF"/>
<path fill-rule="evenodd" clip-rule="evenodd" d="M3.49169 21.4277L3.25977 21.1841L36.7756 -10.7104L37.0074 -10.4668L3.49169 21.4277Z" fill="#007BDF"/>
<path fill-rule="evenodd" clip-rule="evenodd" d="M3.33739 21.2656L3.10547 21.0219L36.6213 -10.8726L36.8532 -10.629L3.33739 21.2656Z" fill="#007BDF"/>
<path fill-rule="evenodd" clip-rule="evenodd" d="M3.18297 21.1025L2.95117 20.8588L36.4669 -11.0356L36.6988 -10.7919L3.18297 21.1025Z" fill="#007BDF"/>
<path fill-rule="evenodd" clip-rule="evenodd" d="M3.02867 20.9405L2.79688 20.6968L36.3126 -11.1978L36.5445 -10.954L3.02867 20.9405Z" fill="#007BDF"/>
<path fill-rule="evenodd" clip-rule="evenodd" d="M2.87451 20.7778L2.64258 20.5341L36.1583 -11.3604L36.3902 -11.1166L2.87451 20.7778Z" fill="#007BDF"/>
<path fill-rule="evenodd" clip-rule="evenodd" d="M2.71825 20.6157L2.48633 20.3721L36.002 -11.5225L36.2339 -11.2788L2.71825 20.6157Z" fill="#007BDF"/>
<path fill-rule="evenodd" clip-rule="evenodd" d="M2.56488 20.4528L1.03125 18.8413L34.5471 -13.0532L36.0806 -11.4418L2.56488 20.4528Z" fill="#007BDF"/>
</g>
<path fill-rule="evenodd" clip-rule="evenodd" d="M38.3961 31.2119L32.7919 27.9764L32.742 27.9401C32.6745 27.8912 32.6007 27.8526 32.5235 27.8277C32.4543 27.8052 32.3734 27.793 32.2828 27.793C32.2105 27.793 32.1443 27.801 32.0856 27.8158C32.0222 27.8317 31.9665 27.8522 31.921 27.8758L31.9225 27.8785L31.8774 27.9039L31.8759 27.9011L31.8496 27.919L26.1465 31.2118L32.2712 34.7478L38.3961 31.2119Z" fill="#1F6DFF"/>
<path fill-rule="evenodd" clip-rule="evenodd" d="M30.8395 44.3047L30.8398 37.2291L24.7188 33.6953V39.9962L24.7345 40.0439L24.731 40.3293H24.7364C24.7364 40.4833 24.778 40.6237 24.8498 40.7391C24.928 40.8651 25.0391 40.9673 25.1688 41.0313L30.8395 44.3047Z" fill="#00AD88"/>
<path fill-rule="evenodd" clip-rule="evenodd" d="M39.8241 33.6953L33.7034 37.2291L33.7031 44.3047L39.4241 41.002L39.4297 40.9964C39.548 40.9295 39.6493 40.8278 39.7219 40.7035C39.7879 40.5903 39.826 40.4565 39.826 40.3128H39.8314L39.8296 40.2646L39.8241 40.2253V33.6953Z" fill="#F6852F"/>
<path fill-rule="evenodd" clip-rule="evenodd" d="M31.3691 9.58982L32.7333 8.13574L33.6111 9.58543C33.283 9.39385 32.9011 9.28385 32.4939 9.28385C32.0835 9.28385 31.6989 9.39561 31.3691 9.58982Z" fill="#0088C8"/>
<defs>
<linearGradient id="paint0_linear_242_4622" x1="10.2207" y1="47.9885" x2="63.9154" y2="47.9885" gradientUnits="userSpaceOnUse">
<stop stop-color="#07DDFF"/>
<stop offset="1" stop-color="#3600FF"/>
</linearGradient>
</defs>
</svg>
