<svg width="158" height="32" viewBox="0 0 158 32" fill="none" xmlns="http://www.w3.org/2000/svg">
<path d="M15.593 20.3255H7.487L5.937 23.3375H0L11.562 1.85352L23.079 23.3375H17.143L15.593 20.3255ZM13.511 16.2945L11.562 12.5295L9.569 16.2945H13.511Z" fill="black"/>
<path d="M26.0467 22.7175C25.0524 22.2849 24.1392 21.6856 23.3467 20.9455C22.5835 20.2232 21.9922 19.3387 21.6164 18.3574C21.2407 17.376 21.0901 16.3228 21.1757 15.2755L25.6957 15.3205V15.2765C25.7013 15.9894 25.8842 16.6898 26.2277 17.3145C26.6673 17.8512 27.2336 18.2699 27.8756 18.5329C28.5176 18.7958 29.2149 18.8946 29.9047 18.8205C32.8727 18.8205 34.2047 18.0675 34.2047 16.7825C34.2047 15.4535 32.5217 14.6115 29.7747 14.3465C28.2841 14.2028 26.822 13.8448 25.4337 13.2835C24.3944 12.8699 23.4574 12.2352 22.6877 11.4235C21.7207 10.3728 21.1832 8.99746 21.1817 7.5695C21.1416 6.0414 21.6794 4.55441 22.6877 3.40551C24.1937 1.67751 26.6747 0.791504 30.0407 0.791504C34.4707 0.791504 36.6407 2.74051 37.7037 4.37951C38.4477 5.62839 38.8607 7.04645 38.9037 8.4995H34.3857V8.5435C34.3989 7.94595 34.2289 7.35868 33.8987 6.8605C33.421 6.32279 32.8227 5.90595 32.1527 5.64417C31.4828 5.38239 30.7604 5.28312 30.0447 5.3545C28.1447 5.3545 25.9247 5.84151 25.9247 7.3035C25.9247 8.67684 27.3864 9.5185 30.3097 9.8285C33.5877 10.1825 35.9797 11.2015 37.4417 12.8855C38.3782 13.9833 38.8963 15.377 38.9043 16.82C38.9124 18.2629 38.4099 19.6623 37.4857 20.7705C36.6908 21.645 35.6836 22.2994 34.5617 22.6705C33.0714 23.1331 31.5142 23.3427 29.9547 23.2905C28.6265 23.3711 27.2959 23.176 26.0467 22.7175Z" fill="black"/>
<path d="M63.3449 18.6865V23.2935H47.7969V1.85352H52.9349V18.7305H63.3449V18.6865Z" fill="black"/>
<path d="M80.4894 14.7449C80.4938 16.4227 80.0005 18.0641 79.072 19.4615C78.1435 20.8589 76.8214 21.9497 75.273 22.5957C73.7246 23.2418 72.0194 23.4142 70.373 23.0912C68.7267 22.7681 67.2131 21.9641 66.0236 20.7808C64.8342 19.5975 64.0223 18.0881 63.6908 16.4434C63.3592 14.7987 63.5227 13.0927 64.1608 11.5409C64.7988 9.98922 65.8826 8.66154 67.2752 7.7258C68.6678 6.79006 70.3066 6.28828 71.9844 6.28393C73.0999 6.2756 74.206 6.48844 75.2388 6.91015C76.2715 7.33186 77.2105 7.95407 78.0013 8.74083C78.7922 9.52759 79.4193 10.4633 79.8463 11.4938C80.2734 12.5244 80.492 13.6294 80.4894 14.7449ZM76.1894 14.7889C76.1883 14.2369 76.0781 13.6906 75.8653 13.1813C75.6525 12.672 75.3413 12.2097 74.9494 11.8209C74.1489 11.0577 73.0874 10.6285 71.9814 10.6209C71.436 10.6223 70.8963 10.7327 70.3942 10.9457C69.8921 11.1586 69.4375 11.4698 69.0574 11.8609C68.2731 12.6509 67.8282 13.7158 67.8174 14.8289C67.8203 15.3786 67.9314 15.9224 68.1445 16.4292C68.3575 16.9359 68.6683 17.3958 69.059 17.7824C69.4498 18.1691 69.9128 18.475 70.4218 18.6827C70.9308 18.8904 71.4757 18.9958 72.0254 18.9929C72.5751 18.99 73.1189 18.8789 73.6256 18.6659C74.1324 18.4528 74.5922 18.1421 74.9789 17.7513C75.3656 17.3606 75.6715 16.8975 75.8792 16.3885C76.0869 15.8795 76.1923 15.3346 76.1894 14.7849V14.7889Z" fill="black"/>
<path d="M98.872 6.28369V23.2937C98.875 25.4593 98.0503 27.5441 96.5668 29.1218C95.0833 30.6994 93.0531 31.6506 90.8914 31.7808C88.7298 31.9109 86.6 31.2102 84.938 29.822C83.2759 28.4338 82.207 26.463 81.95 24.3127H86.291C86.4917 25.0445 86.8723 25.7145 87.398 26.2617C87.7868 26.6536 88.2491 26.9648 88.7584 27.1776C89.2677 27.3904 89.814 27.5005 90.366 27.5017C90.9121 27.5046 91.453 27.3961 91.9558 27.1829C92.4585 26.9697 92.9125 26.6563 93.29 26.2617C93.6812 25.8815 93.9923 25.427 94.2053 24.9249C94.4182 24.4228 94.5286 23.8831 94.53 23.3377L94.486 21.6547C93.3755 22.7174 91.903 23.3189 90.366 23.3377C89.2491 23.3435 88.142 23.1293 87.1079 22.7073C86.0738 22.2853 85.1329 21.6637 84.339 20.8781C83.5452 20.0925 82.9138 19.1582 82.481 18.1285C82.0481 17.0989 81.8224 15.9941 81.8165 14.8772C81.8107 13.7603 82.0249 12.6532 82.4469 11.6191C82.8689 10.585 83.4905 9.64411 84.2761 8.85021C85.0617 8.05632 85.9961 7.42494 87.0257 6.99212C88.0553 6.55931 89.1601 6.33353 90.277 6.32769C91.0672 6.28194 91.8573 6.41787 92.5868 6.72504C93.3162 7.03222 93.9656 7.50247 94.485 8.09969V6.32769H98.87L98.872 6.28369ZM94.572 14.3017C94.4744 13.3387 94.0344 12.4427 93.332 11.7767C92.5315 11.0134 91.4701 10.5843 90.364 10.5767C89.818 10.5738 89.277 10.6822 88.7743 10.8954C88.2715 11.1086 87.8175 11.4221 87.44 11.8167C86.6557 12.6066 86.2108 13.6716 86.2 14.7847C86.1915 15.6147 86.4311 16.4284 86.8882 17.1213C87.3452 17.8142 87.9988 18.3548 88.7652 18.6737C89.5315 18.9926 90.3757 19.0753 91.1894 18.9112C92.0031 18.7471 92.7492 18.3437 93.332 17.7527C94.0045 17.1059 94.4291 16.244 94.532 15.3167V14.3017H94.572Z" fill="black"/>
<path d="M105.472 4.20371H100.865V0.303711H105.472V4.20371ZM105.516 23.3397H100.909V6.32771H105.516V23.3397Z" fill="black"/>
<path d="M111.365 22.8068C110.578 22.4844 109.857 22.0189 109.239 21.4338C108.638 20.8715 108.171 20.1816 107.872 19.415C107.573 18.6484 107.45 17.8244 107.511 17.0038V16.6498L111.232 16.6938H111.542V16.9598C111.569 17.4362 111.689 17.9027 111.896 18.3328C112.188 18.6978 112.571 18.9798 113.007 19.1508C113.442 19.3219 113.914 19.376 114.377 19.3078C115.147 19.3661 115.921 19.245 116.636 18.9538C117.168 18.6878 117.212 18.3778 117.212 18.1538C117.212 17.0908 115.312 16.7358 114.155 16.6038C113.014 16.5052 111.894 16.2355 110.833 15.8038C110.003 15.4974 109.258 14.996 108.662 14.3418C107.878 13.5015 107.448 12.3911 107.462 11.2418C107.437 10.0241 107.864 8.84027 108.662 7.91983C109.862 6.54683 111.762 5.88184 114.376 5.88184C117.831 5.88184 119.514 7.38783 120.356 8.67283C120.955 9.64577 121.277 10.7642 121.286 11.9068V12.2168H117.299V11.9068C117.299 11.5302 117.192 11.1614 116.989 10.8438C116.659 10.4898 116.251 10.2174 115.797 10.0482C115.343 9.879 114.856 9.81759 114.375 9.86884C113.002 9.86884 111.584 10.2228 111.584 11.0208C111.585 11.2311 111.648 11.4364 111.766 11.6102C111.885 11.784 112.053 11.9183 112.248 11.9958C112.981 12.3582 113.78 12.5691 114.596 12.6158C116.674 12.6989 118.648 13.5514 120.133 15.0078C120.879 15.8683 121.288 16.9693 121.285 18.1078C121.328 19.272 120.933 20.41 120.178 21.2968C119.547 21.9807 118.757 22.498 117.878 22.8028C116.729 23.1475 115.533 23.3118 114.334 23.2898C113.321 23.3429 112.309 23.1782 111.365 22.8068Z" fill="black"/>
<path d="M135.018 10.9347H131.208V23.3347H126.601V10.9347H122.748V6.28366H126.602V0.347656H131.209V6.28366H135.019L135.018 10.9347Z" fill="black"/>
<path d="M141.575 4.20371H137.012V0.303711H141.619V4.20371H141.575ZM141.619 23.3397H137.012V6.32771H141.619V23.3397Z" fill="black"/>
<path d="M157.211 21.2567C155.976 22.3419 154.454 23.0479 152.828 23.2903C151.202 23.5326 149.54 23.301 148.043 22.6232C146.545 21.9454 145.274 20.8501 144.383 19.4685C143.492 18.087 143.018 16.4778 143.018 14.8337C143.018 13.1896 143.492 11.5804 144.383 10.1989C145.274 8.8173 146.545 7.722 148.043 7.04417C149.54 6.36635 151.202 6.13475 152.828 6.37711C154.454 6.61948 155.976 7.32554 157.211 8.4107L154.155 11.4677C153.426 10.9219 152.54 10.6266 151.63 10.6257C150.524 10.6333 149.462 11.0624 148.662 11.8257C147.874 12.6091 147.429 13.6734 147.425 14.7847C147.408 15.3356 147.506 15.8839 147.713 16.3948C147.92 16.9058 148.23 17.3682 148.625 17.7527C149.014 18.1446 149.476 18.4558 149.985 18.6686C150.495 18.8814 151.041 18.9915 151.593 18.9927C152.502 18.9848 153.386 18.6902 154.118 18.1507L157.211 21.2567Z" fill="black"/>
</svg>
