<svg width="158" height="32" viewBox="0 0 158 32" fill="none" xmlns="http://www.w3.org/2000/svg">
<path d="M15.638 20.326H7.53204L5.98204 23.338H0.0450439L11.607 1.854L23.1241 23.338H17.188L15.638 20.326ZM13.556 16.295L11.607 12.53L9.61404 16.295H13.556Z" fill="white"/>
<path d="M26.091 22.718C25.0967 22.2854 24.1836 21.6861 23.391 20.946C22.6278 20.2237 22.0365 19.3392 21.6607 18.3579C21.285 17.3765 21.1344 16.3233 21.22 15.276L25.74 15.321V15.277C25.7456 15.9899 25.9285 16.6903 26.272 17.315C26.7116 17.8517 27.2779 18.2704 27.9199 18.5333C28.5619 18.7963 29.2593 18.8951 29.949 18.821C32.917 18.821 34.249 18.068 34.249 16.783C34.249 15.454 32.566 14.612 29.819 14.347C28.3284 14.2033 26.8664 13.8453 25.478 13.284C24.4387 12.8703 23.5017 12.2357 22.732 11.424C21.765 10.3733 21.2275 8.99795 21.226 7.56999C21.1859 6.04189 21.7237 4.5549 22.732 3.40599C24.238 1.67799 26.719 0.791992 30.085 0.791992C34.515 0.791992 36.685 2.74099 37.748 4.37999C38.492 5.62888 38.905 7.04694 38.948 8.49999H34.43V8.54399C34.4432 7.94644 34.2733 7.35916 33.943 6.86099C33.4653 6.32328 32.867 5.90644 32.1971 5.64466C31.5271 5.38288 30.8047 5.28361 30.089 5.35499C28.189 5.35499 25.969 5.84199 25.969 7.30399C25.969 8.67733 27.4307 9.51899 30.354 9.82899C33.632 10.183 36.024 11.202 37.486 12.886C38.4225 13.9838 38.9406 15.3775 38.9486 16.8205C38.9567 18.2634 38.4542 19.6628 37.53 20.771C36.7351 21.6454 35.728 22.2999 34.606 22.671C33.1158 23.1336 31.5585 23.3431 29.999 23.291C28.6708 23.3716 27.3402 23.1765 26.091 22.718Z" fill="white"/>
<path d="M63.39 18.687V23.294H47.842V1.854H52.98V18.731H63.39V18.687Z" fill="white"/>
<path d="M80.533 14.7454C80.5373 16.4232 80.0441 18.0646 79.1156 19.462C78.1871 20.8594 76.865 21.9501 75.3166 22.5962C73.7682 23.2423 72.063 23.4147 70.4166 23.0917C68.7702 22.7686 67.2566 21.9646 66.0672 20.7813C64.8778 19.598 64.0659 18.0886 63.7343 16.4439C63.4028 14.7992 63.5663 13.0932 64.2043 11.5414C64.8424 9.98971 65.9262 8.66203 67.3188 7.72629C68.7114 6.79055 70.3502 6.28877 72.028 6.28441C73.1435 6.27609 74.2496 6.48893 75.2823 6.91064C76.3151 7.33235 77.254 7.95456 78.0449 8.74132C78.8357 9.52808 79.4628 10.4638 79.8899 11.4943C80.317 12.5249 80.5355 13.6299 80.533 14.7454ZM76.233 14.7894C76.2318 14.2374 76.1217 13.6911 75.9089 13.1818C75.6961 12.6725 75.3849 12.2102 74.993 11.8214C74.1925 11.0581 73.131 10.629 72.025 10.6214C71.4796 10.6228 70.9399 10.7332 70.4378 10.9462C69.9356 11.1591 69.4811 11.4703 69.101 11.8614C68.3167 12.6513 67.8717 13.7163 67.861 14.8294C67.8639 15.3791 67.975 15.9229 68.188 16.4296C68.4011 16.9364 68.7118 17.3963 69.1026 17.7829C69.4933 18.1696 69.9564 18.4755 70.4654 18.6832C70.9744 18.8909 71.5193 18.9963 72.069 18.9934C72.6187 18.9905 73.1625 18.8794 73.6692 18.6664C74.176 18.4533 74.6358 18.1426 75.0225 17.7518C75.4092 17.3611 75.7151 16.898 75.9228 16.389C76.1305 15.88 76.2359 15.3351 76.233 14.7854V14.7894Z" fill="white"/>
<path d="M98.9171 6.28418V23.2942C98.92 25.4598 98.0953 27.5446 96.6118 29.1222C95.1283 30.6999 93.0981 31.6511 90.9365 31.7813C88.7748 31.9114 86.6451 31.2107 84.983 29.8225C83.3209 28.4343 82.2521 26.4635 81.9951 24.3132H86.3361C86.5368 25.045 86.9173 25.715 87.4431 26.2622C87.8318 26.6541 88.2941 26.9653 88.8034 27.1781C89.3128 27.3909 89.8591 27.501 90.4111 27.5022C90.9571 27.5051 91.4981 27.3966 92.0008 27.1834C92.5036 26.9702 92.9576 26.6568 93.3351 26.2622C93.7262 25.882 94.0374 25.4275 94.2503 24.9254C94.4633 24.4233 94.5737 23.8836 94.5751 23.3382L94.5311 21.6552C93.4206 22.7179 91.948 23.3194 90.4111 23.3382C89.2942 23.344 88.1871 23.1298 87.1529 22.7078C86.1188 22.2858 85.178 21.6642 84.3841 20.8786C83.5902 20.093 82.9588 19.1587 82.526 18.129C82.0932 17.0994 81.8674 15.9946 81.8616 14.8777C81.8557 13.7608 82.0699 12.6537 82.4919 11.6196C82.914 10.5855 83.5355 9.64459 84.3212 8.8507C85.1068 8.05681 86.0411 7.42543 87.0707 6.99261C88.1004 6.5598 89.2052 6.33402 90.3221 6.32818C91.1122 6.28243 91.9024 6.41836 92.6318 6.72553C93.3613 7.03271 94.0106 7.50296 94.5301 8.10018V6.32818H98.9151L98.9171 6.28418ZM94.6171 14.3022C94.5195 13.3392 94.0795 12.4432 93.3771 11.7772C92.5766 11.0139 91.5151 10.5847 90.4091 10.5772C89.863 10.5743 89.322 10.6827 88.8193 10.8959C88.3166 11.1091 87.8626 11.4226 87.4851 11.8172C86.7007 12.6071 86.2558 13.6721 86.2451 14.7852C86.2366 15.6152 86.4762 16.4288 86.9332 17.1218C87.3903 17.8147 88.0439 18.3552 88.8102 18.6742C89.5766 18.9931 90.4207 19.0758 91.2344 18.9117C92.0481 18.7476 92.7942 18.3442 93.3771 17.7532C94.0495 17.1064 94.4741 16.2445 94.5771 15.3172V14.3022H94.6171Z" fill="white"/>
<path d="M105.517 4.2042H100.91V0.304199H105.517V4.2042ZM105.561 23.3402H100.954V6.3282H105.561V23.3402Z" fill="white"/>
<path d="M111.41 22.8073C110.623 22.4849 109.902 22.0194 109.284 21.4343C108.683 20.872 108.216 20.1821 107.917 19.4155C107.618 18.6488 107.495 17.8249 107.556 17.0043V16.6503L111.277 16.6943H111.587V16.9603C111.614 17.4367 111.734 17.9032 111.941 18.3333C112.234 18.6982 112.616 18.9803 113.052 19.1513C113.487 19.3224 113.959 19.3765 114.422 19.3083C115.192 19.3666 115.966 19.2454 116.681 18.9543C117.213 18.6883 117.257 18.3783 117.257 18.1543C117.257 17.0913 115.357 16.7363 114.2 16.6043C113.059 16.5057 111.939 16.236 110.878 15.8043C110.048 15.4979 109.303 14.9965 108.707 14.3423C107.923 13.502 107.493 12.3916 107.507 11.2423C107.482 10.0246 107.909 8.84076 108.707 7.92032C109.907 6.54732 111.807 5.88232 114.421 5.88232C117.876 5.88232 119.559 7.38832 120.401 8.67332C121 9.64625 121.322 10.7647 121.331 11.9073V12.2173H117.344V11.9073C117.344 11.5307 117.237 11.1618 117.034 10.8443C116.704 10.4903 116.296 10.2179 115.842 10.0487C115.388 9.87949 114.902 9.81808 114.42 9.86932C113.047 9.86932 111.629 10.2233 111.629 11.0213C111.63 11.2316 111.693 11.4369 111.812 11.6106C111.93 11.7844 112.098 11.9188 112.293 11.9963C113.026 12.3587 113.825 12.5696 114.641 12.6163C116.72 12.6993 118.693 13.5519 120.178 15.0083C120.924 15.8688 121.333 16.9698 121.33 18.1083C121.373 19.2724 120.978 20.4105 120.223 21.2973C119.592 21.9812 118.802 22.4985 117.923 22.8033C116.774 23.148 115.578 23.3123 114.379 23.2903C113.366 23.3434 112.354 23.1787 111.41 22.8073Z" fill="white"/>
<path d="M135.063 10.9351H131.253V23.3351H126.646V10.9351H122.793V6.28415H126.647V0.348145H131.254V6.28415H135.064L135.063 10.9351Z" fill="white"/>
<path d="M141.62 4.2042H137.057V0.304199H141.664V4.2042H141.62ZM141.664 23.3402H137.057V6.3282H141.664V23.3402Z" fill="white"/>
<path d="M157.256 21.2572C156.021 22.3423 154.499 23.0484 152.873 23.2908C151.247 23.5331 149.585 23.3015 148.088 22.6237C146.59 21.9459 145.319 20.8506 144.428 19.469C143.537 18.0875 143.063 16.4783 143.063 14.8342C143.063 13.1901 143.537 11.5809 144.428 10.1993C145.319 8.81779 146.59 7.72249 148.088 7.04466C149.585 6.36683 151.247 6.13523 152.873 6.3776C154.499 6.61997 156.021 7.32603 157.256 8.41119L154.2 11.4682C153.471 10.9224 152.585 10.627 151.675 10.6262C150.569 10.6337 149.507 11.0629 148.707 11.8262C147.919 12.6096 147.474 13.6739 147.47 14.7852C147.453 15.3361 147.551 15.8844 147.758 16.3953C147.965 16.9063 148.275 17.3687 148.67 17.7532C149.059 18.1451 149.521 18.4563 150.03 18.6691C150.54 18.8819 151.086 18.992 151.638 18.9932C152.547 18.9853 153.431 18.6907 154.163 18.1512L157.256 21.2572Z" fill="white"/>
</svg>
